<?xml version="1.0" encoding="UTF-8" standalone="no"?>
<!DOCTYPE svg PUBLIC "-//W3C//DTD SVG 1.1//EN"
 "http://www.w3.org/Graphics/SVG/1.1/DTD/svg11.dtd">
<!-- Generated by graphviz version 2.49.3 (20211023.0002)
 -->
<!-- Title: test Pages: 1 -->
<svg width="2263pt" height="2367pt"
 viewBox="0.00 0.00 2262.70 2367.07" xmlns="http://www.w3.org/2000/svg" xmlns:xlink="http://www.w3.org/1999/xlink">
<g id="graph0" class="graph" transform="scale(1 1) rotate(0) translate(4 2363.07)">
<title>test</title>
<polygon fill="white" stroke="transparent" points="-4,4 -4,-2363.07 2258.7,-2363.07 2258.7,4 -4,4"/>
<!-- 0 -->
<g id="node1" class="node">
<title>0</title>
<ellipse fill="none" stroke="black" cx="509" cy="-2341.07" rx="40.09" ry="18"/>
<text text-anchor="middle" x="509" y="-2337.37" font-family="Times New Roman,serif" font-size="14.00">artifact6</text>
</g>
<!-- 48 -->
<g id="node2" class="node">
<title>48</title>
<ellipse fill="none" stroke="black" cx="509" cy="-2269.07" rx="33.29" ry="18"/>
<text text-anchor="middle" x="509" y="-2265.37" font-family="Times New Roman,serif" font-size="14.00">node9</text>
</g>
<!-- 0&#45;&gt;48 -->
<g id="edge1" class="edge">
<title>0&#45;&gt;48</title>
<path fill="none" stroke="black" d="M503.12,-2323.12C502.29,-2315.3 502.05,-2305.82 502.41,-2297.05"/>
<polygon fill="black" stroke="black" points="505.92,-2297.08 503.14,-2286.86 498.93,-2296.58 505.92,-2297.08"/>
</g>
<!-- 46 -->
<g id="node3" class="node">
<title>46</title>
<ellipse fill="none" stroke="black" cx="1680" cy="-500.08" rx="50.09" ry="18"/>
<text text-anchor="middle" x="1680" y="-496.38" font-family="Times New Roman,serif" font-size="14.00">interface11</text>
</g>
<!-- 0&#45;&gt;46 -->
<g id="edge2" class="edge">
<title>0&#45;&gt;46</title>
<path fill="none" stroke="black" d="M549.15,-2338.67C799.6,-2329.93 2136,-2280.52 2136,-2198.07 2136,-2198.07 2136,-2198.07 2136,-1787.38 2136,-1413.96 1850,-1370.79 1850,-997.38 1850,-997.38 1850,-997.38 1850,-643.08 1850,-577.12 1774.48,-536.94 1724.01,-516.88"/>
<polygon fill="black" stroke="black" points="1725.18,-513.58 1714.59,-513.25 1722.66,-520.11 1725.18,-513.58"/>
</g>
<!-- 62 -->
<g id="node4" class="node">
<title>62</title>
<ellipse fill="none" stroke="black" cx="406" cy="-1212.38" rx="60.39" ry="18"/>
<text text-anchor="middle" x="406" y="-1208.68" font-family="Times New Roman,serif" font-size="14.00">component10</text>
</g>
<!-- 0&#45;&gt;62 -->
<g id="edge3" class="edge">
<title>0&#45;&gt;62</title>
<path fill="none" stroke="black" d="M469.06,-2337.55C349.07,-2328.88 0,-2295.32 0,-2198.07 0,-2198.07 0,-2198.07 0,-2003.38 0,-1874.54 61.1,-1854.37 108,-1734.38 160.8,-1599.3 224,-1574.4 224,-1429.38 224,-1429.38 224,-1429.38 224,-1355.38 224,-1288.65 300.99,-1248.65 354.82,-1228.84"/>
<polygon fill="black" stroke="black" points="356,-1232.14 364.25,-1225.49 353.65,-1225.54 356,-1232.14"/>
</g>
<!-- 48&#45;&gt;0 -->
<g id="edge120" class="edge">
<title>48&#45;&gt;0</title>
<path fill="none" stroke="black" d="M514.86,-2286.86C515.7,-2294.66 515.94,-2304.14 515.6,-2312.92"/>
<polygon fill="black" stroke="black" points="512.09,-2312.9 514.88,-2323.12 519.07,-2313.39 512.09,-2312.9"/>
</g>
<!-- 52 -->
<g id="node37" class="node">
<title>52</title>
<ellipse fill="none" stroke="black" cx="509" cy="-2197.07" rx="33.29" ry="18"/>
<text text-anchor="middle" x="509" y="-2193.37" font-family="Times New Roman,serif" font-size="14.00">node7</text>
</g>
<!-- 48&#45;&gt;52 -->
<g id="edge119" class="edge">
<title>48&#45;&gt;52</title>
<path fill="none" stroke="black" d="M503.12,-2251.12C502.29,-2243.3 502.05,-2233.82 502.41,-2225.05"/>
<polygon fill="black" stroke="black" points="505.92,-2225.08 503.14,-2214.86 498.93,-2224.58 505.92,-2225.08"/>
</g>
<!-- 46&#45;&gt;0 -->
<g id="edge116" class="edge">
<title>46&#45;&gt;0</title>
<path fill="none" stroke="black" d="M1720.17,-511.14C1775.53,-528.67 1868,-570.1 1868,-643.08 1868,-997.38 1868,-997.38 1868,-997.38 1868,-1370.79 2154,-1413.96 2154,-1787.38 2154,-2198.07 2154,-2198.07 2154,-2198.07 2154,-2279.96 835.79,-2329.25 559.41,-2338.48"/>
<polygon fill="black" stroke="black" points="559.15,-2334.99 549.27,-2338.82 559.38,-2341.99 559.15,-2334.99"/>
</g>
<!-- 4 -->
<g id="node12" class="node">
<title>4</title>
<ellipse fill="none" stroke="red" cx="756" cy="-572.08" rx="55.79" ry="18"/>
<text text-anchor="middle" x="756" y="-568.38" font-family="Times New Roman,serif" font-size="14.00">component5</text>
</g>
<!-- 46&#45;&gt;4 -->
<g id="edge115" class="edge">
<title>46&#45;&gt;4</title>
<path fill="none" stroke="black" d="M1631.58,-505C1476.84,-517.07 994.79,-553.59 820.03,-566.5"/>
<polygon fill="black" stroke="black" points="819.67,-563.02 809.96,-567.25 820.19,-570 819.67,-563.02"/>
</g>
<!-- 28 -->
<g id="node54" class="node">
<title>28</title>
<ellipse fill="none" stroke="black" cx="1680" cy="-428.08" rx="44.39" ry="18"/>
<text text-anchor="middle" x="1680" y="-424.38" font-family="Times New Roman,serif" font-size="14.00">artifact10</text>
</g>
<!-- 46&#45;&gt;28 -->
<g id="edge114" class="edge">
<title>46&#45;&gt;28</title>
<path fill="none" stroke="black" d="M1674.12,-482.14C1673.3,-474.43 1673.06,-465.11 1673.39,-456.45"/>
<polygon fill="black" stroke="black" points="1676.89,-456.58 1674.09,-446.36 1669.91,-456.1 1676.89,-456.58"/>
</g>
<!-- 17 -->
<g id="node14" class="node">
<title>17</title>
<ellipse fill="none" stroke="black" cx="710" cy="-1284.38" rx="55.79" ry="18"/>
<text text-anchor="middle" x="710" y="-1280.68" font-family="Times New Roman,serif" font-size="14.00">component4</text>
</g>
<!-- 62&#45;&gt;17 -->
<g id="edge164" class="edge">
<title>62&#45;&gt;17</title>
<path fill="none" stroke="black" d="M454.23,-1223.35C509.85,-1235.64 600.78,-1256.53 657.96,-1270.15"/>
<polygon fill="black" stroke="black" points="657.34,-1273.6 667.88,-1272.52 658.97,-1266.79 657.34,-1273.6"/>
</g>
<!-- 42 -->
<g id="node38" class="node">
<title>42</title>
<ellipse fill="none" stroke="black" cx="406" cy="-1140.38" rx="42.79" ry="18"/>
<text text-anchor="middle" x="406" y="-1136.68" font-family="Times New Roman,serif" font-size="14.00">device10</text>
</g>
<!-- 62&#45;&gt;42 -->
<g id="edge163" class="edge">
<title>62&#45;&gt;42</title>
<path fill="none" stroke="black" d="M400.12,-1194.43C399.3,-1186.72 399.06,-1177.4 399.39,-1168.74"/>
<polygon fill="black" stroke="black" points="402.89,-1168.87 400.09,-1158.65 395.91,-1168.39 402.89,-1168.87"/>
</g>
<!-- 1 -->
<g id="node5" class="node">
<title>1</title>
<ellipse fill="none" stroke="black" cx="1460" cy="-924.38" rx="46.29" ry="18"/>
<text text-anchor="middle" x="1460" y="-920.68" font-family="Times New Roman,serif" font-size="14.00">interface4</text>
</g>
<!-- 1&#45;&gt;1 -->
<g id="edge4" class="edge">
<title>1&#45;&gt;1</title>
<path fill="none" stroke="black" d="M1492.01,-937.36C1508.87,-939.46 1524.15,-935.13 1524.15,-924.38 1524.15,-915.89 1514.64,-911.4 1502.34,-910.92"/>
<polygon fill="black" stroke="black" points="1501.84,-907.44 1492.01,-911.39 1502.16,-914.43 1501.84,-907.44"/>
</g>
<!-- 2 -->
<g id="node6" class="node">
<title>2</title>
<path fill="none" stroke="black" d="M1317.5,-32.73C1317.5,-34.53 1284.56,-36 1244,-36 1203.44,-36 1170.5,-34.53 1170.5,-32.73 1170.5,-32.73 1170.5,-3.27 1170.5,-3.27 1170.5,-1.47 1203.44,0 1244,0 1284.56,0 1317.5,-1.47 1317.5,-3.27 1317.5,-3.27 1317.5,-32.73 1317.5,-32.73"/>
<path fill="none" stroke="black" d="M1317.5,-32.73C1317.5,-30.92 1284.56,-29.45 1244,-29.45 1203.44,-29.45 1170.5,-30.92 1170.5,-32.73"/>
<text text-anchor="middle" x="1244" y="-14.3" font-family="Times New Roman,serif" font-size="14.00">executionEnvironment6</text>
</g>
<!-- 44 -->
<g id="node7" class="node">
<title>44</title>
<ellipse fill="none" stroke="black" cx="1244" cy="-90" rx="40.09" ry="18"/>
<text text-anchor="middle" x="1244" y="-86.3" font-family="Times New Roman,serif" font-size="14.00">artifact8</text>
</g>
<!-- 2&#45;&gt;44 -->
<g id="edge5" class="edge">
<title>2&#45;&gt;44</title>
<path fill="none" stroke="black" d="M1249.91,-36.28C1250.71,-44.03 1250.94,-53.36 1250.59,-62.01"/>
<polygon fill="black" stroke="black" points="1247.09,-61.83 1249.88,-72.05 1254.08,-62.33 1247.09,-61.83"/>
</g>
<!-- 44&#45;&gt;2 -->
<g id="edge111" class="edge">
<title>44&#45;&gt;2</title>
<path fill="none" stroke="black" d="M1238.12,-72.05C1237.3,-64.35 1237.06,-55.03 1237.39,-46.36"/>
<polygon fill="black" stroke="black" points="1240.89,-46.49 1238.09,-36.28 1233.91,-46.01 1240.89,-46.49"/>
</g>
<!-- 40 -->
<g id="node41" class="node">
<title>40</title>
<ellipse fill="none" stroke="red" cx="664" cy="-190.9" rx="46.29" ry="18"/>
<text text-anchor="middle" x="664" y="-187.2" font-family="Times New Roman,serif" font-size="14.00">interface2</text>
</g>
<!-- 44&#45;&gt;40 -->
<g id="edge110" class="edge">
<title>44&#45;&gt;40</title>
<path fill="none" stroke="black" d="M1203.83,-92.44C1098.85,-96.46 819.16,-109.86 733,-144 718.97,-149.56 705.43,-159.39 693.96,-168.54"/>
<polygon fill="black" stroke="black" points="691.55,-165.98 685.99,-175 695.96,-171.42 691.55,-165.98"/>
</g>
<!-- 3 -->
<g id="node8" class="node">
<title>3</title>
<ellipse fill="none" stroke="black" cx="898" cy="-1788.38" rx="38.19" ry="18"/>
<text text-anchor="middle" x="898" y="-1784.68" font-family="Times New Roman,serif" font-size="14.00">device8</text>
</g>
<!-- 36 -->
<g id="node9" class="node">
<title>36</title>
<ellipse fill="none" stroke="black" cx="862" cy="-1860.38" rx="95.58" ry="18"/>
<text text-anchor="middle" x="862" y="-1856.68" font-family="Times New Roman,serif" font-size="14.00">executionEnvironment7</text>
</g>
<!-- 3&#45;&gt;36 -->
<g id="edge6" class="edge">
<title>3&#45;&gt;36</title>
<path fill="none" stroke="black" d="M895.03,-1806.65C891.67,-1814.83 886.76,-1824.77 881.68,-1833.8"/>
<polygon fill="black" stroke="black" points="878.66,-1832.04 876.59,-1842.43 884.69,-1835.59 878.66,-1832.04"/>
</g>
<!-- 14 -->
<g id="node10" class="node">
<title>14</title>
<ellipse fill="none" stroke="black" cx="576" cy="-1716.38" rx="95.58" ry="18"/>
<text text-anchor="middle" x="576" y="-1712.68" font-family="Times New Roman,serif" font-size="14.00">executionEnvironment2</text>
</g>
<!-- 3&#45;&gt;14 -->
<g id="edge7" class="edge">
<title>3&#45;&gt;14</title>
<path fill="none" stroke="black" d="M863.85,-1779.95C812.27,-1768.74 713.4,-1747.25 646.08,-1732.61"/>
<polygon fill="black" stroke="black" points="646.49,-1729.12 635.98,-1730.41 645,-1735.96 646.49,-1729.12"/>
</g>
<!-- 71 -->
<g id="node11" class="node">
<title>71</title>
<ellipse fill="none" stroke="black" cx="946" cy="-1716.38" rx="33.29" ry="18"/>
<text text-anchor="middle" x="946" y="-1712.68" font-family="Times New Roman,serif" font-size="14.00">node2</text>
</g>
<!-- 3&#45;&gt;71 -->
<g id="edge8" class="edge">
<title>3&#45;&gt;71</title>
<path fill="none" stroke="black" d="M903.74,-1770.43C908.97,-1761.42 916.48,-1750.21 923.82,-1740.41"/>
<polygon fill="black" stroke="black" points="926.78,-1742.31 930.15,-1732.26 921.25,-1738.01 926.78,-1742.31"/>
</g>
<!-- 36&#45;&gt;3 -->
<g id="edge92" class="edge">
<title>36&#45;&gt;3</title>
<path fill="none" stroke="black" d="M864.98,-1842.07C868.43,-1833.69 873.49,-1823.47 878.7,-1814.27"/>
<polygon fill="black" stroke="black" points="881.8,-1815.9 883.91,-1805.52 875.79,-1812.33 881.8,-1815.9"/>
</g>
<!-- 70 -->
<g id="node55" class="node">
<title>70</title>
<ellipse fill="none" stroke="red" cx="981" cy="-1644.38" rx="33.29" ry="18"/>
<text text-anchor="middle" x="981" y="-1640.68" font-family="Times New Roman,serif" font-size="14.00">node8</text>
</g>
<!-- 36&#45;&gt;70 -->
<g id="edge93" class="edge">
<title>36&#45;&gt;70</title>
<path fill="none" stroke="black" d="M848.89,-1842.22C840.71,-1823.98 834.08,-1794.49 842,-1770.38 858.63,-1719.72 910.66,-1681.15 946.28,-1661"/>
<polygon fill="black" stroke="black" points="948.28,-1663.89 955.4,-1656.04 944.94,-1657.74 948.28,-1663.89"/>
</g>
<!-- 33 -->
<g id="node61" class="node">
<title>33</title>
<ellipse fill="none" stroke="red" cx="471" cy="-1932.38" rx="37.89" ry="18"/>
<text text-anchor="middle" x="471" y="-1928.68" font-family="Times New Roman,serif" font-size="14.00">node10</text>
</g>
<!-- 36&#45;&gt;33 -->
<g id="edge94" class="edge">
<title>36&#45;&gt;33</title>
<path fill="none" stroke="black" d="M797.8,-1873.82C718.53,-1888.41 585.86,-1912.1 516.4,-1924.03"/>
<polygon fill="black" stroke="black" points="515.48,-1920.63 506.21,-1925.77 516.66,-1927.53 515.48,-1920.63"/>
</g>
<!-- 71&#45;&gt;3 -->
<g id="edge188" class="edge">
<title>71&#45;&gt;3</title>
<path fill="none" stroke="black" d="M940.25,-1734.34C935.12,-1743.18 927.8,-1754.13 920.6,-1763.78"/>
<polygon fill="black" stroke="black" points="917.72,-1761.79 914.37,-1771.84 923.26,-1766.07 917.72,-1761.79"/>
</g>
<!-- 34 -->
<g id="node33" class="node">
<title>34</title>
<ellipse fill="none" stroke="red" cx="572" cy="-924.38" rx="33.29" ry="18"/>
<text text-anchor="middle" x="572" y="-920.68" font-family="Times New Roman,serif" font-size="14.00">node4</text>
</g>
<!-- 71&#45;&gt;34 -->
<g id="edge186" class="edge">
<title>71&#45;&gt;34</title>
<path fill="none" stroke="black" d="M914.82,-1709.78C830.97,-1692.79 608,-1638.93 608,-1573.38 608,-1573.38 608,-1573.38 608,-1211.38 608,-1115.38 582.95,-1003.44 573.97,-952.77"/>
<polygon fill="black" stroke="black" points="577.38,-951.92 572.27,-942.64 570.47,-953.08 577.38,-951.92"/>
</g>
<!-- 41 -->
<g id="node44" class="node">
<title>41</title>
<ellipse fill="none" stroke="black" cx="543" cy="-18" rx="38.19" ry="18"/>
<text text-anchor="middle" x="543" y="-14.3" font-family="Times New Roman,serif" font-size="14.00">device3</text>
</g>
<!-- 71&#45;&gt;41 -->
<g id="edge187" class="edge">
<title>71&#45;&gt;41</title>
<path fill="none" stroke="black" d="M933.81,-1699.51C920.28,-1673.59 902,-1620.35 902,-1573.38 902,-1573.38 902,-1573.38 902,-1355.38 902,-1248.03 1014,-1248.73 1014,-1141.38 1014,-1141.38 1014,-1141.38 1014,-1067.38 1014,-992.18 948.1,-980.28 962,-906.38 997.73,-716.37 1120,-694.42 1120,-501.08 1120,-501.08 1120,-501.08 1120,-189.9 1120,-79.12 729.22,-35.3 590.79,-22.96"/>
<polygon fill="black" stroke="black" points="590.77,-19.44 580.5,-22.06 590.16,-26.42 590.77,-19.44"/>
</g>
<!-- 71&#45;&gt;70 -->
<g id="edge189" class="edge">
<title>71&#45;&gt;70</title>
<path fill="none" stroke="black" d="M948.59,-1698.43C951.94,-1689.93 956.97,-1679.48 962.15,-1670.11"/>
<polygon fill="black" stroke="black" points="965.33,-1671.61 967.33,-1661.21 959.28,-1668.09 965.33,-1671.61"/>
</g>
<!-- 4&#45;&gt;46 -->
<g id="edge10" class="edge">
<title>4&#45;&gt;46</title>
<path fill="none" stroke="black" d="M809.63,-566.76C971.35,-554.17 1452.92,-517.69 1621.22,-505.28"/>
<polygon fill="black" stroke="black" points="1621.65,-508.76 1631.37,-504.53 1621.14,-501.77 1621.65,-508.76"/>
</g>
<!-- 57 -->
<g id="node13" class="node">
<title>57</title>
<ellipse fill="none" stroke="black" cx="678" cy="-500.08" rx="60.39" ry="18"/>
<text text-anchor="middle" x="678" y="-496.38" font-family="Times New Roman,serif" font-size="14.00">component11</text>
</g>
<!-- 4&#45;&gt;57 -->
<g id="edge9" class="edge">
<title>4&#45;&gt;57</title>
<path fill="none" stroke="black" d="M732.97,-555.55C721.94,-546.6 708.96,-535.17 698.31,-525.09"/>
<polygon fill="black" stroke="black" points="700.64,-522.48 691.02,-518.05 695.78,-527.51 700.64,-522.48"/>
</g>
<!-- 4&#45;&gt;17 -->
<g id="edge11" class="edge">
<title>4&#45;&gt;17</title>
<path fill="none" stroke="black" d="M757.97,-590.44C757.4,-646.51 739.21,-827.87 730,-978.38 723.73,-1080.8 720.65,-1202.8 715.63,-1256.14"/>
<polygon fill="black" stroke="black" points="712.14,-1255.85 714.56,-1266.16 719.1,-1256.59 712.14,-1255.85"/>
</g>
<!-- 29 -->
<g id="node15" class="node">
<title>29</title>
<ellipse fill="none" stroke="black" cx="908" cy="-500.08" rx="40.09" ry="18"/>
<text text-anchor="middle" x="908" y="-496.38" font-family="Times New Roman,serif" font-size="14.00">artifact4</text>
</g>
<!-- 4&#45;&gt;29 -->
<g id="edge12" class="edge">
<title>4&#45;&gt;29</title>
<path fill="none" stroke="black" d="M782.6,-556.24C806.62,-544.5 842.06,-528.17 869.21,-516.33"/>
<polygon fill="black" stroke="black" points="870.64,-519.52 878.44,-512.34 867.87,-513.1 870.64,-519.52"/>
</g>
<!-- 57&#45;&gt;4 -->
<g id="edge143" class="edge">
<title>57&#45;&gt;4</title>
<path fill="none" stroke="black" d="M701.29,-516.83C712.4,-525.86 725.45,-537.36 736.09,-547.45"/>
<polygon fill="black" stroke="black" points="733.74,-550.05 743.36,-554.5 738.61,-545.02 733.74,-550.05"/>
</g>
<!-- 57&#45;&gt;57 -->
<g id="edge144" class="edge">
<title>57&#45;&gt;57</title>
<path fill="none" stroke="black" d="M719.57,-513.29C739.2,-514.82 756.44,-510.42 756.44,-500.08 756.44,-491.61 744.84,-487.12 729.83,-486.63"/>
<polygon fill="black" stroke="black" points="729.48,-483.14 719.57,-486.88 729.65,-490.13 729.48,-483.14"/>
</g>
<!-- 59 -->
<g id="node48" class="node">
<title>59</title>
<ellipse fill="none" stroke="red" cx="466" cy="-428.08" rx="38.19" ry="18"/>
<text text-anchor="middle" x="466" y="-424.38" font-family="Times New Roman,serif" font-size="14.00">device6</text>
</g>
<!-- 57&#45;&gt;59 -->
<g id="edge145" class="edge">
<title>57&#45;&gt;59</title>
<path fill="none" stroke="black" d="M636.06,-486.97C597.63,-474.9 541.38,-456.37 504.18,-443.54"/>
<polygon fill="black" stroke="black" points="505.28,-440.21 494.69,-440.24 502.99,-446.83 505.28,-440.21"/>
</g>
<!-- 17&#45;&gt;62 -->
<g id="edge40" class="edge">
<title>17&#45;&gt;62</title>
<path fill="none" stroke="black" d="M664.21,-1273.94C609.46,-1261.87 518.14,-1240.9 460,-1227.07"/>
<polygon fill="black" stroke="black" points="460.8,-1223.67 450.26,-1224.75 459.18,-1230.48 460.8,-1223.67"/>
</g>
<!-- 17&#45;&gt;4 -->
<g id="edge37" class="edge">
<title>17&#45;&gt;4</title>
<path fill="none" stroke="black" d="M706.08,-1266.16C702.24,-1219.7 705.3,-1087.85 712,-978.38 720.72,-835.77 737.52,-665.46 748.62,-600.28"/>
<polygon fill="black" stroke="black" points="752.13,-600.52 750.49,-590.05 745.25,-599.26 752.13,-600.52"/>
</g>
<!-- 9 -->
<g id="node26" class="node">
<title>9</title>
<ellipse fill="none" stroke="black" cx="1360" cy="-1356.38" rx="55.79" ry="18"/>
<text text-anchor="middle" x="1360" y="-1352.68" font-family="Times New Roman,serif" font-size="14.00">component2</text>
</g>
<!-- 17&#45;&gt;9 -->
<g id="edge39" class="edge">
<title>17&#45;&gt;9</title>
<path fill="none" stroke="black" d="M762.72,-1290.65C881.88,-1303.07 1171.11,-1334.2 1298.32,-1348.27"/>
<polygon fill="black" stroke="black" points="1297.96,-1351.75 1308.29,-1349.38 1298.73,-1344.8 1297.96,-1351.75"/>
</g>
<!-- 17&#45;&gt;34 -->
<g id="edge38" class="edge">
<title>17&#45;&gt;34</title>
<path fill="none" stroke="black" d="M701.13,-1266.4C686.99,-1227.52 660.99,-1129.3 630,-1050.38 617,-1017.26 611.99,-1009.64 595,-978.38 590.15,-969.46 584.53,-959.9 579.81,-951.4"/>
<polygon fill="black" stroke="black" points="582.76,-949.5 574.95,-942.33 576.59,-952.8 582.76,-949.5"/>
</g>
<!-- 29&#45;&gt;4 -->
<g id="edge65" class="edge">
<title>29&#45;&gt;4</title>
<path fill="none" stroke="black" d="M884.1,-514.6C861.49,-525.73 827.24,-541.57 799.78,-553.65"/>
<polygon fill="black" stroke="black" points="798.15,-550.55 790.38,-557.75 800.95,-556.96 798.15,-550.55"/>
</g>
<!-- 26 -->
<g id="node34" class="node">
<title>26</title>
<path fill="none" stroke="red" d="M943.5,-442.81C943.5,-444.62 927.59,-446.08 908,-446.08 888.41,-446.08 872.5,-444.62 872.5,-442.81 872.5,-442.81 872.5,-413.36 872.5,-413.36 872.5,-411.55 888.41,-410.08 908,-410.08 927.59,-410.08 943.5,-411.55 943.5,-413.36 943.5,-413.36 943.5,-442.81 943.5,-442.81"/>
<path fill="none" stroke="red" d="M943.5,-442.81C943.5,-441.01 927.59,-439.54 908,-439.54 888.41,-439.54 872.5,-441.01 872.5,-442.81"/>
<text text-anchor="middle" x="908" y="-424.38" font-family="Times New Roman,serif" font-size="14.00">interface1</text>
</g>
<!-- 29&#45;&gt;26 -->
<g id="edge66" class="edge">
<title>29&#45;&gt;26</title>
<path fill="none" stroke="black" d="M902.12,-482.14C901.3,-474.43 901.06,-465.11 901.39,-456.45"/>
<polygon fill="black" stroke="black" points="904.89,-456.58 902.09,-446.36 897.91,-456.1 904.89,-456.58"/>
</g>
<!-- 29&#45;&gt;70 -->
<g id="edge67" class="edge">
<title>29&#45;&gt;70</title>
<path fill="none" stroke="black" d="M909.52,-518.45C906.61,-545.09 896,-597.73 896,-643.08 896,-853.38 896,-853.38 896,-853.38 896,-954.92 976,-965.84 976,-1067.38 976,-1501.38 976,-1501.38 976,-1501.38 976,-1541.57 981.62,-1587.87 983.45,-1616.37"/>
<polygon fill="black" stroke="black" points="979.96,-1616.57 983.95,-1626.38 986.95,-1616.22 979.96,-1616.57"/>
</g>
<!-- 5 -->
<g id="node16" class="node">
<title>5</title>
<ellipse fill="none" stroke="red" cx="2217" cy="-2341.07" rx="37.89" ry="18"/>
<text text-anchor="middle" x="2217" y="-2337.37" font-family="Times New Roman,serif" font-size="14.00">model4</text>
</g>
<!-- 25 -->
<g id="node17" class="node">
<title>25</title>
<path fill="none" stroke="black" d="M2251.5,-2283.8C2251.5,-2285.6 2236.04,-2287.07 2217,-2287.07 2197.96,-2287.07 2182.5,-2285.6 2182.5,-2283.8 2182.5,-2283.8 2182.5,-2254.34 2182.5,-2254.34 2182.5,-2252.54 2197.96,-2251.07 2217,-2251.07 2236.04,-2251.07 2251.5,-2252.54 2251.5,-2254.34 2251.5,-2254.34 2251.5,-2283.8 2251.5,-2283.8"/>
<path fill="none" stroke="black" d="M2251.5,-2283.8C2251.5,-2281.99 2236.04,-2280.52 2217,-2280.52 2197.96,-2280.52 2182.5,-2281.99 2182.5,-2283.8"/>
<text text-anchor="middle" x="2217" y="-2265.37" font-family="Times New Roman,serif" font-size="14.00">package5</text>
</g>
<!-- 5&#45;&gt;25 -->
<g id="edge13" class="edge">
<title>5&#45;&gt;25</title>
<path fill="none" stroke="black" d="M2217,-2322.77C2217,-2315.05 2217,-2305.78 2217,-2297.18"/>
<polygon fill="black" stroke="black" points="2220.5,-2297.17 2217,-2287.17 2213.5,-2297.17 2220.5,-2297.17"/>
</g>
<!-- 6 -->
<g id="node18" class="node">
<title>6</title>
<ellipse fill="none" stroke="black" cx="1772" cy="-90" rx="40.09" ry="18"/>
<text text-anchor="middle" x="1772" y="-86.3" font-family="Times New Roman,serif" font-size="14.00">artifact2</text>
</g>
<!-- 7 -->
<g id="node19" class="node">
<title>7</title>
<ellipse fill="none" stroke="red" cx="1364" cy="-996.38" rx="60.39" ry="18"/>
<text text-anchor="middle" x="1364" y="-992.68" font-family="Times New Roman,serif" font-size="14.00">component13</text>
</g>
<!-- 7&#45;&gt;1 -->
<g id="edge16" class="edge">
<title>7&#45;&gt;1</title>
<path fill="none" stroke="black" d="M1385.78,-979.49C1399.19,-969.71 1416.54,-957.06 1431.1,-946.45"/>
<polygon fill="black" stroke="black" points="1433.27,-949.2 1439.29,-940.48 1429.15,-943.54 1433.27,-949.2"/>
</g>
<!-- 11 -->
<g id="node20" class="node">
<title>11</title>
<ellipse fill="none" stroke="black" cx="1312" cy="-924.38" rx="46.29" ry="18"/>
<text text-anchor="middle" x="1312" y="-920.68" font-family="Times New Roman,serif" font-size="14.00">interface3</text>
</g>
<!-- 7&#45;&gt;11 -->
<g id="edge14" class="edge">
<title>7&#45;&gt;11</title>
<path fill="none" stroke="black" d="M1351.41,-978.43C1345.15,-970 1337.46,-959.66 1330.55,-950.34"/>
<polygon fill="black" stroke="black" points="1333.24,-948.11 1324.47,-942.17 1327.63,-952.28 1333.24,-948.11"/>
</g>
<!-- 64 -->
<g id="node21" class="node">
<title>64</title>
<ellipse fill="none" stroke="black" cx="1380" cy="-90" rx="40.09" ry="18"/>
<text text-anchor="middle" x="1380" y="-86.3" font-family="Times New Roman,serif" font-size="14.00">artifact7</text>
</g>
<!-- 7&#45;&gt;64 -->
<g id="edge15" class="edge">
<title>7&#45;&gt;64</title>
<path fill="none" stroke="black" d="M1369.81,-978.23C1375.14,-959.2 1380.37,-928.28 1367,-906.38 1348.78,-876.51 1318.05,-898.32 1297,-870.38 1263.97,-826.54 1273,-804.12 1273,-749.23 1273,-749.23 1273,-749.23 1273,-322.94 1273,-238.77 1293.27,-217.09 1335,-144 1340.96,-133.57 1349.08,-123.23 1356.79,-114.5"/>
<polygon fill="black" stroke="black" points="1359.51,-116.72 1363.68,-106.98 1354.35,-111.99 1359.51,-116.72"/>
</g>
<!-- 47 -->
<g id="node45" class="node">
<title>47</title>
<ellipse fill="none" stroke="black" cx="1417" cy="-190.9" rx="40.09" ry="18"/>
<text text-anchor="middle" x="1417" y="-187.2" font-family="Times New Roman,serif" font-size="14.00">artifact3</text>
</g>
<!-- 64&#45;&gt;47 -->
<g id="edge168" class="edge">
<title>64&#45;&gt;47</title>
<path fill="none" stroke="black" d="M1391.3,-107.37C1398.67,-122.45 1407.45,-145.11 1412.98,-162.87"/>
<polygon fill="black" stroke="black" points="1409.67,-164.04 1415.82,-172.67 1416.4,-162.09 1409.67,-164.04"/>
</g>
<!-- 8 -->
<g id="node22" class="node">
<title>8</title>
<ellipse fill="none" stroke="red" cx="946" cy="-2100.72" rx="33.29" ry="18"/>
<text text-anchor="middle" x="946" y="-2097.02" font-family="Times New Roman,serif" font-size="14.00">node1</text>
</g>
<!-- 8&#45;&gt;71 -->
<g id="edge19" class="edge">
<title>8&#45;&gt;71</title>
<path fill="none" stroke="black" d="M972.76,-2090.04C1023.79,-2069.64 1130,-2017.13 1130,-1933.38 1130,-1933.38 1130,-1933.38 1130,-1859.38 1130,-1818.83 1137.33,-1800.33 1110,-1770.38 1079.12,-1736.53 1026.52,-1724.21 989.22,-1719.78"/>
<polygon fill="black" stroke="black" points="989.45,-1716.28 979.14,-1718.72 988.72,-1723.24 989.45,-1716.28"/>
</g>
<!-- 67 -->
<g id="node23" class="node">
<title>67</title>
<path fill="none" stroke="red" d="M410.5,-104.73C410.5,-106.53 377.56,-108 337,-108 296.44,-108 263.5,-106.53 263.5,-104.73 263.5,-104.73 263.5,-75.27 263.5,-75.27 263.5,-73.47 296.44,-72 337,-72 377.56,-72 410.5,-73.47 410.5,-75.27 410.5,-75.27 410.5,-104.73 410.5,-104.73"/>
<path fill="none" stroke="red" d="M410.5,-104.73C410.5,-102.92 377.56,-101.45 337,-101.45 296.44,-101.45 263.5,-102.92 263.5,-104.73"/>
<text text-anchor="middle" x="337" y="-86.3" font-family="Times New Roman,serif" font-size="14.00">executionEnvironment4</text>
</g>
<!-- 8&#45;&gt;67 -->
<g id="edge17" class="edge">
<title>8&#45;&gt;67</title>
<path fill="none" stroke="black" d="M917.08,-2091.53C859.93,-2073.37 738,-2024 738,-1933.38 738,-1933.38 738,-1933.38 738,-1787.38 738,-1745.19 735.48,-1727.54 705,-1698.38 667.22,-1662.23 634.92,-1693.62 593,-1662.38 554.55,-1633.72 532,-1621.33 532,-1573.38 532,-1573.38 532,-1573.38 532,-1283.38 532,-1179.4 577.36,-1130.42 511,-1050.38 473.55,-1005.21 424.37,-1056.95 384,-1014.38 344.15,-972.35 290,-518.21 290,-501.08 290,-501.08 290,-501.08 290,-322.94 290,-247.41 314.24,-160.74 327.9,-117.89"/>
<polygon fill="black" stroke="black" points="331.29,-118.81 331.05,-108.22 324.63,-116.64 331.29,-118.81"/>
</g>
<!-- 68 -->
<g id="node24" class="node">
<title>68</title>
<ellipse fill="none" stroke="black" cx="1076" cy="-924.38" rx="95.58" ry="18"/>
<text text-anchor="middle" x="1076" y="-920.68" font-family="Times New Roman,serif" font-size="14.00">executionEnvironment0</text>
</g>
<!-- 8&#45;&gt;68 -->
<g id="edge18" class="edge">
<title>8&#45;&gt;68</title>
<path fill="none" stroke="black" d="M975.94,-2092.41C1036.54,-2075.62 1168,-2028.25 1168,-1933.38 1168,-1933.38 1168,-1933.38 1168,-1715.38 1168,-1561.06 1097.86,-1073.95 1080.07,-952.84"/>
<polygon fill="black" stroke="black" points="1083.48,-951.98 1078.56,-942.59 1076.55,-953 1083.48,-951.98"/>
</g>
<!-- 66 -->
<g id="node25" class="node">
<title>66</title>
<ellipse fill="none" stroke="black" cx="471" cy="-2004.38" rx="33.29" ry="18"/>
<text text-anchor="middle" x="471" y="-2000.68" font-family="Times New Roman,serif" font-size="14.00">node0</text>
</g>
<!-- 8&#45;&gt;66 -->
<g id="edge20" class="edge">
<title>8&#45;&gt;66</title>
<path fill="none" stroke="black" d="M915.2,-2093.6C832.37,-2077.15 604.84,-2031.96 511.63,-2013.45"/>
<polygon fill="black" stroke="black" points="512.22,-2010 501.73,-2011.48 510.86,-2016.86 512.22,-2010"/>
</g>
<!-- 67&#45;&gt;40 -->
<g id="edge176" class="edge">
<title>67&#45;&gt;40</title>
<path fill="none" stroke="black" d="M395.74,-107.21C460.51,-126.13 563.01,-157.15 620.81,-175.34"/>
<polygon fill="black" stroke="black" points="619.78,-178.68 630.37,-178.36 621.89,-172.01 619.78,-178.68"/>
</g>
<!-- 67&#45;&gt;41 -->
<g id="edge177" class="edge">
<title>67&#45;&gt;41</title>
<path fill="none" stroke="black" d="M380.99,-72.05C416.61,-59.5 466.33,-42.67 501.33,-31.36"/>
<polygon fill="black" stroke="black" points="502.78,-34.57 511.24,-28.18 500.64,-27.91 502.78,-34.57"/>
</g>
<!-- 67&#45;&gt;59 -->
<g id="edge178" class="edge">
<title>67&#45;&gt;59</title>
<path fill="none" stroke="black" d="M338.17,-108.11C335.7,-155.16 321.64,-288.64 379,-374.08 390.64,-391.42 409.93,-403.63 427.47,-411.93"/>
<polygon fill="black" stroke="black" points="426.41,-415.29 436.97,-416.14 429.25,-408.89 426.41,-415.29"/>
</g>
<!-- 66&#45;&gt;66 -->
<g id="edge173" class="edge">
<title>66&#45;&gt;66</title>
<path fill="none" stroke="black" d="M494.68,-2017.03C508.83,-2019.84 522.15,-2015.63 522.15,-2004.38 522.15,-1995.94 514.65,-1991.46 504.94,-1990.93"/>
<polygon fill="black" stroke="black" points="504.38,-1987.46 494.68,-1991.72 504.91,-1994.44 504.38,-1987.46"/>
</g>
<!-- 66&#45;&gt;52 -->
<g id="edge171" class="edge">
<title>66&#45;&gt;52</title>
<path fill="none" stroke="black" d="M493.91,-2017.43C506.63,-2027.12 520.72,-2041.82 527,-2058.38 541.01,-2095.28 533.25,-2141.72 523.55,-2170.13"/>
<polygon fill="black" stroke="black" points="520.18,-2169.14 519.93,-2179.73 526.73,-2171.61 520.18,-2169.14"/>
</g>
<!-- 18 -->
<g id="node40" class="node">
<title>18</title>
<ellipse fill="none" stroke="black" cx="198" cy="-1716.38" rx="38.19" ry="18"/>
<text text-anchor="middle" x="198" y="-1712.68" font-family="Times New Roman,serif" font-size="14.00">device7</text>
</g>
<!-- 66&#45;&gt;18 -->
<g id="edge172" class="edge">
<title>66&#45;&gt;18</title>
<path fill="none" stroke="black" d="M453.9,-1988.8C405.31,-1942.58 267.96,-1798.97 217.07,-1741.5"/>
<polygon fill="black" stroke="black" points="219.43,-1738.89 210.21,-1733.67 214.17,-1743.5 219.43,-1738.89"/>
</g>
<!-- 66&#45;&gt;33 -->
<g id="edge175" class="edge">
<title>66&#45;&gt;33</title>
<path fill="none" stroke="black" d="M465.12,-1986.43C464.29,-1978.61 464.05,-1969.12 464.41,-1960.35"/>
<polygon fill="black" stroke="black" points="467.92,-1960.39 465.14,-1950.17 460.93,-1959.89 467.92,-1960.39"/>
</g>
<!-- 53 -->
<g id="node69" class="node">
<title>53</title>
<ellipse fill="none" stroke="black" cx="471" cy="-2100.72" rx="37.89" ry="18"/>
<text text-anchor="middle" x="471" y="-2097.02" font-family="Times New Roman,serif" font-size="14.00">node11</text>
</g>
<!-- 66&#45;&gt;53 -->
<g id="edge174" class="edge">
<title>66&#45;&gt;53</title>
<path fill="none" stroke="black" d="M476.33,-2022.42C477.89,-2036.47 478.16,-2056.65 477.16,-2072.87"/>
<polygon fill="black" stroke="black" points="473.67,-2072.6 476.32,-2082.86 480.65,-2073.19 473.67,-2072.6"/>
</g>
<!-- 9&#45;&gt;17 -->
<g id="edge23" class="edge">
<title>9&#45;&gt;17</title>
<path fill="none" stroke="black" d="M1307.37,-1350.11C1188.31,-1337.7 899.11,-1306.57 771.81,-1292.49"/>
<polygon fill="black" stroke="black" points="772.15,-1289.01 761.83,-1291.39 771.38,-1295.97 772.15,-1289.01"/>
</g>
<!-- 65 -->
<g id="node27" class="node">
<title>65</title>
<ellipse fill="none" stroke="black" cx="1360" cy="-1428.38" rx="55.79" ry="18"/>
<text text-anchor="middle" x="1360" y="-1424.68" font-family="Times New Roman,serif" font-size="14.00">component1</text>
</g>
<!-- 9&#45;&gt;65 -->
<g id="edge21" class="edge">
<title>9&#45;&gt;65</title>
<path fill="none" stroke="black" d="M1365.91,-1374.65C1366.71,-1382.41 1366.94,-1391.74 1366.59,-1400.38"/>
<polygon fill="black" stroke="black" points="1363.09,-1400.21 1365.88,-1410.43 1370.08,-1400.7 1363.09,-1400.21"/>
</g>
<!-- 27 -->
<g id="node28" class="node">
<title>27</title>
<ellipse fill="none" stroke="black" cx="1670" cy="-190.9" rx="55.79" ry="18"/>
<text text-anchor="middle" x="1670" y="-187.2" font-family="Times New Roman,serif" font-size="14.00">component6</text>
</g>
<!-- 9&#45;&gt;27 -->
<g id="edge22" class="edge">
<title>9&#45;&gt;27</title>
<path fill="none" stroke="black" d="M1365.19,-1338.38C1399.14,-1251.29 1580.74,-856.9 1594,-798.38 1645.56,-570.86 1546.02,-497.55 1612,-273.79 1618.21,-252.74 1631.11,-231.55 1643.37,-215.99"/>
<polygon fill="black" stroke="black" points="1646.34,-217.89 1650.06,-207.97 1640.97,-213.41 1646.34,-217.89"/>
</g>
<!-- 65&#45;&gt;9 -->
<g id="edge169" class="edge">
<title>65&#45;&gt;9</title>
<path fill="none" stroke="black" d="M1354.12,-1410.43C1353.3,-1402.72 1353.06,-1393.4 1353.39,-1384.74"/>
<polygon fill="black" stroke="black" points="1356.89,-1384.87 1354.09,-1374.65 1349.91,-1384.39 1356.89,-1384.87"/>
</g>
<!-- 58 -->
<g id="node59" class="node">
<title>58</title>
<ellipse fill="none" stroke="black" cx="1234" cy="-1500.38" rx="55.79" ry="18"/>
<text text-anchor="middle" x="1234" y="-1496.68" font-family="Times New Roman,serif" font-size="14.00">component3</text>
</g>
<!-- 65&#45;&gt;58 -->
<g id="edge170" class="edge">
<title>65&#45;&gt;58</title>
<path fill="none" stroke="black" d="M1337.64,-1444.98C1319.99,-1455.47 1295.11,-1469.36 1274.09,-1480.48"/>
<polygon fill="black" stroke="black" points="1272.28,-1477.47 1265.05,-1485.21 1275.53,-1483.67 1272.28,-1477.47"/>
</g>
<!-- 27&#45;&gt;9 -->
<g id="edge60" class="edge">
<title>27&#45;&gt;9</title>
<path fill="none" stroke="black" d="M1663.34,-208.88C1653.48,-224.65 1637.22,-249.32 1630,-273.79 1564.02,-497.55 1663.56,-570.86 1612,-798.38 1599.14,-855.13 1427.95,-1227.79 1375.13,-1329.67"/>
<polygon fill="black" stroke="black" points="1371.96,-1328.19 1370.4,-1338.66 1378.16,-1331.44 1371.96,-1328.19"/>
</g>
<!-- 27&#45;&gt;27 -->
<g id="edge62" class="edge">
<title>27&#45;&gt;27</title>
<path fill="none" stroke="black" d="M1697.28,-206.79C1720.08,-213.58 1743.9,-208.28 1743.9,-190.9 1743.9,-176.03 1726.47,-170 1707.16,-172.82"/>
<polygon fill="black" stroke="black" points="1706.29,-169.43 1697.28,-175.01 1707.81,-176.26 1706.29,-169.43"/>
</g>
<!-- 72 -->
<g id="node51" class="node">
<title>72</title>
<ellipse fill="none" stroke="red" cx="1680" cy="-323.94" rx="46.28" ry="46.28"/>
<ellipse fill="none" stroke="red" cx="1680" cy="-323.94" rx="50.29" ry="50.29"/>
<text text-anchor="middle" x="1680" y="-320.24" font-family="Times New Roman,serif" font-size="14.00">interface0</text>
</g>
<!-- 27&#45;&gt;72 -->
<g id="edge61" class="edge">
<title>27&#45;&gt;72</title>
<path fill="none" stroke="black" d="M1676.02,-208.93C1678.6,-222.97 1680.86,-243.75 1682.2,-263.74"/>
<polygon fill="black" stroke="black" points="1678.71,-264 1682.81,-273.77 1685.7,-263.58 1678.71,-264"/>
</g>
<!-- 10 -->
<g id="node29" class="node">
<title>10</title>
<path fill="none" stroke="black" d="M2108,-1731.1C2108,-1732.91 2073.49,-1734.38 2031,-1734.38 1988.51,-1734.38 1954,-1732.91 1954,-1731.1 1954,-1731.1 1954,-1701.65 1954,-1701.65 1954,-1699.84 1988.51,-1698.38 2031,-1698.38 2073.49,-1698.38 2108,-1699.84 2108,-1701.65 2108,-1701.65 2108,-1731.1 2108,-1731.1"/>
<path fill="none" stroke="black" d="M2108,-1731.1C2108,-1729.3 2073.49,-1727.83 2031,-1727.83 1988.51,-1727.83 1954,-1729.3 1954,-1731.1"/>
<text text-anchor="middle" x="2031" y="-1712.68" font-family="Times New Roman,serif" font-size="14.00">executionEnvironment10</text>
</g>
<!-- 12 -->
<g id="node30" class="node">
<title>12</title>
<ellipse fill="none" stroke="red" cx="373" cy="-2100.72" rx="38.21" ry="38.21"/>
<ellipse fill="none" stroke="red" cx="373" cy="-2100.72" rx="42.19" ry="42.19"/>
<text text-anchor="middle" x="373" y="-2097.02" font-family="Times New Roman,serif" font-size="14.00">device2</text>
</g>
<!-- 12&#45;&gt;14 -->
<g id="edge25" class="edge">
<title>12&#45;&gt;14</title>
<path fill="none" stroke="black" d="M376.68,-2058.22C381.9,-2018.38 394.39,-1958.01 424,-1914.38 468.72,-1848.47 527.95,-1875.79 567,-1806.38 577.5,-1787.71 579.3,-1763.32 578.72,-1744.79"/>
<polygon fill="black" stroke="black" points="582.21,-1744.44 578.16,-1734.65 575.22,-1744.83 582.21,-1744.44"/>
</g>
<!-- 12&#45;&gt;67 -->
<g id="edge24" class="edge">
<title>12&#45;&gt;67</title>
<path fill="none" stroke="black" d="M330.93,-2094.28C252.99,-2081.59 94,-2042.36 94,-1933.38 94,-1933.38 94,-1933.38 94,-1787.38 94,-1324.54 176,-1212.07 176,-749.23 176,-749.23 176,-749.23 176,-571.08 176,-376.14 175.31,-310.94 276,-144 282.8,-132.72 292.82,-122.58 302.78,-114.27"/>
<polygon fill="black" stroke="black" points="305.03,-116.96 310.7,-108.01 300.68,-111.47 305.03,-116.96"/>
</g>
<!-- 12&#45;&gt;66 -->
<g id="edge26" class="edge">
<title>12&#45;&gt;66</title>
<path fill="none" stroke="black" d="M403.2,-2070.65C417.59,-2056.8 434.52,-2040.49 447.87,-2027.65"/>
<polygon fill="black" stroke="black" points="450.49,-2029.98 455.26,-2020.53 445.63,-2024.94 450.49,-2029.98"/>
</g>
<!-- 13 -->
<g id="node31" class="node">
<title>13</title>
<ellipse fill="none" stroke="red" cx="830" cy="-996.38" rx="100.18" ry="18"/>
<text text-anchor="middle" x="830" y="-992.68" font-family="Times New Roman,serif" font-size="14.00">executionEnvironment11</text>
</g>
<!-- 13&#45;&gt;1 -->
<g id="edge30" class="edge">
<title>13&#45;&gt;1</title>
<path fill="none" stroke="black" d="M921.01,-988.69C1028.04,-980.3 1210.91,-964.31 1367,-942.38 1380.99,-940.41 1396.1,-937.84 1409.98,-935.3"/>
<polygon fill="black" stroke="black" points="1410.64,-938.74 1419.83,-933.47 1409.36,-931.86 1410.64,-938.74"/>
</g>
<!-- 19 -->
<g id="node32" class="node">
<title>19</title>
<ellipse fill="none" stroke="black" cx="618" cy="-90" rx="38.19" ry="18"/>
<text text-anchor="middle" x="618" y="-86.3" font-family="Times New Roman,serif" font-size="14.00">device5</text>
</g>
<!-- 13&#45;&gt;19 -->
<g id="edge27" class="edge">
<title>13&#45;&gt;19</title>
<path fill="none" stroke="black" d="M826.28,-978.16C814.67,-928.31 774.67,-782.06 689,-698.08 661.16,-670.79 633.49,-692.42 609,-662.08 583.59,-630.61 590,-613.53 590,-573.08 590,-573.08 590,-573.08 590,-322.94 590,-248.34 604.45,-161.22 612.59,-118.07"/>
<polygon fill="black" stroke="black" points="616.06,-118.56 614.51,-108.08 609.19,-117.24 616.06,-118.56"/>
</g>
<!-- 13&#45;&gt;34 -->
<g id="edge28" class="edge">
<title>13&#45;&gt;34</title>
<path fill="none" stroke="black" d="M777.17,-981.04C727.79,-967.65 655.23,-947.96 610.93,-935.94"/>
<polygon fill="black" stroke="black" points="611.69,-932.52 601.12,-933.28 609.86,-939.27 611.69,-932.52"/>
</g>
<!-- 13&#45;&gt;26 -->
<g id="edge29" class="edge">
<title>13&#45;&gt;26</title>
<path fill="none" stroke="black" d="M831.98,-978.35C834.89,-951.73 840,-898.6 840,-853.38 840,-853.38 840,-853.38 840,-571.08 840,-530.64 840.38,-517.99 859,-482.08 864.39,-471.69 872.37,-461.83 880.33,-453.49"/>
<polygon fill="black" stroke="black" points="882.94,-455.83 887.56,-446.29 878.01,-450.86 882.94,-455.83"/>
</g>
<!-- 19&#45;&gt;52 -->
<g id="edge44" class="edge">
<title>19&#45;&gt;52</title>
<path fill="none" stroke="black" d="M608.1,-107.87C584.05,-139.21 523.88,-209.15 481,-273.79 442.9,-331.23 436.7,-347.89 407,-410.08 134.79,-980.12 56,-1155.68 56,-1787.38 56,-2005.38 56,-2005.38 56,-2005.38 56,-2095.1 357.47,-2164.3 468.61,-2187.59"/>
<polygon fill="black" stroke="black" points="467.95,-2191.02 478.45,-2189.63 469.37,-2184.17 467.95,-2191.02"/>
</g>
<!-- 19&#45;&gt;40 -->
<g id="edge43" class="edge">
<title>19&#45;&gt;40</title>
<path fill="none" stroke="black" d="M630.6,-107.05C639.45,-122.25 650.51,-145.36 657.7,-163.31"/>
<polygon fill="black" stroke="black" points="654.43,-164.57 661.25,-172.67 660.97,-162.08 654.43,-164.57"/>
</g>
<!-- 34&#45;&gt;71 -->
<g id="edge88" class="edge">
<title>34&#45;&gt;71</title>
<path fill="none" stroke="black" d="M580.79,-941.99C596.86,-985.74 626,-1107.83 626,-1211.38 626,-1573.38 626,-1573.38 626,-1573.38 626,-1634.58 820.34,-1685.58 906.2,-1705.91"/>
<polygon fill="black" stroke="black" points="905.58,-1709.36 916.12,-1708.24 907.18,-1702.55 905.58,-1709.36"/>
</g>
<!-- 34&#45;&gt;17 -->
<g id="edge89" class="edge">
<title>34&#45;&gt;17</title>
<path fill="none" stroke="black" d="M588.86,-940.02C596.92,-950.54 605.81,-965.15 613,-978.38 629.99,-1009.64 635,-1017.26 648,-1050.38 676.55,-1123.1 700.88,-1212.22 708.82,-1256.19"/>
<polygon fill="black" stroke="black" points="705.37,-1256.8 710.44,-1266.11 712.28,-1255.67 705.37,-1256.8"/>
</g>
<!-- 34&#45;&gt;59 -->
<g id="edge90" class="edge">
<title>34&#45;&gt;59</title>
<path fill="none" stroke="black" d="M549.8,-910.82C537.32,-900.87 522.93,-886.06 514,-870.38 486.21,-821.56 478,-805.4 478,-749.23 478,-749.23 478,-749.23 478,-571.08 478,-530.87 469.65,-484.92 465.74,-456.46"/>
<polygon fill="black" stroke="black" points="469.2,-455.94 464.48,-446.45 462.26,-456.81 469.2,-455.94"/>
</g>
<!-- 69 -->
<g id="node62" class="node">
<title>69</title>
<ellipse fill="none" stroke="black" cx="572" cy="-852.38" rx="40.09" ry="18"/>
<text text-anchor="middle" x="572" y="-848.68" font-family="Times New Roman,serif" font-size="14.00">artifact5</text>
</g>
<!-- 34&#45;&gt;69 -->
<g id="edge86" class="edge">
<title>34&#45;&gt;69</title>
<path fill="none" stroke="black" d="M566.12,-906.43C565.3,-898.72 565.06,-889.4 565.39,-880.74"/>
<polygon fill="black" stroke="black" points="568.89,-880.87 566.09,-870.65 561.91,-880.39 568.89,-880.87"/>
</g>
<!-- 63 -->
<g id="node63" class="node">
<title>63</title>
<ellipse fill="none" stroke="black" cx="431" cy="-996.38" rx="38.19" ry="18"/>
<text text-anchor="middle" x="431" y="-992.68" font-family="Times New Roman,serif" font-size="14.00">device9</text>
</g>
<!-- 34&#45;&gt;63 -->
<g id="edge87" class="edge">
<title>34&#45;&gt;63</title>
<path fill="none" stroke="black" d="M551.08,-938.44C529.26,-950.11 494.92,-967.21 468.46,-979.63"/>
<polygon fill="black" stroke="black" points="466.7,-976.59 459.11,-983.97 469.65,-982.94 466.7,-976.59"/>
</g>
<!-- 26&#45;&gt;29 -->
<g id="edge59" class="edge">
<title>26&#45;&gt;29</title>
<path fill="none" stroke="black" d="M913.91,-446.36C914.71,-454.11 914.94,-463.45 914.59,-472.09"/>
<polygon fill="black" stroke="black" points="911.09,-471.92 913.88,-482.14 918.08,-472.41 911.09,-471.92"/>
</g>
<!-- 51 -->
<g id="node53" class="node">
<title>51</title>
<ellipse fill="none" stroke="black" cx="664" cy="-644.08" rx="46.29" ry="18"/>
<text text-anchor="middle" x="664" y="-640.38" font-family="Times New Roman,serif" font-size="14.00">interface5</text>
</g>
<!-- 26&#45;&gt;51 -->
<g id="edge58" class="edge">
<title>26&#45;&gt;51</title>
<path fill="none" stroke="black" d="M887.51,-446.08C855.67,-468.24 796.52,-505.64 774,-518.08 741.99,-535.77 723.74,-526.26 700,-554.08 685.15,-571.5 678.46,-596.91 673.93,-616.13"/>
<polygon fill="black" stroke="black" points="670.47,-615.55 671.59,-626.08 677.29,-617.15 670.47,-615.55"/>
</g>
<!-- 15 -->
<g id="node35" class="node">
<title>15</title>
<path fill="none" stroke="black" d="M1681.5,-2019.1C1681.5,-2020.91 1666.04,-2022.38 1647,-2022.38 1627.96,-2022.38 1612.5,-2020.91 1612.5,-2019.1 1612.5,-2019.1 1612.5,-1989.65 1612.5,-1989.65 1612.5,-1987.84 1627.96,-1986.38 1647,-1986.38 1666.04,-1986.38 1681.5,-1987.84 1681.5,-1989.65 1681.5,-1989.65 1681.5,-2019.1 1681.5,-2019.1"/>
<path fill="none" stroke="black" d="M1681.5,-2019.1C1681.5,-2017.3 1666.04,-2015.83 1647,-2015.83 1627.96,-2015.83 1612.5,-2017.3 1612.5,-2019.1"/>
<text text-anchor="middle" x="1647" y="-2000.68" font-family="Times New Roman,serif" font-size="14.00">package9</text>
</g>
<!-- 16 -->
<g id="node36" class="node">
<title>16</title>
<ellipse fill="none" stroke="red" cx="1211" cy="-2269.07" rx="38.19" ry="18"/>
<text text-anchor="middle" x="1211" y="-2265.37" font-family="Times New Roman,serif" font-size="14.00">device4</text>
</g>
<!-- 16&#45;&gt;1 -->
<g id="edge36" class="edge">
<title>16&#45;&gt;1</title>
<path fill="none" stroke="black" d="M1230.12,-2253.36C1241.38,-2243.69 1254.96,-2230.06 1263,-2215.07 1338.97,-2073.47 1338,-2022.07 1338,-1861.38 1338,-1861.38 1338,-1861.38 1338,-1715.38 1338,-1674.93 1345.6,-1665.18 1357,-1626.38 1381.11,-1544.33 1404.81,-1529.48 1425,-1446.38 1449.61,-1345.07 1452,-1317.62 1452,-1213.38 1452,-1213.38 1452,-1213.38 1452,-1067.38 1452,-1027.31 1455.21,-980.98 1457.57,-952.43"/>
<polygon fill="black" stroke="black" points="1461.06,-952.67 1458.42,-942.41 1454.09,-952.08 1461.06,-952.67"/>
</g>
<!-- 16&#45;&gt;11 -->
<g id="edge33" class="edge">
<title>16&#45;&gt;11</title>
<path fill="none" stroke="black" d="M1222.66,-2251.64C1229.3,-2241.54 1237.22,-2228.08 1242,-2215.07 1259.63,-2167.05 1262,-2152.88 1262,-2101.72 1262,-2101.72 1262,-2101.72 1262,-2003.38 1262,-1906.78 1300,-1885.97 1300,-1789.38 1300,-1789.38 1300,-1789.38 1300,-1715.38 1300,-1611.82 1308.63,-1585.48 1299,-1482.38 1293.75,-1426.13 1276,-1413.86 1276,-1357.38 1276,-1357.38 1276,-1357.38 1276,-1067.38 1276,-1026.15 1290.43,-980.2 1301.02,-952.04"/>
<polygon fill="black" stroke="black" points="1304.36,-953.1 1304.71,-942.51 1297.84,-950.57 1304.36,-953.1"/>
</g>
<!-- 16&#45;&gt;10 -->
<g id="edge34" class="edge">
<title>16&#45;&gt;10</title>
<path fill="none" stroke="black" d="M1249.34,-2268.22C1406.75,-2267.82 1995,-2256 1995,-2101.72 1995,-2101.72 1995,-2101.72 1995,-1859.38 1995,-1818.15 2009.43,-1772.2 2020.02,-1744.04"/>
<polygon fill="black" stroke="black" points="2023.36,-1745.1 2023.71,-1734.51 2016.84,-1742.57 2023.36,-1745.1"/>
</g>
<!-- 16&#45;&gt;52 -->
<g id="edge31" class="edge">
<title>16&#45;&gt;52</title>
<path fill="none" stroke="black" d="M1173.75,-2264.36C1053.96,-2252.41 679.01,-2215.02 551.75,-2202.33"/>
<polygon fill="black" stroke="black" points="551.91,-2198.83 541.62,-2201.32 551.22,-2205.8 551.91,-2198.83"/>
</g>
<!-- 16&#45;&gt;42 -->
<g id="edge32" class="edge">
<title>16&#45;&gt;42</title>
<path fill="none" stroke="black" d="M1173.84,-2264.12C1056.25,-2250.61 700,-2201.43 700,-2101.72 700,-2101.72 700,-2101.72 700,-1787.38 700,-1746.93 709.5,-1727.08 681,-1698.38 628.72,-1645.73 571.65,-1713.62 518,-1662.38 488.37,-1634.08 494,-1614.34 494,-1573.38 494,-1573.38 494,-1573.38 494,-1499.38 494,-1360.95 373.14,-1364 337,-1230.38 332.82,-1214.93 329.93,-1208.73 337,-1194.38 344.05,-1180.06 357.03,-1168.54 369.85,-1159.94"/>
<polygon fill="black" stroke="black" points="372,-1162.72 378.62,-1154.45 368.28,-1156.79 372,-1162.72"/>
</g>
<!-- 37 -->
<g id="node39" class="node">
<title>37</title>
<path fill="none" stroke="black" d="M1233.5,-2211.8C1233.5,-2213.6 1200.56,-2215.07 1160,-2215.07 1119.44,-2215.07 1086.5,-2213.6 1086.5,-2211.8 1086.5,-2211.8 1086.5,-2182.34 1086.5,-2182.34 1086.5,-2180.54 1119.44,-2179.07 1160,-2179.07 1200.56,-2179.07 1233.5,-2180.54 1233.5,-2182.34 1233.5,-2182.34 1233.5,-2211.8 1233.5,-2211.8"/>
<path fill="none" stroke="black" d="M1233.5,-2211.8C1233.5,-2209.99 1200.56,-2208.52 1160,-2208.52 1119.44,-2208.52 1086.5,-2209.99 1086.5,-2211.8"/>
<text text-anchor="middle" x="1160" y="-2193.37" font-family="Times New Roman,serif" font-size="14.00">executionEnvironment8</text>
</g>
<!-- 16&#45;&gt;37 -->
<g id="edge35" class="edge">
<title>16&#45;&gt;37</title>
<path fill="none" stroke="black" d="M1199.17,-2251.83C1193.04,-2243.42 1185.42,-2232.96 1178.53,-2223.5"/>
<polygon fill="black" stroke="black" points="1181.19,-2221.21 1172.48,-2215.19 1175.54,-2225.34 1181.19,-2221.21"/>
</g>
<!-- 52&#45;&gt;48 -->
<g id="edge129" class="edge">
<title>52&#45;&gt;48</title>
<path fill="none" stroke="black" d="M514.86,-2214.86C515.7,-2222.66 515.94,-2232.14 515.6,-2240.92"/>
<polygon fill="black" stroke="black" points="512.09,-2240.9 514.88,-2251.12 519.07,-2241.39 512.09,-2240.9"/>
</g>
<!-- 52&#45;&gt;66 -->
<g id="edge131" class="edge">
<title>52&#45;&gt;66</title>
<path fill="none" stroke="black" d="M508.86,-2178.86C513.27,-2152.11 524.56,-2099.36 509,-2058.38 504.83,-2047.4 497.24,-2037.24 489.81,-2028.81"/>
<polygon fill="black" stroke="black" points="492.23,-2026.26 482.87,-2021.29 487.08,-2031.01 492.23,-2026.26"/>
</g>
<!-- 52&#45;&gt;19 -->
<g id="edge130" class="edge">
<title>52&#45;&gt;19</title>
<path fill="none" stroke="black" d="M477.68,-2190.9C372.26,-2171.57 38,-2099.85 38,-2005.38 38,-2005.38 38,-2005.38 38,-1787.38 38,-1155.68 116.79,-980.12 389,-410.08 418.7,-347.89 424.9,-331.23 463,-273.79 503.53,-212.69 559.5,-146.87 592.14,-113.36"/>
<polygon fill="black" stroke="black" points="594.94,-115.5 599.52,-105.95 589.98,-110.57 594.94,-115.5"/>
</g>
<!-- 52&#45;&gt;53 -->
<g id="edge132" class="edge">
<title>52&#45;&gt;53</title>
<path fill="none" stroke="black" d="M497.34,-2180.06C490,-2165.96 481.29,-2145.12 475.62,-2128.48"/>
<polygon fill="black" stroke="black" points="478.9,-2127.23 472.53,-2118.76 472.23,-2129.35 478.9,-2127.23"/>
</g>
<!-- 42&#45;&gt;62 -->
<g id="edge108" class="edge">
<title>42&#45;&gt;62</title>
<path fill="none" stroke="black" d="M411.91,-1158.65C412.71,-1166.41 412.94,-1175.74 412.59,-1184.38"/>
<polygon fill="black" stroke="black" points="409.09,-1184.21 411.88,-1194.43 416.08,-1184.7 409.09,-1184.21"/>
</g>
<!-- 42&#45;&gt;33 -->
<g id="edge109" class="edge">
<title>42&#45;&gt;33</title>
<path fill="none" stroke="black" d="M370.23,-1150.47C347.36,-1157.94 319.55,-1171.22 305,-1194.38 232.3,-1310.11 309.96,-1681.72 366,-1806.38 384.91,-1848.44 423.5,-1885.92 448.45,-1908.63"/>
<polygon fill="black" stroke="black" points="446.26,-1911.36 456.03,-1915.46 450.95,-1906.17 446.26,-1911.36"/>
</g>
<!-- 45 -->
<g id="node65" class="node">
<title>45</title>
<ellipse fill="none" stroke="black" cx="406" cy="-1068.38" rx="95.58" ry="18"/>
<text text-anchor="middle" x="406" y="-1064.68" font-family="Times New Roman,serif" font-size="14.00">executionEnvironment5</text>
</g>
<!-- 42&#45;&gt;45 -->
<g id="edge107" class="edge">
<title>42&#45;&gt;45</title>
<path fill="none" stroke="black" d="M400.12,-1122.43C399.3,-1114.72 399.06,-1105.4 399.39,-1096.74"/>
<polygon fill="black" stroke="black" points="402.89,-1096.87 400.09,-1086.65 395.91,-1096.39 402.89,-1096.87"/>
</g>
<!-- 18&#45;&gt;66 -->
<g id="edge42" class="edge">
<title>18&#45;&gt;66</title>
<path fill="none" stroke="black" d="M215.88,-1732.7C265.19,-1779.73 401.55,-1922.35 452.07,-1979.4"/>
<polygon fill="black" stroke="black" points="449.66,-1981.96 458.88,-1987.18 454.92,-1977.35 449.66,-1981.96"/>
</g>
<!-- 18&#45;&gt;18 -->
<g id="edge41" class="edge">
<title>18&#45;&gt;18</title>
<path fill="none" stroke="black" d="M224.96,-1729.18C240.22,-1731.68 254.35,-1727.42 254.35,-1716.38 254.35,-1707.84 245.89,-1703.35 235,-1702.91"/>
<polygon fill="black" stroke="black" points="234.71,-1699.42 224.96,-1703.57 235.17,-1706.41 234.71,-1699.42"/>
</g>
<!-- 40&#45;&gt;44 -->
<g id="edge102" class="edge">
<title>40&#45;&gt;44</title>
<path fill="none" stroke="black" d="M673.05,-172.97C682.99,-162.75 698.66,-150.47 715,-144 800.8,-110 1078.52,-96.57 1193.54,-92.49"/>
<polygon fill="black" stroke="black" points="1193.96,-95.98 1203.83,-92.13 1193.71,-88.98 1193.96,-95.98"/>
</g>
<!-- 40&#45;&gt;67 -->
<g id="edge100" class="edge">
<title>40&#45;&gt;67</title>
<path fill="none" stroke="black" d="M626.89,-179.96C570.65,-163.81 463.59,-131.56 396.44,-110.65"/>
<polygon fill="black" stroke="black" points="397.43,-107.29 386.84,-107.65 395.34,-113.97 397.43,-107.29"/>
</g>
<!-- 40&#45;&gt;19 -->
<g id="edge99" class="edge">
<title>40&#45;&gt;19</title>
<path fill="none" stroke="black" d="M651.24,-173.57C642.41,-158.36 631.45,-135.42 624.3,-117.58"/>
<polygon fill="black" stroke="black" points="627.49,-116.13 620.67,-108.02 620.95,-118.61 627.49,-116.13"/>
</g>
<!-- 22 -->
<g id="node47" class="node">
<title>22</title>
<ellipse fill="none" stroke="black" cx="678" cy="-323.94" rx="60.39" ry="18"/>
<text text-anchor="middle" x="678" y="-320.24" font-family="Times New Roman,serif" font-size="14.00">component14</text>
</g>
<!-- 40&#45;&gt;22 -->
<g id="edge101" class="edge">
<title>40&#45;&gt;22</title>
<path fill="none" stroke="black" d="M670.56,-209.03C675.27,-231.01 679.66,-269.39 680.68,-295.47"/>
<polygon fill="black" stroke="black" points="677.19,-295.88 680.9,-305.81 684.19,-295.73 677.19,-295.88"/>
</g>
<!-- 20 -->
<g id="node42" class="node">
<title>20</title>
<ellipse fill="none" stroke="red" cx="1510" cy="-323.94" rx="46.29" ry="18"/>
<text text-anchor="middle" x="1510" y="-320.24" font-family="Times New Roman,serif" font-size="14.00">interface8</text>
</g>
<!-- 20&#45;&gt;27 -->
<g id="edge47" class="edge">
<title>20&#45;&gt;27</title>
<path fill="none" stroke="black" d="M1528.98,-307.39C1557.22,-284.27 1610.42,-240.69 1642.79,-214.18"/>
<polygon fill="black" stroke="black" points="1645.02,-216.88 1650.54,-207.83 1640.59,-211.46 1645.02,-216.88"/>
</g>
<!-- 54 -->
<g id="node43" class="node">
<title>54</title>
<ellipse fill="none" stroke="black" cx="1536" cy="-190.9" rx="60.39" ry="18"/>
<text text-anchor="middle" x="1536" y="-187.2" font-family="Times New Roman,serif" font-size="14.00">component15</text>
</g>
<!-- 20&#45;&gt;54 -->
<g id="edge45" class="edge">
<title>20&#45;&gt;54</title>
<path fill="none" stroke="black" d="M1513.4,-305.81C1517.78,-283.73 1525.44,-245.11 1530.62,-219.02"/>
<polygon fill="black" stroke="black" points="1534.09,-219.52 1532.6,-209.03 1527.22,-218.16 1534.09,-219.52"/>
</g>
<!-- 20&#45;&gt;41 -->
<g id="edge46" class="edge">
<title>20&#45;&gt;41</title>
<path fill="none" stroke="black" d="M1484.63,-308.79C1455.84,-292.48 1407.72,-264.5 1368,-237.79 1288.23,-184.16 1270.32,-167.72 1195,-108 1175.47,-92.52 1175.03,-81.52 1152,-72 1050.88,-30.21 717.54,-21.35 591.69,-19.49"/>
<polygon fill="black" stroke="black" points="591.62,-15.99 581.57,-19.35 591.52,-22.99 591.62,-15.99"/>
</g>
<!-- 20&#45;&gt;47 -->
<g id="edge48" class="edge">
<title>20&#45;&gt;47</title>
<path fill="none" stroke="black" d="M1498.22,-306.34C1482.15,-283.7 1453.22,-242.93 1434.58,-216.66"/>
<polygon fill="black" stroke="black" points="1437.32,-214.49 1428.68,-208.36 1431.62,-218.54 1437.32,-214.49"/>
</g>
<!-- 41&#45;&gt;71 -->
<g id="edge105" class="edge">
<title>41&#45;&gt;71</title>
<path fill="none" stroke="black" d="M580.89,-21.51C712.08,-31.58 1138,-74.25 1138,-189.9 1138,-501.08 1138,-501.08 1138,-501.08 1138,-694.42 1015.73,-716.37 980,-906.38 966.1,-980.28 1032,-992.18 1032,-1067.38 1032,-1141.38 1032,-1141.38 1032,-1141.38 1032,-1248.73 920,-1248.03 920,-1355.38 920,-1573.38 920,-1573.38 920,-1573.38 920,-1614.35 933.91,-1660.1 941.94,-1688.31"/>
<polygon fill="black" stroke="black" points="938.64,-1689.52 944.68,-1698.22 945.38,-1687.65 938.64,-1689.52"/>
</g>
<!-- 41&#45;&gt;67 -->
<g id="edge103" class="edge">
<title>41&#45;&gt;67</title>
<path fill="none" stroke="black" d="M514.91,-30.29C485.6,-40.84 438.89,-56.83 400.64,-69.46"/>
<polygon fill="black" stroke="black" points="399.52,-66.14 391.12,-72.59 401.71,-72.79 399.52,-66.14"/>
</g>
<!-- 41&#45;&gt;59 -->
<g id="edge106" class="edge">
<title>41&#45;&gt;59</title>
<path fill="none" stroke="black" d="M542.04,-36.25C538.3,-46.41 532.55,-59.66 529,-72 494.67,-191.31 481.07,-339.83 472.49,-399.95"/>
<polygon fill="black" stroke="black" points="468.99,-399.7 470.95,-410.12 475.91,-400.76 468.99,-399.7"/>
</g>
<!-- 41&#45;&gt;69 -->
<g id="edge104" class="edge">
<title>41&#45;&gt;69</title>
<path fill="none" stroke="black" d="M548.32,-35.98C552,-66.69 552,-133.52 552,-189.9 552,-645.08 552,-645.08 552,-645.08 552,-709.88 566.2,-785.02 571.65,-824.29"/>
<polygon fill="black" stroke="black" points="568.19,-824.9 572.93,-834.37 575.14,-824.01 568.19,-824.9"/>
</g>
<!-- 47&#45;&gt;64 -->
<g id="edge118" class="edge">
<title>47&#45;&gt;64</title>
<path fill="none" stroke="black" d="M1405.72,-173.57C1398.32,-158.43 1389.49,-135.64 1383.96,-117.83"/>
<polygon fill="black" stroke="black" points="1387.26,-116.65 1381.12,-108.02 1380.54,-118.6 1387.26,-116.65"/>
</g>
<!-- 47&#45;&gt;72 -->
<g id="edge117" class="edge">
<title>47&#45;&gt;72</title>
<path fill="none" stroke="black" d="M1437.82,-206.77C1448.67,-216.65 1462.11,-229.33 1476,-237.79 1515.62,-261.94 1530.87,-256.67 1574,-273.79 1591.21,-280.62 1609.71,-288.36 1626.4,-295.63"/>
<polygon fill="black" stroke="black" points="1625.44,-299.03 1636,-299.85 1628.25,-292.62 1625.44,-299.03"/>
</g>
<!-- 21 -->
<g id="node46" class="node">
<title>21</title>
<ellipse fill="none" stroke="black" cx="1945" cy="-190.9" rx="42.8" ry="42.8"/>
<ellipse fill="none" stroke="black" cx="1945" cy="-190.9" rx="46.79" ry="46.79"/>
<text text-anchor="middle" x="1945" y="-187.2" font-family="Times New Roman,serif" font-size="14.00">device11</text>
</g>
<!-- 22&#45;&gt;40 -->
<g id="edge49" class="edge">
<title>22&#45;&gt;40</title>
<path fill="none" stroke="black" d="M671.44,-305.81C666.74,-283.83 662.34,-245.45 661.32,-219.37"/>
<polygon fill="black" stroke="black" points="664.81,-218.95 661.1,-209.03 657.81,-219.1 664.81,-218.95"/>
</g>
<!-- 22&#45;&gt;22 -->
<g id="edge50" class="edge">
<title>22&#45;&gt;22</title>
<path fill="none" stroke="black" d="M705.74,-340.1C730.3,-347.71 756.44,-342.32 756.44,-323.94 756.44,-308 736.79,-301.83 715.55,-305.44"/>
<polygon fill="black" stroke="black" points="714.65,-302.05 705.74,-307.78 716.28,-308.86 714.65,-302.05"/>
</g>
<!-- 22&#45;&gt;59 -->
<g id="edge51" class="edge">
<title>22&#45;&gt;59</title>
<path fill="none" stroke="black" d="M651.25,-340.23C613.82,-359.39 546,-392.07 503.54,-411.42"/>
<polygon fill="black" stroke="black" points="502.04,-408.26 494.37,-415.57 504.92,-414.63 502.04,-408.26"/>
</g>
<!-- 59&#45;&gt;57 -->
<g id="edge152" class="edge">
<title>59&#45;&gt;57</title>
<path fill="none" stroke="black" d="M498.17,-438.15C534.02,-449.25 592.01,-468.27 632.47,-482.11"/>
<polygon fill="black" stroke="black" points="631.51,-485.48 642.1,-485.42 633.78,-478.86 631.51,-485.48"/>
</g>
<!-- 59&#45;&gt;67 -->
<g id="edge150" class="edge">
<title>59&#45;&gt;67</title>
<path fill="none" stroke="black" d="M431.73,-419.7C407.54,-412.1 377.02,-397.95 361,-374.08 307.22,-293.98 316.22,-171.66 327.55,-117.91"/>
<polygon fill="black" stroke="black" points="330.97,-118.64 329.82,-108.11 324.15,-117.06 330.97,-118.64"/>
</g>
<!-- 59&#45;&gt;34 -->
<g id="edge148" class="edge">
<title>59&#45;&gt;34</title>
<path fill="none" stroke="black" d="M475.71,-445.58C485.15,-471.93 496,-525.23 496,-571.08 496,-749.23 496,-749.23 496,-749.23 496,-805.4 504.21,-821.56 532,-870.38 538.08,-881.05 546.68,-891.32 554.48,-899.93"/>
<polygon fill="black" stroke="black" points="551.97,-902.36 561.33,-907.33 557.11,-897.61 551.97,-902.36"/>
</g>
<!-- 59&#45;&gt;41 -->
<g id="edge149" class="edge">
<title>59&#45;&gt;41</title>
<path fill="none" stroke="black" d="M463.1,-410.12C461.46,-358.43 474.53,-198.74 511,-72 513.73,-62.51 517.76,-52.49 522.2,-43.74"/>
<polygon fill="black" stroke="black" points="525.35,-45.28 527.13,-34.84 519.22,-41.89 525.35,-45.28"/>
</g>
<!-- 59&#45;&gt;22 -->
<g id="edge151" class="edge">
<title>59&#45;&gt;22</title>
<path fill="none" stroke="black" d="M489.39,-413.52C524.5,-395.42 590.96,-363.31 634.94,-343.13"/>
<polygon fill="black" stroke="black" points="636.59,-346.22 644.24,-338.89 633.69,-339.85 636.59,-346.22"/>
</g>
<!-- 59&#45;&gt;63 -->
<g id="edge153" class="edge">
<title>59&#45;&gt;63</title>
<path fill="none" stroke="black" d="M464.68,-446.24C457.69,-472.6 440,-524.87 440,-571.08 440,-853.38 440,-853.38 440,-853.38 440,-893.38 440,-939.72 437.71,-968.3"/>
<polygon fill="black" stroke="black" points="434.22,-968.03 436.71,-978.33 441.18,-968.72 434.22,-968.03"/>
</g>
<!-- 23 -->
<g id="node49" class="node">
<title>23</title>
<ellipse fill="none" stroke="red" cx="1154" cy="-996.38" rx="55.79" ry="18"/>
<text text-anchor="middle" x="1154" y="-992.68" font-family="Times New Roman,serif" font-size="14.00">component9</text>
</g>
<!-- 23&#45;&gt;11 -->
<g id="edge53" class="edge">
<title>23&#45;&gt;11</title>
<path fill="none" stroke="black" d="M1185.59,-981.38C1210.89,-970.17 1246.47,-954.41 1273.45,-942.46"/>
<polygon fill="black" stroke="black" points="1274.87,-945.65 1282.6,-938.4 1272.03,-939.25 1274.87,-945.65"/>
</g>
<!-- 23&#45;&gt;68 -->
<g id="edge54" class="edge">
<title>23&#45;&gt;68</title>
<path fill="none" stroke="black" d="M1135.91,-979.14C1125.99,-970.24 1113.5,-959.03 1102.5,-949.16"/>
<polygon fill="black" stroke="black" points="1104.59,-946.33 1094.81,-942.25 1099.91,-951.54 1104.59,-946.33"/>
</g>
<!-- 23&#45;&gt;26 -->
<g id="edge52" class="edge">
<title>23&#45;&gt;26</title>
<path fill="none" stroke="black" d="M1165.19,-978.52C1171.16,-968.48 1177.91,-955.23 1181,-942.38 1184.73,-926.82 1185.14,-921.83 1181,-906.38 1148.56,-785.28 1097.64,-773.41 1040,-662.08 999.49,-583.85 1005.95,-555.33 957,-482.08 950.39,-472.19 941.94,-462.35 933.93,-453.88"/>
<polygon fill="black" stroke="black" points="936.25,-451.24 926.76,-446.52 931.24,-456.13 936.25,-451.24"/>
</g>
<!-- 24 -->
<g id="node50" class="node">
<title>24</title>
<ellipse fill="none" stroke="black" cx="1840" cy="-190.9" rx="40.09" ry="18"/>
<text text-anchor="middle" x="1840" y="-187.2" font-family="Times New Roman,serif" font-size="14.00">artifact9</text>
</g>
<!-- 24&#45;&gt;6 -->
<g id="edge56" class="edge">
<title>24&#45;&gt;6</title>
<path fill="none" stroke="black" d="M1828.77,-173.57C1817.94,-157.82 1801.41,-133.78 1788.98,-115.69"/>
<polygon fill="black" stroke="black" points="1791.8,-113.61 1783.25,-107.35 1786.03,-117.58 1791.8,-113.61"/>
</g>
<!-- 24&#45;&gt;72 -->
<g id="edge55" class="edge">
<title>24&#45;&gt;72</title>
<path fill="none" stroke="black" d="M1825.12,-207.85C1803.27,-227.59 1762.02,-261.76 1729.01,-287.76"/>
<polygon fill="black" stroke="black" points="1726.53,-285.26 1720.81,-294.18 1730.84,-290.77 1726.53,-285.26"/>
</g>
<!-- 35 -->
<g id="node52" class="node">
<title>35</title>
<ellipse fill="none" stroke="black" cx="1886" cy="-90" rx="55.79" ry="18"/>
<text text-anchor="middle" x="1886" y="-86.3" font-family="Times New Roman,serif" font-size="14.00">component8</text>
</g>
<!-- 24&#45;&gt;35 -->
<g id="edge57" class="edge">
<title>24&#45;&gt;35</title>
<path fill="none" stroke="black" d="M1842.75,-172.67C1848.23,-157.26 1858.59,-134.46 1867.96,-116.86"/>
<polygon fill="black" stroke="black" points="1871.25,-118.14 1873.02,-107.7 1865.12,-114.76 1871.25,-118.14"/>
</g>
<!-- 72&#45;&gt;27 -->
<g id="edge193" class="edge">
<title>72&#45;&gt;27</title>
<path fill="none" stroke="black" d="M1669.76,-274.52C1667.88,-255.91 1666.62,-235.34 1666.48,-219.37"/>
<polygon fill="black" stroke="black" points="1669.98,-219.17 1666.57,-209.14 1662.98,-219.1 1669.98,-219.17"/>
</g>
<!-- 72&#45;&gt;47 -->
<g id="edge194" class="edge">
<title>72&#45;&gt;47</title>
<path fill="none" stroke="black" d="M1633.17,-305.71C1609.91,-296.05 1581.53,-283.93 1556,-273.79 1512.87,-256.67 1497.62,-261.94 1458,-237.79 1448.34,-231.91 1438.89,-223.98 1431.33,-216.37"/>
<polygon fill="black" stroke="black" points="1433.83,-213.91 1424.47,-208.96 1428.69,-218.67 1433.83,-213.91"/>
</g>
<!-- 72&#45;&gt;24 -->
<g id="edge191" class="edge">
<title>72&#45;&gt;24</title>
<path fill="none" stroke="black" d="M1716.01,-288.51C1744.37,-264.29 1783.27,-232.68 1809.98,-212.34"/>
<polygon fill="black" stroke="black" points="1812.32,-214.96 1818.2,-206.15 1808.1,-209.37 1812.32,-214.96"/>
</g>
<!-- 72&#45;&gt;72 -->
<g id="edge192" class="edge">
<title>72&#45;&gt;72</title>
<path fill="none" stroke="black" d="M1726.5,-343.27C1738.82,-342.16 1748.15,-335.72 1748.15,-323.94 1748.15,-315.65 1743.53,-310.01 1736.52,-307"/>
<polygon fill="black" stroke="black" points="1737.04,-303.53 1726.5,-304.61 1735.41,-310.34 1737.04,-303.53"/>
</g>
<!-- 72&#45;&gt;28 -->
<g id="edge190" class="edge">
<title>72&#45;&gt;28</title>
<path fill="none" stroke="black" d="M1686.74,-373.64C1686.79,-382.54 1686.57,-391.54 1686.07,-399.55"/>
<polygon fill="black" stroke="black" points="1682.56,-399.5 1685.22,-409.76 1689.54,-400.08 1682.56,-399.5"/>
</g>
<!-- 35&#45;&gt;24 -->
<g id="edge91" class="edge">
<title>35&#45;&gt;24</title>
<path fill="none" stroke="black" d="M1883.33,-108.02C1877.83,-123.52 1867.33,-146.64 1857.87,-164.36"/>
<polygon fill="black" stroke="black" points="1854.55,-163.12 1852.76,-173.57 1860.67,-166.52 1854.55,-163.12"/>
</g>
<!-- 51&#45;&gt;4 -->
<g id="edge126" class="edge">
<title>51&#45;&gt;4</title>
<path fill="none" stroke="black" d="M684.42,-627.55C696.96,-618.01 713.21,-605.64 727.06,-595.1"/>
<polygon fill="black" stroke="black" points="729.48,-597.66 735.32,-588.82 725.24,-592.09 729.48,-597.66"/>
</g>
<!-- 51&#45;&gt;26 -->
<g id="edge128" class="edge">
<title>51&#45;&gt;26</title>
<path fill="none" stroke="black" d="M658.68,-626.08C658.27,-606.6 664.39,-574.72 682,-554.08 705.74,-526.26 723.99,-535.77 756,-518.08 777.15,-506.4 830.58,-472.72 868.23,-450.3"/>
<polygon fill="black" stroke="black" points="870.12,-453.25 876.95,-445.15 866.56,-447.22 870.12,-453.25"/>
</g>
<!-- 49 -->
<g id="node67" class="node">
<title>49</title>
<ellipse fill="none" stroke="red" cx="630" cy="-748.23" rx="46.28" ry="46.28"/>
<ellipse fill="none" stroke="red" cx="630" cy="-748.23" rx="50.29" ry="50.29"/>
<text text-anchor="middle" x="630" y="-744.53" font-family="Times New Roman,serif" font-size="14.00">interface7</text>
</g>
<!-- 51&#45;&gt;49 -->
<g id="edge127" class="edge">
<title>51&#45;&gt;49</title>
<path fill="none" stroke="black" d="M663.47,-662.31C661.55,-670.91 658.43,-681.83 654.81,-692.95"/>
<polygon fill="black" stroke="black" points="651.39,-692.13 651.51,-702.72 658.02,-694.36 651.39,-692.13"/>
</g>
<!-- 28&#45;&gt;46 -->
<g id="edge63" class="edge">
<title>28&#45;&gt;46</title>
<path fill="none" stroke="black" d="M1685.91,-446.36C1686.71,-454.11 1686.94,-463.45 1686.59,-472.09"/>
<polygon fill="black" stroke="black" points="1683.09,-471.92 1685.88,-482.14 1690.08,-472.41 1683.09,-471.92"/>
</g>
<!-- 28&#45;&gt;72 -->
<g id="edge64" class="edge">
<title>28&#45;&gt;72</title>
<path fill="none" stroke="black" d="M1674.78,-409.76C1673.98,-402.4 1673.5,-393.35 1673.32,-383.94"/>
<polygon fill="black" stroke="black" points="1676.82,-383.61 1673.26,-373.64 1669.82,-383.66 1676.82,-383.61"/>
</g>
<!-- 70&#45;&gt;36 -->
<g id="edge183" class="edge">
<title>70&#45;&gt;36</title>
<path fill="none" stroke="black" d="M961.71,-1659.2C931.88,-1678.8 877.14,-1718.17 860,-1770.38 853.41,-1790.44 856.89,-1814.22 860.28,-1832.15"/>
<polygon fill="black" stroke="black" points="856.9,-1833.07 862.24,-1842.22 863.77,-1831.73 856.9,-1833.07"/>
</g>
<!-- 70&#45;&gt;71 -->
<g id="edge184" class="edge">
<title>70&#45;&gt;71</title>
<path fill="none" stroke="black" d="M978.4,-1662.34C974.99,-1671 969.83,-1681.69 964.55,-1691.19"/>
<polygon fill="black" stroke="black" points="961.52,-1689.44 959.49,-1699.84 967.56,-1692.98 961.52,-1689.44"/>
</g>
<!-- 70&#45;&gt;29 -->
<g id="edge185" class="edge">
<title>70&#45;&gt;29</title>
<path fill="none" stroke="black" d="M972.64,-1626.81C965.23,-1600.37 958,-1546.96 958,-1501.38 958,-1501.38 958,-1501.38 958,-1067.38 958,-965.84 878,-954.92 878,-853.38 878,-853.38 878,-853.38 878,-643.08 878,-602.25 886.61,-555.5 895.16,-527.15"/>
<polygon fill="black" stroke="black" points="898.51,-528.17 898.29,-517.58 891.85,-526 898.51,-528.17"/>
</g>
<!-- 31 -->
<g id="node58" class="node">
<title>31</title>
<ellipse fill="none" stroke="black" cx="1064" cy="-1572.38" rx="60.39" ry="18"/>
<text text-anchor="middle" x="1064" y="-1568.68" font-family="Times New Roman,serif" font-size="14.00">component12</text>
</g>
<!-- 70&#45;&gt;31 -->
<g id="edge182" class="edge">
<title>70&#45;&gt;31</title>
<path fill="none" stroke="black" d="M994.07,-1627.49C1004.3,-1617.94 1018.7,-1605.64 1031.83,-1595.19"/>
<polygon fill="black" stroke="black" points="1034.08,-1597.87 1039.8,-1588.96 1029.77,-1592.36 1034.08,-1597.87"/>
</g>
<!-- 30 -->
<g id="node56" class="node">
<title>30</title>
<ellipse fill="none" stroke="red" cx="1546" cy="-2100.72" rx="55.79" ry="18"/>
<text text-anchor="middle" x="1546" y="-2097.02" font-family="Times New Roman,serif" font-size="14.00">component0</text>
</g>
<!-- 30&#45;&gt;1 -->
<g id="edge76" class="edge">
<title>30&#45;&gt;1</title>
<path fill="none" stroke="black" d="M1546,-2082.72C1546,-2052.62 1546,-1987.96 1546,-1933.38 1546,-1933.38 1546,-1933.38 1546,-1715.38 1546,-1414.54 1483.61,-1053.03 1465.11,-952.47"/>
<polygon fill="black" stroke="black" points="1468.53,-951.73 1463.27,-942.53 1461.65,-953.01 1468.53,-951.73"/>
</g>
<!-- 30&#45;&gt;3 -->
<g id="edge68" class="edge">
<title>30&#45;&gt;3</title>
<path fill="none" stroke="black" d="M1516.05,-2085.38C1409.28,-2034.24 1047.62,-1861.03 933.09,-1806.18"/>
<polygon fill="black" stroke="black" points="934.56,-1803 924.03,-1801.84 931.53,-1809.32 934.56,-1803"/>
</g>
<!-- 30&#45;&gt;66 -->
<g id="edge69" class="edge">
<title>30&#45;&gt;66</title>
<path fill="none" stroke="black" d="M1492.69,-2095.04C1305.75,-2078.64 682.16,-2023.91 513.41,-2009.1"/>
<polygon fill="black" stroke="black" points="513.69,-2005.61 503.42,-2008.22 513.08,-2012.58 513.69,-2005.61"/>
</g>
<!-- 30&#45;&gt;65 -->
<g id="edge72" class="edge">
<title>30&#45;&gt;65</title>
<path fill="none" stroke="black" d="M1532.51,-2083.18C1520.84,-2068.13 1504.27,-2044.9 1494,-2022.38 1477.01,-1985.1 1470,-1974.34 1470,-1933.38 1470,-1933.38 1470,-1933.38 1470,-1715.38 1470,-1613.17 1408.05,-1503.3 1377.13,-1454.82"/>
<polygon fill="black" stroke="black" points="1379.94,-1452.72 1371.56,-1446.23 1374.07,-1456.53 1379.94,-1452.72"/>
</g>
<!-- 30&#45;&gt;15 -->
<g id="edge74" class="edge">
<title>30&#45;&gt;15</title>
<path fill="none" stroke="black" d="M1563.59,-2083.29C1579.52,-2068.41 1603.17,-2046.32 1621.23,-2029.45"/>
<polygon fill="black" stroke="black" points="1623.67,-2031.96 1628.59,-2022.58 1618.89,-2026.85 1623.67,-2031.96"/>
</g>
<!-- 30&#45;&gt;47 -->
<g id="edge70" class="edge">
<title>30&#45;&gt;47</title>
<path fill="none" stroke="black" d="M1552.62,-2082.54C1563.51,-2052.67 1584,-1989.07 1584,-1933.38 1584,-1933.38 1584,-1933.38 1584,-1643.38 1584,-1546.78 1622,-1525.97 1622,-1429.38 1622,-1429.38 1622,-1429.38 1622,-1283.38 1622,-1147.82 1639.34,-1112.69 1621,-978.38 1583.32,-702.41 1520.36,-644.83 1455,-374.08 1441.81,-319.43 1428.99,-254.91 1422.14,-219.18"/>
<polygon fill="black" stroke="black" points="1425.52,-218.22 1420.21,-209.06 1418.64,-219.53 1425.52,-218.22"/>
</g>
<!-- 30&#45;&gt;22 -->
<g id="edge71" class="edge">
<title>30&#45;&gt;22</title>
<path fill="none" stroke="black" d="M1539.38,-2082.54C1528.49,-2052.67 1508,-1989.07 1508,-1933.38 1508,-1933.38 1508,-1933.38 1508,-1715.38 1508,-1552.72 1584,-1520.03 1584,-1357.38 1584,-1357.38 1584,-1357.38 1584,-1067.38 1584,-992.32 1574.47,-968.94 1533,-906.38 1439.19,-764.84 1100.68,-492.1 952,-410.08 883.39,-372.23 795.64,-348.75 738.18,-336.27"/>
<polygon fill="black" stroke="black" points="738.68,-332.8 728.17,-334.14 737.22,-339.64 738.68,-332.8"/>
</g>
<!-- 30&#45;&gt;35 -->
<g id="edge75" class="edge">
<title>30&#45;&gt;35</title>
<path fill="none" stroke="black" d="M1594.79,-2091.94C1671.58,-2076.59 1812,-2034.69 1812,-1933.38 1812,-1933.38 1812,-1933.38 1812,-1139.38 1812,-934.39 2058,-954.22 2058,-749.23 2058,-749.23 2058,-749.23 2058,-322.94 2058,-242.37 2080.18,-206.22 2029,-144 2022.6,-136.22 1973.32,-118.98 1934.38,-106.26"/>
<polygon fill="black" stroke="black" points="1935.32,-102.89 1924.73,-103.13 1933.16,-109.55 1935.32,-102.89"/>
</g>
<!-- 39 -->
<g id="node57" class="node">
<title>39</title>
<ellipse fill="none" stroke="black" cx="1885" cy="-2004.38" rx="44.69" ry="18"/>
<text text-anchor="middle" x="1885" y="-2000.68" font-family="Times New Roman,serif" font-size="14.00">package6</text>
</g>
<!-- 30&#45;&gt;39 -->
<g id="edge73" class="edge">
<title>30&#45;&gt;39</title>
<path fill="none" stroke="black" d="M1587.31,-2088.46C1641.97,-2073.53 1741.3,-2046.28 1826,-2022.38 1830.57,-2021.09 1835.33,-2019.73 1840.09,-2018.37"/>
<polygon fill="black" stroke="black" points="1841.12,-2021.72 1849.76,-2015.6 1839.19,-2014.99 1841.12,-2021.72"/>
</g>
<!-- 31&#45;&gt;70 -->
<g id="edge78" class="edge">
<title>31&#45;&gt;70</title>
<path fill="none" stroke="black" d="M1050.19,-1589.94C1039.23,-1600.13 1023.78,-1613.24 1010.19,-1623.92"/>
<polygon fill="black" stroke="black" points="1007.81,-1621.33 1002.02,-1630.21 1012.08,-1626.88 1007.81,-1621.33"/>
</g>
<!-- 31&#45;&gt;58 -->
<g id="edge77" class="edge">
<title>31&#45;&gt;58</title>
<path fill="none" stroke="black" d="M1094.02,-1556.7C1120.17,-1545.34 1158.3,-1529.61 1188.22,-1517.83"/>
<polygon fill="black" stroke="black" points="1189.58,-1521.05 1197.62,-1514.15 1187.03,-1514.53 1189.58,-1521.05"/>
</g>
<!-- 58&#45;&gt;65 -->
<g id="edge147" class="edge">
<title>58&#45;&gt;65</title>
<path fill="none" stroke="black" d="M1256.24,-1483.84C1273.94,-1473.31 1298.97,-1459.35 1320.07,-1448.19"/>
<polygon fill="black" stroke="black" points="1321.91,-1451.18 1329.15,-1443.44 1318.66,-1444.98 1321.91,-1451.18"/>
</g>
<!-- 58&#45;&gt;31 -->
<g id="edge146" class="edge">
<title>58&#45;&gt;31</title>
<path fill="none" stroke="black" d="M1204.53,-1515.81C1178.67,-1527.06 1140.79,-1542.69 1110.82,-1554.52"/>
<polygon fill="black" stroke="black" points="1109.42,-1551.3 1101.39,-1558.21 1111.97,-1557.82 1109.42,-1551.3"/>
</g>
<!-- 32 -->
<g id="node60" class="node">
<title>32</title>
<ellipse fill="none" stroke="red" cx="1652" cy="-1788.38" rx="33.29" ry="18"/>
<text text-anchor="middle" x="1652" y="-1784.68" font-family="Times New Roman,serif" font-size="14.00">node6</text>
</g>
<!-- 32&#45;&gt;71 -->
<g id="edge80" class="edge">
<title>32&#45;&gt;71</title>
<path fill="none" stroke="black" d="M1619.36,-1784.14C1504.36,-1772.74 1117.91,-1734.42 988.58,-1721.6"/>
<polygon fill="black" stroke="black" points="988.59,-1718.08 978.29,-1720.58 987.9,-1725.05 988.59,-1718.08"/>
</g>
<!-- 32&#45;&gt;26 -->
<g id="edge79" class="edge">
<title>32&#45;&gt;26</title>
<path fill="none" stroke="black" d="M1649.56,-1770.23C1648.21,-1759.87 1646.68,-1746.4 1646,-1734.38 1645.1,-1718.4 1645.43,-1714.37 1646,-1698.38 1649.11,-1610.65 1660,-1589.15 1660,-1501.38 1660,-1501.38 1660,-1501.38 1660,-1283.38 1660,-1145.05 1660.33,-1101.86 1598,-978.38 1578.57,-939.89 1565.5,-934.7 1533,-906.38 1344.58,-742.15 1251.25,-760.06 1068,-590.08 1023.01,-548.36 1026.48,-524.35 982,-482.08 970.27,-470.94 956.09,-460.23 943.29,-451.4"/>
<polygon fill="black" stroke="black" points="944.95,-448.29 934.7,-445.59 941.03,-454.09 944.95,-448.29"/>
</g>
<!-- 32&#45;&gt;21 -->
<g id="edge82" class="edge">
<title>32&#45;&gt;21</title>
<path fill="none" stroke="black" d="M1661.86,-1771.06C1675.44,-1747.8 1699.6,-1703.39 1712,-1662.38 1791.48,-1399.45 1705.36,-1308.95 1798,-1050.38 1850.9,-902.72 1982,-906.08 1982,-749.23 1982,-749.23 1982,-749.23 1982,-427.08 1982,-364.57 1969.09,-293.83 1958.52,-246.41"/>
<polygon fill="black" stroke="black" points="1961.93,-245.63 1956.3,-236.65 1955.1,-247.18 1961.93,-245.63"/>
</g>
<!-- 32&#45;&gt;35 -->
<g id="edge81" class="edge">
<title>32&#45;&gt;35</title>
<path fill="none" stroke="black" d="M1656.66,-1770.24C1668.36,-1726.68 1698,-1612.42 1698,-1573.38 1698,-1573.38 1698,-1573.38 1698,-1283.38 1698,-1206.21 1731.67,-1192.9 1763,-1122.38 1777.45,-1089.86 1779.2,-1080.58 1798,-1050.38 1885.87,-909.21 2020,-915.51 2020,-749.23 2020,-749.23 2020,-749.23 2020,-322.94 2020,-242.96 2047.62,-208.98 2001,-144 1986.82,-124.24 1963.42,-111.66 1941.42,-103.75"/>
<polygon fill="black" stroke="black" points="1942.37,-100.37 1931.78,-100.53 1940.15,-107.01 1942.37,-100.37"/>
</g>
<!-- 33&#45;&gt;36 -->
<g id="edge83" class="edge">
<title>33&#45;&gt;36</title>
<path fill="none" stroke="black" d="M504.99,-1924.54C566.58,-1912.99 697.77,-1889.43 782.85,-1874.58"/>
<polygon fill="black" stroke="black" points="783.48,-1878.02 792.73,-1872.85 782.28,-1871.12 783.48,-1878.02"/>
</g>
<!-- 33&#45;&gt;66 -->
<g id="edge85" class="edge">
<title>33&#45;&gt;66</title>
<path fill="none" stroke="black" d="M476.86,-1950.17C477.7,-1957.97 477.94,-1967.44 477.6,-1976.22"/>
<polygon fill="black" stroke="black" points="474.09,-1976.21 476.88,-1986.43 481.07,-1976.7 474.09,-1976.21"/>
</g>
<!-- 33&#45;&gt;42 -->
<g id="edge84" class="edge">
<title>33&#45;&gt;42</title>
<path fill="none" stroke="black" d="M447.17,-1917.96C417.76,-1897.27 369.8,-1854.86 348,-1806.38 291.96,-1681.72 214.3,-1310.11 287,-1194.38 301.88,-1170.69 330.66,-1157.34 356.28,-1149.96"/>
<polygon fill="black" stroke="black" points="357.49,-1153.26 366.27,-1147.33 355.71,-1146.49 357.49,-1153.26"/>
</g>
<!-- 69&#45;&gt;34 -->
<g id="edge179" class="edge">
<title>69&#45;&gt;34</title>
<path fill="none" stroke="black" d="M577.91,-870.65C578.71,-878.41 578.94,-887.74 578.59,-896.38"/>
<polygon fill="black" stroke="black" points="575.09,-896.21 577.88,-906.43 582.08,-896.7 575.09,-896.21"/>
</g>
<!-- 69&#45;&gt;41 -->
<g id="edge180" class="edge">
<title>69&#45;&gt;41</title>
<path fill="none" stroke="black" d="M563.1,-834.64C551.09,-799.66 534,-716.15 534,-645.08 534,-645.08 534,-645.08 534,-189.9 534,-139.03 534,-79.65 536.7,-45.97"/>
<polygon fill="black" stroke="black" points="540.19,-46.27 537.68,-35.98 533.22,-45.59 540.19,-46.27"/>
</g>
<!-- 69&#45;&gt;49 -->
<g id="edge181" class="edge">
<title>69&#45;&gt;49</title>
<path fill="none" stroke="black" d="M576.62,-834.05C581.21,-824.06 588.14,-810.95 595.54,-798.04"/>
<polygon fill="black" stroke="black" points="598.7,-799.57 600.72,-789.17 592.65,-796.04 598.7,-799.57"/>
</g>
<!-- 63&#45;&gt;34 -->
<g id="edge165" class="edge">
<title>63&#45;&gt;34</title>
<path fill="none" stroke="black" d="M453.35,-981.55C475.89,-969.55 510.71,-952.24 536.9,-940.02"/>
<polygon fill="black" stroke="black" points="538.5,-943.13 546.11,-935.76 535.57,-936.78 538.5,-943.13"/>
</g>
<!-- 63&#45;&gt;59 -->
<g id="edge167" class="edge">
<title>63&#45;&gt;59</title>
<path fill="none" stroke="black" d="M425.29,-978.33C422,-951.67 422,-898.49 422,-853.38 422,-853.38 422,-853.38 422,-571.08 422,-529.29 436.47,-482.54 449.19,-454.48"/>
<polygon fill="black" stroke="black" points="452.39,-455.9 453.59,-445.38 446.09,-452.86 452.39,-455.9"/>
</g>
<!-- 63&#45;&gt;45 -->
<g id="edge166" class="edge">
<title>63&#45;&gt;45</title>
<path fill="none" stroke="black" d="M430.74,-1014.65C428.71,-1022.66 425.46,-1032.35 421.89,-1041.23"/>
<polygon fill="black" stroke="black" points="418.67,-1039.86 417.93,-1050.43 425.1,-1042.63 418.67,-1039.86"/>
</g>
<!-- 38 -->
<g id="node64" class="node">
<title>38</title>
<ellipse fill="none" stroke="red" cx="1860" cy="-323.94" rx="55.79" ry="18"/>
<text text-anchor="middle" x="1860" y="-320.24" font-family="Times New Roman,serif" font-size="14.00">component7</text>
</g>
<!-- 38&#45;&gt;6 -->
<g id="edge97" class="edge">
<title>38&#45;&gt;6</title>
<path fill="none" stroke="black" d="M1841.99,-306.6C1825.76,-290.72 1802.69,-265.07 1791,-237.79 1774.23,-198.66 1771.21,-148.71 1771.16,-118.32"/>
<polygon fill="black" stroke="black" points="1774.67,-118.1 1771.26,-108.07 1767.67,-118.04 1774.67,-118.1"/>
</g>
<!-- 38&#45;&gt;27 -->
<g id="edge96" class="edge">
<title>38&#45;&gt;27</title>
<path fill="none" stroke="black" d="M1837.98,-307.37C1824.22,-297.67 1806.12,-284.95 1790,-273.79 1760.08,-253.08 1725.77,-229.7 1701.52,-213.24"/>
<polygon fill="black" stroke="black" points="1703.31,-210.22 1693.07,-207.51 1699.38,-216.02 1703.31,-210.22"/>
</g>
<!-- 38&#45;&gt;54 -->
<g id="edge95" class="edge">
<title>38&#45;&gt;54</title>
<path fill="none" stroke="black" d="M1832.7,-307.94C1812.32,-297.24 1783.53,-283.15 1757,-273.79 1691.52,-250.71 1668.68,-265.45 1605,-237.79 1590.77,-231.61 1576.29,-222.5 1564.29,-214.01"/>
<polygon fill="black" stroke="black" points="1566.17,-211.06 1556.03,-208 1562.05,-216.71 1566.17,-211.06"/>
</g>
<!-- 38&#45;&gt;21 -->
<g id="edge98" class="edge">
<title>38&#45;&gt;21</title>
<path fill="none" stroke="black" d="M1870.94,-306.08C1881.88,-289.21 1899.22,-262.48 1914.37,-239.12"/>
<polygon fill="black" stroke="black" points="1917.33,-240.99 1919.83,-230.7 1911.45,-237.18 1917.33,-240.99"/>
</g>
<!-- 45&#45;&gt;42 -->
<g id="edge112" class="edge">
<title>45&#45;&gt;42</title>
<path fill="none" stroke="black" d="M411.91,-1086.65C412.71,-1094.41 412.94,-1103.74 412.59,-1112.38"/>
<polygon fill="black" stroke="black" points="409.09,-1112.21 411.88,-1122.43 416.08,-1112.7 409.09,-1112.21"/>
</g>
<!-- 45&#45;&gt;63 -->
<g id="edge113" class="edge">
<title>45&#45;&gt;63</title>
<path fill="none" stroke="black" d="M406.26,-1050.07C408.32,-1041.99 411.61,-1032.19 415.22,-1023.25"/>
<polygon fill="black" stroke="black" points="418.46,-1024.57 419.22,-1014 412.04,-1021.79 418.46,-1024.57"/>
</g>
<!-- 43 -->
<g id="node66" class="node">
<title>43</title>
<ellipse fill="none" stroke="black" cx="1404" cy="-1644.38" rx="38.19" ry="18"/>
<text text-anchor="middle" x="1404" y="-1640.68" font-family="Times New Roman,serif" font-size="14.00">device1</text>
</g>
<!-- 49&#45;&gt;51 -->
<g id="edge121" class="edge">
<title>49&#45;&gt;51</title>
<path fill="none" stroke="black" d="M639.36,-698.85C642.46,-689.36 645.91,-679.75 649.28,-671.33"/>
<polygon fill="black" stroke="black" points="652.52,-672.64 653.17,-662.07 646.07,-669.93 652.52,-672.64"/>
</g>
<!-- 49&#45;&gt;69 -->
<g id="edge122" class="edge">
<title>49&#45;&gt;69</title>
<path fill="none" stroke="black" d="M610.94,-794.63C604.74,-805.79 597.91,-817.32 591.66,-827.05"/>
<polygon fill="black" stroke="black" points="588.73,-825.14 586.12,-835.42 594.56,-829.01 588.73,-825.14"/>
</g>
<!-- 50 -->
<g id="node68" class="node">
<title>50</title>
<path fill="none" stroke="red" d="M1101.5,-1803.1C1101.5,-1804.91 1068.56,-1806.38 1028,-1806.38 987.44,-1806.38 954.5,-1804.91 954.5,-1803.1 954.5,-1803.1 954.5,-1773.65 954.5,-1773.65 954.5,-1771.84 987.44,-1770.38 1028,-1770.38 1068.56,-1770.38 1101.5,-1771.84 1101.5,-1773.65 1101.5,-1773.65 1101.5,-1803.1 1101.5,-1803.1"/>
<path fill="none" stroke="red" d="M1101.5,-1803.1C1101.5,-1801.3 1068.56,-1799.83 1028,-1799.83 987.44,-1799.83 954.5,-1801.3 954.5,-1803.1"/>
<text text-anchor="middle" x="1028" y="-1784.68" font-family="Times New Roman,serif" font-size="14.00">executionEnvironment3</text>
</g>
<!-- 50&#45;&gt;71 -->
<g id="edge124" class="edge">
<title>50&#45;&gt;71</title>
<path fill="none" stroke="black" d="M1007.73,-1770.07C996.56,-1760.53 982.59,-1748.61 970.77,-1738.52"/>
<polygon fill="black" stroke="black" points="972.87,-1735.71 963,-1731.88 968.33,-1741.04 972.87,-1735.71"/>
</g>
<!-- 50&#45;&gt;34 -->
<g id="edge123" class="edge">
<title>50&#45;&gt;34</title>
<path fill="none" stroke="black" d="M975.45,-1770.9C880.7,-1740.99 688.49,-1679.28 661,-1662.38 612.81,-1632.74 570,-1629.95 570,-1573.38 570,-1573.38 570,-1573.38 570,-1283.38 570,-1159.92 571.2,-1012.51 571.74,-952.65"/>
<polygon fill="black" stroke="black" points="575.24,-952.55 571.84,-942.52 568.25,-952.48 575.24,-952.55"/>
</g>
<!-- 50&#45;&gt;35 -->
<g id="edge125" class="edge">
<title>50&#45;&gt;35</title>
<path fill="none" stroke="black" d="M1039.49,-1770.29C1061.23,-1737.12 1108.44,-1661.03 1133,-1590.38 1234.43,-1298.55 1149.76,-1196.12 1257,-906.38 1285.09,-830.48 1349,-830.16 1349,-749.23 1349,-749.23 1349,-749.23 1349,-322.94 1349,-242.96 1310.71,-199.8 1368,-144 1404.17,-108.77 1771.22,-116.42 1821,-108 1825.98,-107.16 1831.13,-106.12 1836.25,-104.96"/>
<polygon fill="black" stroke="black" points="1837.1,-108.36 1846.02,-102.64 1835.48,-101.55 1837.1,-108.36"/>
</g>
<!-- 53&#45;&gt;66 -->
<g id="edge134" class="edge">
<title>53&#45;&gt;66</title>
<path fill="none" stroke="black" d="M465.68,-2082.86C464.12,-2068.86 463.84,-2048.68 464.83,-2032.43"/>
<polygon fill="black" stroke="black" points="468.32,-2032.67 465.67,-2022.42 461.34,-2032.09 468.32,-2032.67"/>
</g>
<!-- 53&#45;&gt;52 -->
<g id="edge133" class="edge">
<title>53&#45;&gt;52</title>
<path fill="none" stroke="black" d="M482.79,-2117.97C490.07,-2132.02 498.67,-2152.6 504.31,-2169.11"/>
<polygon fill="black" stroke="black" points="501.02,-2170.31 507.39,-2178.76 507.68,-2168.17 501.02,-2170.31"/>
</g>
<!-- 55 -->
<g id="node70" class="node">
<title>55</title>
<ellipse fill="none" stroke="red" cx="1873" cy="-1788.38" rx="33.29" ry="18"/>
<text text-anchor="middle" x="1873" y="-1784.68" font-family="Times New Roman,serif" font-size="14.00">node3</text>
</g>
<!-- 55&#45;&gt;2 -->
<g id="edge135" class="edge">
<title>55&#45;&gt;2</title>
<path fill="none" stroke="black" d="M1882.56,-1770.66C1888.05,-1760.45 1894.69,-1746.98 1899,-1734.38 2015.29,-1394.33 1994.62,-1295.38 2062,-942.38 2078.34,-856.76 2096,-836.39 2096,-749.23 2096,-749.23 2096,-749.23 2096,-189.9 2096,-106.84 2030.2,-97 1951,-72 1837.08,-36.04 1489.43,-24.14 1328,-20.49"/>
<polygon fill="black" stroke="black" points="1327.72,-16.98 1317.64,-20.26 1327.56,-23.98 1327.72,-16.98"/>
</g>
<!-- 55&#45;&gt;71 -->
<g id="edge141" class="edge">
<title>55&#45;&gt;71</title>
<path fill="none" stroke="black" d="M1840.68,-1784.07C1804.85,-1780.46 1745.33,-1774.63 1694,-1770.38 1676.3,-1768.91 1145.19,-1731.43 988.87,-1720.4"/>
<polygon fill="black" stroke="black" points="988.93,-1716.9 978.7,-1719.68 988.43,-1723.88 988.93,-1716.9"/>
</g>
<!-- 55&#45;&gt;27 -->
<g id="edge140" class="edge">
<title>55&#45;&gt;27</title>
<path fill="none" stroke="black" d="M1868.46,-1770.47C1861.75,-1744 1850,-1691.08 1850,-1645.38 1850,-1645.38 1850,-1645.38 1850,-1211.38 1850,-1113.06 1906,-1095.69 1906,-997.38 1906,-997.38 1906,-997.38 1906,-643.08 1906,-602.12 1896.31,-592.47 1882,-554.08 1850.96,-470.83 1830.11,-455.71 1795,-374.08 1776.17,-330.3 1783.48,-313.43 1757,-273.79 1741.44,-250.5 1718.1,-229 1699.5,-213.88"/>
<polygon fill="black" stroke="black" points="1701.61,-211.08 1691.6,-207.6 1697.25,-216.56 1701.61,-211.08"/>
</g>
<!-- 55&#45;&gt;10 -->
<g id="edge139" class="edge">
<title>55&#45;&gt;10</title>
<path fill="none" stroke="black" d="M1898.04,-1776.28C1920.86,-1766.17 1955.21,-1750.96 1983.27,-1738.52"/>
<polygon fill="black" stroke="black" points="1984.8,-1741.67 1992.52,-1734.42 1981.96,-1735.27 1984.8,-1741.67"/>
</g>
<!-- 55&#45;&gt;42 -->
<g id="edge137" class="edge">
<title>55&#45;&gt;42</title>
<path fill="none" stroke="black" d="M1859.69,-1771.78C1797.56,-1699.3 1534.38,-1396.54 1425,-1338.38 1090.06,-1160.26 616.82,-1141.87 459.31,-1140.96"/>
<polygon fill="black" stroke="black" points="458.97,-1137.46 448.95,-1140.92 458.94,-1144.45 458.97,-1137.46"/>
</g>
<!-- 55&#45;&gt;24 -->
<g id="edge138" class="edge">
<title>55&#45;&gt;24</title>
<path fill="none" stroke="black" d="M1875.96,-1770.21C1889.4,-1690.76 1944,-1350.59 1944,-1069.38 1944,-1069.38 1944,-1069.38 1944,-427.08 1944,-358.43 1955.7,-335.2 1925,-273.79 1923.12,-270.03 1888.67,-237.39 1864.21,-214.47"/>
<polygon fill="black" stroke="black" points="1866.37,-211.7 1856.68,-207.42 1861.59,-216.81 1866.37,-211.7"/>
</g>
<!-- 55&#45;&gt;43 -->
<g id="edge136" class="edge">
<title>55&#45;&gt;43</title>
<path fill="none" stroke="black" d="M1844.72,-1778.81C1765.04,-1754.69 1538.44,-1686.08 1445.03,-1657.8"/>
<polygon fill="black" stroke="black" points="1445.94,-1654.42 1435.36,-1654.87 1443.92,-1661.12 1445.94,-1654.42"/>
</g>
<!-- 56 -->
<g id="node71" class="node">
<title>56</title>
<ellipse fill="none" stroke="red" cx="1885" cy="-2100.72" rx="37.89" ry="18"/>
<text text-anchor="middle" x="1885" y="-2097.02" font-family="Times New Roman,serif" font-size="14.00">model6</text>
</g>
<!-- 56&#45;&gt;39 -->
<g id="edge142" class="edge">
<title>56&#45;&gt;39</title>
<path fill="none" stroke="black" d="M1885,-2082.42C1885,-2068.59 1885,-2048.94 1885,-2032.94"/>
<polygon fill="black" stroke="black" points="1888.5,-2032.57 1885,-2022.57 1881.5,-2032.57 1888.5,-2032.57"/>
</g>
<!-- 60 -->
<g id="node72" class="node">
<title>60</title>
<ellipse fill="none" stroke="red" cx="1234" cy="-1716.38" rx="38.19" ry="18"/>
<text text-anchor="middle" x="1234" y="-1712.68" font-family="Times New Roman,serif" font-size="14.00">device0</text>
</g>
<!-- 60&#45;&gt;70 -->
<g id="edge156" class="edge">
<title>60&#45;&gt;70</title>
<path fill="none" stroke="black" d="M1201.7,-1706.44C1155.21,-1693.58 1069.57,-1669.88 1019.74,-1656.1"/>
<polygon fill="black" stroke="black" points="1020.55,-1652.69 1009.98,-1653.39 1018.68,-1659.43 1020.55,-1652.69"/>
</g>
<!-- 60&#45;&gt;58 -->
<g id="edge155" class="edge">
<title>60&#45;&gt;58</title>
<path fill="none" stroke="black" d="M1234,-1698.23C1234,-1661.21 1234,-1573.56 1234,-1528.76"/>
<polygon fill="black" stroke="black" points="1237.5,-1528.61 1234,-1518.61 1230.5,-1528.61 1237.5,-1528.61"/>
</g>
<!-- 60&#45;&gt;43 -->
<g id="edge154" class="edge">
<title>60&#45;&gt;43</title>
<path fill="none" stroke="black" d="M1262.07,-1703.82C1290.7,-1692.03 1335.28,-1673.67 1366.83,-1660.68"/>
<polygon fill="black" stroke="black" points="1368.25,-1663.88 1376.17,-1656.84 1365.59,-1657.41 1368.25,-1663.88"/>
</g>
<!-- 61 -->
<g id="node73" class="node">
<title>61</title>
<ellipse fill="none" stroke="red" cx="462" cy="-1788.38" rx="95.58" ry="18"/>
<text text-anchor="middle" x="462" y="-1784.68" font-family="Times New Roman,serif" font-size="14.00">executionEnvironment1</text>
</g>
<!-- 61&#45;&gt;2 -->
<g id="edge157" class="edge">
<title>61&#45;&gt;2</title>
<path fill="none" stroke="black" d="M452.05,-1770.08C437.99,-1743.96 414,-1692.48 414,-1645.38 414,-1645.38 414,-1645.38 414,-1427.38 414,-1320.33 487.38,-1300.7 475,-1194.38 471.2,-1161.72 481.32,-1145.55 458,-1122.38 407.22,-1071.92 347,-1141.23 301,-1086.38 159.08,-917.15 286.59,-810.68 276,-590.08 264.95,-359.88 95.45,-239.26 254,-72 284.97,-39.32 926.83,-24.65 1160.16,-20.39"/>
<polygon fill="black" stroke="black" points="1160.35,-23.88 1170.29,-20.2 1160.23,-16.89 1160.35,-23.88"/>
</g>
<!-- 61&#45;&gt;14 -->
<g id="edge159" class="edge">
<title>61&#45;&gt;14</title>
<path fill="none" stroke="black" d="M488.73,-1770.96C504.16,-1761.49 523.77,-1749.44 540.49,-1739.18"/>
<polygon fill="black" stroke="black" points="542.75,-1741.9 549.44,-1733.69 539.09,-1735.94 542.75,-1741.9"/>
</g>
<!-- 61&#45;&gt;17 -->
<g id="edge161" class="edge">
<title>61&#45;&gt;17</title>
<path fill="none" stroke="black" d="M460.02,-1770.35C457.11,-1743.73 452,-1690.6 452,-1645.38 452,-1645.38 452,-1645.38 452,-1427.38 452,-1338.44 571.11,-1304.81 647.47,-1292.38"/>
<polygon fill="black" stroke="black" points="648.13,-1295.82 657.48,-1290.83 647.06,-1288.9 648.13,-1295.82"/>
</g>
<!-- 61&#45;&gt;64 -->
<g id="edge162" class="edge">
<title>61&#45;&gt;64</title>
<path fill="none" stroke="black" d="M427.04,-1771.58C352.78,-1735.34 186,-1638.69 186,-1501.38 186,-1501.38 186,-1501.38 186,-1283.38 186,-1057.88 278,-1016.55 335,-798.38 357.32,-712.96 369.62,-483.27 419,-410.08 434.93,-386.48 448.73,-390.5 472,-374.08 533.67,-330.59 540.48,-305.41 609,-273.79 676.38,-242.7 1178,-134.14 1333.9,-100.81"/>
<polygon fill="black" stroke="black" points="1335.04,-104.15 1344.09,-98.63 1333.58,-97.3 1335.04,-104.15"/>
</g>
<!-- 61&#45;&gt;42 -->
<g id="edge158" class="edge">
<title>61&#45;&gt;42</title>
<path fill="none" stroke="black" d="M435.14,-1770.94C422.46,-1761.77 408.31,-1749.2 400,-1734.38 296.94,-1550.65 395.94,-1464.72 325,-1266.38 318.76,-1248.93 308.83,-1248.26 304,-1230.38 299.82,-1214.93 295.69,-1208.05 304,-1194.38 316.31,-1174.11 339.16,-1161.24 360.12,-1153.27"/>
<polygon fill="black" stroke="black" points="361.3,-1156.56 369.57,-1149.94 358.98,-1149.96 361.3,-1156.56"/>
</g>
<!-- 61&#45;&gt;18 -->
<g id="edge160" class="edge">
<title>61&#45;&gt;18</title>
<path fill="none" stroke="black" d="M408.89,-1773.29C359.34,-1760.16 286.35,-1740.8 240.53,-1728.65"/>
<polygon fill="black" stroke="black" points="241.19,-1725.21 230.63,-1726.03 239.4,-1731.97 241.19,-1725.21"/>
</g>
</g>
</svg>
