<?xml version="1.0" encoding="UTF-8" standalone="no"?>
<!DOCTYPE svg PUBLIC "-//W3C//DTD SVG 1.1//EN"
 "http://www.w3.org/Graphics/SVG/1.1/DTD/svg11.dtd">
<!-- Generated by graphviz version 2.49.3 (20211023.0002)
 -->
<!-- Title: test Pages: 1 -->
<svg width="2474pt" height="2851pt"
 viewBox="0.00 0.00 2474.15 2851.43" xmlns="http://www.w3.org/2000/svg" xmlns:xlink="http://www.w3.org/1999/xlink">
<g id="graph0" class="graph" transform="scale(1 1) rotate(0) translate(4 2847.43)">
<title>test</title>
<polygon fill="white" stroke="transparent" points="-4,4 -4,-2847.43 2470.15,-2847.43 2470.15,4 -4,4"/>
<!-- 0 -->
<g id="node1" class="node">
<title>0</title>
<ellipse fill="none" stroke="black" cx="1963" cy="-2677.79" rx="95.58" ry="18"/>
<text text-anchor="middle" x="1963" y="-2674.09" font-family="Times New Roman,serif" font-size="14.00">executionEnvironment2</text>
</g>
<!-- 52 -->
<g id="node2" class="node">
<title>52</title>
<ellipse fill="none" stroke="black" cx="2077" cy="-2535.65" rx="55.79" ry="18"/>
<text text-anchor="middle" x="2077" y="-2531.95" font-family="Times New Roman,serif" font-size="14.00">component6</text>
</g>
<!-- 0&#45;&gt;52 -->
<g id="edge1" class="edge">
<title>0&#45;&gt;52</title>
<path fill="none" stroke="black" d="M1972.36,-2659.61C1989.95,-2634.75 2027.23,-2588.68 2052.35,-2560.53"/>
<polygon fill="black" stroke="black" points="2054.96,-2562.86 2059.08,-2553.1 2049.77,-2558.16 2054.96,-2562.86"/>
</g>
<!-- 52&#45;&gt;0 -->
<g id="edge137" class="edge">
<title>52&#45;&gt;0</title>
<path fill="none" stroke="black" d="M2067.79,-2553.61C2050.37,-2578.27 2013.28,-2624.14 1988.1,-2652.41"/>
<polygon fill="black" stroke="black" points="1985.45,-2650.12 1981.34,-2659.89 1990.64,-2654.82 1985.45,-2650.12"/>
</g>
<!-- 52&#45;&gt;52 -->
<g id="edge135" class="edge">
<title>52&#45;&gt;52</title>
<path fill="none" stroke="black" d="M2100.46,-2552.03C2124.33,-2561.67 2150.9,-2556.21 2150.9,-2535.65 2150.9,-2517.82 2130.92,-2511.34 2110.04,-2516.22"/>
<polygon fill="black" stroke="black" points="2108.93,-2512.9 2100.46,-2519.26 2111.05,-2519.57 2108.93,-2512.9"/>
</g>
<!-- 65 -->
<g id="node22" class="node">
<title>65</title>
<ellipse fill="none" stroke="black" cx="1995" cy="-2421.75" rx="55.79" ry="18"/>
<text text-anchor="middle" x="1995" y="-2418.05" font-family="Times New Roman,serif" font-size="14.00">component1</text>
</g>
<!-- 52&#45;&gt;65 -->
<g id="edge136" class="edge">
<title>52&#45;&gt;65</title>
<path fill="none" stroke="black" d="M2059.95,-2518.14C2044.38,-2499.73 2022.13,-2469.74 2007.95,-2448.3"/>
<polygon fill="black" stroke="black" points="2010.77,-2446.21 2002.41,-2439.7 2004.88,-2450 2010.77,-2446.21"/>
</g>
<!-- 1 -->
<g id="node3" class="node">
<title>1</title>
<ellipse fill="none" stroke="red" cx="798" cy="-1870.36" rx="38.19" ry="18"/>
<text text-anchor="middle" x="798" y="-1866.66" font-family="Times New Roman,serif" font-size="14.00">device6</text>
</g>
<!-- 49 -->
<g id="node4" class="node">
<title>49</title>
<ellipse fill="none" stroke="black" cx="728" cy="-1486.01" rx="38.21" ry="38.21"/>
<ellipse fill="none" stroke="black" cx="728" cy="-1486.01" rx="42.19" ry="42.19"/>
<text text-anchor="middle" x="728" y="-1482.31" font-family="Times New Roman,serif" font-size="14.00">device9</text>
</g>
<!-- 1&#45;&gt;49 -->
<g id="edge2" class="edge">
<title>1&#45;&gt;49</title>
<path fill="none" stroke="black" d="M793.07,-1852.27C790.19,-1841.93 786.62,-1828.45 784,-1816.36 762.82,-1718.57 744.75,-1603.01 735.22,-1538.04"/>
<polygon fill="black" stroke="black" points="738.67,-1537.45 733.77,-1528.06 731.75,-1538.46 738.67,-1537.45"/>
</g>
<!-- 22 -->
<g id="node5" class="node">
<title>22</title>
<ellipse fill="none" stroke="black" cx="352" cy="-1582.36" rx="95.58" ry="18"/>
<text text-anchor="middle" x="352" y="-1578.66" font-family="Times New Roman,serif" font-size="14.00">executionEnvironment3</text>
</g>
<!-- 1&#45;&gt;22 -->
<g id="edge3" class="edge">
<title>1&#45;&gt;22</title>
<path fill="none" stroke="black" d="M760.28,-1866.84C714.11,-1862.35 634.81,-1850.01 576,-1816.36 481.78,-1762.45 402.04,-1656.96 368.7,-1608.63"/>
<polygon fill="black" stroke="black" points="371.55,-1606.59 363.03,-1600.3 365.77,-1610.53 371.55,-1606.59"/>
</g>
<!-- 30 -->
<g id="node6" class="node">
<title>30</title>
<path fill="none" stroke="red" d="M1343,-1813.09C1343,-1814.89 1330.9,-1816.36 1316,-1816.36 1301.1,-1816.36 1289,-1814.89 1289,-1813.09 1289,-1813.09 1289,-1783.63 1289,-1783.63 1289,-1781.83 1301.1,-1780.36 1316,-1780.36 1330.9,-1780.36 1343,-1781.83 1343,-1783.63 1343,-1783.63 1343,-1813.09 1343,-1813.09"/>
<path fill="none" stroke="red" d="M1343,-1813.09C1343,-1811.28 1330.9,-1809.81 1316,-1809.81 1301.1,-1809.81 1289,-1811.28 1289,-1813.09"/>
<text text-anchor="middle" x="1316" y="-1794.66" font-family="Times New Roman,serif" font-size="14.00">node1</text>
</g>
<!-- 1&#45;&gt;30 -->
<g id="edge4" class="edge">
<title>1&#45;&gt;30</title>
<path fill="none" stroke="black" d="M834.42,-1864.44C929.2,-1851.63 1182.79,-1817.36 1278.62,-1804.41"/>
<polygon fill="black" stroke="black" points="1279.28,-1807.85 1288.72,-1803.05 1278.34,-1800.92 1279.28,-1807.85"/>
</g>
<!-- 48 -->
<g id="node7" class="node">
<title>48</title>
<ellipse fill="none" stroke="black" cx="636" cy="-1389.67" rx="95.58" ry="18"/>
<text text-anchor="middle" x="636" y="-1385.97" font-family="Times New Roman,serif" font-size="14.00">executionEnvironment5</text>
</g>
<!-- 1&#45;&gt;48 -->
<g id="edge5" class="edge">
<title>1&#45;&gt;48</title>
<path fill="none" stroke="black" d="M767.15,-1859.48C722.79,-1843.39 642.62,-1806.9 609,-1744.36 601.42,-1730.27 601.99,-1722.74 609,-1708.36 620.37,-1685.02 643.63,-1695.7 655,-1672.36 696.66,-1586.85 664.24,-1469.11 646.11,-1417.14"/>
<polygon fill="black" stroke="black" points="649.38,-1415.88 642.71,-1407.65 642.79,-1418.25 649.38,-1415.88"/>
</g>
<!-- 16 -->
<g id="node8" class="node">
<title>16</title>
<path fill="none" stroke="red" d="M2038.5,-836.1C2038.5,-837.91 2017.66,-839.37 1992,-839.37 1966.34,-839.37 1945.5,-837.91 1945.5,-836.1 1945.5,-836.1 1945.5,-806.65 1945.5,-806.65 1945.5,-804.84 1966.34,-803.37 1992,-803.37 2017.66,-803.37 2038.5,-804.84 2038.5,-806.65 2038.5,-806.65 2038.5,-836.1 2038.5,-836.1"/>
<path fill="none" stroke="red" d="M2038.5,-836.1C2038.5,-834.3 2017.66,-832.83 1992,-832.83 1966.34,-832.83 1945.5,-834.3 1945.5,-836.1"/>
<text text-anchor="middle" x="1992" y="-817.67" font-family="Times New Roman,serif" font-size="14.00">component10</text>
</g>
<!-- 1&#45;&gt;16 -->
<g id="edge6" class="edge">
<title>1&#45;&gt;16</title>
<path fill="none" stroke="black" d="M802.61,-1852.3C808.5,-1833.06 820.23,-1801.68 839,-1780.36 938.75,-1667.07 1016.26,-1702.93 1127,-1600.36 1205.05,-1528.07 1229.44,-1506.42 1269,-1407.67 1297.71,-1336.01 1253.52,-1302.86 1291,-1235.37 1364.77,-1102.54 1426.79,-1099.33 1556,-1019.37 1685.56,-939.2 1853.3,-872.78 1937.99,-841.56"/>
<polygon fill="black" stroke="black" points="1939.22,-844.84 1947.4,-838.11 1936.81,-838.27 1939.22,-844.84"/>
</g>
<!-- 29 -->
<g id="node9" class="node">
<title>29</title>
<ellipse fill="none" stroke="black" cx="1598" cy="-1037.37" rx="33.29" ry="18"/>
<text text-anchor="middle" x="1598" y="-1033.67" font-family="Times New Roman,serif" font-size="14.00">node5</text>
</g>
<!-- 1&#45;&gt;29 -->
<g id="edge7" class="edge">
<title>1&#45;&gt;29</title>
<path fill="none" stroke="black" d="M809.64,-1853.06C825.7,-1832.04 856.8,-1796.3 893,-1780.36 1083.92,-1696.29 1172.96,-1834.69 1361,-1744.36 1479.48,-1687.45 1492.21,-1639.1 1563,-1528.36 1594.18,-1479.58 1600.91,-1464.49 1612,-1407.67 1615.07,-1391.96 1617.19,-1386.8 1612,-1371.67 1605.42,-1352.49 1590.58,-1354.84 1584,-1335.67 1548.76,-1232.97 1570.02,-1199.05 1584,-1091.37 1585.13,-1082.65 1587.27,-1073.32 1589.54,-1064.95"/>
<polygon fill="black" stroke="black" points="1592.91,-1065.92 1592.32,-1055.34 1586.18,-1063.97 1592.91,-1065.92"/>
</g>
<!-- 49&#45;&gt;48 -->
<g id="edge128" class="edge">
<title>49&#45;&gt;48</title>
<path fill="none" stroke="black" d="M695.73,-1458.23C681.78,-1444.79 666.05,-1428.61 654.14,-1415.45"/>
<polygon fill="black" stroke="black" points="656.53,-1412.86 647.28,-1407.7 651.29,-1417.51 656.53,-1412.86"/>
</g>
<!-- 2 -->
<g id="node10" class="node">
<title>2</title>
<ellipse fill="none" stroke="red" cx="1085" cy="-1582.36" rx="33.29" ry="18"/>
<text text-anchor="middle" x="1085" y="-1578.66" font-family="Times New Roman,serif" font-size="14.00">node4</text>
</g>
<!-- 49&#45;&gt;2 -->
<g id="edge127" class="edge">
<title>49&#45;&gt;2</title>
<path fill="none" stroke="black" d="M769.03,-1496.72C838.81,-1514.32 979.23,-1551.41 1046.94,-1570.09"/>
<polygon fill="black" stroke="black" points="1046.2,-1573.52 1056.77,-1572.82 1048.07,-1566.78 1046.2,-1573.52"/>
</g>
<!-- 24 -->
<g id="node11" class="node">
<title>24</title>
<ellipse fill="none" stroke="black" cx="1108" cy="-1870.36" rx="33.29" ry="18"/>
<text text-anchor="middle" x="1108" y="-1866.66" font-family="Times New Roman,serif" font-size="14.00">node0</text>
</g>
<!-- 30&#45;&gt;24 -->
<g id="edge78" class="edge">
<title>30&#45;&gt;24</title>
<path fill="none" stroke="black" d="M1288.77,-1810.22C1252.34,-1823.24 1187.9,-1844.93 1146.53,-1858.12"/>
<polygon fill="black" stroke="black" points="1145.27,-1854.84 1136.79,-1861.19 1147.38,-1861.52 1145.27,-1854.84"/>
</g>
<!-- 26 -->
<g id="node13" class="node">
<title>26</title>
<ellipse fill="none" stroke="black" cx="878" cy="-451.83" rx="33.29" ry="18"/>
<text text-anchor="middle" x="878" y="-448.13" font-family="Times New Roman,serif" font-size="14.00">node3</text>
</g>
<!-- 30&#45;&gt;26 -->
<g id="edge81" class="edge">
<title>30&#45;&gt;26</title>
<path fill="none" stroke="black" d="M1328.31,-1779.89C1336.81,-1770.45 1347.01,-1757.96 1352,-1744.36 1357.52,-1729.34 1357,-1723.56 1352,-1708.36 1300.06,-1550.57 1196.35,-1559.96 1130,-1407.67 1059.86,-1246.69 1100.97,-1189.38 1057,-1019.37 1002.36,-808.13 910.43,-561.14 884.51,-480.09"/>
<polygon fill="black" stroke="black" points="887.75,-478.7 881.43,-470.2 881.06,-480.79 887.75,-478.7"/>
</g>
<!-- 46 -->
<g id="node43" class="node">
<title>46</title>
<ellipse fill="none" stroke="black" cx="1992" cy="-893.37" rx="44.39" ry="18"/>
<text text-anchor="middle" x="1992" y="-889.67" font-family="Times New Roman,serif" font-size="14.00">artifact11</text>
</g>
<!-- 30&#45;&gt;46 -->
<g id="edge79" class="edge">
<title>30&#45;&gt;46</title>
<path fill="none" stroke="black" d="M1343.17,-1787.12C1369.36,-1778.04 1409.17,-1763.28 1441,-1744.36 1562.73,-1671.98 1858.69,-1458.03 1930,-1335.67 1964.87,-1275.83 1958,-1251.63 1958,-1182.37 1958,-1182.37 1958,-1182.37 1958,-1036.37 1958,-995.58 1968.13,-949.17 1977.82,-920.83"/>
<polygon fill="black" stroke="black" points="1981.18,-921.85 1981.35,-911.25 1974.61,-919.43 1981.18,-921.85"/>
</g>
<!-- 45 -->
<g id="node60" class="node">
<title>45</title>
<ellipse fill="none" stroke="black" cx="1256" cy="-1726.36" rx="95.58" ry="18"/>
<text text-anchor="middle" x="1256" y="-1722.66" font-family="Times New Roman,serif" font-size="14.00">executionEnvironment8</text>
</g>
<!-- 30&#45;&gt;45 -->
<g id="edge80" class="edge">
<title>30&#45;&gt;45</title>
<path fill="none" stroke="black" d="M1295.94,-1780.77C1287.72,-1772.27 1278.48,-1761.73 1270.86,-1752.27"/>
<polygon fill="black" stroke="black" points="1273.56,-1750.05 1264.65,-1744.32 1268.04,-1754.35 1273.56,-1750.05"/>
</g>
<!-- 48&#45;&gt;49 -->
<g id="edge126" class="edge">
<title>48&#45;&gt;49</title>
<path fill="none" stroke="black" d="M657.56,-1407.35C668.8,-1417.67 682.65,-1431.4 695.13,-1444.45"/>
<polygon fill="black" stroke="black" points="692.88,-1447.16 702.29,-1452.02 697.96,-1442.35 692.88,-1447.16"/>
</g>
<!-- 16&#45;&gt;46 -->
<g id="edge46" class="edge">
<title>16&#45;&gt;46</title>
<path fill="none" stroke="black" d="M1997.91,-839.65C1998.71,-847.4 1998.94,-856.74 1998.59,-865.38"/>
<polygon fill="black" stroke="black" points="1995.09,-865.21 1997.88,-875.43 2002.08,-865.7 1995.09,-865.21"/>
</g>
<!-- 64 -->
<g id="node45" class="node">
<title>64</title>
<ellipse fill="none" stroke="black" cx="2013" cy="-749.37" rx="40.09" ry="18"/>
<text text-anchor="middle" x="2013" y="-745.67" font-family="Times New Roman,serif" font-size="14.00">artifact4</text>
</g>
<!-- 16&#45;&gt;64 -->
<g id="edge47" class="edge">
<title>16&#45;&gt;64</title>
<path fill="none" stroke="black" d="M1991.28,-803.07C1992.85,-795.07 1995.54,-785.39 1998.6,-776.53"/>
<polygon fill="black" stroke="black" points="2001.94,-777.59 2002.17,-767 1995.38,-775.13 2001.94,-777.59"/>
</g>
<!-- 70 -->
<g id="node29" class="node">
<title>70</title>
<ellipse fill="none" stroke="black" cx="1659" cy="-1109.37" rx="33.29" ry="18"/>
<text text-anchor="middle" x="1659" y="-1105.67" font-family="Times New Roman,serif" font-size="14.00">node2</text>
</g>
<!-- 29&#45;&gt;70 -->
<g id="edge77" class="edge">
<title>29&#45;&gt;70</title>
<path fill="none" stroke="black" d="M1616.3,-1052.95C1625.23,-1061.88 1635.68,-1073.55 1644.12,-1083.87"/>
<polygon fill="black" stroke="black" points="1641.43,-1086.12 1650.38,-1091.79 1646.92,-1081.77 1641.43,-1086.12"/>
</g>
<!-- 2&#45;&gt;49 -->
<g id="edge9" class="edge">
<title>2&#45;&gt;49</title>
<path fill="none" stroke="black" d="M1055.01,-1574.42C993.62,-1559.13 853.61,-1522.24 778.19,-1501.61"/>
<polygon fill="black" stroke="black" points="779,-1498.2 768.43,-1498.93 777.15,-1504.95 779,-1498.2"/>
</g>
<!-- 2&#45;&gt;24 -->
<g id="edge8" class="edge">
<title>2&#45;&gt;24</title>
<path fill="none" stroke="black" d="M1089.77,-1600.3C1097.79,-1647.98 1108.95,-1783.61 1109.98,-1842.04"/>
<polygon fill="black" stroke="black" points="1106.48,-1842.35 1110.04,-1852.33 1113.48,-1842.3 1106.48,-1842.35"/>
</g>
<!-- 68 -->
<g id="node12" class="node">
<title>68</title>
<ellipse fill="none" stroke="red" cx="901" cy="-1654.36" rx="33.29" ry="18"/>
<text text-anchor="middle" x="901" y="-1650.66" font-family="Times New Roman,serif" font-size="14.00">node8</text>
</g>
<!-- 2&#45;&gt;68 -->
<g id="edge10" class="edge">
<title>2&#45;&gt;68</title>
<path fill="none" stroke="black" d="M1060.62,-1594.58C1029.4,-1607.26 975.32,-1627.86 938.78,-1641"/>
<polygon fill="black" stroke="black" points="937.22,-1637.84 928.98,-1644.49 939.57,-1644.43 937.22,-1637.84"/>
</g>
<!-- 2&#45;&gt;26 -->
<g id="edge11" class="edge">
<title>2&#45;&gt;26</title>
<path fill="none" stroke="black" d="M1081.17,-1564.46C1072.38,-1495.22 1058.64,-1233.6 1018,-1163.37 974.7,-1088.56 869,-1124.81 869,-1038.37 869,-1038.37 869,-1038.37 869,-676.37 869,-605.33 869,-521.58 872.29,-479.63"/>
<polygon fill="black" stroke="black" points="875.78,-479.94 873.23,-469.66 868.81,-479.29 875.78,-479.94"/>
</g>
<!-- 53 -->
<g id="node14" class="node">
<title>53</title>
<ellipse fill="none" stroke="black" cx="1374" cy="-1486.01" rx="37.89" ry="18"/>
<text text-anchor="middle" x="1374" y="-1482.31" font-family="Times New Roman,serif" font-size="14.00">node11</text>
</g>
<!-- 2&#45;&gt;53 -->
<g id="edge12" class="edge">
<title>2&#45;&gt;53</title>
<path fill="none" stroke="black" d="M1111.3,-1571.35C1161.88,-1553.83 1272.5,-1517.69 1332.88,-1498.91"/>
<polygon fill="black" stroke="black" points="1333.96,-1502.24 1342.48,-1495.95 1331.89,-1495.56 1333.96,-1502.24"/>
</g>
<!-- 24&#45;&gt;30 -->
<g id="edge61" class="edge">
<title>24&#45;&gt;30</title>
<path fill="none" stroke="black" d="M1134.16,-1858.88C1170.87,-1845.74 1237.45,-1823.33 1279.14,-1810.07"/>
<polygon fill="black" stroke="black" points="1280.43,-1813.34 1288.92,-1806.99 1278.33,-1806.66 1280.43,-1813.34"/>
</g>
<!-- 24&#45;&gt;2 -->
<g id="edge59" class="edge">
<title>24&#45;&gt;2</title>
<path fill="none" stroke="black" d="M1103.22,-1852.33C1095.21,-1804.65 1084.09,-1669.54 1083.03,-1610.99"/>
<polygon fill="black" stroke="black" points="1086.53,-1610.64 1082.96,-1600.67 1079.53,-1610.69 1086.53,-1610.64"/>
</g>
<!-- 24&#45;&gt;68 -->
<g id="edge60" class="edge">
<title>24&#45;&gt;68</title>
<path fill="none" stroke="black" d="M1090.5,-1854.99C1051.61,-1818.82 959.36,-1723.73 919.54,-1679.11"/>
<polygon fill="black" stroke="black" points="921.98,-1676.59 912.74,-1671.4 916.73,-1681.21 921.98,-1676.59"/>
</g>
<!-- 24&#45;&gt;70 -->
<g id="edge62" class="edge">
<title>24&#45;&gt;70</title>
<path fill="none" stroke="black" d="M1135.21,-1859.75C1144.63,-1857.24 1155.2,-1854.61 1165,-1852.36 1337.79,-1812.66 1425.27,-1871.33 1549,-1744.36 1669.36,-1620.85 1659.31,-1544.11 1657,-1371.67 1655.86,-1286.21 1652.61,-1185.08 1654.55,-1137.58"/>
<polygon fill="black" stroke="black" points="1658.05,-1137.67 1655.1,-1127.49 1651.06,-1137.29 1658.05,-1137.67"/>
</g>
<!-- 31 -->
<g id="node54" class="node">
<title>31</title>
<ellipse fill="none" stroke="black" cx="947" cy="-1798.36" rx="44.69" ry="18"/>
<text text-anchor="middle" x="947" y="-1794.66" font-family="Times New Roman,serif" font-size="14.00">package6</text>
</g>
<!-- 24&#45;&gt;31 -->
<g id="edge63" class="edge">
<title>24&#45;&gt;31</title>
<path fill="none" stroke="black" d="M1082.84,-1858.42C1056.83,-1847.11 1015.86,-1829.3 985.72,-1816.19"/>
<polygon fill="black" stroke="black" points="986.91,-1812.9 976.34,-1812.12 984.12,-1819.31 986.91,-1812.9"/>
</g>
<!-- 50 -->
<g id="node55" class="node">
<title>50</title>
<ellipse fill="none" stroke="red" cx="2276" cy="-1942.36" rx="46.29" ry="18"/>
<text text-anchor="middle" x="2276" y="-1938.66" font-family="Times New Roman,serif" font-size="14.00">interface9</text>
</g>
<!-- 24&#45;&gt;50 -->
<g id="edge64" class="edge">
<title>24&#45;&gt;50</title>
<path fill="none" stroke="black" d="M1137.97,-1878.25C1151.78,-1881.91 1168.14,-1886.11 1183,-1888.36 1386.63,-1919.15 2025.75,-1935.61 2219.71,-1940.09"/>
<polygon fill="black" stroke="black" points="2219.88,-1943.59 2229.96,-1940.32 2220.04,-1936.6 2219.88,-1943.59"/>
</g>
<!-- 68&#45;&gt;2 -->
<g id="edge180" class="edge">
<title>68&#45;&gt;2</title>
<path fill="none" stroke="black" d="M925.45,-1642.11C956.67,-1629.43 1010.65,-1608.87 1047.16,-1595.74"/>
<polygon fill="black" stroke="black" points="1048.72,-1598.9 1056.96,-1592.25 1046.37,-1592.31 1048.72,-1598.9"/>
</g>
<!-- 68&#45;&gt;24 -->
<g id="edge178" class="edge">
<title>68&#45;&gt;24</title>
<path fill="none" stroke="black" d="M918.69,-1669.91C957.69,-1706.21 1049.66,-1801.01 1089.42,-1845.56"/>
<polygon fill="black" stroke="black" points="1086.98,-1848.09 1096.21,-1853.28 1092.23,-1843.46 1086.98,-1848.09"/>
</g>
<!-- 13 -->
<g id="node19" class="node">
<title>13</title>
<ellipse fill="none" stroke="black" cx="844" cy="-1285.52" rx="38.19" ry="18"/>
<text text-anchor="middle" x="844" y="-1281.82" font-family="Times New Roman,serif" font-size="14.00">device7</text>
</g>
<!-- 68&#45;&gt;13 -->
<g id="edge185" class="edge">
<title>68&#45;&gt;13</title>
<path fill="none" stroke="black" d="M895.26,-1636.16C881.48,-1577.55 851.39,-1385.33 844.48,-1313.72"/>
<polygon fill="black" stroke="black" points="847.96,-1313.34 843.6,-1303.68 840.98,-1313.95 847.96,-1313.34"/>
</g>
<!-- 7 -->
<g id="node25" class="node">
<title>7</title>
<ellipse fill="none" stroke="black" cx="416" cy="-451.83" rx="95.58" ry="18"/>
<text text-anchor="middle" x="416" y="-448.13" font-family="Times New Roman,serif" font-size="14.00">executionEnvironment1</text>
</g>
<!-- 68&#45;&gt;7 -->
<g id="edge179" class="edge">
<title>68&#45;&gt;7</title>
<path fill="none" stroke="black" d="M874.73,-1643.19C830.23,-1623.29 738.94,-1576.88 668,-1528.36 598.51,-1480.83 585.16,-1463.34 522,-1407.67 421.81,-1319.35 114,-1099.93 114,-966.37 114,-966.37 114,-966.37 114,-676.37 114,-560.59 260.41,-496.8 349.42,-469.35"/>
<polygon fill="black" stroke="black" points="350.61,-472.64 359.18,-466.41 348.59,-465.94 350.61,-472.64"/>
</g>
<!-- 10 -->
<g id="node35" class="node">
<title>10</title>
<ellipse fill="none" stroke="black" cx="2243" cy="-605.37" rx="55.79" ry="18"/>
<text text-anchor="middle" x="2243" y="-601.67" font-family="Times New Roman,serif" font-size="14.00">component4</text>
</g>
<!-- 68&#45;&gt;10 -->
<g id="edge181" class="edge">
<title>68&#45;&gt;10</title>
<path fill="none" stroke="black" d="M934.21,-1654.1C1079.67,-1655.15 1666.14,-1638.81 1980,-1335.67 2163.08,-1158.84 2234,-1076.91 2234,-822.37 2234,-822.37 2234,-822.37 2234,-748.37 2234,-708.37 2234,-662.03 2236.29,-633.45"/>
<polygon fill="black" stroke="black" points="2239.78,-633.72 2237.29,-623.42 2232.82,-633.03 2239.78,-633.72"/>
</g>
<!-- 59 -->
<g id="node51" class="node">
<title>59</title>
<ellipse fill="none" stroke="black" cx="958" cy="-1582.36" rx="38.19" ry="18"/>
<text text-anchor="middle" x="958" y="-1578.66" font-family="Times New Roman,serif" font-size="14.00">device1</text>
</g>
<!-- 68&#45;&gt;59 -->
<g id="edge184" class="edge">
<title>68&#45;&gt;59</title>
<path fill="none" stroke="black" d="M908.67,-1636.77C915.15,-1627.58 924.38,-1616.03 933.19,-1606.02"/>
<polygon fill="black" stroke="black" points="935.97,-1608.16 940.09,-1598.4 930.79,-1603.46 935.97,-1608.16"/>
</g>
<!-- 55 -->
<g id="node56" class="node">
<title>55</title>
<ellipse fill="none" stroke="black" cx="815" cy="-298.29" rx="95.58" ry="18"/>
<text text-anchor="middle" x="815" y="-294.59" font-family="Times New Roman,serif" font-size="14.00">executionEnvironment7</text>
</g>
<!-- 68&#45;&gt;55 -->
<g id="edge182" class="edge">
<title>68&#45;&gt;55</title>
<path fill="none" stroke="black" d="M895.53,-1636.48C877.4,-1581.48 817.93,-1408.82 774,-1371.67 735.05,-1338.72 694.89,-1377.01 665,-1335.67 638.89,-1299.54 663.43,-1279.92 665,-1235.37 669.22,-1115.6 684,-1086.23 684,-966.37 684,-966.37 684,-966.37 684,-892.37 684,-668.67 773.97,-408.43 804.79,-325.84"/>
<polygon fill="black" stroke="black" points="808.07,-327.04 808.32,-316.45 801.52,-324.58 808.07,-327.04"/>
</g>
<!-- 68&#45;&gt;45 -->
<g id="edge183" class="edge">
<title>68&#45;&gt;45</title>
<path fill="none" stroke="black" d="M932.05,-1660.73C988.35,-1671.21 1108.2,-1694.72 1185.33,-1710.31"/>
<polygon fill="black" stroke="black" points="1184.95,-1713.8 1195.45,-1712.36 1186.34,-1706.94 1184.95,-1713.8"/>
</g>
<!-- 26&#45;&gt;30 -->
<g id="edge68" class="edge">
<title>26&#45;&gt;30</title>
<path fill="none" stroke="black" d="M887.57,-469.27C919.21,-536.53 1017.65,-797.65 1075,-1019.37 1118.97,-1189.38 1077.86,-1246.69 1148,-1407.67 1214.35,-1559.96 1318.06,-1550.57 1370,-1708.36 1375,-1723.56 1375.52,-1729.34 1370,-1744.36 1365.88,-1755.58 1358.22,-1766.04 1349.85,-1774.67"/>
<polygon fill="black" stroke="black" points="1347.23,-1772.32 1342.38,-1781.74 1352.05,-1777.4 1347.23,-1772.32"/>
</g>
<!-- 26&#45;&gt;2 -->
<g id="edge67" class="edge">
<title>26&#45;&gt;2</title>
<path fill="none" stroke="black" d="M882.77,-469.66C887,-506.91 887,-599.14 887,-676.37 887,-1038.37 887,-1038.37 887,-1038.37 887,-1124.81 992.7,-1088.56 1036,-1163.37 1074.81,-1230.43 1089.08,-1472 1087.79,-1553.94"/>
<polygon fill="black" stroke="black" points="1084.29,-1553.9 1087.53,-1563.99 1091.29,-1554.08 1084.29,-1553.9"/>
</g>
<!-- 32 -->
<g id="node41" class="node">
<title>32</title>
<ellipse fill="none" stroke="black" cx="1009" cy="-605.37" rx="38.19" ry="18"/>
<text text-anchor="middle" x="1009" y="-601.67" font-family="Times New Roman,serif" font-size="14.00">device8</text>
</g>
<!-- 26&#45;&gt;32 -->
<g id="edge70" class="edge">
<title>26&#45;&gt;32</title>
<path fill="none" stroke="black" d="M888.81,-469.1C898.25,-490.06 912.09,-526.72 934,-551.37 946.33,-565.25 963.15,-576.83 977.82,-585.59"/>
<polygon fill="black" stroke="black" points="976.22,-588.7 986.63,-590.67 979.72,-582.64 976.22,-588.7"/>
</g>
<!-- 26&#45;&gt;55 -->
<g id="edge69" class="edge">
<title>26&#45;&gt;55</title>
<path fill="none" stroke="black" d="M866.89,-434.62C853.28,-408.68 831.74,-357.62 820.87,-326.17"/>
<polygon fill="black" stroke="black" points="824.08,-324.72 817.62,-316.32 817.43,-326.91 824.08,-324.72"/>
</g>
<!-- 53&#45;&gt;2 -->
<g id="edge138" class="edge">
<title>53&#45;&gt;2</title>
<path fill="none" stroke="black" d="M1345.26,-1497.86C1292.89,-1515.94 1182.39,-1552.01 1123.56,-1570.25"/>
<polygon fill="black" stroke="black" points="1122.41,-1566.94 1113.89,-1573.23 1124.47,-1573.63 1122.41,-1566.94"/>
</g>
<!-- 9 -->
<g id="node30" class="node">
<title>9</title>
<ellipse fill="none" stroke="red" cx="1536" cy="-1389.67" rx="50.09" ry="18"/>
<text text-anchor="middle" x="1536" y="-1385.97" font-family="Times New Roman,serif" font-size="14.00">interface10</text>
</g>
<!-- 53&#45;&gt;9 -->
<g id="edge140" class="edge">
<title>53&#45;&gt;9</title>
<path fill="none" stroke="black" d="M1393.92,-1470.48C1420.03,-1454.04 1465.93,-1427.22 1498.57,-1409.26"/>
<polygon fill="black" stroke="black" points="1500.29,-1412.31 1507.4,-1404.45 1496.94,-1406.16 1500.29,-1412.31"/>
</g>
<!-- 17 -->
<g id="node46" class="node">
<title>17</title>
<ellipse fill="none" stroke="black" cx="1392" cy="-1389.67" rx="38.19" ry="18"/>
<text text-anchor="middle" x="1392" y="-1385.97" font-family="Times New Roman,serif" font-size="14.00">device0</text>
</g>
<!-- 53&#45;&gt;17 -->
<g id="edge139" class="edge">
<title>53&#45;&gt;17</title>
<path fill="none" stroke="black" d="M1371.94,-1467.71C1373.1,-1453.57 1376.7,-1433.35 1380.81,-1417.17"/>
<polygon fill="black" stroke="black" points="1384.26,-1417.8 1383.56,-1407.23 1377.52,-1415.93 1384.26,-1417.8"/>
</g>
<!-- 3 -->
<g id="node15" class="node">
<title>3</title>
<ellipse fill="none" stroke="red" cx="953" cy="-2801.73" rx="33.28" ry="33.28"/>
<ellipse fill="none" stroke="red" cx="953" cy="-2801.73" rx="37.29" ry="37.29"/>
<text text-anchor="middle" x="953" y="-2798.03" font-family="Times New Roman,serif" font-size="14.00">node6</text>
</g>
<!-- 3&#45;&gt;0 -->
<g id="edge17" class="edge">
<title>3&#45;&gt;0</title>
<path fill="none" stroke="black" d="M990.02,-2797.29C1095.41,-2787.36 1406.02,-2757.28 1663,-2724.04 1737.81,-2714.36 1822.81,-2701.35 1883.18,-2691.76"/>
<polygon fill="black" stroke="black" points="1884.08,-2695.16 1893.41,-2690.13 1882.98,-2688.25 1884.08,-2695.16"/>
</g>
<!-- 3&#45;&gt;22 -->
<g id="edge13" class="edge">
<title>3&#45;&gt;22</title>
<path fill="none" stroke="black" d="M915.87,-2797.3C753.49,-2781.26 114,-2707.3 114,-2536.65 114,-2536.65 114,-2536.65 114,-2013.36 114,-1905.6 228,-1907.12 228,-1799.36 228,-1799.36 228,-1799.36 228,-1725.36 228,-1672.18 277.95,-1629.31 314.44,-1605.08"/>
<polygon fill="black" stroke="black" points="316.41,-1607.97 322.93,-1599.61 312.62,-1602.08 316.41,-1607.97"/>
</g>
<!-- 3&#45;&gt;29 -->
<g id="edge18" class="edge">
<title>3&#45;&gt;29</title>
<path fill="none" stroke="black" d="M990.11,-2797.39C1075.5,-2789.06 1282.84,-2765.07 1338,-2724.04 1537.3,-2575.79 1844,-1975.75 1844,-1727.36 1844,-1727.36 1844,-1727.36 1844,-1581.36 1844,-1450.81 1739.02,-1453.59 1683,-1335.67 1641.33,-1247.95 1641.83,-1221.26 1617,-1127.37 1611.58,-1106.88 1606.62,-1083.43 1603.13,-1065.74"/>
<polygon fill="black" stroke="black" points="1606.5,-1064.7 1601.16,-1055.55 1599.62,-1066.04 1606.5,-1064.7"/>
</g>
<!-- 3&#45;&gt;68 -->
<g id="edge14" class="edge">
<title>3&#45;&gt;68</title>
<path fill="none" stroke="black" d="M920.86,-2782.46C859.57,-2744.96 732,-2652.93 732,-2536.65 732,-2536.65 732,-2536.65 732,-1941.36 732,-1866.16 742.1,-1842.8 784,-1780.36 811.02,-1740.1 851.11,-1700.39 876.64,-1676.88"/>
<polygon fill="black" stroke="black" points="879.03,-1679.44 884.07,-1670.12 874.32,-1674.27 879.03,-1679.44"/>
</g>
<!-- 60 -->
<g id="node16" class="node">
<title>60</title>
<ellipse fill="none" stroke="black" cx="815" cy="-194.15" rx="38.19" ry="18"/>
<text text-anchor="middle" x="815" y="-190.45" font-family="Times New Roman,serif" font-size="14.00">device3</text>
</g>
<!-- 3&#45;&gt;60 -->
<g id="edge15" class="edge">
<title>3&#45;&gt;60</title>
<path fill="none" stroke="black" d="M915.52,-2800.56C781.16,-2799.4 324.91,-2790.54 198,-2724.04 101,-2673.21 38,-2646.16 38,-2536.65 38,-2536.65 38,-2536.65 38,-450.83 38,-296.26 599.86,-219.68 768.01,-200.22"/>
<polygon fill="black" stroke="black" points="768.51,-203.69 778.05,-199.08 767.71,-196.74 768.51,-203.69"/>
</g>
<!-- 14 -->
<g id="node17" class="node">
<title>14</title>
<ellipse fill="none" stroke="red" cx="1085" cy="-451.83" rx="95.58" ry="95.58"/>
<ellipse fill="none" stroke="red" cx="1085" cy="-451.83" rx="99.58" ry="99.58"/>
<text text-anchor="middle" x="1085" y="-448.13" font-family="Times New Roman,serif" font-size="14.00">executionEnvironment0</text>
</g>
<!-- 3&#45;&gt;14 -->
<g id="edge16" class="edge">
<title>3&#45;&gt;14</title>
<path fill="none" stroke="black" d="M985.2,-2782.52C1098.79,-2715.61 1474,-2471.02 1474,-2159.36 1474,-2159.36 1474,-2159.36 1474,-1797.36 1474,-1661.12 1372.74,-1656.69 1327,-1528.36 1297.75,-1446.29 1304.76,-1421.7 1291,-1335.67 1253.29,-1099.99 1279.07,-1034.62 1220,-803.37 1197.72,-716.17 1160.23,-621.12 1130.4,-552.01"/>
<polygon fill="black" stroke="black" points="1133.44,-550.22 1126.25,-542.44 1127.02,-553.01 1133.44,-550.22"/>
</g>
<!-- 60&#45;&gt;60 -->
<g id="edge158" class="edge">
<title>60&#45;&gt;60</title>
<path fill="none" stroke="black" d="M834.05,-209.91C851.94,-218.09 871.35,-212.83 871.35,-194.15 871.35,-178.82 858.29,-172.53 843.72,-175.27"/>
<polygon fill="black" stroke="black" points="842.5,-171.99 834.05,-178.38 844.64,-178.65 842.5,-171.99"/>
</g>
<!-- 42 -->
<g id="node24" class="node">
<title>42</title>
<ellipse fill="none" stroke="black" cx="815" cy="-90" rx="60.39" ry="18"/>
<text text-anchor="middle" x="815" y="-86.3" font-family="Times New Roman,serif" font-size="14.00">component15</text>
</g>
<!-- 60&#45;&gt;42 -->
<g id="edge161" class="edge">
<title>60&#45;&gt;42</title>
<path fill="none" stroke="black" d="M809.83,-176.28C808.08,-160.55 807.78,-136.82 808.94,-118.38"/>
<polygon fill="black" stroke="black" points="812.44,-118.49 809.79,-108.23 805.47,-117.91 812.44,-118.49"/>
</g>
<!-- 60&#45;&gt;32 -->
<g id="edge160" class="edge">
<title>60&#45;&gt;32</title>
<path fill="none" stroke="black" d="M843.36,-206.72C870.15,-220.78 908.63,-246.81 929,-280.29 992.94,-385.39 939.33,-437.14 985,-551.37 988.68,-560.59 993.95,-569.99 998.79,-578.27"/>
<polygon fill="black" stroke="black" points="995.88,-580.22 1003.96,-587.06 1001.91,-576.67 995.88,-580.22"/>
</g>
<!-- 60&#45;&gt;55 -->
<g id="edge159" class="edge">
<title>60&#45;&gt;55</title>
<path fill="none" stroke="black" d="M820.19,-212.22C821.92,-227.93 822.21,-251.51 821.06,-269.86"/>
<polygon fill="black" stroke="black" points="817.56,-269.71 820.22,-279.96 824.54,-270.29 817.56,-269.71"/>
</g>
<!-- 14&#45;&gt;32 -->
<g id="edge42" class="edge">
<title>14&#45;&gt;32</title>
<path fill="none" stroke="black" d="M1046.09,-543.64C1039.3,-556.76 1032.54,-569.26 1026.65,-579.47"/>
<polygon fill="black" stroke="black" points="1023.59,-577.77 1021.5,-588.16 1029.61,-581.34 1023.59,-577.77"/>
</g>
<!-- 4 -->
<g id="node18" class="node">
<title>4</title>
<ellipse fill="none" stroke="black" cx="922" cy="-1181.37" rx="95.58" ry="18"/>
<text text-anchor="middle" x="922" y="-1177.67" font-family="Times New Roman,serif" font-size="14.00">executionEnvironment6</text>
</g>
<!-- 4&#45;&gt;13 -->
<g id="edge19" class="edge">
<title>4&#45;&gt;13</title>
<path fill="none" stroke="black" d="M914.18,-1199.4C903.09,-1216.38 883.28,-1242.58 867.39,-1261.43"/>
<polygon fill="black" stroke="black" points="864.73,-1259.15 860.86,-1269.01 870.04,-1263.72 864.73,-1259.15"/>
</g>
<!-- 13&#45;&gt;68 -->
<g id="edge40" class="edge">
<title>13&#45;&gt;68</title>
<path fill="none" stroke="black" d="M849.73,-1303.68C863.5,-1362.24 893.6,-1554.45 900.52,-1626.11"/>
<polygon fill="black" stroke="black" points="897.04,-1626.5 901.4,-1636.16 904.01,-1625.89 897.04,-1626.5"/>
</g>
<!-- 13&#45;&gt;4 -->
<g id="edge41" class="edge">
<title>13&#45;&gt;4</title>
<path fill="none" stroke="black" d="M851.71,-1267.65C862.46,-1251.17 881.54,-1225.88 897.23,-1207.12"/>
<polygon fill="black" stroke="black" points="900.1,-1209.14 903.93,-1199.27 894.78,-1204.6 900.1,-1209.14"/>
</g>
<!-- 5 -->
<g id="node20" class="node">
<title>5</title>
<ellipse fill="none" stroke="red" cx="1809" cy="-2535.65" rx="55.79" ry="18"/>
<text text-anchor="middle" x="1809" y="-2531.95" font-family="Times New Roman,serif" font-size="14.00">component5</text>
</g>
<!-- 5&#45;&gt;16 -->
<g id="edge22" class="edge">
<title>5&#45;&gt;16</title>
<path fill="none" stroke="black" d="M1823.61,-2518.24C1851.82,-2484.82 1911,-2405.36 1911,-2327.06 1911,-2327.06 1911,-2327.06 1911,-2229.36 1911,-2157.94 1981.69,-2169.03 2012,-2104.36 2082.01,-1955 2145.13,-1536.01 2131,-1371.67 2111.82,-1148.63 2148.07,-1074.09 2045,-875.37 2039.39,-864.56 2030.8,-854.58 2022.16,-846.25"/>
<polygon fill="black" stroke="black" points="2024.37,-843.53 2014.62,-839.39 2019.66,-848.71 2024.37,-843.53"/>
</g>
<!-- 38 -->
<g id="node21" class="node">
<title>38</title>
<ellipse fill="none" stroke="black" cx="388" cy="-893.37" rx="37.89" ry="18"/>
<text text-anchor="middle" x="388" y="-889.67" font-family="Times New Roman,serif" font-size="14.00">model5</text>
</g>
<!-- 5&#45;&gt;38 -->
<g id="edge20" class="edge">
<title>5&#45;&gt;38</title>
<path fill="none" stroke="black" d="M1774.34,-2521.52C1613.72,-2459.63 929.78,-2184.57 462,-1816.36 320.91,-1705.3 228,-1666.57 228,-1487.01 228,-1487.01 228,-1487.01 228,-1388.67 228,-1287.44 293.53,-1036.78 341,-947.37 346.89,-936.29 355.55,-925.61 363.85,-916.79"/>
<polygon fill="black" stroke="black" points="366.45,-919.13 370.96,-909.54 361.46,-914.23 366.45,-919.13"/>
</g>
<!-- 5&#45;&gt;65 -->
<g id="edge21" class="edge">
<title>5&#45;&gt;65</title>
<path fill="none" stroke="black" d="M1824.35,-2518.06C1836.82,-2505.29 1855.34,-2487.83 1874,-2475.75 1897.08,-2460.81 1925.07,-2448.24 1948.32,-2439.1"/>
<polygon fill="black" stroke="black" points="1949.89,-2442.25 1957.97,-2435.39 1947.38,-2435.71 1949.89,-2442.25"/>
</g>
<!-- 15 -->
<g id="node42" class="node">
<title>15</title>
<ellipse fill="none" stroke="black" cx="388" cy="-965.37" rx="37.89" ry="18"/>
<text text-anchor="middle" x="388" y="-961.67" font-family="Times New Roman,serif" font-size="14.00">model1</text>
</g>
<!-- 38&#45;&gt;15 -->
<g id="edge102" class="edge">
<title>38&#45;&gt;15</title>
<path fill="none" stroke="black" d="M393.86,-911.16C394.7,-918.97 394.94,-928.44 394.6,-937.22"/>
<polygon fill="black" stroke="black" points="391.09,-937.21 393.88,-947.43 398.07,-937.7 391.09,-937.21"/>
</g>
<!-- 65&#45;&gt;52 -->
<g id="edge172" class="edge">
<title>65&#45;&gt;52</title>
<path fill="none" stroke="black" d="M2011.98,-2439.18C2027.54,-2457.56 2049.81,-2487.57 2064.01,-2509.03"/>
<polygon fill="black" stroke="black" points="2061.2,-2511.14 2069.56,-2517.65 2067.09,-2507.35 2061.2,-2511.14"/>
</g>
<!-- 37 -->
<g id="node27" class="node">
<title>37</title>
<ellipse fill="none" stroke="red" cx="2115" cy="-2086.36" rx="55.79" ry="18"/>
<text text-anchor="middle" x="2115" y="-2082.66" font-family="Times New Roman,serif" font-size="14.00">component2</text>
</g>
<!-- 65&#45;&gt;37 -->
<g id="edge173" class="edge">
<title>65&#45;&gt;37</title>
<path fill="none" stroke="black" d="M1989.68,-2403.72C1982.7,-2357.45 1982.12,-2227.13 2037,-2140.36 2045.68,-2126.64 2059.23,-2115.1 2072.7,-2106.33"/>
<polygon fill="black" stroke="black" points="2074.77,-2109.16 2081.48,-2100.97 2071.12,-2103.19 2074.77,-2109.16"/>
</g>
<!-- 18 -->
<g id="node34" class="node">
<title>18</title>
<ellipse fill="none" stroke="black" cx="2084" cy="-2326.06" rx="60.39" ry="18"/>
<text text-anchor="middle" x="2084" y="-2322.36" font-family="Times New Roman,serif" font-size="14.00">component12</text>
</g>
<!-- 65&#45;&gt;18 -->
<g id="edge174" class="edge">
<title>65&#45;&gt;18</title>
<path fill="none" stroke="black" d="M2005.6,-2404C2018.13,-2389.03 2038.91,-2366.95 2056.03,-2350.27"/>
<polygon fill="black" stroke="black" points="2058.79,-2352.48 2063.59,-2343.04 2053.95,-2347.42 2058.79,-2352.48"/>
</g>
<!-- 6 -->
<g id="node23" class="node">
<title>6</title>
<ellipse fill="none" stroke="black" cx="815" cy="-18" rx="40.09" ry="18"/>
<text text-anchor="middle" x="815" y="-14.3" font-family="Times New Roman,serif" font-size="14.00">artifact8</text>
</g>
<!-- 6&#45;&gt;42 -->
<g id="edge23" class="edge">
<title>6&#45;&gt;42</title>
<path fill="none" stroke="black" d="M820.91,-36.28C821.71,-44.03 821.94,-53.36 821.59,-62.01"/>
<polygon fill="black" stroke="black" points="818.09,-61.83 820.88,-72.05 825.08,-62.33 818.09,-61.83"/>
</g>
<!-- 42&#45;&gt;60 -->
<g id="edge113" class="edge">
<title>42&#45;&gt;60</title>
<path fill="none" stroke="black" d="M820.21,-108.23C821.94,-124.08 822.21,-147.84 821.03,-166.19"/>
<polygon fill="black" stroke="black" points="817.53,-166.02 820.17,-176.28 824.51,-166.61 817.53,-166.02"/>
</g>
<!-- 42&#45;&gt;6 -->
<g id="edge112" class="edge">
<title>42&#45;&gt;6</title>
<path fill="none" stroke="black" d="M809.12,-72.05C808.3,-64.35 808.06,-55.03 808.39,-46.36"/>
<polygon fill="black" stroke="black" points="811.89,-46.49 809.09,-36.28 804.91,-46.01 811.89,-46.49"/>
</g>
<!-- 7&#45;&gt;68 -->
<g id="edge25" class="edge">
<title>7&#45;&gt;68</title>
<path fill="none" stroke="black" d="M367.15,-467.35C285.84,-493.63 132,-557.69 132,-676.37 132,-966.37 132,-966.37 132,-966.37 132,-1099.93 439.81,-1319.35 540,-1407.67 603.16,-1463.34 616.51,-1480.83 686,-1528.36 749.05,-1571.49 828.17,-1612.94 870.82,-1635.6"/>
<polygon fill="black" stroke="black" points="869.37,-1638.79 879.84,-1640.41 872.66,-1632.62 869.37,-1638.79"/>
</g>
<!-- 25 -->
<g id="node26" class="node">
<title>25</title>
<ellipse fill="none" stroke="black" cx="582" cy="-605.37" rx="100.18" ry="18"/>
<text text-anchor="middle" x="582" y="-601.67" font-family="Times New Roman,serif" font-size="14.00">executionEnvironment11</text>
</g>
<!-- 7&#45;&gt;25 -->
<g id="edge24" class="edge">
<title>7&#45;&gt;25</title>
<path fill="none" stroke="black" d="M438.55,-469.4C470.67,-496.11 528.66,-548.83 560.3,-579.89"/>
<polygon fill="black" stroke="black" points="558.18,-582.72 567.74,-587.29 563.12,-577.75 558.18,-582.72"/>
</g>
<!-- 7&#45;&gt;37 -->
<g id="edge26" class="edge">
<title>7&#45;&gt;37</title>
<path fill="none" stroke="black" d="M417.06,-470.13C420.51,-527.67 431.46,-717.9 435,-875.37 436.08,-923.36 441.43,-935.81 435,-983.37 411.01,-1160.77 351.99,-1194.28 328,-1371.67 325.86,-1387.52 322.6,-1392.61 328,-1407.67 358.45,-1492.58 417.8,-1483.12 457,-1564.36 474.58,-1600.79 476,-1612.91 476,-1653.36 476,-1727.36 476,-1727.36 476,-1727.36 476,-1868.99 617.28,-1841.7 751,-1888.36 1285.52,-2074.87 1452.46,-1982.26 2012,-2068.36 2026.55,-2070.6 2042.25,-2073.13 2056.89,-2075.54"/>
<polygon fill="black" stroke="black" points="2056.39,-2079.01 2066.83,-2077.19 2057.53,-2072.1 2056.39,-2079.01"/>
</g>
<!-- 25&#45;&gt;7 -->
<g id="edge65" class="edge">
<title>25&#45;&gt;7</title>
<path fill="none" stroke="black" d="M559.17,-587.58C526.91,-560.72 468.94,-508.01 437.44,-477.07"/>
<polygon fill="black" stroke="black" points="439.6,-474.28 430.04,-469.71 434.66,-479.24 439.6,-474.28"/>
</g>
<!-- 44 -->
<g id="node36" class="node">
<title>44</title>
<ellipse fill="none" stroke="black" cx="2050" cy="-677.37" rx="46.29" ry="18"/>
<text text-anchor="middle" x="2050" y="-673.67" font-family="Times New Roman,serif" font-size="14.00">interface4</text>
</g>
<!-- 25&#45;&gt;44 -->
<g id="edge66" class="edge">
<title>25&#45;&gt;44</title>
<path fill="none" stroke="black" d="M677.6,-610.77C958.33,-623.94 1774.08,-662.84 1994.56,-673.6"/>
<polygon fill="black" stroke="black" points="1994.44,-677.09 2004.6,-674.09 1994.78,-670.1 1994.44,-677.09"/>
</g>
<!-- 37&#45;&gt;65 -->
<g id="edge99" class="edge">
<title>37&#45;&gt;65</title>
<path fill="none" stroke="black" d="M2093.87,-2103.14C2080.72,-2112.23 2064.77,-2124.91 2055,-2140.36 2003.77,-2221.37 2000.87,-2340.34 1998.59,-2393.43"/>
<polygon fill="black" stroke="black" points="1995.08,-2393.56 1998.1,-2403.72 2002.07,-2393.9 1995.08,-2393.56"/>
</g>
<!-- 34 -->
<g id="node33" class="node">
<title>34</title>
<ellipse fill="none" stroke="black" cx="1766" cy="-1285.52" rx="46.29" ry="18"/>
<text text-anchor="middle" x="1766" y="-1281.82" font-family="Times New Roman,serif" font-size="14.00">interface7</text>
</g>
<!-- 37&#45;&gt;34 -->
<g id="edge101" class="edge">
<title>37&#45;&gt;34</title>
<path fill="none" stroke="black" d="M2098.64,-2068.87C2058.07,-2019.74 1958,-1868.93 1958,-1727.36 1958,-1727.36 1958,-1727.36 1958,-1485.01 1958,-1423.35 1924.04,-1412.68 1878,-1371.67 1853.05,-1349.44 1839.3,-1354.93 1812,-1335.67 1801.58,-1328.32 1790.95,-1319.26 1782.38,-1310.92"/>
<polygon fill="black" stroke="black" points="1784.65,-1308.24 1775.15,-1303.54 1779.65,-1313.14 1784.65,-1308.24"/>
</g>
<!-- 37&#45;&gt;44 -->
<g id="edge97" class="edge">
<title>37&#45;&gt;44</title>
<path fill="none" stroke="black" d="M2117.57,-2068.36C2121.36,-2041.76 2128,-1988.66 2128,-1943.36 2128,-1943.36 2128,-1943.36 2128,-1869.36 2128,-1792.6 2172.15,-1604.35 2183,-1528.36 2190.64,-1474.85 2194.66,-1461.62 2198,-1407.67 2202.73,-1331.24 2208.47,-1311.23 2198,-1235.37 2176.46,-1079.41 2102,-1051.82 2102,-894.37 2102,-894.37 2102,-894.37 2102,-820.37 2102,-777.63 2080.97,-731.82 2065.66,-704.14"/>
<polygon fill="black" stroke="black" points="2068.52,-702.09 2060.52,-695.13 2062.44,-705.55 2068.52,-702.09"/>
</g>
<!-- 75 -->
<g id="node38" class="node">
<title>75</title>
<ellipse fill="none" stroke="black" cx="2212" cy="-2014.36" rx="55.79" ry="18"/>
<text text-anchor="middle" x="2212" y="-2010.66" font-family="Times New Roman,serif" font-size="14.00">component9</text>
</g>
<!-- 37&#45;&gt;75 -->
<g id="edge98" class="edge">
<title>37&#45;&gt;75</title>
<path fill="none" stroke="black" d="M2131.7,-2069.12C2144.28,-2059.24 2161.77,-2046.53 2177.27,-2035.94"/>
<polygon fill="black" stroke="black" points="2179.29,-2038.8 2185.63,-2030.31 2175.38,-2032.99 2179.29,-2038.8"/>
</g>
<!-- 19 -->
<g id="node48" class="node">
<title>19</title>
<ellipse fill="none" stroke="black" cx="2115" cy="-2158.36" rx="60.39" ry="18"/>
<text text-anchor="middle" x="2115" y="-2154.66" font-family="Times New Roman,serif" font-size="14.00">component14</text>
</g>
<!-- 37&#45;&gt;19 -->
<g id="edge100" class="edge">
<title>37&#45;&gt;19</title>
<path fill="none" stroke="black" d="M2120.91,-2104.64C2121.71,-2112.39 2121.94,-2121.72 2121.59,-2130.37"/>
<polygon fill="black" stroke="black" points="2118.09,-2130.19 2120.88,-2140.41 2125.08,-2130.69 2118.09,-2130.19"/>
</g>
<!-- 8 -->
<g id="node28" class="node">
<title>8</title>
<path fill="none" stroke="red" d="M1801.5,-1196.1C1801.5,-1197.91 1785.59,-1199.37 1766,-1199.37 1746.41,-1199.37 1730.5,-1197.91 1730.5,-1196.1 1730.5,-1196.1 1730.5,-1166.65 1730.5,-1166.65 1730.5,-1164.84 1746.41,-1163.37 1766,-1163.37 1785.59,-1163.37 1801.5,-1164.84 1801.5,-1166.65 1801.5,-1166.65 1801.5,-1196.1 1801.5,-1196.1"/>
<path fill="none" stroke="red" d="M1801.5,-1196.1C1801.5,-1194.3 1785.59,-1192.83 1766,-1192.83 1746.41,-1192.83 1730.5,-1194.3 1730.5,-1196.1"/>
<text text-anchor="middle" x="1766" y="-1177.67" font-family="Times New Roman,serif" font-size="14.00">interface8</text>
</g>
<!-- 8&#45;&gt;70 -->
<g id="edge27" class="edge">
<title>8&#45;&gt;70</title>
<path fill="none" stroke="black" d="M1740.64,-1163.79C1724.9,-1153.48 1704.6,-1140.21 1688.18,-1129.47"/>
<polygon fill="black" stroke="black" points="1689.8,-1126.34 1679.52,-1123.8 1685.97,-1132.2 1689.8,-1126.34"/>
</g>
<!-- 70&#45;&gt;29 -->
<g id="edge190" class="edge">
<title>70&#45;&gt;29</title>
<path fill="none" stroke="black" d="M1641.11,-1094.21C1632.12,-1085.26 1621.52,-1073.45 1612.97,-1062.99"/>
<polygon fill="black" stroke="black" points="1615.58,-1060.65 1606.63,-1054.98 1610.09,-1064.99 1615.58,-1060.65"/>
</g>
<!-- 70&#45;&gt;24 -->
<g id="edge187" class="edge">
<title>70&#45;&gt;24</title>
<path fill="none" stroke="black" d="M1664.09,-1127.18C1670.07,-1168.68 1673.76,-1279.33 1675,-1371.67 1677.31,-1544.11 1687.36,-1620.85 1567,-1744.36 1443.27,-1871.33 1355.79,-1812.66 1183,-1852.36 1171.88,-1854.92 1159.76,-1857.96 1148.51,-1860.76"/>
<polygon fill="black" stroke="black" points="1147.33,-1857.45 1138.46,-1863.24 1149.01,-1864.24 1147.33,-1857.45"/>
</g>
<!-- 47 -->
<g id="node39" class="node">
<title>47</title>
<ellipse fill="none" stroke="black" cx="1682" cy="-1037.37" rx="33.29" ry="18"/>
<text text-anchor="middle" x="1682" y="-1033.67" font-family="Times New Roman,serif" font-size="14.00">node7</text>
</g>
<!-- 70&#45;&gt;47 -->
<g id="edge189" class="edge">
<title>70&#45;&gt;47</title>
<path fill="none" stroke="black" d="M1658.77,-1091.07C1660.62,-1082.87 1663.69,-1072.9 1667.11,-1063.85"/>
<polygon fill="black" stroke="black" points="1670.38,-1065.1 1670.9,-1054.52 1663.89,-1062.46 1670.38,-1065.1"/>
</g>
<!-- 43 -->
<g id="node67" class="node">
<title>43</title>
<ellipse fill="none" stroke="black" cx="1019" cy="-1037.37" rx="38.19" ry="18"/>
<text text-anchor="middle" x="1019" y="-1033.67" font-family="Times New Roman,serif" font-size="14.00">device5</text>
</g>
<!-- 70&#45;&gt;43 -->
<g id="edge188" class="edge">
<title>70&#45;&gt;43</title>
<path fill="none" stroke="black" d="M1626.36,-1105.14C1520.92,-1094.11 1189.78,-1057.93 1066.11,-1043.95"/>
<polygon fill="black" stroke="black" points="1066.17,-1040.43 1055.84,-1042.79 1065.38,-1047.39 1066.17,-1040.43"/>
</g>
<!-- 9&#45;&gt;53 -->
<g id="edge32" class="edge">
<title>9&#45;&gt;53</title>
<path fill="none" stroke="black" d="M1514.59,-1406.14C1487.57,-1423.07 1441.14,-1450.15 1408.98,-1467.76"/>
<polygon fill="black" stroke="black" points="1407.03,-1464.84 1399.91,-1472.68 1410.37,-1470.99 1407.03,-1464.84"/>
</g>
<!-- 74 -->
<g id="node31" class="node">
<title>74</title>
<ellipse fill="none" stroke="black" cx="2243" cy="-451.83" rx="50.09" ry="18"/>
<text text-anchor="middle" x="2243" y="-448.13" font-family="Times New Roman,serif" font-size="14.00">interface11</text>
</g>
<!-- 9&#45;&gt;74 -->
<g id="edge28" class="edge">
<title>9&#45;&gt;74</title>
<path fill="none" stroke="black" d="M1518.61,-1372.44C1511.64,-1362.19 1504.61,-1348.5 1500,-1335.67 1476.42,-1269.99 1466,-1252.16 1466,-1182.37 1466,-1182.37 1466,-1182.37 1466,-676.37 1466,-527.81 2002.53,-471.43 2183.95,-456.92"/>
<polygon fill="black" stroke="black" points="2184.41,-460.39 2194.11,-456.12 2183.87,-453.41 2184.41,-460.39"/>
</g>
<!-- 56 -->
<g id="node32" class="node">
<title>56</title>
<ellipse fill="none" stroke="black" cx="1360" cy="-1285.52" rx="60.39" ry="18"/>
<text text-anchor="middle" x="1360" y="-1281.82" font-family="Times New Roman,serif" font-size="14.00">component11</text>
</g>
<!-- 9&#45;&gt;56 -->
<g id="edge29" class="edge">
<title>9&#45;&gt;56</title>
<path fill="none" stroke="black" d="M1507.08,-1374.68C1475.02,-1357.4 1423.81,-1327.83 1390.97,-1307.75"/>
<polygon fill="black" stroke="black" points="1392.58,-1304.62 1382.23,-1302.35 1388.9,-1310.58 1392.58,-1304.62"/>
</g>
<!-- 9&#45;&gt;34 -->
<g id="edge30" class="edge">
<title>9&#45;&gt;34</title>
<path fill="none" stroke="black" d="M1563.14,-1374.46C1603.17,-1355.59 1677.97,-1322.34 1724.78,-1302.57"/>
<polygon fill="black" stroke="black" points="1726.17,-1305.79 1734.04,-1298.69 1723.46,-1299.33 1726.17,-1305.79"/>
</g>
<!-- 9&#45;&gt;18 -->
<g id="edge31" class="edge">
<title>9&#45;&gt;18</title>
<path fill="none" stroke="black" d="M1556.18,-1406.36C1612.9,-1457.41 1768,-1625.44 1768,-1797.36 1768,-1943.36 1768,-1943.36 1768,-1943.36 1768,-2118.51 1968.84,-2254.16 2050.38,-2304.18"/>
<polygon fill="black" stroke="black" points="2048.9,-2307.37 2059.26,-2309.58 2052.54,-2301.39 2048.9,-2307.37"/>
</g>
<!-- 74&#45;&gt;9 -->
<g id="edge203" class="edge">
<title>74&#45;&gt;9</title>
<path fill="none" stroke="black" d="M2194.76,-456.64C2027.59,-470.69 1484,-526.83 1484,-676.37 1484,-1182.37 1484,-1182.37 1484,-1182.37 1484,-1252.16 1494.42,-1269.99 1518,-1335.67 1521.21,-1344.61 1525.6,-1353.97 1529.49,-1362.29"/>
<polygon fill="black" stroke="black" points="1526.37,-1363.87 1533.73,-1371.5 1532.73,-1360.95 1526.37,-1363.87"/>
</g>
<!-- 74&#45;&gt;10 -->
<g id="edge202" class="edge">
<title>74&#45;&gt;10</title>
<path fill="none" stroke="black" d="M2247.48,-470.09C2250.19,-496.23 2250.47,-546.09 2248.32,-577.15"/>
<polygon fill="black" stroke="black" points="2244.82,-577.03 2247.46,-587.29 2251.8,-577.62 2244.82,-577.03"/>
</g>
<!-- 39 -->
<g id="node62" class="node">
<title>39</title>
<ellipse fill="none" stroke="black" cx="2376" cy="-298.29" rx="44.39" ry="18"/>
<text text-anchor="middle" x="2376" y="-294.59" font-family="Times New Roman,serif" font-size="14.00">artifact10</text>
</g>
<!-- 74&#45;&gt;39 -->
<g id="edge201" class="edge">
<title>74&#45;&gt;39</title>
<path fill="none" stroke="black" d="M2253.31,-434.04C2274.36,-406.76 2321.54,-352.79 2351.02,-322.07"/>
<polygon fill="black" stroke="black" points="2353.63,-324.4 2358.1,-314.8 2348.62,-319.52 2353.63,-324.4"/>
</g>
<!-- 56&#45;&gt;9 -->
<g id="edge149" class="edge">
<title>56&#45;&gt;9</title>
<path fill="none" stroke="black" d="M1390.3,-1301.25C1422.77,-1318.81 1473.71,-1348.25 1506.04,-1368.06"/>
<polygon fill="black" stroke="black" points="1504.29,-1371.09 1514.63,-1373.37 1507.97,-1365.14 1504.29,-1371.09"/>
</g>
<!-- 56&#45;&gt;56 -->
<g id="edge147" class="edge">
<title>56&#45;&gt;56</title>
<path fill="none" stroke="black" d="M1387.74,-1301.68C1412.3,-1309.29 1438.44,-1303.9 1438.44,-1285.52 1438.44,-1269.58 1418.79,-1263.41 1397.55,-1267.02"/>
<polygon fill="black" stroke="black" points="1396.65,-1263.63 1387.74,-1269.36 1398.28,-1270.44 1396.65,-1263.63"/>
</g>
<!-- 56&#45;&gt;45 -->
<g id="edge148" class="edge">
<title>56&#45;&gt;45</title>
<path fill="none" stroke="black" d="M1382.23,-1302.53C1401.37,-1317.82 1427.66,-1342.76 1439,-1371.67 1464.61,-1436.92 1449.75,-1464.43 1421,-1528.36 1388.37,-1600.91 1321.14,-1667.97 1283.35,-1701.99"/>
<polygon fill="black" stroke="black" points="1280.9,-1699.48 1275.75,-1708.74 1285.55,-1704.71 1280.9,-1699.48"/>
</g>
<!-- 34&#45;&gt;37 -->
<g id="edge89" class="edge">
<title>34&#45;&gt;37</title>
<path fill="none" stroke="black" d="M1788.41,-1301.51C1800.49,-1311.8 1815.45,-1325.41 1830,-1335.67 1857.3,-1354.93 1871.05,-1349.44 1896,-1371.67 1942.04,-1412.68 1976,-1423.35 1976,-1485.01 1976,-1727.36 1976,-1727.36 1976,-1727.36 1976,-1861.15 2065.36,-2003.18 2100.99,-2059.86"/>
<polygon fill="black" stroke="black" points="2098.14,-2061.9 2106.41,-2068.52 2104.07,-2058.19 2098.14,-2061.9"/>
</g>
<!-- 34&#45;&gt;8 -->
<g id="edge87" class="edge">
<title>34&#45;&gt;8</title>
<path fill="none" stroke="black" d="M1766,-1267.19C1766,-1251.4 1766,-1227.8 1766,-1209.51"/>
<polygon fill="black" stroke="black" points="1769.5,-1209.45 1766,-1199.45 1762.5,-1209.45 1769.5,-1209.45"/>
</g>
<!-- 34&#45;&gt;9 -->
<g id="edge88" class="edge">
<title>34&#45;&gt;9</title>
<path fill="none" stroke="black" d="M1739.57,-1300.39C1700.11,-1319.02 1625.82,-1352.06 1578.65,-1372.01"/>
<polygon fill="black" stroke="black" points="1577.17,-1368.83 1569.31,-1375.94 1579.88,-1375.29 1577.17,-1368.83"/>
</g>
<!-- 18&#45;&gt;65 -->
<g id="edge50" class="edge">
<title>18&#45;&gt;65</title>
<path fill="none" stroke="black" d="M2073.26,-2343.98C2060.68,-2358.98 2039.93,-2381.03 2022.86,-2397.65"/>
<polygon fill="black" stroke="black" points="2020.13,-2395.42 2015.31,-2404.86 2024.96,-2400.48 2020.13,-2395.42"/>
</g>
<!-- 18&#45;&gt;9 -->
<g id="edge51" class="edge">
<title>18&#45;&gt;9</title>
<path fill="none" stroke="black" d="M2052.85,-2310.53C1969.74,-2266.56 1750,-2126.57 1750,-1943.36 1750,-1943.36 1750,-1943.36 1750,-1797.36 1750,-1633.93 1609.84,-1474.02 1556.24,-1414.76"/>
<polygon fill="black" stroke="black" points="1558.59,-1412.14 1549.28,-1407.08 1553.4,-1416.84 1558.59,-1412.14"/>
</g>
<!-- 67 -->
<g id="node47" class="node">
<title>67</title>
<ellipse fill="none" stroke="black" cx="2120" cy="-2230.36" rx="40.09" ry="18"/>
<text text-anchor="middle" x="2120" y="-2226.66" font-family="Times New Roman,serif" font-size="14.00">artifact2</text>
</g>
<!-- 18&#45;&gt;67 -->
<g id="edge49" class="edge">
<title>18&#45;&gt;67</title>
<path fill="none" stroke="black" d="M2085.24,-2307.87C2089.13,-2293.7 2096.7,-2273.37 2103.95,-2257.22"/>
<polygon fill="black" stroke="black" points="2107.3,-2258.35 2108.4,-2247.81 2100.97,-2255.36 2107.3,-2258.35"/>
</g>
<!-- 10&#45;&gt;68 -->
<g id="edge35" class="edge">
<title>10&#45;&gt;68</title>
<path fill="none" stroke="black" d="M2248.71,-623.42C2252,-650.08 2252,-703.26 2252,-748.37 2252,-822.37 2252,-822.37 2252,-822.37 2252,-1076.91 2181.08,-1158.84 1998,-1335.67 1686.73,-1636.31 1107.32,-1654.86 944.48,-1654.12"/>
<polygon fill="black" stroke="black" points="944.39,-1650.62 934.37,-1654.05 944.34,-1657.62 944.39,-1650.62"/>
</g>
<!-- 10&#45;&gt;74 -->
<g id="edge34" class="edge">
<title>10&#45;&gt;74</title>
<path fill="none" stroke="black" d="M2238.54,-587.29C2235.81,-561.25 2235.52,-511.4 2237.66,-480.26"/>
<polygon fill="black" stroke="black" points="2241.17,-480.35 2238.52,-470.09 2234.19,-479.76 2241.17,-480.35"/>
</g>
<!-- 10&#45;&gt;44 -->
<g id="edge33" class="edge">
<title>10&#45;&gt;44</title>
<path fill="none" stroke="black" d="M2210.59,-620.12C2178.81,-632.25 2130.3,-649.85 2094.85,-662.13"/>
<polygon fill="black" stroke="black" points="2093.54,-658.87 2085.22,-665.44 2095.81,-665.49 2093.54,-658.87"/>
</g>
<!-- 44&#45;&gt;25 -->
<g id="edge116" class="edge">
<title>44&#45;&gt;25</title>
<path fill="none" stroke="black" d="M2004.38,-674.32C1801.75,-664.91 981.04,-625.79 687.22,-611.57"/>
<polygon fill="black" stroke="black" points="687.15,-608.06 676.99,-611.08 686.81,-615.06 687.15,-608.06"/>
</g>
<!-- 44&#45;&gt;10 -->
<g id="edge118" class="edge">
<title>44&#45;&gt;10</title>
<path fill="none" stroke="black" d="M2080.04,-663.54C2110.74,-651.77 2158.69,-634.34 2194.7,-621.82"/>
<polygon fill="black" stroke="black" points="2196.21,-625 2204.51,-618.43 2193.92,-618.39 2196.21,-625"/>
</g>
<!-- 44&#45;&gt;32 -->
<g id="edge120" class="edge">
<title>44&#45;&gt;32</title>
<path fill="none" stroke="black" d="M2004.94,-673.34C1834.75,-661.9 1231.96,-621.37 1056.96,-609.6"/>
<polygon fill="black" stroke="black" points="1056.99,-606.09 1046.78,-608.92 1056.52,-613.08 1056.99,-606.09"/>
</g>
<!-- 44&#45;&gt;64 -->
<g id="edge119" class="edge">
<title>44&#45;&gt;64</title>
<path fill="none" stroke="black" d="M2046.77,-695.67C2043.18,-704.12 2037.92,-714.43 2032.53,-723.69"/>
<polygon fill="black" stroke="black" points="2029.38,-722.13 2027.16,-732.49 2035.36,-725.78 2029.38,-722.13"/>
</g>
<!-- 72 -->
<g id="node68" class="node">
<title>72</title>
<ellipse fill="none" stroke="black" cx="2098" cy="-605.37" rx="40.09" ry="18"/>
<text text-anchor="middle" x="2098" y="-601.67" font-family="Times New Roman,serif" font-size="14.00">artifact6</text>
</g>
<!-- 44&#45;&gt;72 -->
<g id="edge117" class="edge">
<title>44&#45;&gt;72</title>
<path fill="none" stroke="black" d="M2055.74,-659.43C2060.82,-650.67 2068.07,-639.83 2075.21,-630.23"/>
<polygon fill="black" stroke="black" points="2078.06,-632.26 2081.39,-622.2 2072.51,-627.99 2078.06,-632.26"/>
</g>
<!-- 11 -->
<g id="node37" class="node">
<title>11</title>
<ellipse fill="none" stroke="red" cx="1957" cy="-2086.36" rx="46.29" ry="18"/>
<text text-anchor="middle" x="1957" y="-2082.66" font-family="Times New Roman,serif" font-size="14.00">interface1</text>
</g>
<!-- 11&#45;&gt;70 -->
<g id="edge37" class="edge">
<title>11&#45;&gt;70</title>
<path fill="none" stroke="black" d="M1941.82,-2069.34C1919.91,-2044.47 1882,-1994.1 1882,-1943.36 1882,-1943.36 1882,-1943.36 1882,-1581.36 1882,-1519.24 1890.73,-1496.47 1858,-1443.67 1815.29,-1374.76 1754.28,-1404.22 1711,-1335.67 1669.37,-1269.74 1698.55,-1238.58 1678,-1163.37 1675.62,-1154.66 1672.48,-1145.33 1669.44,-1136.96"/>
<polygon fill="black" stroke="black" points="1672.63,-1135.48 1665.84,-1127.35 1666.07,-1137.94 1672.63,-1135.48"/>
</g>
<!-- 11&#45;&gt;75 -->
<g id="edge36" class="edge">
<title>11&#45;&gt;75</title>
<path fill="none" stroke="black" d="M1993.54,-2075.33C2037.47,-2063.27 2111.47,-2042.96 2161.01,-2029.36"/>
<polygon fill="black" stroke="black" points="2162.17,-2032.67 2170.89,-2026.65 2160.32,-2025.92 2162.17,-2032.67"/>
</g>
<!-- 11&#45;&gt;47 -->
<g id="edge38" class="edge">
<title>11&#45;&gt;47</title>
<path fill="none" stroke="black" d="M1962.65,-2068.29C1976.38,-2026.09 2011.52,-1913.26 2028,-1816.36 2071.39,-1561.26 2186.1,-1464.59 2066,-1235.37 1997.73,-1105.08 1808.36,-1058.77 1723.76,-1044.26"/>
<polygon fill="black" stroke="black" points="1724.17,-1040.78 1713.73,-1042.61 1723.03,-1047.69 1724.17,-1040.78"/>
</g>
<!-- 75&#45;&gt;37 -->
<g id="edge207" class="edge">
<title>75&#45;&gt;37</title>
<path fill="none" stroke="black" d="M2195.33,-2031.57C2182.77,-2041.44 2165.32,-2054.13 2149.83,-2064.71"/>
<polygon fill="black" stroke="black" points="2147.81,-2061.85 2141.47,-2070.34 2151.72,-2067.66 2147.81,-2061.85"/>
</g>
<!-- 12 -->
<g id="node40" class="node">
<title>12</title>
<ellipse fill="none" stroke="black" cx="2196" cy="-1798.36" rx="40.09" ry="18"/>
<text text-anchor="middle" x="2196" y="-1794.66" font-family="Times New Roman,serif" font-size="14.00">artifact5</text>
</g>
<!-- 75&#45;&gt;12 -->
<g id="edge205" class="edge">
<title>75&#45;&gt;12</title>
<path fill="none" stroke="black" d="M2206.84,-1996.21C2200.54,-1959.19 2193.71,-1871.54 2193.36,-1826.75"/>
<polygon fill="black" stroke="black" points="2196.86,-1826.61 2193.4,-1816.59 2189.86,-1826.58 2196.86,-1826.61"/>
</g>
<!-- 75&#45;&gt;67 -->
<g id="edge204" class="edge">
<title>75&#45;&gt;67</title>
<path fill="none" stroke="black" d="M2218.09,-2032.65C2222.37,-2063.63 2220.05,-2129.73 2193,-2176.36 2184.63,-2190.79 2170.76,-2203 2157.23,-2212.05"/>
<polygon fill="black" stroke="black" points="2155.09,-2209.27 2148.46,-2217.53 2158.79,-2215.2 2155.09,-2209.27"/>
</g>
<!-- 75&#45;&gt;50 -->
<g id="edge206" class="edge">
<title>75&#45;&gt;50</title>
<path fill="none" stroke="black" d="M2221.61,-1996.41C2229.01,-1987.26 2239.3,-1975.83 2249.01,-1965.93"/>
<polygon fill="black" stroke="black" points="2251.64,-1968.25 2256.26,-1958.72 2246.7,-1963.29 2251.64,-1968.25"/>
</g>
<!-- 47&#45;&gt;70 -->
<g id="edge125" class="edge">
<title>47&#45;&gt;70</title>
<path fill="none" stroke="black" d="M1682.27,-1055.5C1680.43,-1063.7 1677.36,-1073.69 1673.94,-1082.77"/>
<polygon fill="black" stroke="black" points="1670.66,-1081.56 1670.14,-1092.14 1677.14,-1084.19 1670.66,-1081.56"/>
</g>
<!-- 12&#45;&gt;75 -->
<g id="edge39" class="edge">
<title>12&#45;&gt;75</title>
<path fill="none" stroke="black" d="M2201.12,-1816.3C2207.44,-1853.21 2214.29,-1941.18 2214.65,-1986.04"/>
<polygon fill="black" stroke="black" points="2211.14,-1986.19 2214.6,-1996.21 2218.14,-1986.23 2211.14,-1986.19"/>
</g>
<!-- 32&#45;&gt;26 -->
<g id="edge84" class="edge">
<title>32&#45;&gt;26</title>
<path fill="none" stroke="black" d="M978.55,-594.22C958.38,-585.19 932.95,-570.45 916,-551.37 897.47,-530.53 884.72,-501.09 878.93,-479.83"/>
<polygon fill="black" stroke="black" points="882.28,-478.77 876.6,-469.83 875.46,-480.36 882.28,-478.77"/>
</g>
<!-- 32&#45;&gt;60 -->
<g id="edge82" class="edge">
<title>32&#45;&gt;60</title>
<path fill="none" stroke="black" d="M990,-589.38C981.44,-579.17 972.47,-565.06 967,-551.37 921.33,-437.14 974.94,-385.39 911,-280.29 894.27,-252.8 865.35,-230.33 843.47,-215.39"/>
<polygon fill="black" stroke="black" points="845.13,-212.3 834.87,-209.65 841.24,-218.12 845.13,-212.3"/>
</g>
<!-- 32&#45;&gt;14 -->
<g id="edge83" class="edge">
<title>32&#45;&gt;14</title>
<path fill="none" stroke="black" d="M1013.11,-587.29C1017.24,-576.87 1023.68,-562.64 1031.05,-547.32"/>
<polygon fill="black" stroke="black" points="1034.26,-548.72 1035.49,-538.19 1027.97,-545.65 1034.26,-548.72"/>
</g>
<!-- 15&#45;&gt;38 -->
<g id="edge43" class="edge">
<title>15&#45;&gt;38</title>
<path fill="none" stroke="black" d="M382.12,-947.43C381.29,-939.61 381.05,-930.12 381.41,-921.35"/>
<polygon fill="black" stroke="black" points="384.92,-921.39 382.14,-911.16 377.93,-920.89 384.92,-921.39"/>
</g>
<!-- 15&#45;&gt;46 -->
<g id="edge44" class="edge">
<title>15&#45;&gt;46</title>
<path fill="none" stroke="black" d="M425.68,-962.73C638.27,-953.45 1687.28,-907.67 1938.07,-896.73"/>
<polygon fill="black" stroke="black" points="1938.54,-900.21 1948.38,-896.28 1938.23,-893.22 1938.54,-900.21"/>
</g>
<!-- 66 -->
<g id="node44" class="node">
<title>66</title>
<ellipse fill="none" stroke="black" cx="287" cy="-893.37" rx="44.69" ry="18"/>
<text text-anchor="middle" x="287" y="-889.67" font-family="Times New Roman,serif" font-size="14.00">package1</text>
</g>
<!-- 15&#45;&gt;66 -->
<g id="edge45" class="edge">
<title>15&#45;&gt;66</title>
<path fill="none" stroke="black" d="M367.56,-950.21C353.07,-940.16 333.38,-926.52 317.1,-915.23"/>
<polygon fill="black" stroke="black" points="318.67,-912.06 308.45,-909.24 314.68,-917.82 318.67,-912.06"/>
</g>
<!-- 46&#45;&gt;30 -->
<g id="edge123" class="edge">
<title>46&#45;&gt;30</title>
<path fill="none" stroke="black" d="M1992.71,-911.69C1988.64,-938.27 1976,-990.82 1976,-1036.37 1976,-1182.37 1976,-1182.37 1976,-1182.37 1976,-1251.63 1982.87,-1275.83 1948,-1335.67 1876.69,-1458.03 1580.73,-1671.98 1459,-1744.36 1425.38,-1764.35 1382.85,-1779.69 1352.78,-1788.6"/>
<polygon fill="black" stroke="black" points="1351.74,-1785.26 1343.09,-1791.38 1353.67,-1791.99 1351.74,-1785.26"/>
</g>
<!-- 46&#45;&gt;16 -->
<g id="edge124" class="edge">
<title>46&#45;&gt;16</title>
<path fill="none" stroke="black" d="M1986.12,-875.43C1985.3,-867.72 1985.06,-858.4 1985.39,-849.74"/>
<polygon fill="black" stroke="black" points="1988.89,-849.87 1986.09,-839.65 1981.91,-849.39 1988.89,-849.87"/>
</g>
<!-- 64&#45;&gt;16 -->
<g id="edge171" class="edge">
<title>64&#45;&gt;16</title>
<path fill="none" stroke="black" d="M2013.76,-767.48C2012.23,-775.34 2009.61,-784.84 2006.61,-793.61"/>
<polygon fill="black" stroke="black" points="2003.3,-792.48 2003.11,-803.07 2009.86,-794.91 2003.3,-792.48"/>
</g>
<!-- 64&#45;&gt;44 -->
<g id="edge170" class="edge">
<title>64&#45;&gt;44</title>
<path fill="none" stroke="black" d="M2016.23,-731.07C2019.8,-722.69 2025,-712.47 2030.35,-703.27"/>
<polygon fill="black" stroke="black" points="2033.46,-704.88 2035.68,-694.52 2027.49,-701.24 2033.46,-704.88"/>
</g>
<!-- 17&#45;&gt;53 -->
<g id="edge48" class="edge">
<title>17&#45;&gt;53</title>
<path fill="none" stroke="black" d="M1394.08,-1407.71C1392.96,-1421.76 1389.38,-1441.94 1385.28,-1458.16"/>
<polygon fill="black" stroke="black" points="1381.81,-1457.58 1382.53,-1468.15 1388.56,-1459.43 1381.81,-1457.58"/>
</g>
<!-- 67&#45;&gt;18 -->
<g id="edge177" class="edge">
<title>67&#45;&gt;18</title>
<path fill="none" stroke="black" d="M2118.75,-2248.6C2114.87,-2262.69 2107.38,-2282.84 2100.17,-2298.91"/>
<polygon fill="black" stroke="black" points="2096.84,-2297.77 2095.75,-2308.31 2103.18,-2300.75 2096.84,-2297.77"/>
</g>
<!-- 67&#45;&gt;75 -->
<g id="edge175" class="edge">
<title>67&#45;&gt;75</title>
<path fill="none" stroke="black" d="M2138.06,-2214.18C2150.48,-2204.96 2165.95,-2191.96 2175,-2176.36 2199.41,-2134.29 2203.68,-2076.36 2206.55,-2042.68"/>
<polygon fill="black" stroke="black" points="2210.04,-2042.92 2207.45,-2032.65 2203.07,-2042.29 2210.04,-2042.92"/>
</g>
<!-- 67&#45;&gt;19 -->
<g id="edge176" class="edge">
<title>67&#45;&gt;19</title>
<path fill="none" stroke="black" d="M2112.91,-2212.41C2111.54,-2204.71 2110.63,-2195.39 2110.35,-2186.72"/>
<polygon fill="black" stroke="black" points="2113.85,-2186.63 2110.32,-2176.64 2106.85,-2186.64 2113.85,-2186.63"/>
</g>
<!-- 19&#45;&gt;37 -->
<g id="edge54" class="edge">
<title>19&#45;&gt;37</title>
<path fill="none" stroke="black" d="M2109.12,-2140.41C2108.3,-2132.71 2108.06,-2123.39 2108.39,-2114.72"/>
<polygon fill="black" stroke="black" points="2111.89,-2114.85 2109.09,-2104.64 2104.91,-2114.37 2111.89,-2114.85"/>
</g>
<!-- 19&#45;&gt;67 -->
<g id="edge52" class="edge">
<title>19&#45;&gt;67</title>
<path fill="none" stroke="black" d="M2122.15,-2176.64C2123.5,-2184.39 2124.39,-2193.72 2124.66,-2202.37"/>
<polygon fill="black" stroke="black" points="2121.16,-2202.42 2124.67,-2212.41 2128.16,-2202.41 2121.16,-2202.42"/>
</g>
<!-- 35 -->
<g id="node49" class="node">
<title>35</title>
<ellipse fill="none" stroke="red" cx="2416" cy="-194.15" rx="46.28" ry="46.28"/>
<ellipse fill="none" stroke="red" cx="2416" cy="-194.15" rx="50.29" ry="50.29"/>
<text text-anchor="middle" x="2416" y="-190.45" font-family="Times New Roman,serif" font-size="14.00">interface2</text>
</g>
<!-- 19&#45;&gt;35 -->
<g id="edge53" class="edge">
<title>19&#45;&gt;35</title>
<path fill="none" stroke="black" d="M2174.68,-2154.88C2260.96,-2147.59 2410,-2119.78 2410,-2015.36 2410,-2015.36 2410,-2015.36 2410,-1485.01 2410,-1349.45 2448,-1317.94 2448,-1182.37 2448,-1182.37 2448,-1182.37 2448,-450.83 2448,-382.77 2433.66,-305.78 2423.8,-254.23"/>
<polygon fill="black" stroke="black" points="2427.21,-253.43 2421.9,-244.27 2420.34,-254.75 2427.21,-253.43"/>
</g>
<!-- 35&#45;&gt;19 -->
<g id="edge91" class="edge">
<title>35&#45;&gt;19</title>
<path fill="none" stroke="black" d="M2434.45,-240.98C2448.97,-291.88 2466,-376.65 2466,-450.83 2466,-1182.37 2466,-1182.37 2466,-1182.37 2466,-1317.94 2428,-1349.45 2428,-1485.01 2428,-2015.36 2428,-2015.36 2428,-2015.36 2428,-2120.35 2277.3,-2147.89 2184.97,-2155"/>
<polygon fill="black" stroke="black" points="2184.57,-2151.52 2174.84,-2155.71 2185.06,-2158.5 2184.57,-2151.52"/>
</g>
<!-- 35&#45;&gt;39 -->
<g id="edge90" class="edge">
<title>35&#45;&gt;39</title>
<path fill="none" stroke="black" d="M2403.89,-243.29C2400.1,-253.12 2395.93,-263.09 2391.94,-271.75"/>
<polygon fill="black" stroke="black" points="2388.73,-270.35 2387.54,-280.88 2395.03,-273.39 2388.73,-270.35"/>
</g>
<!-- 20 -->
<g id="node50" class="node">
<title>20</title>
<ellipse fill="none" stroke="black" cx="978" cy="-1285.52" rx="40.09" ry="18"/>
<text text-anchor="middle" x="978" y="-1281.82" font-family="Times New Roman,serif" font-size="14.00">artifact3</text>
</g>
<!-- 20&#45;&gt;59 -->
<g id="edge55" class="edge">
<title>20&#45;&gt;59</title>
<path fill="none" stroke="black" d="M983.33,-1303.4C985.28,-1326.82 983.14,-1370.51 980,-1407.67 978.65,-1423.71 977.41,-1427.63 976,-1443.67 972.62,-1482.01 969.94,-1526.46 966.18,-1554.25"/>
<polygon fill="black" stroke="black" points="962.69,-1553.97 964.63,-1564.38 969.6,-1555.03 962.69,-1553.97"/>
</g>
<!-- 59&#45;&gt;68 -->
<g id="edge155" class="edge">
<title>59&#45;&gt;68</title>
<path fill="none" stroke="black" d="M950.25,-1600.06C943.67,-1609.38 934.27,-1621.12 925.37,-1631.2"/>
<polygon fill="black" stroke="black" points="922.55,-1629.11 918.4,-1638.86 927.72,-1633.82 922.55,-1629.11"/>
</g>
<!-- 59&#45;&gt;20 -->
<g id="edge156" class="edge">
<title>59&#45;&gt;20</title>
<path fill="none" stroke="black" d="M953.1,-1564.38C951.24,-1538.37 954.17,-1487.1 958,-1443.67 959.41,-1427.63 960.65,-1423.71 962,-1407.67 964.73,-1375.3 966.71,-1337.98 969.82,-1313.41"/>
<polygon fill="black" stroke="black" points="973.3,-1313.8 971.28,-1303.4 966.37,-1312.79 973.3,-1313.8"/>
</g>
<!-- 69 -->
<g id="node72" class="node">
<title>69</title>
<ellipse fill="none" stroke="black" cx="1022" cy="-1486.01" rx="46.29" ry="18"/>
<text text-anchor="middle" x="1022" y="-1482.31" font-family="Times New Roman,serif" font-size="14.00">interface0</text>
</g>
<!-- 59&#45;&gt;69 -->
<g id="edge157" class="edge">
<title>59&#45;&gt;69</title>
<path fill="none" stroke="black" d="M964.13,-1564.49C972.52,-1549.69 987.02,-1527.98 999.54,-1511.3"/>
<polygon fill="black" stroke="black" points="1002.52,-1513.16 1005.86,-1503.1 996.98,-1508.89 1002.52,-1513.16"/>
</g>
<!-- 21 -->
<g id="node52" class="node">
<title>21</title>
<ellipse fill="none" stroke="red" cx="1880" cy="-1285.52" rx="46.28" ry="46.28"/>
<ellipse fill="none" stroke="red" cx="1880" cy="-1285.52" rx="50.29" ry="50.29"/>
<text text-anchor="middle" x="1880" y="-1281.82" font-family="Times New Roman,serif" font-size="14.00">interface5</text>
</g>
<!-- 21&#45;&gt;16 -->
<g id="edge57" class="edge">
<title>21&#45;&gt;16</title>
<path fill="none" stroke="black" d="M1896.73,-1237.88C1907.69,-1203.19 1920,-1154.42 1920,-1110.37 1920,-1110.37 1920,-1110.37 1920,-964.37 1920,-923.93 1919.68,-910.91 1939,-875.37 1944.82,-864.68 1953.46,-854.72 1962.09,-846.38"/>
<polygon fill="black" stroke="black" points="1964.59,-848.84 1969.6,-839.51 1959.86,-843.68 1964.59,-848.84"/>
</g>
<!-- 21&#45;&gt;8 -->
<g id="edge56" class="edge">
<title>21&#45;&gt;8</title>
<path fill="none" stroke="black" d="M1842.99,-1251.36C1826.75,-1236.81 1808.04,-1220.04 1793.12,-1206.68"/>
<polygon fill="black" stroke="black" points="1795.05,-1203.71 1785.27,-1199.64 1790.38,-1208.92 1795.05,-1203.71"/>
</g>
<!-- 23 -->
<g id="node53" class="node">
<title>23</title>
<ellipse fill="none" stroke="black" cx="803" cy="-2326.06" rx="37.88" ry="37.88"/>
<ellipse fill="none" stroke="black" cx="803" cy="-2326.06" rx="41.89" ry="41.89"/>
<text text-anchor="middle" x="803" y="-2322.36" font-family="Times New Roman,serif" font-size="14.00">model7</text>
</g>
<!-- 23&#45;&gt;31 -->
<g id="edge58" class="edge">
<title>23&#45;&gt;31</title>
<path fill="none" stroke="black" d="M813.82,-2285.54C841.76,-2183.54 915.79,-1913.3 939.55,-1826.57"/>
<polygon fill="black" stroke="black" points="942.98,-1827.27 942.25,-1816.7 936.23,-1825.42 942.98,-1827.27"/>
</g>
<!-- 50&#45;&gt;24 -->
<g id="edge129" class="edge">
<title>50&#45;&gt;24</title>
<path fill="none" stroke="black" d="M2229.92,-1940.47C2047.28,-1936.6 1374.87,-1920.09 1165,-1888.36 1158.08,-1887.31 1150.84,-1885.84 1143.9,-1884.2"/>
<polygon fill="black" stroke="black" points="1144.58,-1880.76 1134.03,-1881.7 1142.86,-1887.55 1144.58,-1880.76"/>
</g>
<!-- 50&#45;&gt;75 -->
<g id="edge131" class="edge">
<title>50&#45;&gt;75</title>
<path fill="none" stroke="black" d="M2266.5,-1960.16C2259.22,-1969.19 2249.09,-1980.45 2239.48,-1990.29"/>
<polygon fill="black" stroke="black" points="2236.89,-1987.93 2232.28,-1997.48 2241.83,-1992.89 2236.89,-1987.93"/>
</g>
<!-- 50&#45;&gt;39 -->
<g id="edge130" class="edge">
<title>50&#45;&gt;39</title>
<path fill="none" stroke="black" d="M2288.58,-1925.01C2310.99,-1900.46 2354,-1851.4 2354,-1799.36 2354,-1799.36 2354,-1799.36 2354,-1388.67 2354,-1263.83 2392,-1235.21 2392,-1110.37 2392,-1110.37 2392,-1110.37 2392,-604.37 2392,-501.46 2377.69,-379.66 2374.62,-326.45"/>
<polygon fill="black" stroke="black" points="2378.12,-326.28 2374.16,-316.45 2371.13,-326.61 2378.12,-326.28"/>
</g>
<!-- 50&#45;&gt;72 -->
<g id="edge132" class="edge">
<title>50&#45;&gt;72</title>
<path fill="none" stroke="black" d="M2269.69,-1924.31C2265.53,-1897.66 2264,-1844.48 2264,-1799.36 2264,-1799.36 2264,-1799.36 2264,-1653.36 2264,-1434.86 2259.13,-1379.03 2224,-1163.37 2198.9,-1009.32 2140,-978.46 2140,-822.37 2140,-822.37 2140,-822.37 2140,-748.37 2140,-706.15 2119.78,-660.8 2107.05,-633"/>
<polygon fill="black" stroke="black" points="2110.09,-631.23 2102.75,-623.59 2103.72,-634.14 2110.09,-631.23"/>
</g>
<!-- 55&#45;&gt;26 -->
<g id="edge146" class="edge">
<title>55&#45;&gt;26</title>
<path fill="none" stroke="black" d="M826.66,-316.55C840.29,-342.8 861.43,-392.99 872.15,-424.02"/>
<polygon fill="black" stroke="black" points="868.9,-425.35 875.36,-433.74 875.55,-423.15 868.9,-425.35"/>
</g>
<!-- 55&#45;&gt;60 -->
<g id="edge145" class="edge">
<title>55&#45;&gt;60</title>
<path fill="none" stroke="black" d="M809.78,-279.96C808.07,-264.17 807.79,-240.57 808.96,-222.28"/>
<polygon fill="black" stroke="black" points="812.45,-222.48 809.81,-212.22 805.48,-221.89 812.45,-222.48"/>
</g>
<!-- 27 -->
<g id="node57" class="node">
<title>27</title>
<ellipse fill="none" stroke="red" cx="1511" cy="-1486.01" rx="42.79" ry="18"/>
<text text-anchor="middle" x="1511" y="-1482.31" font-family="Times New Roman,serif" font-size="14.00">device11</text>
</g>
<!-- 27&#45;&gt;29 -->
<g id="edge72" class="edge">
<title>27&#45;&gt;29</title>
<path fill="none" stroke="black" d="M1530.78,-1469.92C1553.41,-1452.14 1588.23,-1423.1 1595,-1407.67 1601.43,-1393.01 1602.23,-1385.94 1595,-1371.67 1582.8,-1347.56 1558.2,-1359.78 1546,-1335.67 1496.97,-1238.8 1504.93,-1191.88 1546,-1091.37 1551.16,-1078.76 1560.92,-1067.52 1570.61,-1058.68"/>
<polygon fill="black" stroke="black" points="1572.96,-1061.28 1578.28,-1052.12 1568.41,-1055.96 1572.96,-1061.28"/>
</g>
<!-- 27&#45;&gt;17 -->
<g id="edge71" class="edge">
<title>27&#45;&gt;17</title>
<path fill="none" stroke="black" d="M1491.88,-1469.85C1472.07,-1454.15 1440.96,-1429.48 1418.73,-1411.86"/>
<polygon fill="black" stroke="black" points="1420.69,-1408.95 1410.68,-1405.48 1416.34,-1414.43 1420.69,-1408.95"/>
</g>
<!-- 28 -->
<g id="node58" class="node">
<title>28</title>
<ellipse fill="none" stroke="red" cx="1943" cy="-2535.65" rx="55.8" ry="55.8"/>
<ellipse fill="none" stroke="red" cx="1943" cy="-2535.65" rx="59.79" ry="59.79"/>
<text text-anchor="middle" x="1943" y="-2531.95" font-family="Times New Roman,serif" font-size="14.00">component3</text>
</g>
<!-- 28&#45;&gt;30 -->
<g id="edge75" class="edge">
<title>28&#45;&gt;30</title>
<path fill="none" stroke="black" d="M1914.93,-2482.45C1899.33,-2456.68 1878.2,-2426.36 1854,-2403.75 1696.74,-2256.85 1436,-2374.56 1436,-2159.36 1436,-2159.36 1436,-2159.36 1436,-1941.36 1436,-1888.54 1386.97,-1845.23 1351.59,-1820.85"/>
<polygon fill="black" stroke="black" points="1353.19,-1817.71 1342.93,-1815.07 1349.3,-1823.53 1353.19,-1817.71"/>
</g>
<!-- 28&#45;&gt;65 -->
<g id="edge76" class="edge">
<title>28&#45;&gt;65</title>
<path fill="none" stroke="black" d="M1967.93,-2480.99C1973.12,-2469.84 1978.36,-2458.56 1982.83,-2448.94"/>
<polygon fill="black" stroke="black" points="1986.14,-2450.13 1987.18,-2439.59 1979.79,-2447.18 1986.14,-2450.13"/>
</g>
<!-- 28&#45;&gt;10 -->
<g id="edge74" class="edge">
<title>28&#45;&gt;10</title>
<path fill="none" stroke="black" d="M1986.01,-2493.58C1994.23,-2487.03 2003.07,-2480.76 2012,-2475.75 2197.15,-2371.82 2466,-2539.38 2466,-2327.06 2466,-2327.06 2466,-2327.06 2466,-1485.01 2466,-1271.65 2290,-1251.74 2290,-1038.37 2290,-1038.37 2290,-1038.37 2290,-748.37 2290,-706.1 2270.99,-660.16 2257.15,-632.32"/>
<polygon fill="black" stroke="black" points="2260.19,-630.57 2252.51,-623.26 2253.96,-633.76 2260.19,-630.57"/>
</g>
<!-- 57 -->
<g id="node59" class="node">
<title>57</title>
<ellipse fill="none" stroke="black" cx="1799" cy="-2421.75" rx="46.29" ry="18"/>
<text text-anchor="middle" x="1799" y="-2418.05" font-family="Times New Roman,serif" font-size="14.00">interface3</text>
</g>
<!-- 28&#45;&gt;57 -->
<g id="edge73" class="edge">
<title>28&#45;&gt;57</title>
<path fill="none" stroke="black" d="M1898.21,-2495.4C1890.25,-2488.71 1881.96,-2481.94 1874,-2475.75 1859.85,-2464.75 1843.67,-2453.2 1829.97,-2443.69"/>
<polygon fill="black" stroke="black" points="1831.59,-2440.56 1821.37,-2437.77 1827.62,-2446.33 1831.59,-2440.56"/>
</g>
<!-- 45&#45;&gt;30 -->
<g id="edge122" class="edge">
<title>45&#45;&gt;30</title>
<path fill="none" stroke="black" d="M1276.09,-1743.98C1284.22,-1752.4 1293.35,-1762.79 1300.91,-1772.16"/>
<polygon fill="black" stroke="black" points="1298.17,-1774.34 1307.08,-1780.06 1303.68,-1770.02 1298.17,-1774.34"/>
</g>
<!-- 45&#45;&gt;68 -->
<g id="edge121" class="edge">
<title>45&#45;&gt;68</title>
<path fill="none" stroke="black" d="M1189.73,-1713.33C1116.71,-1699.36 1001.75,-1676.65 941.21,-1664.21"/>
<polygon fill="black" stroke="black" points="941.77,-1660.75 931.27,-1662.16 940.36,-1667.61 941.77,-1660.75"/>
</g>
<!-- 33 -->
<g id="node61" class="node">
<title>33</title>
<ellipse fill="none" stroke="red" cx="1844" cy="-2801.73" rx="100.18" ry="18"/>
<text text-anchor="middle" x="1844" y="-2798.03" font-family="Times New Roman,serif" font-size="14.00">executionEnvironment10</text>
</g>
<!-- 33&#45;&gt;0 -->
<g id="edge85" class="edge">
<title>33&#45;&gt;0</title>
<path fill="none" stroke="black" d="M1860.55,-2783.78C1881.06,-2762.75 1916.16,-2726.78 1939.47,-2702.9"/>
<polygon fill="black" stroke="black" points="1942.11,-2705.2 1946.59,-2695.6 1937.1,-2700.31 1942.11,-2705.2"/>
</g>
<!-- 33&#45;&gt;29 -->
<g id="edge86" class="edge">
<title>33&#45;&gt;29</title>
<path fill="none" stroke="black" d="M1832.29,-2783.64C1809.8,-2749.66 1761.28,-2670.45 1744,-2595.54 1724.84,-2512.48 1729.31,-2487.72 1744,-2403.75 1777.16,-2214.14 1818.25,-2174.57 1891,-1996.36 1940.69,-1874.65 2014,-1858.82 2014,-1727.36 2014,-1727.36 2014,-1727.36 2014,-1485.01 2014,-1369.16 2009.96,-1326.95 1939,-1235.37 1896.83,-1180.96 1709.98,-1090.24 1632.18,-1054.02"/>
<polygon fill="black" stroke="black" points="1633.36,-1050.71 1622.81,-1049.67 1630.41,-1057.06 1633.36,-1050.71"/>
</g>
<!-- 39&#45;&gt;74 -->
<g id="edge103" class="edge">
<title>39&#45;&gt;74</title>
<path fill="none" stroke="black" d="M2365.82,-315.93C2344.93,-343.02 2298,-396.73 2268.44,-427.58"/>
<polygon fill="black" stroke="black" points="2265.78,-425.29 2261.32,-434.9 2270.8,-430.17 2265.78,-425.29"/>
</g>
<!-- 39&#45;&gt;35 -->
<g id="edge104" class="edge">
<title>39&#45;&gt;35</title>
<path fill="none" stroke="black" d="M2377.57,-279.96C2380.11,-270.98 2384.1,-259.48 2388.61,-247.86"/>
<polygon fill="black" stroke="black" points="2391.86,-249.15 2392.31,-238.57 2385.36,-246.56 2391.86,-249.15"/>
</g>
<!-- 39&#45;&gt;50 -->
<g id="edge105" class="edge">
<title>39&#45;&gt;50</title>
<path fill="none" stroke="black" d="M2382.56,-316.12C2393.58,-362.16 2410,-494.1 2410,-604.37 2410,-1110.37 2410,-1110.37 2410,-1110.37 2410,-1235.21 2372,-1263.83 2372,-1388.67 2372,-1799.36 2372,-1799.36 2372,-1799.36 2372,-1847.99 2334.45,-1894.01 2306.13,-1919.86"/>
<polygon fill="black" stroke="black" points="2303.65,-1917.38 2298.43,-1926.6 2308.26,-1922.65 2303.65,-1917.38"/>
</g>
<!-- 36 -->
<g id="node63" class="node">
<title>36</title>
<ellipse fill="none" stroke="red" cx="1626" cy="-1870.36" rx="95.58" ry="18"/>
<text text-anchor="middle" x="1626" y="-1866.66" font-family="Times New Roman,serif" font-size="14.00">executionEnvironment9</text>
</g>
<!-- 36&#45;&gt;30 -->
<g id="edge94" class="edge">
<title>36&#45;&gt;30</title>
<path fill="none" stroke="black" d="M1567.33,-1856.11C1504.3,-1841.88 1406.07,-1819.7 1353.01,-1807.72"/>
<polygon fill="black" stroke="black" points="1353.55,-1804.25 1343.02,-1805.46 1352,-1811.08 1353.55,-1804.25"/>
</g>
<!-- 36&#45;&gt;53 -->
<g id="edge96" class="edge">
<title>36&#45;&gt;53</title>
<path fill="none" stroke="black" d="M1619.54,-1852.19C1600.71,-1803.58 1542.26,-1662.23 1464,-1564.36 1446.29,-1542.21 1421.61,-1521.52 1402.57,-1507.13"/>
<polygon fill="black" stroke="black" points="1404.65,-1504.31 1394.53,-1501.16 1400.48,-1509.93 1404.65,-1504.31"/>
</g>
<!-- 36&#45;&gt;25 -->
<g id="edge93" class="edge">
<title>36&#45;&gt;25</title>
<path fill="none" stroke="black" d="M1544.1,-1860.97C1473.48,-1852.75 1369.12,-1838.24 1280,-1816.36 1087.95,-1769.2 999.32,-1811.71 859,-1672.36 757.13,-1571.2 847.89,-1467.51 741,-1371.67 708.62,-1342.63 682.32,-1364.78 650,-1335.67 592.9,-1284.23 570,-1259.22 570,-1182.37 570,-1182.37 570,-1182.37 570,-748.37 570,-708.23 574.82,-661.92 578.35,-633.4"/>
<polygon fill="black" stroke="black" points="581.84,-633.75 579.63,-623.38 574.89,-632.86 581.84,-633.75"/>
</g>
<!-- 36&#45;&gt;74 -->
<g id="edge92" class="edge">
<title>36&#45;&gt;74</title>
<path fill="none" stroke="black" d="M1645.88,-1852.43C1760.12,-1754.34 2328,-1255.8 2328,-1038.37 2328,-1038.37 2328,-1038.37 2328,-676.37 2328,-600.11 2284.24,-518.19 2259.51,-478.01"/>
<polygon fill="black" stroke="black" points="2262.39,-476.01 2254.11,-469.4 2256.46,-479.73 2262.39,-476.01"/>
</g>
<!-- 36&#45;&gt;12 -->
<g id="edge95" class="edge">
<title>36&#45;&gt;12</title>
<path fill="none" stroke="black" d="M1703.76,-1859.81C1823.37,-1845.12 2048.98,-1817.42 2147.69,-1805.29"/>
<polygon fill="black" stroke="black" points="2148.19,-1808.76 2157.69,-1804.06 2147.34,-1801.81 2148.19,-1808.76"/>
</g>
<!-- 40 -->
<g id="node64" class="node">
<title>40</title>
<ellipse fill="none" stroke="red" cx="2123" cy="-2801.73" rx="37.88" ry="37.88"/>
<ellipse fill="none" stroke="red" cx="2123" cy="-2801.73" rx="41.89" ry="41.89"/>
<text text-anchor="middle" x="2123" y="-2798.03" font-family="Times New Roman,serif" font-size="14.00">model4</text>
</g>
<!-- 63 -->
<g id="node65" class="node">
<title>63</title>
<ellipse fill="none" stroke="black" cx="2123" cy="-2677.79" rx="42.47" ry="42.47"/>
<ellipse fill="none" stroke="black" cx="2123" cy="-2677.79" rx="46.49" ry="46.49"/>
<text text-anchor="middle" x="2123" y="-2674.09" font-family="Times New Roman,serif" font-size="14.00">model11</text>
</g>
<!-- 40&#45;&gt;63 -->
<g id="edge106" class="edge">
<title>40&#45;&gt;63</title>
<path fill="none" stroke="black" d="M2123,-2759.79C2123,-2751.72 2123,-2743.13 2123,-2734.67"/>
<polygon fill="black" stroke="black" points="2126.5,-2734.45 2123,-2724.45 2119.5,-2734.45 2126.5,-2734.45"/>
</g>
<!-- 41 -->
<g id="node66" class="node">
<title>41</title>
<ellipse fill="none" stroke="red" cx="514" cy="-2677.79" rx="42.79" ry="18"/>
<text text-anchor="middle" x="514" y="-2674.09" font-family="Times New Roman,serif" font-size="14.00">device10</text>
</g>
<!-- 41&#45;&gt;52 -->
<g id="edge110" class="edge">
<title>41&#45;&gt;52</title>
<path fill="none" stroke="black" d="M557.01,-2676.17C787.86,-2672.6 1874.61,-2652.85 2012,-2595.54 2029.81,-2588.12 2045.91,-2573.61 2057.63,-2560.86"/>
<polygon fill="black" stroke="black" points="2060.37,-2563.04 2064.34,-2553.22 2055.11,-2558.42 2060.37,-2563.04"/>
</g>
<!-- 41&#45;&gt;26 -->
<g id="edge111" class="edge">
<title>41&#45;&gt;26</title>
<path fill="none" stroke="black" d="M514,-2659.54C514,-2618.51 514,-2511.84 514,-2422.75 514,-2422.75 514,-2422.75 514,-1869.36 514,-1648.14 486.5,-1590.18 521,-1371.67 550.4,-1185.47 646,-1154.88 646,-966.37 646,-966.37 646,-966.37 646,-892.37 646,-714 797.28,-537.1 855.52,-475.6"/>
<polygon fill="black" stroke="black" points="858.39,-477.66 862.78,-468.02 853.33,-472.82 858.39,-477.66"/>
</g>
<!-- 41&#45;&gt;7 -->
<g id="edge107" class="edge">
<title>41&#45;&gt;7</title>
<path fill="none" stroke="black" d="M478.21,-2667.79C396.23,-2647.15 201.61,-2597.97 199,-2595.54 73.85,-2479.25 76,-2402.2 76,-2231.36 76,-2231.36 76,-2231.36 76,-676.37 76,-550.58 240.51,-491.63 340.66,-467.4"/>
<polygon fill="black" stroke="black" points="341.51,-470.79 350.44,-465.09 339.91,-463.98 341.51,-470.79"/>
</g>
<!-- 41&#45;&gt;57 -->
<g id="edge108" class="edge">
<title>41&#45;&gt;57</title>
<path fill="none" stroke="black" d="M552.11,-2669.26C736.85,-2632.73 1538.88,-2474.18 1748.64,-2432.71"/>
<polygon fill="black" stroke="black" points="1749.62,-2436.08 1758.75,-2430.71 1748.26,-2429.22 1749.62,-2436.08"/>
</g>
<!-- 41&#45;&gt;43 -->
<g id="edge109" class="edge">
<title>41&#45;&gt;43</title>
<path fill="none" stroke="black" d="M478.71,-2667.47C394.74,-2642.94 190,-2568.21 190,-2422.75 190,-2422.75 190,-2422.75 190,-2013.36 190,-1916.76 152,-1895.96 152,-1799.36 152,-1799.36 152,-1799.36 152,-1581.36 152,-1392.73 342.76,-1433.41 521,-1371.67 622.09,-1336.65 677.05,-1404.43 759,-1335.67 820.9,-1283.73 766.78,-1226.67 817,-1163.37 860.34,-1108.74 934.56,-1071.75 979.95,-1052.92"/>
<polygon fill="black" stroke="black" points="981.5,-1056.07 989.45,-1049.07 978.87,-1049.58 981.5,-1056.07"/>
</g>
<!-- 43&#45;&gt;70 -->
<g id="edge114" class="edge">
<title>43&#45;&gt;70</title>
<path fill="none" stroke="black" d="M1056.29,-1042.1C1168.05,-1053.83 1499.12,-1090.02 1616.91,-1103.37"/>
<polygon fill="black" stroke="black" points="1616.65,-1106.86 1626.98,-1104.51 1617.44,-1099.9 1616.65,-1106.86"/>
</g>
<!-- 43&#45;&gt;15 -->
<g id="edge115" class="edge">
<title>43&#45;&gt;15</title>
<path fill="none" stroke="black" d="M981.88,-1032.26C872.92,-1020.17 554.08,-984.8 434.24,-971.5"/>
<polygon fill="black" stroke="black" points="434.61,-968.02 424.28,-970.4 433.83,-974.98 434.61,-968.02"/>
</g>
<!-- 72&#45;&gt;44 -->
<g id="edge193" class="edge">
<title>72&#45;&gt;44</title>
<path fill="none" stroke="black" d="M2092.06,-623.67C2086.98,-632.38 2079.82,-643.08 2072.77,-652.56"/>
<polygon fill="black" stroke="black" points="2069.98,-650.43 2066.65,-660.49 2075.53,-654.71 2069.98,-650.43"/>
</g>
<!-- 72&#45;&gt;50 -->
<g id="edge194" class="edge">
<title>72&#45;&gt;50</title>
<path fill="none" stroke="black" d="M2113.49,-622.32C2131.65,-647.91 2158,-700.18 2158,-748.37 2158,-822.37 2158,-822.37 2158,-822.37 2158,-978.46 2216.9,-1009.32 2242,-1163.37 2277.13,-1379.03 2282,-1434.86 2282,-1653.36 2282,-1799.36 2282,-1799.36 2282,-1799.36 2282,-1839.37 2283.21,-1885.71 2281.8,-1914.28"/>
<polygon fill="black" stroke="black" points="2278.3,-1914.1 2281.12,-1924.31 2285.28,-1914.57 2278.3,-1914.1"/>
</g>
<!-- 51 -->
<g id="node69" class="node">
<title>51</title>
<ellipse fill="none" stroke="red" cx="656" cy="-1726.36" rx="38.19" ry="18"/>
<text text-anchor="middle" x="656" y="-1722.66" font-family="Times New Roman,serif" font-size="14.00">device2</text>
</g>
<!-- 51&#45;&gt;68 -->
<g id="edge133" class="edge">
<title>51&#45;&gt;68</title>
<path fill="none" stroke="black" d="M688.03,-1716.21C732.96,-1703.37 814.56,-1680.06 862.66,-1666.31"/>
<polygon fill="black" stroke="black" points="863.74,-1669.65 872.39,-1663.53 861.81,-1662.92 863.74,-1669.65"/>
</g>
<!-- 51&#45;&gt;66 -->
<g id="edge134" class="edge">
<title>51&#45;&gt;66</title>
<path fill="none" stroke="black" d="M631.37,-1712.36C613.74,-1702.51 589.87,-1688.02 571,-1672.36 540.28,-1646.86 343.96,-1444.26 328,-1407.67 253.09,-1235.88 273.37,-1001.23 283.18,-921.88"/>
<polygon fill="black" stroke="black" points="286.68,-922.1 284.48,-911.73 279.73,-921.21 286.68,-922.1"/>
</g>
<!-- 54 -->
<g id="node70" class="node">
<title>54</title>
<ellipse fill="none" stroke="red" cx="613" cy="-1654.36" rx="33.29" ry="18"/>
<text text-anchor="middle" x="613" y="-1650.66" font-family="Times New Roman,serif" font-size="14.00">node9</text>
</g>
<!-- 54&#45;&gt;22 -->
<g id="edge143" class="edge">
<title>54&#45;&gt;22</title>
<path fill="none" stroke="black" d="M583.82,-1645.53C543.12,-1634.62 468.28,-1614.55 414.64,-1600.16"/>
<polygon fill="black" stroke="black" points="415.45,-1596.75 404.88,-1597.54 413.63,-1603.51 415.45,-1596.75"/>
</g>
<!-- 54&#45;&gt;2 -->
<g id="edge141" class="edge">
<title>54&#45;&gt;2</title>
<path fill="none" stroke="black" d="M645.14,-1649.84C712.24,-1642.32 872.04,-1623.44 1005,-1600.36 1018.14,-1598.08 1032.4,-1595.18 1045.19,-1592.43"/>
<polygon fill="black" stroke="black" points="1046.07,-1595.82 1055.09,-1590.27 1044.58,-1588.99 1046.07,-1595.82"/>
</g>
<!-- 54&#45;&gt;13 -->
<g id="edge144" class="edge">
<title>54&#45;&gt;13</title>
<path fill="none" stroke="black" d="M612.96,-1636.32C612.53,-1618.18 610.71,-1588.77 604,-1564.36 591.86,-1520.21 500.91,-1406.19 531,-1371.67 569.47,-1327.53 739.21,-1360.98 792,-1335.67 804.25,-1329.79 815.53,-1319.97 824.42,-1310.64"/>
<polygon fill="black" stroke="black" points="827.2,-1312.78 831.3,-1303.02 822,-1308.09 827.2,-1312.78"/>
</g>
<!-- 54&#45;&gt;25 -->
<g id="edge142" class="edge">
<title>54&#45;&gt;25</title>
<path fill="none" stroke="black" d="M605.34,-1636.8C596.65,-1618.55 581.64,-1588.58 566,-1564.36 555,-1547.33 548.77,-1545.53 538,-1528.36 375.5,-1269.2 302.6,-1209.24 233,-911.37 197.45,-759.25 416.54,-662.45 524.49,-624.55"/>
<polygon fill="black" stroke="black" points="525.64,-627.85 533.95,-621.28 523.35,-621.24 525.64,-627.85"/>
</g>
<!-- 58 -->
<g id="node71" class="node">
<title>58</title>
<ellipse fill="none" stroke="red" cx="1204" cy="-1389.67" rx="55.79" ry="18"/>
<text text-anchor="middle" x="1204" y="-1385.97" font-family="Times New Roman,serif" font-size="14.00">component7</text>
</g>
<!-- 58&#45;&gt;4 -->
<g id="edge154" class="edge">
<title>58&#45;&gt;4</title>
<path fill="none" stroke="black" d="M1188.03,-1372.4C1158.28,-1342.66 1091.49,-1278.61 1027,-1235.37 1008.57,-1223.02 986.88,-1211.61 968,-1202.56"/>
<polygon fill="black" stroke="black" points="969.24,-1199.28 958.71,-1198.18 966.26,-1205.61 969.24,-1199.28"/>
</g>
<!-- 58&#45;&gt;42 -->
<g id="edge153" class="edge">
<title>58&#45;&gt;42</title>
<path fill="none" stroke="black" d="M1204.1,-1371.52C1204.52,-1302.62 1206,-1039.16 1206,-822.37 1206,-822.37 1206,-822.37 1206,-748.37 1206,-616.99 1213,-584.22 1213,-452.83 1213,-452.83 1213,-452.83 1213,-297.29 1213,-150.54 997.08,-108.05 883.31,-95.85"/>
<polygon fill="black" stroke="black" points="883.6,-92.36 873.3,-94.83 882.89,-99.33 883.6,-92.36"/>
</g>
<!-- 58&#45;&gt;56 -->
<g id="edge152" class="edge">
<title>58&#45;&gt;56</title>
<path fill="none" stroke="black" d="M1227.69,-1373.15C1254.38,-1355.68 1297.9,-1327.18 1327.69,-1307.67"/>
<polygon fill="black" stroke="black" points="1329.64,-1310.59 1336.08,-1302.18 1325.8,-1304.73 1329.64,-1310.59"/>
</g>
<!-- 58&#45;&gt;10 -->
<g id="edge151" class="edge">
<title>58&#45;&gt;10</title>
<path fill="none" stroke="black" d="M1254.5,-1381.84C1281.34,-1378.4 1314.92,-1374.39 1345,-1371.67 1410.85,-1365.71 1883.82,-1372.1 1939,-1335.67 1992.23,-1300.52 2196,-886.16 2196,-822.37 2196,-822.37 2196,-822.37 2196,-748.37 2196,-706.1 2215.01,-660.16 2228.85,-632.32"/>
<polygon fill="black" stroke="black" points="2232.04,-633.76 2233.49,-623.26 2225.81,-630.57 2232.04,-633.76"/>
</g>
<!-- 58&#45;&gt;20 -->
<g id="edge150" class="edge">
<title>58&#45;&gt;20</title>
<path fill="none" stroke="black" d="M1173.05,-1374.68C1131.72,-1356 1058.6,-1322.95 1014.59,-1303.06"/>
<polygon fill="black" stroke="black" points="1015.95,-1299.83 1005.4,-1298.9 1013.07,-1306.21 1015.95,-1299.83"/>
</g>
<!-- 69&#45;&gt;59 -->
<g id="edge186" class="edge">
<title>69&#45;&gt;59</title>
<path fill="none" stroke="black" d="M1015.87,-1503.89C1007.39,-1518.84 992.69,-1540.84 980.09,-1557.57"/>
<polygon fill="black" stroke="black" points="977.09,-1555.73 973.73,-1565.78 982.62,-1560.01 977.09,-1555.73"/>
</g>
<!-- 61 -->
<g id="node73" class="node">
<title>61</title>
<ellipse fill="none" stroke="red" cx="922" cy="-1389.67" rx="40.09" ry="18"/>
<text text-anchor="middle" x="922" y="-1385.97" font-family="Times New Roman,serif" font-size="14.00">artifact1</text>
</g>
<!-- 61&#45;&gt;4 -->
<g id="edge165" class="edge">
<title>61&#45;&gt;4</title>
<path fill="none" stroke="black" d="M922,-1371.43C922,-1335.55 922,-1252.56 922,-1209.46"/>
<polygon fill="black" stroke="black" points="925.5,-1209.41 922,-1199.41 918.5,-1209.41 925.5,-1209.41"/>
</g>
<!-- 61&#45;&gt;13 -->
<g id="edge164" class="edge">
<title>61&#45;&gt;13</title>
<path fill="none" stroke="black" d="M909.47,-1372.26C896.85,-1355.73 877.22,-1330.02 862.75,-1311.07"/>
<polygon fill="black" stroke="black" points="865.35,-1308.72 856.5,-1302.89 859.79,-1312.96 865.35,-1308.72"/>
</g>
<!-- 61&#45;&gt;6 -->
<g id="edge162" class="edge">
<title>61&#45;&gt;6</title>
<path fill="none" stroke="black" d="M882.49,-1385.88C830.58,-1381.03 737.52,-1368.24 665,-1335.67 539.81,-1279.43 170,-1103.61 170,-966.37 170,-966.37 170,-966.37 170,-892.37 170,-770.91 0,-799.84 0,-678.37 0,-678.37 0,-678.37 0,-193.15 0,-36.03 586.53,-20.16 764.45,-18.96"/>
<polygon fill="black" stroke="black" points="764.6,-22.46 774.58,-18.91 764.57,-15.46 764.6,-22.46"/>
</g>
<!-- 61&#45;&gt;56 -->
<g id="edge163" class="edge">
<title>61&#45;&gt;56</title>
<path fill="none" stroke="black" d="M957.1,-1380.48C1032.92,-1362.8 1212.53,-1320.91 1304.15,-1299.55"/>
<polygon fill="black" stroke="black" points="1305.13,-1302.91 1314.07,-1297.23 1303.54,-1296.09 1305.13,-1302.91"/>
</g>
<!-- 62 -->
<g id="node74" class="node">
<title>62</title>
<ellipse fill="none" stroke="red" cx="712" cy="-1285.52" rx="37.89" ry="18"/>
<text text-anchor="middle" x="712" y="-1281.82" font-family="Times New Roman,serif" font-size="14.00">node10</text>
</g>
<!-- 62&#45;&gt;14 -->
<g id="edge168" class="edge">
<title>62&#45;&gt;14</title>
<path fill="none" stroke="black" d="M721.59,-1267.83C772.34,-1179.3 1008.98,-763.35 1056,-623.37 1062.65,-603.59 1067.82,-581.98 1071.83,-560.99"/>
<polygon fill="black" stroke="black" points="1075.29,-561.55 1073.65,-551.08 1068.41,-560.28 1075.29,-561.55"/>
</g>
<!-- 62&#45;&gt;4 -->
<g id="edge169" class="edge">
<title>62&#45;&gt;4</title>
<path fill="none" stroke="black" d="M733.96,-1270.82C750.89,-1260.51 775.03,-1246.33 797,-1235.37 821.47,-1223.17 849.44,-1211.14 872.7,-1201.64"/>
<polygon fill="black" stroke="black" points="874.07,-1204.86 882.03,-1197.86 871.44,-1198.37 874.07,-1204.86"/>
</g>
<!-- 62&#45;&gt;7 -->
<g id="edge166" class="edge">
<title>62&#45;&gt;7</title>
<path fill="none" stroke="black" d="M702.4,-1267.91C676.66,-1221.73 608,-1087.24 608,-966.37 608,-966.37 608,-966.37 608,-892.37 608,-758.61 524.33,-746.9 473,-623.37 452.37,-573.74 433.71,-513.72 423.7,-479.74"/>
<polygon fill="black" stroke="black" points="427.04,-478.69 420.87,-470.07 420.32,-480.65 427.04,-478.69"/>
</g>
<!-- 62&#45;&gt;25 -->
<g id="edge167" class="edge">
<title>62&#45;&gt;25</title>
<path fill="none" stroke="black" d="M713.65,-1267.24C716.49,-1235.97 722,-1167.91 722,-1110.37 722,-1110.37 722,-1110.37 722,-892.37 722,-786.25 643.27,-678.46 603.89,-631.18"/>
<polygon fill="black" stroke="black" points="606.38,-628.7 597.25,-623.33 601.04,-633.23 606.38,-628.7"/>
</g>
<!-- 71 -->
<g id="node75" class="node">
<title>71</title>
<ellipse fill="none" stroke="red" cx="1223" cy="-1870.36" rx="40.09" ry="18"/>
<text text-anchor="middle" x="1223" y="-1866.66" font-family="Times New Roman,serif" font-size="14.00">artifact7</text>
</g>
<!-- 71&#45;&gt;30 -->
<g id="edge192" class="edge">
<title>71&#45;&gt;30</title>
<path fill="none" stroke="black" d="M1242.72,-1854.51C1255.38,-1844.99 1272.06,-1832.44 1286.3,-1821.71"/>
<polygon fill="black" stroke="black" points="1288.47,-1824.46 1294.36,-1815.65 1284.26,-1818.87 1288.47,-1824.46"/>
</g>
<!-- 71&#45;&gt;69 -->
<g id="edge191" class="edge">
<title>71&#45;&gt;69</title>
<path fill="none" stroke="black" d="M1210.74,-1852.99C1194.22,-1830.02 1165.26,-1786.33 1151,-1744.36 1125.03,-1667.94 1168.09,-1633.82 1127,-1564.36 1111.53,-1538.21 1083.43,-1518.22 1060.19,-1505.12"/>
<polygon fill="black" stroke="black" points="1061.69,-1501.96 1051.23,-1500.27 1058.36,-1508.11 1061.69,-1501.96"/>
</g>
<!-- 73 -->
<g id="node76" class="node">
<title>73</title>
<ellipse fill="none" stroke="red" cx="845" cy="-2535.65" rx="55.79" ry="18"/>
<text text-anchor="middle" x="845" y="-2531.95" font-family="Times New Roman,serif" font-size="14.00">component0</text>
</g>
<!-- 73&#45;&gt;24 -->
<g id="edge195" class="edge">
<title>73&#45;&gt;24</title>
<path fill="none" stroke="black" d="M860.27,-2518.06C889.39,-2484.63 950,-2405.61 950,-2327.06 950,-2327.06 950,-2327.06 950,-2013.36 950,-1948.28 1025.06,-1905.46 1071.71,-1885.12"/>
<polygon fill="black" stroke="black" points="1073.34,-1888.23 1081.2,-1881.12 1070.62,-1881.78 1073.34,-1888.23"/>
</g>
<!-- 73&#45;&gt;38 -->
<g id="edge196" class="edge">
<title>73&#45;&gt;38</title>
<path fill="none" stroke="black" d="M811.69,-2521.15C668.69,-2460.79 114,-2200.77 114,-1799.36 114,-1799.36 114,-1799.36 114,-1581.36 114,-1286.69 121.39,-1175.43 308,-947.37 320.17,-932.5 337.62,-920.27 353.11,-911.32"/>
<polygon fill="black" stroke="black" points="354.9,-914.33 361.96,-906.43 351.51,-908.21 354.9,-914.33"/>
</g>
<!-- 73&#45;&gt;65 -->
<g id="edge198" class="edge">
<title>73&#45;&gt;65</title>
<path fill="none" stroke="black" d="M898.38,-2530.12C1048.81,-2517.27 1489.03,-2478.91 1854,-2439.75 1880.18,-2436.94 1909.05,-2433.52 1933.82,-2430.48"/>
<polygon fill="black" stroke="black" points="1934.3,-2433.95 1943.8,-2429.25 1933.45,-2427 1934.3,-2433.95"/>
</g>
<!-- 73&#45;&gt;15 -->
<g id="edge199" class="edge">
<title>73&#45;&gt;15</title>
<path fill="none" stroke="black" d="M835.95,-2517.66C801.54,-2453.99 673.45,-2225.17 528,-2068.36 397.44,-1927.6 190,-1991.35 190,-1799.36 190,-1799.36 190,-1799.36 190,-1388.67 190,-1222.78 316.8,-1051.96 367.46,-990.34"/>
<polygon fill="black" stroke="black" points="370.37,-992.3 374.08,-982.38 364.99,-987.83 370.37,-992.3"/>
</g>
<!-- 73&#45;&gt;23 -->
<g id="edge200" class="edge">
<title>73&#45;&gt;23</title>
<path fill="none" stroke="black" d="M841.56,-2517.66C835.42,-2487.32 822.36,-2422.74 813.14,-2377.19"/>
<polygon fill="black" stroke="black" points="816.54,-2376.31 811.12,-2367.2 809.67,-2377.7 816.54,-2376.31"/>
</g>
<!-- 73&#45;&gt;69 -->
<g id="edge197" class="edge">
<title>73&#45;&gt;69</title>
<path fill="none" stroke="black" d="M849.03,-2517.54C857,-2482.18 874,-2398.38 874,-2327.06 874,-2327.06 874,-2327.06 874,-1869.36 874,-1736.38 959.06,-1725.15 1005,-1600.36 1015.39,-1572.15 1019.43,-1537.76 1021.01,-1514.31"/>
<polygon fill="black" stroke="black" points="1024.52,-1514.24 1021.58,-1504.06 1017.53,-1513.85 1024.52,-1514.24"/>
</g>
</g>
</svg>
