<?xml version="1.0" encoding="UTF-8" standalone="no"?>
<!DOCTYPE svg PUBLIC "-//W3C//DTD SVG 1.1//EN"
 "http://www.w3.org/Graphics/SVG/1.1/DTD/svg11.dtd">
<!-- Generated by graphviz version 2.49.3 (20211023.0002)
 -->
<!-- Title: test Pages: 1 -->
<svg width="3133pt" height="1935pt"
 viewBox="0.00 0.00 3132.85 1935.08" xmlns="http://www.w3.org/2000/svg" xmlns:xlink="http://www.w3.org/1999/xlink">
<g id="graph0" class="graph" transform="scale(1 1) rotate(0) translate(4 1931.08)">
<title>test</title>
<polygon fill="white" stroke="transparent" points="-4,4 -4,-1931.08 3128.85,-1931.08 3128.85,4 -4,4"/>
<!-- 0 -->
<g id="node1" class="node">
<title>0</title>
<ellipse fill="none" stroke="black" cx="2614" cy="-963.54" rx="40.09" ry="18"/>
<text text-anchor="middle" x="2614" y="-959.84" font-family="Times New Roman,serif" font-size="14.00">artifact7</text>
</g>
<!-- 41 -->
<g id="node2" class="node">
<title>41</title>
<ellipse fill="none" stroke="black" cx="2883" cy="-810" rx="40.09" ry="18"/>
<text text-anchor="middle" x="2883" y="-806.3" font-family="Times New Roman,serif" font-size="14.00">artifact3</text>
</g>
<!-- 0&#45;&gt;41 -->
<g id="edge1" class="edge">
<title>0&#45;&gt;41</title>
<path fill="none" stroke="black" d="M2625.03,-945.96C2640.53,-923.97 2670.82,-885.42 2706,-864 2756.48,-833.27 2777.61,-845.69 2834,-828 2836.91,-827.09 2839.91,-826.12 2842.93,-825.12"/>
<polygon fill="black" stroke="black" points="2844.15,-828.4 2852.51,-821.89 2841.92,-821.77 2844.15,-828.4"/>
</g>
<!-- 47 -->
<g id="node3" class="node">
<title>47</title>
<ellipse fill="none" stroke="black" cx="2571" cy="-810" rx="44.39" ry="18"/>
<text text-anchor="middle" x="2571" y="-806.3" font-family="Times New Roman,serif" font-size="14.00">artifact11</text>
</g>
<!-- 0&#45;&gt;47 -->
<g id="edge2" class="edge">
<title>0&#45;&gt;47</title>
<path fill="none" stroke="black" d="M2604.8,-945.74C2594.7,-919.83 2580.2,-869.81 2573.47,-838.54"/>
<polygon fill="black" stroke="black" points="2576.82,-837.46 2571.43,-828.34 2569.96,-838.83 2576.82,-837.46"/>
</g>
<!-- 71 -->
<g id="node4" class="node">
<title>71</title>
<ellipse fill="none" stroke="black" cx="2729" cy="-810" rx="95.58" ry="18"/>
<text text-anchor="middle" x="2729" y="-806.3" font-family="Times New Roman,serif" font-size="14.00">executionEnvironment1</text>
</g>
<!-- 0&#45;&gt;71 -->
<g id="edge3" class="edge">
<title>0&#45;&gt;71</title>
<path fill="none" stroke="black" d="M2614.78,-945.39C2621.2,-924.8 2638.19,-889.82 2659,-864 2668,-852.84 2679.53,-842.14 2690.72,-833.32"/>
<polygon fill="black" stroke="black" points="2692.89,-836.06 2698.76,-827.24 2688.67,-830.48 2692.89,-836.06"/>
</g>
<!-- 47&#45;&gt;0 -->
<g id="edge133" class="edge">
<title>47&#45;&gt;0</title>
<path fill="none" stroke="black" d="M2580.2,-827.8C2590.33,-853.79 2604.88,-904.01 2611.59,-935.26"/>
<polygon fill="black" stroke="black" points="2608.23,-936.33 2613.61,-945.45 2615.1,-934.96 2608.23,-936.33"/>
</g>
<!-- 71&#45;&gt;0 -->
<g id="edge197" class="edge">
<title>71&#45;&gt;0</title>
<path fill="none" stroke="black" d="M2713.76,-827.94C2702.57,-837.6 2687.92,-850.46 2677,-864 2658.63,-886.79 2643.25,-916.71 2631.85,-937.58"/>
<polygon fill="black" stroke="black" points="2628.7,-936.03 2626.89,-946.47 2634.82,-939.44 2628.7,-936.03"/>
</g>
<!-- 1 -->
<g id="node5" class="node">
<title>1</title>
<path fill="none" stroke="black" d="M955.5,-1347.81C955.5,-1349.62 922.56,-1351.08 882,-1351.08 841.44,-1351.08 808.5,-1349.62 808.5,-1347.81 808.5,-1347.81 808.5,-1318.36 808.5,-1318.36 808.5,-1316.55 841.44,-1315.08 882,-1315.08 922.56,-1315.08 955.5,-1316.55 955.5,-1318.36 955.5,-1318.36 955.5,-1347.81 955.5,-1347.81"/>
<path fill="none" stroke="black" d="M955.5,-1347.81C955.5,-1346 922.56,-1344.54 882,-1344.54 841.44,-1344.54 808.5,-1346 808.5,-1347.81"/>
<text text-anchor="middle" x="882" y="-1329.38" font-family="Times New Roman,serif" font-size="14.00">executionEnvironment0</text>
</g>
<!-- 1&#45;&gt;1 -->
<g id="edge4" class="edge">
<title>1&#45;&gt;1</title>
<path fill="none" stroke="black" d="M955.59,-1345.26C966.29,-1343.33 973.5,-1339.27 973.5,-1333.08 973.5,-1329.02 970.4,-1325.88 965.24,-1323.65"/>
<polygon fill="black" stroke="black" points="966.17,-1320.28 955.59,-1320.9 964.25,-1327.01 966.17,-1320.28"/>
</g>
<!-- 42 -->
<g id="node6" class="node">
<title>42</title>
<ellipse fill="none" stroke="black" cx="1227" cy="-1405.08" rx="33.29" ry="18"/>
<text text-anchor="middle" x="1227" y="-1401.38" font-family="Times New Roman,serif" font-size="14.00">node1</text>
</g>
<!-- 1&#45;&gt;42 -->
<g id="edge5" class="edge">
<title>1&#45;&gt;42</title>
<path fill="none" stroke="black" d="M955.52,-1347.88C1026.33,-1361.87 1130.68,-1383.09 1187.22,-1395.06"/>
<polygon fill="black" stroke="black" points="1186.69,-1398.52 1197.2,-1397.18 1188.15,-1391.68 1186.69,-1398.52"/>
</g>
<!-- 3 -->
<g id="node7" class="node">
<title>3</title>
<ellipse fill="none" stroke="red" cx="544" cy="-666" rx="38.19" ry="18"/>
<text text-anchor="middle" x="544" y="-662.3" font-family="Times New Roman,serif" font-size="14.00">device8</text>
</g>
<!-- 1&#45;&gt;3 -->
<g id="edge6" class="edge">
<title>1&#45;&gt;3</title>
<path fill="none" stroke="black" d="M808.44,-1330.88C640.38,-1326.43 236.78,-1305.5 154,-1207.08 140.82,-1191.42 82.77,-1020.25 185,-864 258.71,-751.34 420.33,-696.56 499.18,-676.43"/>
<polygon fill="black" stroke="black" points="500.42,-679.73 509.29,-673.93 498.74,-672.94 500.42,-679.73"/>
</g>
<!-- 35 -->
<g id="node8" class="node">
<title>35</title>
<ellipse fill="none" stroke="red" cx="762" cy="-810" rx="95.58" ry="18"/>
<text text-anchor="middle" x="762" y="-806.3" font-family="Times New Roman,serif" font-size="14.00">executionEnvironment9</text>
</g>
<!-- 1&#45;&gt;35 -->
<g id="edge7" class="edge">
<title>1&#45;&gt;35</title>
<path fill="none" stroke="black" d="M875.3,-1315.04C870.56,-1288.39 868,-1235.23 868,-1190.08 868,-1190.08 868,-1190.08 868,-1116.08 868,-1006.54 802.28,-888.27 774.09,-837.07"/>
<polygon fill="black" stroke="black" points="777.01,-835.11 769.14,-828.02 770.87,-838.48 777.01,-835.11"/>
</g>
<!-- 34 -->
<g id="node9" class="node">
<title>34</title>
<ellipse fill="none" stroke="red" cx="947" cy="-1261.08" rx="33.29" ry="18"/>
<text text-anchor="middle" x="947" y="-1257.38" font-family="Times New Roman,serif" font-size="14.00">node9</text>
</g>
<!-- 1&#45;&gt;34 -->
<g id="edge8" class="edge">
<title>1&#45;&gt;34</title>
<path fill="none" stroke="black" d="M892.15,-1314.78C899.93,-1305.36 910.71,-1293.62 920.73,-1283.61"/>
<polygon fill="black" stroke="black" points="923.45,-1285.84 928.18,-1276.36 918.57,-1280.83 923.45,-1285.84"/>
</g>
<!-- 42&#45;&gt;1 -->
<g id="edge119" class="edge">
<title>42&#45;&gt;1</title>
<path fill="none" stroke="black" d="M1195.78,-1398.53C1143.65,-1388.55 1037.64,-1367.18 963.29,-1351.78"/>
<polygon fill="black" stroke="black" points="963.97,-1348.35 953.47,-1349.75 962.55,-1355.21 963.97,-1348.35"/>
</g>
<!-- 5 -->
<g id="node18" class="node">
<title>5</title>
<ellipse fill="none" stroke="red" cx="1591" cy="-522" rx="33.29" ry="18"/>
<text text-anchor="middle" x="1591" y="-518.3" font-family="Times New Roman,serif" font-size="14.00">node6</text>
</g>
<!-- 42&#45;&gt;5 -->
<g id="edge120" class="edge">
<title>42&#45;&gt;5</title>
<path fill="none" stroke="black" d="M1243.56,-1389.1C1272.01,-1365.92 1326,-1318.14 1326,-1262.08 1326,-1262.08 1326,-1262.08 1326,-1116.08 1326,-997.99 1356.14,-969.1 1410,-864 1455.01,-776.18 1497.94,-773.27 1540,-684 1561.11,-639.2 1572.78,-582.2 1580.89,-549.43"/>
<polygon fill="black" stroke="black" points="1584.3,-550.24 1583.41,-539.69 1577.52,-548.49 1584.3,-550.24"/>
</g>
<!-- 63 -->
<g id="node33" class="node">
<title>63</title>
<ellipse fill="none" stroke="black" cx="1391" cy="-1477.08" rx="33.29" ry="18"/>
<text text-anchor="middle" x="1391" y="-1473.38" font-family="Times New Roman,serif" font-size="14.00">node2</text>
</g>
<!-- 42&#45;&gt;63 -->
<g id="edge122" class="edge">
<title>42&#45;&gt;63</title>
<path fill="none" stroke="black" d="M1254.11,-1415.6C1282.89,-1426.95 1328.08,-1446.09 1358.67,-1459.81"/>
<polygon fill="black" stroke="black" points="1357.5,-1463.12 1368.05,-1464.05 1360.38,-1456.74 1357.5,-1463.12"/>
</g>
<!-- 68 -->
<g id="node58" class="node">
<title>68</title>
<ellipse fill="none" stroke="black" cx="943" cy="-90" rx="33.29" ry="18"/>
<text text-anchor="middle" x="943" y="-86.3" font-family="Times New Roman,serif" font-size="14.00">node0</text>
</g>
<!-- 42&#45;&gt;68 -->
<g id="edge121" class="edge">
<title>42&#45;&gt;68</title>
<path fill="none" stroke="black" d="M1229.19,-1386.95C1239.36,-1351.09 1270,-1265.21 1270,-1190.08 1270,-1190.08 1270,-1190.08 1270,-233 1270,-109.64 1075.47,-91.8 986.41,-90.32"/>
<polygon fill="black" stroke="black" points="986.38,-86.81 976.34,-90.21 986.31,-93.81 986.38,-86.81"/>
</g>
<!-- 36 -->
<g id="node65" class="node">
<title>36</title>
<ellipse fill="none" stroke="red" cx="958" cy="-666" rx="95.58" ry="18"/>
<text text-anchor="middle" x="958" y="-662.3" font-family="Times New Roman,serif" font-size="14.00">executionEnvironment4</text>
</g>
<!-- 42&#45;&gt;36 -->
<g id="edge118" class="edge">
<title>42&#45;&gt;36</title>
<path fill="none" stroke="black" d="M1200.55,-1394.18C1158.5,-1374.73 1082,-1327.62 1082,-1262.08 1082,-1262.08 1082,-1262.08 1082,-1116.08 1082,-949.41 996.73,-761.73 967.36,-693.54"/>
<polygon fill="black" stroke="black" points="970.44,-691.83 963.3,-684.01 964,-694.58 970.44,-691.83"/>
</g>
<!-- 3&#45;&gt;1 -->
<g id="edge14" class="edge">
<title>3&#45;&gt;1</title>
<path fill="none" stroke="black" d="M511.56,-675.84C441.55,-695.47 277.44,-750.22 203,-864 100.77,-1020.25 158.82,-1191.42 172,-1207.08 251.62,-1301.74 628.08,-1324.72 798.24,-1330.3"/>
<polygon fill="black" stroke="black" points="798.3,-1333.8 808.4,-1330.62 798.52,-1326.81 798.3,-1333.8"/>
</g>
<!-- 22 -->
<g id="node13" class="node">
<title>22</title>
<ellipse fill="none" stroke="black" cx="1708" cy="-594" rx="55.79" ry="18"/>
<text text-anchor="middle" x="1708" y="-590.3" font-family="Times New Roman,serif" font-size="14.00">component2</text>
</g>
<!-- 3&#45;&gt;22 -->
<g id="edge11" class="edge">
<title>3&#45;&gt;22</title>
<path fill="none" stroke="black" d="M581.92,-662.73C732.47,-654.12 1287.37,-623.43 1464,-612 1524.78,-608.07 1594.37,-602.96 1643.72,-599.37"/>
<polygon fill="black" stroke="black" points="1644.21,-602.84 1653.93,-598.63 1643.7,-595.86 1644.21,-602.84"/>
</g>
<!-- 57 -->
<g id="node14" class="node">
<title>57</title>
<ellipse fill="none" stroke="black" cx="863" cy="-738" rx="42.79" ry="18"/>
<text text-anchor="middle" x="863" y="-734.3" font-family="Times New Roman,serif" font-size="14.00">device11</text>
</g>
<!-- 3&#45;&gt;57 -->
<g id="edge12" class="edge">
<title>3&#45;&gt;57</title>
<path fill="none" stroke="black" d="M579.13,-673.79C637.17,-685.85 752.68,-711.13 817.08,-725.8"/>
<polygon fill="black" stroke="black" points="816.43,-729.25 826.96,-728.06 817.99,-722.42 816.43,-729.25"/>
</g>
<!-- 51 -->
<g id="node15" class="node">
<title>51</title>
<ellipse fill="none" stroke="black" cx="549" cy="-594" rx="33.29" ry="18"/>
<text text-anchor="middle" x="549" y="-590.3" font-family="Times New Roman,serif" font-size="14.00">node8</text>
</g>
<!-- 3&#45;&gt;51 -->
<g id="edge13" class="edge">
<title>3&#45;&gt;51</title>
<path fill="none" stroke="black" d="M539.33,-648.05C539.06,-640.14 539.51,-630.54 540.52,-621.69"/>
<polygon fill="black" stroke="black" points="543.98,-622.19 541.94,-611.79 537.05,-621.19 543.98,-622.19"/>
</g>
<!-- 18 -->
<g id="node16" class="node">
<title>18</title>
<ellipse fill="none" stroke="black" cx="529" cy="-450" rx="95.58" ry="18"/>
<text text-anchor="middle" x="529" y="-446.3" font-family="Times New Roman,serif" font-size="14.00">executionEnvironment8</text>
</g>
<!-- 3&#45;&gt;18 -->
<g id="edge15" class="edge">
<title>3&#45;&gt;18</title>
<path fill="none" stroke="black" d="M522.6,-650.58C512.74,-640.61 502.58,-626.56 498,-612 493.2,-596.74 494.86,-591.69 498,-576 501.4,-559 508.94,-556.85 513,-540 517.93,-519.57 519.6,-495.8 521.42,-477.98"/>
<polygon fill="black" stroke="black" points="524.9,-478.31 522.57,-467.98 517.95,-477.51 524.9,-478.31"/>
</g>
<!-- 35&#45;&gt;1 -->
<g id="edge102" class="edge">
<title>35&#45;&gt;1</title>
<path fill="none" stroke="black" d="M777.76,-828.02C811.53,-872.99 886,-999.48 886,-1116.08 886,-1190.08 886,-1190.08 886,-1190.08 886,-1230.11 888.01,-1276.45 887.19,-1305.01"/>
<polygon fill="black" stroke="black" points="883.69,-1304.89 886.72,-1315.04 890.68,-1305.21 883.69,-1304.89"/>
</g>
<!-- 35&#45;&gt;57 -->
<g id="edge100" class="edge">
<title>35&#45;&gt;57</title>
<path fill="none" stroke="black" d="M780.57,-792.05C794.17,-781.88 812.82,-768.9 829,-758.33"/>
<polygon fill="black" stroke="black" points="831.17,-761.09 837.69,-752.74 827.38,-755.21 831.17,-761.09"/>
</g>
<!-- 27 -->
<g id="node45" class="node">
<title>27</title>
<ellipse fill="none" stroke="red" cx="504" cy="-963.54" rx="95.58" ry="95.58"/>
<ellipse fill="none" stroke="red" cx="504" cy="-963.54" rx="99.58" ry="99.58"/>
<text text-anchor="middle" x="504" y="-959.84" font-family="Times New Roman,serif" font-size="14.00">executionEnvironment3</text>
</g>
<!-- 35&#45;&gt;27 -->
<g id="edge101" class="edge">
<title>35&#45;&gt;27</title>
<path fill="none" stroke="black" d="M738.15,-827.6C706.75,-847.28 649.95,-881.04 600.13,-909.87"/>
<polygon fill="black" stroke="black" points="598.15,-906.98 591.24,-915.01 601.65,-913.04 598.15,-906.98"/>
</g>
<!-- 46 -->
<g id="node60" class="node">
<title>46</title>
<ellipse fill="none" stroke="black" cx="612" cy="-738" rx="95.58" ry="18"/>
<text text-anchor="middle" x="612" y="-734.3" font-family="Times New Roman,serif" font-size="14.00">executionEnvironment5</text>
</g>
<!-- 35&#45;&gt;46 -->
<g id="edge103" class="edge">
<title>35&#45;&gt;46</title>
<path fill="none" stroke="black" d="M722.99,-793.46C700.51,-783.53 672.47,-770.52 650.15,-759.71"/>
<polygon fill="black" stroke="black" points="651.48,-756.46 640.96,-755.22 648.41,-762.75 651.48,-756.46"/>
</g>
<!-- 34&#45;&gt;1 -->
<g id="edge97" class="edge">
<title>34&#45;&gt;1</title>
<path fill="none" stroke="black" d="M937.41,-1278.71C930.3,-1287.37 920.51,-1298.14 911.08,-1307.73"/>
<polygon fill="black" stroke="black" points="908.61,-1305.25 903.98,-1314.78 913.54,-1310.21 908.61,-1305.25"/>
</g>
<!-- 32 -->
<g id="node20" class="node">
<title>32</title>
<ellipse fill="none" stroke="black" cx="1010" cy="-450" rx="100.18" ry="18"/>
<text text-anchor="middle" x="1010" y="-446.3" font-family="Times New Roman,serif" font-size="14.00">executionEnvironment11</text>
</g>
<!-- 34&#45;&gt;32 -->
<g id="edge96" class="edge">
<title>34&#45;&gt;32</title>
<path fill="none" stroke="black" d="M951.96,-1243.02C977.1,-1178.68 1082,-944.08 1082,-739 1082,-739 1082,-739 1082,-593 1082,-547.16 1049.76,-502.64 1028.22,-476.02"/>
<polygon fill="black" stroke="black" points="1030.7,-473.53 1021.65,-468.02 1025.29,-477.97 1030.7,-473.53"/>
</g>
<!-- 14 -->
<g id="node34" class="node">
<title>14</title>
<ellipse fill="none" stroke="black" cx="686" cy="-522" rx="38.19" ry="18"/>
<text text-anchor="middle" x="686" y="-518.3" font-family="Times New Roman,serif" font-size="14.00">device6</text>
</g>
<!-- 34&#45;&gt;14 -->
<g id="edge99" class="edge">
<title>34&#45;&gt;14</title>
<path fill="none" stroke="black" d="M938.64,-1243.52C931.23,-1217.08 924,-1163.66 924,-1118.08 924,-1118.08 924,-1118.08 924,-962.54 924,-881.27 909.38,-854.97 858,-792 839.3,-769.07 822.84,-777 802,-756 748.67,-702.26 744.9,-679.7 711,-612 700.91,-591.85 691.93,-567.93 687.09,-549.97"/>
<polygon fill="black" stroke="black" points="690.47,-549.07 684.74,-540.16 683.67,-550.7 690.47,-549.07"/>
</g>
<!-- 19 -->
<g id="node46" class="node">
<title>19</title>
<ellipse fill="none" stroke="black" cx="504" cy="-1189.08" rx="33.29" ry="18"/>
<text text-anchor="middle" x="504" y="-1185.38" font-family="Times New Roman,serif" font-size="14.00">node7</text>
</g>
<!-- 34&#45;&gt;19 -->
<g id="edge98" class="edge">
<title>34&#45;&gt;19</title>
<path fill="none" stroke="black" d="M915.09,-1255.6C836.29,-1243.78 633.11,-1211.72 545.3,-1197.29"/>
<polygon fill="black" stroke="black" points="545.62,-1193.79 535.18,-1195.62 544.48,-1200.7 545.62,-1193.79"/>
</g>
<!-- 2 -->
<g id="node10" class="node">
<title>2</title>
<ellipse fill="none" stroke="black" cx="1709" cy="-1621.08" rx="38.19" ry="18"/>
<text text-anchor="middle" x="1709" y="-1617.38" font-family="Times New Roman,serif" font-size="14.00">device5</text>
</g>
<!-- 54 -->
<g id="node11" class="node">
<title>54</title>
<ellipse fill="none" stroke="black" cx="1729" cy="-1693.08" rx="55.79" ry="18"/>
<text text-anchor="middle" x="1729" y="-1689.38" font-family="Times New Roman,serif" font-size="14.00">component7</text>
</g>
<!-- 2&#45;&gt;54 -->
<g id="edge9" class="edge">
<title>2&#45;&gt;54</title>
<path fill="none" stroke="black" d="M1719.59,-1638.71C1722.68,-1646.52 1725.65,-1656.05 1727.83,-1664.88"/>
<polygon fill="black" stroke="black" points="1724.43,-1665.75 1729.97,-1674.78 1731.27,-1664.27 1724.43,-1665.75"/>
</g>
<!-- 58 -->
<g id="node12" class="node">
<title>58</title>
<ellipse fill="none" stroke="black" cx="1629" cy="-1549.08" rx="33.29" ry="18"/>
<text text-anchor="middle" x="1629" y="-1545.38" font-family="Times New Roman,serif" font-size="14.00">node3</text>
</g>
<!-- 2&#45;&gt;58 -->
<g id="edge10" class="edge">
<title>2&#45;&gt;58</title>
<path fill="none" stroke="black" d="M1687.26,-1605.92C1675.26,-1596.5 1660.61,-1583.93 1648.92,-1573.1"/>
<polygon fill="black" stroke="black" points="1651.03,-1570.28 1641.36,-1565.94 1646.21,-1575.36 1651.03,-1570.28"/>
</g>
<!-- 54&#45;&gt;2 -->
<g id="edge153" class="edge">
<title>54&#45;&gt;2</title>
<path fill="none" stroke="black" d="M1718.28,-1675.14C1715.23,-1667.34 1712.29,-1657.9 1710.14,-1649.16"/>
<polygon fill="black" stroke="black" points="1713.56,-1648.39 1708.02,-1639.36 1706.72,-1649.87 1713.56,-1648.39"/>
</g>
<!-- 54&#45;&gt;54 -->
<g id="edge152" class="edge">
<title>54&#45;&gt;54</title>
<path fill="none" stroke="black" d="M1767.4,-1706.22C1786.21,-1707.94 1802.9,-1703.56 1802.9,-1693.08 1802.9,-1684.57 1791.88,-1680.08 1777.66,-1679.62"/>
<polygon fill="black" stroke="black" points="1777.28,-1676.13 1767.4,-1679.95 1777.5,-1683.13 1777.28,-1676.13"/>
</g>
<!-- 30 -->
<g id="node53" class="node">
<title>30</title>
<ellipse fill="none" stroke="black" cx="1760" cy="-522" rx="55.79" ry="18"/>
<text text-anchor="middle" x="1760" y="-518.3" font-family="Times New Roman,serif" font-size="14.00">component8</text>
</g>
<!-- 54&#45;&gt;30 -->
<g id="edge154" class="edge">
<title>54&#45;&gt;30</title>
<path fill="none" stroke="black" d="M1734.58,-1674.98C1747.51,-1649.11 1775,-1597.93 1775,-1550.08 1775,-1550.08 1775,-1550.08 1775,-1260.08 1775,-1083.98 1701.42,-1028.61 1764,-864 1771.61,-843.99 1788.32,-847.98 1796,-828 1818.95,-768.26 1796.78,-748 1797,-684 1797.17,-636 1813.79,-620.97 1797,-576 1793.1,-565.56 1786.11,-555.81 1779.15,-547.59"/>
<polygon fill="black" stroke="black" points="1781.58,-545.06 1772.32,-539.92 1776.35,-549.71 1781.58,-545.06"/>
</g>
<!-- 54&#45;&gt;46 -->
<g id="edge155" class="edge">
<title>54&#45;&gt;46</title>
<path fill="none" stroke="black" d="M1686.97,-1681.08C1533.06,-1640.75 1008.27,-1502.96 992,-1495.08 895.68,-1448.43 876.68,-1424.7 799,-1351.08 738.53,-1293.78 711.19,-1283.92 679,-1207.08 619.79,-1065.76 672.2,-1014.8 645,-864 638.83,-829.79 628.05,-791.22 620.49,-766.09"/>
<polygon fill="black" stroke="black" points="623.74,-764.74 617.47,-756.19 617.04,-766.78 623.74,-764.74"/>
</g>
<!-- 58&#45;&gt;2 -->
<g id="edge164" class="edge">
<title>58&#45;&gt;2</title>
<path fill="none" stroke="black" d="M1649.67,-1563.41C1661.79,-1572.85 1676.85,-1585.75 1688.86,-1596.86"/>
<polygon fill="black" stroke="black" points="1686.58,-1599.52 1696.25,-1603.85 1691.39,-1594.43 1686.58,-1599.52"/>
</g>
<!-- 58&#45;&gt;63 -->
<g id="edge165" class="edge">
<title>58&#45;&gt;63</title>
<path fill="none" stroke="black" d="M1599.64,-1540.72C1556.23,-1528.8 1475.37,-1505.11 1427.99,-1490.52"/>
<polygon fill="black" stroke="black" points="1429,-1487.17 1418.41,-1487.56 1426.93,-1493.86 1429,-1487.17"/>
</g>
<!-- 22&#45;&gt;3 -->
<g id="edge62" class="edge">
<title>22&#45;&gt;3</title>
<path fill="none" stroke="black" d="M1654.52,-599.66C1608.72,-603.23 1541.19,-608.17 1482,-612 1306.7,-623.34 758.81,-653.66 592.36,-662.53"/>
<polygon fill="black" stroke="black" points="591.75,-659.06 581.95,-663.08 592.12,-666.05 591.75,-659.06"/>
</g>
<!-- 22&#45;&gt;30 -->
<g id="edge61" class="edge">
<title>22&#45;&gt;30</title>
<path fill="none" stroke="black" d="M1714.71,-576.05C1720.21,-567.42 1727.93,-556.76 1735.51,-547.27"/>
<polygon fill="black" stroke="black" points="1738.42,-549.25 1742.08,-539.31 1733.02,-544.8 1738.42,-549.25"/>
</g>
<!-- 57&#45;&gt;3 -->
<g id="edge162" class="edge">
<title>57&#45;&gt;3</title>
<path fill="none" stroke="black" d="M824.81,-729.58C765.04,-717.11 650.1,-691.93 587.33,-677.61"/>
<polygon fill="black" stroke="black" points="587.88,-674.14 577.35,-675.32 586.32,-680.97 587.88,-674.14"/>
</g>
<!-- 57&#45;&gt;35 -->
<g id="edge163" class="edge">
<title>57&#45;&gt;35</title>
<path fill="none" stroke="black" d="M846.13,-754.67C833.45,-764.23 815.78,-776.61 799.85,-787.14"/>
<polygon fill="black" stroke="black" points="797.69,-784.37 791.23,-792.76 801.51,-790.23 797.69,-784.37"/>
</g>
<!-- 13 -->
<g id="node31" class="node">
<title>13</title>
<path fill="none" stroke="red" d="M1085,-248.73C1085,-250.53 1072.9,-252 1058,-252 1043.1,-252 1031,-250.53 1031,-248.73 1031,-248.73 1031,-219.27 1031,-219.27 1031,-217.47 1043.1,-216 1058,-216 1072.9,-216 1085,-217.47 1085,-219.27 1085,-219.27 1085,-248.73 1085,-248.73"/>
<path fill="none" stroke="red" d="M1085,-248.73C1085,-246.92 1072.9,-245.45 1058,-245.45 1043.1,-245.45 1031,-246.92 1031,-248.73"/>
<text text-anchor="middle" x="1058" y="-230.3" font-family="Times New Roman,serif" font-size="14.00">node4</text>
</g>
<!-- 57&#45;&gt;13 -->
<g id="edge161" class="edge">
<title>57&#45;&gt;13</title>
<path fill="none" stroke="black" d="M855.08,-719.98C839.07,-668.66 814.36,-513.91 892,-432 932.95,-388.8 981.07,-440.14 1021,-396 1054.29,-359.2 1055.16,-297.53 1055.24,-262.15"/>
<polygon fill="black" stroke="black" points="1058.74,-262.09 1055.28,-252.08 1051.74,-262.06 1058.74,-262.09"/>
</g>
<!-- 50 -->
<g id="node50" class="node">
<title>50</title>
<ellipse fill="none" stroke="black" cx="373" cy="-378" rx="95.58" ry="18"/>
<text text-anchor="middle" x="373" y="-374.3" font-family="Times New Roman,serif" font-size="14.00">executionEnvironment6</text>
</g>
<!-- 57&#45;&gt;50 -->
<g id="edge160" class="edge">
<title>57&#45;&gt;50</title>
<path fill="none" stroke="black" d="M835.09,-724.02C820.29,-714.47 803.38,-700.34 793,-684 748.43,-613.81 792.16,-570.31 742,-504 679.93,-421.94 562.24,-393.05 476.37,-383.24"/>
<polygon fill="black" stroke="black" points="476.64,-379.75 466.32,-382.16 475.89,-386.71 476.64,-379.75"/>
</g>
<!-- 57&#45;&gt;36 -->
<g id="edge159" class="edge">
<title>57&#45;&gt;36</title>
<path fill="none" stroke="black" d="M878.8,-721.12C890.52,-711.67 906.78,-699.56 921.57,-689.18"/>
<polygon fill="black" stroke="black" points="923.83,-691.87 930.06,-683.31 919.84,-686.12 923.83,-691.87"/>
</g>
<!-- 51&#45;&gt;3 -->
<g id="edge141" class="edge">
<title>51&#45;&gt;3</title>
<path fill="none" stroke="black" d="M553.68,-612.28C553.93,-620.03 553.49,-629.36 552.52,-638.01"/>
<polygon fill="black" stroke="black" points="549.03,-637.66 551.09,-648.05 555.96,-638.65 549.03,-637.66"/>
</g>
<!-- 51&#45;&gt;5 -->
<g id="edge140" class="edge">
<title>51&#45;&gt;5</title>
<path fill="none" stroke="black" d="M581.62,-590.63C734.03,-580.03 1375.03,-536.96 1547.93,-525.7"/>
<polygon fill="black" stroke="black" points="1548.41,-529.18 1558.17,-525.04 1547.96,-522.2 1548.41,-529.18"/>
</g>
<!-- 51&#45;&gt;14 -->
<g id="edge143" class="edge">
<title>51&#45;&gt;14</title>
<path fill="none" stroke="black" d="M569.66,-579.67C590.7,-568.08 623.49,-551.27 648.98,-538.97"/>
<polygon fill="black" stroke="black" points="650.49,-542.12 658.01,-534.65 647.48,-535.81 650.49,-542.12"/>
</g>
<!-- 20 -->
<g id="node48" class="node">
<title>20</title>
<ellipse fill="none" stroke="black" cx="373" cy="-450" rx="42.79" ry="18"/>
<text text-anchor="middle" x="373" y="-446.3" font-family="Times New Roman,serif" font-size="14.00">device10</text>
</g>
<!-- 51&#45;&gt;20 -->
<g id="edge142" class="edge">
<title>51&#45;&gt;20</title>
<path fill="none" stroke="black" d="M515.75,-593.52C473.47,-592.62 402.41,-584.49 368,-540 354.44,-522.47 354.81,-496.69 359.33,-477.38"/>
<polygon fill="black" stroke="black" points="362.72,-478.26 362.12,-467.69 355.99,-476.33 362.72,-478.26"/>
</g>
<!-- 75 -->
<g id="node49" class="node">
<title>75</title>
<ellipse fill="none" stroke="black" cx="424" cy="-522" rx="38.19" ry="18"/>
<text text-anchor="middle" x="424" y="-518.3" font-family="Times New Roman,serif" font-size="14.00">device9</text>
</g>
<!-- 51&#45;&gt;75 -->
<g id="edge139" class="edge">
<title>51&#45;&gt;75</title>
<path fill="none" stroke="black" d="M524.1,-581.91C503.53,-571.38 474.52,-555.33 452.94,-542.64"/>
<polygon fill="black" stroke="black" points="454.58,-539.55 444.2,-537.44 451,-545.56 454.58,-539.55"/>
</g>
<!-- 18&#45;&gt;3 -->
<g id="edge53" class="edge">
<title>18&#45;&gt;3</title>
<path fill="none" stroke="black" d="M535.92,-467.98C538.14,-486.07 536.92,-515.44 531,-540 526.94,-556.85 519.4,-559 516,-576 512.86,-591.69 511.2,-596.74 516,-612 519.12,-621.91 524.81,-631.57 530.39,-639.88"/>
<polygon fill="black" stroke="black" points="527.68,-642.12 536.28,-648.31 533.42,-638.11 527.68,-642.12"/>
</g>
<!-- 18&#45;&gt;27 -->
<g id="edge52" class="edge">
<title>18&#45;&gt;27</title>
<path fill="none" stroke="black" d="M529.96,-468.2C526.13,-492.13 514.3,-536.93 509,-576 496.38,-669.08 498.75,-775.93 502.03,-853.66"/>
<polygon fill="black" stroke="black" points="498.54,-854.11 502.47,-863.95 505.54,-853.81 498.54,-854.11"/>
</g>
<!-- 4 -->
<g id="node17" class="node">
<title>4</title>
<ellipse fill="none" stroke="black" cx="2002" cy="-963.54" rx="38.21" ry="38.21"/>
<ellipse fill="none" stroke="black" cx="2002" cy="-963.54" rx="42.19" ry="42.19"/>
<text text-anchor="middle" x="2002" y="-959.84" font-family="Times New Roman,serif" font-size="14.00">device7</text>
</g>
<!-- 5&#45;&gt;42 -->
<g id="edge20" class="edge">
<title>5&#45;&gt;42</title>
<path fill="none" stroke="black" d="M1594.04,-540.16C1593.07,-570.39 1581.27,-634.61 1558,-684 1515.94,-773.27 1473.01,-776.18 1428,-864 1374.14,-969.1 1344,-997.99 1344,-1116.08 1344,-1262.08 1344,-1262.08 1344,-1262.08 1344,-1316.19 1293.71,-1362.58 1258.9,-1386.58"/>
<polygon fill="black" stroke="black" points="1256.83,-1383.76 1250.43,-1392.2 1260.7,-1389.59 1256.83,-1383.76"/>
</g>
<!-- 5&#45;&gt;51 -->
<g id="edge18" class="edge">
<title>5&#45;&gt;51</title>
<path fill="none" stroke="black" d="M1558.3,-525.37C1405.73,-535.99 764.89,-579.04 592.05,-590.3"/>
<polygon fill="black" stroke="black" points="591.57,-586.82 581.81,-590.96 592.02,-593.81 591.57,-586.82"/>
</g>
<!-- 17 -->
<g id="node19" class="node">
<title>17</title>
<ellipse fill="none" stroke="black" cx="1494" cy="-90" rx="40.09" ry="18"/>
<text text-anchor="middle" x="1494" y="-86.3" font-family="Times New Roman,serif" font-size="14.00">artifact6</text>
</g>
<!-- 5&#45;&gt;17 -->
<g id="edge16" class="edge">
<title>5&#45;&gt;17</title>
<path fill="none" stroke="black" d="M1585.29,-503.95C1582,-477.29 1582,-424.11 1582,-379 1582,-379 1582,-379 1582,-233 1582,-184.09 1542.27,-139.62 1516.03,-113.95"/>
<polygon fill="black" stroke="black" points="1518.34,-111.31 1508.7,-106.91 1513.49,-116.36 1518.34,-111.31"/>
</g>
<!-- 5&#45;&gt;32 -->
<g id="edge17" class="edge">
<title>5&#45;&gt;32</title>
<path fill="none" stroke="black" d="M1558.62,-517.48C1471.59,-507.48 1230.86,-478.55 1099.03,-462.35"/>
<polygon fill="black" stroke="black" points="1099.31,-458.85 1088.96,-461.11 1098.46,-465.8 1099.31,-458.85"/>
</g>
<!-- 56 -->
<g id="node21" class="node">
<title>56</title>
<ellipse fill="none" stroke="black" cx="1800" cy="-450" rx="40.09" ry="18"/>
<text text-anchor="middle" x="1800" y="-446.3" font-family="Times New Roman,serif" font-size="14.00">artifact4</text>
</g>
<!-- 5&#45;&gt;56 -->
<g id="edge19" class="edge">
<title>5&#45;&gt;56</title>
<path fill="none" stroke="black" d="M1616.88,-510.67C1652.04,-498.14 1714.99,-477.01 1757.2,-463.55"/>
<polygon fill="black" stroke="black" points="1758.45,-466.83 1766.92,-460.47 1756.33,-460.16 1758.45,-466.83"/>
</g>
<!-- 12 -->
<g id="node22" class="node">
<title>12</title>
<ellipse fill="none" stroke="black" cx="1666" cy="-450" rx="38.19" ry="18"/>
<text text-anchor="middle" x="1666" y="-446.3" font-family="Times New Roman,serif" font-size="14.00">device0</text>
</g>
<!-- 5&#45;&gt;12 -->
<g id="edge21" class="edge">
<title>5&#45;&gt;12</title>
<path fill="none" stroke="black" d="M1602.59,-504.76C1612,-494.96 1625.35,-482.36 1637.46,-471.83"/>
<polygon fill="black" stroke="black" points="1639.83,-474.4 1645.17,-465.25 1635.29,-469.07 1639.83,-474.4"/>
</g>
<!-- 17&#45;&gt;5 -->
<g id="edge50" class="edge">
<title>17&#45;&gt;5</title>
<path fill="none" stroke="black" d="M1517.59,-104.78C1549.07,-127.94 1600,-177.62 1600,-233 1600,-379 1600,-379 1600,-379 1600,-419 1600,-465.35 1597.71,-493.92"/>
<polygon fill="black" stroke="black" points="1594.22,-493.65 1596.71,-503.95 1601.18,-494.35 1594.22,-493.65"/>
</g>
<!-- 17&#45;&gt;63 -->
<g id="edge51" class="edge">
<title>17&#45;&gt;63</title>
<path fill="none" stroke="black" d="M1466.51,-103.34C1423.04,-123 1344,-166.2 1344,-233 1344,-739 1344,-739 1344,-739 1344,-908.43 1400,-946.65 1400,-1116.08 1400,-1334.08 1400,-1334.08 1400,-1334.08 1400,-1374.09 1400,-1420.43 1397.71,-1449"/>
<polygon fill="black" stroke="black" points="1394.22,-1448.74 1396.71,-1459.03 1401.18,-1449.43 1394.22,-1448.74"/>
</g>
<!-- 72 -->
<g id="node44" class="node">
<title>72</title>
<ellipse fill="none" stroke="black" cx="1494" cy="-162" rx="46.29" ry="18"/>
<text text-anchor="middle" x="1494" y="-158.3" font-family="Times New Roman,serif" font-size="14.00">interface4</text>
</g>
<!-- 17&#45;&gt;72 -->
<g id="edge49" class="edge">
<title>17&#45;&gt;72</title>
<path fill="none" stroke="black" d="M1499.91,-108.28C1500.71,-116.03 1500.94,-125.36 1500.59,-134.01"/>
<polygon fill="black" stroke="black" points="1497.09,-133.83 1499.88,-144.05 1504.08,-134.33 1497.09,-133.83"/>
</g>
<!-- 32&#45;&gt;34 -->
<g id="edge92" class="edge">
<title>32&#45;&gt;34</title>
<path fill="none" stroke="black" d="M1033.05,-467.61C1059.95,-492.46 1100,-541.91 1100,-593 1100,-739 1100,-739 1100,-739 1100,-936.16 1003.04,-1160.62 963.27,-1234.82"/>
<polygon fill="black" stroke="black" points="960.03,-1233.44 958.27,-1243.89 966.17,-1236.82 960.03,-1233.44"/>
</g>
<!-- 32&#45;&gt;5 -->
<g id="edge90" class="edge">
<title>32&#45;&gt;5</title>
<path fill="none" stroke="black" d="M1092.21,-460.33C1217.86,-475.12 1452.96,-503.48 1548.8,-515.45"/>
<polygon fill="black" stroke="black" points="1548.62,-518.96 1558.98,-516.73 1549.49,-512.01 1548.62,-518.96"/>
</g>
<!-- 29 -->
<g id="node59" class="node">
<title>29</title>
<path fill="none" stroke="black" d="M866.5,-392.73C866.5,-394.53 850.59,-396 831,-396 811.41,-396 795.5,-394.53 795.5,-392.73 795.5,-392.73 795.5,-363.27 795.5,-363.27 795.5,-361.47 811.41,-360 831,-360 850.59,-360 866.5,-361.47 866.5,-363.27 866.5,-363.27 866.5,-392.73 866.5,-392.73"/>
<path fill="none" stroke="black" d="M866.5,-392.73C866.5,-390.92 850.59,-389.45 831,-389.45 811.41,-389.45 795.5,-390.92 795.5,-392.73"/>
<text text-anchor="middle" x="831" y="-374.3" font-family="Times New Roman,serif" font-size="14.00">interface5</text>
</g>
<!-- 32&#45;&gt;29 -->
<g id="edge91" class="edge">
<title>32&#45;&gt;29</title>
<path fill="none" stroke="black" d="M965.48,-433.81C937.83,-423.49 902.51,-409.74 874.96,-398.59"/>
<polygon fill="black" stroke="black" points="876.15,-395.29 865.57,-394.77 873.51,-401.78 876.15,-395.29"/>
</g>
<!-- 56&#45;&gt;5 -->
<g id="edge157" class="edge">
<title>56&#45;&gt;5</title>
<path fill="none" stroke="black" d="M1770.9,-462.47C1733.96,-475.56 1670.45,-496.83 1629.54,-509.8"/>
<polygon fill="black" stroke="black" points="1628.4,-506.49 1619.91,-512.83 1630.5,-513.17 1628.4,-506.49"/>
</g>
<!-- 44 -->
<g id="node43" class="node">
<title>44</title>
<ellipse fill="none" stroke="black" cx="2081" cy="-378" rx="46.29" ry="18"/>
<text text-anchor="middle" x="2081" y="-374.3" font-family="Times New Roman,serif" font-size="14.00">interface0</text>
</g>
<!-- 56&#45;&gt;44 -->
<g id="edge158" class="edge">
<title>56&#45;&gt;44</title>
<path fill="none" stroke="black" d="M1833.11,-439.56C1882.31,-426.67 1974.74,-403.63 2031.84,-389.98"/>
<polygon fill="black" stroke="black" points="2032.8,-393.35 2041.72,-387.63 2031.18,-386.54 2032.8,-393.35"/>
</g>
<!-- 73 -->
<g id="node73" class="node">
<title>73</title>
<ellipse fill="none" stroke="black" cx="1501" cy="-378" rx="46.29" ry="18"/>
<text text-anchor="middle" x="1501" y="-374.3" font-family="Times New Roman,serif" font-size="14.00">interface7</text>
</g>
<!-- 56&#45;&gt;73 -->
<g id="edge156" class="edge">
<title>56&#45;&gt;73</title>
<path fill="none" stroke="black" d="M1765.83,-440.39C1756.41,-437.54 1746.31,-434.47 1737,-432 1672.79,-414.99 1598.05,-399.42 1550.07,-389.62"/>
<polygon fill="black" stroke="black" points="1550.75,-386.19 1540.25,-387.62 1549.35,-393.05 1550.75,-386.19"/>
</g>
<!-- 12&#45;&gt;5 -->
<g id="edge31" class="edge">
<title>12&#45;&gt;5</title>
<path fill="none" stroke="black" d="M1654.24,-467.41C1644.62,-477.42 1630.95,-490.29 1618.7,-500.9"/>
<polygon fill="black" stroke="black" points="1616.28,-498.37 1610.92,-507.5 1620.81,-503.71 1616.28,-498.37"/>
</g>
<!-- 6 -->
<g id="node23" class="node">
<title>6</title>
<ellipse fill="none" stroke="red" cx="1881" cy="-963.54" rx="60.39" ry="18"/>
<text text-anchor="middle" x="1881" y="-959.84" font-family="Times New Roman,serif" font-size="14.00">component13</text>
</g>
<!-- 26 -->
<g id="node24" class="node">
<title>26</title>
<ellipse fill="none" stroke="black" cx="831" cy="-306" rx="38.19" ry="18"/>
<text text-anchor="middle" x="831" y="-302.3" font-family="Times New Roman,serif" font-size="14.00">device3</text>
</g>
<!-- 6&#45;&gt;26 -->
<g id="edge22" class="edge">
<title>6&#45;&gt;26</title>
<path fill="none" stroke="black" d="M1891.76,-945.63C1913.79,-909.31 1962,-820.53 1962,-739 1962,-739 1962,-739 1962,-665 1962,-583.45 1937.53,-555.13 1874,-504 1829.63,-468.29 1800.39,-496.38 1751,-468 1730.83,-456.41 1734.41,-441.11 1713,-432 1553.13,-363.99 1092.31,-462.98 932,-396 910.23,-386.91 910.64,-375.67 893,-360 881.24,-349.56 868.02,-338.2 856.82,-328.69"/>
<polygon fill="black" stroke="black" points="858.96,-325.92 849.06,-322.13 854.44,-331.26 858.96,-325.92"/>
</g>
<!-- 8 -->
<g id="node25" class="node">
<title>8</title>
<path fill="none" stroke="black" d="M2432.5,-824.73C2432.5,-826.53 2416.59,-828 2397,-828 2377.41,-828 2361.5,-826.53 2361.5,-824.73 2361.5,-824.73 2361.5,-795.27 2361.5,-795.27 2361.5,-793.47 2377.41,-792 2397,-792 2416.59,-792 2432.5,-793.47 2432.5,-795.27 2432.5,-795.27 2432.5,-824.73 2432.5,-824.73"/>
<path fill="none" stroke="black" d="M2432.5,-824.73C2432.5,-822.92 2416.59,-821.45 2397,-821.45 2377.41,-821.45 2361.5,-822.92 2361.5,-824.73"/>
<text text-anchor="middle" x="2397" y="-806.3" font-family="Times New Roman,serif" font-size="14.00">interface9</text>
</g>
<!-- 6&#45;&gt;8 -->
<g id="edge23" class="edge">
<title>6&#45;&gt;8</title>
<path fill="none" stroke="black" d="M1887.68,-945.46C1897.66,-922.52 1918.79,-882.5 1951,-864 2026.2,-820.82 2250.1,-846.51 2351.26,-827.84"/>
<polygon fill="black" stroke="black" points="2352.17,-831.23 2361.24,-825.75 2350.74,-824.37 2352.17,-831.23"/>
</g>
<!-- 26&#45;&gt;13 -->
<g id="edge69" class="edge">
<title>26&#45;&gt;13</title>
<path fill="none" stroke="black" d="M860.47,-294.37C901.69,-280.93 976.19,-257.97 1021.05,-244.89"/>
<polygon fill="black" stroke="black" points="1022.06,-248.24 1030.7,-242.1 1020.12,-241.52 1022.06,-248.24"/>
</g>
<!-- 26&#45;&gt;19 -->
<g id="edge70" class="edge">
<title>26&#45;&gt;19</title>
<path fill="none" stroke="black" d="M814.98,-322.59C779.09,-352.95 693.41,-424.06 648,-504 607.11,-575.99 654.17,-621.39 600,-684 573.42,-714.72 548.15,-695.18 516,-720 451.82,-769.54 430.31,-787.31 404,-864 375.28,-947.69 372.95,-980.23 404,-1063.08 419.96,-1105.66 457.7,-1143.27 482.17,-1165.84"/>
<polygon fill="black" stroke="black" points="479.86,-1168.47 489.6,-1172.63 484.58,-1163.3 479.86,-1168.47"/>
</g>
<!-- 43 -->
<g id="node52" class="node">
<title>43</title>
<ellipse fill="none" stroke="black" cx="162" cy="-234" rx="95.58" ry="18"/>
<text text-anchor="middle" x="162" y="-230.3" font-family="Times New Roman,serif" font-size="14.00">executionEnvironment7</text>
</g>
<!-- 26&#45;&gt;43 -->
<g id="edge73" class="edge">
<title>26&#45;&gt;43</title>
<path fill="none" stroke="black" d="M793.72,-301.43C690.71,-291.08 400.56,-260.78 252.01,-244.93"/>
<polygon fill="black" stroke="black" points="252.31,-241.44 241.99,-243.86 251.57,-248.4 252.31,-241.44"/>
</g>
<!-- 26&#45;&gt;68 -->
<g id="edge71" class="edge">
<title>26&#45;&gt;68</title>
<path fill="none" stroke="black" d="M836.1,-287.85C852.26,-250.07 899.43,-159.55 925.58,-115.68"/>
<polygon fill="black" stroke="black" points="928.62,-117.42 930.83,-107.06 922.64,-113.78 928.62,-117.42"/>
</g>
<!-- 26&#45;&gt;29 -->
<g id="edge72" class="edge">
<title>26&#45;&gt;29</title>
<path fill="none" stroke="black" d="M836.9,-324.1C837.7,-331.79 837.94,-341.05 837.6,-349.67"/>
<polygon fill="black" stroke="black" points="834.11,-349.48 836.92,-359.7 841.09,-349.96 834.11,-349.48"/>
</g>
<!-- 7 -->
<g id="node26" class="node">
<title>7</title>
<ellipse fill="none" stroke="black" cx="2272" cy="-1837.08" rx="40.09" ry="18"/>
<text text-anchor="middle" x="2272" y="-1833.38" font-family="Times New Roman,serif" font-size="14.00">artifact8</text>
</g>
<!-- 9 -->
<g id="node27" class="node">
<title>9</title>
<path fill="none" stroke="black" d="M1737,-1779.81C1737,-1781.62 1724,-1783.08 1708,-1783.08 1692,-1783.08 1679,-1781.62 1679,-1779.81 1679,-1779.81 1679,-1750.36 1679,-1750.36 1679,-1748.55 1692,-1747.08 1708,-1747.08 1724,-1747.08 1737,-1748.55 1737,-1750.36 1737,-1750.36 1737,-1779.81 1737,-1779.81"/>
<path fill="none" stroke="black" d="M1737,-1779.81C1737,-1778 1724,-1776.54 1708,-1776.54 1692,-1776.54 1679,-1778 1679,-1779.81"/>
<text text-anchor="middle" x="1708" y="-1761.38" font-family="Times New Roman,serif" font-size="14.00">model8</text>
</g>
<!-- 10 -->
<g id="node28" class="node">
<title>10</title>
<path fill="none" stroke="red" d="M2037.5,-1131.81C2037.5,-1133.62 2024.28,-1135.08 2008,-1135.08 1991.72,-1135.08 1978.5,-1133.62 1978.5,-1131.81 1978.5,-1131.81 1978.5,-1102.36 1978.5,-1102.36 1978.5,-1100.55 1991.72,-1099.08 2008,-1099.08 2024.28,-1099.08 2037.5,-1100.55 2037.5,-1102.36 2037.5,-1102.36 2037.5,-1131.81 2037.5,-1131.81"/>
<path fill="none" stroke="red" d="M2037.5,-1131.81C2037.5,-1130 2024.28,-1128.54 2008,-1128.54 1991.72,-1128.54 1978.5,-1130 1978.5,-1131.81"/>
<text text-anchor="middle" x="2008" y="-1113.38" font-family="Times New Roman,serif" font-size="14.00">device2</text>
</g>
<!-- 10&#45;&gt;0 -->
<g id="edge25" class="edge">
<title>10&#45;&gt;0</title>
<path fill="none" stroke="black" d="M2037.53,-1104.65C2044.18,-1102.47 2051.26,-1100.44 2058,-1099.08 2168.71,-1076.72 2471.15,-1125.94 2565,-1063.08 2589.37,-1046.76 2602.13,-1014.59 2608.44,-991.44"/>
<polygon fill="black" stroke="black" points="2611.89,-992.08 2610.91,-981.53 2605.1,-990.39 2611.89,-992.08"/>
</g>
<!-- 10&#45;&gt;4 -->
<g id="edge24" class="edge">
<title>10&#45;&gt;4</title>
<path fill="none" stroke="black" d="M2007.32,-1098.99C2006.53,-1079.07 2005.19,-1045.2 2004.05,-1016.44"/>
<polygon fill="black" stroke="black" points="2007.54,-1015.96 2003.65,-1006.11 2000.54,-1016.24 2007.54,-1015.96"/>
</g>
<!-- 10&#45;&gt;5 -->
<g id="edge26" class="edge">
<title>10&#45;&gt;5</title>
<path fill="none" stroke="black" d="M2027.91,-1099.08C2037.47,-1089.59 2047.92,-1076.91 2053,-1063.08 2083.5,-980.03 2083.71,-946.98 2053,-864 1994.47,-705.86 1949.6,-664.4 1806,-576 1777.17,-558.25 1686.22,-539.83 1632.29,-530.07"/>
<polygon fill="black" stroke="black" points="1632.81,-526.61 1622.35,-528.3 1631.58,-533.5 1632.81,-526.61"/>
</g>
<!-- 10&#45;&gt;12 -->
<g id="edge27" class="edge">
<title>10&#45;&gt;12</title>
<path fill="none" stroke="black" d="M1978.12,-1112.42C1928.4,-1105.64 1832.14,-1089.39 1812,-1063.08 1758.22,-992.82 1772.04,-942.94 1812,-864 1824.2,-839.89 1846.98,-851.1 1861,-828 1898.58,-766.1 1886,-739.41 1886,-667 1886,-667 1886,-667 1886,-593 1886,-549.07 1876.58,-532.32 1843,-504 1798.8,-466.73 1773.26,-484.99 1718,-468 1714.18,-466.82 1710.2,-465.58 1706.24,-464.31"/>
<polygon fill="black" stroke="black" points="1707.05,-460.9 1696.46,-461.16 1704.91,-467.56 1707.05,-460.9"/>
</g>
<!-- 11 -->
<g id="node29" class="node">
<title>11</title>
<ellipse fill="none" stroke="red" cx="2500" cy="-963.54" rx="55.79" ry="18"/>
<text text-anchor="middle" x="2500" y="-959.84" font-family="Times New Roman,serif" font-size="14.00">component9</text>
</g>
<!-- 11&#45;&gt;12 -->
<g id="edge30" class="edge">
<title>11&#45;&gt;12</title>
<path fill="none" stroke="black" d="M2498.7,-945.38C2495.27,-911.63 2483.07,-836.09 2441,-792 2337.59,-683.63 2128,-816.79 2128,-667 2128,-667 2128,-667 2128,-593 2128,-549.63 1826.63,-483.69 1710.7,-459.93"/>
<polygon fill="black" stroke="black" points="1711.22,-456.46 1700.73,-457.89 1709.82,-463.32 1711.22,-456.46"/>
</g>
<!-- 11&#45;&gt;8 -->
<g id="edge28" class="edge">
<title>11&#45;&gt;8</title>
<path fill="none" stroke="black" d="M2488.58,-945.74C2470.66,-919.37 2435.78,-868.06 2414.62,-836.92"/>
<polygon fill="black" stroke="black" points="2417.3,-834.64 2408.78,-828.34 2411.51,-838.58 2417.3,-834.64"/>
</g>
<!-- 62 -->
<g id="node30" class="node">
<title>62</title>
<ellipse fill="none" stroke="black" cx="943" cy="-18" rx="38.19" ry="18"/>
<text text-anchor="middle" x="943" y="-14.3" font-family="Times New Roman,serif" font-size="14.00">device1</text>
</g>
<!-- 11&#45;&gt;62 -->
<g id="edge29" class="edge">
<title>11&#45;&gt;62</title>
<path fill="none" stroke="black" d="M2499.87,-945.43C2499.6,-908.01 2499,-816.04 2499,-739 2499,-739 2499,-739 2499,-161 2499,-83.37 1254.44,-31.02 991.44,-20.82"/>
<polygon fill="black" stroke="black" points="991.2,-17.31 981.08,-20.42 990.93,-24.3 991.2,-17.31"/>
</g>
<!-- 62&#45;&gt;68 -->
<g id="edge171" class="edge">
<title>62&#45;&gt;68</title>
<path fill="none" stroke="black" d="M948.86,-35.79C949.7,-43.59 949.94,-53.07 949.6,-61.85"/>
<polygon fill="black" stroke="black" points="946.09,-61.83 948.88,-72.05 953.07,-62.33 946.09,-61.83"/>
</g>
<!-- 13&#45;&gt;57 -->
<g id="edge33" class="edge">
<title>13&#45;&gt;57</title>
<path fill="none" stroke="black" d="M1065.57,-252.08C1073,-284.51 1075.74,-355.4 1039,-396 999.07,-440.14 950.95,-388.8 910,-432 836.91,-509.11 854.53,-650.77 861.73,-709.93"/>
<polygon fill="black" stroke="black" points="858.27,-710.47 862.93,-719.98 865.22,-709.64 858.27,-710.47"/>
</g>
<!-- 13&#45;&gt;26 -->
<g id="edge32" class="edge">
<title>13&#45;&gt;26</title>
<path fill="none" stroke="black" d="M1030.93,-244.85C991.9,-257.63 919.85,-279.88 873.66,-293.44"/>
<polygon fill="black" stroke="black" points="872.55,-290.11 863.93,-296.28 874.51,-296.83 872.55,-290.11"/>
</g>
<!-- 13&#45;&gt;13 -->
<g id="edge35" class="edge">
<title>13&#45;&gt;13</title>
<path fill="none" stroke="black" d="M1085.24,-247.49C1095.02,-247.78 1103,-243.28 1103,-234 1103,-228.2 1099.88,-224.27 1095.16,-222.21"/>
<polygon fill="black" stroke="black" points="1095.69,-218.75 1085.24,-220.51 1094.51,-225.65 1095.69,-218.75"/>
</g>
<!-- 60 -->
<g id="node32" class="node">
<title>60</title>
<path fill="none" stroke="black" d="M1054,-176.73C1054,-178.53 1041,-180 1025,-180 1009,-180 996,-178.53 996,-176.73 996,-176.73 996,-147.27 996,-147.27 996,-145.47 1009,-144 1025,-144 1041,-144 1054,-145.47 1054,-147.27 1054,-147.27 1054,-176.73 1054,-176.73"/>
<path fill="none" stroke="black" d="M1054,-176.73C1054,-174.92 1041,-173.45 1025,-173.45 1009,-173.45 996,-174.92 996,-176.73"/>
<text text-anchor="middle" x="1025" y="-158.3" font-family="Times New Roman,serif" font-size="14.00">node10</text>
</g>
<!-- 13&#45;&gt;60 -->
<g id="edge34" class="edge">
<title>13&#45;&gt;60</title>
<path fill="none" stroke="black" d="M1043.93,-215.7C1039.4,-207.81 1034.7,-198.3 1030.94,-189.55"/>
<polygon fill="black" stroke="black" points="1034.13,-188.09 1027.17,-180.1 1027.63,-190.69 1034.13,-188.09"/>
</g>
<!-- 13&#45;&gt;63 -->
<g id="edge36" class="edge">
<title>13&#45;&gt;63</title>
<path fill="none" stroke="black" d="M1085.03,-241.7C1108.49,-249.63 1141.18,-264.77 1161,-288 1188.38,-320.1 1194,-334.81 1194,-377 1194,-1190.08 1194,-1190.08 1194,-1190.08 1194,-1309.16 1313.02,-1412.45 1366.17,-1455.16"/>
<polygon fill="black" stroke="black" points="1364.11,-1457.99 1374.11,-1461.49 1368.47,-1452.52 1364.11,-1457.99"/>
</g>
<!-- 60&#45;&gt;13 -->
<g id="edge166" class="edge">
<title>60&#45;&gt;13</title>
<path fill="none" stroke="black" d="M1038.96,-180.1C1043.49,-187.96 1048.19,-197.46 1051.96,-206.23"/>
<polygon fill="black" stroke="black" points="1048.79,-207.72 1055.76,-215.7 1055.28,-205.11 1048.79,-207.72"/>
</g>
<!-- 60&#45;&gt;68 -->
<g id="edge167" class="edge">
<title>60&#45;&gt;68</title>
<path fill="none" stroke="black" d="M1000.18,-144.76C988.33,-135.53 974.44,-123.83 963.23,-113.7"/>
<polygon fill="black" stroke="black" points="965.34,-110.88 955.62,-106.67 960.58,-116.02 965.34,-110.88"/>
</g>
<!-- 63&#45;&gt;42 -->
<g id="edge174" class="edge">
<title>63&#45;&gt;42</title>
<path fill="none" stroke="black" d="M1363.72,-1466.5C1334.94,-1455.14 1289.88,-1436.05 1259.35,-1422.37"/>
<polygon fill="black" stroke="black" points="1260.54,-1419.06 1249.98,-1418.13 1257.65,-1425.44 1260.54,-1419.06"/>
</g>
<!-- 63&#45;&gt;58 -->
<g id="edge176" class="edge">
<title>63&#45;&gt;58</title>
<path fill="none" stroke="black" d="M1420.42,-1485.46C1463.87,-1497.4 1544.79,-1521.1 1592.12,-1535.68"/>
<polygon fill="black" stroke="black" points="1591.1,-1539.03 1601.69,-1538.64 1593.17,-1532.34 1591.1,-1539.03"/>
</g>
<!-- 63&#45;&gt;17 -->
<g id="edge172" class="edge">
<title>63&#45;&gt;17</title>
<path fill="none" stroke="black" d="M1385.29,-1459.03C1382,-1432.37 1382,-1379.2 1382,-1334.08 1382,-1334.08 1382,-1334.08 1382,-1116.08 1382,-946.65 1326,-908.43 1326,-739 1326,-739 1326,-739 1326,-233 1326,-167.6 1401.77,-124.82 1451.66,-104.6"/>
<polygon fill="black" stroke="black" points="1453.21,-107.75 1461.26,-100.86 1450.67,-101.23 1453.21,-107.75"/>
</g>
<!-- 63&#45;&gt;13 -->
<g id="edge173" class="edge">
<title>63&#45;&gt;13</title>
<path fill="none" stroke="black" d="M1368.62,-1463.63C1313.3,-1427.67 1176,-1317.97 1176,-1190.08 1176,-1190.08 1176,-1190.08 1176,-377 1176,-334.81 1170.38,-320.1 1143,-288 1129.77,-272.49 1110.79,-260.58 1094.05,-252.03"/>
<polygon fill="black" stroke="black" points="1095.54,-248.86 1085.02,-247.61 1092.47,-255.15 1095.54,-248.86"/>
</g>
<!-- 63&#45;&gt;44 -->
<g id="edge175" class="edge">
<title>63&#45;&gt;44</title>
<path fill="none" stroke="black" d="M1410.17,-1462.39C1456,-1434.17 1574.2,-1367.81 1675,-1315.08 1834.21,-1231.8 1911.97,-1264.13 2037,-1135.08 2153.78,-1014.55 2072,-781.29 2072,-667 2072,-667 2072,-667 2072,-521 2072,-481 2072,-434.65 2074.29,-406.08"/>
<polygon fill="black" stroke="black" points="2077.78,-406.35 2075.29,-396.05 2070.82,-405.65 2077.78,-406.35"/>
</g>
<!-- 14&#45;&gt;34 -->
<g id="edge39" class="edge">
<title>14&#45;&gt;34</title>
<path fill="none" stroke="black" d="M697.64,-539.16C706.06,-557.32 716.71,-587.45 729,-612 762.9,-679.7 766.67,-702.26 820,-756 840.84,-777 857.3,-769.07 876,-792 927.38,-854.97 942,-881.27 942,-962.54 942,-1118.08 942,-1118.08 942,-1118.08 942,-1158.28 947.62,-1204.57 949.45,-1233.08"/>
<polygon fill="black" stroke="black" points="945.96,-1233.27 949.95,-1243.09 952.95,-1232.93 945.96,-1233.27"/>
</g>
<!-- 14&#45;&gt;51 -->
<g id="edge37" class="edge">
<title>14&#45;&gt;51</title>
<path fill="none" stroke="black" d="M664.36,-536.87C642.75,-548.73 609.46,-565.77 584.1,-577.96"/>
<polygon fill="black" stroke="black" points="582.35,-574.92 574.82,-582.37 585.35,-581.24 582.35,-574.92"/>
</g>
<!-- 14&#45;&gt;14 -->
<g id="edge38" class="edge">
<title>14&#45;&gt;14</title>
<path fill="none" stroke="black" d="M712.96,-534.81C728.22,-537.31 742.35,-533.04 742.35,-522 742.35,-513.46 733.89,-508.97 723,-508.54"/>
<polygon fill="black" stroke="black" points="722.71,-505.05 712.96,-509.19 723.17,-512.03 722.71,-505.05"/>
</g>
<!-- 15 -->
<g id="node35" class="node">
<title>15</title>
<ellipse fill="none" stroke="red" cx="1488" cy="-963.54" rx="60.39" ry="18"/>
<text text-anchor="middle" x="1488" y="-959.84" font-family="Times New Roman,serif" font-size="14.00">component14</text>
</g>
<!-- 15&#45;&gt;35 -->
<g id="edge41" class="edge">
<title>15&#45;&gt;35</title>
<path fill="none" stroke="black" d="M1440.08,-952.54C1315.49,-926.53 980.81,-856.67 833.39,-825.9"/>
<polygon fill="black" stroke="black" points="834.03,-822.46 823.53,-823.84 832.6,-829.31 834.03,-822.46"/>
</g>
<!-- 48 -->
<g id="node36" class="node">
<title>48</title>
<ellipse fill="none" stroke="black" cx="2288" cy="-810" rx="55.79" ry="18"/>
<text text-anchor="middle" x="2288" y="-806.3" font-family="Times New Roman,serif" font-size="14.00">component5</text>
</g>
<!-- 15&#45;&gt;48 -->
<g id="edge40" class="edge">
<title>15&#45;&gt;48</title>
<path fill="none" stroke="black" d="M1524.36,-949.07C1583.7,-927.63 1705.47,-885.94 1812,-864 1957.22,-834.1 2131.08,-820.14 2223.22,-814.42"/>
<polygon fill="black" stroke="black" points="2223.47,-817.91 2233.24,-813.81 2223.04,-810.92 2223.47,-817.91"/>
</g>
<!-- 59 -->
<g id="node37" class="node">
<title>59</title>
<ellipse fill="none" stroke="black" cx="1664" cy="-810" rx="60.39" ry="18"/>
<text text-anchor="middle" x="1664" y="-806.3" font-family="Times New Roman,serif" font-size="14.00">component10</text>
</g>
<!-- 15&#45;&gt;59 -->
<g id="edge42" class="edge">
<title>15&#45;&gt;59</title>
<path fill="none" stroke="black" d="M1506.84,-946.32C1538.25,-919.28 1601.42,-864.89 1637.37,-833.93"/>
<polygon fill="black" stroke="black" points="1639.74,-836.51 1645.03,-827.33 1635.17,-831.2 1639.74,-836.51"/>
</g>
<!-- 55 -->
<g id="node38" class="node">
<title>55</title>
<ellipse fill="none" stroke="black" cx="1418" cy="-594" rx="46.29" ry="18"/>
<text text-anchor="middle" x="1418" y="-590.3" font-family="Times New Roman,serif" font-size="14.00">interface2</text>
</g>
<!-- 15&#45;&gt;55 -->
<g id="edge43" class="edge">
<title>15&#45;&gt;55</title>
<path fill="none" stroke="black" d="M1484.72,-945.31C1473.53,-886.59 1436.85,-694 1423.19,-622.26"/>
<polygon fill="black" stroke="black" points="1426.58,-621.37 1421.28,-612.2 1419.71,-622.68 1426.58,-621.37"/>
</g>
<!-- 16 -->
<g id="node39" class="node">
<title>16</title>
<ellipse fill="none" stroke="red" cx="2040" cy="-1909.08" rx="55.79" ry="18"/>
<text text-anchor="middle" x="2040" y="-1905.38" font-family="Times New Roman,serif" font-size="14.00">component4</text>
</g>
<!-- 16&#45;&gt;7 -->
<g id="edge46" class="edge">
<title>16&#45;&gt;7</title>
<path fill="none" stroke="black" d="M2080,-1896.37C2116.11,-1885.74 2170.68,-1869.58 2218,-1855.08 2222.02,-1853.85 2226.2,-1852.56 2230.38,-1851.26"/>
<polygon fill="black" stroke="black" points="2231.55,-1854.56 2240.05,-1848.23 2229.46,-1847.88 2231.55,-1854.56"/>
</g>
<!-- 52 -->
<g id="node40" class="node">
<title>52</title>
<ellipse fill="none" stroke="black" cx="1596" cy="-1837.08" rx="55.79" ry="18"/>
<text text-anchor="middle" x="1596" y="-1833.38" font-family="Times New Roman,serif" font-size="14.00">component0</text>
</g>
<!-- 16&#45;&gt;52 -->
<g id="edge44" class="edge">
<title>16&#45;&gt;52</title>
<path fill="none" stroke="black" d="M1987.57,-1902.71C1914.12,-1894.74 1776.64,-1878.21 1661,-1855.08 1656.31,-1854.15 1651.46,-1853.07 1646.62,-1851.93"/>
<polygon fill="black" stroke="black" points="1647.29,-1848.49 1636.75,-1849.52 1645.63,-1855.29 1647.29,-1848.49"/>
</g>
<!-- 66 -->
<g id="node41" class="node">
<title>66</title>
<ellipse fill="none" stroke="black" cx="1617" cy="-1693.08" rx="37.89" ry="18"/>
<text text-anchor="middle" x="1617" y="-1689.38" font-family="Times New Roman,serif" font-size="14.00">model5</text>
</g>
<!-- 16&#45;&gt;66 -->
<g id="edge45" class="edge">
<title>16&#45;&gt;66</title>
<path fill="none" stroke="black" d="M2014.55,-1892.89C1964.19,-1863.1 1847.88,-1795.72 1746,-1747.08 1716.07,-1732.79 1681.23,-1718.62 1655.3,-1708.53"/>
<polygon fill="black" stroke="black" points="1656.42,-1705.21 1645.84,-1704.87 1653.9,-1711.74 1656.42,-1705.21"/>
</g>
<!-- 76 -->
<g id="node42" class="node">
<title>76</title>
<ellipse fill="none" stroke="black" cx="1494" cy="-234" rx="60.39" ry="18"/>
<text text-anchor="middle" x="1494" y="-230.3" font-family="Times New Roman,serif" font-size="14.00">component12</text>
</g>
<!-- 16&#45;&gt;76 -->
<g id="edge47" class="edge">
<title>16&#45;&gt;76</title>
<path fill="none" stroke="black" d="M2046.74,-1891.2C2060.39,-1855.45 2090,-1769.25 2090,-1694.08 2090,-1694.08 2090,-1694.08 2090,-1476.08 2090,-1375.15 2166,-1363.01 2166,-1262.08 2166,-1262.08 2166,-1262.08 2166,-377 2166,-255.1 1737.4,-237.34 1564.78,-235.13"/>
<polygon fill="black" stroke="black" points="1564.56,-231.62 1554.52,-235.01 1564.48,-238.62 1564.56,-231.62"/>
</g>
<!-- 16&#45;&gt;44 -->
<g id="edge48" class="edge">
<title>16&#45;&gt;44</title>
<path fill="none" stroke="black" d="M2076.4,-1895.24C2124.71,-1875.59 2204,-1833.12 2204,-1766.08 2204,-1766.08 2204,-1766.08 2204,-593 2204,-514.59 2141.16,-438.93 2105.31,-402.16"/>
<polygon fill="black" stroke="black" points="2107.64,-399.54 2098.1,-394.91 2102.67,-404.47 2107.64,-399.54"/>
</g>
<!-- 52&#45;&gt;68 -->
<g id="edge144" class="edge">
<title>52&#45;&gt;68</title>
<path fill="none" stroke="black" d="M1539.84,-1836.56C1273.66,-1838.1 152,-1836.17 152,-1694.08 152,-1694.08 152,-1694.08 152,-1404.08 152,-1296.32 38,-1297.85 38,-1190.08 38,-1190.08 38,-1190.08 38,-1116.08 38,-947.64 0,-907.44 0,-739 0,-739 0,-739 0,-233 0,-172.5 46.99,-166.88 103,-144 177.04,-113.75 738.85,-96.48 899.95,-92.11"/>
<polygon fill="black" stroke="black" points="900.07,-95.61 909.97,-91.84 899.88,-88.61 900.07,-95.61"/>
</g>
<!-- 61 -->
<g id="node67" class="node">
<title>61</title>
<ellipse fill="none" stroke="black" cx="1617" cy="-1765.08" rx="37.89" ry="18"/>
<text text-anchor="middle" x="1617" y="-1761.38" font-family="Times New Roman,serif" font-size="14.00">model0</text>
</g>
<!-- 52&#45;&gt;61 -->
<g id="edge145" class="edge">
<title>52&#45;&gt;61</title>
<path fill="none" stroke="black" d="M1601.08,-1819.14C1603.42,-1811.34 1606.25,-1801.9 1608.88,-1793.16"/>
<polygon fill="black" stroke="black" points="1612.3,-1793.94 1611.82,-1783.36 1605.59,-1791.93 1612.3,-1793.94"/>
</g>
<!-- 76&#45;&gt;72 -->
<g id="edge206" class="edge">
<title>76&#45;&gt;72</title>
<path fill="none" stroke="black" d="M1488.12,-216.05C1487.3,-208.35 1487.06,-199.03 1487.39,-190.36"/>
<polygon fill="black" stroke="black" points="1490.89,-190.49 1488.09,-180.28 1483.91,-190.01 1490.89,-190.49"/>
</g>
<!-- 65 -->
<g id="node63" class="node">
<title>65</title>
<ellipse fill="none" stroke="black" cx="1494" cy="-306" rx="60.39" ry="18"/>
<text text-anchor="middle" x="1494" y="-302.3" font-family="Times New Roman,serif" font-size="14.00">component15</text>
</g>
<!-- 76&#45;&gt;65 -->
<g id="edge205" class="edge">
<title>76&#45;&gt;65</title>
<path fill="none" stroke="black" d="M1499.91,-252.28C1500.71,-260.03 1500.94,-269.36 1500.59,-278.01"/>
<polygon fill="black" stroke="black" points="1497.09,-277.83 1499.88,-288.05 1504.08,-278.33 1497.09,-277.83"/>
</g>
<!-- 44&#45;&gt;56 -->
<g id="edge126" class="edge">
<title>44&#45;&gt;56</title>
<path fill="none" stroke="black" d="M2044.58,-389.31C1993.43,-402.65 1900.68,-425.75 1845.2,-438.96"/>
<polygon fill="black" stroke="black" points="1844.22,-435.6 1835.29,-441.31 1845.83,-442.41 1844.22,-435.6"/>
</g>
<!-- 44&#45;&gt;63 -->
<g id="edge127" class="edge">
<title>44&#45;&gt;63</title>
<path fill="none" stroke="black" d="M2086.71,-396.05C2090,-422.71 2090,-475.89 2090,-521 2090,-667 2090,-667 2090,-667 2090,-781.29 2171.78,-1014.55 2055,-1135.08 1929.97,-1264.13 1852.21,-1231.8 1693,-1315.08 1595.03,-1366.33 1480.64,-1430.45 1424.79,-1459.91"/>
<polygon fill="black" stroke="black" points="1422.94,-1456.93 1415.7,-1464.67 1426.19,-1463.13 1422.94,-1456.93"/>
</g>
<!-- 72&#45;&gt;17 -->
<g id="edge198" class="edge">
<title>72&#45;&gt;17</title>
<path fill="none" stroke="black" d="M1488.12,-144.05C1487.3,-136.35 1487.06,-127.03 1487.39,-118.36"/>
<polygon fill="black" stroke="black" points="1490.89,-118.49 1488.09,-108.28 1483.91,-118.01 1490.89,-118.49"/>
</g>
<!-- 72&#45;&gt;76 -->
<g id="edge199" class="edge">
<title>72&#45;&gt;76</title>
<path fill="none" stroke="black" d="M1499.91,-180.28C1500.71,-188.03 1500.94,-197.36 1500.59,-206.01"/>
<polygon fill="black" stroke="black" points="1497.09,-205.83 1499.88,-216.05 1504.08,-206.33 1497.09,-205.83"/>
</g>
<!-- 27&#45;&gt;35 -->
<g id="edge78" class="edge">
<title>27&#45;&gt;35</title>
<path fill="none" stroke="black" d="M587.76,-909.54C632.45,-882.9 685.39,-852.12 721.14,-832.15"/>
<polygon fill="black" stroke="black" points="723.25,-834.98 730.3,-827.07 719.85,-828.86 723.25,-834.98"/>
</g>
<!-- 27&#45;&gt;18 -->
<g id="edge75" class="edge">
<title>27&#45;&gt;18</title>
<path fill="none" stroke="black" d="M487.94,-865.16C481.03,-786.7 477.74,-673.76 491,-576 495.66,-541.66 505.36,-502.89 514.28,-477.76"/>
<polygon fill="black" stroke="black" points="517.64,-478.79 517.91,-468.2 511.09,-476.31 517.64,-478.79"/>
</g>
<!-- 31 -->
<g id="node47" class="node">
<title>31</title>
<ellipse fill="none" stroke="red" cx="504" cy="-1117.08" rx="33.29" ry="18"/>
<text text-anchor="middle" x="504" y="-1113.38" font-family="Times New Roman,serif" font-size="14.00">node5</text>
</g>
<!-- 27&#45;&gt;31 -->
<g id="edge76" class="edge">
<title>27&#45;&gt;31</title>
<path fill="none" stroke="black" d="M510.47,-1062.96C510.24,-1072.34 509.85,-1081.22 509.32,-1088.93"/>
<polygon fill="black" stroke="black" points="505.82,-1088.73 508.46,-1098.99 512.8,-1089.33 505.82,-1088.73"/>
</g>
<!-- 27&#45;&gt;50 -->
<g id="edge74" class="edge">
<title>27&#45;&gt;50</title>
<path fill="none" stroke="black" d="M455,-876.74C407.37,-780.14 338.71,-617.14 312,-468 309.18,-452.25 305.95,-446.81 312,-432 316.69,-420.53 325.18,-410.21 334.44,-401.78"/>
<polygon fill="black" stroke="black" points="336.92,-404.27 342.33,-395.17 332.42,-398.91 336.92,-404.27"/>
</g>
<!-- 27&#45;&gt;46 -->
<g id="edge77" class="edge">
<title>27&#45;&gt;46</title>
<path fill="none" stroke="black" d="M525.11,-866.15C534.19,-841.23 545.66,-814.97 559,-792 564.94,-781.76 572.87,-771.51 580.88,-762.8"/>
<polygon fill="black" stroke="black" points="583.44,-765.19 587.89,-755.57 578.41,-760.31 583.44,-765.19"/>
</g>
<!-- 19&#45;&gt;34 -->
<g id="edge56" class="edge">
<title>19&#45;&gt;34</title>
<path fill="none" stroke="black" d="M535.67,-1194.53C614.39,-1206.33 818.23,-1238.5 905.97,-1252.92"/>
<polygon fill="black" stroke="black" points="905.65,-1256.42 916.08,-1254.59 906.78,-1249.51 905.65,-1256.42"/>
</g>
<!-- 19&#45;&gt;26 -->
<g id="edge54" class="edge">
<title>19&#45;&gt;26</title>
<path fill="none" stroke="black" d="M481.26,-1175.42C452.24,-1155.1 404.49,-1112.42 386,-1063.08 354.95,-980.23 357.28,-947.69 386,-864 412.31,-787.31 433.82,-769.54 498,-720 530.15,-695.18 555.42,-714.72 582,-684 636.17,-621.39 589.11,-575.99 630,-504 673.65,-427.15 754.54,-358.45 799.41,-326.29"/>
<polygon fill="black" stroke="black" points="801.43,-329.14 807.61,-320.53 797.42,-323.41 801.43,-329.14"/>
</g>
<!-- 19&#45;&gt;31 -->
<g id="edge55" class="edge">
<title>19&#45;&gt;31</title>
<path fill="none" stroke="black" d="M498.12,-1171.14C497.29,-1163.31 497.05,-1153.83 497.41,-1145.06"/>
<polygon fill="black" stroke="black" points="500.92,-1145.1 498.14,-1134.87 493.93,-1144.6 500.92,-1145.1"/>
</g>
<!-- 31&#45;&gt;27 -->
<g id="edge85" class="edge">
<title>31&#45;&gt;27</title>
<path fill="none" stroke="black" d="M499.54,-1098.99C498.79,-1091.85 498.23,-1082.92 497.85,-1073.07"/>
<polygon fill="black" stroke="black" points="501.34,-1072.84 497.53,-1062.96 494.34,-1073.06 501.34,-1072.84"/>
</g>
<!-- 31&#45;&gt;19 -->
<g id="edge86" class="edge">
<title>31&#45;&gt;19</title>
<path fill="none" stroke="black" d="M509.86,-1134.87C510.7,-1142.67 510.94,-1152.15 510.6,-1160.93"/>
<polygon fill="black" stroke="black" points="507.09,-1160.92 509.88,-1171.14 514.07,-1161.41 507.09,-1160.92"/>
</g>
<!-- 31&#45;&gt;43 -->
<g id="edge89" class="edge">
<title>31&#45;&gt;43</title>
<path fill="none" stroke="black" d="M470.77,-1116.86C424.87,-1116.48 343.14,-1109.29 297,-1063.08 247.27,-1013.29 134,-521.38 134,-451 134,-451 134,-451 134,-377 134,-336.46 141.7,-289.98 149.62,-261.56"/>
<polygon fill="black" stroke="black" points="152.98,-262.54 152.53,-251.95 146.28,-260.51 152.98,-262.54"/>
</g>
<!-- 31&#45;&gt;68 -->
<g id="edge87" class="edge">
<title>31&#45;&gt;68</title>
<path fill="none" stroke="black" d="M470.77,-1114.92C433.16,-1111.85 373.68,-1100.99 343,-1063.08 293.51,-1001.92 214.85,-425.12 259,-360 335.84,-246.66 767.78,-132.1 902.78,-99.9"/>
<polygon fill="black" stroke="black" points="903.79,-103.26 912.72,-97.55 902.18,-96.44 903.79,-103.26"/>
</g>
<!-- 31&#45;&gt;46 -->
<g id="edge88" class="edge">
<title>31&#45;&gt;46</title>
<path fill="none" stroke="black" d="M533.45,-1108.76C557.02,-1101.66 588.32,-1088.15 604,-1063.08 634.67,-1014.07 615.45,-834.9 611.34,-766.13"/>
<polygon fill="black" stroke="black" points="614.83,-765.88 610.82,-756.08 607.84,-766.25 614.83,-765.88"/>
</g>
<!-- 20&#45;&gt;51 -->
<g id="edge58" class="edge">
<title>20&#45;&gt;51</title>
<path fill="none" stroke="black" d="M374.91,-468.03C373.35,-487.54 370.1,-519.45 386,-540 414.31,-576.6 467.42,-588.59 505.42,-592.2"/>
<polygon fill="black" stroke="black" points="505.46,-595.71 515.71,-593.01 506.01,-588.73 505.46,-595.71"/>
</g>
<!-- 20&#45;&gt;75 -->
<g id="edge57" class="edge">
<title>20&#45;&gt;75</title>
<path fill="none" stroke="black" d="M390.29,-466.83C397.46,-475.32 405.49,-485.99 412.02,-495.61"/>
<polygon fill="black" stroke="black" points="409.14,-497.59 417.53,-504.05 415,-493.77 409.14,-497.59"/>
</g>
<!-- 20&#45;&gt;50 -->
<g id="edge59" class="edge">
<title>20&#45;&gt;50</title>
<path fill="none" stroke="black" d="M367.12,-432.05C366.3,-424.35 366.06,-415.03 366.39,-406.36"/>
<polygon fill="black" stroke="black" points="369.89,-406.49 367.09,-396.28 362.91,-406.01 369.89,-406.49"/>
</g>
<!-- 75&#45;&gt;51 -->
<g id="edge202" class="edge">
<title>75&#45;&gt;51</title>
<path fill="none" stroke="black" d="M450.98,-535.16C471.72,-545.85 500.08,-561.58 521.04,-573.93"/>
<polygon fill="black" stroke="black" points="519.43,-577.05 529.81,-579.17 523.02,-571.04 519.43,-577.05"/>
</g>
<!-- 75&#45;&gt;18 -->
<g id="edge203" class="edge">
<title>75&#45;&gt;18</title>
<path fill="none" stroke="black" d="M445.25,-506.83C459.74,-497.17 479.23,-484.18 495.76,-473.16"/>
<polygon fill="black" stroke="black" points="497.71,-476.06 504.09,-467.61 493.83,-470.24 497.71,-476.06"/>
</g>
<!-- 75&#45;&gt;20 -->
<g id="edge204" class="edge">
<title>75&#45;&gt;20</title>
<path fill="none" stroke="black" d="M406.96,-505.46C399.75,-496.95 391.64,-486.19 385.04,-476.48"/>
<polygon fill="black" stroke="black" points="387.88,-474.42 379.48,-467.96 382.02,-478.25 387.88,-474.42"/>
</g>
<!-- 50&#45;&gt;57 -->
<g id="edge136" class="edge">
<title>50&#45;&gt;57</title>
<path fill="none" stroke="black" d="M467.44,-381.03C558.61,-388.28 692.34,-414.56 760,-504 810.16,-570.31 766.43,-613.81 811,-684 818.42,-695.68 829.17,-706.23 839.08,-714.78"/>
<polygon fill="black" stroke="black" points="836.85,-717.47 846.77,-721.2 841.33,-712.1 836.85,-717.47"/>
</g>
<!-- 50&#45;&gt;27 -->
<g id="edge137" class="edge">
<title>50&#45;&gt;27</title>
<path fill="none" stroke="black" d="M357.59,-395.86C347.64,-405.14 335.85,-417.68 330,-432 323.95,-446.81 327.18,-452.25 330,-468 355.4,-609.86 418.76,-764.26 461.7,-862.13"/>
<polygon fill="black" stroke="black" points="458.56,-863.68 465.79,-871.42 464.97,-860.86 458.56,-863.68"/>
</g>
<!-- 50&#45;&gt;20 -->
<g id="edge138" class="edge">
<title>50&#45;&gt;20</title>
<path fill="none" stroke="black" d="M378.91,-396.28C379.71,-404.03 379.94,-413.36 379.59,-422.01"/>
<polygon fill="black" stroke="black" points="376.09,-421.83 378.88,-432.05 383.08,-422.33 376.09,-421.83"/>
</g>
<!-- 21 -->
<g id="node51" class="node">
<title>21</title>
<ellipse fill="none" stroke="black" cx="162" cy="-162" rx="50.09" ry="18"/>
<text text-anchor="middle" x="162" y="-158.3" font-family="Times New Roman,serif" font-size="14.00">interface11</text>
</g>
<!-- 21&#45;&gt;43 -->
<g id="edge60" class="edge">
<title>21&#45;&gt;43</title>
<path fill="none" stroke="black" d="M167.9,-180.1C168.7,-187.79 168.94,-197.05 168.6,-205.67"/>
<polygon fill="black" stroke="black" points="165.11,-205.48 167.92,-215.7 172.09,-205.96 165.11,-205.48"/>
</g>
<!-- 43&#45;&gt;26 -->
<g id="edge123" class="edge">
<title>43&#45;&gt;26</title>
<path fill="none" stroke="black" d="M244.41,-243.15C386.19,-257.65 671.67,-287.55 784.08,-299.69"/>
<polygon fill="black" stroke="black" points="783.77,-303.18 794.09,-300.78 784.52,-296.22 783.77,-303.18"/>
</g>
<!-- 43&#45;&gt;31 -->
<g id="edge125" class="edge">
<title>43&#45;&gt;31</title>
<path fill="none" stroke="black" d="M163.92,-252.39C161.6,-279.06 152,-331.73 152,-377 152,-451 152,-451 152,-451 152,-521.38 265.27,-1013.29 315,-1063.08 353.8,-1101.93 417.74,-1113.2 460.47,-1116.03"/>
<polygon fill="black" stroke="black" points="460.4,-1119.53 470.57,-1116.57 460.77,-1112.54 460.4,-1119.53"/>
</g>
<!-- 43&#45;&gt;21 -->
<g id="edge124" class="edge">
<title>43&#45;&gt;21</title>
<path fill="none" stroke="black" d="M156.08,-215.7C155.29,-207.98 155.06,-198.71 155.4,-190.11"/>
<polygon fill="black" stroke="black" points="158.9,-190.32 156.1,-180.1 151.92,-189.84 158.9,-190.32"/>
</g>
<!-- 30&#45;&gt;54 -->
<g id="edge83" class="edge">
<title>30&#45;&gt;54</title>
<path fill="none" stroke="black" d="M1786.26,-538.1C1797.68,-547.73 1809.46,-561.16 1815,-576 1831.79,-620.97 1815.17,-636 1815,-684 1814.78,-748 1836.95,-768.26 1814,-828 1806.32,-847.98 1789.61,-843.99 1782,-864 1719.42,-1028.61 1793,-1083.98 1793,-1260.08 1793,-1550.08 1793,-1550.08 1793,-1550.08 1793,-1593.74 1770.12,-1640.16 1751.45,-1667.61"/>
<polygon fill="black" stroke="black" points="1748.55,-1665.66 1745.58,-1675.83 1754.24,-1669.73 1748.55,-1665.66"/>
</g>
<!-- 30&#45;&gt;22 -->
<g id="edge82" class="edge">
<title>30&#45;&gt;22</title>
<path fill="none" stroke="black" d="M1753.18,-540.12C1747.66,-548.76 1739.96,-559.38 1732.4,-568.84"/>
<polygon fill="black" stroke="black" points="1729.53,-566.82 1725.86,-576.76 1734.93,-571.28 1729.53,-566.82"/>
</g>
<!-- 30&#45;&gt;30 -->
<g id="edge84" class="edge">
<title>30&#45;&gt;30</title>
<path fill="none" stroke="black" d="M1798.4,-535.14C1817.21,-536.86 1833.9,-532.48 1833.9,-522 1833.9,-513.49 1822.88,-509 1808.66,-508.54"/>
<polygon fill="black" stroke="black" points="1808.28,-505.05 1798.4,-508.86 1808.5,-512.05 1808.28,-505.05"/>
</g>
<!-- 23 -->
<g id="node54" class="node">
<title>23</title>
<ellipse fill="none" stroke="red" cx="232" cy="-1189.08" rx="60.39" ry="18"/>
<text text-anchor="middle" x="232" y="-1185.38" font-family="Times New Roman,serif" font-size="14.00">component11</text>
</g>
<!-- 23&#45;&gt;20 -->
<g id="edge63" class="edge">
<title>23&#45;&gt;20</title>
<path fill="none" stroke="black" d="M213.86,-1171.85C204.48,-1162.21 193.99,-1149.15 189,-1135.08 183.65,-1120 188.89,-1115.08 189,-1099.08 190.11,-930.59 144.18,-880.96 194,-720 225.7,-617.59 309.82,-518.17 350.43,-474.35"/>
<polygon fill="black" stroke="black" points="353.2,-476.52 357.49,-466.83 348.1,-471.73 353.2,-476.52"/>
</g>
<!-- 39 -->
<g id="node55" class="node">
<title>39</title>
<ellipse fill="none" stroke="black" cx="244" cy="-1117.08" rx="46.29" ry="18"/>
<text text-anchor="middle" x="244" y="-1113.38" font-family="Times New Roman,serif" font-size="14.00">interface8</text>
</g>
<!-- 23&#45;&gt;39 -->
<g id="edge64" class="edge">
<title>23&#45;&gt;39</title>
<path fill="none" stroke="black" d="M234.97,-1170.78C236.29,-1163.07 237.88,-1153.8 239.35,-1145.2"/>
<polygon fill="black" stroke="black" points="242.83,-1145.64 241.07,-1135.19 235.93,-1144.45 242.83,-1145.64"/>
</g>
<!-- 24 -->
<g id="node56" class="node">
<title>24</title>
<ellipse fill="none" stroke="red" cx="1500" cy="-666" rx="40.09" ry="18"/>
<text text-anchor="middle" x="1500" y="-662.3" font-family="Times New Roman,serif" font-size="14.00">artifact0</text>
</g>
<!-- 24&#45;&gt;51 -->
<g id="edge65" class="edge">
<title>24&#45;&gt;51</title>
<path fill="none" stroke="black" d="M1460.65,-662.1C1307.48,-650.83 751.75,-609.92 592.14,-598.18"/>
<polygon fill="black" stroke="black" points="592,-594.66 581.77,-597.41 591.49,-601.64 592,-594.66"/>
</g>
<!-- 24&#45;&gt;12 -->
<g id="edge67" class="edge">
<title>24&#45;&gt;12</title>
<path fill="none" stroke="black" d="M1503.35,-647.86C1510.85,-611.02 1529.82,-525.85 1549,-504 1567.94,-482.42 1597.43,-469.14 1622.06,-461.27"/>
<polygon fill="black" stroke="black" points="1623.35,-464.54 1631.92,-458.32 1621.34,-457.83 1623.35,-464.54"/>
</g>
<!-- 24&#45;&gt;55 -->
<g id="edge68" class="edge">
<title>24&#45;&gt;55</title>
<path fill="none" stroke="black" d="M1482.21,-649.81C1471.08,-640.31 1456.55,-627.91 1444.13,-617.3"/>
<polygon fill="black" stroke="black" points="1446.2,-614.47 1436.33,-610.64 1441.66,-619.8 1446.2,-614.47"/>
</g>
<!-- 24&#45;&gt;72 -->
<g id="edge66" class="edge">
<title>24&#45;&gt;72</title>
<path fill="none" stroke="black" d="M1494.83,-647.83C1480.21,-598.24 1438.72,-450.25 1425,-324 1419.81,-276.28 1403.78,-259.06 1425,-216 1431.94,-201.91 1444.63,-190.52 1457.26,-181.96"/>
<polygon fill="black" stroke="black" points="1459.33,-184.79 1465.91,-176.49 1455.59,-178.88 1459.33,-184.79"/>
</g>
<!-- 25 -->
<g id="node57" class="node">
<title>25</title>
<ellipse fill="none" stroke="black" cx="3080" cy="-810" rx="44.69" ry="18"/>
<text text-anchor="middle" x="3080" y="-806.3" font-family="Times New Roman,serif" font-size="14.00">package6</text>
</g>
<!-- 68&#45;&gt;42 -->
<g id="edge187" class="edge">
<title>68&#45;&gt;42</title>
<path fill="none" stroke="black" d="M976.3,-90.22C1062.98,-89.7 1288,-100.33 1288,-233 1288,-1190.08 1288,-1190.08 1288,-1190.08 1288,-1260.05 1261.43,-1339.33 1242.99,-1378.87"/>
<polygon fill="black" stroke="black" points="1239.75,-1377.51 1238.5,-1388.03 1246.04,-1380.59 1239.75,-1377.51"/>
</g>
<!-- 68&#45;&gt;26 -->
<g id="edge184" class="edge">
<title>68&#45;&gt;26</title>
<path fill="none" stroke="black" d="M938.02,-107.86C921.99,-145.45 874.68,-236.26 848.45,-280.27"/>
<polygon fill="black" stroke="black" points="845.4,-278.55 843.19,-288.92 851.38,-282.19 845.4,-278.55"/>
</g>
<!-- 68&#45;&gt;62 -->
<g id="edge185" class="edge">
<title>68&#45;&gt;62</title>
<path fill="none" stroke="black" d="M937.12,-72.05C936.29,-64.23 936.05,-54.75 936.41,-45.98"/>
<polygon fill="black" stroke="black" points="939.92,-46.01 937.14,-35.79 932.93,-45.51 939.92,-46.01"/>
</g>
<!-- 68&#45;&gt;60 -->
<g id="edge186" class="edge">
<title>68&#45;&gt;60</title>
<path fill="none" stroke="black" d="M963.82,-104.15C975.87,-113.32 990.87,-125.83 1003.08,-136.78"/>
<polygon fill="black" stroke="black" points="1000.91,-139.53 1010.65,-143.7 1005.63,-134.36 1000.91,-139.53"/>
</g>
<!-- 68&#45;&gt;31 -->
<g id="edge188" class="edge">
<title>68&#45;&gt;31</title>
<path fill="none" stroke="black" d="M913.81,-98.86C795.4,-129.56 354.69,-245.4 277,-360 232.85,-425.12 311.51,-1001.92 361,-1063.08 385.59,-1093.47 428.68,-1106.47 461.25,-1112.02"/>
<polygon fill="black" stroke="black" points="461,-1115.52 471.42,-1113.57 462.06,-1108.6 461,-1115.52"/>
</g>
<!-- 29&#45;&gt;32 -->
<g id="edge80" class="edge">
<title>29&#45;&gt;32</title>
<path fill="none" stroke="black" d="M866.64,-390.9C895.12,-401.38 935.05,-416.88 965.58,-429.23"/>
<polygon fill="black" stroke="black" points="964.56,-432.59 975.14,-433.12 967.2,-426.11 964.56,-432.59"/>
</g>
<!-- 29&#45;&gt;26 -->
<g id="edge79" class="edge">
<title>29&#45;&gt;26</title>
<path fill="none" stroke="black" d="M825.08,-359.7C824.29,-351.98 824.06,-342.71 824.4,-334.11"/>
<polygon fill="black" stroke="black" points="827.9,-334.32 825.1,-324.1 820.92,-333.84 827.9,-334.32"/>
</g>
<!-- 29&#45;&gt;29 -->
<g id="edge81" class="edge">
<title>29&#45;&gt;29</title>
<path fill="none" stroke="black" d="M866.75,-391.43C876.79,-390.84 884.5,-386.37 884.5,-378 884.5,-372.77 881.49,-369.06 876.78,-366.87"/>
<polygon fill="black" stroke="black" points="877.28,-363.39 866.75,-364.57 875.72,-370.22 877.28,-363.39"/>
</g>
<!-- 46&#45;&gt;35 -->
<g id="edge132" class="edge">
<title>46&#45;&gt;35</title>
<path fill="none" stroke="black" d="M651.03,-754.55C673.5,-764.48 701.52,-777.48 723.83,-788.28"/>
<polygon fill="black" stroke="black" points="722.49,-791.52 733.01,-792.76 725.56,-785.23 722.49,-791.52"/>
</g>
<!-- 46&#45;&gt;27 -->
<g id="edge130" class="edge">
<title>46&#45;&gt;27</title>
<path fill="none" stroke="black" d="M603.26,-756.04C595.34,-765.93 584.56,-778.97 577,-792 564.58,-813.39 553.78,-837.64 544.5,-860.99"/>
<polygon fill="black" stroke="black" points="541.13,-859.99 540.76,-870.58 547.65,-862.54 541.13,-859.99"/>
</g>
<!-- 46&#45;&gt;31 -->
<g id="edge131" class="edge">
<title>46&#45;&gt;31</title>
<path fill="none" stroke="black" d="M617.93,-756.08C631.25,-815.36 654.31,-1011.45 622,-1063.08 605.82,-1088.94 573.01,-1102.51 545.96,-1109.42"/>
<polygon fill="black" stroke="black" points="544.87,-1106.08 535.92,-1111.75 546.45,-1112.89 544.87,-1106.08"/>
</g>
<!-- 28 -->
<g id="node61" class="node">
<title>28</title>
<path fill="none" stroke="black" d="M3017,-824.73C3017,-826.53 2999.97,-828 2979,-828 2958.03,-828 2941,-826.53 2941,-824.73 2941,-824.73 2941,-795.27 2941,-795.27 2941,-793.47 2958.03,-792 2979,-792 2999.97,-792 3017,-793.47 3017,-795.27 3017,-795.27 3017,-824.73 3017,-824.73"/>
<path fill="none" stroke="black" d="M3017,-824.73C3017,-822.92 2999.97,-821.45 2979,-821.45 2958.03,-821.45 2941,-822.92 2941,-824.73"/>
<text text-anchor="middle" x="2979" y="-806.3" font-family="Times New Roman,serif" font-size="14.00">package11</text>
</g>
<!-- 33 -->
<g id="node62" class="node">
<title>33</title>
<ellipse fill="none" stroke="red" cx="981" cy="-378" rx="40.09" ry="18"/>
<text text-anchor="middle" x="981" y="-374.3" font-family="Times New Roman,serif" font-size="14.00">artifact5</text>
</g>
<!-- 33&#45;&gt;60 -->
<g id="edge94" class="edge">
<title>33&#45;&gt;60</title>
<path fill="none" stroke="black" d="M984.53,-359.85C992.15,-322.75 1010.24,-234.81 1019.43,-190.1"/>
<polygon fill="black" stroke="black" points="1022.87,-190.73 1021.46,-180.23 1016.01,-189.32 1022.87,-190.73"/>
</g>
<!-- 33&#45;&gt;65 -->
<g id="edge93" class="edge">
<title>33&#45;&gt;65</title>
<path fill="none" stroke="black" d="M1019.14,-371.8C1106.53,-359.87 1322.03,-330.47 1430.08,-315.72"/>
<polygon fill="black" stroke="black" points="1430.75,-319.16 1440.19,-314.34 1429.81,-312.23 1430.75,-319.16"/>
</g>
<!-- 74 -->
<g id="node64" class="node">
<title>74</title>
<ellipse fill="none" stroke="black" cx="236" cy="-306" rx="55.79" ry="18"/>
<text text-anchor="middle" x="236" y="-302.3" font-family="Times New Roman,serif" font-size="14.00">component6</text>
</g>
<!-- 33&#45;&gt;74 -->
<g id="edge95" class="edge">
<title>33&#45;&gt;74</title>
<path fill="none" stroke="black" d="M945.61,-369.24C929.61,-365.97 910.42,-362.38 893,-360 677.56,-330.59 419.98,-315.64 301.51,-309.89"/>
<polygon fill="black" stroke="black" points="301.32,-306.37 291.16,-309.39 300.98,-313.37 301.32,-306.37"/>
</g>
<!-- 65&#45;&gt;76 -->
<g id="edge181" class="edge">
<title>65&#45;&gt;76</title>
<path fill="none" stroke="black" d="M1488.12,-288.05C1487.3,-280.35 1487.06,-271.03 1487.39,-262.36"/>
<polygon fill="black" stroke="black" points="1490.89,-262.49 1488.09,-252.28 1483.91,-262.01 1490.89,-262.49"/>
</g>
<!-- 65&#45;&gt;73 -->
<g id="edge180" class="edge">
<title>65&#45;&gt;73</title>
<path fill="none" stroke="black" d="M1501.64,-324.28C1503.22,-332.03 1504.38,-341.36 1504.89,-350.01"/>
<polygon fill="black" stroke="black" points="1501.39,-350.16 1505.18,-360.05 1508.39,-349.96 1501.39,-350.16"/>
</g>
<!-- 36&#45;&gt;42 -->
<g id="edge105" class="edge">
<title>36&#45;&gt;42</title>
<path fill="none" stroke="black" d="M970.56,-684.01C1005.75,-742.41 1100,-940.85 1100,-1116.08 1100,-1262.08 1100,-1262.08 1100,-1262.08 1100,-1319.76 1159.24,-1363.16 1196.94,-1386"/>
<polygon fill="black" stroke="black" points="1195.16,-1389.01 1205.54,-1391.09 1198.72,-1382.99 1195.16,-1389.01"/>
</g>
<!-- 36&#45;&gt;57 -->
<g id="edge104" class="edge">
<title>36&#45;&gt;57</title>
<path fill="none" stroke="black" d="M940.89,-683.94C928.38,-693.94 911.21,-706.66 896.12,-717.13"/>
<polygon fill="black" stroke="black" points="893.81,-714.47 887.52,-723 897.75,-720.25 893.81,-714.47"/>
</g>
<!-- 37 -->
<g id="node66" class="node">
<title>37</title>
<ellipse fill="none" stroke="red" cx="1708" cy="-1837.08" rx="37.89" ry="18"/>
<text text-anchor="middle" x="1708" y="-1833.38" font-family="Times New Roman,serif" font-size="14.00">model4</text>
</g>
<!-- 37&#45;&gt;9 -->
<g id="edge107" class="edge">
<title>37&#45;&gt;9</title>
<path fill="none" stroke="black" d="M1708,-1818.78C1708,-1811.07 1708,-1801.8 1708,-1793.2"/>
<polygon fill="black" stroke="black" points="1711.5,-1793.19 1708,-1783.19 1704.5,-1793.19 1711.5,-1793.19"/>
</g>
<!-- 37&#45;&gt;61 -->
<g id="edge106" class="edge">
<title>37&#45;&gt;61</title>
<path fill="none" stroke="black" d="M1688.7,-1821.24C1675.7,-1811.24 1658.38,-1797.91 1644.02,-1786.87"/>
<polygon fill="black" stroke="black" points="1646.02,-1783.99 1635.96,-1780.67 1641.75,-1789.54 1646.02,-1783.99"/>
</g>
<!-- 61&#45;&gt;54 -->
<g id="edge168" class="edge">
<title>61&#45;&gt;54</title>
<path fill="none" stroke="black" d="M1639.13,-1750.25C1655.34,-1740.12 1677.63,-1726.19 1695.95,-1714.74"/>
<polygon fill="black" stroke="black" points="1697.96,-1717.61 1704.59,-1709.34 1694.25,-1711.67 1697.96,-1717.61"/>
</g>
<!-- 61&#45;&gt;13 -->
<g id="edge170" class="edge">
<title>61&#45;&gt;13</title>
<path fill="none" stroke="black" d="M1580.84,-1759.85C1469.65,-1746.29 1134.98,-1701.1 1047,-1639.08 880.58,-1521.77 1138,-1393.7 1138,-1190.08 1138,-1190.08 1138,-1190.08 1138,-377 1138,-331.1 1105.88,-286.35 1082.34,-259.73"/>
<polygon fill="black" stroke="black" points="1084.68,-257.1 1075.36,-252.07 1079.51,-261.81 1084.68,-257.1"/>
</g>
<!-- 61&#45;&gt;66 -->
<g id="edge169" class="edge">
<title>61&#45;&gt;66</title>
<path fill="none" stroke="black" d="M1617,-1746.78C1617,-1739.07 1617,-1729.8 1617,-1721.2"/>
<polygon fill="black" stroke="black" points="1620.5,-1721.19 1617,-1711.19 1613.5,-1721.19 1620.5,-1721.19"/>
</g>
<!-- 38 -->
<g id="node68" class="node">
<title>38</title>
<ellipse fill="none" stroke="red" cx="1524" cy="-1693.08" rx="37.89" ry="18"/>
<text text-anchor="middle" x="1524" y="-1689.38" font-family="Times New Roman,serif" font-size="14.00">node11</text>
</g>
<!-- 38&#45;&gt;34 -->
<g id="edge112" class="edge">
<title>38&#45;&gt;34</title>
<path fill="none" stroke="black" d="M1486.75,-1689.93C1367.97,-1682.05 1006,-1649.86 1006,-1550.08 1006,-1550.08 1006,-1550.08 1006,-1404.08 1006,-1363.11 998.84,-1352.43 982,-1315.08 977.51,-1305.13 971.26,-1294.95 965.28,-1286.21"/>
<polygon fill="black" stroke="black" points="968.11,-1284.14 959.47,-1278 962.4,-1288.18 968.11,-1284.14"/>
</g>
<!-- 38&#45;&gt;2 -->
<g id="edge108" class="edge">
<title>38&#45;&gt;2</title>
<path fill="none" stroke="black" d="M1552.5,-1681.3C1584.19,-1669.31 1635.52,-1649.89 1670.7,-1636.58"/>
<polygon fill="black" stroke="black" points="1672.05,-1639.81 1680.16,-1632.99 1669.57,-1633.26 1672.05,-1639.81"/>
</g>
<!-- 38&#45;&gt;5 -->
<g id="edge110" class="edge">
<title>38&#45;&gt;5</title>
<path fill="none" stroke="black" d="M1548.81,-1679.31C1583.13,-1660.13 1643.91,-1620.39 1671,-1567.08 1747.11,-1417.29 1699,-1358.1 1699,-1190.08 1699,-1190.08 1699,-1190.08 1699,-1116.08 1699,-1002.28 1703.63,-970.41 1744,-864 1750.65,-846.47 1760.63,-845.97 1766,-828 1793.51,-735.97 1771.44,-708.04 1773,-612 1773.26,-596 1782.6,-588.8 1773,-576 1756.16,-553.56 1681.03,-537.5 1632.72,-529.28"/>
<polygon fill="black" stroke="black" points="1632.99,-525.78 1622.55,-527.6 1631.84,-532.68 1632.99,-525.78"/>
</g>
<!-- 38&#45;&gt;12 -->
<g id="edge111" class="edge">
<title>38&#45;&gt;12</title>
<path fill="none" stroke="black" d="M1532.5,-1675.53C1545.03,-1649.53 1567,-1597.22 1567,-1550.08 1567,-1550.08 1567,-1550.08 1567,-1260.08 1567,-1051.67 1567.46,-998.58 1595,-792 1610.76,-673.75 1644.4,-535.24 1659,-477.92"/>
<polygon fill="black" stroke="black" points="1662.48,-478.44 1661.57,-467.88 1655.7,-476.7 1662.48,-478.44"/>
</g>
<!-- 38&#45;&gt;60 -->
<g id="edge109" class="edge">
<title>38&#45;&gt;60</title>
<path fill="none" stroke="black" d="M1489.02,-1685.95C1398.94,-1669.18 1166,-1619.12 1166,-1550.08 1166,-1550.08 1166,-1550.08 1166,-1476.08 1166,-1345.63 1232,-1320.53 1232,-1190.08 1232,-1190.08 1232,-1190.08 1232,-305 1232,-224.46 1124.12,-186.2 1064.12,-171.15"/>
<polygon fill="black" stroke="black" points="1064.76,-167.71 1054.22,-168.77 1063.12,-174.51 1064.76,-167.71"/>
</g>
<!-- 40 -->
<g id="node69" class="node">
<title>40</title>
<ellipse fill="none" stroke="red" cx="2170" cy="-1909.08" rx="55.79" ry="18"/>
<text text-anchor="middle" x="2170" y="-1905.38" font-family="Times New Roman,serif" font-size="14.00">component3</text>
</g>
<!-- 40&#45;&gt;41 -->
<g id="edge115" class="edge">
<title>40&#45;&gt;41</title>
<path fill="none" stroke="black" d="M2224.07,-1904.23C2262.27,-1898.81 2312.28,-1885.86 2345,-1855.08 2375.73,-1826.18 2378,-1808.27 2378,-1766.08 2378,-1766.08 2378,-1766.08 2378,-1404.08 2378,-1195.94 2566.05,-1223.23 2699,-1063.08 2765.19,-983.35 2835.18,-882.06 2866.34,-835.92"/>
<polygon fill="black" stroke="black" points="2869.37,-837.7 2872.05,-827.45 2863.56,-833.79 2869.37,-837.7"/>
</g>
<!-- 40&#45;&gt;54 -->
<g id="edge114" class="edge">
<title>40&#45;&gt;54</title>
<path fill="none" stroke="black" d="M2140.38,-1893.71C2062.94,-1856.13 1854.49,-1754.98 1767.72,-1712.87"/>
<polygon fill="black" stroke="black" points="1769.02,-1709.61 1758.49,-1708.39 1765.96,-1715.91 1769.02,-1709.61"/>
</g>
<!-- 40&#45;&gt;48 -->
<g id="edge116" class="edge">
<title>40&#45;&gt;48</title>
<path fill="none" stroke="black" d="M2222.34,-1902.69C2255.28,-1896.53 2296.13,-1883.34 2321,-1855.08 2347.72,-1824.72 2340,-1806.53 2340,-1766.08 2340,-1766.08 2340,-1766.08 2340,-1548.08 2340,-1329.69 2278.61,-1280.77 2261,-1063.08 2253.86,-974.89 2240.35,-950.04 2261,-864 2263.24,-854.66 2267.42,-845.11 2271.83,-836.74"/>
<polygon fill="black" stroke="black" points="2274.97,-838.29 2276.81,-827.86 2268.87,-834.87 2274.97,-838.29"/>
</g>
<!-- 40&#45;&gt;59 -->
<g id="edge117" class="edge">
<title>40&#45;&gt;59</title>
<path fill="none" stroke="black" d="M2169.21,-1891.04C2168.04,-1864.38 2166,-1811.22 2166,-1766.08 2166,-1766.08 2166,-1766.08 2166,-1620.08 2166,-1333.77 1879.09,-1386.44 1742,-1135.08 1687.33,-1034.85 1670.6,-896.63 1665.8,-838.51"/>
<polygon fill="black" stroke="black" points="1669.27,-838 1665.01,-828.3 1662.29,-838.54 1669.27,-838"/>
</g>
<!-- 40&#45;&gt;52 -->
<g id="edge113" class="edge">
<title>40&#45;&gt;52</title>
<path fill="none" stroke="black" d="M2130.02,-1896.45C2121.8,-1894.4 2113.16,-1892.47 2105,-1891.08 1909.82,-1857.91 1856.18,-1888.26 1661,-1855.08 1656.02,-1854.24 1650.87,-1853.19 1645.75,-1852.04"/>
<polygon fill="black" stroke="black" points="1646.52,-1848.62 1635.98,-1849.71 1644.9,-1855.43 1646.52,-1848.62"/>
</g>
<!-- 45 -->
<g id="node70" class="node">
<title>45</title>
<path fill="none" stroke="red" d="M2871.5,-1131.81C2871.5,-1133.62 2855.59,-1135.08 2836,-1135.08 2816.41,-1135.08 2800.5,-1133.62 2800.5,-1131.81 2800.5,-1131.81 2800.5,-1102.36 2800.5,-1102.36 2800.5,-1100.55 2816.41,-1099.08 2836,-1099.08 2855.59,-1099.08 2871.5,-1100.55 2871.5,-1102.36 2871.5,-1102.36 2871.5,-1131.81 2871.5,-1131.81"/>
<path fill="none" stroke="red" d="M2871.5,-1131.81C2871.5,-1130 2855.59,-1128.54 2836,-1128.54 2816.41,-1128.54 2800.5,-1130 2800.5,-1131.81"/>
<text text-anchor="middle" x="2836" y="-1113.38" font-family="Times New Roman,serif" font-size="14.00">interface6</text>
</g>
<!-- 45&#45;&gt;0 -->
<g id="edge128" class="edge">
<title>45&#45;&gt;0</title>
<path fill="none" stroke="black" d="M2811.39,-1099.29C2770.22,-1071.18 2687.56,-1014.75 2643.39,-984.61"/>
<polygon fill="black" stroke="black" points="2645.33,-981.69 2635.1,-978.94 2641.39,-987.47 2645.33,-981.69"/>
</g>
<!-- 45&#45;&gt;25 -->
<g id="edge129" class="edge">
<title>45&#45;&gt;25</title>
<path fill="none" stroke="black" d="M2871.58,-1115.68C2912.45,-1113.24 2978.77,-1102.87 3017,-1063.08 3077.13,-1000.5 3082.46,-889.62 3081.4,-838.37"/>
<polygon fill="black" stroke="black" points="3084.89,-837.98 3081.08,-828.1 3077.89,-838.2 3084.89,-837.98"/>
</g>
<!-- 49 -->
<g id="node71" class="node">
<title>49</title>
<ellipse fill="none" stroke="red" cx="2354" cy="-1909.08" rx="44.39" ry="18"/>
<text text-anchor="middle" x="2354" y="-1905.38" font-family="Times New Roman,serif" font-size="14.00">artifact10</text>
</g>
<!-- 49&#45;&gt;8 -->
<g id="edge134" class="edge">
<title>49&#45;&gt;8</title>
<path fill="none" stroke="black" d="M2367.97,-1891.87C2375.99,-1881.84 2385.69,-1868.38 2392,-1855.08 2409.55,-1818.06 2416,-1807.05 2416,-1766.08 2416,-1766.08 2416,-1766.08 2416,-1116.08 2416,-1013.31 2405.13,-891.44 2399.83,-838.18"/>
<polygon fill="black" stroke="black" points="2403.31,-837.78 2398.82,-828.18 2396.34,-838.48 2403.31,-837.78"/>
</g>
<!-- 49&#45;&gt;7 -->
<g id="edge135" class="edge">
<title>49&#45;&gt;7</title>
<path fill="none" stroke="black" d="M2335.8,-1892.55C2324.58,-1882.97 2310.01,-1870.53 2297.63,-1859.96"/>
<polygon fill="black" stroke="black" points="2299.74,-1857.16 2289.87,-1853.33 2295.2,-1862.49 2299.74,-1857.16"/>
</g>
<!-- 53 -->
<g id="node72" class="node">
<title>53</title>
<ellipse fill="none" stroke="red" cx="726" cy="-1189.08" rx="38.19" ry="18"/>
<text text-anchor="middle" x="726" y="-1185.38" font-family="Times New Roman,serif" font-size="14.00">device4</text>
</g>
<!-- 53&#45;&gt;71 -->
<g id="edge151" class="edge">
<title>53&#45;&gt;71</title>
<path fill="none" stroke="black" d="M764.4,-1187.61C922.7,-1185.43 1540.11,-1174.7 2046,-1135.08 2114.81,-1129.69 2611.9,-1109.48 2663,-1063.08 2730.02,-1002.24 2678.29,-950.18 2706,-864 2708.82,-855.21 2712.59,-845.9 2716.25,-837.57"/>
<polygon fill="black" stroke="black" points="2719.5,-838.89 2720.45,-828.33 2713.13,-835.99 2719.5,-838.89"/>
</g>
<!-- 53&#45;&gt;35 -->
<g id="edge149" class="edge">
<title>53&#45;&gt;35</title>
<path fill="none" stroke="black" d="M727.64,-1170.9C733.34,-1111.15 752.35,-912.07 759.37,-838.57"/>
<polygon fill="black" stroke="black" points="762.88,-838.57 760.35,-828.28 755.92,-837.91 762.88,-838.57"/>
</g>
<!-- 53&#45;&gt;31 -->
<g id="edge148" class="edge">
<title>53&#45;&gt;31</title>
<path fill="none" stroke="black" d="M695.13,-1178.35C655.01,-1165.7 584.98,-1143.62 541.74,-1129.98"/>
<polygon fill="black" stroke="black" points="542.74,-1126.63 532.15,-1126.96 540.64,-1133.3 542.74,-1126.63"/>
</g>
<!-- 53&#45;&gt;75 -->
<g id="edge146" class="edge">
<title>53&#45;&gt;75</title>
<path fill="none" stroke="black" d="M702.87,-1174.52C669.31,-1155.35 604.69,-1120.28 546,-1099.08 481.11,-1075.65 443.26,-1112.39 395,-1063.08 331.68,-998.4 372.78,-952.1 352,-864 338.83,-808.18 320,-796.35 320,-739 320,-739 320,-739 320,-665 320,-613.67 364.78,-568.56 395.58,-543.61"/>
<polygon fill="black" stroke="black" points="397.76,-546.35 403.45,-537.41 393.43,-540.84 397.76,-546.35"/>
</g>
<!-- 53&#45;&gt;39 -->
<g id="edge150" class="edge">
<title>53&#45;&gt;39</title>
<path fill="none" stroke="black" d="M689.77,-1182.82C605.3,-1170.55 394.98,-1140.01 296.47,-1125.7"/>
<polygon fill="black" stroke="black" points="296.84,-1122.22 286.44,-1124.25 295.83,-1129.15 296.84,-1122.22"/>
</g>
<!-- 53&#45;&gt;36 -->
<g id="edge147" class="edge">
<title>53&#45;&gt;36</title>
<path fill="none" stroke="black" d="M734.79,-1171.5C761.45,-1120.84 843.09,-963.37 900,-828 919.53,-781.54 938.65,-725.96 949.32,-693.74"/>
<polygon fill="black" stroke="black" points="952.68,-694.74 952.48,-684.15 946.03,-692.55 952.68,-694.74"/>
</g>
<!-- 73&#45;&gt;56 -->
<g id="edge201" class="edge">
<title>73&#45;&gt;56</title>
<path fill="none" stroke="black" d="M1543.08,-385.7C1593.93,-394.89 1681.38,-412.49 1755,-432 1757.45,-432.65 1759.96,-433.34 1762.48,-434.06"/>
<polygon fill="black" stroke="black" points="1761.55,-437.44 1772.13,-436.93 1763.54,-430.73 1761.55,-437.44"/>
</g>
<!-- 73&#45;&gt;65 -->
<g id="edge200" class="edge">
<title>73&#45;&gt;65</title>
<path fill="none" stroke="black" d="M1493.43,-360.05C1491.84,-352.35 1490.66,-343.03 1490.13,-334.36"/>
<polygon fill="black" stroke="black" points="1493.63,-334.16 1489.81,-324.28 1486.63,-334.38 1493.63,-334.16"/>
</g>
<!-- 64 -->
<g id="node74" class="node">
<title>64</title>
<ellipse fill="none" stroke="red" cx="2310" cy="-963.54" rx="40.09" ry="18"/>
<text text-anchor="middle" x="2310" y="-959.84" font-family="Times New Roman,serif" font-size="14.00">artifact9</text>
</g>
<!-- 64&#45;&gt;47 -->
<g id="edge177" class="edge">
<title>64&#45;&gt;47</title>
<path fill="none" stroke="black" d="M2326.62,-946.76C2349.53,-925.67 2392.78,-888.15 2435,-864 2464.09,-847.36 2499.42,-833.77 2526.78,-824.51"/>
<polygon fill="black" stroke="black" points="2528.08,-827.77 2536.48,-821.3 2525.88,-821.13 2528.08,-827.77"/>
</g>
<!-- 64&#45;&gt;8 -->
<g id="edge179" class="edge">
<title>64&#45;&gt;8</title>
<path fill="none" stroke="black" d="M2318.89,-945.64C2329.37,-925.89 2347.46,-892.29 2364,-864 2369.28,-854.97 2375.27,-845.22 2380.68,-836.57"/>
<polygon fill="black" stroke="black" points="2383.69,-838.37 2386.06,-828.04 2377.76,-834.63 2383.69,-838.37"/>
</g>
<!-- 64&#45;&gt;48 -->
<g id="edge178" class="edge">
<title>64&#45;&gt;48</title>
<path fill="none" stroke="black" d="M2307.52,-945.45C2303.74,-919.42 2296.5,-869.57 2291.98,-838.42"/>
<polygon fill="black" stroke="black" points="2295.41,-837.65 2290.51,-828.26 2288.48,-838.66 2295.41,-837.65"/>
</g>
<!-- 67 -->
<g id="node75" class="node">
<title>67</title>
<ellipse fill="none" stroke="red" cx="776" cy="-1909.08" rx="46.29" ry="18"/>
<text text-anchor="middle" x="776" y="-1905.38" font-family="Times New Roman,serif" font-size="14.00">interface3</text>
</g>
<!-- 67&#45;&gt;52 -->
<g id="edge182" class="edge">
<title>67&#45;&gt;52</title>
<path fill="none" stroke="black" d="M820.67,-1904.27C957.78,-1892.57 1372.94,-1857.12 1532.54,-1843.5"/>
<polygon fill="black" stroke="black" points="1533.02,-1846.97 1542.68,-1842.63 1532.42,-1840 1533.02,-1846.97"/>
</g>
<!-- 67&#45;&gt;29 -->
<g id="edge183" class="edge">
<title>67&#45;&gt;29</title>
<path fill="none" stroke="black" d="M729.78,-1907.5C585.21,-1905.25 148.29,-1895.17 100,-1855.08 68.48,-1828.92 76,-1807.05 76,-1766.08 76,-1766.08 76,-1766.08 76,-1548.08 76,-1499.88 100.22,-1489.02 138,-1459.08 375.98,-1270.52 573.24,-1435.75 773,-1207.08 897.44,-1064.63 957.64,-958.02 867,-792 852.82,-766.03 829.86,-778.8 811,-756 779.32,-717.71 777.53,-697.5 782,-648 790.08,-558.56 812.98,-454.4 824.38,-406.12"/>
<polygon fill="black" stroke="black" points="827.84,-406.7 826.76,-396.16 821.03,-405.07 827.84,-406.7"/>
</g>
<!-- 69 -->
<g id="node76" class="node">
<title>69</title>
<ellipse fill="none" stroke="red" cx="1596" cy="-1909.08" rx="55.79" ry="18"/>
<text text-anchor="middle" x="1596" y="-1905.38" font-family="Times New Roman,serif" font-size="14.00">component1</text>
</g>
<!-- 69&#45;&gt;22 -->
<g id="edge190" class="edge">
<title>69&#45;&gt;22</title>
<path fill="none" stroke="black" d="M1645.55,-1900.71C1714.5,-1887.33 1831,-1852.01 1831,-1766.08 1831,-1766.08 1831,-1766.08 1831,-1692.08 1831,-1588.02 1736,-1582.14 1736,-1478.08 1736,-1478.08 1736,-1478.08 1736,-1404.08 1736,-1282.4 1696.38,-1256.23 1685,-1135.08 1676.65,-1046.2 1656.82,-951.05 1696,-864 1705.42,-843.08 1724.07,-849.14 1733,-828 1739.22,-813.26 1734.01,-807.97 1733,-792 1729.15,-731.09 1718.67,-660.22 1712.57,-622.29"/>
<polygon fill="black" stroke="black" points="1715.97,-621.37 1710.9,-612.06 1709.06,-622.49 1715.97,-621.37"/>
</g>
<!-- 69&#45;&gt;8 -->
<g id="edge191" class="edge">
<title>69&#45;&gt;8</title>
<path fill="none" stroke="black" d="M1650.93,-1905.09C1786.85,-1896.18 2128,-1864.07 2128,-1766.08 2128,-1766.08 2128,-1766.08 2128,-1620.08 2128,-1352.08 2287.16,-1321.28 2359,-1063.08 2381.24,-983.15 2391.29,-885.1 2395.07,-838.34"/>
<polygon fill="black" stroke="black" points="2398.58,-838.35 2395.86,-828.11 2391.6,-837.81 2398.58,-838.35"/>
</g>
<!-- 69&#45;&gt;52 -->
<g id="edge189" class="edge">
<title>69&#45;&gt;52</title>
<path fill="none" stroke="black" d="M1596,-1890.78C1596,-1883.07 1596,-1873.8 1596,-1865.2"/>
<polygon fill="black" stroke="black" points="1599.5,-1865.19 1596,-1855.19 1592.5,-1865.19 1599.5,-1865.19"/>
</g>
<!-- 69&#45;&gt;21 -->
<g id="edge192" class="edge">
<title>69&#45;&gt;21</title>
<path fill="none" stroke="black" d="M1540.14,-1907.42C1327.05,-1904.63 565.19,-1892.24 326,-1855.08 177.59,-1832.03 0,-1916.27 0,-1766.08 0,-1766.08 0,-1766.08 0,-1116.08 0,-947.64 38,-907.44 38,-739 38,-739 38,-739 38,-305 38,-264.55 32.3,-248.03 57,-216 71.1,-197.71 93.23,-185.24 113.55,-177.01"/>
<polygon fill="black" stroke="black" points="114.92,-180.24 123.03,-173.42 112.44,-173.69 114.92,-180.24"/>
</g>
<!-- 69&#45;&gt;74 -->
<g id="edge193" class="edge">
<title>69&#45;&gt;74</title>
<path fill="none" stroke="black" d="M1541.05,-1905.76C1272.84,-1894.05 114,-1839.22 114,-1766.08 114,-1766.08 114,-1766.08 114,-1548.08 114,-1451.48 76,-1430.68 76,-1334.08 76,-1334.08 76,-1334.08 76,-449 76,-387.02 143.99,-345.51 191.32,-324.11"/>
<polygon fill="black" stroke="black" points="192.73,-327.32 200.49,-320.1 189.93,-320.91 192.73,-327.32"/>
</g>
<!-- 70 -->
<g id="node77" class="node">
<title>70</title>
<path fill="none" stroke="red" d="M3008,-978.27C3008,-980.07 2995,-981.54 2979,-981.54 2963,-981.54 2950,-980.07 2950,-978.27 2950,-978.27 2950,-948.81 2950,-948.81 2950,-947.01 2963,-945.54 2979,-945.54 2995,-945.54 3008,-947.01 3008,-948.81 3008,-948.81 3008,-978.27 3008,-978.27"/>
<path fill="none" stroke="red" d="M3008,-978.27C3008,-976.46 2995,-975 2979,-975 2963,-975 2950,-976.46 2950,-978.27"/>
<text text-anchor="middle" x="2979" y="-959.84" font-family="Times New Roman,serif" font-size="14.00">model1</text>
</g>
<!-- 70&#45;&gt;8 -->
<g id="edge194" class="edge">
<title>70&#45;&gt;8</title>
<path fill="none" stroke="black" d="M2949.67,-952.25C2894.21,-933.05 2769.92,-891.24 2663,-864 2586.43,-844.49 2495.94,-827.78 2442.69,-818.59"/>
<polygon fill="black" stroke="black" points="2443,-815.09 2432.55,-816.85 2441.81,-821.99 2443,-815.09"/>
</g>
<!-- 70&#45;&gt;25 -->
<g id="edge195" class="edge">
<title>70&#45;&gt;25</title>
<path fill="none" stroke="black" d="M2990.2,-945.41C3003.1,-925.71 3024.96,-892.44 3044,-864 3050.13,-854.85 3056.9,-844.85 3062.9,-836.03"/>
<polygon fill="black" stroke="black" points="3065.85,-837.91 3068.59,-827.67 3060.07,-833.96 3065.85,-837.91"/>
</g>
<!-- 70&#45;&gt;28 -->
<g id="edge196" class="edge">
<title>70&#45;&gt;28</title>
<path fill="none" stroke="black" d="M2979,-945.45C2979,-919.42 2979,-869.57 2979,-838.42"/>
<polygon fill="black" stroke="black" points="2982.5,-838.26 2979,-828.26 2975.5,-838.26 2982.5,-838.26"/>
</g>
</g>
</svg>
