<?xml version="1.0" encoding="UTF-8" standalone="no"?>
<!DOCTYPE svg PUBLIC "-//W3C//DTD SVG 1.1//EN"
 "http://www.w3.org/Graphics/SVG/1.1/DTD/svg11.dtd">
<!-- Generated by graphviz version 2.49.3 (20211023.0002)
 -->
<!-- Title: test Pages: 1 -->
<svg width="2411pt" height="2280pt"
 viewBox="0.00 0.00 2411.00 2280.45" xmlns="http://www.w3.org/2000/svg" xmlns:xlink="http://www.w3.org/1999/xlink">
<g id="graph0" class="graph" transform="scale(1 1) rotate(0) translate(4 2276.45)">
<title>test</title>
<polygon fill="white" stroke="transparent" points="-4,4 -4,-2276.45 2407,-2276.45 2407,4 -4,4"/>
<!-- 0 -->
<g id="node1" class="node">
<title>0</title>
<ellipse fill="none" stroke="black" cx="141" cy="-2182.45" rx="38.19" ry="18"/>
<text text-anchor="middle" x="141" y="-2178.75" font-family="Times New Roman,serif" font-size="14.00">device9</text>
</g>
<!-- 70 -->
<g id="node2" class="node">
<title>70</title>
<ellipse fill="none" stroke="black" cx="274" cy="-2110.45" rx="95.58" ry="18"/>
<text text-anchor="middle" x="274" y="-2106.75" font-family="Times New Roman,serif" font-size="14.00">executionEnvironment2</text>
</g>
<!-- 0&#45;&gt;70 -->
<g id="edge1" class="edge">
<title>0&#45;&gt;70</title>
<path fill="none" stroke="black" d="M162.37,-2167.28C180.43,-2157.06 206.71,-2143.12 229.28,-2131.73"/>
<polygon fill="black" stroke="black" points="230.99,-2134.78 238.37,-2127.18 227.86,-2128.52 230.99,-2134.78"/>
</g>
<!-- 37 -->
<g id="node3" class="node">
<title>37</title>
<ellipse fill="none" stroke="black" cx="277" cy="-1519.46" rx="33.29" ry="18"/>
<text text-anchor="middle" x="277" y="-1515.76" font-family="Times New Roman,serif" font-size="14.00">node6</text>
</g>
<!-- 0&#45;&gt;37 -->
<g id="edge2" class="edge">
<title>0&#45;&gt;37</title>
<path fill="none" stroke="black" d="M139.52,-2164.34C142.78,-2146.4 151.82,-2117.38 160,-2092.45 195.99,-1982.8 244,-1962.16 244,-1846.75 244,-1846.75 244,-1846.75 244,-1772.75 244,-1690.09 256.92,-1592.88 267.36,-1546.99"/>
<polygon fill="black" stroke="black" points="270.77,-1547.78 269.75,-1537.24 263.97,-1546.12 270.77,-1547.78"/>
</g>
<!-- 53 -->
<g id="node4" class="node">
<title>53</title>
<ellipse fill="none" stroke="red" cx="254" cy="-852.38" rx="95.58" ry="18"/>
<text text-anchor="middle" x="254" y="-848.68" font-family="Times New Roman,serif" font-size="14.00">executionEnvironment6</text>
</g>
<!-- 0&#45;&gt;53 -->
<g id="edge3" class="edge">
<title>0&#45;&gt;53</title>
<path fill="none" stroke="black" d="M124.86,-2166.05C105.24,-2140.8 76,-2088.47 76,-2039.45 76,-2039.45 76,-2039.45 76,-1772.75 76,-1382.7 89.45,-1275.33 216,-906.38 219.23,-896.95 224.06,-887.22 229.31,-878.71"/>
<polygon fill="black" stroke="black" points="232.25,-880.61 234.89,-870.35 226.43,-876.73 232.25,-880.61"/>
</g>
<!-- 70&#45;&gt;0 -->
<g id="edge183" class="edge">
<title>70&#45;&gt;0</title>
<path fill="none" stroke="black" d="M248.52,-2127.92C228.4,-2139.16 200.24,-2153.98 177.72,-2165.18"/>
<polygon fill="black" stroke="black" points="175.88,-2162.18 168.45,-2169.73 178.97,-2168.46 175.88,-2162.18"/>
</g>
<!-- 70&#45;&gt;53 -->
<g id="edge184" class="edge">
<title>70&#45;&gt;53</title>
<path fill="none" stroke="black" d="M260.77,-2092.43C236.18,-2051.35 188,-1942.99 188,-1846.75 188,-1846.75 188,-1846.75 188,-1772.75 188,-1419.5 230.44,-991.35 247.86,-880.57"/>
<polygon fill="black" stroke="black" points="251.33,-881.01 249.51,-870.58 244.43,-879.87 251.33,-881.01"/>
</g>
<!-- 61 -->
<g id="node14" class="node">
<title>61</title>
<ellipse fill="none" stroke="black" cx="236" cy="-340.19" rx="40.09" ry="18"/>
<text text-anchor="middle" x="236" y="-336.49" font-family="Times New Roman,serif" font-size="14.00">artifact4</text>
</g>
<!-- 70&#45;&gt;61 -->
<g id="edge182" class="edge">
<title>70&#45;&gt;61</title>
<path fill="none" stroke="black" d="M253.87,-2092.8C214.4,-2053.36 132,-1949.76 132,-1846.75 132,-1846.75 132,-1846.75 132,-1772.75 132,-1729.58 0,-1050.09 0,-1006.92 0,-1006.92 0,-1006.92 0,-851.38 0,-716.66 168,-733.8 168,-599.08 168,-599.08 168,-599.08 168,-525.08 168,-465.93 196.02,-400.98 216.38,-366.31"/>
<polygon fill="black" stroke="black" points="219.63,-367.71 221.9,-357.36 213.67,-364.04 219.63,-367.71"/>
</g>
<!-- 19 -->
<g id="node32" class="node">
<title>19</title>
<ellipse fill="none" stroke="red" cx="482" cy="-2038.45" rx="37.89" ry="18"/>
<text text-anchor="middle" x="482" y="-2034.75" font-family="Times New Roman,serif" font-size="14.00">node10</text>
</g>
<!-- 70&#45;&gt;19 -->
<g id="edge185" class="edge">
<title>70&#45;&gt;19</title>
<path fill="none" stroke="black" d="M313.95,-2094.08C350.34,-2081.32 403.73,-2063.4 440.58,-2051.61"/>
<polygon fill="black" stroke="black" points="442.04,-2054.82 450.51,-2048.46 439.92,-2048.15 442.04,-2054.82"/>
</g>
<!-- 37&#45;&gt;0 -->
<g id="edge97" class="edge">
<title>37&#45;&gt;0</title>
<path fill="none" stroke="black" d="M278.83,-1537.54C276.94,-1578.17 262,-1683.88 262,-1772.75 262,-1846.75 262,-1846.75 262,-1846.75 262,-1962.16 213.99,-1982.8 178,-2092.45 171.08,-2113.55 163.54,-2137.57 156.65,-2155.34"/>
<polygon fill="black" stroke="black" points="153.24,-2154.42 152.67,-2165 159.71,-2157.09 153.24,-2154.42"/>
</g>
<!-- 37&#45;&gt;37 -->
<g id="edge95" class="edge">
<title>37&#45;&gt;37</title>
<path fill="none" stroke="black" d="M300.68,-1532.12C314.83,-1534.93 328.15,-1530.71 328.15,-1519.46 328.15,-1511.02 320.65,-1506.54 310.94,-1506.01"/>
<polygon fill="black" stroke="black" points="310.38,-1502.54 300.68,-1506.8 310.91,-1509.52 310.38,-1502.54"/>
</g>
<!-- 10 -->
<g id="node7" class="node">
<title>10</title>
<ellipse fill="none" stroke="black" cx="691" cy="-1610.61" rx="33.28" ry="33.28"/>
<ellipse fill="none" stroke="black" cx="691" cy="-1610.61" rx="37.29" ry="37.29"/>
<text text-anchor="middle" x="691" y="-1606.91" font-family="Times New Roman,serif" font-size="14.00">node5</text>
</g>
<!-- 37&#45;&gt;10 -->
<g id="edge96" class="edge">
<title>37&#45;&gt;10</title>
<path fill="none" stroke="black" d="M307.9,-1526.34C380.11,-1541.06 559.65,-1579.65 644.85,-1598.68"/>
<polygon fill="black" stroke="black" points="644.24,-1602.12 654.76,-1600.9 645.77,-1595.29 644.24,-1602.12"/>
</g>
<!-- 37&#45;&gt;19 -->
<g id="edge98" class="edge">
<title>37&#45;&gt;19</title>
<path fill="none" stroke="black" d="M292.41,-1535.6C315.8,-1565.66 356,-1635.61 356,-1700.75 356,-1846.75 356,-1846.75 356,-1846.75 356,-1909.68 350.25,-1934.86 389,-1984.45 402.88,-2002.2 424.36,-2014.61 443.26,-2022.92"/>
<polygon fill="black" stroke="black" points="442,-2026.19 452.57,-2026.8 444.68,-2019.72 442,-2026.19"/>
</g>
<!-- 53&#45;&gt;0 -->
<g id="edge133" class="edge">
<title>53&#45;&gt;0</title>
<path fill="none" stroke="black" d="M250.4,-870.83C245.38,-880.84 238.29,-893.88 234,-906.38 107.45,-1275.33 94,-1382.7 94,-1772.75 94,-2039.45 94,-2039.45 94,-2039.45 94,-2082.35 116.4,-2127.79 130.59,-2155.39"/>
<polygon fill="black" stroke="black" points="127.53,-2157.09 135.22,-2164.37 133.75,-2153.88 127.53,-2157.09"/>
</g>
<!-- 53&#45;&gt;70 -->
<g id="edge132" class="edge">
<title>53&#45;&gt;70</title>
<path fill="none" stroke="black" d="M254.76,-870.58C251.31,-962.76 206,-1407.73 206,-1772.75 206,-1846.75 206,-1846.75 206,-1846.75 206,-1936.41 247.82,-2036.59 266.22,-2083.09"/>
<polygon fill="black" stroke="black" points="262.97,-2084.39 269.86,-2092.43 269.49,-2081.84 262.97,-2084.39"/>
</g>
<!-- 2 -->
<g id="node8" class="node">
<title>2</title>
<ellipse fill="none" stroke="black" cx="612" cy="-1005.92" rx="38.19" ry="18"/>
<text text-anchor="middle" x="612" y="-1002.22" font-family="Times New Roman,serif" font-size="14.00">device2</text>
</g>
<!-- 53&#45;&gt;2 -->
<g id="edge136" class="edge">
<title>53&#45;&gt;2</title>
<path fill="none" stroke="black" d="M294.47,-868.7C365.32,-897.31 510.28,-958.65 577.06,-988.26"/>
<polygon fill="black" stroke="black" points="575.77,-991.51 586.33,-992.39 578.62,-985.12 575.77,-991.51"/>
</g>
<!-- 4 -->
<g id="node13" class="node">
<title>4</title>
<ellipse fill="none" stroke="black" cx="254" cy="-454.08" rx="40.09" ry="18"/>
<text text-anchor="middle" x="254" y="-450.38" font-family="Times New Roman,serif" font-size="14.00">artifact6</text>
</g>
<!-- 53&#45;&gt;4 -->
<g id="edge134" class="edge">
<title>53&#45;&gt;4</title>
<path fill="none" stroke="black" d="M248.77,-834.22C245,-802.17 245,-731.02 245,-671.08 245,-671.08 245,-671.08 245,-597.08 245,-557.08 245,-510.73 247.29,-482.16"/>
<polygon fill="black" stroke="black" points="250.78,-482.43 248.29,-472.13 243.82,-481.74 250.78,-482.43"/>
</g>
<!-- 65 -->
<g id="node27" class="node">
<title>65</title>
<ellipse fill="none" stroke="black" cx="397" cy="-194.15" rx="60.39" ry="18"/>
<text text-anchor="middle" x="397" y="-190.45" font-family="Times New Roman,serif" font-size="14.00">component12</text>
</g>
<!-- 53&#45;&gt;65 -->
<g id="edge131" class="edge">
<title>53&#45;&gt;65</title>
<path fill="none" stroke="black" d="M260.61,-834.21C284.45,-787.11 360,-651.03 360,-527.08 360,-527.08 360,-527.08 360,-453.08 360,-368.28 375.14,-268.71 386.74,-221.95"/>
<polygon fill="black" stroke="black" points="390.12,-222.84 389.3,-212.28 383.35,-221.05 390.12,-222.84"/>
</g>
<!-- 16 -->
<g id="node29" class="node">
<title>16</title>
<ellipse fill="none" stroke="black" cx="1015" cy="-761.23" rx="33.28" ry="33.28"/>
<ellipse fill="none" stroke="black" cx="1015" cy="-761.23" rx="37.29" ry="37.29"/>
<text text-anchor="middle" x="1015" y="-757.53" font-family="Times New Roman,serif" font-size="14.00">node1</text>
</g>
<!-- 53&#45;&gt;16 -->
<g id="edge130" class="edge">
<title>53&#45;&gt;16</title>
<path fill="none" stroke="black" d="M343.69,-846.04C457.46,-838.81 659.34,-823.78 831,-798.38 877.99,-791.42 931.37,-779.86 968.61,-771.68"/>
<polygon fill="black" stroke="black" points="969.65,-775.04 978.67,-769.47 968.15,-768.2 969.65,-775.04"/>
</g>
<!-- 50 -->
<g id="node69" class="node">
<title>50</title>
<ellipse fill="none" stroke="black" cx="785" cy="-761.23" rx="46.29" ry="18"/>
<text text-anchor="middle" x="785" y="-757.53" font-family="Times New Roman,serif" font-size="14.00">interface4</text>
</g>
<!-- 53&#45;&gt;50 -->
<g id="edge135" class="edge">
<title>53&#45;&gt;50</title>
<path fill="none" stroke="black" d="M320.56,-839.4C427.67,-820.94 635.88,-786.02 732.95,-770.28"/>
<polygon fill="black" stroke="black" points="733.51,-773.74 742.83,-768.69 732.4,-766.83 733.51,-773.74"/>
</g>
<!-- 1 -->
<g id="node5" class="node">
<title>1</title>
<ellipse fill="none" stroke="black" cx="748" cy="-1519.46" rx="38.19" ry="18"/>
<text text-anchor="middle" x="748" y="-1515.76" font-family="Times New Roman,serif" font-size="14.00">device6</text>
</g>
<!-- 41 -->
<g id="node6" class="node">
<title>41</title>
<ellipse fill="none" stroke="black" cx="748" cy="-1447.46" rx="33.29" ry="18"/>
<text text-anchor="middle" x="748" y="-1443.76" font-family="Times New Roman,serif" font-size="14.00">node3</text>
</g>
<!-- 1&#45;&gt;41 -->
<g id="edge4" class="edge">
<title>1&#45;&gt;41</title>
<path fill="none" stroke="black" d="M742.12,-1501.51C741.29,-1493.69 741.05,-1484.21 741.41,-1475.44"/>
<polygon fill="black" stroke="black" points="744.92,-1475.47 742.14,-1465.25 737.93,-1474.97 744.92,-1475.47"/>
</g>
<!-- 1&#45;&gt;10 -->
<g id="edge5" class="edge">
<title>1&#45;&gt;10</title>
<path fill="none" stroke="black" d="M742.54,-1537.52C737.14,-1547.71 729.01,-1561.05 720.74,-1573.48"/>
<polygon fill="black" stroke="black" points="717.75,-1571.65 715.02,-1581.89 723.54,-1575.59 717.75,-1571.65"/>
</g>
<!-- 41&#45;&gt;1 -->
<g id="edge104" class="edge">
<title>41&#45;&gt;1</title>
<path fill="none" stroke="black" d="M753.86,-1465.25C754.7,-1473.05 754.94,-1482.53 754.6,-1491.31"/>
<polygon fill="black" stroke="black" points="751.09,-1491.29 753.88,-1501.51 758.07,-1491.78 751.09,-1491.29"/>
</g>
<!-- 24 -->
<g id="node10" class="node">
<title>24</title>
<ellipse fill="none" stroke="black" cx="941" cy="-598.08" rx="42.79" ry="18"/>
<text text-anchor="middle" x="941" y="-594.38" font-family="Times New Roman,serif" font-size="14.00">device11</text>
</g>
<!-- 41&#45;&gt;24 -->
<g id="edge105" class="edge">
<title>41&#45;&gt;24</title>
<path fill="none" stroke="black" d="M756.73,-1429.97C787.67,-1382.76 888.52,-1241.68 924,-1105.46 970.25,-927.86 946.4,-703.22 940.89,-626.33"/>
<polygon fill="black" stroke="black" points="944.37,-625.83 940.22,-616.08 937.38,-626.29 944.37,-625.83"/>
</g>
<!-- 36 -->
<g id="node36" class="node">
<title>36</title>
<ellipse fill="none" stroke="red" cx="685" cy="-1375.46" rx="33.29" ry="18"/>
<text text-anchor="middle" x="685" y="-1371.76" font-family="Times New Roman,serif" font-size="14.00">node2</text>
</g>
<!-- 41&#45;&gt;36 -->
<g id="edge106" class="edge">
<title>41&#45;&gt;36</title>
<path fill="none" stroke="black" d="M729.7,-1432.29C720.4,-1423.28 709.37,-1411.36 700.49,-1400.86"/>
<polygon fill="black" stroke="black" points="702.95,-1398.33 693.9,-1392.81 697.53,-1402.77 702.95,-1398.33"/>
</g>
<!-- 10&#45;&gt;37 -->
<g id="edge27" class="edge">
<title>10&#45;&gt;37</title>
<path fill="none" stroke="black" d="M654.67,-1602.61C577.28,-1586.74 397.15,-1547.99 316.79,-1529.97"/>
<polygon fill="black" stroke="black" points="317.12,-1526.45 306.59,-1527.67 315.58,-1533.28 317.12,-1526.45"/>
</g>
<!-- 10&#45;&gt;1 -->
<g id="edge28" class="edge">
<title>10&#45;&gt;1</title>
<path fill="none" stroke="black" d="M705.67,-1576.41C712.05,-1565.84 719.55,-1554.36 726.51,-1544.56"/>
<polygon fill="black" stroke="black" points="729.37,-1546.59 732.45,-1536.45 723.72,-1542.46 729.37,-1546.59"/>
</g>
<!-- 3 -->
<g id="node11" class="node">
<title>3</title>
<ellipse fill="none" stroke="black" cx="1134" cy="-1701.75" rx="33.29" ry="18"/>
<text text-anchor="middle" x="1134" y="-1698.05" font-family="Times New Roman,serif" font-size="14.00">node7</text>
</g>
<!-- 10&#45;&gt;3 -->
<g id="edge29" class="edge">
<title>10&#45;&gt;3</title>
<path fill="none" stroke="black" d="M727.38,-1618.17C809.53,-1633.93 1008.4,-1673.92 1093.93,-1691.83"/>
<polygon fill="black" stroke="black" points="1093.28,-1695.27 1103.78,-1693.91 1094.72,-1688.42 1093.28,-1695.27"/>
</g>
<!-- 10&#45;&gt;65 -->
<g id="edge26" class="edge">
<title>10&#45;&gt;65</title>
<path fill="none" stroke="black" d="M678.52,-1575.44C657.83,-1503.13 618.28,-1337.05 592,-1285.46 521.15,-1146.35 378,-1163.03 378,-1006.92 378,-1006.92 378,-1006.92 378,-760.23 378,-655.24 416,-632.07 416,-527.08 416,-527.08 416,-527.08 416,-453.08 416,-368.46 400.92,-269.13 396.45,-222.25"/>
<polygon fill="black" stroke="black" points="399.94,-221.95 395.61,-212.28 392.96,-222.54 399.94,-221.95"/>
</g>
<!-- 10&#45;&gt;16 -->
<g id="edge25" class="edge">
<title>10&#45;&gt;16</title>
<path fill="none" stroke="black" d="M727.67,-1604.48C798.55,-1593.14 954.31,-1559.1 1041,-1465.46 1069.17,-1435.03 1069,-1417.93 1069,-1376.46 1069,-1376.46 1069,-1376.46 1069,-1230.46 1069,-1053.74 1074.15,-1006.48 1034,-834.38 1031.94,-825.53 1029.01,-816.33 1025.99,-807.58"/>
<polygon fill="black" stroke="black" points="1029.21,-806.19 1022.58,-797.93 1022.61,-808.52 1029.21,-806.19"/>
</g>
<!-- 2&#45;&gt;53 -->
<g id="edge7" class="edge">
<title>2&#45;&gt;53</title>
<path fill="none" stroke="black" d="M582.86,-994.14C519.7,-968.97 370.54,-905.98 296.73,-873.48"/>
<polygon fill="black" stroke="black" points="297.82,-870.13 287.26,-869.29 294.99,-876.53 297.82,-870.13"/>
</g>
<!-- 5 -->
<g id="node9" class="node">
<title>5</title>
<ellipse fill="none" stroke="red" cx="824" cy="-1159.46" rx="33.29" ry="18"/>
<text text-anchor="middle" x="824" y="-1155.76" font-family="Times New Roman,serif" font-size="14.00">node9</text>
</g>
<!-- 2&#45;&gt;5 -->
<g id="edge6" class="edge">
<title>2&#45;&gt;5</title>
<path fill="none" stroke="black" d="M630.76,-1021.78C652.17,-1042.49 687.84,-1080.3 724,-1105.46 745.17,-1120.19 771.06,-1132.97 791.31,-1142.28"/>
<polygon fill="black" stroke="black" points="789.91,-1145.49 800.46,-1146.44 792.8,-1139.12 789.91,-1145.49"/>
</g>
<!-- 2&#45;&gt;24 -->
<g id="edge8" class="edge">
<title>2&#45;&gt;24</title>
<path fill="none" stroke="black" d="M611.66,-987.59C616.91,-966.5 632.59,-930.7 655,-906.38 695.35,-862.58 717.02,-865.16 768,-834.38 795.61,-817.71 808.77,-821.74 831,-798.38 844.09,-784.61 896.28,-675.24 924.1,-624.62"/>
<polygon fill="black" stroke="black" points="927.32,-626.04 929.16,-615.61 921.21,-622.61 927.32,-626.04"/>
</g>
<!-- 5&#45;&gt;2 -->
<g id="edge17" class="edge">
<title>5&#45;&gt;2</title>
<path fill="none" stroke="black" d="M795.3,-1150.14C770.2,-1140.98 733.98,-1124.93 706,-1105.46 674.98,-1083.87 644.31,-1052.97 626.53,-1031.55"/>
<polygon fill="black" stroke="black" points="629.13,-1029.2 620.16,-1023.56 623.66,-1033.56 629.13,-1029.2"/>
</g>
<!-- 48 -->
<g id="node15" class="node">
<title>48</title>
<ellipse fill="none" stroke="black" cx="299" cy="-1231.46" rx="33.29" ry="18"/>
<text text-anchor="middle" x="299" y="-1227.76" font-family="Times New Roman,serif" font-size="14.00">node4</text>
</g>
<!-- 5&#45;&gt;48 -->
<g id="edge14" class="edge">
<title>5&#45;&gt;48</title>
<path fill="none" stroke="black" d="M792.31,-1165.16C701.93,-1177.77 443.47,-1212.24 341.24,-1225.32"/>
<polygon fill="black" stroke="black" points="340.75,-1221.86 331.27,-1226.6 341.64,-1228.8 340.75,-1221.86"/>
</g>
<!-- 15 -->
<g id="node16" class="node">
<title>15</title>
<ellipse fill="none" stroke="black" cx="1649" cy="-598.08" rx="37.89" ry="18"/>
<text text-anchor="middle" x="1649" y="-594.38" font-family="Times New Roman,serif" font-size="14.00">node11</text>
</g>
<!-- 5&#45;&gt;15 -->
<g id="edge15" class="edge">
<title>5&#45;&gt;15</title>
<path fill="none" stroke="black" d="M855.08,-1153.14C971.6,-1132.51 1385.1,-1046.22 1590,-798.38 1631.61,-748.05 1639.28,-667.79 1643.56,-626.14"/>
<polygon fill="black" stroke="black" points="1647.04,-626.5 1644.62,-616.19 1640.08,-625.76 1647.04,-626.5"/>
</g>
<!-- 64 -->
<g id="node17" class="node">
<title>64</title>
<ellipse fill="none" stroke="black" cx="824" cy="-1005.92" rx="95.58" ry="95.58"/>
<ellipse fill="none" stroke="black" cx="824" cy="-1005.92" rx="99.58" ry="99.58"/>
<text text-anchor="middle" x="824" y="-1002.22" font-family="Times New Roman,serif" font-size="14.00">executionEnvironment0</text>
</g>
<!-- 5&#45;&gt;64 -->
<g id="edge16" class="edge">
<title>5&#45;&gt;64</title>
<path fill="none" stroke="black" d="M819.54,-1141.37C818.79,-1134.23 818.23,-1125.3 817.85,-1115.45"/>
<polygon fill="black" stroke="black" points="821.34,-1115.22 817.53,-1105.33 814.34,-1115.44 821.34,-1115.22"/>
</g>
<!-- 24&#45;&gt;41 -->
<g id="edge63" class="edge">
<title>24&#45;&gt;41</title>
<path fill="none" stroke="black" d="M946.95,-616.08C961.88,-681.02 990.53,-919.12 942,-1105.46 908,-1236 813.96,-1371 770.33,-1423.58"/>
<polygon fill="black" stroke="black" points="767.58,-1421.41 763.78,-1431.3 772.92,-1425.94 767.58,-1421.41"/>
</g>
<!-- 24&#45;&gt;2 -->
<g id="edge66" class="edge">
<title>24&#45;&gt;2</title>
<path fill="none" stroke="black" d="M937.2,-616.26C920.61,-661.92 862.87,-783.8 849,-798.38 826.77,-821.74 813.61,-817.71 786,-834.38 735.02,-865.16 713.35,-862.58 673,-906.38 653.22,-927.84 638.69,-958.24 628.25,-979.58"/>
<polygon fill="black" stroke="black" points="625.05,-978.17 623.74,-988.68 631.32,-981.28 625.05,-978.17"/>
</g>
<!-- 24&#45;&gt;3 -->
<g id="edge64" class="edge">
<title>24&#45;&gt;3</title>
<path fill="none" stroke="black" d="M960.75,-614.15C996.38,-645.91 1066.73,-717.37 1070,-724.08 1169.74,-928.42 1143,-1003.08 1143,-1230.46 1143,-1520.46 1143,-1520.46 1143,-1520.46 1143,-1574.92 1143,-1638.64 1140.17,-1673.87"/>
<polygon fill="black" stroke="black" points="1136.69,-1673.56 1139.2,-1683.85 1143.66,-1674.24 1136.69,-1673.56"/>
</g>
<!-- 11 -->
<g id="node30" class="node">
<title>11</title>
<ellipse fill="none" stroke="black" cx="1053" cy="-526.08" rx="95.58" ry="18"/>
<text text-anchor="middle" x="1053" y="-522.38" font-family="Times New Roman,serif" font-size="14.00">executionEnvironment4</text>
</g>
<!-- 24&#45;&gt;11 -->
<g id="edge62" class="edge">
<title>24&#45;&gt;11</title>
<path fill="none" stroke="black" d="M959.88,-581.72C974.42,-571.9 994.83,-559.02 1012.89,-548.24"/>
<polygon fill="black" stroke="black" points="1014.7,-551.24 1021.53,-543.14 1011.14,-545.21 1014.7,-551.24"/>
</g>
<!-- 71 -->
<g id="node50" class="node">
<title>71</title>
<ellipse fill="none" stroke="black" cx="788" cy="-670.08" rx="60.39" ry="18"/>
<text text-anchor="middle" x="788" y="-666.38" font-family="Times New Roman,serif" font-size="14.00">component14</text>
</g>
<!-- 24&#45;&gt;71 -->
<g id="edge65" class="edge">
<title>24&#45;&gt;71</title>
<path fill="none" stroke="black" d="M916.2,-612.95C893.6,-623.97 859.91,-639.45 832.68,-651.37"/>
<polygon fill="black" stroke="black" points="831.12,-648.23 823.34,-655.42 833.91,-654.65 831.12,-648.23"/>
</g>
<!-- 3&#45;&gt;10 -->
<g id="edge9" class="edge">
<title>3&#45;&gt;10</title>
<path fill="none" stroke="black" d="M1102.8,-1695.18C1025.95,-1680.51 827.82,-1640.71 737.26,-1621.82"/>
<polygon fill="black" stroke="black" points="737.79,-1618.35 727.29,-1619.73 736.36,-1625.21 737.79,-1618.35"/>
</g>
<!-- 3&#45;&gt;24 -->
<g id="edge11" class="edge">
<title>3&#45;&gt;24</title>
<path fill="none" stroke="black" d="M1128.8,-1683.85C1125,-1651.92 1125,-1580.56 1125,-1520.46 1125,-1520.46 1125,-1520.46 1125,-1230.46 1125,-1003.08 1151.74,-928.42 1052,-724.08 1049.01,-717.97 990.27,-658.02 959.28,-623.41"/>
<polygon fill="black" stroke="black" points="961.65,-620.8 952.41,-615.62 956.4,-625.43 961.65,-620.8"/>
</g>
<!-- 25 -->
<g id="node12" class="node">
<title>25</title>
<ellipse fill="none" stroke="black" cx="1241" cy="-1773.75" rx="38.19" ry="18"/>
<text text-anchor="middle" x="1241" y="-1770.05" font-family="Times New Roman,serif" font-size="14.00">device8</text>
</g>
<!-- 3&#45;&gt;25 -->
<g id="edge10" class="edge">
<title>3&#45;&gt;25</title>
<path fill="none" stroke="black" d="M1157.43,-1714.67C1174.43,-1724.75 1197.23,-1739.44 1214.81,-1751.52"/>
<polygon fill="black" stroke="black" points="1213.26,-1754.71 1223.46,-1757.56 1217.27,-1748.97 1213.26,-1754.71"/>
</g>
<!-- 25&#45;&gt;3 -->
<g id="edge69" class="edge">
<title>25&#45;&gt;3</title>
<path fill="none" stroke="black" d="M1216.01,-1759.91C1198.89,-1749.7 1176.45,-1735.2 1159.28,-1723.36"/>
<polygon fill="black" stroke="black" points="1161.04,-1720.32 1150.85,-1717.45 1157.03,-1726.05 1161.04,-1720.32"/>
</g>
<!-- 25&#45;&gt;11 -->
<g id="edge67" class="edge">
<title>25&#45;&gt;11</title>
<path fill="none" stroke="black" d="M1235.56,-1755.82C1232,-1726.46 1232,-1664.2 1232,-1611.61 1232,-1611.61 1232,-1611.61 1232,-1230.46 1232,-957.86 1098.57,-645.36 1061.91,-553.66"/>
<polygon fill="black" stroke="black" points="1065.14,-552.31 1058.21,-544.29 1058.63,-554.88 1065.14,-552.31"/>
</g>
<!-- 63 -->
<g id="node41" class="node">
<title>63</title>
<ellipse fill="none" stroke="black" cx="1145" cy="-1845.75" rx="95.58" ry="18"/>
<text text-anchor="middle" x="1145" y="-1842.05" font-family="Times New Roman,serif" font-size="14.00">executionEnvironment1</text>
</g>
<!-- 25&#45;&gt;63 -->
<g id="edge68" class="edge">
<title>25&#45;&gt;63</title>
<path fill="none" stroke="black" d="M1225.25,-1790.42C1213.36,-1799.9 1196.78,-1812.14 1181.71,-1822.6"/>
<polygon fill="black" stroke="black" points="1179.34,-1819.98 1173.07,-1828.52 1183.3,-1825.76 1179.34,-1819.98"/>
</g>
<!-- 4&#45;&gt;53 -->
<g id="edge13" class="edge">
<title>4&#45;&gt;53</title>
<path fill="none" stroke="black" d="M259.71,-472.13C263,-498.79 263,-551.97 263,-597.08 263,-671.08 263,-671.08 263,-671.08 263,-725.4 263,-788.93 260.2,-824.22"/>
<polygon fill="black" stroke="black" points="256.71,-823.93 259.23,-834.22 263.68,-824.6 256.71,-823.93"/>
</g>
<!-- 4&#45;&gt;61 -->
<g id="edge12" class="edge">
<title>4&#45;&gt;61</title>
<path fill="none" stroke="black" d="M246.26,-436.09C241.38,-418.1 236.48,-389.44 234.48,-368.31"/>
<polygon fill="black" stroke="black" points="237.97,-368.05 233.73,-358.34 230.99,-368.58 237.97,-368.05"/>
</g>
<!-- 61&#45;&gt;70 -->
<g id="edge155" class="edge">
<title>61&#45;&gt;70</title>
<path fill="none" stroke="black" d="M231.88,-358.1C219.01,-389.82 186,-460.87 186,-525.08 186,-599.08 186,-599.08 186,-599.08 186,-733.8 18,-716.66 18,-851.38 18,-1006.92 18,-1006.92 18,-1006.92 18,-1050.09 150,-1729.58 150,-1772.75 150,-1846.75 150,-1846.75 150,-1846.75 150,-1943.08 222.06,-2039.93 256.51,-2084.34"/>
<polygon fill="black" stroke="black" points="253.96,-2086.77 262.86,-2092.51 259.49,-2082.47 253.96,-2086.77"/>
</g>
<!-- 61&#45;&gt;4 -->
<g id="edge157" class="edge">
<title>61&#45;&gt;4</title>
<path fill="none" stroke="black" d="M243.69,-357.97C248.59,-375.99 253.53,-404.87 255.53,-426.08"/>
<polygon fill="black" stroke="black" points="252.04,-426.38 256.28,-436.09 259.02,-425.85 252.04,-426.38"/>
</g>
<!-- 61&#45;&gt;61 -->
<g id="edge156" class="edge">
<title>61&#45;&gt;61</title>
<path fill="none" stroke="black" d="M254.21,-356.42C273.11,-366.27 294.3,-360.86 294.3,-340.19 294.3,-322.91 279.49,-316.29 263.59,-320.34"/>
<polygon fill="black" stroke="black" points="262.28,-317.09 254.21,-323.96 264.8,-323.63 262.28,-317.09"/>
</g>
<!-- 72 -->
<g id="node55" class="node">
<title>72</title>
<ellipse fill="none" stroke="black" cx="252" cy="-194.15" rx="46.28" ry="46.28"/>
<ellipse fill="none" stroke="black" cx="252" cy="-194.15" rx="50.29" ry="50.29"/>
<text text-anchor="middle" x="252" y="-190.45" font-family="Times New Roman,serif" font-size="14.00">interface8</text>
</g>
<!-- 61&#45;&gt;72 -->
<g id="edge158" class="edge">
<title>61&#45;&gt;72</title>
<path fill="none" stroke="black" d="M233.34,-322.1C233.44,-305.07 235.76,-277.95 238.92,-253.14"/>
<polygon fill="black" stroke="black" points="242.42,-253.43 240.28,-243.05 235.48,-252.5 242.42,-253.43"/>
</g>
<!-- 48&#45;&gt;5 -->
<g id="edge120" class="edge">
<title>48&#45;&gt;5</title>
<path fill="none" stroke="black" d="M330.67,-1225.76C421.08,-1213.15 679.79,-1178.65 781.92,-1165.57"/>
<polygon fill="black" stroke="black" points="782.39,-1169.04 791.87,-1164.3 781.51,-1162.1 782.39,-1169.04"/>
</g>
<!-- 31 -->
<g id="node28" class="node">
<title>31</title>
<ellipse fill="none" stroke="black" cx="397" cy="-18" rx="95.58" ry="18"/>
<text text-anchor="middle" x="397" y="-14.3" font-family="Times New Roman,serif" font-size="14.00">executionEnvironment5</text>
</g>
<!-- 48&#45;&gt;31 -->
<g id="edge122" class="edge">
<title>48&#45;&gt;31</title>
<path fill="none" stroke="black" d="M266.83,-1226.92C213.9,-1219.92 112.67,-1202.76 89,-1177.46 36.26,-1121.08 56,-1084.12 56,-1006.92 56,-1006.92 56,-1006.92 56,-193.15 56,-83.23 200.48,-42.55 301.4,-27.59"/>
<polygon fill="black" stroke="black" points="301.92,-31.05 311.33,-26.18 300.94,-24.12 301.92,-31.05"/>
</g>
<!-- 48&#45;&gt;19 -->
<g id="edge121" class="edge">
<title>48&#45;&gt;19</title>
<path fill="none" stroke="black" d="M308.25,-1249.16C335.89,-1312.1 412,-1535.23 412,-1609.61 412,-1846.75 412,-1846.75 412,-1846.75 412,-1909.2 410.97,-1929.15 440,-1984.45 445.73,-1995.35 454.38,-2005.57 462.46,-2014.06"/>
<polygon fill="black" stroke="black" points="460.11,-2016.67 469.61,-2021.35 465.1,-2011.76 460.11,-2016.67"/>
</g>
<!-- 48&#45;&gt;36 -->
<g id="edge124" class="edge">
<title>48&#45;&gt;36</title>
<path fill="none" stroke="black" d="M314.63,-1247.56C331.41,-1267.91 358.89,-1303.63 392,-1321.46 472.69,-1364.91 581.44,-1373.89 641.27,-1375.11"/>
<polygon fill="black" stroke="black" points="641.46,-1378.61 651.5,-1375.25 641.55,-1371.61 641.46,-1378.61"/>
</g>
<!-- 78 -->
<g id="node63" class="node">
<title>78</title>
<ellipse fill="none" stroke="black" cx="492" cy="-1303.46" rx="100.18" ry="18"/>
<text text-anchor="middle" x="492" y="-1299.76" font-family="Times New Roman,serif" font-size="14.00">executionEnvironment11</text>
</g>
<!-- 48&#45;&gt;78 -->
<g id="edge123" class="edge">
<title>48&#45;&gt;78</title>
<path fill="none" stroke="black" d="M327.13,-1240.99C358.06,-1251.41 408,-1269.34 444.88,-1283.15"/>
<polygon fill="black" stroke="black" points="443.84,-1286.5 454.43,-1286.75 446.3,-1279.95 443.84,-1286.5"/>
</g>
<!-- 15&#45;&gt;5 -->
<g id="edge39" class="edge">
<title>15&#45;&gt;5</title>
<path fill="none" stroke="black" d="M1654.17,-616.19C1658.36,-653.59 1653.23,-743.66 1608,-798.38 1405.05,-1043.86 997.45,-1130.85 865.87,-1152.53"/>
<polygon fill="black" stroke="black" points="865.12,-1149.11 855.8,-1154.15 866.23,-1156.02 865.12,-1149.11"/>
</g>
<!-- 73 -->
<g id="node37" class="node">
<title>73</title>
<ellipse fill="none" stroke="black" cx="1649" cy="-526.08" rx="33.29" ry="18"/>
<text text-anchor="middle" x="1649" y="-522.38" font-family="Times New Roman,serif" font-size="14.00">node0</text>
</g>
<!-- 15&#45;&gt;73 -->
<g id="edge38" class="edge">
<title>15&#45;&gt;73</title>
<path fill="none" stroke="black" d="M1643.12,-580.14C1642.29,-572.31 1642.05,-562.83 1642.41,-554.06"/>
<polygon fill="black" stroke="black" points="1645.92,-554.1 1643.14,-543.87 1638.93,-553.6 1645.92,-554.1"/>
</g>
<!-- 54 -->
<g id="node38" class="node">
<title>54</title>
<ellipse fill="none" stroke="black" cx="1336" cy="-670.08" rx="38.19" ry="18"/>
<text text-anchor="middle" x="1336" y="-666.38" font-family="Times New Roman,serif" font-size="14.00">device3</text>
</g>
<!-- 15&#45;&gt;54 -->
<g id="edge40" class="edge">
<title>15&#45;&gt;54</title>
<path fill="none" stroke="black" d="M1614.39,-605.38C1564.76,-613.9 1471.25,-630.52 1393,-652.08 1388.07,-653.44 1382.91,-655.06 1377.78,-656.74"/>
<polygon fill="black" stroke="black" points="1376.38,-653.52 1368.01,-660.02 1378.6,-660.15 1376.38,-653.52"/>
</g>
<!-- 64&#45;&gt;5 -->
<g id="edge162" class="edge">
<title>64&#45;&gt;5</title>
<path fill="none" stroke="black" d="M830.47,-1105.33C830.24,-1114.72 829.85,-1123.6 829.32,-1131.31"/>
<polygon fill="black" stroke="black" points="825.82,-1131.11 828.46,-1141.37 832.8,-1131.7 825.82,-1131.11"/>
</g>
<!-- 12 -->
<g id="node31" class="node">
<title>12</title>
<ellipse fill="none" stroke="black" cx="824" cy="-852.38" rx="38.19" ry="18"/>
<text text-anchor="middle" x="824" y="-848.68" font-family="Times New Roman,serif" font-size="14.00">device0</text>
</g>
<!-- 64&#45;&gt;12 -->
<g id="edge163" class="edge">
<title>64&#45;&gt;12</title>
<path fill="none" stroke="black" d="M817.53,-906.38C817.76,-897 818.15,-888.14 818.69,-880.44"/>
<polygon fill="black" stroke="black" points="822.18,-880.66 819.54,-870.4 815.21,-880.07 822.18,-880.66"/>
</g>
<!-- 6 -->
<g id="node18" class="node">
<title>6</title>
<ellipse fill="none" stroke="black" cx="1329" cy="-90" rx="55.79" ry="18"/>
<text text-anchor="middle" x="1329" y="-86.3" font-family="Times New Roman,serif" font-size="14.00">component1</text>
</g>
<!-- 27 -->
<g id="node19" class="node">
<title>27</title>
<ellipse fill="none" stroke="black" cx="1224" cy="-194.15" rx="60.39" ry="18"/>
<text text-anchor="middle" x="1224" y="-190.45" font-family="Times New Roman,serif" font-size="14.00">component15</text>
</g>
<!-- 6&#45;&gt;27 -->
<g id="edge18" class="edge">
<title>6&#45;&gt;27</title>
<path fill="none" stroke="black" d="M1316.83,-107.87C1301.19,-124.93 1274.16,-151.41 1253.18,-170.34"/>
<polygon fill="black" stroke="black" points="1250.62,-167.93 1245.47,-177.19 1255.27,-173.16 1250.62,-167.93"/>
</g>
<!-- 27&#45;&gt;6 -->
<g id="edge74" class="edge">
<title>27&#45;&gt;6</title>
<path fill="none" stroke="black" d="M1236.17,-176.28C1251.83,-159.2 1278.92,-132.66 1299.91,-113.73"/>
<polygon fill="black" stroke="black" points="1302.47,-116.14 1307.62,-106.88 1297.82,-110.91 1302.47,-116.14"/>
</g>
<!-- 51 -->
<g id="node53" class="node">
<title>51</title>
<ellipse fill="none" stroke="red" cx="1208" cy="-340.19" rx="55.8" ry="55.8"/>
<ellipse fill="none" stroke="red" cx="1208" cy="-340.19" rx="59.79" ry="59.79"/>
<text text-anchor="middle" x="1208" y="-336.49" font-family="Times New Roman,serif" font-size="14.00">component9</text>
</g>
<!-- 27&#45;&gt;51 -->
<g id="edge73" class="edge">
<title>27&#45;&gt;51</title>
<path fill="none" stroke="black" d="M1226.66,-212.2C1226.58,-227.02 1224.81,-249.48 1222.27,-271.42"/>
<polygon fill="black" stroke="black" points="1218.78,-271.08 1221.05,-281.43 1225.73,-271.93 1218.78,-271.08"/>
</g>
<!-- 7 -->
<g id="node20" class="node">
<title>7</title>
<path fill="none" stroke="red" d="M1786,-1956.83C1786,-1958.63 1773,-1960.1 1757,-1960.1 1741,-1960.1 1728,-1958.63 1728,-1956.83 1728,-1956.83 1728,-1927.37 1728,-1927.37 1728,-1925.57 1741,-1924.1 1757,-1924.1 1773,-1924.1 1786,-1925.57 1786,-1927.37 1786,-1927.37 1786,-1956.83 1786,-1956.83"/>
<path fill="none" stroke="red" d="M1786,-1956.83C1786,-1955.02 1773,-1953.55 1757,-1953.55 1741,-1953.55 1728,-1955.02 1728,-1956.83"/>
<text text-anchor="middle" x="1757" y="-1938.4" font-family="Times New Roman,serif" font-size="14.00">model2</text>
</g>
<!-- 56 -->
<g id="node21" class="node">
<title>56</title>
<ellipse fill="none" stroke="black" cx="1605" cy="-1845.75" rx="95.58" ry="18"/>
<text text-anchor="middle" x="1605" y="-1842.05" font-family="Times New Roman,serif" font-size="14.00">executionEnvironment7</text>
</g>
<!-- 7&#45;&gt;56 -->
<g id="edge19" class="edge">
<title>7&#45;&gt;56</title>
<path fill="none" stroke="black" d="M1731.22,-1925.1C1706.15,-1909.54 1667.88,-1885.79 1640.06,-1868.51"/>
<polygon fill="black" stroke="black" points="1641.76,-1865.45 1631.42,-1863.15 1638.07,-1871.4 1641.76,-1865.45"/>
</g>
<!-- 46 -->
<g id="node22" class="node">
<title>46</title>
<ellipse fill="none" stroke="black" cx="2055" cy="-1845.75" rx="37.89" ry="18"/>
<text text-anchor="middle" x="2055" y="-1842.05" font-family="Times New Roman,serif" font-size="14.00">model6</text>
</g>
<!-- 7&#45;&gt;46 -->
<g id="edge20" class="edge">
<title>7&#45;&gt;46</title>
<path fill="none" stroke="black" d="M1779.19,-1924.57C1791.54,-1916.06 1807.51,-1906.16 1823,-1899.75 1884.71,-1874.23 1960.99,-1859.81 2008.83,-1852.65"/>
<polygon fill="black" stroke="black" points="2009.49,-1856.09 2018.89,-1851.18 2008.49,-1849.16 2009.49,-1856.09"/>
</g>
<!-- 17 -->
<g id="node23" class="node">
<title>17</title>
<ellipse fill="none" stroke="black" cx="1840" cy="-1845.75" rx="44.69" ry="18"/>
<text text-anchor="middle" x="1840" y="-1842.05" font-family="Times New Roman,serif" font-size="14.00">package6</text>
</g>
<!-- 7&#45;&gt;17 -->
<g id="edge21" class="edge">
<title>7&#45;&gt;17</title>
<path fill="none" stroke="black" d="M1772.22,-1923.8C1785.33,-1908.89 1804.39,-1887.23 1818.96,-1870.67"/>
<polygon fill="black" stroke="black" points="1821.73,-1872.82 1825.71,-1863 1816.47,-1868.2 1821.73,-1872.82"/>
</g>
<!-- 40 -->
<g id="node24" class="node">
<title>40</title>
<ellipse fill="none" stroke="black" cx="1140" cy="-1773.75" rx="44.69" ry="18"/>
<text text-anchor="middle" x="1140" y="-1770.05" font-family="Times New Roman,serif" font-size="14.00">package5</text>
</g>
<!-- 7&#45;&gt;40 -->
<g id="edge22" class="edge">
<title>7&#45;&gt;40</title>
<path fill="none" stroke="black" d="M1755.38,-1923.84C1751.95,-1898.13 1741.47,-1850.4 1710,-1827.75 1616.7,-1760.62 1306.93,-1813.16 1194,-1791.75 1190.14,-1791.02 1186.18,-1790.11 1182.23,-1789.08"/>
<polygon fill="black" stroke="black" points="1183.1,-1785.69 1172.52,-1786.35 1181.2,-1792.43 1183.1,-1785.69"/>
</g>
<!-- 40&#45;&gt;3 -->
<g id="edge103" class="edge">
<title>40&#45;&gt;3</title>
<path fill="none" stroke="black" d="M1138.52,-1755.45C1137.86,-1747.74 1137.06,-1738.47 1136.32,-1729.87"/>
<polygon fill="black" stroke="black" points="1139.81,-1729.52 1135.47,-1719.86 1132.83,-1730.12 1139.81,-1729.52"/>
</g>
<!-- 8 -->
<g id="node25" class="node">
<title>8</title>
<path fill="none" stroke="black" d="M1922.5,-2125.17C1922.5,-2126.98 1907.93,-2128.45 1890,-2128.45 1872.07,-2128.45 1857.5,-2126.98 1857.5,-2125.17 1857.5,-2125.17 1857.5,-2095.72 1857.5,-2095.72 1857.5,-2093.91 1872.07,-2092.45 1890,-2092.45 1907.93,-2092.45 1922.5,-2093.91 1922.5,-2095.72 1922.5,-2095.72 1922.5,-2125.17 1922.5,-2125.17"/>
<path fill="none" stroke="black" d="M1922.5,-2125.17C1922.5,-2123.37 1907.93,-2121.9 1890,-2121.9 1872.07,-2121.9 1857.5,-2123.37 1857.5,-2125.17"/>
<text text-anchor="middle" x="1890" y="-2106.75" font-family="Times New Roman,serif" font-size="14.00">model10</text>
</g>
<!-- 9 -->
<g id="node26" class="node">
<title>9</title>
<ellipse fill="none" stroke="black" cx="397" cy="-90" rx="40.09" ry="18"/>
<text text-anchor="middle" x="397" y="-86.3" font-family="Times New Roman,serif" font-size="14.00">artifact9</text>
</g>
<!-- 9&#45;&gt;65 -->
<g id="edge23" class="edge">
<title>9&#45;&gt;65</title>
<path fill="none" stroke="black" d="M402.19,-108.07C403.92,-123.78 404.21,-147.36 403.06,-165.72"/>
<polygon fill="black" stroke="black" points="399.56,-165.56 402.22,-175.82 406.54,-166.14 399.56,-165.56"/>
</g>
<!-- 9&#45;&gt;31 -->
<g id="edge24" class="edge">
<title>9&#45;&gt;31</title>
<path fill="none" stroke="black" d="M391.12,-72.05C390.3,-64.35 390.06,-55.03 390.39,-46.36"/>
<polygon fill="black" stroke="black" points="393.89,-46.49 391.09,-36.28 386.91,-46.01 393.89,-46.49"/>
</g>
<!-- 65&#45;&gt;53 -->
<g id="edge165" class="edge">
<title>65&#45;&gt;53</title>
<path fill="none" stroke="black" d="M398.39,-212.28C395.52,-253.57 378,-361.87 378,-453.08 378,-527.08 378,-527.08 378,-527.08 378,-644.54 310.16,-772.88 274.61,-826.09"/>
<polygon fill="black" stroke="black" points="271.57,-824.33 268.79,-834.55 277.34,-828.3 271.57,-824.33"/>
</g>
<!-- 65&#45;&gt;10 -->
<g id="edge164" class="edge">
<title>65&#45;&gt;10</title>
<path fill="none" stroke="black" d="M404.7,-212.28C416.48,-253.57 434,-361.87 434,-453.08 434,-527.08 434,-527.08 434,-527.08 434,-632.07 396,-655.24 396,-760.23 396,-1006.92 396,-1006.92 396,-1006.92 396,-1163.03 539.15,-1146.35 610,-1285.46 634.92,-1334.39 671.8,-1486.35 686.05,-1563.57"/>
<polygon fill="black" stroke="black" points="682.62,-1564.27 687.83,-1573.5 689.51,-1563.04 682.62,-1564.27"/>
</g>
<!-- 65&#45;&gt;9 -->
<g id="edge166" class="edge">
<title>65&#45;&gt;9</title>
<path fill="none" stroke="black" d="M391.78,-175.82C390.07,-160.02 389.79,-136.43 390.96,-118.13"/>
<polygon fill="black" stroke="black" points="394.45,-118.33 391.81,-108.07 387.48,-117.74 394.45,-118.33"/>
</g>
<!-- 65&#45;&gt;51 -->
<g id="edge168" class="edge">
<title>65&#45;&gt;51</title>
<path fill="none" stroke="black" d="M456.42,-197.6C610.57,-204.85 1019.36,-228.95 1143,-280.29 1148.87,-282.73 1154.66,-285.78 1160.22,-289.2"/>
<polygon fill="black" stroke="black" points="1158.49,-292.25 1168.76,-294.84 1162.35,-286.4 1158.49,-292.25"/>
</g>
<!-- 69 -->
<g id="node74" class="node">
<title>69</title>
<ellipse fill="none" stroke="black" cx="221" cy="-90" rx="44.39" ry="18"/>
<text text-anchor="middle" x="221" y="-86.3" font-family="Times New Roman,serif" font-size="14.00">artifact10</text>
</g>
<!-- 65&#45;&gt;69 -->
<g id="edge167" class="edge">
<title>65&#45;&gt;69</title>
<path fill="none" stroke="black" d="M366.88,-178.51C334.23,-160.86 282.75,-131.1 250.39,-111.26"/>
<polygon fill="black" stroke="black" points="252.15,-108.23 241.8,-105.94 248.46,-114.18 252.15,-108.23"/>
</g>
<!-- 31&#45;&gt;48 -->
<g id="edge81" class="edge">
<title>31&#45;&gt;48</title>
<path fill="none" stroke="black" d="M315.29,-27.42C219.55,-42.25 74,-82.82 74,-193.15 74,-1006.92 74,-1006.92 74,-1006.92 74,-1084.12 54.26,-1121.08 107,-1177.46 127.7,-1199.59 207.73,-1215.49 257.81,-1223.81"/>
<polygon fill="black" stroke="black" points="257.27,-1227.27 267.71,-1225.43 258.4,-1220.36 257.27,-1227.27"/>
</g>
<!-- 31&#45;&gt;9 -->
<g id="edge82" class="edge">
<title>31&#45;&gt;9</title>
<path fill="none" stroke="black" d="M402.91,-36.28C403.71,-44.03 403.94,-53.36 403.59,-62.01"/>
<polygon fill="black" stroke="black" points="400.09,-61.83 402.88,-72.05 407.08,-62.33 400.09,-61.83"/>
</g>
<!-- 16&#45;&gt;53 -->
<g id="edge43" class="edge">
<title>16&#45;&gt;53</title>
<path fill="none" stroke="black" d="M979.35,-772.51C945.81,-780.62 894.42,-791.65 849,-798.38 676.68,-823.88 473.91,-838.92 355.06,-846.13"/>
<polygon fill="black" stroke="black" points="354.66,-842.64 344.88,-846.74 355.08,-849.63 354.66,-842.64"/>
</g>
<!-- 16&#45;&gt;10 -->
<g id="edge42" class="edge">
<title>16&#45;&gt;10</title>
<path fill="none" stroke="black" d="M1036.78,-791.47C1042.9,-804.36 1048.61,-819.85 1052,-834.38 1092.15,-1006.48 1087,-1053.74 1087,-1230.46 1087,-1376.46 1087,-1376.46 1087,-1376.46 1087,-1417.93 1087.17,-1435.03 1059,-1465.46 972.21,-1559.2 816.2,-1593.22 738.06,-1604.51"/>
<polygon fill="black" stroke="black" points="737.44,-1601.06 728.01,-1605.9 738.4,-1608 737.44,-1601.06"/>
</g>
<!-- 16&#45;&gt;36 -->
<g id="edge46" class="edge">
<title>16&#45;&gt;36</title>
<path fill="none" stroke="black" d="M1026.75,-796.66C1044.25,-871.78 1065.8,-1053.59 993,-1177.46 932.05,-1281.15 792.44,-1340.64 723.99,-1363.5"/>
<polygon fill="black" stroke="black" points="722.86,-1360.19 714.43,-1366.61 725.02,-1366.85 722.86,-1360.19"/>
</g>
<!-- 16&#45;&gt;73 -->
<g id="edge41" class="edge">
<title>16&#45;&gt;73</title>
<path fill="none" stroke="black" d="M1048.18,-744.13C1098.3,-722.53 1195.85,-683.28 1280,-652.08 1399.19,-607.89 1542.26,-559.62 1610.02,-538.29"/>
<polygon fill="black" stroke="black" points="1611.35,-541.54 1619.85,-535.22 1609.26,-534.86 1611.35,-541.54"/>
</g>
<!-- 16&#45;&gt;54 -->
<g id="edge44" class="edge">
<title>16&#45;&gt;54</title>
<path fill="none" stroke="black" d="M1050.36,-749.12C1109.75,-731.84 1228.92,-698.75 1293.02,-681.75"/>
<polygon fill="black" stroke="black" points="1294.05,-685.1 1302.82,-679.16 1292.26,-678.33 1294.05,-685.1"/>
</g>
<!-- 45 -->
<g id="node39" class="node">
<title>45</title>
<ellipse fill="none" stroke="red" cx="520" cy="-670.08" rx="95.58" ry="18"/>
<text text-anchor="middle" x="520" y="-666.38" font-family="Times New Roman,serif" font-size="14.00">executionEnvironment8</text>
</g>
<!-- 16&#45;&gt;45 -->
<g id="edge45" class="edge">
<title>16&#45;&gt;45</title>
<path fill="none" stroke="black" d="M978.55,-753.66C941.24,-746.13 882.09,-733.58 831,-724.08 751.94,-709.38 661.51,-694.59 598.56,-684.38"/>
<polygon fill="black" stroke="black" points="598.74,-680.86 588.31,-682.72 597.62,-687.77 598.74,-680.86"/>
</g>
<!-- 11&#45;&gt;24 -->
<g id="edge31" class="edge">
<title>11&#45;&gt;24</title>
<path fill="none" stroke="black" d="M1031.95,-543.91C1016.2,-554.46 994.48,-568.06 976.16,-578.86"/>
<polygon fill="black" stroke="black" points="974.36,-575.86 967.48,-583.92 977.88,-581.91 974.36,-575.86"/>
</g>
<!-- 11&#45;&gt;25 -->
<g id="edge30" class="edge">
<title>11&#45;&gt;25</title>
<path fill="none" stroke="black" d="M1064.05,-544.03C1106.06,-621.15 1250,-947.32 1250,-1230.46 1250,-1611.61 1250,-1611.61 1250,-1611.61 1250,-1658.66 1250,-1713.43 1247.45,-1745.48"/>
<polygon fill="black" stroke="black" points="1243.93,-1745.52 1246.44,-1755.82 1250.89,-1746.21 1243.93,-1745.52"/>
</g>
<!-- 12&#45;&gt;64 -->
<g id="edge33" class="edge">
<title>12&#45;&gt;64</title>
<path fill="none" stroke="black" d="M828.46,-870.4C829.2,-877.53 829.77,-886.44 830.15,-896.27"/>
<polygon fill="black" stroke="black" points="826.66,-896.49 830.47,-906.38 833.65,-896.27 826.66,-896.49"/>
</g>
<!-- 12&#45;&gt;19 -->
<g id="edge32" class="edge">
<title>12&#45;&gt;19</title>
<path fill="none" stroke="black" d="M797.01,-865.37C770.29,-876.25 732.59,-892.64 724,-906.38 609.14,-1089.95 800.04,-1186.6 736,-1393.46 727.39,-1421.26 588,-1580.5 588,-1609.61 588,-1846.75 588,-1846.75 588,-1846.75 588,-1909.2 593.08,-1931.48 560,-1984.45 550.46,-1999.73 534.83,-2012.27 519.96,-2021.31"/>
<polygon fill="black" stroke="black" points="517.82,-2018.5 510.85,-2026.48 521.27,-2024.59 517.82,-2018.5"/>
</g>
<!-- 19&#45;&gt;70 -->
<g id="edge48" class="edge">
<title>19&#45;&gt;70</title>
<path fill="none" stroke="black" d="M453.96,-2050.6C422.86,-2061.69 372.05,-2078.89 332.28,-2091.83"/>
<polygon fill="black" stroke="black" points="331.12,-2088.53 322.69,-2094.94 333.28,-2095.19 331.12,-2088.53"/>
</g>
<!-- 19&#45;&gt;37 -->
<g id="edge49" class="edge">
<title>19&#45;&gt;37</title>
<path fill="none" stroke="black" d="M447.8,-2030.29C422.56,-2022.74 389.8,-2008.5 371,-1984.45 332.25,-1934.86 338,-1909.68 338,-1846.75 338,-1846.75 338,-1846.75 338,-1700.75 338,-1642.69 306.06,-1580.8 288.1,-1546.75"/>
<polygon fill="black" stroke="black" points="290.99,-1544.73 283.24,-1537.51 284.8,-1547.99 290.99,-1544.73"/>
</g>
<!-- 19&#45;&gt;48 -->
<g id="edge47" class="edge">
<title>19&#45;&gt;48</title>
<path fill="none" stroke="black" d="M457.67,-2024.41C444.78,-2014.64 430.31,-2000.28 422,-1984.45 392.97,-1929.15 394,-1909.2 394,-1846.75 394,-1846.75 394,-1846.75 394,-1609.61 394,-1538.88 325.17,-1333.63 304.35,-1259.54"/>
<polygon fill="black" stroke="black" points="307.64,-1258.32 301.64,-1249.59 300.89,-1260.16 307.64,-1258.32"/>
</g>
<!-- 19&#45;&gt;12 -->
<g id="edge53" class="edge">
<title>19&#45;&gt;12</title>
<path fill="none" stroke="black" d="M501.58,-2022.81C515.05,-2013.68 531.92,-2000.59 542,-1984.45 575.08,-1931.48 570,-1909.2 570,-1846.75 570,-1846.75 570,-1846.75 570,-1609.61 570,-1580.5 709.39,-1421.26 718,-1393.46 782.04,-1186.6 591.14,-1089.95 706,-906.38 714.54,-892.73 751.78,-876.48 782.3,-865.6"/>
<polygon fill="black" stroke="black" points="783.62,-868.84 791.93,-862.26 781.33,-862.23 783.62,-868.84"/>
</g>
<!-- 14 -->
<g id="node35" class="node">
<title>14</title>
<ellipse fill="none" stroke="black" cx="482" cy="-1942.1" rx="38.21" ry="38.21"/>
<ellipse fill="none" stroke="black" cx="482" cy="-1942.1" rx="42.19" ry="42.19"/>
<text text-anchor="middle" x="482" y="-1938.4" font-family="Times New Roman,serif" font-size="14.00">device4</text>
</g>
<!-- 19&#45;&gt;14 -->
<g id="edge50" class="edge">
<title>19&#45;&gt;14</title>
<path fill="none" stroke="black" d="M476.68,-2020.58C475.85,-2013.11 475.38,-2003.87 475.27,-1994.42"/>
<polygon fill="black" stroke="black" points="478.77,-1994.15 475.3,-1984.14 471.77,-1994.13 478.77,-1994.15"/>
</g>
<!-- 19&#45;&gt;63 -->
<g id="edge51" class="edge">
<title>19&#45;&gt;63</title>
<path fill="none" stroke="black" d="M512.6,-2027.73C614.58,-1997.12 943.49,-1902.43 1082.33,-1863.62"/>
<polygon fill="black" stroke="black" points="1083.3,-1866.98 1091.99,-1860.92 1081.42,-1860.24 1083.3,-1866.98"/>
</g>
<!-- 60 -->
<g id="node42" class="node">
<title>60</title>
<ellipse fill="none" stroke="black" cx="1145" cy="-1942.1" rx="55.79" ry="18"/>
<text text-anchor="middle" x="1145" y="-1938.4" font-family="Times New Roman,serif" font-size="14.00">component4</text>
</g>
<!-- 19&#45;&gt;60 -->
<g id="edge52" class="edge">
<title>19&#45;&gt;60</title>
<path fill="none" stroke="black" d="M517.94,-2032.92C589.97,-2024.46 756.36,-2005.21 896,-1984.45 960.95,-1974.79 1035.42,-1961.63 1085.97,-1952.78"/>
<polygon fill="black" stroke="black" points="1086.82,-1956.18 1096.06,-1951.01 1085.61,-1949.29 1086.82,-1956.18"/>
</g>
<!-- 13 -->
<g id="node33" class="node">
<title>13</title>
<ellipse fill="none" stroke="black" cx="1468" cy="-194.15" rx="40.09" ry="18"/>
<text text-anchor="middle" x="1468" y="-190.45" font-family="Times New Roman,serif" font-size="14.00">artifact2</text>
</g>
<!-- 76 -->
<g id="node34" class="node">
<title>76</title>
<ellipse fill="none" stroke="black" cx="1468" cy="-340.19" rx="40.09" ry="18"/>
<text text-anchor="middle" x="1468" y="-336.49" font-family="Times New Roman,serif" font-size="14.00">artifact1</text>
</g>
<!-- 13&#45;&gt;76 -->
<g id="edge34" class="edge">
<title>13&#45;&gt;76</title>
<path fill="none" stroke="black" d="M1472.55,-212.21C1475.16,-236.89 1475.45,-282.78 1473.41,-312.11"/>
<polygon fill="black" stroke="black" points="1469.92,-311.84 1472.55,-322.1 1476.9,-312.43 1469.92,-311.84"/>
</g>
<!-- 76&#45;&gt;13 -->
<g id="edge194" class="edge">
<title>76&#45;&gt;13</title>
<path fill="none" stroke="black" d="M1463.45,-322.1C1460.84,-297.41 1460.55,-251.51 1462.59,-222.19"/>
<polygon fill="black" stroke="black" points="1466.08,-222.48 1463.45,-212.21 1459.11,-221.88 1466.08,-222.48"/>
</g>
<!-- 76&#45;&gt;76 -->
<g id="edge196" class="edge">
<title>76&#45;&gt;76</title>
<path fill="none" stroke="black" d="M1486.21,-356.42C1505.11,-366.27 1526.3,-360.86 1526.3,-340.19 1526.3,-322.91 1511.49,-316.29 1495.59,-320.34"/>
<polygon fill="black" stroke="black" points="1494.28,-317.09 1486.21,-323.96 1496.8,-323.63 1494.28,-317.09"/>
</g>
<!-- 58 -->
<g id="node60" class="node">
<title>58</title>
<ellipse fill="none" stroke="black" cx="1316" cy="-454.08" rx="55.79" ry="18"/>
<text text-anchor="middle" x="1316" y="-450.38" font-family="Times New Roman,serif" font-size="14.00">component8</text>
</g>
<!-- 76&#45;&gt;58 -->
<g id="edge197" class="edge">
<title>76&#45;&gt;58</title>
<path fill="none" stroke="black" d="M1451.7,-356.76C1427.35,-376.4 1381.54,-410.26 1349.83,-432.16"/>
<polygon fill="black" stroke="black" points="1347.57,-429.46 1341.29,-437.99 1351.52,-435.24 1347.57,-429.46"/>
</g>
<!-- 62 -->
<g id="node73" class="node">
<title>62</title>
<ellipse fill="none" stroke="black" cx="2113" cy="-194.15" rx="46.29" ry="18"/>
<text text-anchor="middle" x="2113" y="-190.45" font-family="Times New Roman,serif" font-size="14.00">interface6</text>
</g>
<!-- 76&#45;&gt;62 -->
<g id="edge195" class="edge">
<title>76&#45;&gt;62</title>
<path fill="none" stroke="black" d="M1503.14,-331.34C1611.17,-307.21 1938.67,-234.08 2063.73,-206.15"/>
<polygon fill="black" stroke="black" points="2064.79,-209.5 2073.79,-203.9 2063.27,-202.67 2064.79,-209.5"/>
</g>
<!-- 14&#45;&gt;19 -->
<g id="edge36" class="edge">
<title>14&#45;&gt;19</title>
<path fill="none" stroke="black" d="M488.7,-1984.14C488.85,-1993.06 488.67,-2002.27 488.17,-2010.48"/>
<polygon fill="black" stroke="black" points="484.67,-2010.32 487.32,-2020.58 491.64,-2010.91 484.67,-2010.32"/>
</g>
<!-- 14&#45;&gt;14 -->
<g id="edge35" class="edge">
<title>14&#45;&gt;14</title>
<path fill="none" stroke="black" d="M520.6,-1960.09C532.75,-1959.82 542.35,-1953.82 542.35,-1942.1 542.35,-1933.86 537.6,-1928.45 530.56,-1925.87"/>
<polygon fill="black" stroke="black" points="531.05,-1922.4 520.6,-1924.11 529.84,-1929.29 531.05,-1922.4"/>
</g>
<!-- 14&#45;&gt;36 -->
<g id="edge37" class="edge">
<title>14&#45;&gt;36</title>
<path fill="none" stroke="black" d="M480.63,-1899.62C479.66,-1818.32 486.14,-1634.37 556,-1501.46 579.77,-1456.24 625.95,-1417.7 656.12,-1395.82"/>
<polygon fill="black" stroke="black" points="658.42,-1398.47 664.55,-1389.83 654.37,-1392.77 658.42,-1398.47"/>
</g>
<!-- 36&#45;&gt;41 -->
<g id="edge92" class="edge">
<title>36&#45;&gt;41</title>
<path fill="none" stroke="black" d="M703.24,-1390.57C712.49,-1399.53 723.46,-1411.37 732.32,-1421.84"/>
<polygon fill="black" stroke="black" points="729.86,-1424.36 738.91,-1429.87 735.27,-1419.92 729.86,-1424.36"/>
</g>
<!-- 36&#45;&gt;48 -->
<g id="edge91" class="edge">
<title>36&#45;&gt;48</title>
<path fill="none" stroke="black" d="M651.82,-1375.25C592.13,-1375.64 465.16,-1370.55 374,-1321.46 345.97,-1306.36 321.98,-1278.45 308.7,-1257.9"/>
<polygon fill="black" stroke="black" points="311.69,-1256.08 303.53,-1249.32 305.7,-1259.69 311.69,-1256.08"/>
</g>
<!-- 36&#45;&gt;16 -->
<g id="edge90" class="edge">
<title>36&#45;&gt;16</title>
<path fill="none" stroke="black" d="M711.44,-1364.38C770.79,-1342.17 913.26,-1282.5 975,-1177.46 1044.15,-1059.81 1028.17,-889.89 1018.62,-808.75"/>
<polygon fill="black" stroke="black" points="1022.05,-807.89 1017.38,-798.38 1015.09,-808.72 1022.05,-807.89"/>
</g>
<!-- 34 -->
<g id="node61" class="node">
<title>34</title>
<ellipse fill="none" stroke="black" cx="653" cy="-598.08" rx="46.29" ry="18"/>
<text text-anchor="middle" x="653" y="-594.38" font-family="Times New Roman,serif" font-size="14.00">interface1</text>
</g>
<!-- 36&#45;&gt;34 -->
<g id="edge93" class="edge">
<title>36&#45;&gt;34</title>
<path fill="none" stroke="black" d="M673.06,-1358.53C664.41,-1340.58 653.72,-1310.63 643,-1285.46 608.18,-1203.71 575.83,-1192.07 556,-1105.46 536.25,-1019.21 543.7,-994 556,-906.38 559.99,-877.95 615,-694.79 640.71,-625.54"/>
<polygon fill="black" stroke="black" points="644.13,-626.4 644.43,-615.81 637.59,-623.91 644.13,-626.4"/>
</g>
<!-- 36&#45;&gt;78 -->
<g id="edge94" class="edge">
<title>36&#45;&gt;78</title>
<path fill="none" stroke="black" d="M656.72,-1365.88C625.78,-1355.45 575.94,-1337.56 539.12,-1323.77"/>
<polygon fill="black" stroke="black" points="540.18,-1320.42 529.59,-1320.17 537.71,-1326.97 540.18,-1320.42"/>
</g>
<!-- 73&#45;&gt;15 -->
<g id="edge190" class="edge">
<title>73&#45;&gt;15</title>
<path fill="none" stroke="black" d="M1654.86,-543.87C1655.7,-551.67 1655.94,-561.15 1655.6,-569.93"/>
<polygon fill="black" stroke="black" points="1652.09,-569.92 1654.88,-580.14 1659.07,-570.41 1652.09,-569.92"/>
</g>
<!-- 73&#45;&gt;16 -->
<g id="edge189" class="edge">
<title>73&#45;&gt;16</title>
<path fill="none" stroke="black" d="M1623.05,-537.35C1564.53,-558.18 1418.97,-607.23 1298,-652.08 1213.41,-683.45 1115.29,-722.94 1059.51,-744.46"/>
<polygon fill="black" stroke="black" points="1058.02,-741.29 1049.94,-748.14 1060.53,-747.82 1058.02,-741.29"/>
</g>
<!-- 54&#45;&gt;15 -->
<g id="edge138" class="edge">
<title>54&#45;&gt;15</title>
<path fill="none" stroke="black" d="M1360.98,-656.4C1365.6,-654.84 1370.4,-653.35 1375,-652.08 1453.61,-630.42 1547.63,-613.74 1602.71,-605.27"/>
<polygon fill="black" stroke="black" points="1603.5,-608.69 1612.86,-603.73 1602.45,-601.77 1603.5,-608.69"/>
</g>
<!-- 54&#45;&gt;16 -->
<g id="edge137" class="edge">
<title>54&#45;&gt;16</title>
<path fill="none" stroke="black" d="M1305.12,-680.88C1248.23,-697.52 1127.06,-731.2 1060.66,-748.85"/>
<polygon fill="black" stroke="black" points="1059.66,-745.5 1050.88,-751.44 1061.45,-752.26 1059.66,-745.5"/>
</g>
<!-- 45&#45;&gt;16 -->
<g id="edge112" class="edge">
<title>45&#45;&gt;16</title>
<path fill="none" stroke="black" d="M594.48,-681.48C661.42,-691.64 762.08,-707.91 849,-724.08 889.91,-731.69 935.99,-741.25 969.3,-748.63"/>
<polygon fill="black" stroke="black" points="968.68,-752.07 979.2,-750.84 970.21,-745.24 968.68,-752.07"/>
</g>
<!-- 45&#45;&gt;72 -->
<g id="edge114" class="edge">
<title>45&#45;&gt;72</title>
<path fill="none" stroke="black" d="M465.37,-655.31C406.76,-636.86 322,-597.94 322,-527.08 322,-527.08 322,-527.08 322,-453.08 322,-375.82 327.64,-353.52 303,-280.29 298.88,-268.05 292.8,-255.68 286.26,-244.3"/>
<polygon fill="black" stroke="black" points="289.08,-242.2 280.95,-235.41 283.07,-245.79 289.08,-242.2"/>
</g>
<!-- 45&#45;&gt;34 -->
<g id="edge113" class="edge">
<title>45&#45;&gt;34</title>
<path fill="none" stroke="black" d="M545.36,-652.67C564.85,-641.78 591.93,-627.51 614.12,-616.43"/>
<polygon fill="black" stroke="black" points="615.88,-619.47 623.29,-611.9 612.78,-613.19 615.88,-619.47"/>
</g>
<!-- 45&#45;&gt;78 -->
<g id="edge115" class="edge">
<title>45&#45;&gt;78</title>
<path fill="none" stroke="black" d="M519,-688.22C511.71,-719.95 490,-790.21 490,-851.38 490,-1160.46 490,-1160.46 490,-1160.46 490,-1200.58 494.42,-1246.89 495.36,-1275.43"/>
<polygon fill="black" stroke="black" points="491.86,-1275.51 495.54,-1285.44 498.86,-1275.38 491.86,-1275.51"/>
</g>
<!-- 18 -->
<g id="node40" class="node">
<title>18</title>
<path fill="none" stroke="black" d="M1354.5,-2125.17C1354.5,-2126.98 1339.04,-2128.45 1320,-2128.45 1300.96,-2128.45 1285.5,-2126.98 1285.5,-2125.17 1285.5,-2125.17 1285.5,-2095.72 1285.5,-2095.72 1285.5,-2093.91 1300.96,-2092.45 1320,-2092.45 1339.04,-2092.45 1354.5,-2093.91 1354.5,-2095.72 1354.5,-2095.72 1354.5,-2125.17 1354.5,-2125.17"/>
<path fill="none" stroke="black" d="M1354.5,-2125.17C1354.5,-2123.37 1339.04,-2121.9 1320,-2121.9 1300.96,-2121.9 1285.5,-2123.37 1285.5,-2125.17"/>
<text text-anchor="middle" x="1320" y="-2106.75" font-family="Times New Roman,serif" font-size="14.00">package7</text>
</g>
<!-- 63&#45;&gt;25 -->
<g id="edge159" class="edge">
<title>63&#45;&gt;25</title>
<path fill="none" stroke="black" d="M1162.36,-1827.81C1175.41,-1817.5 1193.43,-1804.31 1209,-1793.66"/>
<polygon fill="black" stroke="black" points="1211.01,-1796.53 1217.35,-1788.04 1207.1,-1790.72 1211.01,-1796.53"/>
</g>
<!-- 63&#45;&gt;19 -->
<g id="edge160" class="edge">
<title>63&#45;&gt;19</title>
<path fill="none" stroke="black" d="M1097.56,-1861.5C973.58,-1898.32 641.82,-1993.7 524.08,-2026.32"/>
<polygon fill="black" stroke="black" points="523.04,-2022.97 514.34,-2029.01 524.91,-2029.72 523.04,-2022.97"/>
</g>
<!-- 63&#45;&gt;60 -->
<g id="edge161" class="edge">
<title>63&#45;&gt;60</title>
<path fill="none" stroke="black" d="M1150.35,-1863.95C1151.86,-1877.75 1152.15,-1897.39 1151.21,-1913.41"/>
<polygon fill="black" stroke="black" points="1147.69,-1913.54 1150.36,-1923.8 1154.66,-1914.11 1147.69,-1913.54"/>
</g>
<!-- 60&#45;&gt;19 -->
<g id="edge153" class="edge">
<title>60&#45;&gt;19</title>
<path fill="none" stroke="black" d="M1099.68,-1952.83C1053.13,-1961.68 978.82,-1974.81 914,-1984.45 774.58,-2005.18 608.49,-2024.4 528.87,-2032.88"/>
<polygon fill="black" stroke="black" points="528.26,-2029.42 518.68,-2033.96 528.99,-2036.39 528.26,-2029.42"/>
</g>
<!-- 60&#45;&gt;63 -->
<g id="edge154" class="edge">
<title>60&#45;&gt;63</title>
<path fill="none" stroke="black" d="M1139.64,-1923.8C1138.13,-1909.96 1137.85,-1890.31 1138.8,-1874.32"/>
<polygon fill="black" stroke="black" points="1142.32,-1874.2 1139.65,-1863.95 1135.34,-1873.63 1142.32,-1874.2"/>
</g>
<!-- 20 -->
<g id="node43" class="node">
<title>20</title>
<ellipse fill="none" stroke="black" cx="1941" cy="-670.08" rx="49.29" ry="18"/>
<text text-anchor="middle" x="1941" y="-666.38" font-family="Times New Roman,serif" font-size="14.00">package11</text>
</g>
<!-- 21 -->
<g id="node44" class="node">
<title>21</title>
<ellipse fill="none" stroke="red" cx="1865" cy="-1942.1" rx="33.29" ry="18"/>
<text text-anchor="middle" x="1865" y="-1938.4" font-family="Times New Roman,serif" font-size="14.00">node8</text>
</g>
<!-- 21&#45;&gt;17 -->
<g id="edge55" class="edge">
<title>21&#45;&gt;17</title>
<path fill="none" stroke="black" d="M1860.53,-1924.23C1856.82,-1910.23 1851.47,-1890.06 1847.17,-1873.8"/>
<polygon fill="black" stroke="black" points="1850.46,-1872.56 1844.52,-1863.79 1843.69,-1874.36 1850.46,-1872.56"/>
</g>
<!-- 21&#45;&gt;31 -->
<g id="edge57" class="edge">
<title>21&#45;&gt;31</title>
<path fill="none" stroke="black" d="M1876.92,-1925.18C1887.89,-1909.99 1904.06,-1886.17 1915,-1863.75 1944.71,-1802.87 1947.65,-1785.24 1965,-1719.75 2029.76,-1475.35 2069,-1413.3 2069,-1160.46 2069,-1160.46 2069,-1160.46 2069,-1004.92 2069,-689.22 2322,-656.88 2322,-341.19 2322,-341.19 2322,-341.19 2322,-193.15 2322,-142.82 2268.53,-157.32 2220,-144 1892.73,-54.14 839.08,-27.17 501.86,-20.74"/>
<polygon fill="black" stroke="black" points="501.91,-17.24 491.85,-20.55 501.78,-24.23 501.91,-17.24"/>
</g>
<!-- 21&#45;&gt;73 -->
<g id="edge54" class="edge">
<title>21&#45;&gt;73</title>
<path fill="none" stroke="black" d="M1873.14,-1924.56C1886.84,-1895.16 1913,-1831.56 1913,-1774.75 1913,-1774.75 1913,-1774.75 1913,-1302.46 1913,-1008.6 2128.56,-929.62 2032,-652.08 2018.59,-613.53 2010.19,-600.76 1975,-580.08 1927.72,-552.31 1769.13,-536.45 1691.94,-530.21"/>
<polygon fill="black" stroke="black" points="1691.85,-526.69 1681.61,-529.39 1691.3,-533.67 1691.85,-526.69"/>
</g>
<!-- 21&#45;&gt;63 -->
<g id="edge56" class="edge">
<title>21&#45;&gt;63</title>
<path fill="none" stroke="black" d="M1846.51,-1927.01C1833,-1917.54 1813.83,-1905.73 1795,-1899.75 1769.16,-1891.55 1418.14,-1865.95 1242.99,-1853.58"/>
<polygon fill="black" stroke="black" points="1243.21,-1850.09 1232.99,-1852.88 1242.72,-1857.07 1243.21,-1850.09"/>
</g>
<!-- 22 -->
<g id="node45" class="node">
<title>22</title>
<path fill="none" stroke="black" d="M2093,-1956.83C2093,-1958.63 2080,-1960.1 2064,-1960.1 2048,-1960.1 2035,-1958.63 2035,-1956.83 2035,-1956.83 2035,-1927.37 2035,-1927.37 2035,-1925.57 2048,-1924.1 2064,-1924.1 2080,-1924.1 2093,-1925.57 2093,-1927.37 2093,-1927.37 2093,-1956.83 2093,-1956.83"/>
<path fill="none" stroke="black" d="M2093,-1956.83C2093,-1955.02 2080,-1953.55 2064,-1953.55 2048,-1953.55 2035,-1955.02 2035,-1956.83"/>
<text text-anchor="middle" x="2064" y="-1938.4" font-family="Times New Roman,serif" font-size="14.00">model3</text>
</g>
<!-- 23 -->
<g id="node46" class="node">
<title>23</title>
<ellipse fill="none" stroke="red" cx="1854" cy="-761.23" rx="60.39" ry="18"/>
<text text-anchor="middle" x="1854" y="-757.53" font-family="Times New Roman,serif" font-size="14.00">component10</text>
</g>
<!-- 23&#45;&gt;20 -->
<g id="edge58" class="edge">
<title>23&#45;&gt;20</title>
<path fill="none" stroke="black" d="M1870.36,-743.46C1883.9,-729.59 1903.27,-709.74 1918.31,-694.33"/>
<polygon fill="black" stroke="black" points="1920.82,-696.78 1925.3,-687.17 1915.81,-691.89 1920.82,-696.78"/>
</g>
<!-- 47 -->
<g id="node47" class="node">
<title>47</title>
<path fill="none" stroke="red" d="M810.5,-540.81C810.5,-542.62 789.66,-544.08 764,-544.08 738.34,-544.08 717.5,-542.62 717.5,-540.81 717.5,-540.81 717.5,-511.35 717.5,-511.35 717.5,-509.55 738.34,-508.08 764,-508.08 789.66,-508.08 810.5,-509.55 810.5,-511.35 810.5,-511.35 810.5,-540.81 810.5,-540.81"/>
<path fill="none" stroke="red" d="M810.5,-540.81C810.5,-539 789.66,-537.54 764,-537.54 738.34,-537.54 717.5,-539 717.5,-540.81"/>
<text text-anchor="middle" x="764" y="-522.38" font-family="Times New Roman,serif" font-size="14.00">component11</text>
</g>
<!-- 23&#45;&gt;47 -->
<g id="edge59" class="edge">
<title>23&#45;&gt;47</title>
<path fill="none" stroke="black" d="M1857.41,-743.15C1860.99,-720.28 1863.77,-679.41 1845,-652.08 1803.36,-591.46 1767.28,-598.21 1696,-580.08 1534.72,-539.05 1114.01,-555.74 948,-544.08 905.48,-541.1 857.52,-536.63 821.23,-533.02"/>
<polygon fill="black" stroke="black" points="821.14,-529.5 810.84,-531.98 820.44,-536.46 821.14,-529.5"/>
</g>
<!-- 59 -->
<g id="node48" class="node">
<title>59</title>
<ellipse fill="none" stroke="black" cx="1780" cy="-670.08" rx="55.79" ry="18"/>
<text text-anchor="middle" x="1780" y="-666.38" font-family="Times New Roman,serif" font-size="14.00">component7</text>
</g>
<!-- 23&#45;&gt;59 -->
<g id="edge60" class="edge">
<title>23&#45;&gt;59</title>
<path fill="none" stroke="black" d="M1840.08,-743.46C1828.92,-730.01 1813.09,-710.94 1800.48,-695.75"/>
<polygon fill="black" stroke="black" points="1802.94,-693.23 1793.86,-687.77 1797.55,-697.7 1802.94,-693.23"/>
</g>
<!-- 30 -->
<g id="node49" class="node">
<title>30</title>
<ellipse fill="none" stroke="black" cx="1572" cy="-670.08" rx="40.09" ry="18"/>
<text text-anchor="middle" x="1572" y="-666.38" font-family="Times New Roman,serif" font-size="14.00">artifact7</text>
</g>
<!-- 23&#45;&gt;30 -->
<g id="edge61" class="edge">
<title>23&#45;&gt;30</title>
<path fill="none" stroke="black" d="M1828.14,-744.8C1815.47,-737.74 1799.79,-729.7 1785,-724.08 1729.6,-703.02 1662.89,-687.99 1619.07,-679.43"/>
<polygon fill="black" stroke="black" points="1619.47,-675.95 1608.99,-677.5 1618.15,-682.82 1619.47,-675.95"/>
</g>
<!-- 47&#45;&gt;4 -->
<g id="edge117" class="edge">
<title>47&#45;&gt;4</title>
<path fill="none" stroke="black" d="M717.39,-518.68C620.83,-505.43 399.8,-475.09 302.03,-461.67"/>
<polygon fill="black" stroke="black" points="302.23,-458.17 291.85,-460.28 301.28,-465.1 302.23,-458.17"/>
</g>
<!-- 47&#45;&gt;47 -->
<g id="edge118" class="edge">
<title>47&#45;&gt;47</title>
<path fill="none" stroke="black" d="M810.67,-539.22C820.99,-537.98 828.5,-533.61 828.5,-526.08 828.5,-521.26 825.42,-517.73 820.49,-515.49"/>
<polygon fill="black" stroke="black" points="821.23,-512.07 810.67,-512.95 819.47,-518.85 821.23,-512.07"/>
</g>
<!-- 47&#45;&gt;58 -->
<g id="edge119" class="edge">
<title>47&#45;&gt;58</title>
<path fill="none" stroke="black" d="M810.83,-518.62C910.39,-505.56 1142.75,-476.08 1254.26,-462.36"/>
<polygon fill="black" stroke="black" points="1254.84,-465.82 1264.34,-461.13 1253.99,-458.87 1254.84,-465.82"/>
</g>
<!-- 47&#45;&gt;34 -->
<g id="edge116" class="edge">
<title>47&#45;&gt;34</title>
<path fill="none" stroke="black" d="M742.78,-544.18C727.56,-554.46 706.86,-567.55 689.11,-578.14"/>
<polygon fill="black" stroke="black" points="686.99,-575.33 680.15,-583.42 690.54,-581.36 686.99,-575.33"/>
</g>
<!-- 71&#45;&gt;24 -->
<g id="edge187" class="edge">
<title>71&#45;&gt;24</title>
<path fill="none" stroke="black" d="M815.52,-653.89C839.32,-642.36 873.85,-626.55 900.73,-614.87"/>
<polygon fill="black" stroke="black" points="902.45,-617.94 910.25,-610.77 899.69,-611.51 902.45,-617.94"/>
</g>
<!-- 71&#45;&gt;50 -->
<g id="edge186" class="edge">
<title>71&#45;&gt;50</title>
<path fill="none" stroke="black" d="M792.88,-688.22C793.84,-700.91 793.52,-718.45 792.19,-733.05"/>
<polygon fill="black" stroke="black" points="788.7,-732.71 791.04,-743.04 795.66,-733.51 788.7,-732.71"/>
</g>
<!-- 26 -->
<g id="node51" class="node">
<title>26</title>
<ellipse fill="none" stroke="red" cx="1605" cy="-1942.1" rx="46.29" ry="18"/>
<text text-anchor="middle" x="1605" y="-1938.4" font-family="Times New Roman,serif" font-size="14.00">interface9</text>
</g>
<!-- 26&#45;&gt;56 -->
<g id="edge70" class="edge">
<title>26&#45;&gt;56</title>
<path fill="none" stroke="black" d="M1605,-1923.8C1605,-1909.96 1605,-1890.31 1605,-1874.32"/>
<polygon fill="black" stroke="black" points="1608.5,-1873.95 1605,-1863.95 1601.5,-1873.95 1608.5,-1873.95"/>
</g>
<!-- 43 -->
<g id="node52" class="node">
<title>43</title>
<ellipse fill="none" stroke="black" cx="1451" cy="-1845.75" rx="40.09" ry="18"/>
<text text-anchor="middle" x="1451" y="-1842.05" font-family="Times New Roman,serif" font-size="14.00">artifact8</text>
</g>
<!-- 26&#45;&gt;43 -->
<g id="edge71" class="edge">
<title>26&#45;&gt;43</title>
<path fill="none" stroke="black" d="M1581.27,-1926.56C1554.82,-1910.36 1511.91,-1884.07 1482.62,-1866.12"/>
<polygon fill="black" stroke="black" points="1484.35,-1863.08 1474,-1860.84 1480.7,-1869.05 1484.35,-1863.08"/>
</g>
<!-- 26&#45;&gt;51 -->
<g id="edge72" class="edge">
<title>26&#45;&gt;51</title>
<path fill="none" stroke="black" d="M1633.96,-1927.79C1680.56,-1904.15 1767,-1850.14 1767,-1774.75 1767,-1774.75 1767,-1774.75 1767,-1374.46 1767,-1203.49 1606.39,-1232.53 1492,-1105.46 1317.29,-911.38 1194,-860.22 1194,-599.08 1194,-599.08 1194,-599.08 1194,-525.08 1194,-486.91 1197.04,-444.4 1200.28,-409.88"/>
<polygon fill="black" stroke="black" points="1203.77,-410.19 1201.25,-399.9 1196.8,-409.52 1203.77,-410.19"/>
</g>
<!-- 51&#45;&gt;27 -->
<g id="edge128" class="edge">
<title>51&#45;&gt;27</title>
<path fill="none" stroke="black" d="M1207.9,-280.18C1209.83,-260.04 1212.64,-238.5 1215.6,-222.14"/>
<polygon fill="black" stroke="black" points="1219.06,-222.69 1217.56,-212.2 1212.19,-221.33 1219.06,-222.69"/>
</g>
<!-- 51&#45;&gt;65 -->
<g id="edge127" class="edge">
<title>51&#45;&gt;65</title>
<path fill="none" stroke="black" d="M1161.24,-302.32C1150.08,-293.74 1137.74,-285.58 1125,-280.29 1006.2,-230.96 624.13,-206.77 466.2,-198.53"/>
<polygon fill="black" stroke="black" points="466.3,-195.03 456.13,-198.01 465.94,-202.02 466.3,-195.03"/>
</g>
<!-- 51&#45;&gt;58 -->
<g id="edge129" class="edge">
<title>51&#45;&gt;58</title>
<path fill="none" stroke="black" d="M1252.58,-380.66C1268.43,-396.53 1285.37,-414.35 1297.83,-428.34"/>
<polygon fill="black" stroke="black" points="1295.39,-430.86 1304.61,-436.09 1300.66,-426.26 1295.39,-430.86"/>
</g>
<!-- 28 -->
<g id="node54" class="node">
<title>28</title>
<path fill="none" stroke="red" d="M1372,-354.91C1372,-356.72 1352.73,-358.19 1329,-358.19 1305.27,-358.19 1286,-356.72 1286,-354.91 1286,-354.91 1286,-325.46 1286,-325.46 1286,-323.65 1305.27,-322.19 1329,-322.19 1352.73,-322.19 1372,-323.65 1372,-325.46 1372,-325.46 1372,-354.91 1372,-354.91"/>
<path fill="none" stroke="red" d="M1372,-354.91C1372,-353.11 1352.73,-351.64 1329,-351.64 1305.27,-351.64 1286,-353.11 1286,-354.91"/>
<text text-anchor="middle" x="1329" y="-336.49" font-family="Times New Roman,serif" font-size="14.00">component6</text>
</g>
<!-- 28&#45;&gt;6 -->
<g id="edge77" class="edge">
<title>28&#45;&gt;6</title>
<path fill="none" stroke="black" d="M1329,-322.13C1329,-279.8 1329,-169.66 1329,-118.22"/>
<polygon fill="black" stroke="black" points="1332.5,-118.18 1329,-108.18 1325.5,-118.18 1332.5,-118.18"/>
</g>
<!-- 28&#45;&gt;13 -->
<g id="edge75" class="edge">
<title>28&#45;&gt;13</title>
<path fill="none" stroke="black" d="M1345.49,-322.1C1370.44,-296.24 1417.84,-247.12 1445.8,-218.15"/>
<polygon fill="black" stroke="black" points="1448.38,-220.52 1452.8,-210.89 1443.34,-215.66 1448.38,-220.52"/>
</g>
<!-- 28&#45;&gt;72 -->
<g id="edge76" class="edge">
<title>28&#45;&gt;72</title>
<path fill="none" stroke="black" d="M1319.32,-322.04C1310.36,-308.02 1295.61,-289.11 1277,-280.29 1086.3,-189.89 529.24,-307.86 328,-244.29 318.34,-241.24 308.72,-236.6 299.73,-231.38"/>
<polygon fill="black" stroke="black" points="301.34,-228.26 290.99,-225.99 297.67,-234.22 301.34,-228.26"/>
</g>
<!-- 72&#45;&gt;61 -->
<g id="edge188" class="edge">
<title>72&#45;&gt;61</title>
<path fill="none" stroke="black" d="M252.96,-244.52C251.07,-267.24 247.82,-293.32 244.38,-312.34"/>
<polygon fill="black" stroke="black" points="240.9,-311.89 242.39,-322.38 247.76,-313.25 240.9,-311.89"/>
</g>
<!-- 29 -->
<g id="node56" class="node">
<title>29</title>
<ellipse fill="none" stroke="red" cx="1890" cy="-2254.45" rx="38.19" ry="18"/>
<text text-anchor="middle" x="1890" y="-2250.75" font-family="Times New Roman,serif" font-size="14.00">device5</text>
</g>
<!-- 29&#45;&gt;0 -->
<g id="edge78" class="edge">
<title>29&#45;&gt;0</title>
<path fill="none" stroke="black" d="M1851.84,-2251.92C1623.83,-2242.79 442.76,-2195.52 189.04,-2185.37"/>
<polygon fill="black" stroke="black" points="189.16,-2181.87 179.03,-2184.97 188.88,-2188.87 189.16,-2181.87"/>
</g>
<!-- 29&#45;&gt;8 -->
<g id="edge79" class="edge">
<title>29&#45;&gt;8</title>
<path fill="none" stroke="black" d="M1890,-2236.32C1890,-2212.12 1890,-2167.66 1890,-2138.84"/>
<polygon fill="black" stroke="black" points="1893.5,-2138.64 1890,-2128.64 1886.5,-2138.64 1893.5,-2138.64"/>
</g>
<!-- 29&#45;&gt;54 -->
<g id="edge80" class="edge">
<title>29&#45;&gt;54</title>
<path fill="none" stroke="black" d="M1902.34,-2236.95C1920.17,-2211.45 1951,-2160.28 1951,-2111.45 1951,-2111.45 1951,-2111.45 1951,-1302.46 1951,-1216.44 1476.55,-794.44 1361.1,-693.03"/>
<polygon fill="black" stroke="black" points="1363.24,-690.25 1353.42,-686.29 1358.62,-695.51 1363.24,-690.25"/>
</g>
<!-- 32 -->
<g id="node57" class="node">
<title>32</title>
<ellipse fill="none" stroke="red" cx="1550" cy="-761.23" rx="40.09" ry="18"/>
<text text-anchor="middle" x="1550" y="-757.53" font-family="Times New Roman,serif" font-size="14.00">artifact5</text>
</g>
<!-- 32&#45;&gt;30 -->
<g id="edge84" class="edge">
<title>32&#45;&gt;30</title>
<path fill="none" stroke="black" d="M1554.24,-743.04C1557.38,-730.34 1561.71,-712.79 1565.31,-698.2"/>
<polygon fill="black" stroke="black" points="1568.77,-698.76 1567.77,-688.22 1561.98,-697.09 1568.77,-698.76"/>
</g>
<!-- 49 -->
<g id="node58" class="node">
<title>49</title>
<ellipse fill="none" stroke="black" cx="1453" cy="-670.08" rx="60.39" ry="18"/>
<text text-anchor="middle" x="1453" y="-666.38" font-family="Times New Roman,serif" font-size="14.00">component13</text>
</g>
<!-- 32&#45;&gt;49 -->
<g id="edge83" class="edge">
<title>32&#45;&gt;49</title>
<path fill="none" stroke="black" d="M1533.1,-744.7C1517.95,-730.77 1495.5,-710.14 1478.22,-694.26"/>
<polygon fill="black" stroke="black" points="1480.42,-691.53 1470.69,-687.34 1475.68,-696.68 1480.42,-691.53"/>
</g>
<!-- 33 -->
<g id="node59" class="node">
<title>33</title>
<ellipse fill="none" stroke="red" cx="1720" cy="-761.23" rx="55.79" ry="18"/>
<text text-anchor="middle" x="1720" y="-757.53" font-family="Times New Roman,serif" font-size="14.00">component3</text>
</g>
<!-- 33&#45;&gt;59 -->
<g id="edge86" class="edge">
<title>33&#45;&gt;59</title>
<path fill="none" stroke="black" d="M1731.29,-743.46C1740.25,-730.14 1752.93,-711.3 1763.11,-696.18"/>
<polygon fill="black" stroke="black" points="1766.09,-698.02 1768.77,-687.77 1760.28,-694.12 1766.09,-698.02"/>
</g>
<!-- 33&#45;&gt;58 -->
<g id="edge85" class="edge">
<title>33&#45;&gt;58</title>
<path fill="none" stroke="black" d="M1718.61,-743.17C1714.03,-687.85 1699.25,-516.54 1691,-508.08 1649.38,-465.37 1478.47,-456.58 1382.39,-455.08"/>
<polygon fill="black" stroke="black" points="1382.24,-451.58 1372.19,-454.94 1382.14,-458.58 1382.24,-451.58"/>
</g>
<!-- 58&#45;&gt;76 -->
<g id="edge151" class="edge">
<title>58&#45;&gt;76</title>
<path fill="none" stroke="black" d="M1333.17,-436.81C1358.26,-416.64 1404.79,-382.31 1436.18,-360.73"/>
<polygon fill="black" stroke="black" points="1438.3,-363.52 1444.6,-355.01 1434.36,-357.73 1438.3,-363.52"/>
</g>
<!-- 58&#45;&gt;47 -->
<g id="edge150" class="edge">
<title>58&#45;&gt;47</title>
<path fill="none" stroke="black" d="M1265.39,-462.04C1162.27,-475.54 928.81,-505.14 820.74,-518.42"/>
<polygon fill="black" stroke="black" points="820.18,-514.96 810.68,-519.65 821.03,-521.91 820.18,-514.96"/>
</g>
<!-- 58&#45;&gt;51 -->
<g id="edge152" class="edge">
<title>58&#45;&gt;51</title>
<path fill="none" stroke="black" d="M1295.88,-437.29C1283.78,-426.1 1267.99,-410.4 1253.12,-394.92"/>
<polygon fill="black" stroke="black" points="1255.34,-392.18 1245.91,-387.36 1250.28,-397.01 1255.34,-392.18"/>
</g>
<!-- 34&#45;&gt;36 -->
<g id="edge89" class="edge">
<title>34&#45;&gt;36</title>
<path fill="none" stroke="black" d="M651.31,-616.23C638.5,-676.49 578.18,-876.56 574,-906.38 561.7,-994 554.25,-1019.21 574,-1105.46 593.83,-1192.07 626.18,-1203.71 661,-1285.46 669.74,-1305.99 678.47,-1329.71 683.42,-1347.49"/>
<polygon fill="black" stroke="black" points="680.03,-1348.37 685.87,-1357.21 686.82,-1346.66 680.03,-1348.37"/>
</g>
<!-- 34&#45;&gt;45 -->
<g id="edge88" class="edge">
<title>34&#45;&gt;45</title>
<path fill="none" stroke="black" d="M630.27,-614.02C612.27,-624.15 586.77,-637.67 564.77,-648.78"/>
<polygon fill="black" stroke="black" points="562.96,-645.77 555.59,-653.37 566.1,-652.03 562.96,-645.77"/>
</g>
<!-- 34&#45;&gt;47 -->
<g id="edge87" class="edge">
<title>34&#45;&gt;47</title>
<path fill="none" stroke="black" d="M671.91,-581.55C685.9,-572.01 705.31,-559.65 722.74,-549.11"/>
<polygon fill="black" stroke="black" points="724.85,-551.93 731.64,-543.8 721.26,-545.92 724.85,-551.93"/>
</g>
<!-- 35 -->
<g id="node62" class="node">
<title>35</title>
<ellipse fill="none" stroke="black" cx="734" cy="-1773.75" rx="38.19" ry="18"/>
<text text-anchor="middle" x="734" y="-1770.05" font-family="Times New Roman,serif" font-size="14.00">device7</text>
</g>
<!-- 78&#45;&gt;48 -->
<g id="edge206" class="edge">
<title>78&#45;&gt;48</title>
<path fill="none" stroke="black" d="M444.94,-1287.44C410.48,-1275.48 364.61,-1258.83 333.49,-1247"/>
<polygon fill="black" stroke="black" points="334.53,-1243.65 323.94,-1243.34 332.02,-1250.19 334.53,-1243.65"/>
</g>
<!-- 78&#45;&gt;36 -->
<g id="edge209" class="edge">
<title>78&#45;&gt;36</title>
<path fill="none" stroke="black" d="M539.06,-1319.48C573.46,-1331.42 619.24,-1348.03 650.35,-1359.86"/>
<polygon fill="black" stroke="black" points="649.32,-1363.21 659.91,-1363.52 651.82,-1356.67 649.32,-1363.21"/>
</g>
<!-- 78&#45;&gt;45 -->
<g id="edge208" class="edge">
<title>78&#45;&gt;45</title>
<path fill="none" stroke="black" d="M484.11,-1285.44C477.62,-1258.83 472,-1205.71 472,-1160.46 472,-1160.46 472,-1160.46 472,-851.38 472,-795.56 490.08,-732.17 504.46,-697.4"/>
<polygon fill="black" stroke="black" points="507.78,-698.53 508.59,-687.97 501.37,-695.73 507.78,-698.53"/>
</g>
<!-- 78&#45;&gt;69 -->
<g id="edge207" class="edge">
<title>78&#45;&gt;69</title>
<path fill="none" stroke="black" d="M454.15,-1286.56C435.07,-1276.65 412.16,-1263.2 393,-1249.46 258.93,-1153.31 112,-1171.89 112,-1006.92 112,-1006.92 112,-1006.92 112,-339.19 112,-251.4 166.49,-157.97 198.65,-115.07"/>
<polygon fill="black" stroke="black" points="201.59,-116.99 204.95,-106.94 196.06,-112.7 201.59,-116.99"/>
</g>
<!-- 38 -->
<g id="node64" class="node">
<title>38</title>
<ellipse fill="none" stroke="black" cx="2319" cy="-1942.1" rx="55.79" ry="18"/>
<text text-anchor="middle" x="2319" y="-1938.4" font-family="Times New Roman,serif" font-size="14.00">component2</text>
</g>
<!-- 39 -->
<g id="node65" class="node">
<title>39</title>
<ellipse fill="none" stroke="red" cx="1369" cy="-2038.45" rx="50.09" ry="18"/>
<text text-anchor="middle" x="1369" y="-2034.75" font-family="Times New Roman,serif" font-size="14.00">interface10</text>
</g>
<!-- 39&#45;&gt;13 -->
<g id="edge99" class="edge">
<title>39&#45;&gt;13</title>
<path fill="none" stroke="black" d="M1418.87,-2035.8C1534.58,-2031.47 1818.23,-2017.69 1907,-1984.45 1967.79,-1961.68 1970,-1932.6 2026,-1899.75 2058.24,-1880.84 2081.9,-1895.26 2102,-1863.75 2186.05,-1731.98 2107,-1316.75 2107,-1160.46 2107,-1160.46 2107,-1160.46 2107,-851.38 2107,-504.3 1642.51,-272.03 1505.56,-211.1"/>
<polygon fill="black" stroke="black" points="1506.84,-207.84 1496.28,-207.01 1504.02,-214.24 1506.84,-207.84"/>
</g>
<!-- 39&#45;&gt;60 -->
<g id="edge102" class="edge">
<title>39&#45;&gt;60</title>
<path fill="none" stroke="black" d="M1332.47,-2025.94C1302.37,-2016.06 1258.79,-2000.85 1222,-1984.45 1207.95,-1978.18 1192.95,-1970.39 1179.96,-1963.27"/>
<polygon fill="black" stroke="black" points="1181.33,-1960.03 1170.89,-1958.23 1177.93,-1966.15 1181.33,-1960.03"/>
</g>
<!-- 39&#45;&gt;43 -->
<g id="edge100" class="edge">
<title>39&#45;&gt;43</title>
<path fill="none" stroke="black" d="M1360.94,-2020.38C1349.25,-1992.88 1331.31,-1938.01 1354,-1899.75 1365.61,-1880.18 1387.28,-1867.37 1407.2,-1859.25"/>
<polygon fill="black" stroke="black" points="1408.66,-1862.44 1416.78,-1855.64 1406.19,-1855.89 1408.66,-1862.44"/>
</g>
<!-- 52 -->
<g id="node66" class="node">
<title>52</title>
<ellipse fill="none" stroke="black" cx="1403" cy="-1942.1" rx="40.09" ry="18"/>
<text text-anchor="middle" x="1403" y="-1938.4" font-family="Times New Roman,serif" font-size="14.00">artifact3</text>
</g>
<!-- 39&#45;&gt;52 -->
<g id="edge101" class="edge">
<title>39&#45;&gt;52</title>
<path fill="none" stroke="black" d="M1375.08,-2020.58C1380.17,-2006.45 1387.53,-1986.02 1393.42,-1969.69"/>
<polygon fill="black" stroke="black" points="1396.76,-1970.73 1396.86,-1960.14 1390.18,-1968.36 1396.76,-1970.73"/>
</g>
<!-- 42 -->
<g id="node67" class="node">
<title>42</title>
<ellipse fill="none" stroke="red" cx="936" cy="-1845.75" rx="95.58" ry="18"/>
<text text-anchor="middle" x="936" y="-1842.05" font-family="Times New Roman,serif" font-size="14.00">executionEnvironment9</text>
</g>
<!-- 42&#45;&gt;41 -->
<g id="edge107" class="edge">
<title>42&#45;&gt;41</title>
<path fill="none" stroke="black" d="M908.97,-1828.47C839.62,-1786.43 659.74,-1675.54 645,-1647.75 610.69,-1583.08 682.29,-1505.94 722.77,-1469.5"/>
<polygon fill="black" stroke="black" points="725.22,-1472.01 730.41,-1462.77 720.6,-1466.75 725.22,-1472.01"/>
</g>
<!-- 42&#45;&gt;40 -->
<g id="edge108" class="edge">
<title>42&#45;&gt;40</title>
<path fill="none" stroke="black" d="M979.76,-1829.74C1014.5,-1817.82 1062.79,-1801.25 1097.26,-1789.42"/>
<polygon fill="black" stroke="black" points="1098.71,-1792.62 1107.03,-1786.06 1096.44,-1786 1098.71,-1792.62"/>
</g>
<!-- 42&#45;&gt;35 -->
<g id="edge109" class="edge">
<title>42&#45;&gt;35</title>
<path fill="none" stroke="black" d="M892.17,-1829.56C856.9,-1817.34 807.75,-1800.31 773.64,-1788.49"/>
<polygon fill="black" stroke="black" points="774.6,-1785.12 764.01,-1785.15 772.31,-1791.73 774.6,-1785.12"/>
</g>
<!-- 44 -->
<g id="node68" class="node">
<title>44</title>
<ellipse fill="none" stroke="red" cx="738" cy="-1845.75" rx="46.29" ry="18"/>
<text text-anchor="middle" x="738" y="-1842.05" font-family="Times New Roman,serif" font-size="14.00">interface2</text>
</g>
<!-- 44&#45;&gt;45 -->
<g id="edge110" class="edge">
<title>44&#45;&gt;45</title>
<path fill="none" stroke="black" d="M716.82,-1829.73C633.75,-1769.17 331.16,-1532.55 257,-1249.46 224.39,-1124.96 434,-1054.82 434,-1006.92 434,-1006.92 434,-1006.92 434,-851.38 434,-791.21 473.5,-729.78 498.96,-696.44"/>
<polygon fill="black" stroke="black" points="502.01,-698.23 505.41,-688.2 496.49,-693.92 502.01,-698.23"/>
</g>
<!-- 44&#45;&gt;35 -->
<g id="edge111" class="edge">
<title>44&#45;&gt;35</title>
<path fill="none" stroke="black" d="M737.01,-1827.45C736.57,-1819.74 736.04,-1810.47 735.55,-1801.87"/>
<polygon fill="black" stroke="black" points="739.04,-1801.64 734.98,-1791.86 732.05,-1802.04 739.04,-1801.64"/>
</g>
<!-- 50&#45;&gt;53 -->
<g id="edge125" class="edge">
<title>50&#45;&gt;53</title>
<path fill="none" stroke="black" d="M744.09,-769.76C656.55,-785.02 450.09,-819.74 334.99,-838.6"/>
<polygon fill="black" stroke="black" points="334.13,-835.2 324.82,-840.27 335.26,-842.1 334.13,-835.2"/>
</g>
<!-- 50&#45;&gt;71 -->
<g id="edge126" class="edge">
<title>50&#45;&gt;71</title>
<path fill="none" stroke="black" d="M780.12,-743.04C779.16,-730.34 779.48,-712.79 780.82,-698.2"/>
<polygon fill="black" stroke="black" points="784.3,-698.55 781.97,-688.22 777.35,-697.75 784.3,-698.55"/>
</g>
<!-- 55 -->
<g id="node70" class="node">
<title>55</title>
<ellipse fill="none" stroke="red" cx="1269" cy="-1942.1" rx="38.19" ry="18"/>
<text text-anchor="middle" x="1269" y="-1938.4" font-family="Times New Roman,serif" font-size="14.00">device1</text>
</g>
<!-- 55&#45;&gt;41 -->
<g id="edge142" class="edge">
<title>55&#45;&gt;41</title>
<path fill="none" stroke="black" d="M1271.52,-1923.94C1274.09,-1899.24 1274.75,-1853.78 1250,-1827.75 1198.57,-1773.68 1138.62,-1844.67 1086,-1791.75 1057.48,-1763.07 1067,-1743.2 1067,-1702.75 1067,-1702.75 1067,-1702.75 1067,-1609.61 1067,-1487.38 878.11,-1457.84 791.03,-1450.72"/>
<polygon fill="black" stroke="black" points="791.17,-1447.22 780.94,-1449.95 790.65,-1454.2 791.17,-1447.22"/>
</g>
<!-- 55&#45;&gt;56 -->
<g id="edge140" class="edge">
<title>55&#45;&gt;56</title>
<path fill="none" stroke="black" d="M1292.51,-1927.72C1309.22,-1918.71 1332.42,-1907.15 1354,-1899.75 1385.78,-1888.85 1467.26,-1872.4 1528.83,-1860.72"/>
<polygon fill="black" stroke="black" points="1529.74,-1864.11 1538.92,-1858.81 1528.44,-1857.23 1529.74,-1864.11"/>
</g>
<!-- 55&#45;&gt;11 -->
<g id="edge141" class="edge">
<title>55&#45;&gt;11</title>
<path fill="none" stroke="black" d="M1275.62,-1923.91C1286.51,-1894.05 1307,-1830.45 1307,-1774.75 1307,-1774.75 1307,-1774.75 1307,-1446.46 1307,-1119.68 1290.44,-1027.86 1170,-724.08 1144.25,-659.14 1146.65,-637.6 1107,-580.08 1099.72,-569.52 1090.13,-559.3 1081.06,-550.71"/>
<polygon fill="black" stroke="black" points="1083.37,-548.07 1073.63,-543.89 1078.64,-553.23 1083.37,-548.07"/>
</g>
<!-- 55&#45;&gt;73 -->
<g id="edge139" class="edge">
<title>55&#45;&gt;73</title>
<path fill="none" stroke="black" d="M1282.24,-1924.76C1304.01,-1896.18 1345,-1834.45 1345,-1774.75 1345,-1774.75 1345,-1774.75 1345,-1446.46 1345,-1149.07 1519.64,-1106.07 1740,-906.38 1809.98,-842.96 1853.92,-862.77 1923,-798.38 1966.55,-757.78 1981.31,-744.92 1999,-688.08 2003.75,-672.8 2008.22,-665.16 1999,-652.08 1928.36,-551.84 1769.69,-531.54 1692.64,-527.74"/>
<polygon fill="black" stroke="black" points="1692.47,-524.23 1682.33,-527.3 1692.17,-531.22 1692.47,-524.23"/>
</g>
<!-- 55&#45;&gt;63 -->
<g id="edge143" class="edge">
<title>55&#45;&gt;63</title>
<path fill="none" stroke="black" d="M1249.62,-1926.36C1229.61,-1911.13 1198.09,-1887.15 1174.88,-1869.49"/>
<polygon fill="black" stroke="black" points="1176.82,-1866.56 1166.74,-1863.3 1172.58,-1872.14 1176.82,-1866.56"/>
</g>
<!-- 55&#45;&gt;35 -->
<g id="edge144" class="edge">
<title>55&#45;&gt;35</title>
<path fill="none" stroke="black" d="M1252.29,-1925.83C1241.16,-1916.6 1225.73,-1905.55 1210,-1899.75 1051.23,-1841.26 985.04,-1933.76 831,-1863.75 809.82,-1854.13 810.1,-1843.53 793,-1827.75 781.87,-1817.49 769.42,-1806.26 758.83,-1796.79"/>
<polygon fill="black" stroke="black" points="760.94,-1793.99 751.15,-1789.94 756.28,-1799.21 760.94,-1793.99"/>
</g>
<!-- 57 -->
<g id="node71" class="node">
<title>57</title>
<ellipse fill="none" stroke="red" cx="1320" cy="-2182.45" rx="37.89" ry="18"/>
<text text-anchor="middle" x="1320" y="-2178.75" font-family="Times New Roman,serif" font-size="14.00">model8</text>
</g>
<!-- 57&#45;&gt;48 -->
<g id="edge146" class="edge">
<title>57&#45;&gt;48</title>
<path fill="none" stroke="black" d="M1285.77,-2174.88C1201.77,-2158.95 978.6,-2117.68 791,-2092.45 633.39,-2071.24 582.7,-2115.4 435,-2056.45 332.06,-2015.35 300,-1957.59 300,-1846.75 300,-1846.75 300,-1846.75 300,-1772.75 300,-1648.77 220.55,-1624.6 235,-1501.46 245.6,-1411.07 275.6,-1307.02 290.45,-1259.13"/>
<polygon fill="black" stroke="black" points="293.82,-1260.11 293.47,-1249.52 287.14,-1258.01 293.82,-1260.11"/>
</g>
<!-- 57&#45;&gt;8 -->
<g id="edge148" class="edge">
<title>57&#45;&gt;8</title>
<path fill="none" stroke="black" d="M1357.61,-2180.79C1444.28,-2178.61 1664.37,-2169.15 1843,-2128.45 1844.48,-2128.11 1845.98,-2127.74 1847.48,-2127.34"/>
<polygon fill="black" stroke="black" points="1848.85,-2130.59 1857.44,-2124.39 1846.86,-2123.88 1848.85,-2130.59"/>
</g>
<!-- 57&#45;&gt;18 -->
<g id="edge145" class="edge">
<title>57&#45;&gt;18</title>
<path fill="none" stroke="black" d="M1320,-2164.14C1320,-2156.43 1320,-2147.16 1320,-2138.56"/>
<polygon fill="black" stroke="black" points="1323.5,-2138.55 1320,-2128.55 1316.5,-2138.55 1323.5,-2138.55"/>
</g>
<!-- 57&#45;&gt;20 -->
<g id="edge147" class="edge">
<title>57&#45;&gt;20</title>
<path fill="none" stroke="black" d="M1354.57,-2175.04C1438.88,-2159.54 1661.86,-2119.33 1849,-2092.45 1982.8,-2073.23 2032.2,-2120.94 2151,-2056.45 2239.23,-2008.55 2235,-1947.15 2235,-1846.75 2235,-1846.75 2235,-1846.75 2235,-1374.46 2235,-1088.15 2025.08,-783.47 1960,-695.9"/>
<polygon fill="black" stroke="black" points="1962.62,-693.56 1953.82,-687.66 1957.02,-697.76 1962.62,-693.56"/>
</g>
<!-- 75 -->
<g id="node72" class="node">
<title>75</title>
<ellipse fill="none" stroke="black" cx="737" cy="-2110.45" rx="44.69" ry="18"/>
<text text-anchor="middle" x="737" y="-2106.75" font-family="Times New Roman,serif" font-size="14.00">package8</text>
</g>
<!-- 57&#45;&gt;75 -->
<g id="edge149" class="edge">
<title>57&#45;&gt;75</title>
<path fill="none" stroke="black" d="M1282.5,-2179.97C1196.02,-2176.05 976.23,-2163.23 796,-2128.45 790.96,-2127.47 785.73,-2126.27 780.56,-2124.95"/>
<polygon fill="black" stroke="black" points="781.32,-2121.53 770.75,-2122.3 779.5,-2128.28 781.32,-2121.53"/>
</g>
<!-- 69&#45;&gt;65 -->
<g id="edge180" class="edge">
<title>69&#45;&gt;65</title>
<path fill="none" stroke="black" d="M248.55,-104.25C280.39,-121.36 332.36,-151.35 365.69,-171.71"/>
<polygon fill="black" stroke="black" points="364.21,-174.92 374.56,-177.19 367.89,-168.96 364.21,-174.92"/>
</g>
<!-- 69&#45;&gt;78 -->
<g id="edge181" class="edge">
<title>69&#45;&gt;78</title>
<path fill="none" stroke="black" d="M213.61,-107.8C191.34,-146.56 130,-246.05 130,-339.19 130,-1006.92 130,-1006.92 130,-1006.92 130,-1171.89 276.93,-1153.31 411,-1249.46 426.5,-1260.57 444.45,-1271.5 459.6,-1280.52"/>
<polygon fill="black" stroke="black" points="458.24,-1283.78 468.63,-1285.87 461.81,-1277.76 458.24,-1283.78"/>
</g>
<!-- 66 -->
<g id="node75" class="node">
<title>66</title>
<ellipse fill="none" stroke="red" cx="995" cy="-1447.46" rx="46.29" ry="18"/>
<text text-anchor="middle" x="995" y="-1443.76" font-family="Times New Roman,serif" font-size="14.00">interface7</text>
</g>
<!-- 66&#45;&gt;5 -->
<g id="edge169" class="edge">
<title>66&#45;&gt;5</title>
<path fill="none" stroke="black" d="M987.29,-1429.43C978.91,-1411.3 964.86,-1381.9 951,-1357.46 914.73,-1293.5 866.39,-1221.69 841.09,-1184.97"/>
<polygon fill="black" stroke="black" points="843.74,-1182.65 835.18,-1176.42 837.98,-1186.63 843.74,-1182.65"/>
</g>
<!-- 66&#45;&gt;36 -->
<g id="edge171" class="edge">
<title>66&#45;&gt;36</title>
<path fill="none" stroke="black" d="M956.05,-1437.66C896.87,-1424.3 784.87,-1399.01 725.04,-1385.5"/>
<polygon fill="black" stroke="black" points="725.73,-1382.07 715.2,-1383.28 724.19,-1388.9 725.73,-1382.07"/>
</g>
<!-- 66&#45;&gt;62 -->
<g id="edge170" class="edge">
<title>66&#45;&gt;62</title>
<path fill="none" stroke="black" d="M1033.61,-1437.6C1152.11,-1408.74 1516.06,-1307.43 1740,-1105.46 1805.76,-1046.15 1950.66,-875.6 1994,-798.38 2083.07,-639.68 2060.73,-579.86 2089,-400.08 2098.97,-336.68 2106.74,-261.65 2110.51,-222.32"/>
<polygon fill="black" stroke="black" points="2114,-222.5 2111.46,-212.21 2107.04,-221.84 2114,-222.5"/>
</g>
<!-- 67 -->
<g id="node76" class="node">
<title>67</title>
<ellipse fill="none" stroke="red" cx="1314" cy="-761.23" rx="55.79" ry="18"/>
<text text-anchor="middle" x="1314" y="-757.53" font-family="Times New Roman,serif" font-size="14.00">component5</text>
</g>
<!-- 67&#45;&gt;6 -->
<g id="edge175" class="edge">
<title>67&#45;&gt;6</title>
<path fill="none" stroke="black" d="M1305.19,-743.35C1295.19,-722.05 1281.24,-684.31 1289,-652.08 1310.03,-564.73 1359.97,-559.43 1381,-472.08 1400.95,-389.21 1392.39,-364.77 1381,-280.29 1373,-220.96 1351.49,-153.93 1338.79,-117.7"/>
<polygon fill="black" stroke="black" points="1341.95,-116.15 1335.3,-107.91 1335.36,-118.5 1341.95,-116.15"/>
</g>
<!-- 67&#45;&gt;65 -->
<g id="edge172" class="edge">
<title>67&#45;&gt;65</title>
<path fill="none" stroke="black" d="M1297.5,-743.86C1284.48,-730.09 1266.78,-709.29 1256,-688.08 1237.44,-651.56 1232,-640.05 1232,-599.08 1232,-599.08 1232,-599.08 1232,-525.08 1232,-358.65 650.94,-240.29 458.25,-205.62"/>
<polygon fill="black" stroke="black" points="458.75,-202.16 448.29,-203.84 457.52,-209.05 458.75,-202.16"/>
</g>
<!-- 67&#45;&gt;71 -->
<g id="edge174" class="edge">
<title>67&#45;&gt;71</title>
<path fill="none" stroke="black" d="M1265.46,-752C1169.25,-735.7 954.56,-699.31 848.99,-681.42"/>
<polygon fill="black" stroke="black" points="849.57,-677.97 839.12,-679.75 848.4,-684.87 849.57,-677.97"/>
</g>
<!-- 67&#45;&gt;49 -->
<g id="edge173" class="edge">
<title>67&#45;&gt;49</title>
<path fill="none" stroke="black" d="M1337.89,-744.9C1360.53,-730.39 1394.72,-708.46 1419.96,-692.27"/>
<polygon fill="black" stroke="black" points="1421.96,-695.15 1428.48,-686.81 1418.18,-689.26 1421.96,-695.15"/>
</g>
<!-- 68 -->
<g id="node77" class="node">
<title>68</title>
<ellipse fill="none" stroke="red" cx="645" cy="-2182.45" rx="42.79" ry="18"/>
<text text-anchor="middle" x="645" y="-2178.75" font-family="Times New Roman,serif" font-size="14.00">device10</text>
</g>
<!-- 68&#45;&gt;70 -->
<g id="edge176" class="edge">
<title>68&#45;&gt;70</title>
<path fill="none" stroke="black" d="M606.69,-2174.22C546.19,-2162.8 427.36,-2140.38 349.33,-2125.66"/>
<polygon fill="black" stroke="black" points="349.55,-2122.14 339.08,-2123.72 348.25,-2129.02 349.55,-2122.14"/>
</g>
<!-- 68&#45;&gt;1 -->
<g id="edge177" class="edge">
<title>68&#45;&gt;1</title>
<path fill="none" stroke="black" d="M641.25,-2164.5C635.71,-2137.97 626,-2084.96 626,-2039.45 626,-2039.45 626,-2039.45 626,-1844.75 626,-1744.26 702.28,-1742.06 737,-1647.75 749.13,-1614.82 750.46,-1573.98 749.72,-1547.58"/>
<polygon fill="black" stroke="black" points="753.21,-1547.4 749.31,-1537.55 746.22,-1547.68 753.21,-1547.4"/>
</g>
<!-- 68&#45;&gt;3 -->
<g id="edge178" class="edge">
<title>68&#45;&gt;3</title>
<path fill="none" stroke="black" d="M648.75,-2164.5C654.29,-2137.97 664,-2084.96 664,-2039.45 664,-2039.45 664,-2039.45 664,-1844.75 664,-1803.9 656.23,-1782.63 687,-1755.75 717.12,-1729.45 984.83,-1711.33 1090.95,-1705.12"/>
<polygon fill="black" stroke="black" points="1091.22,-1708.61 1101,-1704.54 1090.81,-1701.62 1091.22,-1708.61"/>
</g>
<!-- 68&#45;&gt;75 -->
<g id="edge179" class="edge">
<title>68&#45;&gt;75</title>
<path fill="none" stroke="black" d="M664.96,-2166.26C677.86,-2156.44 694.84,-2143.53 709.07,-2132.7"/>
<polygon fill="black" stroke="black" points="711.24,-2135.45 717.08,-2126.61 707,-2129.88 711.24,-2135.45"/>
</g>
<!-- 74 -->
<g id="node78" class="node">
<title>74</title>
<ellipse fill="none" stroke="red" cx="2319" cy="-2182.45" rx="46.29" ry="18"/>
<text text-anchor="middle" x="2319" y="-2178.75" font-family="Times New Roman,serif" font-size="14.00">interface5</text>
</g>
<!-- 74&#45;&gt;70 -->
<g id="edge191" class="edge">
<title>74&#45;&gt;70</title>
<path fill="none" stroke="black" d="M2273.13,-2180.11C2079.89,-2174.47 1313.09,-2151.75 683,-2128.45 578.35,-2124.58 458.66,-2119.53 375.92,-2115.94"/>
<polygon fill="black" stroke="black" points="375.91,-2112.44 365.77,-2115.5 375.61,-2119.43 375.91,-2112.44"/>
</g>
<!-- 74&#45;&gt;38 -->
<g id="edge193" class="edge">
<title>74&#45;&gt;38</title>
<path fill="none" stroke="black" d="M2319,-2164.31C2319,-2123.52 2319,-2020.41 2319,-1970.71"/>
<polygon fill="black" stroke="black" points="2322.5,-1970.41 2319,-1960.41 2315.5,-1970.41 2322.5,-1970.41"/>
</g>
<!-- 74&#45;&gt;62 -->
<g id="edge192" class="edge">
<title>74&#45;&gt;62</title>
<path fill="none" stroke="black" d="M2336.4,-2165.37C2361.01,-2140.81 2403,-2091.29 2403,-2039.45 2403,-2039.45 2403,-2039.45 2403,-1941.1 2403,-1591.14 2300,-1510.42 2300,-1160.46 2300,-1160.46 2300,-1160.46 2300,-760.23 2300,-653.86 2246,-633.45 2246,-527.08 2246,-527.08 2246,-527.08 2246,-453.08 2246,-357.47 2172.92,-261.87 2135.1,-218.81"/>
<polygon fill="black" stroke="black" points="2137.53,-216.27 2128.26,-211.15 2132.31,-220.94 2137.53,-216.27"/>
</g>
<!-- 77 -->
<g id="node79" class="node">
<title>77</title>
<ellipse fill="none" stroke="red" cx="2086" cy="-2038.45" rx="55.79" ry="18"/>
<text text-anchor="middle" x="2086" y="-2034.75" font-family="Times New Roman,serif" font-size="14.00">component0</text>
</g>
<!-- 77&#45;&gt;6 -->
<g id="edge205" class="edge">
<title>77&#45;&gt;6</title>
<path fill="none" stroke="black" d="M2110.45,-2022.12C2123.76,-2012.69 2139.59,-1999.53 2150,-1984.45 2186.73,-1931.22 2197,-1911.42 2197,-1846.75 2197,-1846.75 2197,-1846.75 2197,-1374.46 2197,-995.87 2284,-905.67 2284,-527.08 2284,-527.08 2284,-527.08 2284,-339.19 2284,-275.77 2183.57,-152.91 2168,-144 2101.61,-105.98 1581.21,-94.69 1394.99,-91.84"/>
<polygon fill="black" stroke="black" points="1394.84,-88.34 1384.79,-91.69 1394.74,-95.34 1394.84,-88.34"/>
</g>
<!-- 77&#45;&gt;46 -->
<g id="edge199" class="edge">
<title>77&#45;&gt;46</title>
<path fill="none" stroke="black" d="M2092.97,-2020.29C2102.74,-1993.6 2117.63,-1940.93 2102,-1899.75 2097.61,-1888.19 2089.42,-1877.54 2081.09,-1868.86"/>
<polygon fill="black" stroke="black" points="2083.43,-1866.25 2073.83,-1861.77 2078.54,-1871.26 2083.43,-1866.25"/>
</g>
<!-- 77&#45;&gt;73 -->
<g id="edge198" class="edge">
<title>77&#45;&gt;73</title>
<path fill="none" stroke="black" d="M2098.26,-2020.45C2105.1,-2010.37 2113.35,-1997.12 2119,-1984.45 2144.97,-1926.25 2159,-1910.48 2159,-1846.75 2159,-1846.75 2159,-1846.75 2159,-1374.46 2159,-1210.76 2183,-1170.62 2183,-1006.92 2183,-1006.92 2183,-1006.92 2183,-851.38 2183,-708.13 2129.34,-657.78 2009,-580.08 1957.34,-546.73 1776.07,-533.45 1692.19,-529.01"/>
<polygon fill="black" stroke="black" points="1692.14,-525.5 1681.98,-528.48 1691.78,-532.49 1692.14,-525.5"/>
</g>
<!-- 77&#45;&gt;60 -->
<g id="edge203" class="edge">
<title>77&#45;&gt;60</title>
<path fill="none" stroke="black" d="M2030.02,-2037.13C1863.72,-2035.71 1374.68,-2027.86 1222,-1984.45 1206.23,-1979.96 1190.05,-1971.9 1176.62,-1964.07"/>
<polygon fill="black" stroke="black" points="1178.17,-1960.92 1167.8,-1958.74 1174.55,-1966.91 1178.17,-1960.92"/>
</g>
<!-- 77&#45;&gt;22 -->
<g id="edge204" class="edge">
<title>77&#45;&gt;22</title>
<path fill="none" stroke="black" d="M2081.96,-2020.14C2078.71,-2006.18 2074.07,-1986.28 2070.32,-1970.21"/>
<polygon fill="black" stroke="black" points="2073.69,-1969.24 2068.01,-1960.29 2066.87,-1970.83 2073.69,-1969.24"/>
</g>
<!-- 77&#45;&gt;34 -->
<g id="edge200" class="edge">
<title>77&#45;&gt;34</title>
<path fill="none" stroke="black" d="M2030.38,-2036.18C1911.26,-2032.79 1635.38,-2021.11 1550,-1984.45 1497.1,-1961.73 1497.18,-1935.43 1452,-1899.75 1430.51,-1882.78 1416.97,-1886.68 1402,-1863.75 1379.88,-1829.89 1383,-1815.2 1383,-1774.75 1383,-1774.75 1383,-1774.75 1383,-1446.46 1383,-1316.7 1234.98,-1058.56 871,-834.38 815.93,-800.46 778.37,-841.32 730,-798.38 678.73,-752.86 661.35,-669.18 655.66,-626.17"/>
<polygon fill="black" stroke="black" points="659.12,-625.67 654.45,-616.16 652.17,-626.51 659.12,-625.67"/>
</g>
<!-- 77&#45;&gt;38 -->
<g id="edge202" class="edge">
<title>77&#45;&gt;38</title>
<path fill="none" stroke="black" d="M2119.38,-2023.93C2160.65,-2007.22 2230.94,-1978.76 2276.15,-1960.45"/>
<polygon fill="black" stroke="black" points="2277.72,-1963.59 2285.68,-1956.59 2275.1,-1957.1 2277.72,-1963.59"/>
</g>
<!-- 77&#45;&gt;52 -->
<g id="edge201" class="edge">
<title>77&#45;&gt;52</title>
<path fill="none" stroke="black" d="M2030.12,-2036.74C1896.3,-2034.4 1560.88,-2024.59 1457,-1984.45 1445.87,-1980.15 1435.11,-1972.8 1426.17,-1965.48"/>
<polygon fill="black" stroke="black" points="1428.36,-1962.74 1418.5,-1958.85 1423.78,-1968.04 1428.36,-1962.74"/>
</g>
</g>
</svg>
