<?xml version="1.0" encoding="UTF-8" standalone="no"?>
<!DOCTYPE svg PUBLIC "-//W3C//DTD SVG 1.1//EN"
 "http://www.w3.org/Graphics/SVG/1.1/DTD/svg11.dtd">
<!-- Generated by graphviz version 2.49.3 (20211023.0002)
 -->
<!-- Title: test Pages: 1 -->
<svg width="2445pt" height="2321pt"
 viewBox="0.00 0.00 2445.00 2321.25" xmlns="http://www.w3.org/2000/svg" xmlns:xlink="http://www.w3.org/1999/xlink">
<g id="graph0" class="graph" transform="scale(1 1) rotate(0) translate(4 2317.25)">
<title>test</title>
<polygon fill="white" stroke="transparent" points="-4,4 -4,-2317.25 2441,-2317.25 2441,4 -4,4"/>
<!-- 0 -->
<g id="node1" class="node">
<title>0</title>
<ellipse fill="none" stroke="black" cx="1097" cy="-2295.25" rx="38.19" ry="18"/>
<text text-anchor="middle" x="1097" y="-2291.55" font-family="Times New Roman,serif" font-size="14.00">device8</text>
</g>
<!-- 25 -->
<g id="node2" class="node">
<title>25</title>
<ellipse fill="none" stroke="black" cx="749" cy="-2204.1" rx="42.79" ry="18"/>
<text text-anchor="middle" x="749" y="-2200.4" font-family="Times New Roman,serif" font-size="14.00">device10</text>
</g>
<!-- 0&#45;&gt;25 -->
<g id="edge1" class="edge">
<title>0&#45;&gt;25</title>
<path fill="none" stroke="black" d="M1063.03,-2286.57C999.57,-2271.17 863.53,-2236.4 793.1,-2217.65"/>
<polygon fill="black" stroke="black" points="793.77,-2214.2 783.21,-2215 791.96,-2220.96 793.77,-2214.2"/>
</g>
<!-- 18 -->
<g id="node3" class="node">
<title>18</title>
<ellipse fill="none" stroke="black" cx="2074" cy="-866.58" rx="33.29" ry="18"/>
<text text-anchor="middle" x="2074" y="-862.88" font-family="Times New Roman,serif" font-size="14.00">node7</text>
</g>
<!-- 0&#45;&gt;18 -->
<g id="edge2" class="edge">
<title>0&#45;&gt;18</title>
<path fill="none" stroke="black" d="M1135.33,-2293.48C1311.87,-2289.9 2038.64,-2273.63 2074,-2241.25 2269.14,-2062.55 2166.66,-1915.41 2153,-1651.16 2147.88,-1552.15 2170.55,-1283.48 2107,-1207.37 2070.22,-1163.33 2017.46,-1217.26 1983,-1171.37 1916.54,-1082.87 2006.63,-944.18 2051.57,-890.17"/>
<polygon fill="black" stroke="black" points="2054.26,-892.41 2058.11,-882.54 2048.94,-887.86 2054.26,-892.41"/>
</g>
<!-- 50 -->
<g id="node4" class="node">
<title>50</title>
<ellipse fill="none" stroke="black" cx="1476" cy="-226.29" rx="60.39" ry="18"/>
<text text-anchor="middle" x="1476" y="-222.59" font-family="Times New Roman,serif" font-size="14.00">component13</text>
</g>
<!-- 0&#45;&gt;50 -->
<g id="edge3" class="edge">
<title>0&#45;&gt;50</title>
<path fill="none" stroke="black" d="M1091.8,-2277.35C1088,-2245.42 1088,-2174.05 1088,-2113.96 1088,-2113.96 1088,-2113.96 1088,-1998.06 1088,-1883.08 1050,-1857.14 1050,-1742.16 1050,-1742.16 1050,-1742.16 1050,-1596.16 1050,-1565.34 1261.29,-1246.52 1298,-1207.37 1352.72,-1149.02 1406.22,-1170.93 1442,-1099.37 1449.16,-1085.06 1444.7,-1079.15 1442,-1063.37 1426.44,-972.43 1373,-959.85 1373,-867.58 1373,-867.58 1373,-867.58 1373,-649.58 1373,-484.95 1325.6,-426.13 1402,-280.29 1409.03,-266.88 1421.07,-255.62 1433.5,-246.97"/>
<polygon fill="black" stroke="black" points="1435.61,-249.78 1442.11,-241.41 1431.81,-243.9 1435.61,-249.78"/>
</g>
<!-- 25&#45;&gt;0 -->
<g id="edge68" class="edge">
<title>25&#45;&gt;0</title>
<path fill="none" stroke="black" d="M785.82,-2213.47C851.19,-2229.38 986.69,-2264.04 1055.35,-2282.36"/>
<polygon fill="black" stroke="black" points="1054.81,-2285.84 1065.38,-2285.04 1056.62,-2279.08 1054.81,-2285.84"/>
</g>
<!-- 11 -->
<g id="node36" class="node">
<title>11</title>
<ellipse fill="none" stroke="black" cx="379" cy="-722.58" rx="95.58" ry="18"/>
<text text-anchor="middle" x="379" y="-718.88" font-family="Times New Roman,serif" font-size="14.00">executionEnvironment2</text>
</g>
<!-- 25&#45;&gt;11 -->
<g id="edge67" class="edge">
<title>25&#45;&gt;11</title>
<path fill="none" stroke="black" d="M708.34,-2198.21C594.56,-2182.99 277.57,-2132.97 209,-2058.96 155.87,-2001.6 176,-1964.35 176,-1886.16 176,-1886.16 176,-1886.16 176,-1452.16 176,-1317.96 226,-1288.58 226,-1154.37 226,-1154.37 226,-1154.37 226,-972.98 226,-923.39 312.48,-800.88 355.59,-748.26"/>
<polygon fill="black" stroke="black" points="358.4,-750.35 362.12,-740.43 353.02,-745.87 358.4,-750.35"/>
</g>
<!-- 46 -->
<g id="node43" class="node">
<title>46</title>
<ellipse fill="none" stroke="black" cx="749" cy="-2112.96" rx="33.29" ry="18"/>
<text text-anchor="middle" x="749" y="-2109.26" font-family="Times New Roman,serif" font-size="14.00">node4</text>
</g>
<!-- 25&#45;&gt;46 -->
<g id="edge66" class="edge">
<title>25&#45;&gt;46</title>
<path fill="none" stroke="black" d="M743.54,-2185.91C742.15,-2173.13 741.88,-2155.44 742.75,-2140.8"/>
<polygon fill="black" stroke="black" points="746.24,-2141.04 743.58,-2130.79 739.26,-2140.46 746.24,-2141.04"/>
</g>
<!-- 18&#45;&gt;0 -->
<g id="edge45" class="edge">
<title>18&#45;&gt;0</title>
<path fill="none" stroke="black" d="M2064.83,-883.9C2032.37,-932.59 1931.78,-1079.2 2001,-1171.37 2035.46,-1217.26 2088.22,-1163.33 2125,-1207.37 2188.55,-1283.48 2165.88,-1552.15 2171,-1651.16 2184.66,-1915.41 2287.14,-2062.55 2092,-2241.25 2056.89,-2273.4 1340.15,-2289.66 1145.4,-2293.4"/>
<polygon fill="black" stroke="black" points="1145.12,-2289.91 1135.19,-2293.59 1145.26,-2296.9 1145.12,-2289.91"/>
</g>
<!-- 63 -->
<g id="node48" class="node">
<title>63</title>
<ellipse fill="none" stroke="black" cx="2087" cy="-794.58" rx="38.19" ry="18"/>
<text text-anchor="middle" x="2087" y="-790.88" font-family="Times New Roman,serif" font-size="14.00">device0</text>
</g>
<!-- 18&#45;&gt;63 -->
<g id="edge44" class="edge">
<title>18&#45;&gt;63</title>
<path fill="none" stroke="black" d="M2071.27,-848.64C2071.9,-840.73 2073.45,-831.12 2075.47,-822.27"/>
<polygon fill="black" stroke="black" points="2078.91,-822.93 2078.02,-812.37 2072.13,-821.18 2078.91,-822.93"/>
</g>
<!-- 28 -->
<g id="node49" class="node">
<title>28</title>
<ellipse fill="none" stroke="black" cx="2093" cy="-973.98" rx="46.29" ry="18"/>
<text text-anchor="middle" x="2093" y="-970.28" font-family="Times New Roman,serif" font-size="14.00">interface0</text>
</g>
<!-- 18&#45;&gt;28 -->
<g id="edge46" class="edge">
<title>18&#45;&gt;28</title>
<path fill="none" stroke="black" d="M2082.11,-884.32C2086.92,-900.75 2091.79,-926.11 2094.06,-945.51"/>
<polygon fill="black" stroke="black" points="2090.58,-945.96 2095.03,-955.58 2097.55,-945.29 2090.58,-945.96"/>
</g>
<!-- 50&#45;&gt;0 -->
<g id="edge128" class="edge">
<title>50&#45;&gt;0</title>
<path fill="none" stroke="black" d="M1455.08,-243.4C1442.65,-252.41 1428.04,-264.94 1420,-280.29 1343.6,-426.13 1391,-484.95 1391,-649.58 1391,-867.58 1391,-867.58 1391,-867.58 1391,-959.85 1444.44,-972.43 1460,-1063.37 1462.7,-1079.15 1467.16,-1085.06 1460,-1099.37 1424.22,-1170.93 1370.72,-1149.02 1316,-1207.37 1279.29,-1246.52 1068,-1565.34 1068,-1596.16 1068,-1742.16 1068,-1742.16 1068,-1742.16 1068,-1857.14 1106,-1883.08 1106,-1998.06 1106,-2113.96 1106,-2113.96 1106,-2113.96 1106,-2168.42 1106,-2232.14 1103.17,-2267.37"/>
<polygon fill="black" stroke="black" points="1099.69,-2267.05 1102.2,-2277.35 1106.66,-2267.73 1099.69,-2267.05"/>
</g>
<!-- 44 -->
<g id="node34" class="node">
<title>44</title>
<ellipse fill="none" stroke="red" cx="1476" cy="-298.29" rx="55.79" ry="18"/>
<text text-anchor="middle" x="1476" y="-294.59" font-family="Times New Roman,serif" font-size="14.00">component3</text>
</g>
<!-- 50&#45;&gt;44 -->
<g id="edge126" class="edge">
<title>50&#45;&gt;44</title>
<path fill="none" stroke="black" d="M1481.91,-244.57C1482.71,-252.32 1482.94,-261.65 1482.59,-270.3"/>
<polygon fill="black" stroke="black" points="1479.09,-270.12 1481.88,-280.35 1486.08,-270.62 1479.09,-270.12"/>
</g>
<!-- 43 -->
<g id="node63" class="node">
<title>43</title>
<ellipse fill="none" stroke="black" cx="1731" cy="-122.15" rx="40.09" ry="18"/>
<text text-anchor="middle" x="1731" y="-118.45" font-family="Times New Roman,serif" font-size="14.00">artifact1</text>
</g>
<!-- 50&#45;&gt;43 -->
<g id="edge127" class="edge">
<title>50&#45;&gt;43</title>
<path fill="none" stroke="black" d="M1507.38,-210.77C1553.58,-191.26 1639.58,-156.81 1690.49,-137.43"/>
<polygon fill="black" stroke="black" points="1691.76,-140.69 1699.87,-133.88 1689.28,-134.14 1691.76,-140.69"/>
</g>
<!-- 1 -->
<g id="node5" class="node">
<title>1</title>
<ellipse fill="none" stroke="black" cx="1770" cy="-1381.16" rx="33.29" ry="18"/>
<text text-anchor="middle" x="1770" y="-1377.46" font-family="Times New Roman,serif" font-size="14.00">node2</text>
</g>
<!-- 1&#45;&gt;1 -->
<g id="edge4" class="edge">
<title>1&#45;&gt;1</title>
<path fill="none" stroke="black" d="M1793.68,-1393.82C1807.83,-1396.63 1821.15,-1392.41 1821.15,-1381.16 1821.15,-1372.73 1813.65,-1368.25 1803.94,-1367.72"/>
<polygon fill="black" stroke="black" points="1803.38,-1364.25 1793.68,-1368.51 1803.91,-1371.23 1803.38,-1364.25"/>
</g>
<!-- 20 -->
<g id="node6" class="node">
<title>20</title>
<ellipse fill="none" stroke="black" cx="1770" cy="-1267.27" rx="33.29" ry="18"/>
<text text-anchor="middle" x="1770" y="-1263.57" font-family="Times New Roman,serif" font-size="14.00">node6</text>
</g>
<!-- 1&#45;&gt;20 -->
<g id="edge5" class="edge">
<title>1&#45;&gt;20</title>
<path fill="none" stroke="black" d="M1764.99,-1363.17C1763.01,-1345.18 1762.72,-1316.52 1764.12,-1295.4"/>
<polygon fill="black" stroke="black" points="1767.61,-1295.69 1764.97,-1285.42 1760.63,-1295.09 1767.61,-1295.69"/>
</g>
<!-- 20&#45;&gt;1 -->
<g id="edge51" class="edge">
<title>20&#45;&gt;1</title>
<path fill="none" stroke="black" d="M1775.03,-1285.42C1776.99,-1303.4 1777.28,-1331.89 1775.89,-1352.94"/>
<polygon fill="black" stroke="black" points="1772.38,-1352.91 1775.01,-1363.17 1779.35,-1353.51 1772.38,-1352.91"/>
</g>
<!-- 3 -->
<g id="node8" class="node">
<title>3</title>
<ellipse fill="none" stroke="black" cx="1773" cy="-1153.37" rx="60.39" ry="18"/>
<text text-anchor="middle" x="1773" y="-1149.67" font-family="Times New Roman,serif" font-size="14.00">component15</text>
</g>
<!-- 20&#45;&gt;3 -->
<g id="edge50" class="edge">
<title>20&#45;&gt;3</title>
<path fill="none" stroke="black" d="M1765.45,-1249.28C1763.95,-1231.28 1764.43,-1202.62 1766.39,-1181.5"/>
<polygon fill="black" stroke="black" points="1769.87,-1181.86 1767.51,-1171.53 1762.92,-1181.08 1769.87,-1181.86"/>
</g>
<!-- 2 -->
<g id="node7" class="node">
<title>2</title>
<ellipse fill="none" stroke="black" cx="1941" cy="-2112.96" rx="38.19" ry="18"/>
<text text-anchor="middle" x="1941" y="-2109.26" font-family="Times New Roman,serif" font-size="14.00">device3</text>
</g>
<!-- 3&#45;&gt;20 -->
<g id="edge6" class="edge">
<title>3&#45;&gt;20</title>
<path fill="none" stroke="black" d="M1777.57,-1171.53C1779.05,-1189.58 1778.57,-1218.25 1776.59,-1239.33"/>
<polygon fill="black" stroke="black" points="1773.11,-1238.95 1775.46,-1249.28 1780.07,-1239.73 1773.11,-1238.95"/>
</g>
<!-- 4 -->
<g id="node9" class="node">
<title>4</title>
<ellipse fill="none" stroke="red" cx="374" cy="-1525.16" rx="95.58" ry="18"/>
<text text-anchor="middle" x="374" y="-1521.46" font-family="Times New Roman,serif" font-size="14.00">executionEnvironment7</text>
</g>
<!-- 29 -->
<g id="node10" class="node">
<title>29</title>
<ellipse fill="none" stroke="black" cx="366" cy="-866.58" rx="38.19" ry="18"/>
<text text-anchor="middle" x="366" y="-862.88" font-family="Times New Roman,serif" font-size="14.00">device6</text>
</g>
<!-- 4&#45;&gt;29 -->
<g id="edge7" class="edge">
<title>4&#45;&gt;29</title>
<path fill="none" stroke="black" d="M366.71,-1507.03C356.2,-1480.7 338,-1428.45 338,-1382.16 338,-1382.16 338,-1382.16 338,-1080.37 338,-1012.99 351.97,-934.62 360.18,-894.41"/>
<polygon fill="black" stroke="black" points="363.61,-895.09 362.22,-884.58 356.76,-893.66 363.61,-895.09"/>
</g>
<!-- 72 -->
<g id="node11" class="node">
<title>72</title>
<ellipse fill="none" stroke="black" cx="1887" cy="-18" rx="38.19" ry="18"/>
<text text-anchor="middle" x="1887" y="-14.3" font-family="Times New Roman,serif" font-size="14.00">device7</text>
</g>
<!-- 4&#45;&gt;72 -->
<g id="edge8" class="edge">
<title>4&#45;&gt;72</title>
<path fill="none" stroke="black" d="M332.69,-1508.89C254.8,-1477.11 94,-1396.03 94,-1268.27 94,-1268.27 94,-1268.27 94,-1152.37 94,-988.39 0,-959.57 0,-795.58 0,-795.58 0,-795.58 0,-225.29 0,-61.96 175.05,-109.59 334,-72 483.22,-36.71 1592.34,-22.3 1838.64,-19.52"/>
<polygon fill="black" stroke="black" points="1838.75,-23.02 1848.71,-19.4 1838.67,-16.02 1838.75,-23.02"/>
</g>
<!-- 45 -->
<g id="node12" class="node">
<title>45</title>
<ellipse fill="none" stroke="black" cx="1291" cy="-1453.16" rx="100.18" ry="18"/>
<text text-anchor="middle" x="1291" y="-1449.46" font-family="Times New Roman,serif" font-size="14.00">executionEnvironment10</text>
</g>
<!-- 4&#45;&gt;45 -->
<g id="edge9" class="edge">
<title>4&#45;&gt;45</title>
<path fill="none" stroke="black" d="M460.68,-1517.55C631.24,-1504.53 1009.54,-1475.65 1190.62,-1461.83"/>
<polygon fill="black" stroke="black" points="1190.97,-1465.31 1200.67,-1461.06 1190.44,-1458.33 1190.97,-1465.31"/>
</g>
<!-- 72&#45;&gt;43 -->
<g id="edge191" class="edge">
<title>72&#45;&gt;43</title>
<path fill="none" stroke="black" d="M1869.01,-34.02C1843.48,-52.22 1796.78,-82.88 1764.74,-102.55"/>
<polygon fill="black" stroke="black" points="1762.85,-99.61 1756.13,-107.79 1766.49,-105.59 1762.85,-99.61"/>
</g>
<!-- 69 -->
<g id="node27" class="node">
<title>69</title>
<ellipse fill="none" stroke="black" cx="1320" cy="-1381.16" rx="38.19" ry="18"/>
<text text-anchor="middle" x="1320" y="-1377.46" font-family="Times New Roman,serif" font-size="14.00">device5</text>
</g>
<!-- 45&#45;&gt;69 -->
<g id="edge113" class="edge">
<title>45&#45;&gt;69</title>
<path fill="none" stroke="black" d="M1292.25,-1434.86C1294.83,-1426.57 1298.82,-1416.48 1303.06,-1407.35"/>
<polygon fill="black" stroke="black" points="1306.23,-1408.83 1307.52,-1398.31 1299.96,-1405.73 1306.23,-1408.83"/>
</g>
<!-- 39 -->
<g id="node59" class="node">
<title>39</title>
<ellipse fill="none" stroke="black" cx="162" cy="-474.44" rx="40.09" ry="18"/>
<text text-anchor="middle" x="162" y="-470.74" font-family="Times New Roman,serif" font-size="14.00">artifact5</text>
</g>
<!-- 45&#45;&gt;39 -->
<g id="edge114" class="edge">
<title>45&#45;&gt;39</title>
<path fill="none" stroke="black" d="M1214.52,-1441.44C979.16,-1405.48 282,-1280.2 282,-1082.37 282,-1082.37 282,-1082.37 282,-972.98 282,-846.08 143,-850.48 143,-723.58 143,-723.58 143,-723.58 143,-649.58 143,-597.39 147.53,-536.54 153.24,-502.35"/>
<polygon fill="black" stroke="black" points="156.74,-502.7 155.13,-492.23 149.85,-501.42 156.74,-502.7"/>
</g>
<!-- 5 -->
<g id="node13" class="node">
<title>5</title>
<ellipse fill="none" stroke="red" cx="808" cy="-1999.06" rx="55.8" ry="55.8"/>
<ellipse fill="none" stroke="red" cx="808" cy="-1999.06" rx="59.79" ry="59.79"/>
<text text-anchor="middle" x="808" y="-1995.36" font-family="Times New Roman,serif" font-size="14.00">component6</text>
</g>
<!-- 5&#45;&gt;3 -->
<g id="edge12" class="edge">
<title>5&#45;&gt;3</title>
<path fill="none" stroke="black" d="M842.37,-1949.84C874.8,-1906.35 926.34,-1842.18 980,-1795.16 1216.23,-1588.2 1386.47,-1693.79 1608,-1471.16 1659.95,-1418.96 1660.48,-1394.64 1690,-1327.16 1712.39,-1275.99 1700.95,-1256.24 1728,-1207.37 1733.73,-1197.03 1741.67,-1186.83 1749.28,-1178.19"/>
<polygon fill="black" stroke="black" points="1751.94,-1180.47 1756.11,-1170.74 1746.78,-1175.75 1751.94,-1180.47"/>
</g>
<!-- 41 -->
<g id="node14" class="node">
<title>41</title>
<ellipse fill="none" stroke="black" cx="494" cy="-226.29" rx="55.79" ry="18"/>
<text text-anchor="middle" x="494" y="-222.59" font-family="Times New Roman,serif" font-size="14.00">component5</text>
</g>
<!-- 5&#45;&gt;41 -->
<g id="edge10" class="edge">
<title>5&#45;&gt;41</title>
<path fill="none" stroke="black" d="M753.06,-1974.95C604.58,-1911.4 200.85,-1731.08 118,-1615.16 26.93,-1487.74 56,-1424.89 56,-1268.27 56,-1268.27 56,-1268.27 56,-1152.37 56,-1024.68 94,-995.28 94,-867.58 94,-867.58 94,-867.58 94,-577.58 94,-508.93 72.12,-479.44 113,-424.29 183.39,-329.35 252.03,-372.49 356,-316.29 394.47,-295.5 436.39,-267.67 463.81,-248.7"/>
<polygon fill="black" stroke="black" points="465.97,-251.46 472.18,-242.87 461.97,-245.71 465.97,-251.46"/>
</g>
<!-- 60 -->
<g id="node15" class="node">
<title>60</title>
<ellipse fill="none" stroke="black" cx="792" cy="-1885.16" rx="37.89" ry="18"/>
<text text-anchor="middle" x="792" y="-1881.46" font-family="Times New Roman,serif" font-size="14.00">node10</text>
</g>
<!-- 5&#45;&gt;60 -->
<g id="edge11" class="edge">
<title>5&#45;&gt;60</title>
<path fill="none" stroke="black" d="M799.63,-1939.49C798.32,-1930.33 797.02,-1921.26 795.88,-1913.28"/>
<polygon fill="black" stroke="black" points="799.31,-1912.55 794.43,-1903.14 792.38,-1913.54 799.31,-1912.55"/>
</g>
<!-- 31 -->
<g id="node16" class="node">
<title>31</title>
<ellipse fill="none" stroke="black" cx="356" cy="-1885.16" rx="40.09" ry="18"/>
<text text-anchor="middle" x="356" y="-1881.46" font-family="Times New Roman,serif" font-size="14.00">artifact2</text>
</g>
<!-- 5&#45;&gt;31 -->
<g id="edge13" class="edge">
<title>5&#45;&gt;31</title>
<path fill="none" stroke="black" d="M764.8,-1957.21C755.27,-1950.12 744.78,-1943.61 734,-1939.16 600.07,-1883.89 551.77,-1933.06 410,-1903.16 405.55,-1902.23 400.95,-1901.07 396.39,-1899.81"/>
<polygon fill="black" stroke="black" points="397.15,-1896.39 386.57,-1896.92 395.17,-1903.1 397.15,-1896.39"/>
</g>
<!-- 41&#45;&gt;44 -->
<g id="edge101" class="edge">
<title>41&#45;&gt;44</title>
<path fill="none" stroke="black" d="M548.12,-230.92C716.63,-242.61 1231.07,-279.27 1412.17,-292.48"/>
<polygon fill="black" stroke="black" points="1412.11,-295.99 1422.33,-293.23 1412.62,-289.01 1412.11,-295.99"/>
</g>
<!-- 51 -->
<g id="node58" class="node">
<title>51</title>
<ellipse fill="none" stroke="black" cx="393" cy="-122.15" rx="46.28" ry="46.28"/>
<ellipse fill="none" stroke="black" cx="393" cy="-122.15" rx="50.29" ry="50.29"/>
<text text-anchor="middle" x="393" y="-118.45" font-family="Times New Roman,serif" font-size="14.00">interface1</text>
</g>
<!-- 41&#45;&gt;51 -->
<g id="edge100" class="edge">
<title>41&#45;&gt;51</title>
<path fill="none" stroke="black" d="M473.16,-209.33C461.1,-198.44 445.7,-183.41 431.58,-168.96"/>
<polygon fill="black" stroke="black" points="433.81,-166.22 424.34,-161.47 428.77,-171.09 433.81,-166.22"/>
</g>
<!-- 35 -->
<g id="node53" class="node">
<title>35</title>
<path fill="none" stroke="red" d="M978,-2013.79C978,-2015.59 965.9,-2017.06 951,-2017.06 936.1,-2017.06 924,-2015.59 924,-2013.79 924,-2013.79 924,-1984.33 924,-1984.33 924,-1982.53 936.1,-1981.06 951,-1981.06 965.9,-1981.06 978,-1982.53 978,-1984.33 978,-1984.33 978,-2013.79 978,-2013.79"/>
<path fill="none" stroke="red" d="M978,-2013.79C978,-2011.98 965.9,-2010.51 951,-2010.51 936.1,-2010.51 924,-2011.98 924,-2013.79"/>
<text text-anchor="middle" x="951" y="-1995.36" font-family="Times New Roman,serif" font-size="14.00">node9</text>
</g>
<!-- 60&#45;&gt;35 -->
<g id="edge150" class="edge">
<title>60&#45;&gt;35</title>
<path fill="none" stroke="black" d="M819.11,-1897.75C838.49,-1908.09 864.41,-1923.92 886,-1939.16 901.4,-1950.04 917.88,-1963.01 930.55,-1974.01"/>
<polygon fill="black" stroke="black" points="928.49,-1976.86 938.28,-1980.91 933.15,-1971.64 928.49,-1976.86"/>
</g>
<!-- 54 -->
<g id="node57" class="node">
<title>54</title>
<ellipse fill="none" stroke="black" cx="756" cy="-1813.16" rx="55.79" ry="18"/>
<text text-anchor="middle" x="756" y="-1809.46" font-family="Times New Roman,serif" font-size="14.00">component4</text>
</g>
<!-- 60&#45;&gt;54 -->
<g id="edge151" class="edge">
<title>60&#45;&gt;54</title>
<path fill="none" stroke="black" d="M778.07,-1868.28C772.94,-1860.14 767.46,-1850 763.08,-1840.71"/>
<polygon fill="black" stroke="black" points="766.23,-1839.18 758.98,-1831.46 759.83,-1842.02 766.23,-1839.18"/>
</g>
<!-- 6 -->
<g id="node17" class="node">
<title>6</title>
<ellipse fill="none" stroke="black" cx="1307" cy="-973.98" rx="38.19" ry="18"/>
<text text-anchor="middle" x="1307" y="-970.28" font-family="Times New Roman,serif" font-size="14.00">device1</text>
</g>
<!-- 12 -->
<g id="node18" class="node">
<title>12</title>
<path fill="none" stroke="black" d="M1028.5,-881.31C1028.5,-883.12 1015.28,-884.58 999,-884.58 982.72,-884.58 969.5,-883.12 969.5,-881.31 969.5,-881.31 969.5,-851.86 969.5,-851.86 969.5,-850.05 982.72,-848.58 999,-848.58 1015.28,-848.58 1028.5,-850.05 1028.5,-851.86 1028.5,-851.86 1028.5,-881.31 1028.5,-881.31"/>
<path fill="none" stroke="black" d="M1028.5,-881.31C1028.5,-879.51 1015.28,-878.04 999,-878.04 982.72,-878.04 969.5,-879.51 969.5,-881.31"/>
<text text-anchor="middle" x="999" y="-862.88" font-family="Times New Roman,serif" font-size="14.00">device4</text>
</g>
<!-- 6&#45;&gt;12 -->
<g id="edge14" class="edge">
<title>6&#45;&gt;12</title>
<path fill="none" stroke="black" d="M1289.84,-957.6C1279.51,-945.57 1265.96,-929.45 1250,-920.58 1173.71,-878.23 1142.22,-903.32 1057,-884.58 1051.07,-883.28 1044.86,-881.83 1038.79,-880.33"/>
<polygon fill="black" stroke="black" points="1039.33,-876.86 1028.78,-877.81 1037.62,-883.65 1039.33,-876.86"/>
</g>
<!-- 48 -->
<g id="node19" class="node">
<title>48</title>
<ellipse fill="none" stroke="black" cx="1392" cy="-1081.37" rx="50.09" ry="18"/>
<text text-anchor="middle" x="1392" y="-1077.67" font-family="Times New Roman,serif" font-size="14.00">interface11</text>
</g>
<!-- 6&#45;&gt;48 -->
<g id="edge15" class="edge">
<title>6&#45;&gt;48</title>
<path fill="none" stroke="black" d="M1324.15,-990.16C1339.96,-1007.17 1362.73,-1035.01 1377.61,-1055.28"/>
<polygon fill="black" stroke="black" points="1374.79,-1057.35 1383.46,-1063.44 1380.48,-1053.27 1374.79,-1057.35"/>
</g>
<!-- 62 -->
<g id="node20" class="node">
<title>62</title>
<ellipse fill="none" stroke="black" cx="1171" cy="-866.58" rx="95.58" ry="18"/>
<text text-anchor="middle" x="1171" y="-862.88" font-family="Times New Roman,serif" font-size="14.00">executionEnvironment6</text>
</g>
<!-- 6&#45;&gt;62 -->
<g id="edge16" class="edge">
<title>6&#45;&gt;62</title>
<path fill="none" stroke="black" d="M1287.97,-958.13C1277.22,-947 1263.75,-931.83 1250,-920.58 1235.82,-908.99 1218.86,-898.17 1204.21,-889.37"/>
<polygon fill="black" stroke="black" points="1205.82,-886.25 1195.43,-884.16 1202.25,-892.27 1205.82,-886.25"/>
</g>
<!-- 58 -->
<g id="node21" class="node">
<title>58</title>
<path fill="none" stroke="black" d="M1339,-881.31C1339,-883.12 1326.9,-884.58 1312,-884.58 1297.1,-884.58 1285,-883.12 1285,-881.31 1285,-881.31 1285,-851.86 1285,-851.86 1285,-850.05 1297.1,-848.58 1312,-848.58 1326.9,-848.58 1339,-850.05 1339,-851.86 1339,-851.86 1339,-881.31 1339,-881.31"/>
<path fill="none" stroke="black" d="M1339,-881.31C1339,-879.51 1326.9,-878.04 1312,-878.04 1297.1,-878.04 1285,-879.51 1285,-881.31"/>
<text text-anchor="middle" x="1312" y="-862.88" font-family="Times New Roman,serif" font-size="14.00">node3</text>
</g>
<!-- 6&#45;&gt;58 -->
<g id="edge17" class="edge">
<title>6&#45;&gt;58</title>
<path fill="none" stroke="black" d="M1302.69,-956.05C1301.64,-939.55 1302.55,-914.2 1304.71,-894.86"/>
<polygon fill="black" stroke="black" points="1308.19,-895.2 1306.03,-884.83 1301.25,-894.28 1308.19,-895.2"/>
</g>
<!-- 12&#45;&gt;6 -->
<g id="edge34" class="edge">
<title>12&#45;&gt;6</title>
<path fill="none" stroke="black" d="M1028.79,-873.53C1042.99,-876.97 1059.88,-881.26 1075,-884.58 1160.22,-903.32 1191.71,-878.23 1268,-920.58 1279.76,-927.11 1290.21,-937.59 1297.64,-947.46"/>
<polygon fill="black" stroke="black" points="1294.84,-949.56 1303.35,-955.87 1300.63,-945.63 1294.84,-949.56"/>
</g>
<!-- 67 -->
<g id="node37" class="node">
<title>67</title>
<ellipse fill="none" stroke="black" cx="734" cy="-794.58" rx="95.58" ry="18"/>
<text text-anchor="middle" x="734" y="-790.88" font-family="Times New Roman,serif" font-size="14.00">executionEnvironment4</text>
</g>
<!-- 12&#45;&gt;67 -->
<g id="edge35" class="edge">
<title>12&#45;&gt;67</title>
<path fill="none" stroke="black" d="M969.41,-858.87C926.9,-848.35 847.96,-827.66 793.23,-812.79"/>
<polygon fill="black" stroke="black" points="793.88,-809.34 783.31,-810.09 792.04,-816.09 793.88,-809.34"/>
</g>
<!-- 48&#45;&gt;6 -->
<g id="edge122" class="edge">
<title>48&#45;&gt;6</title>
<path fill="none" stroke="black" d="M1374.08,-1064.37C1358.33,-1047.31 1336.09,-1020.08 1321.44,-1000.15"/>
<polygon fill="black" stroke="black" points="1324.16,-997.93 1315.49,-991.84 1318.47,-1002 1324.16,-997.93"/>
</g>
<!-- 26 -->
<g id="node31" class="node">
<title>26</title>
<ellipse fill="none" stroke="black" cx="1190" cy="-973.98" rx="60.39" ry="18"/>
<text text-anchor="middle" x="1190" y="-970.28" font-family="Times New Roman,serif" font-size="14.00">component12</text>
</g>
<!-- 48&#45;&gt;26 -->
<g id="edge121" class="edge">
<title>48&#45;&gt;26</title>
<path fill="none" stroke="black" d="M1352.56,-1070.07C1323.32,-1060.7 1283.4,-1045.59 1251,-1027.37 1236.41,-1019.17 1221.41,-1008.32 1209.77,-998.62"/>
<polygon fill="black" stroke="black" points="1211.79,-995.73 1201.94,-991.81 1207.19,-1001.01 1211.79,-995.73"/>
</g>
<!-- 37 -->
<g id="node51" class="node">
<title>37</title>
<ellipse fill="none" stroke="red" cx="965" cy="-1153.37" rx="55.79" ry="18"/>
<text text-anchor="middle" x="965" y="-1149.67" font-family="Times New Roman,serif" font-size="14.00">component9</text>
</g>
<!-- 48&#45;&gt;37 -->
<g id="edge123" class="edge">
<title>48&#45;&gt;37</title>
<path fill="none" stroke="black" d="M1359.51,-1095.08C1353.72,-1096.65 1347.73,-1098.14 1342,-1099.37 1233.21,-1122.77 1104.06,-1138.69 1028.56,-1146.59"/>
<polygon fill="black" stroke="black" points="1027.86,-1143.15 1018.27,-1147.65 1028.57,-1150.11 1027.86,-1143.15"/>
</g>
<!-- 62&#45;&gt;6 -->
<g id="edge157" class="edge">
<title>62&#45;&gt;6</title>
<path fill="none" stroke="black" d="M1209.62,-883.24C1228.33,-892.88 1250.33,-906.13 1268,-920.58 1277.8,-928.6 1287.45,-938.6 1294.92,-947.72"/>
<polygon fill="black" stroke="black" points="1292.24,-949.97 1301.11,-955.75 1297.78,-945.7 1292.24,-949.97"/>
</g>
<!-- 58&#45;&gt;6 -->
<g id="edge147" class="edge">
<title>58&#45;&gt;6</title>
<path fill="none" stroke="black" d="M1316.33,-884.83C1317.35,-901.43 1316.43,-926.8 1314.25,-946.06"/>
<polygon fill="black" stroke="black" points="1310.77,-945.67 1312.92,-956.05 1317.71,-946.6 1310.77,-945.67"/>
</g>
<!-- 7 -->
<g id="node22" class="node">
<title>7</title>
<ellipse fill="none" stroke="red" cx="826" cy="-1081.37" rx="37.89" ry="18"/>
<text text-anchor="middle" x="826" y="-1077.67" font-family="Times New Roman,serif" font-size="14.00">model2</text>
</g>
<!-- 27 -->
<g id="node23" class="node">
<title>27</title>
<ellipse fill="none" stroke="black" cx="1074" cy="-973.98" rx="37.89" ry="18"/>
<text text-anchor="middle" x="1074" y="-970.28" font-family="Times New Roman,serif" font-size="14.00">model1</text>
</g>
<!-- 7&#45;&gt;27 -->
<g id="edge18" class="edge">
<title>7&#45;&gt;27</title>
<path fill="none" stroke="black" d="M853.49,-1068.69C898.3,-1049.65 987.11,-1011.91 1037.27,-990.59"/>
<polygon fill="black" stroke="black" points="1038.93,-993.69 1046.77,-986.55 1036.19,-987.24 1038.93,-993.69"/>
</g>
<!-- 30 -->
<g id="node24" class="node">
<title>30</title>
<ellipse fill="none" stroke="black" cx="792" cy="-973.98" rx="37.89" ry="18"/>
<text text-anchor="middle" x="792" y="-970.28" font-family="Times New Roman,serif" font-size="14.00">model6</text>
</g>
<!-- 7&#45;&gt;30 -->
<g id="edge19" class="edge">
<title>7&#45;&gt;30</title>
<path fill="none" stroke="black" d="M820.54,-1063.44C815.16,-1046.77 806.86,-1021.06 800.6,-1001.64"/>
<polygon fill="black" stroke="black" points="803.85,-1000.31 797.45,-991.87 797.19,-1002.46 803.85,-1000.31"/>
</g>
<!-- 8 -->
<g id="node25" class="node">
<title>8</title>
<ellipse fill="none" stroke="black" cx="1659" cy="-226.29" rx="44.39" ry="18"/>
<text text-anchor="middle" x="1659" y="-222.59" font-family="Times New Roman,serif" font-size="14.00">artifact10</text>
</g>
<!-- 9 -->
<g id="node26" class="node">
<title>9</title>
<ellipse fill="none" stroke="red" cx="1561" cy="-1453.16" rx="38.19" ry="18"/>
<text text-anchor="middle" x="1561" y="-1449.46" font-family="Times New Roman,serif" font-size="14.00">device2</text>
</g>
<!-- 9&#45;&gt;1 -->
<g id="edge22" class="edge">
<title>9&#45;&gt;1</title>
<path fill="none" stroke="black" d="M1591.39,-1441.99C1628.86,-1429.44 1692.52,-1408.12 1732.85,-1394.61"/>
<polygon fill="black" stroke="black" points="1734.2,-1397.85 1742.57,-1391.35 1731.98,-1391.21 1734.2,-1397.85"/>
</g>
<!-- 9&#45;&gt;8 -->
<g id="edge21" class="edge">
<title>9&#45;&gt;8</title>
<path fill="none" stroke="black" d="M1555.31,-1435.09C1542.53,-1393.69 1515.47,-1285.6 1552,-1207.37 1573.09,-1162.21 1595.07,-1160.71 1638,-1135.37 1676.17,-1112.85 1694.4,-1124.37 1731,-1099.37 1748.93,-1087.14 1747.92,-1077.95 1764,-1063.37 1783.76,-1045.47 1800.07,-1051.23 1812,-1027.37 1813.46,-1024.45 1811,-809.73 1811,-795.58 1811,-795.58 1811,-795.58 1811,-473.44 1811,-449.13 1798.98,-445.44 1787,-424.29 1767.78,-390.35 1705.84,-297.18 1675.74,-252.21"/>
<polygon fill="black" stroke="black" points="1678.64,-250.25 1670.16,-243.89 1672.82,-254.15 1678.64,-250.25"/>
</g>
<!-- 9&#45;&gt;69 -->
<g id="edge20" class="edge">
<title>9&#45;&gt;69</title>
<path fill="none" stroke="black" d="M1529,-1442.87C1485.84,-1430.34 1408.94,-1408 1361.42,-1394.2"/>
<polygon fill="black" stroke="black" points="1362.33,-1390.82 1351.75,-1391.39 1360.38,-1397.54 1362.33,-1390.82"/>
</g>
<!-- 19 -->
<g id="node28" class="node">
<title>19</title>
<ellipse fill="none" stroke="black" cx="379" cy="-650.58" rx="40.09" ry="18"/>
<text text-anchor="middle" x="379" y="-646.88" font-family="Times New Roman,serif" font-size="14.00">artifact9</text>
</g>
<!-- 9&#45;&gt;19 -->
<g id="edge23" class="edge">
<title>9&#45;&gt;19</title>
<path fill="none" stroke="black" d="M1539.06,-1438.12C1472.85,-1396.37 1268.17,-1271.95 1082,-1207.37 911.26,-1148.16 827.95,-1216.12 690,-1099.37 614.46,-1035.45 554.32,-774.21 484,-704.58 466.26,-687.02 441.51,-674.14 420.5,-665.48"/>
<polygon fill="black" stroke="black" points="421.73,-662.2 411.14,-661.8 419.16,-668.72 421.73,-662.2"/>
</g>
<!-- 49 -->
<g id="node29" class="node">
<title>49</title>
<ellipse fill="none" stroke="black" cx="2011" cy="-1267.27" rx="95.58" ry="18"/>
<text text-anchor="middle" x="2011" y="-1263.57" font-family="Times New Roman,serif" font-size="14.00">executionEnvironment9</text>
</g>
<!-- 9&#45;&gt;49 -->
<g id="edge24" class="edge">
<title>9&#45;&gt;49</title>
<path fill="none" stroke="black" d="M1597.15,-1447.01C1660.44,-1437.66 1788.53,-1417.2 1830,-1399.16 1891.56,-1372.38 1952.64,-1321.96 1985.73,-1292.12"/>
<polygon fill="black" stroke="black" points="1988.11,-1294.69 1993.13,-1285.37 1983.39,-1289.52 1988.11,-1294.69"/>
</g>
<!-- 69&#45;&gt;45 -->
<g id="edge180" class="edge">
<title>69&#45;&gt;45</title>
<path fill="none" stroke="black" d="M1318.76,-1399.44C1316.27,-1407.45 1312.46,-1417.14 1308.38,-1426.02"/>
<polygon fill="black" stroke="black" points="1305.14,-1424.7 1303.9,-1435.22 1311.43,-1427.77 1305.14,-1424.7"/>
</g>
<!-- 69&#45;&gt;69 -->
<g id="edge177" class="edge">
<title>69&#45;&gt;69</title>
<path fill="none" stroke="black" d="M1346.96,-1393.97C1362.22,-1396.47 1376.35,-1392.2 1376.35,-1381.16 1376.35,-1372.63 1367.89,-1368.14 1357,-1367.7"/>
<polygon fill="black" stroke="black" points="1356.71,-1364.21 1346.96,-1368.36 1357.17,-1371.2 1356.71,-1364.21"/>
</g>
<!-- 69&#45;&gt;49 -->
<g id="edge179" class="edge">
<title>69&#45;&gt;49</title>
<path fill="none" stroke="black" d="M1358.12,-1378.14C1440.27,-1373.51 1639.15,-1359.96 1803,-1327.16 1854.35,-1316.89 1911.54,-1299.3 1953.03,-1286.01"/>
<polygon fill="black" stroke="black" points="1954.25,-1289.29 1962.7,-1282.9 1952.11,-1282.63 1954.25,-1289.29"/>
</g>
<!-- 21 -->
<g id="node52" class="node">
<title>21</title>
<ellipse fill="none" stroke="black" cx="1030" cy="-1267.27" rx="42.79" ry="18"/>
<text text-anchor="middle" x="1030" y="-1263.57" font-family="Times New Roman,serif" font-size="14.00">device11</text>
</g>
<!-- 69&#45;&gt;21 -->
<g id="edge178" class="edge">
<title>69&#45;&gt;21</title>
<path fill="none" stroke="black" d="M1289.67,-1370.04C1236.35,-1350.71 1126.42,-1308.41 1068.09,-1284.88"/>
<polygon fill="black" stroke="black" points="1069.09,-1281.51 1058.51,-1281 1066.46,-1288 1069.09,-1281.51"/>
</g>
<!-- 19&#45;&gt;11 -->
<g id="edge48" class="edge">
<title>19&#45;&gt;11</title>
<path fill="none" stroke="black" d="M384.9,-668.69C385.7,-676.37 385.94,-685.64 385.6,-694.25"/>
<polygon fill="black" stroke="black" points="382.11,-694.06 384.92,-704.28 389.09,-694.54 382.11,-694.06"/>
</g>
<!-- 32 -->
<g id="node50" class="node">
<title>32</title>
<ellipse fill="none" stroke="red" cx="287" cy="-578.58" rx="60.39" ry="18"/>
<text text-anchor="middle" x="287" y="-574.88" font-family="Times New Roman,serif" font-size="14.00">component14</text>
</g>
<!-- 19&#45;&gt;32 -->
<g id="edge47" class="edge">
<title>19&#45;&gt;32</title>
<path fill="none" stroke="black" d="M355.32,-635.75C341.64,-626.32 324.62,-613.59 310.91,-602.64"/>
<polygon fill="black" stroke="black" points="312.83,-599.69 302.87,-596.09 308.42,-605.12 312.83,-599.69"/>
</g>
<!-- 19&#45;&gt;37 -->
<g id="edge49" class="edge">
<title>19&#45;&gt;37</title>
<path fill="none" stroke="black" d="M415.9,-658.04C447.72,-665.52 493.23,-680.05 526,-704.58 590.47,-752.85 596.15,-778.6 636,-848.58 695.45,-953.01 645.4,-1021.6 737,-1099.37 762.22,-1120.79 845.57,-1135.86 904.24,-1144.33"/>
<polygon fill="black" stroke="black" points="903.76,-1147.79 914.16,-1145.73 904.74,-1140.86 903.76,-1147.79"/>
</g>
<!-- 49&#45;&gt;69 -->
<g id="edge124" class="edge">
<title>49&#45;&gt;69</title>
<path fill="none" stroke="black" d="M1973.61,-1283.95C1935.58,-1297.42 1875.05,-1316.35 1821,-1327.16 1657.11,-1359.96 1458.18,-1373.52 1368.16,-1378.14"/>
<polygon fill="black" stroke="black" points="1367.8,-1374.65 1357.99,-1378.65 1368.15,-1381.64 1367.8,-1374.65"/>
</g>
<!-- 17 -->
<g id="node47" class="node">
<title>17</title>
<ellipse fill="none" stroke="black" cx="2101" cy="-1153.37" rx="100.18" ry="18"/>
<text text-anchor="middle" x="2101" y="-1149.67" font-family="Times New Roman,serif" font-size="14.00">executionEnvironment11</text>
</g>
<!-- 49&#45;&gt;17 -->
<g id="edge125" class="edge">
<title>49&#45;&gt;17</title>
<path fill="none" stroke="black" d="M2019.66,-1249.28C2032.68,-1230.52 2056.87,-1200.16 2075.62,-1178.85"/>
<polygon fill="black" stroke="black" points="2078.44,-1180.95 2082.51,-1171.16 2073.23,-1176.27 2078.44,-1180.95"/>
</g>
<!-- 10 -->
<g id="node30" class="node">
<title>10</title>
<ellipse fill="none" stroke="red" cx="1666" cy="-1081.37" rx="55.79" ry="18"/>
<text text-anchor="middle" x="1666" y="-1077.67" font-family="Times New Roman,serif" font-size="14.00">component0</text>
</g>
<!-- 10&#45;&gt;27 -->
<g id="edge28" class="edge">
<title>10&#45;&gt;27</title>
<path fill="none" stroke="black" d="M1612.32,-1076.21C1479.14,-1065.74 1142.74,-1038.37 1121,-1027.37 1108.73,-1021.17 1098.17,-1010.3 1090.18,-1000.06"/>
<polygon fill="black" stroke="black" points="1092.82,-997.74 1084.1,-991.73 1087.17,-1001.87 1092.82,-997.74"/>
</g>
<!-- 10&#45;&gt;26 -->
<g id="edge25" class="edge">
<title>10&#45;&gt;26</title>
<path fill="none" stroke="black" d="M1611.81,-1076.72C1516.41,-1069.73 1322.64,-1052.84 1260,-1027.37 1243.27,-1020.57 1226.98,-1008.78 1214.33,-998.1"/>
<polygon fill="black" stroke="black" points="1216.4,-995.27 1206.57,-991.31 1211.79,-1000.53 1216.4,-995.27"/>
</g>
<!-- 47 -->
<g id="node32" class="node">
<title>47</title>
<ellipse fill="none" stroke="black" cx="960" cy="-370.29" rx="55.79" ry="18"/>
<text text-anchor="middle" x="960" y="-366.59" font-family="Times New Roman,serif" font-size="14.00">component1</text>
</g>
<!-- 10&#45;&gt;47 -->
<g id="edge26" class="edge">
<title>10&#45;&gt;47</title>
<path fill="none" stroke="black" d="M1636.25,-1065.98C1618.83,-1056.6 1597.17,-1043.18 1581,-1027.37 1558.97,-1005.85 1429,-826.38 1429,-795.58 1429,-795.58 1429,-795.58 1429,-649.58 1429,-462.22 1148.75,-398.23 1021.52,-378.84"/>
<polygon fill="black" stroke="black" points="1021.94,-375.36 1011.53,-377.36 1020.91,-382.29 1021.94,-375.36"/>
</g>
<!-- 53 -->
<g id="node33" class="node">
<title>53</title>
<ellipse fill="none" stroke="black" cx="1730" cy="-973.98" rx="49.3" ry="49.3"/>
<ellipse fill="none" stroke="black" cx="1730" cy="-973.98" rx="53.29" ry="53.29"/>
<text text-anchor="middle" x="1730" y="-970.28" font-family="Times New Roman,serif" font-size="14.00">package11</text>
</g>
<!-- 10&#45;&gt;53 -->
<g id="edge27" class="edge">
<title>10&#45;&gt;53</title>
<path fill="none" stroke="black" d="M1676.28,-1063.44C1682.08,-1053.89 1689.68,-1041.37 1697.33,-1028.77"/>
<polygon fill="black" stroke="black" points="1700.42,-1030.43 1702.62,-1020.07 1694.44,-1026.8 1700.42,-1030.43"/>
</g>
<!-- 10&#45;&gt;44 -->
<g id="edge29" class="edge">
<title>10&#45;&gt;44</title>
<path fill="none" stroke="black" d="M1706.22,-1068.78C1739.19,-1058.37 1781.99,-1042.45 1792,-1027.37 1818.26,-987.84 1795.93,-967.88 1792,-920.58 1779.29,-767.45 1735,-733.24 1735,-579.58 1735,-579.58 1735,-579.58 1735,-473.44 1735,-376.6 1608.76,-330.09 1532.55,-310.84"/>
<polygon fill="black" stroke="black" points="1533.15,-307.39 1522.6,-308.41 1531.49,-314.19 1533.15,-307.39"/>
</g>
<!-- 55 -->
<g id="node35" class="node">
<title>55</title>
<path fill="none" stroke="black" d="M1658.5,-988.71C1658.5,-990.51 1643.04,-991.98 1624,-991.98 1604.96,-991.98 1589.5,-990.51 1589.5,-988.71 1589.5,-988.71 1589.5,-959.25 1589.5,-959.25 1589.5,-957.45 1604.96,-955.98 1624,-955.98 1643.04,-955.98 1658.5,-957.45 1658.5,-959.25 1658.5,-959.25 1658.5,-988.71 1658.5,-988.71"/>
<path fill="none" stroke="black" d="M1658.5,-988.71C1658.5,-986.9 1643.04,-985.43 1624,-985.43 1604.96,-985.43 1589.5,-986.9 1589.5,-988.71"/>
<text text-anchor="middle" x="1624" y="-970.28" font-family="Times New Roman,serif" font-size="14.00">package2</text>
</g>
<!-- 10&#45;&gt;55 -->
<g id="edge30" class="edge">
<title>10&#45;&gt;55</title>
<path fill="none" stroke="black" d="M1659.25,-1063.44C1652.62,-1046.79 1642.39,-1021.12 1634.66,-1001.72"/>
<polygon fill="black" stroke="black" points="1637.82,-1000.21 1630.87,-992.22 1631.32,-1002.81 1637.82,-1000.21"/>
</g>
<!-- 26&#45;&gt;48 -->
<g id="edge69" class="edge">
<title>26&#45;&gt;48</title>
<path fill="none" stroke="black" d="M1215.25,-990.37C1230.45,-1001.63 1250.08,-1016.74 1269,-1027.37 1295.01,-1042 1325.88,-1054.63 1350.28,-1063.89"/>
<polygon fill="black" stroke="black" points="1349.37,-1067.28 1359.97,-1067.52 1351.83,-1060.73 1349.37,-1067.28"/>
</g>
<!-- 59 -->
<g id="node56" class="node">
<title>59</title>
<ellipse fill="none" stroke="black" cx="764" cy="-866.58" rx="40.09" ry="18"/>
<text text-anchor="middle" x="764" y="-862.88" font-family="Times New Roman,serif" font-size="14.00">artifact6</text>
</g>
<!-- 26&#45;&gt;59 -->
<g id="edge70" class="edge">
<title>26&#45;&gt;59</title>
<path fill="none" stroke="black" d="M1166.91,-957.24C1152.11,-945.16 1132.38,-929.16 1112,-920.58 1058.56,-898.09 895.78,-880.42 813.11,-872.35"/>
<polygon fill="black" stroke="black" points="813.24,-868.85 802.95,-871.37 812.57,-875.82 813.24,-868.85"/>
</g>
<!-- 47&#45;&gt;44 -->
<g id="edge118" class="edge">
<title>47&#45;&gt;44</title>
<path fill="none" stroke="black" d="M1009.91,-361.93C1105.01,-348.6 1311.58,-320.57 1414.82,-306.99"/>
<polygon fill="black" stroke="black" points="1415.32,-310.46 1424.78,-305.68 1414.41,-303.52 1415.32,-310.46"/>
</g>
<!-- 34 -->
<g id="node45" class="node">
<title>34</title>
<ellipse fill="none" stroke="black" cx="867" cy="-298.29" rx="55.79" ry="18"/>
<text text-anchor="middle" x="867" y="-294.59" font-family="Times New Roman,serif" font-size="14.00">component2</text>
</g>
<!-- 47&#45;&gt;34 -->
<g id="edge119" class="edge">
<title>47&#45;&gt;34</title>
<path fill="none" stroke="black" d="M934.39,-354.28C920.77,-344.89 904.24,-332.63 890.89,-322.07"/>
<polygon fill="black" stroke="black" points="893.03,-319.3 883.04,-315.75 888.64,-324.75 893.03,-319.3"/>
</g>
<!-- 52 -->
<g id="node60" class="node">
<title>52</title>
<ellipse fill="none" stroke="black" cx="954" cy="-474.44" rx="46.28" ry="46.28"/>
<ellipse fill="none" stroke="black" cx="954" cy="-474.44" rx="50.29" ry="50.29"/>
<text text-anchor="middle" x="954" y="-470.74" font-family="Times New Roman,serif" font-size="14.00">interface5</text>
</g>
<!-- 47&#45;&gt;52 -->
<g id="edge120" class="edge">
<title>47&#45;&gt;52</title>
<path fill="none" stroke="black" d="M964.18,-388.27C964.57,-395.8 964.53,-405.14 964.13,-414.86"/>
<polygon fill="black" stroke="black" points="960.62,-414.89 963.58,-425.06 967.61,-415.26 960.62,-414.89"/>
</g>
<!-- 44&#45;&gt;50 -->
<g id="edge112" class="edge">
<title>44&#45;&gt;50</title>
<path fill="none" stroke="black" d="M1470.12,-280.35C1469.3,-272.64 1469.06,-263.32 1469.39,-254.66"/>
<polygon fill="black" stroke="black" points="1472.89,-254.78 1470.09,-244.57 1465.91,-254.3 1472.89,-254.78"/>
</g>
<!-- 44&#45;&gt;41 -->
<g id="edge108" class="edge">
<title>44&#45;&gt;41</title>
<path fill="none" stroke="black" d="M1421.71,-293.65C1253.11,-281.96 739.4,-245.35 558.11,-232.12"/>
<polygon fill="black" stroke="black" points="558.17,-228.62 547.94,-231.38 557.66,-235.6 558.17,-228.62"/>
</g>
<!-- 44&#45;&gt;8 -->
<g id="edge110" class="edge">
<title>44&#45;&gt;8</title>
<path fill="none" stroke="black" d="M1510.85,-283.96C1541.49,-272.24 1586.1,-255.18 1618.35,-242.84"/>
<polygon fill="black" stroke="black" points="1619.85,-246.02 1627.94,-239.17 1617.35,-239.48 1619.85,-246.02"/>
</g>
<!-- 44&#45;&gt;47 -->
<g id="edge109" class="edge">
<title>44&#45;&gt;47</title>
<path fill="none" stroke="black" d="M1426.18,-306.64C1331.14,-319.96 1124.51,-348 1021.22,-361.59"/>
<polygon fill="black" stroke="black" points="1020.72,-358.12 1011.26,-362.89 1021.63,-365.06 1020.72,-358.12"/>
</g>
<!-- 44&#45;&gt;54 -->
<g id="edge111" class="edge">
<title>44&#45;&gt;54</title>
<path fill="none" stroke="black" d="M1481.32,-316.59C1485,-347.89 1485,-415.99 1485,-473.44 1485,-795.58 1485,-795.58 1485,-795.58 1485,-931.06 1548.74,-997.01 1460,-1099.37 1318.76,-1262.31 1148.13,-1064.08 987,-1207.37 900.72,-1284.11 900,-1336.7 900,-1452.16 900,-1670.16 900,-1670.16 900,-1670.16 900,-1727.52 841.43,-1770.93 798.87,-1793.88"/>
<polygon fill="black" stroke="black" points="797.05,-1790.88 789.79,-1798.6 800.28,-1797.09 797.05,-1790.88"/>
</g>
<!-- 11&#45;&gt;25 -->
<g id="edge31" class="edge">
<title>11&#45;&gt;25</title>
<path fill="none" stroke="black" d="M370.1,-740.77C339.52,-788.2 244,-920.86 244,-972.98 244,-1154.37 244,-1154.37 244,-1154.37 244,-1288.58 194,-1317.96 194,-1452.16 194,-1886.16 194,-1886.16 194,-1886.16 194,-1964.35 173.87,-2001.6 227,-2058.96 292.14,-2129.27 581.49,-2177.93 699.14,-2195.67"/>
<polygon fill="black" stroke="black" points="698.91,-2199.17 709.31,-2197.19 699.94,-2192.25 698.91,-2199.17"/>
</g>
<!-- 11&#45;&gt;19 -->
<g id="edge33" class="edge">
<title>11&#45;&gt;19</title>
<path fill="none" stroke="black" d="M373.08,-704.28C372.29,-696.57 372.06,-687.3 372.4,-678.7"/>
<polygon fill="black" stroke="black" points="375.9,-678.91 373.1,-668.69 368.92,-678.42 375.9,-678.91"/>
</g>
<!-- 11&#45;&gt;67 -->
<g id="edge32" class="edge">
<title>11&#45;&gt;67</title>
<path fill="none" stroke="black" d="M445.39,-735.64C507.56,-747.53 600.06,-765.74 663.52,-778.57"/>
<polygon fill="black" stroke="black" points="662.95,-782.03 673.45,-780.58 664.34,-775.17 662.95,-782.03"/>
</g>
<!-- 67&#45;&gt;12 -->
<g id="edge171" class="edge">
<title>67&#45;&gt;12</title>
<path fill="none" stroke="black" d="M790.83,-809.15C841.65,-822.1 914.68,-841.42 959.43,-853.75"/>
<polygon fill="black" stroke="black" points="958.77,-857.2 969.34,-856.5 960.64,-850.46 958.77,-857.2"/>
</g>
<!-- 67&#45;&gt;11 -->
<g id="edge172" class="edge">
<title>67&#45;&gt;11</title>
<path fill="none" stroke="black" d="M667.73,-781.55C605.56,-769.66 512.99,-751.43 449.49,-738.6"/>
<polygon fill="black" stroke="black" points="450.05,-735.14 439.56,-736.59 448.66,-742 450.05,-735.14"/>
</g>
<!-- 13 -->
<g id="node38" class="node">
<title>13</title>
<ellipse fill="none" stroke="black" cx="1428" cy="-1525.16" rx="46.29" ry="18"/>
<text text-anchor="middle" x="1428" y="-1521.46" font-family="Times New Roman,serif" font-size="14.00">interface9</text>
</g>
<!-- 13&#45;&gt;45 -->
<g id="edge38" class="edge">
<title>13&#45;&gt;45</title>
<path fill="none" stroke="black" d="M1400.93,-1510.34C1381.19,-1500.25 1354.1,-1486.41 1331.75,-1474.99"/>
<polygon fill="black" stroke="black" points="1333.32,-1471.86 1322.82,-1470.42 1330.13,-1478.09 1333.32,-1471.86"/>
</g>
<!-- 57 -->
<g id="node39" class="node">
<title>57</title>
<path fill="none" stroke="black" d="M786.5,-1611.89C786.5,-1613.7 770.59,-1615.16 751,-1615.16 731.41,-1615.16 715.5,-1613.7 715.5,-1611.89 715.5,-1611.89 715.5,-1582.44 715.5,-1582.44 715.5,-1580.63 731.41,-1579.16 751,-1579.16 770.59,-1579.16 786.5,-1580.63 786.5,-1582.44 786.5,-1582.44 786.5,-1611.89 786.5,-1611.89"/>
<path fill="none" stroke="black" d="M786.5,-1611.89C786.5,-1610.09 770.59,-1608.62 751,-1608.62 731.41,-1608.62 715.5,-1610.09 715.5,-1611.89"/>
<text text-anchor="middle" x="751" y="-1593.46" font-family="Times New Roman,serif" font-size="14.00">interface8</text>
</g>
<!-- 13&#45;&gt;57 -->
<g id="edge36" class="edge">
<title>13&#45;&gt;57</title>
<path fill="none" stroke="black" d="M1398.71,-1539.12C1393.22,-1540.68 1387.49,-1542.09 1382,-1543.16 1270.12,-1564.96 922.19,-1586.72 796.64,-1593.79"/>
<polygon fill="black" stroke="black" points="796.38,-1590.3 786.59,-1594.35 796.77,-1597.29 796.38,-1590.3"/>
</g>
<!-- 22 -->
<g id="node40" class="node">
<title>22</title>
<ellipse fill="none" stroke="black" cx="2093" cy="-1081.37" rx="40.09" ry="18"/>
<text text-anchor="middle" x="2093" y="-1077.67" font-family="Times New Roman,serif" font-size="14.00">artifact4</text>
</g>
<!-- 13&#45;&gt;22 -->
<g id="edge37" class="edge">
<title>13&#45;&gt;22</title>
<path fill="none" stroke="black" d="M1462.47,-1513.09C1555.95,-1484.96 1807.29,-1412.03 1821,-1399.16 1887.86,-1336.43 1843.31,-1281.7 1897,-1207.37 1936.2,-1153.11 2006.75,-1115.47 2051.79,-1096.52"/>
<polygon fill="black" stroke="black" points="2053.33,-1099.67 2061.27,-1092.65 2050.69,-1093.19 2053.33,-1099.67"/>
</g>
<!-- 57&#45;&gt;13 -->
<g id="edge145" class="edge">
<title>57&#45;&gt;13</title>
<path fill="none" stroke="black" d="M786.73,-1593.9C900.34,-1586.96 1251.51,-1565.08 1364,-1543.16 1369.66,-1542.06 1375.55,-1540.6 1381.4,-1538.98"/>
<polygon fill="black" stroke="black" points="1382.51,-1542.31 1391.14,-1536.17 1380.56,-1535.58 1382.51,-1542.31"/>
</g>
<!-- 42 -->
<g id="node44" class="node">
<title>42</title>
<path fill="none" stroke="black" d="M797.5,-1683.89C797.5,-1685.7 776.66,-1687.16 751,-1687.16 725.34,-1687.16 704.5,-1685.7 704.5,-1683.89 704.5,-1683.89 704.5,-1654.44 704.5,-1654.44 704.5,-1652.63 725.34,-1651.16 751,-1651.16 776.66,-1651.16 797.5,-1652.63 797.5,-1654.44 797.5,-1654.44 797.5,-1683.89 797.5,-1683.89"/>
<path fill="none" stroke="black" d="M797.5,-1683.89C797.5,-1682.09 776.66,-1680.62 751,-1680.62 725.34,-1680.62 704.5,-1682.09 704.5,-1683.89"/>
<text text-anchor="middle" x="751" y="-1665.46" font-family="Times New Roman,serif" font-size="14.00">component10</text>
</g>
<!-- 57&#45;&gt;42 -->
<g id="edge144" class="edge">
<title>57&#45;&gt;42</title>
<path fill="none" stroke="black" d="M756.9,-1615.27C757.7,-1622.96 757.94,-1632.22 757.6,-1640.83"/>
<polygon fill="black" stroke="black" points="754.11,-1640.65 756.92,-1650.86 761.09,-1641.12 754.11,-1640.65"/>
</g>
<!-- 57&#45;&gt;59 -->
<g id="edge146" class="edge">
<title>57&#45;&gt;59</title>
<path fill="none" stroke="black" d="M715.27,-1583.95C668.23,-1563.91 592,-1519.61 592,-1454.16 592,-1454.16 592,-1454.16 592,-1152.37 592,-1040.94 687.17,-933.52 736.08,-889.05"/>
<polygon fill="black" stroke="black" points="738.63,-891.46 743.8,-882.21 733.99,-886.22 738.63,-891.46"/>
</g>
<!-- 22&#45;&gt;13 -->
<g id="edge55" class="edge">
<title>22&#45;&gt;13</title>
<path fill="none" stroke="black" d="M2067.16,-1095.2C2028.12,-1113.69 1955.13,-1151.82 1915,-1207.37 1861.31,-1281.7 1905.86,-1336.43 1839,-1399.16 1825.48,-1411.85 1580.74,-1482.99 1475.4,-1511.92"/>
<polygon fill="black" stroke="black" points="1474.38,-1508.57 1465.66,-1514.59 1476.23,-1515.33 1474.38,-1508.57"/>
</g>
<!-- 22&#45;&gt;17 -->
<g id="edge57" class="edge">
<title>22&#45;&gt;17</title>
<path fill="none" stroke="black" d="M2100.85,-1099.48C2102.53,-1107.17 2103.83,-1116.43 2104.48,-1125.04"/>
<polygon fill="black" stroke="black" points="2100.99,-1125.24 2104.94,-1135.07 2107.98,-1124.92 2100.99,-1125.24"/>
</g>
<!-- 22&#45;&gt;28 -->
<g id="edge56" class="edge">
<title>22&#45;&gt;28</title>
<path fill="none" stroke="black" d="M2087.89,-1063.44C2086.04,-1046.85 2085.76,-1021.29 2087.03,-1001.91"/>
<polygon fill="black" stroke="black" points="2090.52,-1002.13 2087.89,-991.87 2083.54,-1001.53 2090.52,-1002.13"/>
</g>
<!-- 14 -->
<g id="node41" class="node">
<title>14</title>
<ellipse fill="none" stroke="black" cx="1845" cy="-1453.16" rx="95.58" ry="18"/>
<text text-anchor="middle" x="1845" y="-1449.46" font-family="Times New Roman,serif" font-size="14.00">executionEnvironment8</text>
</g>
<!-- 15 -->
<g id="node42" class="node">
<title>15</title>
<ellipse fill="none" stroke="red" cx="374" cy="-226.29" rx="46.29" ry="18"/>
<text text-anchor="middle" x="374" y="-222.59" font-family="Times New Roman,serif" font-size="14.00">interface6</text>
</g>
<!-- 15&#45;&gt;46 -->
<g id="edge39" class="edge">
<title>15&#45;&gt;46</title>
<path fill="none" stroke="black" d="M346.5,-240.78C302.67,-260.67 216.29,-301.11 154,-352.29 69.64,-421.62 56,-468.39 56,-577.58 56,-795.58 56,-795.58 56,-795.58 56,-923.28 18,-952.68 18,-1080.37 18,-1268.27 18,-1268.27 18,-1268.27 18,-1676.18 120.21,-1874.44 484,-2058.96 556.46,-2095.71 651.56,-2107.05 706.02,-2110.51"/>
<polygon fill="black" stroke="black" points="705.84,-2114 716.03,-2111.08 706.24,-2107.01 705.84,-2114"/>
</g>
<!-- 15&#45;&gt;42 -->
<g id="edge40" class="edge">
<title>15&#45;&gt;42</title>
<path fill="none" stroke="black" d="M382.55,-244.18C413.6,-320.97 515.7,-645.33 548,-920.58 553.53,-967.72 553.93,-980.28 548,-1027.37 540.83,-1084.27 516,-1095.03 516,-1152.37 516,-1526.16 516,-1526.16 516,-1526.16 516,-1609.9 624.67,-1645.12 694.3,-1659.28"/>
<polygon fill="black" stroke="black" points="693.78,-1662.74 704.27,-1661.22 695.12,-1655.87 693.78,-1662.74"/>
</g>
<!-- 15&#45;&gt;34 -->
<g id="edge41" class="edge">
<title>15&#45;&gt;34</title>
<path fill="none" stroke="black" d="M411.2,-237.19C420,-239.82 429.3,-242.44 438,-244.29 566,-271.59 718.27,-286.06 802.7,-292.66"/>
<polygon fill="black" stroke="black" points="802.67,-296.17 812.9,-293.45 803.2,-289.19 802.67,-296.17"/>
</g>
<!-- 46&#45;&gt;25 -->
<g id="edge115" class="edge">
<title>46&#45;&gt;25</title>
<path fill="none" stroke="black" d="M754.42,-2130.79C755.84,-2143.48 756.12,-2161.15 755.27,-2175.85"/>
<polygon fill="black" stroke="black" points="751.78,-2175.66 754.46,-2185.91 758.76,-2176.23 751.78,-2175.66"/>
</g>
<!-- 46&#45;&gt;15 -->
<g id="edge117" class="edge">
<title>46&#45;&gt;15</title>
<path fill="none" stroke="black" d="M715.68,-2111.54C660.43,-2109.72 548.53,-2100.82 466,-2058.96 102.21,-1874.44 0,-1676.18 0,-1268.27 0,-1268.27 0,-1268.27 0,-1080.37 0,-952.68 38,-923.28 38,-795.58 38,-795.58 38,-795.58 38,-577.58 38,-468.39 51.64,-421.62 136,-352.29 196.66,-302.45 280.15,-262.8 330.55,-242.39"/>
<polygon fill="black" stroke="black" points="331.87,-245.63 339.87,-238.68 329.28,-239.12 331.87,-245.63"/>
</g>
<!-- 46&#45;&gt;35 -->
<g id="edge116" class="edge">
<title>46&#45;&gt;35</title>
<path fill="none" stroke="black" d="M774.49,-2101.26C799.34,-2091.91 837.33,-2077.02 868,-2058.96 885.67,-2048.55 903.7,-2034.28 918.59,-2022.39"/>
<polygon fill="black" stroke="black" points="920.88,-2025.05 926.52,-2016.08 916.52,-2019.57 920.88,-2025.05"/>
</g>
<!-- 42&#45;&gt;57 -->
<g id="edge104" class="edge">
<title>42&#45;&gt;57</title>
<path fill="none" stroke="black" d="M745.08,-1650.86C744.29,-1643.15 744.06,-1633.88 744.4,-1625.28"/>
<polygon fill="black" stroke="black" points="747.9,-1625.49 745.1,-1615.27 740.92,-1625 747.9,-1625.49"/>
</g>
<!-- 42&#45;&gt;15 -->
<g id="edge103" class="edge">
<title>42&#45;&gt;15</title>
<path fill="none" stroke="black" d="M704.23,-1663.11C630.99,-1652.05 498,-1618.8 498,-1526.16 498,-1526.16 498,-1526.16 498,-1152.37 498,-1095.03 522.83,-1084.27 530,-1027.37 535.93,-980.28 535.53,-967.72 530,-920.58 498.96,-656.11 403.49,-346.3 379.21,-254.32"/>
<polygon fill="black" stroke="black" points="382.55,-253.25 376.67,-244.44 375.77,-254.99 382.55,-253.25"/>
</g>
<!-- 42&#45;&gt;42 -->
<g id="edge102" class="edge">
<title>42&#45;&gt;42</title>
<path fill="none" stroke="black" d="M797.67,-1682.3C807.99,-1681.07 815.5,-1676.69 815.5,-1669.16 815.5,-1664.35 812.42,-1660.82 807.49,-1658.58"/>
<polygon fill="black" stroke="black" points="808.23,-1655.15 797.67,-1656.03 806.47,-1661.93 808.23,-1655.15"/>
</g>
<!-- 65 -->
<g id="node66" class="node">
<title>65</title>
<ellipse fill="none" stroke="black" cx="756" cy="-1741.16" rx="55.79" ry="18"/>
<text text-anchor="middle" x="756" y="-1737.46" font-family="Times New Roman,serif" font-size="14.00">component8</text>
</g>
<!-- 42&#45;&gt;65 -->
<g id="edge105" class="edge">
<title>42&#45;&gt;65</title>
<path fill="none" stroke="black" d="M758.15,-1687.44C759.5,-1695.19 760.39,-1704.53 760.66,-1713.17"/>
<polygon fill="black" stroke="black" points="757.16,-1713.22 760.67,-1723.22 764.16,-1713.22 757.16,-1713.22"/>
</g>
<!-- 34&#45;&gt;47 -->
<g id="edge78" class="edge">
<title>34&#45;&gt;47</title>
<path fill="none" stroke="black" d="M892.64,-314.33C906.21,-323.68 922.65,-335.87 935.97,-346.4"/>
<polygon fill="black" stroke="black" points="933.81,-349.16 943.8,-352.7 938.2,-343.71 933.81,-349.16"/>
</g>
<!-- 34&#45;&gt;15 -->
<g id="edge79" class="edge">
<title>34&#45;&gt;15</title>
<path fill="none" stroke="black" d="M812.37,-294.24C727.42,-288.52 559.34,-274 420,-244.29 417.82,-243.83 415.59,-243.31 413.36,-242.76"/>
<polygon fill="black" stroke="black" points="414.19,-239.36 403.62,-240.15 412.38,-246.12 414.19,-239.36"/>
</g>
<!-- 34&#45;&gt;37 -->
<g id="edge80" class="edge">
<title>34&#45;&gt;37</title>
<path fill="none" stroke="black" d="M872.32,-316.59C876,-347.89 876,-415.99 876,-473.44 876,-867.58 876,-867.58 876,-867.58 876,-939.68 888.83,-967.95 848,-1027.37 830.39,-1053.01 803.32,-1036.31 788,-1063.37 780.12,-1077.3 778.36,-1086.6 788,-1099.37 802.75,-1118.91 861.03,-1133.39 906.81,-1142.23"/>
<polygon fill="black" stroke="black" points="906.19,-1145.67 916.66,-1144.08 907.49,-1138.79 906.19,-1145.67"/>
</g>
<!-- 16 -->
<g id="node46" class="node">
<title>16</title>
<ellipse fill="none" stroke="black" cx="1809" cy="-226.29" rx="50.09" ry="18"/>
<text text-anchor="middle" x="1809" y="-222.59" font-family="Times New Roman,serif" font-size="14.00">interface10</text>
</g>
<!-- 17&#45;&gt;49 -->
<g id="edge43" class="edge">
<title>17&#45;&gt;49</title>
<path fill="none" stroke="black" d="M2092.23,-1171.53C2079.22,-1190.24 2055.22,-1220.36 2036.54,-1241.61"/>
<polygon fill="black" stroke="black" points="2033.74,-1239.49 2029.68,-1249.28 2038.96,-1244.16 2033.74,-1239.49"/>
</g>
<!-- 17&#45;&gt;22 -->
<g id="edge42" class="edge">
<title>17&#45;&gt;22</title>
<path fill="none" stroke="black" d="M2093.11,-1135.07C2091.43,-1127.36 2090.14,-1118.09 2089.5,-1109.49"/>
<polygon fill="black" stroke="black" points="2093,-1109.31 2089.06,-1099.48 2086.01,-1109.62 2093,-1109.31"/>
</g>
<!-- 63&#45;&gt;18 -->
<g id="edge158" class="edge">
<title>63&#45;&gt;18</title>
<path fill="none" stroke="black" d="M2089.73,-812.54C2089.1,-820.5 2087.53,-830.17 2085.5,-839.06"/>
<polygon fill="black" stroke="black" points="2082.04,-838.44 2082.92,-848.99 2088.82,-840.19 2082.04,-838.44"/>
</g>
<!-- 63&#45;&gt;35 -->
<g id="edge159" class="edge">
<title>63&#45;&gt;35</title>
<path fill="none" stroke="black" d="M2103.22,-811.18C2163.76,-878.06 2365.13,-1145.51 2252,-1327.16 2175.29,-1450.33 2089.42,-1407.56 1959,-1471.16 1529.85,-1680.47 1337.45,-1609.57 992,-1939.16 982.46,-1948.26 975.1,-1960.84 969.07,-1972.04"/>
<polygon fill="black" stroke="black" points="965.91,-1970.54 964.31,-1981.01 972.09,-1973.82 965.91,-1970.54"/>
</g>
<!-- 28&#45;&gt;18 -->
<g id="edge71" class="edge">
<title>28&#45;&gt;18</title>
<path fill="none" stroke="black" d="M2084.83,-956.05C2080.03,-939.55 2075.16,-914.2 2072.92,-894.86"/>
<polygon fill="black" stroke="black" points="2076.4,-894.45 2071.96,-884.83 2069.43,-895.11 2076.4,-894.45"/>
</g>
<!-- 28&#45;&gt;22 -->
<g id="edge72" class="edge">
<title>28&#45;&gt;22</title>
<path fill="none" stroke="black" d="M2098.11,-991.87C2099.95,-1008.45 2100.24,-1034 2098.98,-1053.4"/>
<polygon fill="black" stroke="black" points="2095.48,-1053.18 2098.11,-1063.44 2102.46,-1053.78 2095.48,-1053.18"/>
</g>
<!-- 32&#45;&gt;19 -->
<g id="edge76" class="edge">
<title>32&#45;&gt;19</title>
<path fill="none" stroke="black" d="M312.86,-594.92C326.38,-604.35 342.68,-616.59 355.79,-627.09"/>
<polygon fill="black" stroke="black" points="353.92,-630.09 363.88,-633.7 358.35,-624.66 353.92,-630.09"/>
</g>
<!-- 32&#45;&gt;54 -->
<g id="edge73" class="edge">
<title>32&#45;&gt;54</title>
<path fill="none" stroke="black" d="M284.01,-596.59C266.32,-659.66 188,-886.48 188,-1080.37 188,-1154.37 188,-1154.37 188,-1154.37 188,-1331.74 171.11,-1401.63 278,-1543.16 389.71,-1691.09 607.61,-1768.4 705.93,-1797.84"/>
<polygon fill="black" stroke="black" points="705.04,-1801.23 715.62,-1800.71 707.02,-1794.52 705.04,-1801.23"/>
</g>
<!-- 32&#45;&gt;51 -->
<g id="edge74" class="edge">
<title>32&#45;&gt;51</title>
<path fill="none" stroke="black" d="M280.65,-560.48C273.86,-525.16 268,-441.57 268,-371.29 268,-371.29 268,-371.29 268,-297.29 268,-241.9 309.15,-190.72 344.33,-158.38"/>
<polygon fill="black" stroke="black" points="347.06,-160.64 352.19,-151.37 342.4,-155.41 347.06,-160.64"/>
</g>
<!-- 32&#45;&gt;39 -->
<g id="edge75" class="edge">
<title>32&#45;&gt;39</title>
<path fill="none" stroke="black" d="M262.71,-561.85C239.82,-544.8 206.13,-517.46 184.01,-498.1"/>
<polygon fill="black" stroke="black" points="186.23,-495.39 176.43,-491.36 181.58,-500.62 186.23,-495.39"/>
</g>
<!-- 32&#45;&gt;52 -->
<g id="edge77" class="edge">
<title>32&#45;&gt;52</title>
<path fill="none" stroke="black" d="M338.5,-569.09C460.15,-549.89 764.45,-503.29 894.08,-484.01"/>
<polygon fill="black" stroke="black" points="894.85,-487.43 904.22,-482.5 893.82,-480.51 894.85,-487.43"/>
</g>
<!-- 37&#45;&gt;48 -->
<g id="edge88" class="edge">
<title>37&#45;&gt;48</title>
<path fill="none" stroke="black" d="M1016.84,-1146.5C1087.02,-1138.57 1215.62,-1122.68 1324,-1099.37 1329.81,-1098.13 1335.88,-1096.62 1341.93,-1095.02"/>
<polygon fill="black" stroke="black" points="1343.29,-1098.27 1352.02,-1092.27 1341.45,-1091.52 1343.29,-1098.27"/>
</g>
<!-- 37&#45;&gt;19 -->
<g id="edge92" class="edge">
<title>37&#45;&gt;19</title>
<path fill="none" stroke="black" d="M912.51,-1147.15C848.98,-1139.48 747.32,-1123.42 719,-1099.37 627.4,-1021.6 677.45,-953.01 618,-848.58 578.15,-778.6 572.47,-752.85 508,-704.58 482.22,-685.29 448.56,-672.17 422,-663.82"/>
<polygon fill="black" stroke="black" points="422.78,-660.4 412.2,-660.85 420.75,-667.1 422.78,-660.4"/>
</g>
<!-- 37&#45;&gt;34 -->
<g id="edge91" class="edge">
<title>37&#45;&gt;34</title>
<path fill="none" stroke="black" d="M913.74,-1145.87C861.79,-1137.68 786.99,-1121.89 770,-1099.37 760.36,-1086.6 762.12,-1077.3 770,-1063.37 785.32,-1036.31 812.39,-1053.01 830,-1027.37 870.83,-967.95 858,-939.68 858,-867.58 858,-867.58 858,-867.58 858,-473.44 858,-421.6 858,-361.09 860.7,-326.77"/>
<polygon fill="black" stroke="black" points="864.21,-326.88 861.68,-316.59 857.24,-326.21 864.21,-326.88"/>
</g>
<!-- 37&#45;&gt;21 -->
<g id="edge89" class="edge">
<title>37&#45;&gt;21</title>
<path fill="none" stroke="black" d="M979.49,-1170.8C992.14,-1189.01 1009.64,-1218.65 1020.6,-1240.08"/>
<polygon fill="black" stroke="black" points="1017.58,-1241.85 1025.14,-1249.28 1023.85,-1238.76 1017.58,-1241.85"/>
</g>
<!-- 37&#45;&gt;52 -->
<g id="edge93" class="edge">
<title>37&#45;&gt;52</title>
<path fill="none" stroke="black" d="M956.4,-1135.49C941.06,-1091.62 914,-970.29 914,-867.58 914,-867.58 914,-867.58 914,-649.58 914,-609.2 922.18,-564.34 931.36,-530.27"/>
<polygon fill="black" stroke="black" points="934.77,-531.09 934.1,-520.51 928.03,-529.2 934.77,-531.09"/>
</g>
<!-- 38 -->
<g id="node64" class="node">
<title>38</title>
<ellipse fill="none" stroke="black" cx="1246" cy="-1081.37" rx="60.39" ry="18"/>
<text text-anchor="middle" x="1246" y="-1077.67" font-family="Times New Roman,serif" font-size="14.00">component11</text>
</g>
<!-- 37&#45;&gt;38 -->
<g id="edge90" class="edge">
<title>37&#45;&gt;38</title>
<path fill="none" stroke="black" d="M1005.63,-1140.97C1053.93,-1128.43 1134.61,-1108.31 1189.09,-1095.22"/>
<polygon fill="black" stroke="black" points="1190.03,-1098.59 1198.94,-1092.86 1188.4,-1091.78 1190.03,-1098.59"/>
</g>
<!-- 21&#45;&gt;69 -->
<g id="edge52" class="edge">
<title>21&#45;&gt;69</title>
<path fill="none" stroke="black" d="M1062.44,-1279.16C1117.16,-1299.06 1226.98,-1341.35 1283.99,-1364.39"/>
<polygon fill="black" stroke="black" points="1282.75,-1367.67 1293.34,-1368.19 1285.39,-1361.18 1282.75,-1367.67"/>
</g>
<!-- 21&#45;&gt;37 -->
<g id="edge54" class="edge">
<title>21&#45;&gt;37</title>
<path fill="none" stroke="black" d="M1015.79,-1250.24C1003.15,-1232.11 985.53,-1202.3 974.48,-1180.74"/>
<polygon fill="black" stroke="black" points="977.48,-1178.9 969.91,-1171.48 971.2,-1181.99 977.48,-1178.9"/>
</g>
<!-- 21&#45;&gt;35 -->
<g id="edge53" class="edge">
<title>21&#45;&gt;35</title>
<path fill="none" stroke="black" d="M1021.61,-1285.37C1001.72,-1316.55 956,-1385.61 956,-1452.16 956,-1814.16 956,-1814.16 956,-1814.16 956,-1869.73 957.85,-1934.72 956.21,-1970.65"/>
<polygon fill="black" stroke="black" points="952.7,-1970.63 955.58,-1980.82 959.69,-1971.06 952.7,-1970.63"/>
</g>
<!-- 35&#45;&gt;60 -->
<g id="edge82" class="edge">
<title>35&#45;&gt;60</title>
<path fill="none" stroke="black" d="M924.93,-1982.19C908.61,-1969.97 887.45,-1952.9 868,-1939.16 852,-1927.87 833.63,-1916.25 818.83,-1906.78"/>
<polygon fill="black" stroke="black" points="820.44,-1903.66 810.14,-1901.19 816.65,-1909.54 820.44,-1903.66"/>
</g>
<!-- 35&#45;&gt;46 -->
<g id="edge81" class="edge">
<title>35&#45;&gt;46</title>
<path fill="none" stroke="black" d="M940,-2017.12C927.24,-2029.82 906.37,-2046.95 886,-2058.96 855.04,-2077.19 816.63,-2092.19 788.21,-2101.52"/>
<polygon fill="black" stroke="black" points="787.07,-2098.21 778.61,-2104.58 789.2,-2104.88 787.07,-2098.21"/>
</g>
<!-- 35&#45;&gt;63 -->
<g id="edge83" class="edge">
<title>35&#45;&gt;63</title>
<path fill="none" stroke="black" d="M949.58,-1981.01C953.15,-1968.16 961.79,-1950.81 974,-1939.16 1319.45,-1609.57 1511.85,-1680.47 1941,-1471.16 2071.42,-1407.56 2157.29,-1450.33 2234,-1327.16 2342.44,-1153.04 2161.91,-900.08 2103.85,-820.51"/>
<polygon fill="black" stroke="black" points="2106.43,-818.1 2097.7,-812.09 2100.77,-822.23 2106.43,-818.1"/>
</g>
<!-- 35&#45;&gt;21 -->
<g id="edge84" class="edge">
<title>35&#45;&gt;21</title>
<path fill="none" stroke="black" d="M945.17,-1980.82C940.25,-1948.26 938,-1875.48 938,-1814.16 938,-1814.16 938,-1814.16 938,-1452.16 938,-1389.84 978.09,-1325.32 1005.57,-1291.76"/>
<polygon fill="black" stroke="black" points="1008.43,-1293.8 1012.25,-1283.92 1003.1,-1289.26 1008.43,-1293.8"/>
</g>
<!-- 23 -->
<g id="node54" class="node">
<title>23</title>
<ellipse fill="none" stroke="red" cx="1960" cy="-2204.1" rx="37.89" ry="18"/>
<text text-anchor="middle" x="1960" y="-2200.4" font-family="Times New Roman,serif" font-size="14.00">node11</text>
</g>
<!-- 23&#45;&gt;18 -->
<g id="edge58" class="edge">
<title>23&#45;&gt;18</title>
<path fill="none" stroke="black" d="M1977.48,-2187.98C2059.13,-2115.54 2399,-1793.65 2399,-1454.16 2399,-1454.16 2399,-1454.16 2399,-1152.37 2399,-1028.2 2342.52,-994.86 2243,-920.58 2205.54,-892.63 2152.99,-879.19 2116.47,-872.88"/>
<polygon fill="black" stroke="black" points="2116.58,-869.35 2106.15,-871.21 2115.47,-876.26 2116.58,-869.35"/>
</g>
<!-- 23&#45;&gt;2 -->
<g id="edge59" class="edge">
<title>23&#45;&gt;2</title>
<path fill="none" stroke="black" d="M1956.34,-2185.91C1953.63,-2173.21 1949.89,-2155.66 1946.78,-2141.08"/>
<polygon fill="black" stroke="black" points="1950.16,-2140.14 1944.65,-2131.09 1943.31,-2141.6 1950.16,-2140.14"/>
</g>
<!-- 24 -->
<g id="node55" class="node">
<title>24</title>
<ellipse fill="none" stroke="red" cx="1268" cy="-1525.16" rx="95.58" ry="18"/>
<text text-anchor="middle" x="1268" y="-1521.46" font-family="Times New Roman,serif" font-size="14.00">executionEnvironment0</text>
</g>
<!-- 24&#45;&gt;72 -->
<g id="edge63" class="edge">
<title>24&#45;&gt;72</title>
<path fill="none" stroke="black" d="M1337.28,-1512.72C1366.46,-1505.01 1399.11,-1492.23 1423,-1471.16 1520.88,-1384.84 1464.86,-1304.53 1552,-1207.37 1614.04,-1138.21 1653.14,-1150.07 1731,-1099.37 1775.4,-1070.47 1790.34,-1066.55 1826,-1027.37 1882.24,-965.59 1925,-951.13 1925,-867.58 1925,-867.58 1925,-867.58 1925,-225.29 1925,-160.05 1906.39,-85.09 1895.22,-45.97"/>
<polygon fill="black" stroke="black" points="1898.45,-44.54 1892.28,-35.92 1891.73,-46.5 1898.45,-44.54"/>
</g>
<!-- 24&#45;&gt;45 -->
<g id="edge65" class="edge">
<title>24&#45;&gt;45</title>
<path fill="none" stroke="black" d="M1273.69,-1506.86C1276.25,-1499.06 1279.33,-1489.67 1282.18,-1480.99"/>
<polygon fill="black" stroke="black" points="1285.58,-1481.86 1285.38,-1471.27 1278.93,-1479.68 1285.58,-1481.86"/>
</g>
<!-- 24&#45;&gt;48 -->
<g id="edge62" class="edge">
<title>24&#45;&gt;48</title>
<path fill="none" stroke="black" d="M1337.48,-1512.69C1361.37,-1505.06 1385.68,-1492.34 1400,-1471.16 1477.51,-1356.52 1425.77,-1176.21 1402.06,-1108.89"/>
<polygon fill="black" stroke="black" points="1405.34,-1107.66 1398.66,-1099.44 1398.76,-1110.03 1405.34,-1107.66"/>
</g>
<!-- 24&#45;&gt;14 -->
<g id="edge64" class="edge">
<title>24&#45;&gt;14</title>
<path fill="none" stroke="black" d="M1336.25,-1512.49C1348.47,-1510.58 1361.1,-1508.72 1373,-1507.16 1533.32,-1486.23 1574.6,-1491.52 1735,-1471.16 1744.78,-1469.92 1755.02,-1468.5 1765.17,-1467.02"/>
<polygon fill="black" stroke="black" points="1765.87,-1470.46 1775.25,-1465.53 1764.85,-1463.53 1765.87,-1470.46"/>
</g>
<!-- 24&#45;&gt;16 -->
<g id="edge60" class="edge">
<title>24&#45;&gt;16</title>
<path fill="none" stroke="black" d="M1337.74,-1512.79C1349.51,-1510.89 1361.6,-1508.96 1373,-1507.16 1477.38,-1490.72 1504.64,-1493.1 1608,-1471.16 1667.48,-1458.54 1681.27,-1450.95 1740,-1435.16 1907.91,-1390.04 1978.61,-1433.72 2116,-1327.16 2179.9,-1277.6 2188.32,-1249.28 2210,-1171.37 2240.66,-1061.21 2341.73,-1309.77 2134,-776.58 2111.82,-719.64 1886.51,-352.91 1824.64,-252.61"/>
<polygon fill="black" stroke="black" points="1827.57,-250.69 1819.34,-244.02 1821.61,-254.36 1827.57,-250.69"/>
</g>
<!-- 24&#45;&gt;21 -->
<g id="edge61" class="edge">
<title>24&#45;&gt;21</title>
<path fill="none" stroke="black" d="M1235.79,-1508.12C1218.74,-1498.72 1198.06,-1485.83 1182,-1471.16 1121.85,-1416.23 1069.22,-1334.68 1044.68,-1293.71"/>
<polygon fill="black" stroke="black" points="1047.58,-1291.72 1039.47,-1284.9 1041.55,-1295.29 1047.58,-1291.72"/>
</g>
<!-- 59&#45;&gt;26 -->
<g id="edge148" class="edge">
<title>59&#45;&gt;26</title>
<path fill="none" stroke="black" d="M803.58,-870.54C885.91,-877.51 1072.1,-896.21 1130,-920.58 1145.99,-927.32 1161.59,-938.62 1173.07,-949.01"/>
<polygon fill="black" stroke="black" points="1170.68,-951.58 1180.31,-955.99 1175.54,-946.53 1170.68,-951.58"/>
</g>
<!-- 59&#45;&gt;57 -->
<g id="edge149" class="edge">
<title>59&#45;&gt;57</title>
<path fill="none" stroke="black" d="M751,-883.68C713.51,-924.32 610,-1036.16 610,-1152.37 610,-1454.16 610,-1454.16 610,-1454.16 610,-1511.63 668.77,-1552.79 710.53,-1575.54"/>
<polygon fill="black" stroke="black" points="708.94,-1578.66 719.42,-1580.25 712.22,-1572.48 708.94,-1578.66"/>
</g>
<!-- 54&#45;&gt;60 -->
<g id="edge135" class="edge">
<title>54&#45;&gt;60</title>
<path fill="none" stroke="black" d="M770.39,-1830.79C775.37,-1838.78 780.64,-1848.55 784.88,-1857.54"/>
<polygon fill="black" stroke="black" points="781.76,-1859.14 789.02,-1866.86 788.16,-1856.3 781.76,-1859.14"/>
</g>
<!-- 54&#45;&gt;44 -->
<g id="edge138" class="edge">
<title>54&#45;&gt;44</title>
<path fill="none" stroke="black" d="M780.92,-1796.96C817.83,-1774.95 882,-1730.2 882,-1670.16 882,-1670.16 882,-1670.16 882,-1452.16 882,-1336.7 882.72,-1284.11 969,-1207.37 1130.13,-1064.08 1300.76,-1262.31 1442,-1099.37 1530.74,-997.01 1467,-931.06 1467,-795.58 1467,-795.58 1467,-795.58 1467,-473.44 1467,-421.6 1467,-361.09 1469.7,-326.77"/>
<polygon fill="black" stroke="black" points="1473.21,-326.88 1470.68,-316.59 1466.24,-326.21 1473.21,-326.88"/>
</g>
<!-- 54&#45;&gt;32 -->
<g id="edge136" class="edge">
<title>54&#45;&gt;32</title>
<path fill="none" stroke="black" d="M711.62,-1802.19C613.4,-1776.53 377.73,-1699.06 260,-1543.16 153.11,-1401.63 170,-1331.74 170,-1154.37 170,-1154.37 170,-1154.37 170,-1080.37 170,-895.19 241.44,-679.97 272.95,-606.07"/>
<polygon fill="black" stroke="black" points="276.3,-607.16 277.13,-596.59 269.89,-604.34 276.3,-607.16"/>
</g>
<!-- 54&#45;&gt;54 -->
<g id="edge137" class="edge">
<title>54&#45;&gt;54</title>
<path fill="none" stroke="black" d="M794.4,-1826.3C813.21,-1828.02 829.9,-1823.64 829.9,-1813.16 829.9,-1804.65 818.88,-1800.17 804.66,-1799.7"/>
<polygon fill="black" stroke="black" points="804.28,-1796.21 794.4,-1800.03 804.5,-1803.21 804.28,-1796.21"/>
</g>
<!-- 54&#45;&gt;65 -->
<g id="edge139" class="edge">
<title>54&#45;&gt;65</title>
<path fill="none" stroke="black" d="M750.12,-1795.22C749.3,-1787.51 749.06,-1778.19 749.39,-1769.53"/>
<polygon fill="black" stroke="black" points="752.89,-1769.66 750.09,-1759.44 745.91,-1769.18 752.89,-1769.66"/>
</g>
<!-- 51&#45;&gt;41 -->
<g id="edge129" class="edge">
<title>51&#45;&gt;41</title>
<path fill="none" stroke="black" d="M431.14,-155.32C446.39,-170.04 463.2,-187.2 475.68,-200.84"/>
<polygon fill="black" stroke="black" points="473.2,-203.32 482.49,-208.42 478.41,-198.64 473.2,-203.32"/>
</g>
<!-- 51&#45;&gt;32 -->
<g id="edge130" class="edge">
<title>51&#45;&gt;32</title>
<path fill="none" stroke="black" d="M358.24,-158.68C326.89,-191.03 286,-242.07 286,-297.29 286,-371.29 286,-371.29 286,-371.29 286,-435.53 290.9,-510.89 290.75,-550.34"/>
<polygon fill="black" stroke="black" points="287.25,-550.42 290.57,-560.48 294.25,-550.55 287.25,-550.42"/>
</g>
<!-- 51&#45;&gt;51 -->
<g id="edge131" class="edge">
<title>51&#45;&gt;51</title>
<path fill="none" stroke="black" d="M439.5,-141.47C451.82,-140.37 461.15,-133.93 461.15,-122.15 461.15,-113.86 456.53,-108.22 449.52,-105.21"/>
<polygon fill="black" stroke="black" points="450.04,-101.74 439.5,-102.82 448.41,-108.55 450.04,-101.74"/>
</g>
<!-- 39&#45;&gt;45 -->
<g id="edge97" class="edge">
<title>39&#45;&gt;45</title>
<path fill="none" stroke="black" d="M165.67,-492.72C166.51,-523.99 161,-592.05 161,-649.58 161,-723.58 161,-723.58 161,-723.58 161,-850.48 300,-846.08 300,-972.98 300,-1082.37 300,-1082.37 300,-1082.37 300,-1276.26 969.65,-1400.45 1208.04,-1439.18"/>
<polygon fill="black" stroke="black" points="1207.61,-1442.66 1218.04,-1440.8 1208.73,-1435.75 1207.61,-1442.66"/>
</g>
<!-- 39&#45;&gt;32 -->
<g id="edge96" class="edge">
<title>39&#45;&gt;32</title>
<path fill="none" stroke="black" d="M184.39,-489.76C207.03,-506.49 241.51,-534.42 264.26,-554.29"/>
<polygon fill="black" stroke="black" points="261.97,-556.94 271.78,-560.94 266.61,-551.69 261.97,-556.94"/>
</g>
<!-- 52&#45;&gt;47 -->
<g id="edge132" class="edge">
<title>52&#45;&gt;47</title>
<path fill="none" stroke="black" d="M950.15,-424.16C950.63,-415.32 951.39,-406.41 952.36,-398.49"/>
<polygon fill="black" stroke="black" points="955.85,-398.79 953.8,-388.4 948.92,-397.8 955.85,-398.79"/>
</g>
<!-- 52&#45;&gt;32 -->
<g id="edge133" class="edge">
<title>52&#45;&gt;32</title>
<path fill="none" stroke="black" d="M904.28,-483.65C784.87,-502.51 482.45,-548.83 350.32,-568.51"/>
<polygon fill="black" stroke="black" points="349.72,-565.06 340.34,-569.99 350.75,-571.98 349.72,-565.06"/>
</g>
<!-- 52&#45;&gt;37 -->
<g id="edge134" class="edge">
<title>52&#45;&gt;37</title>
<path fill="none" stroke="black" d="M948.05,-524.57C941.14,-559.23 932,-606.9 932,-649.58 932,-867.58 932,-867.58 932,-867.58 932,-963.03 955.38,-1074.57 963.51,-1125.07"/>
<polygon fill="black" stroke="black" points="960.08,-1125.81 965.04,-1135.17 967,-1124.76 960.08,-1125.81"/>
</g>
<!-- 33 -->
<g id="node61" class="node">
<title>33</title>
<ellipse fill="none" stroke="black" cx="455" cy="-866.58" rx="33.29" ry="18"/>
<text text-anchor="middle" x="455" y="-862.88" font-family="Times New Roman,serif" font-size="14.00">node8</text>
</g>
<!-- 36 -->
<g id="node62" class="node">
<title>36</title>
<ellipse fill="none" stroke="red" cx="1775" cy="-298.29" rx="46.29" ry="18"/>
<text text-anchor="middle" x="1775" y="-294.59" font-family="Times New Roman,serif" font-size="14.00">interface3</text>
</g>
<!-- 36&#45;&gt;8 -->
<g id="edge85" class="edge">
<title>36&#45;&gt;8</title>
<path fill="none" stroke="black" d="M1750.96,-282.79C1733.66,-272.35 1710.14,-258.15 1691.21,-246.73"/>
<polygon fill="black" stroke="black" points="1692.98,-243.71 1682.61,-241.54 1689.36,-249.7 1692.98,-243.71"/>
</g>
<!-- 36&#45;&gt;16 -->
<g id="edge86" class="edge">
<title>36&#45;&gt;16</title>
<path fill="none" stroke="black" d="M1783.23,-280.35C1787.2,-272.18 1792.04,-262.2 1796.46,-253.12"/>
<polygon fill="black" stroke="black" points="1799.62,-254.61 1800.85,-244.08 1793.33,-251.55 1799.62,-254.61"/>
</g>
<!-- 36&#45;&gt;43 -->
<g id="edge87" class="edge">
<title>36&#45;&gt;43</title>
<path fill="none" stroke="black" d="M1765.62,-280.6C1760.27,-270.4 1753.89,-256.93 1750,-244.29 1740.36,-212.92 1735.44,-175.39 1733.05,-150.5"/>
<polygon fill="black" stroke="black" points="1736.52,-150 1732.15,-140.35 1729.55,-150.62 1736.52,-150"/>
</g>
<!-- 43&#45;&gt;50 -->
<g id="edge107" class="edge">
<title>43&#45;&gt;50</title>
<path fill="none" stroke="black" d="M1704.14,-135.76C1661.05,-154.08 1576.34,-188.08 1523.08,-208.5"/>
<polygon fill="black" stroke="black" points="1521.61,-205.31 1513.52,-212.15 1524.11,-211.85 1521.61,-205.31"/>
</g>
<!-- 43&#45;&gt;72 -->
<g id="edge106" class="edge">
<title>43&#45;&gt;72</title>
<path fill="none" stroke="black" d="M1749.37,-105.85C1775.18,-87.49 1822.06,-56.72 1853.95,-37.16"/>
<polygon fill="black" stroke="black" points="1855.79,-40.14 1862.52,-31.96 1852.16,-34.16 1855.79,-40.14"/>
</g>
<!-- 38&#45;&gt;37 -->
<g id="edge95" class="edge">
<title>38&#45;&gt;37</title>
<path fill="none" stroke="black" d="M1203.3,-1094.31C1154.09,-1107.07 1073.29,-1127.21 1019.57,-1140.1"/>
<polygon fill="black" stroke="black" points="1018.45,-1136.77 1009.54,-1142.49 1020.08,-1143.57 1018.45,-1136.77"/>
</g>
<!-- 38&#45;&gt;38 -->
<g id="edge94" class="edge">
<title>38&#45;&gt;38</title>
<path fill="none" stroke="black" d="M1287.57,-1094.58C1307.2,-1096.11 1324.44,-1091.71 1324.44,-1081.37 1324.44,-1072.9 1312.84,-1068.41 1297.83,-1067.92"/>
<polygon fill="black" stroke="black" points="1297.48,-1064.43 1287.57,-1068.17 1297.65,-1071.43 1297.48,-1064.43"/>
</g>
<!-- 40 -->
<g id="node65" class="node">
<title>40</title>
<ellipse fill="none" stroke="red" cx="399" cy="-973.98" rx="33.29" ry="18"/>
<text text-anchor="middle" x="399" y="-970.28" font-family="Times New Roman,serif" font-size="14.00">node1</text>
</g>
<!-- 40&#45;&gt;29 -->
<g id="edge98" class="edge">
<title>40&#45;&gt;29</title>
<path fill="none" stroke="black" d="M393.7,-956.05C388.48,-939.37 380.43,-913.66 374.35,-894.24"/>
<polygon fill="black" stroke="black" points="377.62,-892.97 371.29,-884.48 370.94,-895.06 377.62,-892.97"/>
</g>
<!-- 40&#45;&gt;33 -->
<g id="edge99" class="edge">
<title>40&#45;&gt;33</title>
<path fill="none" stroke="black" d="M407.75,-956.51C416.74,-939.59 430.86,-913.02 441.32,-893.33"/>
<polygon fill="black" stroke="black" points="444.53,-894.76 446.13,-884.28 438.34,-891.47 444.53,-894.76"/>
</g>
<!-- 65&#45;&gt;42 -->
<g id="edge163" class="edge">
<title>65&#45;&gt;42</title>
<path fill="none" stroke="black" d="M748.91,-1723.22C747.54,-1715.51 746.63,-1706.19 746.35,-1697.53"/>
<polygon fill="black" stroke="black" points="749.85,-1697.43 746.32,-1687.44 742.85,-1697.45 749.85,-1697.43"/>
</g>
<!-- 65&#45;&gt;54 -->
<g id="edge164" class="edge">
<title>65&#45;&gt;54</title>
<path fill="none" stroke="black" d="M761.91,-1759.44C762.71,-1767.19 762.94,-1776.53 762.59,-1785.17"/>
<polygon fill="black" stroke="black" points="759.09,-1785 761.88,-1795.22 766.08,-1785.49 759.09,-1785"/>
</g>
<!-- 56 -->
<g id="node67" class="node">
<title>56</title>
<ellipse fill="none" stroke="red" cx="896" cy="-2295.25" rx="44.39" ry="18"/>
<text text-anchor="middle" x="896" y="-2291.55" font-family="Times New Roman,serif" font-size="14.00">artifact11</text>
</g>
<!-- 56&#45;&gt;25 -->
<g id="edge140" class="edge">
<title>56&#45;&gt;25</title>
<path fill="none" stroke="black" d="M872.38,-2279.93C847.74,-2264.98 808.92,-2241.44 781.42,-2224.76"/>
<polygon fill="black" stroke="black" points="782.92,-2221.58 772.56,-2219.39 779.3,-2227.57 782.92,-2221.58"/>
</g>
<!-- 56&#45;&gt;31 -->
<g id="edge141" class="edge">
<title>56&#45;&gt;31</title>
<path fill="none" stroke="black" d="M891.13,-2277.32C879.57,-2239.88 847.19,-2149.08 791,-2094.96 759.65,-2064.76 492.51,-1945.98 393.08,-1902.35"/>
<polygon fill="black" stroke="black" points="394.28,-1899.06 383.72,-1898.25 391.47,-1905.47 394.28,-1899.06"/>
</g>
<!-- 56&#45;&gt;49 -->
<g id="edge143" class="edge">
<title>56&#45;&gt;49</title>
<path fill="none" stroke="black" d="M937.43,-2288.83C968.39,-2284.99 1011.77,-2280.04 1050,-2277.25 1105.94,-2273.17 2020.05,-2281.61 2059,-2241.25 2104.15,-2194.46 2060.07,-2159.97 2059,-2094.96 2055.89,-1906.08 2045,-1859.06 2045,-1670.16 2045,-1670.16 2045,-1670.16 2045,-1524.16 2045,-1440.18 2026.78,-1342.02 2017.02,-1295.45"/>
<polygon fill="black" stroke="black" points="2020.41,-1294.59 2014.9,-1285.54 2013.56,-1296.05 2020.41,-1294.59"/>
</g>
<!-- 56&#45;&gt;57 -->
<g id="edge142" class="edge">
<title>56&#45;&gt;57</title>
<path fill="none" stroke="black" d="M896,-2277.1C896,-2245.05 896,-2173.9 896,-2113.96 896,-2113.96 896,-2113.96 896,-1998.06 896,-1840.69 910.66,-1783.18 825,-1651.16 816.75,-1638.46 804.3,-1627.83 791.96,-1619.51"/>
<polygon fill="black" stroke="black" points="793.8,-1616.54 783.48,-1614.13 790.04,-1622.44 793.8,-1616.54"/>
</g>
<!-- 61 -->
<g id="node68" class="node">
<title>61</title>
<ellipse fill="none" stroke="red" cx="738" cy="-2295.25" rx="95.58" ry="18"/>
<text text-anchor="middle" x="738" y="-2291.55" font-family="Times New Roman,serif" font-size="14.00">executionEnvironment5</text>
</g>
<!-- 61&#45;&gt;25 -->
<g id="edge153" class="edge">
<title>61&#45;&gt;25</title>
<path fill="none" stroke="black" d="M740.12,-2277.06C741.69,-2264.36 743.85,-2246.81 745.65,-2232.22"/>
<polygon fill="black" stroke="black" points="749.13,-2232.59 746.89,-2222.24 742.19,-2231.73 749.13,-2232.59"/>
</g>
<!-- 61&#45;&gt;18 -->
<g id="edge154" class="edge">
<title>61&#45;&gt;18</title>
<path fill="none" stroke="black" d="M804.21,-2282.19C817.04,-2280.24 830.41,-2278.46 843,-2277.25 907.4,-2271.07 1961.96,-2287.7 2007,-2241.25 2084.2,-2161.62 2007,-1853.07 2007,-1742.16 2007,-1742.16 2007,-1742.16 2007,-1524.16 2007,-1425.77 1932.65,-1421.88 1906,-1327.16 1891.58,-1275.91 1899.56,-1260.22 1906,-1207.37 1909.97,-1174.79 1956.96,-946.58 1977,-920.58 1991.87,-901.3 2015.83,-888.11 2036.22,-879.71"/>
<polygon fill="black" stroke="black" points="2037.53,-882.96 2045.59,-876.08 2035,-876.43 2037.53,-882.96"/>
</g>
<!-- 61&#45;&gt;30 -->
<g id="edge156" class="edge">
<title>61&#45;&gt;30</title>
<path fill="none" stroke="black" d="M672.08,-2282.11C547.09,-2257.2 288,-2195.7 288,-2113.96 288,-2113.96 288,-2113.96 288,-1668.16 288,-1566.71 410.04,-1617.58 479,-1543.16 642.68,-1366.55 751.28,-1088.62 782.63,-1001.8"/>
<polygon fill="black" stroke="black" points="786,-1002.77 786.07,-992.18 779.41,-1000.42 786,-1002.77"/>
</g>
<!-- 61&#45;&gt;69 -->
<g id="edge152" class="edge">
<title>61&#45;&gt;69</title>
<path fill="none" stroke="black" d="M758.46,-2277.58C802.92,-2240.81 910.49,-2148.87 987,-2058.96 1105.38,-1919.84 1094.37,-1851.86 1224,-1723.16 1323.48,-1624.4 1418.05,-1667.39 1483,-1543.16 1517.21,-1477.72 1416.06,-1422.52 1357.9,-1397.13"/>
<polygon fill="black" stroke="black" points="1359.19,-1393.87 1348.62,-1393.17 1356.44,-1400.31 1359.19,-1393.87"/>
</g>
<!-- 61&#45;&gt;11 -->
<g id="edge155" class="edge">
<title>61&#45;&gt;11</title>
<path fill="none" stroke="black" d="M642.34,-2294.34C556.26,-2291.58 427.62,-2280.32 323,-2241.25 227.43,-2205.56 132,-2215.97 132,-2113.96 132,-2113.96 132,-2113.96 132,-1080.37 132,-930.46 281.24,-798.03 347.71,-746.48"/>
<polygon fill="black" stroke="black" points="349.95,-749.17 355.76,-740.32 345.69,-743.61 349.95,-749.17"/>
</g>
<!-- 64 -->
<g id="node69" class="node">
<title>64</title>
<ellipse fill="none" stroke="red" cx="490" cy="-973.98" rx="40.09" ry="18"/>
<text text-anchor="middle" x="490" y="-970.28" font-family="Times New Roman,serif" font-size="14.00">artifact8</text>
</g>
<!-- 64&#45;&gt;41 -->
<g id="edge160" class="edge">
<title>64&#45;&gt;41</title>
<path fill="none" stroke="black" d="M496.66,-956.17C505.55,-930.74 517.91,-881.94 497,-848.58 438.51,-755.28 348.69,-821.51 274,-740.58 217.18,-679.02 186.94,-638.4 218,-560.58 273.51,-421.52 364.3,-439.07 450,-316.29 463.8,-296.52 475.65,-271.79 483.57,-253.42"/>
<polygon fill="black" stroke="black" points="486.8,-254.77 487.44,-244.19 480.34,-252.06 486.8,-254.77"/>
</g>
<!-- 64&#45;&gt;62 -->
<g id="edge161" class="edge">
<title>64&#45;&gt;62</title>
<path fill="none" stroke="black" d="M524.9,-964.88C573.86,-953.73 665.83,-933.56 745,-920.58 874.47,-899.36 907.82,-900.9 1038,-884.58 1052.97,-882.71 1068.88,-880.69 1084.3,-878.73"/>
<polygon fill="black" stroke="black" points="1084.87,-882.18 1094.35,-877.45 1083.99,-875.24 1084.87,-882.18"/>
</g>
<!-- 64&#45;&gt;33 -->
<g id="edge162" class="edge">
<title>64&#45;&gt;33</title>
<path fill="none" stroke="black" d="M484.38,-956.05C478.81,-939.3 470.22,-913.42 463.76,-893.98"/>
<polygon fill="black" stroke="black" points="467.08,-892.86 460.61,-884.48 460.44,-895.07 467.08,-892.86"/>
</g>
<!-- 66 -->
<g id="node70" class="node">
<title>66</title>
<ellipse fill="none" stroke="red" cx="2026" cy="-2295.25" rx="95.58" ry="18"/>
<text text-anchor="middle" x="2026" y="-2291.55" font-family="Times New Roman,serif" font-size="14.00">executionEnvironment3</text>
</g>
<!-- 66&#45;&gt;25 -->
<g id="edge165" class="edge">
<title>66&#45;&gt;25</title>
<path fill="none" stroke="black" d="M1935.84,-2289.14C1781.98,-2280.29 1458.89,-2261.14 1186,-2241.25 1046.57,-2231.08 882.3,-2216.9 800.58,-2209.7"/>
<polygon fill="black" stroke="black" points="800.82,-2206.2 790.55,-2208.81 800.21,-2213.18 800.82,-2206.2"/>
</g>
<!-- 66&#45;&gt;72 -->
<g id="edge167" class="edge">
<title>66&#45;&gt;72</title>
<path fill="none" stroke="black" d="M2120.55,-2292.66C2241.91,-2285.03 2437,-2251.38 2437,-2113.96 2437,-2113.96 2437,-2113.96 2437,-225.29 2437,-137.1 2388.24,-114.56 2311,-72 2247.29,-36.9 2032.38,-24.47 1935.31,-20.58"/>
<polygon fill="black" stroke="black" points="1935.31,-17.08 1925.18,-20.19 1935.03,-24.07 1935.31,-17.08"/>
</g>
<!-- 66&#45;&gt;49 -->
<g id="edge169" class="edge">
<title>66&#45;&gt;49</title>
<path fill="none" stroke="black" d="M2059.3,-2278.34C2073.67,-2269.58 2089,-2257.2 2097,-2241.25 2126.14,-2183.13 2098.87,-2159.95 2097,-2094.96 2088.55,-1801.35 2108.34,-1724.72 2059,-1435.16 2050.41,-1384.75 2032.13,-1327.86 2020.77,-1295.22"/>
<polygon fill="black" stroke="black" points="2023.97,-1293.78 2017.35,-1285.51 2017.37,-1296.11 2023.97,-1293.78"/>
</g>
<!-- 66&#45;&gt;14 -->
<g id="edge168" class="edge">
<title>66&#45;&gt;14</title>
<path fill="none" stroke="black" d="M1973.71,-2280.15C1952.24,-2271.97 1928.77,-2259.55 1913,-2241.25 1874.46,-2196.52 1875,-2173 1875,-2113.96 1875,-2113.96 1875,-2113.96 1875,-1596.16 1875,-1555.32 1862.97,-1509.27 1854.15,-1480.98"/>
<polygon fill="black" stroke="black" points="1857.46,-1479.85 1851.07,-1471.41 1850.8,-1482 1857.46,-1479.85"/>
</g>
<!-- 66&#45;&gt;17 -->
<g id="edge170" class="edge">
<title>66&#45;&gt;17</title>
<path fill="none" stroke="black" d="M2092.71,-2282.22C2176.38,-2262.85 2309,-2216.05 2309,-2113.96 2309,-2113.96 2309,-2113.96 2309,-1524.16 2309,-1369.87 2261.33,-1329.47 2167,-1207.37 2158.19,-1195.98 2146.46,-1185.54 2135.32,-1176.99"/>
<polygon fill="black" stroke="black" points="2137.11,-1173.96 2126.98,-1170.84 2132.96,-1179.6 2137.11,-1173.96"/>
</g>
<!-- 66&#45;&gt;21 -->
<g id="edge166" class="edge">
<title>66&#45;&gt;21</title>
<path fill="none" stroke="black" d="M1930.84,-2293.35C1713.65,-2288.72 1200,-2262.11 1200,-2113.96 1200,-2113.96 1200,-2113.96 1200,-1812.16 1200,-1757.83 1074.79,-1396.15 1039.28,-1294.69"/>
<polygon fill="black" stroke="black" points="1042.56,-1293.46 1035.95,-1285.18 1035.95,-1295.78 1042.56,-1293.46"/>
</g>
<!-- 68 -->
<g id="node71" class="node">
<title>68</title>
<ellipse fill="none" stroke="red" cx="1621" cy="-1267.27" rx="55.8" ry="55.8"/>
<ellipse fill="none" stroke="red" cx="1621" cy="-1267.27" rx="59.79" ry="59.79"/>
<text text-anchor="middle" x="1621" y="-1263.57" font-family="Times New Roman,serif" font-size="14.00">component7</text>
</g>
<!-- 68&#45;&gt;3 -->
<g id="edge174" class="edge">
<title>68&#45;&gt;3</title>
<path fill="none" stroke="black" d="M1667.16,-1228.65C1676.29,-1221.47 1685.88,-1214.09 1695,-1207.37 1709.74,-1196.52 1726.48,-1185.04 1740.67,-1175.55"/>
<polygon fill="black" stroke="black" points="1742.74,-1178.38 1749.13,-1169.92 1738.86,-1172.55 1742.74,-1178.38"/>
</g>
<!-- 68&#45;&gt;12 -->
<g id="edge173" class="edge">
<title>68&#45;&gt;12</title>
<path fill="none" stroke="black" d="M1562.1,-1255.48C1408.35,-1226.73 1004.18,-1147.23 967,-1099.37 942.53,-1067.88 974.42,-948.35 990.61,-894.35"/>
<polygon fill="black" stroke="black" points="993.96,-895.35 993.53,-884.76 987.27,-893.31 993.96,-895.35"/>
</g>
<!-- 68&#45;&gt;44 -->
<g id="edge175" class="edge">
<title>68&#45;&gt;44</title>
<path fill="none" stroke="black" d="M1629.57,-1207.86C1635.91,-1182.8 1646.92,-1154.86 1666,-1135.37 1698.47,-1102.22 1723.07,-1121.23 1764,-1099.37 1811.99,-1073.75 1834.77,-1073.88 1863,-1027.37 1900.26,-965.98 1887,-939.4 1887,-867.58 1887,-867.58 1887,-867.58 1887,-793.58 1887,-685.82 1773,-687.35 1773,-579.58 1773,-579.58 1773,-579.58 1773,-473.44 1773,-406.89 1741.86,-386.86 1685,-352.29 1640.49,-325.23 1582.61,-311.93 1539.05,-305.42"/>
<polygon fill="black" stroke="black" points="1539.54,-301.96 1529.15,-304.02 1538.56,-308.89 1539.54,-301.96"/>
</g>
<!-- 68&#45;&gt;28 -->
<g id="edge176" class="edge">
<title>68&#45;&gt;28</title>
<path fill="none" stroke="black" d="M1643.82,-1211.84C1657.59,-1185.16 1677.63,-1154.69 1704,-1135.37 1754.44,-1098.43 1781.44,-1121.28 1840,-1099.37 1921.45,-1068.92 2011.69,-1020.82 2059.3,-994.24"/>
<polygon fill="black" stroke="black" points="2061.23,-997.17 2068.24,-989.22 2057.81,-991.07 2061.23,-997.17"/>
</g>
<!-- 70 -->
<g id="node72" class="node">
<title>70</title>
<ellipse fill="none" stroke="red" cx="1072" cy="-1081.37" rx="95.58" ry="18"/>
<text text-anchor="middle" x="1072" y="-1077.67" font-family="Times New Roman,serif" font-size="14.00">executionEnvironment1</text>
</g>
<!-- 70&#45;&gt;72 -->
<g id="edge183" class="edge">
<title>70&#45;&gt;72</title>
<path fill="none" stroke="black" d="M1139.61,-1068.6C1216.46,-1055.06 1333.89,-1033.88 1354,-1027.37 1460.09,-993.07 1480.03,-967.88 1581,-920.58 1700.02,-864.83 1849,-927.01 1849,-795.58 1849,-795.58 1849,-795.58 1849,-649.58 1849,-524.75 1887,-496.12 1887,-371.29 1887,-371.29 1887,-371.29 1887,-225.29 1887,-161.13 1887,-85.74 1887,-46.26"/>
<polygon fill="black" stroke="black" points="1890.5,-46.12 1887,-36.12 1883.5,-46.12 1890.5,-46.12"/>
</g>
<!-- 70&#45;&gt;12 -->
<g id="edge182" class="edge">
<title>70&#45;&gt;12</title>
<path fill="none" stroke="black" d="M1053.52,-1063.44C1044.11,-1053.78 1033.36,-1040.93 1027,-1027.37 1006.69,-984.08 1001,-927.92 999.48,-895.01"/>
<polygon fill="black" stroke="black" points="1002.97,-894.65 999.1,-884.79 995.97,-894.91 1002.97,-894.65"/>
</g>
<!-- 70&#45;&gt;26 -->
<g id="edge181" class="edge">
<title>70&#45;&gt;26</title>
<path fill="none" stroke="black" d="M1090.7,-1063.67C1110.49,-1045.99 1141.88,-1017.96 1164.06,-998.15"/>
<polygon fill="black" stroke="black" points="1166.65,-1000.53 1171.78,-991.26 1161.99,-995.31 1166.65,-1000.53"/>
</g>
<!-- 71 -->
<g id="node73" class="node">
<title>71</title>
<ellipse fill="none" stroke="red" cx="1761" cy="-2204.1" rx="33.28" ry="33.28"/>
<ellipse fill="none" stroke="red" cx="1761" cy="-2204.1" rx="37.29" ry="37.29"/>
<text text-anchor="middle" x="1761" y="-2200.4" font-family="Times New Roman,serif" font-size="14.00">node0</text>
</g>
<!-- 71&#45;&gt;18 -->
<g id="edge185" class="edge">
<title>71&#45;&gt;18</title>
<path fill="none" stroke="black" d="M1771.59,-2168.26C1782.83,-2128.11 1799,-2059.95 1799,-2000.06 1799,-2000.06 1799,-2000.06 1799,-1884.16 1799,-1640.34 2115.67,-1659.68 2243,-1327.16 2309.36,-1153.87 2265.1,-1064.55 2148,-920.58 2136.44,-906.37 2120.17,-894.16 2105.83,-885.05"/>
<polygon fill="black" stroke="black" points="2107.57,-882.02 2097.21,-879.8 2103.93,-887.99 2107.57,-882.02"/>
</g>
<!-- 71&#45;&gt;1 -->
<g id="edge188" class="edge">
<title>71&#45;&gt;1</title>
<path fill="none" stroke="black" d="M1761,-2166.79C1761,-2126.17 1761,-2058.4 1761,-2000.06 1761,-2000.06 1761,-2000.06 1761,-1884.16 1761,-1777.45 1773.88,-1747.87 1819,-1651.16 1866.47,-1549.42 2017.25,-1525.07 1950,-1435.16 1933.41,-1412.99 1859.46,-1396.89 1811.66,-1388.58"/>
<polygon fill="black" stroke="black" points="1812.03,-1385.09 1801.59,-1386.88 1810.87,-1392 1812.03,-1385.09"/>
</g>
<!-- 71&#45;&gt;2 -->
<g id="edge190" class="edge">
<title>71&#45;&gt;2</title>
<path fill="none" stroke="black" d="M1794.01,-2186.75C1825.88,-2170.97 1873.95,-2147.16 1906.36,-2131.11"/>
<polygon fill="black" stroke="black" points="1908.06,-2134.18 1915.46,-2126.6 1904.95,-2127.9 1908.06,-2134.18"/>
</g>
<!-- 71&#45;&gt;72 -->
<g id="edge187" class="edge">
<title>71&#45;&gt;72</title>
<path fill="none" stroke="black" d="M1780.57,-2172.1C1803.09,-2133.39 1837,-2064.42 1837,-2000.06 1837,-2000.06 1837,-2000.06 1837,-1884.16 1837,-1704.47 2361,-1447.97 2361,-1268.27 2361,-1268.27 2361,-1268.27 2361,-225.29 2361,-41.07 2056.25,-19.65 1935.47,-18.39"/>
<polygon fill="black" stroke="black" points="1935.41,-14.89 1925.39,-18.33 1935.37,-21.89 1935.41,-14.89"/>
</g>
<!-- 71&#45;&gt;58 -->
<g id="edge189" class="edge">
<title>71&#45;&gt;58</title>
<path fill="none" stroke="black" d="M1724.22,-2197.06C1605.18,-2176.48 1238,-2104.52 1238,-2000.06 1238,-2000.06 1238,-2000.06 1238,-1812.16 1238,-1642.77 1087.38,-1575.67 1182,-1435.16 1196.89,-1413.05 1209.72,-1416.48 1230,-1399.16 1257.66,-1375.55 1450.82,-1204.86 1465,-1171.37 1510.42,-1064.08 1394.96,-941.73 1339.61,-891.26"/>
<polygon fill="black" stroke="black" points="1341.69,-888.42 1331.91,-884.34 1337.01,-893.63 1341.69,-888.42"/>
</g>
<!-- 71&#45;&gt;46 -->
<g id="edge184" class="edge">
<title>71&#45;&gt;46</title>
<path fill="none" stroke="black" d="M1724.08,-2199.85C1567.56,-2186.06 959.05,-2132.46 791.77,-2117.72"/>
<polygon fill="black" stroke="black" points="791.66,-2114.2 781.4,-2116.81 791.05,-2121.17 791.66,-2114.2"/>
</g>
<!-- 71&#45;&gt;35 -->
<g id="edge186" class="edge">
<title>71&#45;&gt;35</title>
<path fill="none" stroke="black" d="M1723.7,-2202.09C1635.15,-2198.82 1406.06,-2185.35 1224,-2130.96 1133.92,-2104.04 1036.44,-2050.84 985.88,-2021.22"/>
<polygon fill="black" stroke="black" points="987.39,-2018.04 977,-2015.97 983.83,-2024.07 987.39,-2018.04"/>
</g>
</g>
</svg>
