<?xml version="1.0" encoding="UTF-8" standalone="no"?>
<!DOCTYPE svg PUBLIC "-//W3C//DTD SVG 1.1//EN"
 "http://www.w3.org/Graphics/SVG/1.1/DTD/svg11.dtd">
<!-- Generated by graphviz version 2.49.3 (20211023.0002)
 -->
<!-- Title: test Pages: 1 -->
<svg width="2748pt" height="2745pt"
 viewBox="0.00 0.00 2748.10 2744.94" xmlns="http://www.w3.org/2000/svg" xmlns:xlink="http://www.w3.org/1999/xlink">
<g id="graph0" class="graph" transform="scale(1 1) rotate(0) translate(4 2740.94)">
<title>test</title>
<polygon fill="white" stroke="transparent" points="-4,4 -4,-2740.94 2744.1,-2740.94 2744.1,4 -4,4"/>
<!-- 0 -->
<g id="node1" class="node">
<title>0</title>
<ellipse fill="none" stroke="black" cx="1781" cy="-2646.94" rx="60.39" ry="18"/>
<text text-anchor="middle" x="1781" y="-2643.24" font-family="Times New Roman,serif" font-size="14.00">component11</text>
</g>
<!-- 18 -->
<g id="node2" class="node">
<title>18</title>
<ellipse fill="none" stroke="black" cx="1781" cy="-2539.55" rx="60.39" ry="18"/>
<text text-anchor="middle" x="1781" y="-2535.85" font-family="Times New Roman,serif" font-size="14.00">component13</text>
</g>
<!-- 0&#45;&gt;18 -->
<g id="edge1" class="edge">
<title>0&#45;&gt;18</title>
<path fill="none" stroke="black" d="M1775.83,-2628.54C1774.05,-2612.04 1773.77,-2587 1775,-2567.84"/>
<polygon fill="black" stroke="black" points="1778.51,-2567.89 1775.87,-2557.63 1771.54,-2567.3 1778.51,-2567.89"/>
</g>
<!-- 18&#45;&gt;0 -->
<g id="edge42" class="edge">
<title>18&#45;&gt;0</title>
<path fill="none" stroke="black" d="M1786.13,-2557.63C1787.94,-2574.09 1788.23,-2599.27 1787.01,-2618.54"/>
<polygon fill="black" stroke="black" points="1783.51,-2618.28 1786.17,-2628.54 1790.49,-2618.87 1783.51,-2618.28"/>
</g>
<!-- 18&#45;&gt;18 -->
<g id="edge44" class="edge">
<title>18&#45;&gt;18</title>
<path fill="none" stroke="black" d="M1807.93,-2555.75C1832.72,-2563.89 1859.44,-2558.49 1859.44,-2539.55 1859.44,-2523.12 1839.35,-2516.88 1817.84,-2520.82"/>
<polygon fill="black" stroke="black" points="1816.75,-2517.48 1807.93,-2523.34 1818.48,-2524.26 1816.75,-2517.48"/>
</g>
<!-- 2 -->
<g id="node4" class="node">
<title>2</title>
<ellipse fill="none" stroke="black" cx="1817" cy="-2413.01" rx="46.29" ry="18"/>
<text text-anchor="middle" x="1817" y="-2409.31" font-family="Times New Roman,serif" font-size="14.00">interface6</text>
</g>
<!-- 18&#45;&gt;2 -->
<g id="edge41" class="edge">
<title>18&#45;&gt;2</title>
<path fill="none" stroke="black" d="M1781.11,-2521.49C1784.9,-2500.53 1794.98,-2464.74 1803.79,-2440.26"/>
<polygon fill="black" stroke="black" points="1807.08,-2441.45 1807.33,-2430.86 1800.53,-2438.98 1807.08,-2441.45"/>
</g>
<!-- 8 -->
<g id="node21" class="node">
<title>8</title>
<ellipse fill="none" stroke="black" cx="1211" cy="-2413.01" rx="33.29" ry="18"/>
<text text-anchor="middle" x="1211" y="-2409.31" font-family="Times New Roman,serif" font-size="14.00">node9</text>
</g>
<!-- 18&#45;&gt;8 -->
<g id="edge43" class="edge">
<title>18&#45;&gt;8</title>
<path fill="none" stroke="black" d="M1757.65,-2522.79C1742.64,-2510.7 1722.61,-2494.7 1702,-2486.15 1546.29,-2421.61 1342.57,-2413.32 1254.5,-2413.19"/>
<polygon fill="black" stroke="black" points="1254.33,-2409.69 1244.34,-2413.21 1254.35,-2416.69 1254.33,-2409.69"/>
</g>
<!-- 64 -->
<g id="node39" class="node">
<title>64</title>
<ellipse fill="none" stroke="black" cx="1784" cy="-1809.02" rx="46.28" ry="46.28"/>
<ellipse fill="none" stroke="black" cx="1784" cy="-1809.02" rx="50.29" ry="50.29"/>
<text text-anchor="middle" x="1784" y="-1805.32" font-family="Times New Roman,serif" font-size="14.00">interface5</text>
</g>
<!-- 18&#45;&gt;64 -->
<g id="edge40" class="edge">
<title>18&#45;&gt;64</title>
<path fill="none" stroke="black" d="M1769.89,-2521.76C1752.97,-2485.83 1725,-2398.55 1725,-2322.86 1725,-2322.86 1725,-2322.86 1725,-2008.51 1725,-1957.9 1740.48,-1902.16 1755.76,-1862.67"/>
<polygon fill="black" stroke="black" points="1759.17,-1863.58 1759.63,-1852.99 1752.67,-1860.98 1759.17,-1863.58"/>
</g>
<!-- 1 -->
<g id="node3" class="node">
<title>1</title>
<ellipse fill="none" stroke="black" cx="2465" cy="-594" rx="55.79" ry="18"/>
<text text-anchor="middle" x="2465" y="-590.3" font-family="Times New Roman,serif" font-size="14.00">component7</text>
</g>
<!-- 2&#45;&gt;18 -->
<g id="edge2" class="edge">
<title>2&#45;&gt;18</title>
<path fill="none" stroke="black" d="M1816.84,-2431.33C1813.01,-2452.36 1802.96,-2488.01 1794.18,-2512.39"/>
<polygon fill="black" stroke="black" points="1790.9,-2511.16 1790.64,-2521.75 1797.45,-2513.63 1790.9,-2511.16"/>
</g>
<!-- 3 -->
<g id="node5" class="node">
<title>3</title>
<ellipse fill="none" stroke="black" cx="350" cy="-2009.51" rx="95.58" ry="18"/>
<text text-anchor="middle" x="350" y="-2005.81" font-family="Times New Roman,serif" font-size="14.00">executionEnvironment9</text>
</g>
<!-- 75 -->
<g id="node6" class="node">
<title>75</title>
<path fill="none" stroke="black" d="M457.5,-1927.89C457.5,-1929.7 424.56,-1931.16 384,-1931.16 343.44,-1931.16 310.5,-1929.7 310.5,-1927.89 310.5,-1927.89 310.5,-1898.44 310.5,-1898.44 310.5,-1896.63 343.44,-1895.16 384,-1895.16 424.56,-1895.16 457.5,-1896.63 457.5,-1898.44 457.5,-1898.44 457.5,-1927.89 457.5,-1927.89"/>
<path fill="none" stroke="black" d="M457.5,-1927.89C457.5,-1926.09 424.56,-1924.62 384,-1924.62 343.44,-1924.62 310.5,-1926.09 310.5,-1927.89"/>
<text text-anchor="middle" x="384" y="-1909.46" font-family="Times New Roman,serif" font-size="14.00">executionEnvironment3</text>
</g>
<!-- 3&#45;&gt;75 -->
<g id="edge3" class="edge">
<title>3&#45;&gt;75</title>
<path fill="none" stroke="black" d="M350.87,-1991.21C354.42,-1977.11 361.42,-1956.97 368.25,-1940.81"/>
<polygon fill="black" stroke="black" points="371.59,-1941.92 372.45,-1931.36 365.19,-1939.08 371.59,-1941.92"/>
</g>
<!-- 75&#45;&gt;3 -->
<g id="edge196" class="edge">
<title>75&#45;&gt;3</title>
<path fill="none" stroke="black" d="M383.16,-1931.36C379.63,-1945.43 372.64,-1965.56 365.8,-1981.74"/>
<polygon fill="black" stroke="black" points="362.46,-1980.65 361.6,-1991.21 368.86,-1983.49 362.46,-1980.65"/>
</g>
<!-- 25 -->
<g id="node45" class="node">
<title>25</title>
<ellipse fill="none" stroke="black" cx="384" cy="-1809.02" rx="42.79" ry="18"/>
<text text-anchor="middle" x="384" y="-1805.32" font-family="Times New Roman,serif" font-size="14.00">device10</text>
</g>
<!-- 75&#45;&gt;25 -->
<g id="edge197" class="edge">
<title>75&#45;&gt;25</title>
<path fill="none" stroke="black" d="M378.78,-1894.84C377.07,-1879.04 376.79,-1855.45 377.96,-1837.15"/>
<polygon fill="black" stroke="black" points="381.45,-1837.35 378.81,-1827.09 374.48,-1836.76 381.45,-1837.35"/>
</g>
<!-- 4 -->
<g id="node7" class="node">
<title>4</title>
<path fill="none" stroke="red" d="M787.5,-2733.67C787.5,-2735.48 774.28,-2736.94 758,-2736.94 741.72,-2736.94 728.5,-2735.48 728.5,-2733.67 728.5,-2733.67 728.5,-2704.22 728.5,-2704.22 728.5,-2702.41 741.72,-2700.94 758,-2700.94 774.28,-2700.94 787.5,-2702.41 787.5,-2704.22 787.5,-2704.22 787.5,-2733.67 787.5,-2733.67"/>
<path fill="none" stroke="red" d="M787.5,-2733.67C787.5,-2731.86 774.28,-2730.4 758,-2730.4 741.72,-2730.4 728.5,-2731.86 728.5,-2733.67"/>
<text text-anchor="middle" x="758" y="-2715.24" font-family="Times New Roman,serif" font-size="14.00">device7</text>
</g>
<!-- 4&#45;&gt;0 -->
<g id="edge5" class="edge">
<title>4&#45;&gt;0</title>
<path fill="none" stroke="black" d="M787.59,-2718.02C904.52,-2717.95 1345.49,-2714.23 1704,-2664.94 1711.18,-2663.96 1718.68,-2662.65 1726.07,-2661.2"/>
<polygon fill="black" stroke="black" points="1726.94,-2664.59 1736.02,-2659.15 1725.52,-2657.74 1726.94,-2664.59"/>
</g>
<!-- 36 -->
<g id="node8" class="node">
<title>36</title>
<ellipse fill="none" stroke="black" cx="737" cy="-893.79" rx="38.19" ry="18"/>
<text text-anchor="middle" x="737" y="-890.09" font-family="Times New Roman,serif" font-size="14.00">device8</text>
</g>
<!-- 4&#45;&gt;36 -->
<g id="edge4" class="edge">
<title>4&#45;&gt;36</title>
<path fill="none" stroke="black" d="M728.45,-2714.93C692.14,-2709.93 630.18,-2697.06 588,-2664.94 535.7,-2625.12 508,-2606.28 508,-2540.55 508,-2540.55 508,-2540.55 508,-2176.86 508,-1665.03 687.06,-1055.91 728.51,-921.77"/>
<polygon fill="black" stroke="black" points="731.94,-922.52 731.57,-911.93 725.26,-920.44 731.94,-922.52"/>
</g>
<!-- 28 -->
<g id="node9" class="node">
<title>28</title>
<ellipse fill="none" stroke="black" cx="634" cy="-2249.86" rx="95.58" ry="18"/>
<text text-anchor="middle" x="634" y="-2246.16" font-family="Times New Roman,serif" font-size="14.00">executionEnvironment1</text>
</g>
<!-- 4&#45;&gt;28 -->
<g id="edge6" class="edge">
<title>4&#45;&gt;28</title>
<path fill="none" stroke="black" d="M728.08,-2708.62C669.64,-2688.35 546,-2634.37 546,-2540.55 546,-2540.55 546,-2540.55 546,-2412.01 546,-2358.39 583.98,-2305.67 610.04,-2275.81"/>
<polygon fill="black" stroke="black" points="612.96,-2277.79 617.03,-2268.01 607.75,-2273.12 612.96,-2277.79"/>
</g>
<!-- 62 -->
<g id="node10" class="node">
<title>62</title>
<ellipse fill="none" stroke="black" cx="1211" cy="-1809.02" rx="38.19" ry="18"/>
<text text-anchor="middle" x="1211" y="-1805.32" font-family="Times New Roman,serif" font-size="14.00">device9</text>
</g>
<!-- 4&#45;&gt;62 -->
<g id="edge7" class="edge">
<title>4&#45;&gt;62</title>
<path fill="none" stroke="black" d="M787.76,-2712.64C877.72,-2694.81 1147.08,-2627.88 1253,-2450.15 1376.52,-2242.9 1260.92,-1928.03 1222.44,-1836.08"/>
<polygon fill="black" stroke="black" points="1225.58,-1834.53 1218.45,-1826.69 1219.14,-1837.27 1225.58,-1834.53"/>
</g>
<!-- 54 -->
<g id="node11" class="node">
<title>54</title>
<ellipse fill="none" stroke="black" cx="636" cy="-2177.86" rx="100.18" ry="18"/>
<text text-anchor="middle" x="636" y="-2174.16" font-family="Times New Roman,serif" font-size="14.00">executionEnvironment10</text>
</g>
<!-- 4&#45;&gt;54 -->
<g id="edge8" class="edge">
<title>4&#45;&gt;54</title>
<path fill="none" stroke="black" d="M758,-2700.82C758,-2669.17 758,-2599.37 758,-2540.55 758,-2540.55 758,-2540.55 758,-2320.86 758,-2280.41 763.57,-2263.98 739,-2231.86 727.61,-2216.97 710.85,-2205.89 694.15,-2197.83"/>
<polygon fill="black" stroke="black" points="695.47,-2194.58 684.91,-2193.65 692.58,-2200.96 695.47,-2194.58"/>
</g>
<!-- 35 -->
<g id="node37" class="node">
<title>35</title>
<ellipse fill="none" stroke="black" cx="706" cy="-821.79" rx="95.58" ry="18"/>
<text text-anchor="middle" x="706" y="-818.09" font-family="Times New Roman,serif" font-size="14.00">executionEnvironment2</text>
</g>
<!-- 36&#45;&gt;35 -->
<g id="edge92" class="edge">
<title>36&#45;&gt;35</title>
<path fill="none" stroke="black" d="M724.01,-876.55C719.53,-868.49 714.86,-858.53 711.21,-849.39"/>
<polygon fill="black" stroke="black" points="714.45,-848.07 707.69,-839.91 707.89,-850.51 714.45,-848.07"/>
</g>
<!-- 42 -->
<g id="node44" class="node">
<title>42</title>
<ellipse fill="none" stroke="black" cx="297" cy="-162" rx="95.58" ry="18"/>
<text text-anchor="middle" x="297" y="-158.3" font-family="Times New Roman,serif" font-size="14.00">executionEnvironment7</text>
</g>
<!-- 36&#45;&gt;42 -->
<g id="edge91" class="edge">
<title>36&#45;&gt;42</title>
<path fill="none" stroke="black" d="M760.26,-879.16C775.12,-870.41 792.97,-857.36 802,-839.79 809.31,-825.56 802.38,-819.79 802,-803.79 799.78,-710.91 792,-687.9 792,-595 792,-595 792,-595 792,-305 792,-222.22 536.9,-185.35 392.92,-170.97"/>
<polygon fill="black" stroke="black" points="393.04,-167.46 382.75,-169.97 392.36,-174.43 393.04,-167.46"/>
</g>
<!-- 28&#45;&gt;54 -->
<g id="edge75" class="edge">
<title>28&#45;&gt;54</title>
<path fill="none" stroke="black" d="M628.58,-2231.55C628,-2223.84 628.04,-2214.57 628.63,-2205.97"/>
<polygon fill="black" stroke="black" points="632.12,-2206.26 629.62,-2195.96 625.15,-2205.57 632.12,-2206.26"/>
</g>
<!-- 7 -->
<g id="node18" class="node">
<title>7</title>
<ellipse fill="none" stroke="black" cx="1538" cy="-306" rx="55.79" ry="18"/>
<text text-anchor="middle" x="1538" y="-302.3" font-family="Times New Roman,serif" font-size="14.00">component4</text>
</g>
<!-- 28&#45;&gt;7 -->
<g id="edge76" class="edge">
<title>28&#45;&gt;7</title>
<path fill="none" stroke="black" d="M589.58,-2233.88C495.58,-2199.33 282.02,-2112.44 236,-2051.86 198.22,-2002.13 208,-1976.61 208,-1914.16 208,-1914.16 208,-1914.16 208,-820.79 208,-590.7 237.66,-461.81 444,-360 535.57,-314.82 1248.67,-308.15 1471.65,-307.17"/>
<polygon fill="black" stroke="black" points="1471.91,-310.67 1481.9,-307.13 1471.88,-303.67 1471.91,-310.67"/>
</g>
<!-- 31 -->
<g id="node22" class="node">
<title>31</title>
<ellipse fill="none" stroke="black" cx="861" cy="-2321.86" rx="33.29" ry="18"/>
<text text-anchor="middle" x="861" y="-2318.16" font-family="Times New Roman,serif" font-size="14.00">node7</text>
</g>
<!-- 28&#45;&gt;31 -->
<g id="edge74" class="edge">
<title>28&#45;&gt;31</title>
<path fill="none" stroke="black" d="M685.79,-2265.11C728.25,-2277.7 787.16,-2295.88 824.74,-2308.02"/>
<polygon fill="black" stroke="black" points="823.69,-2311.36 834.28,-2311.12 825.85,-2304.7 823.69,-2311.36"/>
</g>
<!-- 16 -->
<g id="node25" class="node">
<title>16</title>
<ellipse fill="none" stroke="black" cx="1083" cy="-450" rx="38.19" ry="18"/>
<text text-anchor="middle" x="1083" y="-446.3" font-family="Times New Roman,serif" font-size="14.00">device3</text>
</g>
<!-- 28&#45;&gt;16 -->
<g id="edge72" class="edge">
<title>28&#45;&gt;16</title>
<path fill="none" stroke="black" d="M702.76,-2237.32C808.03,-2218.83 1001,-2178.96 1042,-2123.86 1083.58,-2067.99 1084.43,-2022.39 1042,-1967.16 1004.17,-1917.92 959.48,-1964.36 907,-1931.16 796.07,-1860.98 716,-1837.14 716,-1705.87 716,-1705.87 716,-1705.87 716,-1487.87 716,-1247.17 848.97,-1215.54 914,-983.79 947.51,-864.38 962,-832.92 962,-708.9 962,-708.9 962,-708.9 962,-593 962,-538.87 1012.79,-493.25 1048.71,-469.23"/>
<polygon fill="black" stroke="black" points="1050.96,-471.94 1057.48,-463.59 1047.18,-466.05 1050.96,-471.94"/>
</g>
<!-- 24 -->
<g id="node47" class="node">
<title>24</title>
<ellipse fill="none" stroke="black" cx="235" cy="-306" rx="37.89" ry="18"/>
<text text-anchor="middle" x="235" y="-302.3" font-family="Times New Roman,serif" font-size="14.00">node10</text>
</g>
<!-- 28&#45;&gt;24 -->
<g id="edge73" class="edge">
<title>28&#45;&gt;24</title>
<path fill="none" stroke="black" d="M562.96,-2237.78C482.77,-2222.18 351.33,-2188.15 256,-2123.86 129.07,-2038.25 114,-1963.12 114,-1810.02 114,-1810.02 114,-1810.02 114,-706.9 114,-560.44 184.52,-394.62 218.14,-332.38"/>
<polygon fill="black" stroke="black" points="221.39,-333.74 223.2,-323.3 215.28,-330.33 221.39,-333.74"/>
</g>
<!-- 62&#45;&gt;8 -->
<g id="edge156" class="edge">
<title>62&#45;&gt;8</title>
<path fill="none" stroke="black" d="M1216.02,-1827.01C1220,-1861.32 1220,-1941.31 1220,-2008.51 1220,-2250.86 1220,-2250.86 1220,-2250.86 1220,-2297.91 1220,-2352.68 1217.45,-2384.73"/>
<polygon fill="black" stroke="black" points="1213.93,-2384.77 1216.44,-2395.07 1220.89,-2385.46 1213.93,-2384.77"/>
</g>
<!-- 50 -->
<g id="node27" class="node">
<title>50</title>
<ellipse fill="none" stroke="black" cx="1280" cy="-1704.87" rx="40.09" ry="18"/>
<text text-anchor="middle" x="1280" y="-1701.17" font-family="Times New Roman,serif" font-size="14.00">artifact3</text>
</g>
<!-- 62&#45;&gt;50 -->
<g id="edge158" class="edge">
<title>62&#45;&gt;50</title>
<path fill="none" stroke="black" d="M1217.23,-1791.15C1226.65,-1774.44 1243.82,-1748.7 1257.97,-1729.87"/>
<polygon fill="black" stroke="black" points="1260.89,-1731.81 1264.22,-1721.76 1255.34,-1727.54 1260.89,-1731.81"/>
</g>
<!-- 63 -->
<g id="node28" class="node">
<title>63</title>
<ellipse fill="none" stroke="black" cx="963" cy="-1913.16" rx="38.19" ry="18"/>
<text text-anchor="middle" x="963" y="-1909.46" font-family="Times New Roman,serif" font-size="14.00">device4</text>
</g>
<!-- 62&#45;&gt;63 -->
<g id="edge160" class="edge">
<title>62&#45;&gt;63</title>
<path fill="none" stroke="black" d="M1185.15,-1822.57C1141.55,-1841.66 1053.62,-1877.91 1002.35,-1897.95"/>
<polygon fill="black" stroke="black" points="1000.97,-1894.74 992.91,-1901.62 1003.5,-1901.26 1000.97,-1894.74"/>
</g>
<!-- 70 -->
<g id="node33" class="node">
<title>70</title>
<ellipse fill="none" stroke="black" cx="495" cy="-378" rx="33.29" ry="18"/>
<text text-anchor="middle" x="495" y="-374.3" font-family="Times New Roman,serif" font-size="14.00">node4</text>
</g>
<!-- 62&#45;&gt;70 -->
<g id="edge162" class="edge">
<title>62&#45;&gt;70</title>
<path fill="none" stroke="black" d="M1193.19,-1792.86C1170.24,-1768.9 1129.79,-1721.43 1090,-1686.87 1068.78,-1668.44 1058.9,-1669.68 1038,-1650.87 929.73,-1553.45 564,-970.33 564,-894.79 564,-894.79 564,-894.79 564,-706.9 564,-592.28 518.34,-461.09 500.92,-405.8"/>
<polygon fill="black" stroke="black" points="504.21,-404.6 497.92,-396.08 497.52,-406.66 504.21,-404.6"/>
</g>
<!-- 33 -->
<g id="node52" class="node">
<title>33</title>
<ellipse fill="none" stroke="black" cx="1785" cy="-306" rx="46.29" ry="18"/>
<text text-anchor="middle" x="1785" y="-302.3" font-family="Times New Roman,serif" font-size="14.00">interface9</text>
</g>
<!-- 62&#45;&gt;33 -->
<g id="edge161" class="edge">
<title>62&#45;&gt;33</title>
<path fill="none" stroke="black" d="M1244.3,-1800.05C1359.63,-1771.68 1734,-1663.84 1734,-1417.87 1734,-1417.87 1734,-1417.87 1734,-1262.33 1734,-1126.71 1810,-1102.42 1810,-966.79 1810,-966.79 1810,-966.79 1810,-820.79 1810,-688.41 1804,-655.38 1804,-523 1804,-523 1804,-523 1804,-449 1804,-408.45 1792.87,-362.59 1786.9,-334.24"/>
<polygon fill="black" stroke="black" points="1790.3,-333.39 1784.9,-324.27 1783.44,-334.77 1790.3,-333.39"/>
</g>
<!-- 53 -->
<g id="node55" class="node">
<title>53</title>
<ellipse fill="none" stroke="black" cx="1478" cy="-1109.79" rx="95.58" ry="18"/>
<text text-anchor="middle" x="1478" y="-1106.09" font-family="Times New Roman,serif" font-size="14.00">executionEnvironment6</text>
</g>
<!-- 62&#45;&gt;53 -->
<g id="edge157" class="edge">
<title>62&#45;&gt;53</title>
<path fill="none" stroke="black" d="M1235.66,-1794.81C1303.13,-1761.74 1485.69,-1676.21 1502,-1650.87 1619.23,-1468.74 1596.95,-1365.49 1518,-1163.79 1513.85,-1153.18 1506.46,-1143.42 1499.07,-1135.24"/>
<polygon fill="black" stroke="black" points="1501.51,-1132.74 1492.08,-1127.92 1496.45,-1137.57 1501.51,-1132.74"/>
</g>
<!-- 57 -->
<g id="node58" class="node">
<title>57</title>
<ellipse fill="none" stroke="black" cx="1045" cy="-1704.87" rx="44.69" ry="18"/>
<text text-anchor="middle" x="1045" y="-1701.17" font-family="Times New Roman,serif" font-size="14.00">package5</text>
</g>
<!-- 62&#45;&gt;57 -->
<g id="edge159" class="edge">
<title>62&#45;&gt;57</title>
<path fill="none" stroke="black" d="M1188.61,-1794.24C1159.9,-1776.57 1109.89,-1745.8 1077.12,-1725.64"/>
<polygon fill="black" stroke="black" points="1078.72,-1722.51 1068.37,-1720.25 1075.05,-1728.47 1078.72,-1722.51"/>
</g>
<!-- 54&#45;&gt;28 -->
<g id="edge148" class="edge">
<title>54&#45;&gt;28</title>
<path fill="none" stroke="black" d="M641.41,-2195.96C641.99,-2203.65 641.96,-2212.91 641.39,-2221.52"/>
<polygon fill="black" stroke="black" points="637.89,-2221.26 640.41,-2231.55 644.86,-2221.94 637.89,-2221.26"/>
</g>
<!-- 43 -->
<g id="node41" class="node">
<title>43</title>
<ellipse fill="none" stroke="black" cx="632" cy="-2105.86" rx="95.58" ry="18"/>
<text text-anchor="middle" x="632" y="-2102.16" font-family="Times New Roman,serif" font-size="14.00">executionEnvironment0</text>
</g>
<!-- 54&#45;&gt;43 -->
<g id="edge147" class="edge">
<title>54&#45;&gt;43</title>
<path fill="none" stroke="black" d="M629.1,-2159.55C627.86,-2151.84 627.1,-2142.57 626.95,-2133.97"/>
<polygon fill="black" stroke="black" points="630.45,-2134.01 627.08,-2123.96 623.45,-2133.92 630.45,-2134.01"/>
</g>
<!-- 5 -->
<g id="node12" class="node">
<title>5</title>
<path fill="none" stroke="black" d="M2520.5,-1927.89C2520.5,-1929.7 2505.04,-1931.16 2486,-1931.16 2466.96,-1931.16 2451.5,-1929.7 2451.5,-1927.89 2451.5,-1927.89 2451.5,-1898.44 2451.5,-1898.44 2451.5,-1896.63 2466.96,-1895.16 2486,-1895.16 2505.04,-1895.16 2520.5,-1896.63 2520.5,-1898.44 2520.5,-1898.44 2520.5,-1927.89 2520.5,-1927.89"/>
<path fill="none" stroke="black" d="M2520.5,-1927.89C2520.5,-1926.09 2505.04,-1924.62 2486,-1924.62 2466.96,-1924.62 2451.5,-1926.09 2451.5,-1927.89"/>
<text text-anchor="middle" x="2486" y="-1909.46" font-family="Times New Roman,serif" font-size="14.00">package9</text>
</g>
<!-- 6 -->
<g id="node13" class="node">
<title>6</title>
<ellipse fill="none" stroke="red" cx="1230" cy="-1632.87" rx="95.58" ry="18"/>
<text text-anchor="middle" x="1230" y="-1629.17" font-family="Times New Roman,serif" font-size="14.00">executionEnvironment5</text>
</g>
<!-- 56 -->
<g id="node14" class="node">
<title>56</title>
<ellipse fill="none" stroke="black" cx="1120" cy="-1560.87" rx="38.19" ry="18"/>
<text text-anchor="middle" x="1120" y="-1557.17" font-family="Times New Roman,serif" font-size="14.00">device6</text>
</g>
<!-- 6&#45;&gt;56 -->
<g id="edge9" class="edge">
<title>6&#45;&gt;56</title>
<path fill="none" stroke="black" d="M1204.21,-1615.46C1188.1,-1605.21 1167.27,-1591.95 1150.36,-1581.19"/>
<polygon fill="black" stroke="black" points="1152.23,-1578.24 1141.92,-1575.82 1148.48,-1584.14 1152.23,-1578.24"/>
</g>
<!-- 74 -->
<g id="node15" class="node">
<title>74</title>
<ellipse fill="none" stroke="black" cx="1308" cy="-1560.87" rx="55.79" ry="18"/>
<text text-anchor="middle" x="1308" y="-1557.17" font-family="Times New Roman,serif" font-size="14.00">component5</text>
</g>
<!-- 6&#45;&gt;74 -->
<g id="edge10" class="edge">
<title>6&#45;&gt;74</title>
<path fill="none" stroke="black" d="M1248.88,-1614.93C1258.97,-1605.88 1271.53,-1594.61 1282.47,-1584.78"/>
<polygon fill="black" stroke="black" points="1284.99,-1587.22 1290.1,-1577.94 1280.32,-1582.02 1284.99,-1587.22"/>
</g>
<!-- 22 -->
<g id="node16" class="node">
<title>22</title>
<path fill="none" stroke="red" d="M1274,-608.73C1274,-610.53 1239.49,-612 1197,-612 1154.51,-612 1120,-610.53 1120,-608.73 1120,-608.73 1120,-579.27 1120,-579.27 1120,-577.47 1154.51,-576 1197,-576 1239.49,-576 1274,-577.47 1274,-579.27 1274,-579.27 1274,-608.73 1274,-608.73"/>
<path fill="none" stroke="red" d="M1274,-608.73C1274,-606.92 1239.49,-605.45 1197,-605.45 1154.51,-605.45 1120,-606.92 1120,-608.73"/>
<text text-anchor="middle" x="1197" y="-590.3" font-family="Times New Roman,serif" font-size="14.00">executionEnvironment11</text>
</g>
<!-- 6&#45;&gt;22 -->
<g id="edge11" class="edge">
<title>6&#45;&gt;22</title>
<path fill="none" stroke="black" d="M1228.81,-1614.83C1227.07,-1588.19 1224,-1535.03 1224,-1489.87 1224,-1489.87 1224,-1489.87 1224,-820.79 1224,-748.7 1210.26,-664.57 1202.39,-622.26"/>
<polygon fill="black" stroke="black" points="1205.78,-621.37 1200.47,-612.2 1198.9,-622.67 1205.78,-621.37"/>
</g>
<!-- 59 -->
<g id="node17" class="node">
<title>59</title>
<ellipse fill="none" stroke="black" cx="1158" cy="-1416.87" rx="37.89" ry="18"/>
<text text-anchor="middle" x="1158" y="-1413.17" font-family="Times New Roman,serif" font-size="14.00">node11</text>
</g>
<!-- 6&#45;&gt;59 -->
<g id="edge12" class="edge">
<title>6&#45;&gt;59</title>
<path fill="none" stroke="black" d="M1223.3,-1614.76C1219.31,-1604.42 1214.22,-1590.94 1210,-1578.87 1193.61,-1532.04 1176.21,-1476.92 1166.27,-1444.84"/>
<polygon fill="black" stroke="black" points="1169.49,-1443.41 1163.2,-1434.88 1162.8,-1445.47 1169.49,-1443.41"/>
</g>
<!-- 74&#45;&gt;74 -->
<g id="edge195" class="edge">
<title>74&#45;&gt;74</title>
<path fill="none" stroke="black" d="M1346.4,-1574.01C1365.21,-1575.73 1381.9,-1571.35 1381.9,-1560.87 1381.9,-1552.36 1370.88,-1547.87 1356.66,-1547.41"/>
<polygon fill="black" stroke="black" points="1356.28,-1543.92 1346.4,-1547.74 1356.5,-1550.92 1356.28,-1543.92"/>
</g>
<!-- 39 -->
<g id="node63" class="node">
<title>39</title>
<ellipse fill="none" stroke="black" cx="1442" cy="-1632.87" rx="60.39" ry="18"/>
<text text-anchor="middle" x="1442" y="-1629.17" font-family="Times New Roman,serif" font-size="14.00">component10</text>
</g>
<!-- 74&#45;&gt;39 -->
<g id="edge194" class="edge">
<title>74&#45;&gt;39</title>
<path fill="none" stroke="black" d="M1339.98,-1575.71C1360.88,-1585.9 1387.98,-1599.94 1409.06,-1611.43"/>
<polygon fill="black" stroke="black" points="1407.53,-1614.58 1417.98,-1616.34 1410.91,-1608.45 1407.53,-1614.58"/>
</g>
<!-- 66 -->
<g id="node31" class="node">
<title>66</title>
<ellipse fill="none" stroke="black" cx="503" cy="-707.9" rx="33.29" ry="18"/>
<text text-anchor="middle" x="503" y="-704.2" font-family="Times New Roman,serif" font-size="14.00">node6</text>
</g>
<!-- 22&#45;&gt;66 -->
<g id="edge54" class="edge">
<title>22&#45;&gt;66</title>
<path fill="none" stroke="black" d="M1119.73,-608.19C972.92,-632.4 658.43,-683.04 544.89,-700.68"/>
<polygon fill="black" stroke="black" points="544.2,-697.24 534.85,-702.23 545.27,-704.16 544.2,-697.24"/>
</g>
<!-- 41 -->
<g id="node32" class="node">
<title>41</title>
<ellipse fill="none" stroke="black" cx="1175" cy="-522" rx="33.29" ry="18"/>
<text text-anchor="middle" x="1175" y="-518.3" font-family="Times New Roman,serif" font-size="14.00">node3</text>
</g>
<!-- 22&#45;&gt;41 -->
<g id="edge55" class="edge">
<title>22&#45;&gt;41</title>
<path fill="none" stroke="black" d="M1185.65,-575.7C1182.39,-567.9 1179.22,-558.51 1176.85,-549.83"/>
<polygon fill="black" stroke="black" points="1180.25,-548.99 1174.48,-540.1 1173.45,-550.65 1180.25,-548.99"/>
</g>
<!-- 9 -->
<g id="node23" class="node">
<title>9</title>
<ellipse fill="none" stroke="black" cx="1064" cy="-1488.87" rx="33.29" ry="18"/>
<text text-anchor="middle" x="1064" y="-1485.17" font-family="Times New Roman,serif" font-size="14.00">node8</text>
</g>
<!-- 59&#45;&gt;9 -->
<g id="edge151" class="edge">
<title>59&#45;&gt;9</title>
<path fill="none" stroke="black" d="M1142.79,-1433.46C1129.74,-1444.12 1110.83,-1458.28 1094.72,-1469.48"/>
<polygon fill="black" stroke="black" points="1092.4,-1466.83 1086.12,-1475.36 1096.35,-1472.61 1092.4,-1466.83"/>
</g>
<!-- 30 -->
<g id="node50" class="node">
<title>30</title>
<ellipse fill="none" stroke="black" cx="1418" cy="-1263.33" rx="95.58" ry="95.58"/>
<ellipse fill="none" stroke="black" cx="1418" cy="-1263.33" rx="99.58" ry="99.58"/>
<text text-anchor="middle" x="1418" y="-1259.63" font-family="Times New Roman,serif" font-size="14.00">executionEnvironment4</text>
</g>
<!-- 59&#45;&gt;30 -->
<g id="edge150" class="edge">
<title>59&#45;&gt;30</title>
<path fill="none" stroke="black" d="M1178.31,-1401.62C1209.22,-1382.25 1269.64,-1346.58 1322.12,-1316.46"/>
<polygon fill="black" stroke="black" points="1323.87,-1319.49 1330.81,-1311.48 1320.39,-1313.41 1323.87,-1319.49"/>
</g>
<!-- 7&#45;&gt;28 -->
<g id="edge13" class="edge">
<title>7&#45;&gt;28</title>
<path fill="none" stroke="black" d="M1482.2,-307.15C1274.51,-308.08 554.07,-314.57 462,-360 255.66,-461.81 226,-590.7 226,-820.79 226,-1914.16 226,-1914.16 226,-1914.16 226,-1976.61 216.22,-2002.13 254,-2051.86 298.17,-2110.01 496.69,-2192.39 587.98,-2229.46"/>
<polygon fill="black" stroke="black" points="586.68,-2232.71 597.26,-2233.22 589.31,-2226.22 586.68,-2232.71"/>
</g>
<!-- 27 -->
<g id="node19" class="node">
<title>27</title>
<ellipse fill="none" stroke="black" cx="1538" cy="-378" rx="46.29" ry="18"/>
<text text-anchor="middle" x="1538" y="-374.3" font-family="Times New Roman,serif" font-size="14.00">interface8</text>
</g>
<!-- 7&#45;&gt;27 -->
<g id="edge14" class="edge">
<title>7&#45;&gt;27</title>
<path fill="none" stroke="black" d="M1543.91,-324.28C1544.71,-332.03 1544.94,-341.36 1544.59,-350.01"/>
<polygon fill="black" stroke="black" points="1541.09,-349.83 1543.88,-360.05 1548.08,-350.33 1541.09,-349.83"/>
</g>
<!-- 13 -->
<g id="node20" class="node">
<title>13</title>
<ellipse fill="none" stroke="black" cx="1882" cy="-234" rx="55.79" ry="18"/>
<text text-anchor="middle" x="1882" y="-230.3" font-family="Times New Roman,serif" font-size="14.00">component1</text>
</g>
<!-- 7&#45;&gt;13 -->
<g id="edge15" class="edge">
<title>7&#45;&gt;13</title>
<path fill="none" stroke="black" d="M1580.36,-294.03C1589.76,-292.01 1599.68,-289.93 1609,-288 1682.7,-272.77 1768.1,-255.74 1823.59,-245.19"/>
<polygon fill="black" stroke="black" points="1824.41,-248.6 1833.59,-243.3 1823.11,-241.72 1824.41,-248.6"/>
</g>
<!-- 27&#45;&gt;7 -->
<g id="edge70" class="edge">
<title>27&#45;&gt;7</title>
<path fill="none" stroke="black" d="M1532.12,-360.05C1531.3,-352.35 1531.06,-343.03 1531.39,-334.36"/>
<polygon fill="black" stroke="black" points="1534.89,-334.49 1532.09,-324.28 1527.91,-334.01 1534.89,-334.49"/>
</g>
<!-- 27&#45;&gt;24 -->
<g id="edge68" class="edge">
<title>27&#45;&gt;24</title>
<path fill="none" stroke="black" d="M1492.39,-374.55C1291.5,-363.76 486.5,-320.51 282.29,-309.54"/>
<polygon fill="black" stroke="black" points="282.36,-306.04 272.19,-309 281.98,-313.03 282.36,-306.04"/>
</g>
<!-- 37 -->
<g id="node51" class="node">
<title>37</title>
<ellipse fill="none" stroke="black" cx="1538" cy="-450" rx="40.09" ry="18"/>
<text text-anchor="middle" x="1538" y="-446.3" font-family="Times New Roman,serif" font-size="14.00">artifact6</text>
</g>
<!-- 27&#45;&gt;37 -->
<g id="edge69" class="edge">
<title>27&#45;&gt;37</title>
<path fill="none" stroke="black" d="M1543.91,-396.28C1544.71,-404.03 1544.94,-413.36 1544.59,-422.01"/>
<polygon fill="black" stroke="black" points="1541.09,-421.83 1543.88,-432.05 1548.08,-422.33 1541.09,-421.83"/>
</g>
<!-- 27&#45;&gt;33 -->
<g id="edge71" class="edge">
<title>27&#45;&gt;33</title>
<path fill="none" stroke="black" d="M1568.98,-364.51C1573.98,-362.97 1579.11,-361.43 1584,-360 1635.51,-344.93 1695.13,-328.66 1736.11,-318.17"/>
<polygon fill="black" stroke="black" points="1737.01,-321.55 1745.84,-315.7 1735.29,-314.77 1737.01,-321.55"/>
</g>
<!-- 13&#45;&gt;7 -->
<g id="edge32" class="edge">
<title>13&#45;&gt;7</title>
<path fill="none" stroke="black" d="M1837.6,-245.09C1786.65,-255.63 1700.94,-272.72 1627,-288 1616.99,-290.07 1606.28,-292.32 1595.86,-294.48"/>
<polygon fill="black" stroke="black" points="1595.08,-291.07 1585.99,-296.52 1596.49,-297.93 1595.08,-291.07"/>
</g>
<!-- 14 -->
<g id="node34" class="node">
<title>14</title>
<ellipse fill="none" stroke="black" cx="1882" cy="-162" rx="55.79" ry="18"/>
<text text-anchor="middle" x="1882" y="-158.3" font-family="Times New Roman,serif" font-size="14.00">component3</text>
</g>
<!-- 13&#45;&gt;14 -->
<g id="edge31" class="edge">
<title>13&#45;&gt;14</title>
<path fill="none" stroke="black" d="M1876.12,-216.05C1875.3,-208.35 1875.06,-199.03 1875.39,-190.36"/>
<polygon fill="black" stroke="black" points="1878.89,-190.49 1876.09,-180.28 1871.91,-190.01 1878.89,-190.49"/>
</g>
<!-- 8&#45;&gt;18 -->
<g id="edge18" class="edge">
<title>8&#45;&gt;18</title>
<path fill="none" stroke="black" d="M1244.14,-2413.29C1327.81,-2412.35 1551.88,-2416.47 1720,-2486.15 1736.18,-2492.86 1751.99,-2504.16 1763.66,-2514.56"/>
<polygon fill="black" stroke="black" points="1761.36,-2517.2 1771.03,-2521.54 1766.18,-2512.12 1761.36,-2517.2"/>
</g>
<!-- 8&#45;&gt;62 -->
<g id="edge16" class="edge">
<title>8&#45;&gt;62</title>
<path fill="none" stroke="black" d="M1205.56,-2395.07C1202,-2365.71 1202,-2303.45 1202,-2250.86 1202,-2250.86 1202,-2250.86 1202,-2008.51 1202,-1947.35 1202,-1875.59 1205,-1837.32"/>
<polygon fill="black" stroke="black" points="1208.52,-1837.3 1205.98,-1827.01 1201.55,-1836.64 1208.52,-1837.3"/>
</g>
<!-- 8&#45;&gt;31 -->
<g id="edge17" class="edge">
<title>8&#45;&gt;31</title>
<path fill="none" stroke="black" d="M1180.92,-2405.3C1117.25,-2390.02 969.53,-2352.47 899.28,-2333.78"/>
<polygon fill="black" stroke="black" points="900.06,-2330.37 889.49,-2331.17 898.25,-2337.13 900.06,-2330.37"/>
</g>
<!-- 31&#45;&gt;28 -->
<g id="edge81" class="edge">
<title>31&#45;&gt;28</title>
<path fill="none" stroke="black" d="M831.87,-2313.23C795.27,-2302.7 732.08,-2283.38 686.9,-2269.02"/>
<polygon fill="black" stroke="black" points="687.86,-2265.65 677.27,-2265.95 685.73,-2272.32 687.86,-2265.65"/>
</g>
<!-- 31&#45;&gt;8 -->
<g id="edge82" class="edge">
<title>31&#45;&gt;8</title>
<path fill="none" stroke="black" d="M891.09,-2329.56C954.77,-2344.85 1102.49,-2382.4 1172.73,-2401.08"/>
<polygon fill="black" stroke="black" points="1171.95,-2404.5 1182.52,-2403.7 1173.76,-2397.73 1171.95,-2404.5"/>
</g>
<!-- 31&#45;&gt;70 -->
<g id="edge83" class="edge">
<title>31&#45;&gt;70</title>
<path fill="none" stroke="black" d="M861.02,-2303.69C866.4,-2262.23 885.33,-2155.15 838,-2087.86 814.63,-2054.64 784.56,-2078.61 754,-2051.86 738.57,-2038.35 376,-1438.38 376,-1417.87 376,-1417.87 376,-1417.87 376,-892.79 376,-701.99 449.43,-479.99 481.21,-405.14"/>
<polygon fill="black" stroke="black" points="484.59,-406.14 485.41,-395.58 478.18,-403.33 484.59,-406.14"/>
</g>
<!-- 9&#45;&gt;59 -->
<g id="edge24" class="edge">
<title>9&#45;&gt;59</title>
<path fill="none" stroke="black" d="M1078.72,-1472.68C1091.48,-1462.23 1110.09,-1448.27 1126.15,-1437.05"/>
<polygon fill="black" stroke="black" points="1128.49,-1439.69 1134.75,-1431.15 1124.53,-1433.92 1128.49,-1439.69"/>
</g>
<!-- 61 -->
<g id="node24" class="node">
<title>61</title>
<ellipse fill="none" stroke="black" cx="1440" cy="-1560.87" rx="40.09" ry="18"/>
<text text-anchor="middle" x="1440" y="-1557.17" font-family="Times New Roman,serif" font-size="14.00">artifact8</text>
</g>
<!-- 9&#45;&gt;61 -->
<g id="edge19" class="edge">
<title>9&#45;&gt;61</title>
<path fill="none" stroke="black" d="M1096.42,-1492.7C1157.09,-1498.87 1290.71,-1515.28 1400,-1542.87 1401.45,-1543.24 1402.91,-1543.63 1404.38,-1544.04"/>
<polygon fill="black" stroke="black" points="1403.5,-1547.42 1414.08,-1546.96 1405.52,-1540.72 1403.5,-1547.42"/>
</g>
<!-- 9&#45;&gt;16 -->
<g id="edge20" class="edge">
<title>9&#45;&gt;16</title>
<path fill="none" stroke="black" d="M1061.64,-1470.81C1062.58,-1433.46 1074,-1341.65 1074,-1264.33 1074,-1264.33 1074,-1264.33 1074,-593 1074,-553 1074,-506.65 1076.29,-478.08"/>
<polygon fill="black" stroke="black" points="1079.78,-478.35 1077.29,-468.05 1072.82,-477.65 1079.78,-478.35"/>
</g>
<!-- 11 -->
<g id="node26" class="node">
<title>11</title>
<ellipse fill="none" stroke="black" cx="897" cy="-450" rx="33.29" ry="18"/>
<text text-anchor="middle" x="897" y="-446.3" font-family="Times New Roman,serif" font-size="14.00">node2</text>
</g>
<!-- 9&#45;&gt;11 -->
<g id="edge21" class="edge">
<title>9&#45;&gt;11</title>
<path fill="none" stroke="black" d="M1054.65,-1471.48C1040.47,-1434.73 1018,-1342.81 1018,-1264.33 1018,-1264.33 1018,-1264.33 1018,-593 1018,-536.77 961.85,-493.12 925.91,-469.8"/>
<polygon fill="black" stroke="black" points="927.58,-466.71 917.26,-464.31 923.83,-472.62 927.58,-466.71"/>
</g>
<!-- 9&#45;&gt;50 -->
<g id="edge22" class="edge">
<title>9&#45;&gt;50</title>
<path fill="none" stroke="black" d="M1069.78,-1506.87C1071.8,-1525.24 1072.95,-1555.06 1082,-1578.87 1096.02,-1615.77 1102.28,-1627.38 1134,-1650.87 1138.62,-1654.29 1199.13,-1674.5 1240.89,-1688.95"/>
<polygon fill="black" stroke="black" points="1239.94,-1692.32 1250.54,-1692.3 1242.24,-1685.71 1239.94,-1692.32"/>
</g>
<!-- 9&#45;&gt;63 -->
<g id="edge23" class="edge">
<title>9&#45;&gt;63</title>
<path fill="none" stroke="black" d="M1061.26,-1506.84C1050.04,-1540.44 1016.77,-1618.13 1000,-1686.87 982.86,-1757.15 975.9,-1842.45 970.02,-1885.12"/>
<polygon fill="black" stroke="black" points="966.53,-1884.84 968.51,-1895.25 973.45,-1885.88 966.53,-1884.84"/>
</g>
<!-- 61&#45;&gt;9 -->
<g id="edge154" class="edge">
<title>61&#45;&gt;9</title>
<path fill="none" stroke="black" d="M1407.01,-1550.47C1398.81,-1547.73 1390.12,-1544.92 1382,-1542.87 1284.48,-1518.25 1167.6,-1502.54 1106.18,-1495.05"/>
<polygon fill="black" stroke="black" points="1106.45,-1491.55 1096.1,-1493.83 1105.61,-1498.5 1106.45,-1491.55"/>
</g>
<!-- 61&#45;&gt;39 -->
<g id="edge155" class="edge">
<title>61&#45;&gt;39</title>
<path fill="none" stroke="black" d="M1446.34,-1578.66C1447.4,-1586.46 1447.92,-1595.94 1447.82,-1604.72"/>
<polygon fill="black" stroke="black" points="1444.32,-1604.79 1447.39,-1614.93 1451.31,-1605.08 1444.32,-1604.79"/>
</g>
<!-- 16&#45;&gt;28 -->
<g id="edge36" class="edge">
<title>16&#45;&gt;28</title>
<path fill="none" stroke="black" d="M1065.12,-466.17C1035.37,-489.24 980,-536.48 980,-593 980,-708.9 980,-708.9 980,-708.9 980,-832.92 965.51,-864.38 932,-983.79 866.97,-1215.54 734,-1247.17 734,-1487.87 734,-1705.87 734,-1705.87 734,-1705.87 734,-1837.14 814.07,-1860.98 925,-1931.16 977.48,-1964.36 1022.17,-1917.92 1060,-1967.16 1102.43,-2022.39 1101.58,-2067.99 1060,-2123.86 1019.43,-2178.37 830.1,-2217.98 717.9,-2236.72"/>
<polygon fill="black" stroke="black" points="717.26,-2233.28 707.96,-2238.36 718.39,-2240.19 717.26,-2233.28"/>
</g>
<!-- 16&#45;&gt;9 -->
<g id="edge37" class="edge">
<title>16&#45;&gt;9</title>
<path fill="none" stroke="black" d="M1088.71,-468.05C1092,-494.71 1092,-547.89 1092,-593 1092,-1264.33 1092,-1264.33 1092,-1264.33 1092,-1335.63 1082.28,-1419.27 1073.46,-1461.14"/>
<polygon fill="black" stroke="black" points="1070,-1460.56 1071.18,-1471.09 1076.82,-1462.12 1070,-1460.56"/>
</g>
<!-- 16&#45;&gt;41 -->
<g id="edge38" class="edge">
<title>16&#45;&gt;41</title>
<path fill="none" stroke="black" d="M1106.35,-464.6C1120.57,-474.39 1138.49,-487.81 1152.53,-499.11"/>
<polygon fill="black" stroke="black" points="1150.35,-501.84 1160.3,-505.46 1154.78,-496.42 1150.35,-501.84"/>
</g>
<!-- 16&#45;&gt;35 -->
<g id="edge39" class="edge">
<title>16&#45;&gt;35</title>
<path fill="none" stroke="black" d="M1049.39,-458.72C1020.42,-466.59 978.55,-480.95 948,-504 837.04,-587.7 751.25,-735.03 719.42,-794.65"/>
<polygon fill="black" stroke="black" points="716.18,-793.29 714.61,-803.76 722.37,-796.55 716.18,-793.29"/>
</g>
<!-- 11&#45;&gt;9 -->
<g id="edge27" class="edge">
<title>11&#45;&gt;9</title>
<path fill="none" stroke="black" d="M922.83,-461.31C963.26,-481.29 1036,-528.99 1036,-593 1036,-1264.33 1036,-1264.33 1036,-1264.33 1036,-1335.98 1054.73,-1418.84 1062.3,-1460.68"/>
<polygon fill="black" stroke="black" points="1058.86,-1461.38 1064,-1470.64 1065.76,-1460.2 1058.86,-1461.38"/>
</g>
<!-- 11&#45;&gt;66 -->
<g id="edge28" class="edge">
<title>11&#45;&gt;66</title>
<path fill="none" stroke="black" d="M878.68,-465.04C816.32,-508.45 613.06,-640.55 534.36,-688.91"/>
<polygon fill="black" stroke="black" points="532.11,-686.18 525.4,-694.38 535.76,-692.16 532.11,-686.18"/>
</g>
<!-- 11&#45;&gt;41 -->
<g id="edge29" class="edge">
<title>11&#45;&gt;41</title>
<path fill="none" stroke="black" d="M927.49,-457.63C978.58,-469.71 1080.89,-495.39 1136.71,-510.09"/>
<polygon fill="black" stroke="black" points="1136.01,-513.52 1146.57,-512.7 1137.8,-506.75 1136.01,-513.52"/>
</g>
<!-- 11&#45;&gt;70 -->
<g id="edge30" class="edge">
<title>11&#45;&gt;70</title>
<path fill="none" stroke="black" d="M865.4,-444.13C793.14,-432.22 616.47,-401.5 535.99,-386.92"/>
<polygon fill="black" stroke="black" points="536.22,-383.4 525.75,-385.05 534.97,-390.29 536.22,-383.4"/>
</g>
<!-- 50&#45;&gt;62 -->
<g id="edge135" class="edge">
<title>50&#45;&gt;62</title>
<path fill="none" stroke="black" d="M1273.68,-1722.9C1264.18,-1739.73 1246.89,-1765.61 1232.74,-1784.42"/>
<polygon fill="black" stroke="black" points="1229.83,-1782.45 1226.49,-1792.51 1235.37,-1786.73 1229.83,-1782.45"/>
</g>
<!-- 50&#45;&gt;9 -->
<g id="edge136" class="edge">
<title>50&#45;&gt;9</title>
<path fill="none" stroke="black" d="M1246.46,-1694.81C1199.88,-1680.72 1121.29,-1654.79 1116,-1650.87 1084.28,-1627.38 1078.02,-1615.77 1064,-1578.87 1056.43,-1558.94 1054.39,-1534.79 1055.51,-1516.68"/>
<polygon fill="black" stroke="black" points="1059.02,-1516.84 1056.56,-1506.54 1052.05,-1516.12 1059.02,-1516.84"/>
</g>
<!-- 50&#45;&gt;66 -->
<g id="edge137" class="edge">
<title>50&#45;&gt;66</title>
<path fill="none" stroke="black" d="M1242.82,-1697.91C1202.67,-1690.53 1137.56,-1675.79 1086,-1650.87 988.67,-1603.84 968.43,-1581.26 890,-1506.87 688.82,-1316.06 644.96,-1244.3 550,-983.79 518.33,-896.91 507.76,-786.66 504.43,-736.27"/>
<polygon fill="black" stroke="black" points="507.91,-735.94 503.81,-726.18 500.93,-736.37 507.91,-735.94"/>
</g>
<!-- 50&#45;&gt;39 -->
<g id="edge138" class="edge">
<title>50&#45;&gt;39</title>
<path fill="none" stroke="black" d="M1305.06,-1690.71C1329.35,-1679.52 1366.53,-1663.38 1396.08,-1651.16"/>
<polygon fill="black" stroke="black" points="1397.46,-1654.37 1405.38,-1647.34 1394.8,-1647.9 1397.46,-1654.37"/>
</g>
<!-- 63&#45;&gt;62 -->
<g id="edge163" class="edge">
<title>63&#45;&gt;62</title>
<path fill="none" stroke="black" d="M988.8,-1899.64C1032.44,-1880.52 1120.61,-1844.17 1171.87,-1824.14"/>
<polygon fill="black" stroke="black" points="1173.25,-1827.36 1181.3,-1820.48 1170.71,-1820.84 1173.25,-1827.36"/>
</g>
<!-- 63&#45;&gt;9 -->
<g id="edge164" class="edge">
<title>63&#45;&gt;9</title>
<path fill="none" stroke="black" d="M959.03,-1895.25C956.77,-1857.41 963.37,-1763.26 982,-1686.87 997.55,-1623.12 1027.3,-1551.67 1046.74,-1514.84"/>
<polygon fill="black" stroke="black" points="1049.94,-1516.27 1051.68,-1505.82 1043.8,-1512.9 1049.94,-1516.27"/>
</g>
<!-- 19 -->
<g id="node40" class="node">
<title>19</title>
<ellipse fill="none" stroke="black" cx="638" cy="-2009.51" rx="38.21" ry="38.21"/>
<ellipse fill="none" stroke="black" cx="638" cy="-2009.51" rx="42.19" ry="42.19"/>
<text text-anchor="middle" x="638" y="-2005.81" font-family="Times New Roman,serif" font-size="14.00">device2</text>
</g>
<!-- 63&#45;&gt;19 -->
<g id="edge165" class="edge">
<title>63&#45;&gt;19</title>
<path fill="none" stroke="black" d="M931.54,-1923.55C893.45,-1933.65 827.95,-1950.52 772,-1967.16 744.34,-1975.4 713.57,-1985.56 688.39,-1993.76"/>
<polygon fill="black" stroke="black" points="687.12,-1990.49 678.68,-1996.91 689.28,-1997.15 687.12,-1990.49"/>
</g>
<!-- 23 -->
<g id="node46" class="node">
<title>23</title>
<ellipse fill="none" stroke="black" cx="64" cy="-18" rx="38.19" ry="18"/>
<text text-anchor="middle" x="64" y="-14.3" font-family="Times New Roman,serif" font-size="14.00">device1</text>
</g>
<!-- 63&#45;&gt;23 -->
<g id="edge166" class="edge">
<title>63&#45;&gt;23</title>
<path fill="none" stroke="black" d="M939.44,-1898.61C817.33,-1822.27 264,-1432.61 264,-966.79 264,-966.79 264,-966.79 264,-820.79 264,-636.42 76,-635.37 76,-451 76,-451 76,-451 76,-377 76,-253.33 63.36,-106.04 61.9,-46.24"/>
<polygon fill="black" stroke="black" points="65.39,-46.07 61.76,-36.12 58.39,-46.17 65.39,-46.07"/>
</g>
<!-- 10 -->
<g id="node29" class="node">
<title>10</title>
<ellipse fill="none" stroke="red" cx="1657" cy="-2646.94" rx="37.89" ry="18"/>
<text text-anchor="middle" x="1657" y="-2643.24" font-family="Times New Roman,serif" font-size="14.00">model3</text>
</g>
<!-- 10&#45;&gt;18 -->
<g id="edge25" class="edge">
<title>10&#45;&gt;18</title>
<path fill="none" stroke="black" d="M1674.77,-2630.84C1695.58,-2613.15 1730.28,-2583.66 1754.33,-2563.21"/>
<polygon fill="black" stroke="black" points="1756.69,-2565.8 1762.05,-2556.66 1752.16,-2560.47 1756.69,-2565.8"/>
</g>
<!-- 12 -->
<g id="node30" class="node">
<title>12</title>
<ellipse fill="none" stroke="black" cx="1649" cy="-2539.55" rx="49.3" ry="49.3"/>
<ellipse fill="none" stroke="black" cx="1649" cy="-2539.55" rx="53.29" ry="53.29"/>
<text text-anchor="middle" x="1649" y="-2535.85" font-family="Times New Roman,serif" font-size="14.00">package10</text>
</g>
<!-- 10&#45;&gt;12 -->
<g id="edge26" class="edge">
<title>10&#45;&gt;12</title>
<path fill="none" stroke="black" d="M1655.68,-2628.54C1655.13,-2621.33 1654.46,-2612.48 1653.76,-2603.21"/>
<polygon fill="black" stroke="black" points="1657.23,-2602.74 1652.98,-2593.03 1650.25,-2603.27 1657.23,-2602.74"/>
</g>
<!-- 66&#45;&gt;22 -->
<g id="edge178" class="edge">
<title>66&#45;&gt;22</title>
<path fill="none" stroke="black" d="M534.27,-701.35C635.17,-684.39 953.98,-632.91 1109.73,-608.33"/>
<polygon fill="black" stroke="black" points="1110.42,-611.77 1119.75,-606.76 1109.33,-604.86 1110.42,-611.77"/>
</g>
<!-- 66&#45;&gt;11 -->
<g id="edge176" class="edge">
<title>66&#45;&gt;11</title>
<path fill="none" stroke="black" d="M521.44,-692.77C583.94,-649.28 786.9,-517.38 865.59,-469.02"/>
<polygon fill="black" stroke="black" points="867.84,-471.75 874.55,-463.55 864.19,-465.77 867.84,-471.75"/>
</g>
<!-- 66&#45;&gt;35 -->
<g id="edge179" class="edge">
<title>66&#45;&gt;35</title>
<path fill="none" stroke="black" d="M527.77,-720.2C564.09,-738.65 631.44,-775.55 672.23,-799.16"/>
<polygon fill="black" stroke="black" points="670.6,-802.27 681,-804.28 674.13,-796.22 670.6,-802.27"/>
</g>
<!-- 66&#45;&gt;19 -->
<g id="edge177" class="edge">
<title>66&#45;&gt;19</title>
<path fill="none" stroke="black" d="M509.2,-725.85C512.85,-750.81 514.02,-798.91 516,-839.79 525.1,-1027.78 544,-1074.12 544,-1262.33 544,-1417.87 544,-1417.87 544,-1417.87 544,-1594.25 406.47,-1595.1 341,-1758.87 294.72,-1874.65 286.52,-1901.69 310,-1931.16 311.11,-1932.55 495.04,-1974.23 587.02,-1995.81"/>
<polygon fill="black" stroke="black" points="586.43,-1999.27 596.96,-1998.15 588.03,-1992.45 586.43,-1999.27"/>
</g>
<!-- 66&#45;&gt;42 -->
<g id="edge174" class="edge">
<title>66&#45;&gt;42</title>
<path fill="none" stroke="black" d="M499.69,-689.91C486.6,-625.11 434.47,-388.48 340,-216 334.56,-206.08 327.2,-196.18 320.11,-187.68"/>
<polygon fill="black" stroke="black" points="322.65,-185.26 313.46,-179.99 317.35,-189.84 322.65,-185.26"/>
</g>
<!-- 66&#45;&gt;24 -->
<g id="edge175" class="edge">
<title>66&#45;&gt;24</title>
<path fill="none" stroke="black" d="M471.75,-701.84C399.11,-687.37 226,-639.1 226,-523 226,-523 226,-523 226,-449 226,-409 226,-362.65 228.29,-334.08"/>
<polygon fill="black" stroke="black" points="231.78,-334.35 229.29,-324.05 224.82,-333.65 231.78,-334.35"/>
</g>
<!-- 41&#45;&gt;22 -->
<g id="edge115" class="edge">
<title>41&#45;&gt;22</title>
<path fill="none" stroke="black" d="M1185.86,-539.14C1189.26,-547.09 1192.61,-556.89 1195.09,-565.94"/>
<polygon fill="black" stroke="black" points="1191.7,-566.82 1197.48,-575.7 1198.5,-565.15 1191.7,-566.82"/>
</g>
<!-- 41&#45;&gt;16 -->
<g id="edge112" class="edge">
<title>41&#45;&gt;16</title>
<path fill="none" stroke="black" d="M1152.76,-508.16C1138.49,-498.39 1120.2,-484.72 1105.83,-473.19"/>
<polygon fill="black" stroke="black" points="1107.85,-470.32 1097.89,-466.7 1103.42,-475.74 1107.85,-470.32"/>
</g>
<!-- 41&#45;&gt;11 -->
<g id="edge114" class="edge">
<title>41&#45;&gt;11</title>
<path fill="none" stroke="black" d="M1144.7,-514.41C1093.72,-502.37 991.36,-476.67 935.43,-461.95"/>
<polygon fill="black" stroke="black" points="936.11,-458.51 925.55,-459.34 934.32,-465.28 936.11,-458.51"/>
</g>
<!-- 41&#45;&gt;37 -->
<g id="edge113" class="edge">
<title>41&#45;&gt;37</title>
<path fill="none" stroke="black" d="M1205.31,-514.35C1268.68,-501.49 1415,-473.25 1490.77,-459.23"/>
<polygon fill="black" stroke="black" points="1491.78,-462.61 1500.98,-457.35 1490.51,-455.72 1491.78,-462.61"/>
</g>
<!-- 70&#45;&gt;62 -->
<g id="edge186" class="edge">
<title>70&#45;&gt;62</title>
<path fill="none" stroke="black" d="M505.68,-395.05C529.51,-442.09 582,-584.01 582,-706.9 582,-894.79 582,-894.79 582,-894.79 582,-970.33 947.73,-1553.45 1056,-1650.87 1076.9,-1669.68 1086.78,-1668.44 1108,-1686.87 1142.82,-1717.11 1178.15,-1757.24 1197.33,-1782.85"/>
<polygon fill="black" stroke="black" points="1194.72,-1785.21 1203.41,-1791.27 1200.39,-1781.11 1194.72,-1785.21"/>
</g>
<!-- 70&#45;&gt;31 -->
<g id="edge187" class="edge">
<title>70&#45;&gt;31</title>
<path fill="none" stroke="black" d="M492.01,-396.01C474.13,-460.11 394,-693.47 394,-892.79 394,-1417.87 394,-1417.87 394,-1417.87 394,-1438.38 756.57,-2038.35 772,-2051.86 802.56,-2078.61 832.63,-2054.64 856,-2087.86 900.22,-2150.72 886.6,-2248.32 872.92,-2294.69"/>
<polygon fill="black" stroke="black" points="869.56,-2293.7 869.83,-2304.29 876.22,-2295.84 869.56,-2293.7"/>
</g>
<!-- 70&#45;&gt;11 -->
<g id="edge188" class="edge">
<title>70&#45;&gt;11</title>
<path fill="none" stroke="black" d="M526.49,-383.85C598.72,-395.76 775.69,-426.52 856.14,-441.11"/>
<polygon fill="black" stroke="black" points="855.91,-444.62 866.37,-442.97 857.16,-437.74 855.91,-444.62"/>
</g>
<!-- 70&#45;&gt;43 -->
<g id="edge185" class="edge">
<title>70&#45;&gt;43</title>
<path fill="none" stroke="black" d="M474.4,-392.13C459.11,-401.14 439.23,-414.61 427,-432 307,-602.61 338,-684.21 338,-892.79 338,-1417.87 338,-1417.87 338,-1417.87 338,-1491.2 349.58,-1509.74 374,-1578.87 403.73,-1663.02 424.77,-1678.23 463,-1758.87 524.26,-1888.09 519.43,-1931.08 596,-2051.86 602.11,-2061.49 609.84,-2071.24 616.71,-2079.69"/>
<polygon fill="black" stroke="black" points="614.17,-2082.13 623.2,-2087.67 619.6,-2077.71 614.17,-2082.13"/>
</g>
<!-- 14&#45;&gt;13 -->
<g id="edge34" class="edge">
<title>14&#45;&gt;13</title>
<path fill="none" stroke="black" d="M1887.91,-180.28C1888.71,-188.03 1888.94,-197.36 1888.59,-206.01"/>
<polygon fill="black" stroke="black" points="1885.09,-205.83 1887.88,-216.05 1892.08,-206.33 1885.09,-205.83"/>
</g>
<!-- 14&#45;&gt;14 -->
<g id="edge33" class="edge">
<title>14&#45;&gt;14</title>
<path fill="none" stroke="black" d="M1920.4,-175.14C1939.21,-176.86 1955.9,-172.48 1955.9,-162 1955.9,-153.49 1944.88,-149 1930.66,-148.54"/>
<polygon fill="black" stroke="black" points="1930.28,-145.05 1920.4,-148.86 1930.5,-152.05 1930.28,-145.05"/>
</g>
<!-- 60 -->
<g id="node35" class="node">
<title>60</title>
<ellipse fill="none" stroke="black" cx="1882" cy="-90" rx="46.29" ry="18"/>
<text text-anchor="middle" x="1882" y="-86.3" font-family="Times New Roman,serif" font-size="14.00">interface3</text>
</g>
<!-- 14&#45;&gt;60 -->
<g id="edge35" class="edge">
<title>14&#45;&gt;60</title>
<path fill="none" stroke="black" d="M1876.12,-144.05C1875.3,-136.35 1875.06,-127.03 1875.39,-118.36"/>
<polygon fill="black" stroke="black" points="1878.89,-118.49 1876.09,-108.28 1871.91,-118.01 1878.89,-118.49"/>
</g>
<!-- 60&#45;&gt;14 -->
<g id="edge152" class="edge">
<title>60&#45;&gt;14</title>
<path fill="none" stroke="black" d="M1887.91,-108.28C1888.71,-116.03 1888.94,-125.36 1888.59,-134.01"/>
<polygon fill="black" stroke="black" points="1885.09,-133.83 1887.88,-144.05 1892.08,-134.33 1885.09,-133.83"/>
</g>
<!-- 60&#45;&gt;23 -->
<g id="edge153" class="edge">
<title>60&#45;&gt;23</title>
<path fill="none" stroke="black" d="M1836.15,-87.32C1584.15,-77.85 370.5,-31.12 112.32,-20.95"/>
<polygon fill="black" stroke="black" points="112.27,-17.45 102.14,-20.55 112,-24.44 112.27,-17.45"/>
</g>
<!-- 15 -->
<g id="node36" class="node">
<title>15</title>
<ellipse fill="none" stroke="black" cx="1910" cy="-594" rx="60.39" ry="18"/>
<text text-anchor="middle" x="1910" y="-590.3" font-family="Times New Roman,serif" font-size="14.00">component14</text>
</g>
<!-- 35&#45;&gt;36 -->
<g id="edge89" class="edge">
<title>35&#45;&gt;36</title>
<path fill="none" stroke="black" d="M719.47,-839.89C723.77,-847.75 728.21,-857.25 731.73,-866.02"/>
<polygon fill="black" stroke="black" points="728.48,-867.34 735.25,-875.49 735.04,-864.89 728.48,-867.34"/>
</g>
<!-- 35&#45;&gt;66 -->
<g id="edge90" class="edge">
<title>35&#45;&gt;66</title>
<path fill="none" stroke="black" d="M672.01,-804.76C632.66,-784.37 568.8,-749.22 531.78,-727.62"/>
<polygon fill="black" stroke="black" points="533.37,-724.5 522.98,-722.44 529.82,-730.53 533.37,-724.5"/>
</g>
<!-- 17 -->
<g id="node38" class="node">
<title>17</title>
<ellipse fill="none" stroke="black" cx="1904" cy="-1913.16" rx="55.79" ry="18"/>
<text text-anchor="middle" x="1904" y="-1909.46" font-family="Times New Roman,serif" font-size="14.00">component9</text>
</g>
<!-- 64&#45;&gt;18 -->
<g id="edge167" class="edge">
<title>64&#45;&gt;18</title>
<path fill="none" stroke="black" d="M1772.07,-1858.11C1759.71,-1897.79 1743,-1955.92 1743,-2008.51 1743,-2322.86 1743,-2322.86 1743,-2322.86 1743,-2392.16 1766.45,-2471.19 1777.05,-2511.61"/>
<polygon fill="black" stroke="black" points="1773.71,-2512.66 1779.56,-2521.49 1780.49,-2510.94 1773.71,-2512.66"/>
</g>
<!-- 19&#45;&gt;63 -->
<g id="edge48" class="edge">
<title>19&#45;&gt;63</title>
<path fill="none" stroke="black" d="M676.87,-1992.23C699.33,-1984.32 728.04,-1974.89 754,-1967.16 810.1,-1950.47 875.81,-1933.56 918.49,-1923.47"/>
<polygon fill="black" stroke="black" points="919.35,-1926.86 928.29,-1921.17 917.76,-1920.04 919.35,-1926.86"/>
</g>
<!-- 19&#45;&gt;66 -->
<g id="edge46" class="edge">
<title>19&#45;&gt;66</title>
<path fill="none" stroke="black" d="M596.63,-2000.2C504.92,-1980.53 293.19,-1932.66 292,-1931.16 268.52,-1901.69 276.72,-1874.65 323,-1758.87 388.47,-1595.1 526,-1594.25 526,-1417.87 526,-1417.87 526,-1417.87 526,-1262.33 526,-1074.12 507.1,-1027.78 498,-839.79 496.26,-803.86 495.14,-762.35 496.67,-735.88"/>
<polygon fill="black" stroke="black" points="500.16,-736.09 497.45,-725.85 493.18,-735.54 500.16,-736.09"/>
</g>
<!-- 19&#45;&gt;19 -->
<g id="edge47" class="edge">
<title>19&#45;&gt;19</title>
<path fill="none" stroke="black" d="M676.6,-2027.5C688.75,-2027.23 698.35,-2021.23 698.35,-2009.51 698.35,-2001.27 693.6,-1995.86 686.56,-1993.28"/>
<polygon fill="black" stroke="black" points="687.05,-1989.81 676.6,-1991.52 685.84,-1996.71 687.05,-1989.81"/>
</g>
<!-- 19&#45;&gt;43 -->
<g id="edge45" class="edge">
<title>19&#45;&gt;43</title>
<path fill="none" stroke="black" d="M642.07,-2052C641.65,-2060.6 640.92,-2069.45 639.94,-2077.4"/>
<polygon fill="black" stroke="black" points="636.44,-2077.15 638.46,-2087.55 643.37,-2078.16 636.44,-2077.15"/>
</g>
<!-- 43&#45;&gt;54 -->
<g id="edge118" class="edge">
<title>43&#45;&gt;54</title>
<path fill="none" stroke="black" d="M638.87,-2123.96C640.12,-2131.65 640.88,-2140.91 641.04,-2149.52"/>
<polygon fill="black" stroke="black" points="637.54,-2149.52 640.93,-2159.55 644.54,-2149.6 637.54,-2149.52"/>
</g>
<!-- 43&#45;&gt;70 -->
<g id="edge120" class="edge">
<title>43&#45;&gt;70</title>
<path fill="none" stroke="black" d="M607.83,-2088.14C597.52,-2078.16 586.27,-2064.91 578,-2051.86 501.43,-1931.08 506.26,-1888.09 445,-1758.87 406.77,-1678.23 385.73,-1663.02 356,-1578.87 331.58,-1509.74 320,-1491.2 320,-1417.87 320,-1417.87 320,-1417.87 320,-892.79 320,-684.21 289,-602.61 409,-432 420.97,-414.98 440.28,-401.71 457.69,-392.7"/>
<polygon fill="black" stroke="black" points="459.64,-395.65 467.11,-388.14 456.59,-389.35 459.64,-395.65"/>
</g>
<!-- 43&#45;&gt;19 -->
<g id="edge119" class="edge">
<title>43&#45;&gt;19</title>
<path fill="none" stroke="black" d="M627.74,-2087.55C627.4,-2080.05 627.53,-2070.84 628.03,-2061.43"/>
<polygon fill="black" stroke="black" points="631.54,-2061.42 628.72,-2051.21 624.56,-2060.95 631.54,-2061.42"/>
</g>
<!-- 20 -->
<g id="node42" class="node">
<title>20</title>
<ellipse fill="none" stroke="black" cx="2280" cy="-1809.02" rx="37.89" ry="18"/>
<text text-anchor="middle" x="2280" y="-1805.32" font-family="Times New Roman,serif" font-size="14.00">model9</text>
</g>
<!-- 21 -->
<g id="node43" class="node">
<title>21</title>
<ellipse fill="none" stroke="red" cx="76" cy="-2539.55" rx="38.19" ry="18"/>
<text text-anchor="middle" x="76" y="-2535.85" font-family="Times New Roman,serif" font-size="14.00">device0</text>
</g>
<!-- 21&#45;&gt;8 -->
<g id="edge50" class="edge">
<title>21&#45;&gt;8</title>
<path fill="none" stroke="black" d="M113.46,-2535.5C236.23,-2525.35 637.5,-2491.08 968,-2450.15 1038.98,-2441.36 1121.24,-2428.58 1169.54,-2420.8"/>
<polygon fill="black" stroke="black" points="1170.3,-2424.23 1179.61,-2419.18 1169.18,-2417.32 1170.3,-2424.23"/>
</g>
<!-- 21&#45;&gt;66 -->
<g id="edge51" class="edge">
<title>21&#45;&gt;66</title>
<path fill="none" stroke="black" d="M76,-2521.49C76,-2485.03 76,-2396.81 76,-2322.86 76,-2322.86 76,-2322.86 76,-1703.87 76,-1492.35 314.45,-1552.58 408,-1362.87 463.99,-1249.34 494.04,-845.61 501.27,-736.34"/>
<polygon fill="black" stroke="black" points="504.78,-736.35 501.93,-726.14 497.79,-735.89 504.78,-736.35"/>
</g>
<!-- 21&#45;&gt;42 -->
<g id="edge49" class="edge">
<title>21&#45;&gt;42</title>
<path fill="none" stroke="black" d="M70.95,-2521.67C60.62,-2485.55 38,-2397.95 38,-2322.86 38,-2322.86 38,-2322.86 38,-377 38,-294.59 65.89,-267.79 130,-216 154.13,-196.51 185.53,-184.14 214.59,-176.3"/>
<polygon fill="black" stroke="black" points="215.51,-179.68 224.34,-173.82 213.78,-172.9 215.51,-179.68"/>
</g>
<!-- 21&#45;&gt;25 -->
<g id="edge52" class="edge">
<title>21&#45;&gt;25</title>
<path fill="none" stroke="black" d="M81.05,-2521.67C91.38,-2485.55 114,-2397.95 114,-2322.86 114,-2322.86 114,-2322.86 114,-2104.86 114,-1967.91 274.39,-1866.92 347.94,-1827.81"/>
<polygon fill="black" stroke="black" points="349.64,-1830.87 356.88,-1823.13 346.39,-1824.67 349.64,-1830.87"/>
</g>
<!-- 21&#45;&gt;23 -->
<g id="edge53" class="edge">
<title>21&#45;&gt;23</title>
<path fill="none" stroke="black" d="M65.75,-2521.92C45.01,-2486.64 0,-2401.07 0,-2322.86 0,-2322.86 0,-2322.86 0,-161 0,-116.59 26.34,-70.72 45.22,-43.54"/>
<polygon fill="black" stroke="black" points="48.08,-45.57 51.05,-35.4 42.38,-41.49 48.08,-45.57"/>
</g>
<!-- 42&#45;&gt;36 -->
<g id="edge116" class="edge">
<title>42&#45;&gt;36</title>
<path fill="none" stroke="black" d="M384.97,-169.18C531.64,-182.15 810,-218.53 810,-305 810,-595 810,-595 810,-595 810,-687.9 817.78,-710.91 820,-803.79 820.38,-819.79 827.31,-825.56 820,-839.79 811.16,-856.99 793.87,-869.85 777.24,-878.6"/>
<polygon fill="black" stroke="black" points="775.59,-875.51 768.13,-883.03 778.65,-881.8 775.59,-875.51"/>
</g>
<!-- 71 -->
<g id="node48" class="node">
<title>71</title>
<ellipse fill="none" stroke="black" cx="235" cy="-234" rx="95.58" ry="18"/>
<text text-anchor="middle" x="235" y="-230.3" font-family="Times New Roman,serif" font-size="14.00">executionEnvironment8</text>
</g>
<!-- 42&#45;&gt;71 -->
<g id="edge117" class="edge">
<title>42&#45;&gt;71</title>
<path fill="none" stroke="black" d="M287.86,-179.96C281.05,-188.69 271.67,-199.49 262.64,-209.06"/>
<polygon fill="black" stroke="black" points="259.97,-206.79 255.53,-216.41 265,-211.66 259.97,-206.79"/>
</g>
<!-- 25&#45;&gt;75 -->
<g id="edge62" class="edge">
<title>25&#45;&gt;75</title>
<path fill="none" stroke="black" d="M389.19,-1827.09C390.92,-1842.8 391.21,-1866.38 390.06,-1884.73"/>
<polygon fill="black" stroke="black" points="386.56,-1884.58 389.22,-1894.84 393.54,-1885.16 386.56,-1884.58"/>
</g>
<!-- 25&#45;&gt;25 -->
<g id="edge61" class="edge">
<title>25&#45;&gt;25</title>
<path fill="none" stroke="black" d="M404.9,-1824.92C424.15,-1832.9 444.9,-1827.6 444.9,-1809.02 444.9,-1793.63 430.67,-1787.35 414.85,-1790.18"/>
<polygon fill="black" stroke="black" points="413.5,-1786.93 404.9,-1793.12 415.49,-1793.64 413.5,-1786.93"/>
</g>
<!-- 23&#45;&gt;63 -->
<g id="edge56" class="edge">
<title>23&#45;&gt;63</title>
<path fill="none" stroke="black" d="M69.68,-36.12C79.73,-87.61 94,-245.63 94,-377 94,-451 94,-451 94,-451 94,-635.37 282,-636.42 282,-820.79 282,-966.79 282,-966.79 282,-966.79 282,-1420.16 806.15,-1801.39 934.82,-1891.83"/>
<polygon fill="black" stroke="black" points="932.86,-1894.72 943.06,-1897.6 936.88,-1888.99 932.86,-1894.72"/>
</g>
<!-- 23&#45;&gt;60 -->
<g id="edge57" class="edge">
<title>23&#45;&gt;60</title>
<path fill="none" stroke="black" d="M102.2,-20.39C333.91,-29.08 1549.46,-75.88 1826.01,-86.74"/>
<polygon fill="black" stroke="black" points="1826.08,-90.25 1836.21,-87.15 1826.36,-83.26 1826.08,-90.25"/>
</g>
<!-- 24&#45;&gt;28 -->
<g id="edge58" class="edge">
<title>24&#45;&gt;28</title>
<path fill="none" stroke="black" d="M230.4,-324.06C209.53,-378.47 132,-553.33 132,-706.9 132,-1810.02 132,-1810.02 132,-1810.02 132,-1963.12 147.07,-2038.25 274,-2123.86 362.82,-2183.76 482.98,-2217.39 559.58,-2234.33"/>
<polygon fill="black" stroke="black" points="559.11,-2237.8 569.62,-2236.51 560.59,-2230.96 559.11,-2237.8"/>
</g>
<!-- 24&#45;&gt;66 -->
<g id="edge59" class="edge">
<title>24&#45;&gt;66</title>
<path fill="none" stroke="black" d="M240.71,-324.05C244,-350.71 244,-403.89 244,-449 244,-523 244,-523 244,-523 244,-629.84 390.61,-679.24 463.31,-697.72"/>
<polygon fill="black" stroke="black" points="462.51,-701.12 473.06,-700.12 464.19,-694.33 462.51,-701.12"/>
</g>
<!-- 24&#45;&gt;71 -->
<g id="edge60" class="edge">
<title>24&#45;&gt;71</title>
<path fill="none" stroke="black" d="M229.12,-288.05C228.3,-280.35 228.06,-271.03 228.39,-262.36"/>
<polygon fill="black" stroke="black" points="231.89,-262.49 229.09,-252.28 224.91,-262.01 231.89,-262.49"/>
</g>
<!-- 71&#45;&gt;42 -->
<g id="edge189" class="edge">
<title>71&#45;&gt;42</title>
<path fill="none" stroke="black" d="M244.13,-216.05C250.9,-207.37 260.21,-196.64 269.19,-187.11"/>
<polygon fill="black" stroke="black" points="271.84,-189.41 276.27,-179.79 266.8,-184.55 271.84,-189.41"/>
</g>
<!-- 71&#45;&gt;24 -->
<g id="edge190" class="edge">
<title>71&#45;&gt;24</title>
<path fill="none" stroke="black" d="M240.91,-252.28C241.71,-260.03 241.94,-269.36 241.59,-278.01"/>
<polygon fill="black" stroke="black" points="238.09,-277.83 240.88,-288.05 245.08,-278.33 238.09,-277.83"/>
</g>
<!-- 26 -->
<g id="node49" class="node">
<title>26</title>
<path fill="none" stroke="red" d="M1613,-1927.89C1613,-1929.7 1600.9,-1931.16 1586,-1931.16 1571.1,-1931.16 1559,-1929.7 1559,-1927.89 1559,-1927.89 1559,-1898.44 1559,-1898.44 1559,-1896.63 1571.1,-1895.16 1586,-1895.16 1600.9,-1895.16 1613,-1896.63 1613,-1898.44 1613,-1898.44 1613,-1927.89 1613,-1927.89"/>
<path fill="none" stroke="red" d="M1613,-1927.89C1613,-1926.09 1600.9,-1924.62 1586,-1924.62 1571.1,-1924.62 1559,-1926.09 1559,-1927.89"/>
<text text-anchor="middle" x="1586" y="-1909.46" font-family="Times New Roman,serif" font-size="14.00">node0</text>
</g>
<!-- 26&#45;&gt;62 -->
<g id="edge64" class="edge">
<title>26&#45;&gt;62</title>
<path fill="none" stroke="black" d="M1558.86,-1912.93C1501.21,-1913.48 1363.57,-1908.98 1263,-1859.16 1250.83,-1853.13 1239.56,-1843.29 1230.65,-1833.98"/>
<polygon fill="black" stroke="black" points="1233.07,-1831.44 1223.76,-1826.39 1227.89,-1836.15 1233.07,-1831.44"/>
</g>
<!-- 26&#45;&gt;22 -->
<g id="edge67" class="edge">
<title>26&#45;&gt;22</title>
<path fill="none" stroke="black" d="M1591.06,-1895.05C1607.45,-1838.07 1658,-1649.4 1658,-1489.87 1658,-1489.87 1658,-1489.87 1658,-1108.79 1658,-1068.34 1654.72,-1057.06 1639,-1019.79 1631.53,-1002.07 1622.47,-1001.51 1615,-983.79 1599.28,-946.52 1596,-935.24 1596,-894.79 1596,-894.79 1596,-894.79 1596,-820.79 1596,-678.68 1401.91,-624.97 1284.47,-605.47"/>
<polygon fill="black" stroke="black" points="1284.83,-601.99 1274.4,-603.85 1283.72,-608.9 1284.83,-601.99"/>
</g>
<!-- 26&#45;&gt;11 -->
<g id="edge66" class="edge">
<title>26&#45;&gt;11</title>
<path fill="none" stroke="black" d="M1558.64,-1899.96C1497.58,-1872.23 1346.52,-1800.8 1231,-1722.87 1210.34,-1708.93 1209.65,-1699.22 1188,-1686.87 1146.24,-1663.06 1121.31,-1683.5 1086,-1650.87 774,-1362.58 924,-1133.7 924,-708.9 924,-708.9 924,-708.9 924,-593 924,-552.28 913.15,-506.13 905.21,-477.79"/>
<polygon fill="black" stroke="black" points="908.47,-476.49 902.33,-467.85 901.75,-478.43 908.47,-476.49"/>
</g>
<!-- 26&#45;&gt;64 -->
<g id="edge63" class="edge">
<title>26&#45;&gt;64</title>
<path fill="none" stroke="black" d="M1613.12,-1898.18C1643.32,-1882.6 1692.88,-1857.03 1730.87,-1837.43"/>
<polygon fill="black" stroke="black" points="1732.49,-1840.53 1739.77,-1832.84 1729.28,-1834.31 1732.49,-1840.53"/>
</g>
<!-- 26&#45;&gt;30 -->
<g id="edge65" class="edge">
<title>26&#45;&gt;30</title>
<path fill="none" stroke="black" d="M1583.45,-1895.08C1577.66,-1857.28 1562.59,-1763.84 1544,-1686.87 1517.39,-1576.71 1479.42,-1452.65 1452.12,-1367.61"/>
<polygon fill="black" stroke="black" points="1455.41,-1366.4 1449.02,-1357.96 1448.75,-1368.55 1455.41,-1366.4"/>
</g>
<!-- 30&#45;&gt;59 -->
<g id="edge80" class="edge">
<title>30&#45;&gt;59</title>
<path fill="none" stroke="black" d="M1334.13,-1316.98C1286.03,-1345.44 1228.28,-1378.72 1192.29,-1398.5"/>
<polygon fill="black" stroke="black" points="1190.29,-1395.61 1183.19,-1403.47 1193.64,-1401.75 1190.29,-1395.61"/>
</g>
<!-- 30&#45;&gt;53 -->
<g id="edge79" class="edge">
<title>30&#45;&gt;53</title>
<path fill="none" stroke="black" d="M1448.57,-1168.51C1453.3,-1157.13 1458.01,-1146.32 1462.27,-1137.21"/>
<polygon fill="black" stroke="black" points="1465.51,-1138.55 1466.7,-1128.03 1459.2,-1135.52 1465.51,-1138.55"/>
</g>
<!-- 37&#45;&gt;27 -->
<g id="edge94" class="edge">
<title>37&#45;&gt;27</title>
<path fill="none" stroke="black" d="M1532.12,-432.05C1531.3,-424.35 1531.06,-415.03 1531.39,-406.36"/>
<polygon fill="black" stroke="black" points="1534.89,-406.49 1532.09,-396.28 1527.91,-406.01 1534.89,-406.49"/>
</g>
<!-- 37&#45;&gt;41 -->
<g id="edge95" class="edge">
<title>37&#45;&gt;41</title>
<path fill="none" stroke="black" d="M1502.5,-458.7C1434.89,-472.34 1288.4,-500.58 1216.43,-513.84"/>
<polygon fill="black" stroke="black" points="1215.58,-510.44 1206.37,-515.68 1216.84,-517.32 1215.58,-510.44"/>
</g>
<!-- 48 -->
<g id="node59" class="node">
<title>48</title>
<ellipse fill="none" stroke="black" cx="1642" cy="-378" rx="40.09" ry="18"/>
<text text-anchor="middle" x="1642" y="-374.3" font-family="Times New Roman,serif" font-size="14.00">artifact4</text>
</g>
<!-- 37&#45;&gt;48 -->
<g id="edge93" class="edge">
<title>37&#45;&gt;48</title>
<path fill="none" stroke="black" d="M1555.36,-433.46C1569.71,-422.97 1590.27,-409.05 1607.84,-397.91"/>
<polygon fill="black" stroke="black" points="1610.07,-400.64 1616.7,-392.37 1606.36,-394.7 1610.07,-400.64"/>
</g>
<!-- 33&#45;&gt;62 -->
<g id="edge86" class="edge">
<title>33&#45;&gt;62</title>
<path fill="none" stroke="black" d="M1796.24,-323.84C1807.69,-350.21 1822,-403.02 1822,-449 1822,-523 1822,-523 1822,-523 1822,-655.38 1828,-688.41 1828,-820.79 1828,-966.79 1828,-966.79 1828,-966.79 1828,-1102.42 1752,-1126.71 1752,-1262.33 1752,-1417.87 1752,-1417.87 1752,-1417.87 1752,-1660.98 1386.29,-1769.16 1256.17,-1799.03"/>
<polygon fill="black" stroke="black" points="1255.12,-1795.68 1246.13,-1801.29 1256.65,-1802.51 1255.12,-1795.68"/>
</g>
<!-- 33&#45;&gt;27 -->
<g id="edge87" class="edge">
<title>33&#45;&gt;27</title>
<path fill="none" stroke="black" d="M1750.31,-318.11C1713.36,-328.59 1653.61,-344.9 1602,-360 1596.78,-361.53 1591.3,-363.17 1585.82,-364.81"/>
<polygon fill="black" stroke="black" points="1584.58,-361.53 1576,-367.75 1586.58,-368.24 1584.58,-361.53"/>
</g>
<!-- 33&#45;&gt;33 -->
<g id="edge88" class="edge">
<title>33&#45;&gt;33</title>
<path fill="none" stroke="black" d="M1817.01,-318.99C1833.87,-321.09 1849.15,-316.76 1849.15,-306 1849.15,-297.51 1839.64,-293.03 1827.34,-292.54"/>
<polygon fill="black" stroke="black" points="1826.84,-289.06 1817.01,-293.01 1827.16,-296.06 1826.84,-289.06"/>
</g>
<!-- 29 -->
<g id="node53" class="node">
<title>29</title>
<ellipse fill="none" stroke="red" cx="2637" cy="-2009.51" rx="50.09" ry="18"/>
<text text-anchor="middle" x="2637" y="-2005.81" font-family="Times New Roman,serif" font-size="14.00">interface11</text>
</g>
<!-- 29&#45;&gt;1 -->
<g id="edge78" class="edge">
<title>29&#45;&gt;1</title>
<path fill="none" stroke="black" d="M2647.7,-1991.81C2656.73,-1976.67 2668.96,-1953.38 2674,-1931.16 2677.54,-1915.56 2676.02,-1911.04 2674,-1895.16 2637.49,-1607.9 2511,-1553.91 2511,-1264.33 2511,-1264.33 2511,-1264.33 2511,-820.79 2511,-747.58 2487.5,-663.67 2474.09,-621.76"/>
<polygon fill="black" stroke="black" points="2477.35,-620.46 2470.92,-612.04 2470.69,-622.63 2477.35,-620.46"/>
</g>
<!-- 34 -->
<g id="node54" class="node">
<title>34</title>
<ellipse fill="none" stroke="black" cx="2621" cy="-1913.16" rx="44.39" ry="18"/>
<text text-anchor="middle" x="2621" y="-1909.46" font-family="Times New Roman,serif" font-size="14.00">artifact11</text>
</g>
<!-- 29&#45;&gt;34 -->
<g id="edge77" class="edge">
<title>29&#45;&gt;34</title>
<path fill="none" stroke="black" d="M2634.07,-1991.21C2631.7,-1977.24 2628.32,-1957.35 2625.6,-1941.27"/>
<polygon fill="black" stroke="black" points="2629.04,-1940.63 2623.92,-1931.36 2622.14,-1941.8 2629.04,-1940.63"/>
</g>
<!-- 53&#45;&gt;62 -->
<g id="edge144" class="edge">
<title>53&#45;&gt;62</title>
<path fill="none" stroke="black" d="M1507.11,-1126.99C1518.66,-1136.43 1530.34,-1149.32 1536,-1163.79 1614.95,-1365.49 1637.23,-1468.74 1520,-1650.87 1504.02,-1675.71 1328.35,-1758.35 1249.13,-1792.77"/>
<polygon fill="black" stroke="black" points="1247.31,-1789.74 1239.52,-1796.91 1250.08,-1796.17 1247.31,-1789.74"/>
</g>
<!-- 53&#45;&gt;30 -->
<g id="edge145" class="edge">
<title>53&#45;&gt;30</title>
<path fill="none" stroke="black" d="M1475.68,-1127.95C1472.94,-1137.32 1468.67,-1149.78 1463.66,-1163.33"/>
<polygon fill="black" stroke="black" points="1460.32,-1162.27 1460.07,-1172.87 1466.87,-1164.74 1460.32,-1162.27"/>
</g>
<!-- 47 -->
<g id="node64" class="node">
<title>47</title>
<ellipse fill="none" stroke="black" cx="1586" cy="-1037.79" rx="44.39" ry="18"/>
<text text-anchor="middle" x="1586" y="-1034.09" font-family="Times New Roman,serif" font-size="14.00">artifact10</text>
</g>
<!-- 53&#45;&gt;47 -->
<g id="edge146" class="edge">
<title>53&#45;&gt;47</title>
<path fill="none" stroke="black" d="M1498.01,-1092.02C1512.84,-1081.69 1533.25,-1068.42 1550.74,-1057.71"/>
<polygon fill="black" stroke="black" points="1552.83,-1060.54 1559.58,-1052.37 1549.21,-1054.55 1552.83,-1060.54"/>
</g>
<!-- 32 -->
<g id="node56" class="node">
<title>32</title>
<ellipse fill="none" stroke="red" cx="920" cy="-2009.51" rx="37.89" ry="18"/>
<text text-anchor="middle" x="920" y="-2005.81" font-family="Times New Roman,serif" font-size="14.00">model5</text>
</g>
<!-- 67 -->
<g id="node57" class="node">
<title>67</title>
<path fill="none" stroke="black" d="M775,-1927.89C775,-1929.7 762,-1931.16 746,-1931.16 730,-1931.16 717,-1929.7 717,-1927.89 717,-1927.89 717,-1898.44 717,-1898.44 717,-1896.63 730,-1895.16 746,-1895.16 762,-1895.16 775,-1896.63 775,-1898.44 775,-1898.44 775,-1927.89 775,-1927.89"/>
<path fill="none" stroke="black" d="M775,-1927.89C775,-1926.09 762,-1924.62 746,-1924.62 730,-1924.62 717,-1926.09 717,-1927.89"/>
<text text-anchor="middle" x="746" y="-1909.46" font-family="Times New Roman,serif" font-size="14.00">model8</text>
</g>
<!-- 32&#45;&gt;67 -->
<g id="edge84" class="edge">
<title>32&#45;&gt;67</title>
<path fill="none" stroke="black" d="M904.93,-1992.97C896.18,-1984.55 884.61,-1974.42 873,-1967.16 865.04,-1962.19 818.95,-1943.34 784.58,-1929.53"/>
<polygon fill="black" stroke="black" points="785.82,-1926.25 775.23,-1925.78 783.21,-1932.75 785.82,-1926.25"/>
</g>
<!-- 32&#45;&gt;57 -->
<g id="edge85" class="edge">
<title>32&#45;&gt;57</title>
<path fill="none" stroke="black" d="M905.81,-1992.55C897.16,-1983.78 885.41,-1973.44 873,-1967.16 801.6,-1931.06 667.59,-1964.22 708,-1895.16 770.77,-1787.91 919.07,-1736.78 996.32,-1716.69"/>
<polygon fill="black" stroke="black" points="997.44,-1720.02 1006.28,-1714.17 995.72,-1713.23 997.44,-1720.02"/>
</g>
<!-- 48&#45;&gt;37 -->
<g id="edge133" class="edge">
<title>48&#45;&gt;37</title>
<path fill="none" stroke="black" d="M1624.62,-394.55C1610.18,-405.11 1589.47,-419.12 1571.86,-430.29"/>
<polygon fill="black" stroke="black" points="1569.6,-427.57 1562.97,-435.83 1573.31,-433.51 1569.6,-427.57"/>
</g>
<!-- 44 -->
<g id="node67" class="node">
<title>44</title>
<ellipse fill="none" stroke="black" cx="1667" cy="-306" rx="40.09" ry="18"/>
<text text-anchor="middle" x="1667" y="-302.3" font-family="Times New Roman,serif" font-size="14.00">artifact0</text>
</g>
<!-- 48&#45;&gt;44 -->
<g id="edge134" class="edge">
<title>48&#45;&gt;44</title>
<path fill="none" stroke="black" d="M1642.26,-359.7C1644.32,-351.61 1647.61,-341.81 1651.22,-332.87"/>
<polygon fill="black" stroke="black" points="1654.46,-334.19 1655.22,-323.62 1648.04,-331.41 1654.46,-334.19"/>
</g>
<!-- 38 -->
<g id="node60" class="node">
<title>38</title>
<ellipse fill="none" stroke="red" cx="1781" cy="-2718.94" rx="55.79" ry="18"/>
<text text-anchor="middle" x="1781" y="-2715.24" font-family="Times New Roman,serif" font-size="14.00">component2</text>
</g>
<!-- 38&#45;&gt;0 -->
<g id="edge96" class="edge">
<title>38&#45;&gt;0</title>
<path fill="none" stroke="black" d="M1781,-2700.64C1781,-2692.93 1781,-2683.66 1781,-2675.06"/>
<polygon fill="black" stroke="black" points="1784.5,-2675.05 1781,-2665.05 1777.5,-2675.05 1784.5,-2675.05"/>
</g>
<!-- 38&#45;&gt;74 -->
<g id="edge101" class="edge">
<title>38&#45;&gt;74</title>
<path fill="none" stroke="black" d="M1728.91,-2712.35C1669.58,-2704.88 1577.78,-2689.66 1554,-2664.94 1514.96,-2624.36 1530,-2596.85 1530,-2540.55 1530,-2540.55 1530,-2540.55 1530,-1808.02 1530,-1709.29 1437.19,-1725.88 1373,-1650.87 1355.36,-1630.26 1337.32,-1605.18 1324.73,-1586.9"/>
<polygon fill="black" stroke="black" points="1327.55,-1584.81 1319.02,-1578.52 1321.76,-1588.76 1327.55,-1584.81"/>
</g>
<!-- 38&#45;&gt;13 -->
<g id="edge99" class="edge">
<title>38&#45;&gt;13</title>
<path fill="none" stroke="black" d="M1834.8,-2713.65C2035.76,-2696.92 2731,-2632.41 2731,-2540.55 2731,-2540.55 2731,-2540.55 2731,-2008.51 2731,-1366.94 2799.98,-1168.12 2553,-576 2451.25,-332.06 2091.39,-260.72 1944.82,-241.52"/>
<polygon fill="black" stroke="black" points="1945,-238.02 1934.64,-240.23 1944.12,-244.96 1945,-238.02"/>
</g>
<!-- 38&#45;&gt;17 -->
<g id="edge98" class="edge">
<title>38&#45;&gt;17</title>
<path fill="none" stroke="black" d="M1818.12,-2705.23C1877.2,-2682.36 1986,-2628.33 1986,-2540.55 1986,-2540.55 1986,-2540.55 1986,-2104.86 1986,-2040.48 1969.74,-2024.78 1941,-1967.16 1936.19,-1957.52 1929.79,-1947.66 1923.66,-1939.1"/>
<polygon fill="black" stroke="black" points="1926.45,-1936.99 1917.69,-1931.02 1920.82,-1941.15 1926.45,-1936.99"/>
</g>
<!-- 38&#45;&gt;25 -->
<g id="edge100" class="edge">
<title>38&#45;&gt;25</title>
<path fill="none" stroke="black" d="M1730.96,-2710.9C1561.53,-2685.26 998.35,-2585.2 609,-2339.86 568.53,-2314.36 553.52,-2308.93 529,-2267.86 442.89,-2123.62 538.19,-2046.85 466,-1895.16 453.92,-1869.77 431.28,-1847.17 412.84,-1831.65"/>
<polygon fill="black" stroke="black" points="414.69,-1828.63 404.72,-1825.03 410.26,-1834.06 414.69,-1828.63"/>
</g>
<!-- 68 -->
<g id="node61" class="node">
<title>68</title>
<ellipse fill="none" stroke="black" cx="2024" cy="-1913.16" rx="46.29" ry="18"/>
<text text-anchor="middle" x="2024" y="-1909.46" font-family="Times New Roman,serif" font-size="14.00">interface4</text>
</g>
<!-- 38&#45;&gt;68 -->
<g id="edge97" class="edge">
<title>38&#45;&gt;68</title>
<path fill="none" stroke="black" d="M1827.88,-2708.92C1860.11,-2701.09 1902.74,-2687.39 1935,-2664.94 1990.8,-2626.12 2024,-2608.53 2024,-2540.55 2024,-2540.55 2024,-2540.55 2024,-2104.86 2024,-2046.8 2024,-1978.81 2024,-1941.73"/>
<polygon fill="black" stroke="black" points="2027.5,-1941.26 2024,-1931.26 2020.5,-1941.26 2027.5,-1941.26"/>
</g>
<!-- 51 -->
<g id="node62" class="node">
<title>51</title>
<ellipse fill="none" stroke="black" cx="1684" cy="-965.79" rx="60.39" ry="18"/>
<text text-anchor="middle" x="1684" y="-962.09" font-family="Times New Roman,serif" font-size="14.00">component12</text>
</g>
<!-- 38&#45;&gt;51 -->
<g id="edge102" class="edge">
<title>38&#45;&gt;51</title>
<path fill="none" stroke="black" d="M1726.92,-2714.09C1689.49,-2708.65 1641.01,-2695.69 1610,-2664.94 1586.14,-2641.29 1592.17,-2626.14 1587,-2592.94 1506.24,-2074.7 1696,-1942.37 1696,-1417.87 1696,-1417.87 1696,-1417.87 1696,-1108.79 1696,-1068.64 1691.18,-1022.34 1687.65,-993.81"/>
<polygon fill="black" stroke="black" points="1691.11,-993.28 1686.37,-983.8 1684.16,-994.16 1691.11,-993.28"/>
</g>
<!-- 51&#45;&gt;36 -->
<g id="edge139" class="edge">
<title>51&#45;&gt;36</title>
<path fill="none" stroke="black" d="M1626.19,-960.52C1453.56,-947.76 944,-910.09 784.97,-898.34"/>
<polygon fill="black" stroke="black" points="784.8,-894.81 774.57,-897.57 784.29,-901.8 784.8,-894.81"/>
</g>
<!-- 51&#45;&gt;47 -->
<g id="edge140" class="edge">
<title>51&#45;&gt;47</title>
<path fill="none" stroke="black" d="M1666.82,-983.22C1653.74,-993.37 1635.54,-1006.44 1619.66,-1017.13"/>
<polygon fill="black" stroke="black" points="1617.52,-1014.35 1611.12,-1022.79 1621.39,-1020.18 1617.52,-1014.35"/>
</g>
<!-- 51&#45;&gt;44 -->
<g id="edge141" class="edge">
<title>51&#45;&gt;44</title>
<path fill="none" stroke="black" d="M1685.27,-947.7C1696.27,-889.07 1748,-690.53 1748,-523 1748,-523 1748,-523 1748,-449 1748,-406.81 1738.42,-395.09 1715,-360 1707.56,-348.85 1697.32,-338.38 1688.1,-329.74"/>
<polygon fill="black" stroke="black" points="1690.41,-327.11 1680.68,-322.94 1685.69,-332.27 1690.41,-327.11"/>
</g>
<!-- 39&#45;&gt;74 -->
<g id="edge105" class="edge">
<title>39&#45;&gt;74</title>
<path fill="none" stroke="black" d="M1409.33,-1617.71C1388.4,-1607.48 1361.45,-1593.51 1340.55,-1582.11"/>
<polygon fill="black" stroke="black" points="1342.15,-1578.99 1331.7,-1577.23 1338.77,-1585.12 1342.15,-1578.99"/>
</g>
<!-- 39&#45;&gt;61 -->
<g id="edge103" class="edge">
<title>39&#45;&gt;61</title>
<path fill="none" stroke="black" d="M1435.64,-1614.93C1434.6,-1607.22 1434.09,-1597.9 1434.18,-1589.24"/>
<polygon fill="black" stroke="black" points="1437.68,-1589.28 1434.58,-1579.15 1430.68,-1589 1437.68,-1589.28"/>
</g>
<!-- 39&#45;&gt;50 -->
<g id="edge104" class="edge">
<title>39&#45;&gt;50</title>
<path fill="none" stroke="black" d="M1413.19,-1648.76C1387.14,-1660.66 1348.75,-1677.24 1319.8,-1689.11"/>
<polygon fill="black" stroke="black" points="1318.32,-1685.93 1310.38,-1692.94 1320.96,-1692.41 1318.32,-1685.93"/>
</g>
<!-- 39&#45;&gt;47 -->
<g id="edge106" class="edge">
<title>39&#45;&gt;47</title>
<path fill="none" stroke="black" d="M1453.06,-1614.95C1461.78,-1605.29 1473.02,-1592.43 1480,-1578.87 1504.05,-1532.14 1559.98,-1249.25 1574,-1127.79 1576.38,-1107.19 1577.09,-1083.74 1578.52,-1066.08"/>
<polygon fill="black" stroke="black" points="1582.02,-1066.21 1579.53,-1055.91 1575.06,-1065.52 1582.02,-1066.21"/>
</g>
<!-- 47&#45;&gt;53 -->
<g id="edge130" class="edge">
<title>47&#45;&gt;53</title>
<path fill="none" stroke="black" d="M1567.8,-1054.29C1553.95,-1064.01 1534.6,-1076.68 1517.35,-1087.36"/>
<polygon fill="black" stroke="black" points="1515.26,-1084.53 1508.56,-1092.73 1518.92,-1090.5 1515.26,-1084.53"/>
</g>
<!-- 47&#45;&gt;51 -->
<g id="edge132" class="edge">
<title>47&#45;&gt;51</title>
<path fill="none" stroke="black" d="M1602.48,-1020.91C1615.07,-1011.1 1632.67,-998.42 1648.35,-987.79"/>
<polygon fill="black" stroke="black" points="1650.46,-990.6 1656.83,-982.13 1646.57,-984.77 1650.46,-990.6"/>
</g>
<!-- 47&#45;&gt;39 -->
<g id="edge131" class="edge">
<title>47&#45;&gt;39</title>
<path fill="none" stroke="black" d="M1592.92,-1055.58C1595.32,-1073.52 1594.89,-1102.76 1592,-1127.79 1577.98,-1249.25 1522.05,-1532.14 1498,-1578.87 1492.28,-1589.98 1483.71,-1600.61 1474.87,-1609.4"/>
<polygon fill="black" stroke="black" points="1472.38,-1606.95 1467.45,-1616.32 1477.15,-1612.06 1472.38,-1606.95"/>
</g>
<!-- 40 -->
<g id="node65" class="node">
<title>40</title>
<ellipse fill="none" stroke="red" cx="922" cy="-2413.01" rx="33.28" ry="33.28"/>
<ellipse fill="none" stroke="red" cx="922" cy="-2413.01" rx="37.29" ry="37.29"/>
<text text-anchor="middle" x="922" y="-2409.31" font-family="Times New Roman,serif" font-size="14.00">node1</text>
</g>
<!-- 40&#45;&gt;3 -->
<g id="edge108" class="edge">
<title>40&#45;&gt;3</title>
<path fill="none" stroke="black" d="M886.93,-2400.49C796.2,-2370.51 558.7,-2290.78 529,-2267.86 445.22,-2203.19 385.43,-2088.27 361.53,-2036.76"/>
<polygon fill="black" stroke="black" points="364.7,-2035.27 357.36,-2027.62 358.33,-2038.17 364.7,-2035.27"/>
</g>
<!-- 40&#45;&gt;56 -->
<g id="edge109" class="edge">
<title>40&#45;&gt;56</title>
<path fill="none" stroke="black" d="M959.27,-2410.13C1007.8,-2405.66 1092.07,-2390.56 1140,-2339.86 1168.14,-2310.09 1164,-2291.83 1164,-2250.86 1164,-2250.86 1164,-2250.86 1164,-2104.86 1164,-1902.34 1139.35,-1852.88 1125,-1650.87 1123.53,-1630.16 1122.23,-1606.72 1121.32,-1589.09"/>
<polygon fill="black" stroke="black" points="1124.81,-1588.76 1120.81,-1578.94 1117.82,-1589.11 1124.81,-1588.76"/>
</g>
<!-- 40&#45;&gt;59 -->
<g id="edge111" class="edge">
<title>40&#45;&gt;59</title>
<path fill="none" stroke="black" d="M957.53,-2401.9C1015.98,-2382.84 1126,-2335.71 1126,-2250.86 1126,-2250.86 1126,-2250.86 1126,-2104.86 1126,-2042.74 1120.33,-2026.52 1102,-1967.16 1062.46,-1839.14 981.46,-1820.52 991,-1686.87 997.91,-1590.14 961.71,-1546.84 1022,-1470.87 1043.73,-1443.5 1081.51,-1430.24 1111.75,-1423.83"/>
<polygon fill="black" stroke="black" points="1112.53,-1427.24 1121.68,-1421.91 1111.2,-1420.37 1112.53,-1427.24"/>
</g>
<!-- 40&#45;&gt;31 -->
<g id="edge107" class="edge">
<title>40&#45;&gt;31</title>
<path fill="none" stroke="black" d="M901.35,-2381.82C893.68,-2370.62 885.08,-2358.05 877.8,-2347.41"/>
<polygon fill="black" stroke="black" points="880.57,-2345.27 872.04,-2338.99 874.8,-2349.22 880.57,-2345.27"/>
</g>
<!-- 49 -->
<g id="node66" class="node">
<title>49</title>
<ellipse fill="none" stroke="black" cx="818" cy="-2009.51" rx="46.29" ry="18"/>
<text text-anchor="middle" x="818" y="-2005.81" font-family="Times New Roman,serif" font-size="14.00">interface1</text>
</g>
<!-- 40&#45;&gt;49 -->
<g id="edge110" class="edge">
<title>40&#45;&gt;49</title>
<path fill="none" stroke="black" d="M922,-2375.84C922,-2343.18 922,-2293.8 922,-2250.86 922,-2250.86 922,-2250.86 922,-2176.86 922,-2135.89 918.81,-2123.15 898,-2087.86 885.1,-2065.98 864.34,-2046.17 847.21,-2032.08"/>
<polygon fill="black" stroke="black" points="849.14,-2029.14 839.14,-2025.63 844.77,-2034.61 849.14,-2029.14"/>
</g>
<!-- 44&#45;&gt;48 -->
<g id="edge121" class="edge">
<title>44&#45;&gt;48</title>
<path fill="none" stroke="black" d="M1666.7,-324.45C1664.64,-332.53 1661.35,-342.29 1657.75,-351.2"/>
<polygon fill="black" stroke="black" points="1654.53,-349.84 1653.76,-360.41 1660.95,-352.62 1654.53,-349.84"/>
</g>
<!-- 44&#45;&gt;51 -->
<g id="edge122" class="edge">
<title>44&#45;&gt;51</title>
<path fill="none" stroke="black" d="M1692.56,-320.09C1706.44,-329.89 1722.5,-344.26 1733,-360 1756.42,-395.09 1766,-406.81 1766,-449 1766,-523 1766,-523 1766,-523 1766,-682.35 1719.2,-869.75 1695.92,-938.13"/>
<polygon fill="black" stroke="black" points="1692.57,-937.1 1692.53,-947.7 1699.17,-939.44 1692.57,-937.1"/>
</g>
<!-- 45 -->
<g id="node68" class="node">
<title>45</title>
<ellipse fill="none" stroke="red" cx="1882" cy="-2009.51" rx="50.09" ry="18"/>
<text text-anchor="middle" x="1882" y="-2005.81" font-family="Times New Roman,serif" font-size="14.00">interface10</text>
</g>
<!-- 45&#45;&gt;15 -->
<g id="edge124" class="edge">
<title>45&#45;&gt;15</title>
<path fill="none" stroke="black" d="M1867.61,-1992.14C1849.91,-1969.89 1823.93,-1929 1839,-1895.16 1848.73,-1873.32 1868.08,-1880.44 1879,-1859.16 1925.01,-1769.54 1904,-1734.62 1904,-1633.87 1904,-1633.87 1904,-1633.87 1904,-820.79 1904,-749.18 1907.05,-664.85 1908.8,-622.38"/>
<polygon fill="black" stroke="black" points="1912.3,-622.41 1909.23,-612.28 1905.31,-622.12 1912.3,-622.41"/>
</g>
<!-- 45&#45;&gt;17 -->
<g id="edge123" class="edge">
<title>45&#45;&gt;17</title>
<path fill="none" stroke="black" d="M1886.04,-1991.21C1889.29,-1977.24 1893.93,-1957.35 1897.68,-1941.27"/>
<polygon fill="black" stroke="black" points="1901.13,-1941.89 1899.99,-1931.36 1894.31,-1940.3 1901.13,-1941.89"/>
</g>
<!-- 46 -->
<g id="node69" class="node">
<title>46</title>
<ellipse fill="none" stroke="red" cx="2098" cy="-2009.51" rx="40.09" ry="18"/>
<text text-anchor="middle" x="2098" y="-2005.81" font-family="Times New Roman,serif" font-size="14.00">artifact5</text>
</g>
<!-- 46&#45;&gt;17 -->
<g id="edge126" class="edge">
<title>46&#45;&gt;17</title>
<path fill="none" stroke="black" d="M2071.84,-1995.79C2038.66,-1979.65 1981.16,-1951.69 1942.85,-1933.06"/>
<polygon fill="black" stroke="black" points="1944.07,-1929.76 1933.55,-1928.54 1941.01,-1936.06 1944.07,-1929.76"/>
</g>
<!-- 46&#45;&gt;68 -->
<g id="edge125" class="edge">
<title>46&#45;&gt;68</title>
<path fill="none" stroke="black" d="M2085.11,-1992.08C2073.61,-1977.42 2056.62,-1955.75 2043.47,-1938.99"/>
<polygon fill="black" stroke="black" points="2045.92,-1936.44 2036.99,-1930.73 2040.41,-1940.76 2045.92,-1936.44"/>
</g>
<!-- 46&#45;&gt;51 -->
<g id="edge129" class="edge">
<title>46&#45;&gt;51</title>
<path fill="none" stroke="black" d="M2098.53,-1991.25C2098.52,-1967.99 2095.86,-1925.97 2079,-1895.16 1995.85,-1743.28 1790,-1807.03 1790,-1633.87 1790,-1633.87 1790,-1633.87 1790,-1262.33 1790,-1157.1 1729.72,-1042.5 1700.07,-992.52"/>
<polygon fill="black" stroke="black" points="1702.91,-990.44 1694.75,-983.68 1696.91,-994.05 1702.91,-990.44"/>
</g>
<!-- 55 -->
<g id="node70" class="node">
<title>55</title>
<ellipse fill="none" stroke="black" cx="2280" cy="-1913.16" rx="60.39" ry="18"/>
<text text-anchor="middle" x="2280" y="-1909.46" font-family="Times New Roman,serif" font-size="14.00">component15</text>
</g>
<!-- 46&#45;&gt;55 -->
<g id="edge127" class="edge">
<title>46&#45;&gt;55</title>
<path fill="none" stroke="black" d="M2123.31,-1995.39C2154.15,-1979.4 2206.55,-1952.24 2242.19,-1933.77"/>
<polygon fill="black" stroke="black" points="2244.04,-1936.75 2251.31,-1929.04 2240.82,-1930.53 2244.04,-1936.75"/>
</g>
<!-- 58 -->
<g id="node71" class="node">
<title>58</title>
<ellipse fill="none" stroke="black" cx="2164" cy="-1913.16" rx="37.89" ry="18"/>
<text text-anchor="middle" x="2164" y="-1909.46" font-family="Times New Roman,serif" font-size="14.00">model2</text>
</g>
<!-- 46&#45;&gt;58 -->
<g id="edge128" class="edge">
<title>46&#45;&gt;58</title>
<path fill="none" stroke="black" d="M2109.5,-1992.08C2119.81,-1977.33 2135.09,-1955.49 2146.85,-1938.68"/>
<polygon fill="black" stroke="black" points="2149.77,-1940.61 2152.64,-1930.41 2144.04,-1936.6 2149.77,-1940.61"/>
</g>
<!-- 58&#45;&gt;20 -->
<g id="edge149" class="edge">
<title>58&#45;&gt;20</title>
<path fill="none" stroke="black" d="M2181.12,-1897.09C2200.65,-1879.89 2232.77,-1851.61 2255.08,-1831.96"/>
<polygon fill="black" stroke="black" points="2257.62,-1834.39 2262.81,-1825.15 2253,-1829.13 2257.62,-1834.39"/>
</g>
<!-- 52 -->
<g id="node72" class="node">
<title>52</title>
<ellipse fill="none" stroke="red" cx="792" cy="-2105.86" rx="46.29" ry="18"/>
<text text-anchor="middle" x="792" y="-2102.16" font-family="Times New Roman,serif" font-size="14.00">interface7</text>
</g>
<!-- 52&#45;&gt;19 -->
<g id="edge142" class="edge">
<title>52&#45;&gt;19</title>
<path fill="none" stroke="black" d="M768.27,-2090.32C745.51,-2076.38 710.56,-2054.97 682.59,-2037.83"/>
<polygon fill="black" stroke="black" points="684.14,-2034.67 673.78,-2032.43 680.48,-2040.64 684.14,-2034.67"/>
</g>
<!-- 52&#45;&gt;49 -->
<g id="edge143" class="edge">
<title>52&#45;&gt;49</title>
<path fill="none" stroke="black" d="M796.77,-2087.55C800.62,-2073.59 806.1,-2053.69 810.53,-2037.62"/>
<polygon fill="black" stroke="black" points="813.98,-2038.28 813.26,-2027.71 807.23,-2036.42 813.98,-2038.28"/>
</g>
<!-- 65 -->
<g id="node73" class="node">
<title>65</title>
<ellipse fill="none" stroke="red" cx="2151" cy="-707.9" rx="55.8" ry="55.8"/>
<ellipse fill="none" stroke="red" cx="2151" cy="-707.9" rx="59.79" ry="59.79"/>
<text text-anchor="middle" x="2151" y="-704.2" font-family="Times New Roman,serif" font-size="14.00">component6</text>
</g>
<!-- 65&#45;&gt;1 -->
<g id="edge171" class="edge">
<title>65&#45;&gt;1</title>
<path fill="none" stroke="black" d="M2207.14,-686.89C2267.71,-665.3 2363.02,-631.34 2419.23,-611.31"/>
<polygon fill="black" stroke="black" points="2420.67,-614.51 2428.91,-607.86 2418.32,-607.92 2420.67,-614.51"/>
</g>
<!-- 65&#45;&gt;22 -->
<g id="edge172" class="edge">
<title>65&#45;&gt;22</title>
<path fill="none" stroke="black" d="M2091.32,-699.9C1928.42,-680.79 1475.55,-627.67 1284.16,-605.22"/>
<polygon fill="black" stroke="black" points="1284.48,-601.74 1274.15,-604.05 1283.67,-608.69 1284.48,-601.74"/>
</g>
<!-- 65&#45;&gt;16 -->
<g id="edge168" class="edge">
<title>65&#45;&gt;16</title>
<path fill="none" stroke="black" d="M2109,-664.96C2076.4,-635.05 2028.54,-596.63 1979,-576 1822.58,-510.87 1293.35,-466.73 1130.85,-454.47"/>
<polygon fill="black" stroke="black" points="1130.92,-450.96 1120.69,-453.7 1130.4,-457.94 1130.92,-450.96"/>
</g>
<!-- 65&#45;&gt;14 -->
<g id="edge169" class="edge">
<title>65&#45;&gt;14</title>
<path fill="none" stroke="black" d="M2201.85,-675.3C2246.71,-643.08 2305,-588.59 2305,-523 2305,-523 2305,-523 2305,-305 2305,-229.63 2060.63,-186.8 1943.37,-170.59"/>
<polygon fill="black" stroke="black" points="1943.83,-167.12 1933.45,-169.23 1942.88,-174.05 1943.83,-167.12"/>
</g>
<!-- 65&#45;&gt;60 -->
<g id="edge173" class="edge">
<title>65&#45;&gt;60</title>
<path fill="none" stroke="black" d="M2208.15,-689.22C2276.27,-664.18 2381,-611.32 2381,-523 2381,-523 2381,-523 2381,-233 2381,-141.58 2067.22,-105.86 1937.3,-94.98"/>
<polygon fill="black" stroke="black" points="1937.42,-91.48 1927.16,-94.15 1936.84,-98.46 1937.42,-91.48"/>
</g>
<!-- 65&#45;&gt;15 -->
<g id="edge170" class="edge">
<title>65&#45;&gt;15</title>
<path fill="none" stroke="black" d="M2096.91,-681.78C2052.59,-661.2 1990.83,-632.53 1950.63,-613.87"/>
<polygon fill="black" stroke="black" points="1951.95,-610.62 1941.4,-609.58 1949,-616.97 1951.95,-610.62"/>
</g>
<!-- 69 -->
<g id="node74" class="node">
<title>69</title>
<ellipse fill="none" stroke="red" cx="1009" cy="-2009.51" rx="33.29" ry="18"/>
<text text-anchor="middle" x="1009" y="-2005.81" font-family="Times New Roman,serif" font-size="14.00">node5</text>
</g>
<!-- 69&#45;&gt;75 -->
<g id="edge180" class="edge">
<title>69&#45;&gt;75</title>
<path fill="none" stroke="black" d="M997.26,-1992.39C989.71,-1983.33 979.07,-1972.76 967,-1967.16 922.83,-1946.69 618.21,-1927.18 467.74,-1918.65"/>
<polygon fill="black" stroke="black" points="467.8,-1915.15 457.62,-1918.08 467.41,-1922.14 467.8,-1915.15"/>
</g>
<!-- 69&#45;&gt;59 -->
<g id="edge184" class="edge">
<title>69&#45;&gt;59</title>
<path fill="none" stroke="black" d="M994.4,-1992.97C986.57,-1984.94 976.58,-1975.17 967,-1967.16 945.71,-1949.37 932.99,-1953.1 916,-1931.16 825.24,-1813.94 750.54,-1750.68 810,-1614.87 847.84,-1528.44 883.53,-1516.72 966,-1470.87 1012.15,-1445.22 1071.56,-1431.31 1111.99,-1424.26"/>
<polygon fill="black" stroke="black" points="1112.81,-1427.68 1122.1,-1422.58 1111.66,-1420.77 1112.81,-1427.68"/>
</g>
<!-- 69&#45;&gt;11 -->
<g id="edge181" class="edge">
<title>69&#45;&gt;11</title>
<path fill="none" stroke="black" d="M995.84,-1992.84C988.11,-1984.38 977.77,-1974.25 967,-1967.16 960.36,-1962.79 706.93,-1865.4 702,-1859.16 659.2,-1805.09 678,-1774.83 678,-1705.87 678,-1705.87 678,-1705.87 678,-1487.87 678,-1343.34 671.53,-1304.4 705,-1163.79 740.97,-1012.69 794.58,-989.49 836,-839.79 872.68,-707.2 889.4,-542.67 894.86,-478.46"/>
<polygon fill="black" stroke="black" points="898.36,-478.61 895.7,-468.35 891.39,-478.03 898.36,-478.61"/>
</g>
<!-- 69&#45;&gt;63 -->
<g id="edge183" class="edge">
<title>69&#45;&gt;63</title>
<path fill="none" stroke="black" d="M1000.78,-1991.64C993.78,-1977.29 983.61,-1956.44 975.59,-1939.98"/>
<polygon fill="black" stroke="black" points="978.68,-1938.34 971.15,-1930.89 972.39,-1941.41 978.68,-1938.34"/>
</g>
<!-- 69&#45;&gt;67 -->
<g id="edge182" class="edge">
<title>69&#45;&gt;67</title>
<path fill="none" stroke="black" d="M996.67,-1992.45C989.06,-1983.65 978.56,-1973.31 967,-1967.16 895.73,-1929.28 866.39,-1954.09 789,-1931.16 787.74,-1930.79 786.47,-1930.4 785.2,-1929.99"/>
<polygon fill="black" stroke="black" points="785.96,-1926.55 775.37,-1926.57 783.66,-1933.16 785.96,-1926.55"/>
</g>
<!-- 72 -->
<g id="node75" class="node">
<title>72</title>
<ellipse fill="none" stroke="red" cx="2396" cy="-1913.16" rx="37.89" ry="18"/>
<text text-anchor="middle" x="2396" y="-1909.46" font-family="Times New Roman,serif" font-size="14.00">model6</text>
</g>
<!-- 72&#45;&gt;20 -->
<g id="edge191" class="edge">
<title>72&#45;&gt;20</title>
<path fill="none" stroke="black" d="M2378.88,-1897.09C2359.35,-1879.89 2327.23,-1851.61 2304.92,-1831.96"/>
<polygon fill="black" stroke="black" points="2307,-1829.13 2297.19,-1825.15 2302.38,-1834.39 2307,-1829.13"/>
</g>
<!-- 73 -->
<g id="node76" class="node">
<title>73</title>
<ellipse fill="none" stroke="red" cx="1918" cy="-2539.55" rx="40.09" ry="18"/>
<text text-anchor="middle" x="1918" y="-2535.85" font-family="Times New Roman,serif" font-size="14.00">artifact9</text>
</g>
<!-- 73&#45;&gt;2 -->
<g id="edge192" class="edge">
<title>73&#45;&gt;2</title>
<path fill="none" stroke="black" d="M1904.8,-2522.27C1887.41,-2500.82 1856.68,-2462.94 1836.58,-2438.15"/>
<polygon fill="black" stroke="black" points="1839.22,-2435.85 1830.21,-2430.29 1833.79,-2440.26 1839.22,-2435.85"/>
</g>
<!-- 73&#45;&gt;7 -->
<g id="edge193" class="edge">
<title>73&#45;&gt;7</title>
<path fill="none" stroke="black" d="M1913.42,-2521.48C1896.99,-2459.23 1841.02,-2238.23 1823,-2051.86 1816.29,-1982.47 1814.67,-1963.17 1830,-1895.16 1833.74,-1878.57 1840.07,-1875.92 1843,-1859.16 1850.68,-1815.26 1844.24,-1803.43 1843,-1758.87 1839.67,-1639.18 1828,-1609.61 1828,-1489.87 1828,-1489.87 1828,-1489.87 1828,-1262.33 1828,-1128.64 1772,-1100.48 1772,-966.79 1772,-966.79 1772,-966.79 1772,-820.79 1772,-685.6 1710,-658.19 1710,-523 1710,-523 1710,-523 1710,-449 1710,-408.55 1717.79,-390.31 1691,-360 1677.54,-344.77 1630.48,-329.84 1592.07,-319.73"/>
<polygon fill="black" stroke="black" points="1592.57,-316.24 1582.01,-317.13 1590.82,-323.02 1592.57,-316.24"/>
</g>
<!-- 76 -->
<g id="node77" class="node">
<title>76</title>
<ellipse fill="none" stroke="red" cx="996" cy="-2105.86" rx="46.29" ry="18"/>
<text text-anchor="middle" x="996" y="-2102.16" font-family="Times New Roman,serif" font-size="14.00">interface0</text>
</g>
<!-- 76&#45;&gt;15 -->
<g id="edge198" class="edge">
<title>76&#45;&gt;15</title>
<path fill="none" stroke="black" d="M1041.86,-2103.86C1153.25,-2099.18 1442.06,-2073.19 1622,-1931.16 1632.99,-1922.49 1866,-1503.88 1866,-1489.87 1866,-1489.87 1866,-1489.87 1866,-820.79 1866,-747.71 1888.48,-663.74 1901.31,-621.79"/>
<polygon fill="black" stroke="black" points="1904.7,-622.65 1904.34,-612.06 1898.02,-620.56 1904.7,-622.65"/>
</g>
<!-- 76&#45;&gt;49 -->
<g id="edge199" class="edge">
<title>76&#45;&gt;49</title>
<path fill="none" stroke="black" d="M963.13,-2093.15C937.75,-2083.53 902.16,-2068.78 873,-2051.86 863.29,-2046.22 853.3,-2039.16 844.54,-2032.46"/>
<polygon fill="black" stroke="black" points="846.6,-2029.63 836.57,-2026.22 842.29,-2035.14 846.6,-2029.63"/>
</g>
<!-- 77 -->
<g id="node78" class="node">
<title>77</title>
<ellipse fill="none" stroke="red" cx="2383" cy="-2009.51" rx="55.79" ry="18"/>
<text text-anchor="middle" x="2383" y="-2005.81" font-family="Times New Roman,serif" font-size="14.00">component0</text>
</g>
<!-- 77&#45;&gt;5 -->
<g id="edge203" class="edge">
<title>77&#45;&gt;5</title>
<path fill="none" stroke="black" d="M2400.94,-1992.08C2417.18,-1977.2 2441.3,-1955.11 2459.72,-1938.24"/>
<polygon fill="black" stroke="black" points="2462.21,-1940.7 2467.22,-1931.37 2457.48,-1935.54 2462.21,-1940.7"/>
</g>
<!-- 77&#45;&gt;13 -->
<g id="edge201" class="edge">
<title>77&#45;&gt;13</title>
<path fill="none" stroke="black" d="M2425.47,-1997.59C2459.3,-1986.58 2505,-1966.11 2530,-1931.16 2561.71,-1886.84 2549,-1864.52 2549,-1810.02 2549,-1810.02 2549,-1810.02 2549,-706.9 2549,-648.11 2563.93,-624.01 2530,-576 2382.48,-367.28 2066.98,-276.07 1938.35,-246.54"/>
<polygon fill="black" stroke="black" points="1938.84,-243.06 1928.32,-244.27 1937.3,-249.89 1938.84,-243.06"/>
</g>
<!-- 77&#45;&gt;63 -->
<g id="edge205" class="edge">
<title>77&#45;&gt;63</title>
<path fill="none" stroke="black" d="M2337.57,-1998.76C2290.23,-1989.02 2213.78,-1974.48 2147,-1967.16 1921.3,-1942.45 1204.83,-1920.96 1011.48,-1915.5"/>
<polygon fill="black" stroke="black" points="1011.44,-1912 1001.35,-1915.22 1011.24,-1919 1011.44,-1912"/>
</g>
<!-- 77&#45;&gt;34 -->
<g id="edge202" class="edge">
<title>77&#45;&gt;34</title>
<path fill="none" stroke="black" d="M2416.85,-1995.09C2460.1,-1977.95 2534.87,-1948.31 2580.92,-1930.05"/>
<polygon fill="black" stroke="black" points="2582.29,-1933.28 2590.29,-1926.34 2579.71,-1926.77 2582.29,-1933.28"/>
</g>
<!-- 77&#45;&gt;55 -->
<g id="edge200" class="edge">
<title>77&#45;&gt;55</title>
<path fill="none" stroke="black" d="M2365.06,-1992.08C2348.52,-1976.93 2323.79,-1954.28 2305.26,-1937.3"/>
<polygon fill="black" stroke="black" points="2307.47,-1934.58 2297.74,-1930.41 2302.75,-1939.75 2307.47,-1934.58"/>
</g>
<!-- 77&#45;&gt;58 -->
<g id="edge204" class="edge">
<title>77&#45;&gt;58</title>
<path fill="none" stroke="black" d="M2350.69,-1994.59C2310.62,-1977.33 2242.49,-1947.98 2200.55,-1929.91"/>
<polygon fill="black" stroke="black" points="2201.82,-1926.65 2191.26,-1925.91 2199.05,-1933.08 2201.82,-1926.65"/>
</g>
</g>
</svg>
