<?xml version="1.0" encoding="UTF-8" standalone="no"?>
<!DOCTYPE svg PUBLIC "-//W3C//DTD SVG 1.1//EN"
 "http://www.w3.org/Graphics/SVG/1.1/DTD/svg11.dtd">
<!-- Generated by graphviz version 2.49.3 (20211023.0002)
 -->
<!-- Title: test Pages: 1 -->
<svg width="2179pt" height="2611pt"
 viewBox="0.00 0.00 2179.00 2610.93" xmlns="http://www.w3.org/2000/svg" xmlns:xlink="http://www.w3.org/1999/xlink">
<g id="graph0" class="graph" transform="scale(1 1) rotate(0) translate(4 2606.93)">
<title>test</title>
<polygon fill="white" stroke="transparent" points="-4,4 -4,-2606.93 2175,-2606.93 2175,4 -4,4"/>
<!-- 0 -->
<g id="node1" class="node">
<title>0</title>
<ellipse fill="none" stroke="red" cx="1752" cy="-2512.93" rx="37.89" ry="18"/>
<text text-anchor="middle" x="1752" y="-2509.23" font-family="Times New Roman,serif" font-size="14.00">node11</text>
</g>
<!-- 0&#45;&gt;0 -->
<g id="edge5" class="edge">
<title>0&#45;&gt;0</title>
<path fill="none" stroke="black" d="M1778.65,-2525.73C1793.73,-2528.24 1807.7,-2523.97 1807.7,-2512.93 1807.7,-2504.48 1799.51,-2499.99 1788.9,-2499.48"/>
<polygon fill="black" stroke="black" points="1788.41,-2496 1778.65,-2500.12 1788.85,-2502.99 1788.41,-2496"/>
</g>
<!-- 58 -->
<g id="node2" class="node">
<title>58</title>
<ellipse fill="none" stroke="black" cx="1646" cy="-2440.93" rx="38.19" ry="18"/>
<text text-anchor="middle" x="1646" y="-2437.23" font-family="Times New Roman,serif" font-size="14.00">device4</text>
</g>
<!-- 0&#45;&gt;58 -->
<g id="edge1" class="edge">
<title>0&#45;&gt;58</title>
<path fill="none" stroke="black" d="M1727.46,-2499.25C1710.73,-2489.19 1688.78,-2474.89 1671.8,-2463.1"/>
<polygon fill="black" stroke="black" points="1673.62,-2460.1 1663.43,-2457.19 1669.58,-2465.82 1673.62,-2460.1"/>
</g>
<!-- 49 -->
<g id="node3" class="node">
<title>49</title>
<ellipse fill="none" stroke="black" cx="1566" cy="-450" rx="38.19" ry="18"/>
<text text-anchor="middle" x="1566" y="-446.3" font-family="Times New Roman,serif" font-size="14.00">device5</text>
</g>
<!-- 0&#45;&gt;49 -->
<g id="edge2" class="edge">
<title>0&#45;&gt;49</title>
<path fill="none" stroke="black" d="M1761.18,-2495.3C1766.29,-2485.13 1772.18,-2471.66 1775,-2458.93 1828.1,-2219.6 1715.78,-2141.19 1790,-1907.55 1795.82,-1889.23 1807.29,-1889.57 1814,-1871.55 1837.57,-1808.3 1833,-1788.36 1833,-1720.86 1833,-1720.86 1833,-1720.86 1833,-1412.27 1833,-1027.25 1631.69,-586.09 1578.67,-476.58"/>
<polygon fill="black" stroke="black" points="1581.81,-475.04 1574.28,-467.59 1575.52,-478.11 1581.81,-475.04"/>
</g>
<!-- 40 -->
<g id="node4" class="node">
<title>40</title>
<ellipse fill="none" stroke="black" cx="1191" cy="-1299.38" rx="33.29" ry="18"/>
<text text-anchor="middle" x="1191" y="-1295.68" font-family="Times New Roman,serif" font-size="14.00">node1</text>
</g>
<!-- 0&#45;&gt;40 -->
<g id="edge3" class="edge">
<title>0&#45;&gt;40</title>
<path fill="none" stroke="black" d="M1714.47,-2510.7C1637.86,-2506.18 1463.42,-2485.1 1368,-2386.93 1132.93,-2145.08 1433.41,-1946.03 1316,-1629.86 1284,-1543.69 1213,-1559.34 1181,-1473.17 1162.73,-1423.98 1169.89,-1361.35 1179.13,-1326.6"/>
<polygon fill="black" stroke="black" points="1182.56,-1327.34 1182.04,-1316.76 1175.85,-1325.36 1182.56,-1327.34"/>
</g>
<!-- 52 -->
<g id="node5" class="node">
<title>52</title>
<ellipse fill="none" stroke="black" cx="1483" cy="-1045.08" rx="95.58" ry="18"/>
<text text-anchor="middle" x="1483" y="-1041.38" font-family="Times New Roman,serif" font-size="14.00">executionEnvironment5</text>
</g>
<!-- 0&#45;&gt;52 -->
<g id="edge4" class="edge">
<title>0&#45;&gt;52</title>
<path fill="none" stroke="black" d="M1748.07,-2494.8C1743.31,-2446.1 1741.26,-2302.92 1715,-2187.84 1681.54,-2041.26 1631.59,-2017.38 1595,-1871.55 1555.48,-1714.02 1571.26,-1669.9 1548,-1509.17 1523.99,-1343.24 1490.72,-1144.61 1483.31,-1073.26"/>
<polygon fill="black" stroke="black" points="1486.8,-1072.93 1482.38,-1063.3 1479.83,-1073.58 1486.8,-1072.93"/>
</g>
<!-- 28 -->
<g id="node6" class="node">
<title>28</title>
<ellipse fill="none" stroke="black" cx="1832" cy="-162" rx="38.19" ry="18"/>
<text text-anchor="middle" x="1832" y="-158.3" font-family="Times New Roman,serif" font-size="14.00">device2</text>
</g>
<!-- 0&#45;&gt;28 -->
<g id="edge6" class="edge">
<title>0&#45;&gt;28</title>
<path fill="none" stroke="black" d="M1786.05,-2505.03C1869.56,-2486.89 2077,-2429.16 2077,-2288.39 2077,-2288.39 2077,-2288.39 2077,-1550.51 2077,-1397.89 2115,-1361.85 2115,-1209.23 2115,-1209.23 2115,-1209.23 2115,-1044.08 2115,-947.48 2077,-926.68 2077,-830.08 2077,-830.08 2077,-830.08 2077,-305 2077,-213.63 1950.23,-180.49 1878.98,-168.9"/>
<polygon fill="black" stroke="black" points="1879.31,-165.41 1868.89,-167.35 1878.24,-172.33 1879.31,-165.41"/>
</g>
<!-- 58&#45;&gt;0 -->
<g id="edge151" class="edge">
<title>58&#45;&gt;0</title>
<path fill="none" stroke="black" d="M1670.76,-2454.74C1687.52,-2464.83 1709.42,-2479.09 1726.34,-2490.85"/>
<polygon fill="black" stroke="black" points="1724.49,-2493.83 1734.68,-2496.74 1728.53,-2488.11 1724.49,-2493.83"/>
</g>
<!-- 22 -->
<g id="node35" class="node">
<title>22</title>
<ellipse fill="none" stroke="red" cx="1615" cy="-2287.39" rx="95.58" ry="95.58"/>
<ellipse fill="none" stroke="red" cx="1615" cy="-2287.39" rx="99.58" ry="99.58"/>
<text text-anchor="middle" x="1615" y="-2283.69" font-family="Times New Roman,serif" font-size="14.00">executionEnvironment0</text>
</g>
<!-- 58&#45;&gt;22 -->
<g id="edge150" class="edge">
<title>58&#45;&gt;22</title>
<path fill="none" stroke="black" d="M1638.13,-2423.13C1635.82,-2415.7 1633.31,-2406.28 1630.8,-2395.89"/>
<polygon fill="black" stroke="black" points="1634.19,-2395.04 1628.5,-2386.11 1627.38,-2396.65 1634.19,-2395.04"/>
</g>
<!-- 66 -->
<g id="node21" class="node">
<title>66</title>
<ellipse fill="none" stroke="red" cx="1566" cy="-378" rx="38.19" ry="18"/>
<text text-anchor="middle" x="1566" y="-374.3" font-family="Times New Roman,serif" font-size="14.00">device0</text>
</g>
<!-- 49&#45;&gt;66 -->
<g id="edge129" class="edge">
<title>49&#45;&gt;66</title>
<path fill="none" stroke="black" d="M1560.12,-432.05C1559.29,-424.23 1559.05,-414.75 1559.41,-405.98"/>
<polygon fill="black" stroke="black" points="1562.92,-406.01 1560.14,-395.79 1555.93,-405.51 1562.92,-406.01"/>
</g>
<!-- 63 -->
<g id="node22" class="node">
<title>63</title>
<ellipse fill="none" stroke="red" cx="1478" cy="-603.54" rx="95.58" ry="95.58"/>
<ellipse fill="none" stroke="red" cx="1478" cy="-603.54" rx="99.58" ry="99.58"/>
<text text-anchor="middle" x="1478" y="-599.84" font-family="Times New Roman,serif" font-size="14.00">executionEnvironment2</text>
</g>
<!-- 49&#45;&gt;63 -->
<g id="edge130" class="edge">
<title>49&#45;&gt;63</title>
<path fill="none" stroke="black" d="M1560.63,-467.91C1555.32,-479.08 1546.98,-494.69 1537.59,-511.34"/>
<polygon fill="black" stroke="black" points="1534.49,-509.7 1532.59,-520.12 1540.58,-513.16 1534.49,-509.7"/>
</g>
<!-- 40&#45;&gt;0 -->
<g id="edge105" class="edge">
<title>40&#45;&gt;0</title>
<path fill="none" stroke="black" d="M1192.27,-1317.5C1189.48,-1349.34 1179,-1419.31 1199,-1473.17 1231,-1559.34 1302,-1543.69 1334,-1629.86 1451.41,-1946.03 1150.93,-2145.08 1386,-2386.93 1473.43,-2476.88 1627.2,-2502.11 1704.71,-2509.18"/>
<polygon fill="black" stroke="black" points="1704.42,-2512.66 1714.68,-2510.02 1705.01,-2505.69 1704.42,-2512.66"/>
</g>
<!-- 30 -->
<g id="node37" class="node">
<title>30</title>
<ellipse fill="none" stroke="black" cx="1191" cy="-1208.23" rx="33.28" ry="33.28"/>
<ellipse fill="none" stroke="black" cx="1191" cy="-1208.23" rx="37.29" ry="37.29"/>
<text text-anchor="middle" x="1191" y="-1204.53" font-family="Times New Roman,serif" font-size="14.00">node9</text>
</g>
<!-- 40&#45;&gt;30 -->
<g id="edge106" class="edge">
<title>40&#45;&gt;30</title>
<path fill="none" stroke="black" d="M1185.59,-1281.61C1184.74,-1274.05 1184.3,-1264.72 1184.25,-1255.3"/>
<polygon fill="black" stroke="black" points="1187.76,-1255.16 1184.37,-1245.12 1180.76,-1255.09 1187.76,-1255.16"/>
</g>
<!-- 21 -->
<g id="node46" class="node">
<title>21</title>
<ellipse fill="none" stroke="red" cx="1092" cy="-1413.27" rx="33.29" ry="18"/>
<text text-anchor="middle" x="1092" y="-1409.57" font-family="Times New Roman,serif" font-size="14.00">node0</text>
</g>
<!-- 40&#45;&gt;21 -->
<g id="edge104" class="edge">
<title>40&#45;&gt;21</title>
<path fill="none" stroke="black" d="M1181.5,-1317.14C1172.34,-1327.36 1159.11,-1340.83 1148,-1353.38 1137.53,-1365.2 1126.49,-1378.97 1116.79,-1390.22"/>
<polygon fill="black" stroke="black" points="1114,-1388.09 1110,-1397.9 1119.25,-1392.72 1114,-1388.09"/>
</g>
<!-- 52&#45;&gt;0 -->
<g id="edge135" class="edge">
<title>52&#45;&gt;0</title>
<path fill="none" stroke="black" d="M1489.49,-1063.3C1505.28,-1124.13 1540.75,-1334.72 1566,-1509.17 1589.26,-1669.9 1573.48,-1714.02 1613,-1871.55 1649.59,-2017.38 1699.54,-2041.26 1733,-2187.84 1757.62,-2295.72 1760.96,-2428.32 1757.13,-2484.59"/>
<polygon fill="black" stroke="black" points="1753.62,-2484.55 1756.27,-2494.8 1760.6,-2485.13 1753.62,-2484.55"/>
</g>
<!-- 47 -->
<g id="node24" class="node">
<title>47</title>
<ellipse fill="none" stroke="black" cx="1525" cy="-973.08" rx="44.39" ry="18"/>
<text text-anchor="middle" x="1525" y="-969.38" font-family="Times New Roman,serif" font-size="14.00">artifact10</text>
</g>
<!-- 52&#45;&gt;47 -->
<g id="edge133" class="edge">
<title>52&#45;&gt;47</title>
<path fill="none" stroke="black" d="M1487.47,-1026.78C1491.67,-1018.31 1497.69,-1007.97 1503.75,-998.69"/>
<polygon fill="black" stroke="black" points="1506.79,-1000.46 1509.52,-990.23 1501,-996.52 1506.79,-1000.46"/>
</g>
<!-- 14 -->
<g id="node36" class="node">
<title>14</title>
<ellipse fill="none" stroke="red" cx="1191" cy="-1117.08" rx="38.19" ry="18"/>
<text text-anchor="middle" x="1191" y="-1113.38" font-family="Times New Roman,serif" font-size="14.00">device3</text>
</g>
<!-- 52&#45;&gt;14 -->
<g id="edge134" class="edge">
<title>52&#45;&gt;14</title>
<path fill="none" stroke="black" d="M1429.9,-1060.14C1374.17,-1073.94 1287.7,-1094.61 1235.43,-1106.58"/>
<polygon fill="black" stroke="black" points="1234.43,-1103.22 1225.46,-1108.86 1235.98,-1110.05 1234.43,-1103.22"/>
</g>
<!-- 28&#45;&gt;0 -->
<g id="edge85" class="edge">
<title>28&#45;&gt;0</title>
<path fill="none" stroke="black" d="M1869.49,-166.1C1942.29,-174.58 2095,-204.72 2095,-305 2095,-830.08 2095,-830.08 2095,-830.08 2095,-926.68 2133,-947.48 2133,-1044.08 2133,-1209.23 2133,-1209.23 2133,-1209.23 2133,-1361.85 2095,-1397.89 2095,-1550.51 2095,-2288.39 2095,-2288.39 2095,-2288.39 2095,-2428.11 1890.65,-2486.02 1797.32,-2504.62"/>
<polygon fill="black" stroke="black" points="1796.47,-2501.22 1787.31,-2506.55 1797.79,-2508.09 1796.47,-2501.22"/>
</g>
<!-- 12 -->
<g id="node20" class="node">
<title>12</title>
<ellipse fill="none" stroke="black" cx="1528" cy="-234" rx="38.19" ry="18"/>
<text text-anchor="middle" x="1528" y="-230.3" font-family="Times New Roman,serif" font-size="14.00">device6</text>
</g>
<!-- 28&#45;&gt;12 -->
<g id="edge84" class="edge">
<title>28&#45;&gt;12</title>
<path fill="none" stroke="black" d="M1799.42,-171.56C1744.59,-184.84 1634.2,-210.26 1572.36,-223.87"/>
<polygon fill="black" stroke="black" points="1571.52,-220.47 1562.5,-226.03 1573.02,-227.31 1571.52,-220.47"/>
</g>
<!-- 9 -->
<g id="node28" class="node">
<title>9</title>
<ellipse fill="none" stroke="red" cx="1832" cy="-90" rx="50.09" ry="18"/>
<text text-anchor="middle" x="1832" y="-86.3" font-family="Times New Roman,serif" font-size="14.00">interface10</text>
</g>
<!-- 28&#45;&gt;9 -->
<g id="edge83" class="edge">
<title>28&#45;&gt;9</title>
<path fill="none" stroke="black" d="M1826.12,-144.05C1825.3,-136.35 1825.06,-127.03 1825.39,-118.36"/>
<polygon fill="black" stroke="black" points="1828.89,-118.49 1826.09,-108.28 1821.91,-118.01 1828.89,-118.49"/>
</g>
<!-- 1 -->
<g id="node7" class="node">
<title>1</title>
<ellipse fill="none" stroke="black" cx="1027" cy="-1551.51" rx="38.19" ry="18"/>
<text text-anchor="middle" x="1027" y="-1547.81" font-family="Times New Roman,serif" font-size="14.00">device9</text>
</g>
<!-- 10 -->
<g id="node8" class="node">
<title>10</title>
<path fill="none" stroke="red" d="M889.5,-1662.59C889.5,-1664.39 876.28,-1665.86 860,-1665.86 843.72,-1665.86 830.5,-1664.39 830.5,-1662.59 830.5,-1662.59 830.5,-1633.13 830.5,-1633.13 830.5,-1631.33 843.72,-1629.86 860,-1629.86 876.28,-1629.86 889.5,-1631.33 889.5,-1633.13 889.5,-1633.13 889.5,-1662.59 889.5,-1662.59"/>
<path fill="none" stroke="red" d="M889.5,-1662.59C889.5,-1660.78 876.28,-1659.31 860,-1659.31 843.72,-1659.31 830.5,-1660.78 830.5,-1662.59"/>
<text text-anchor="middle" x="860" y="-1644.16" font-family="Times New Roman,serif" font-size="14.00">device1</text>
</g>
<!-- 1&#45;&gt;10 -->
<g id="edge7" class="edge">
<title>1&#45;&gt;10</title>
<path fill="none" stroke="black" d="M1018.26,-1569.14C1010.39,-1577.27 999.15,-1586.79 988,-1593.86 972.9,-1603.44 931.04,-1621.41 899.13,-1633.75"/>
<polygon fill="black" stroke="black" points="897.69,-1630.55 889.59,-1637.38 900.18,-1637.09 897.69,-1630.55"/>
</g>
<!-- 10&#45;&gt;1 -->
<g id="edge25" class="edge">
<title>10&#45;&gt;1</title>
<path fill="none" stroke="black" d="M889.75,-1631.8C917.28,-1619.58 955.67,-1602.94 970,-1593.86 979.29,-1587.97 988.65,-1580.37 997.14,-1573.3"/>
<polygon fill="black" stroke="black" points="999.55,-1575.84 1004.99,-1566.75 995.07,-1570.47 999.55,-1575.84"/>
</g>
<!-- 23 -->
<g id="node10" class="node">
<title>23</title>
<path fill="none" stroke="red" d="M1068,-1734.59C1068,-1736.39 1055.9,-1737.86 1041,-1737.86 1026.1,-1737.86 1014,-1736.39 1014,-1734.59 1014,-1734.59 1014,-1705.13 1014,-1705.13 1014,-1703.33 1026.1,-1701.86 1041,-1701.86 1055.9,-1701.86 1068,-1703.33 1068,-1705.13 1068,-1705.13 1068,-1734.59 1068,-1734.59"/>
<path fill="none" stroke="red" d="M1068,-1734.59C1068,-1732.78 1055.9,-1731.31 1041,-1731.31 1026.1,-1731.31 1014,-1732.78 1014,-1734.59"/>
<text text-anchor="middle" x="1041" y="-1716.16" font-family="Times New Roman,serif" font-size="14.00">node7</text>
</g>
<!-- 10&#45;&gt;23 -->
<g id="edge26" class="edge">
<title>10&#45;&gt;23</title>
<path fill="none" stroke="black" d="M889.63,-1658.46C921.09,-1669.78 970.59,-1688.79 1004.43,-1702.47"/>
<polygon fill="black" stroke="black" points="1003.38,-1705.82 1013.96,-1706.35 1006.01,-1699.33 1003.38,-1705.82"/>
</g>
<!-- 20 -->
<g id="node17" class="node">
<title>20</title>
<ellipse fill="none" stroke="red" cx="681" cy="-603.54" rx="95.58" ry="18"/>
<text text-anchor="middle" x="681" y="-599.84" font-family="Times New Roman,serif" font-size="14.00">executionEnvironment6</text>
</g>
<!-- 10&#45;&gt;20 -->
<g id="edge27" class="edge">
<title>10&#45;&gt;20</title>
<path fill="none" stroke="black" d="M853.89,-1629.66C846.68,-1591.12 840,-1494.92 840,-1414.27 840,-1414.27 840,-1414.27 840,-1207.23 840,-1059.46 708,-1049.85 708,-902.08 708,-902.08 708,-902.08 708,-828.08 708,-756.48 689.78,-673.61 682.5,-631.74"/>
<polygon fill="black" stroke="black" points="685.94,-631.08 680.87,-621.78 679.03,-632.21 685.94,-631.08"/>
</g>
<!-- 54 -->
<g id="node30" class="node">
<title>54</title>
<ellipse fill="none" stroke="red" cx="928" cy="-1551.51" rx="38.21" ry="38.21"/>
<ellipse fill="none" stroke="red" cx="928" cy="-1551.51" rx="42.19" ry="42.19"/>
<text text-anchor="middle" x="928" y="-1547.81" font-family="Times New Roman,serif" font-size="14.00">device8</text>
</g>
<!-- 10&#45;&gt;54 -->
<g id="edge28" class="edge">
<title>10&#45;&gt;54</title>
<path fill="none" stroke="black" d="M867.11,-1629.56C873.69,-1618.81 883.54,-1604.54 893.46,-1591.21"/>
<polygon fill="black" stroke="black" points="896.37,-1593.16 899.61,-1583.07 890.79,-1588.94 896.37,-1593.16"/>
</g>
<!-- 2 -->
<g id="node9" class="node">
<title>2</title>
<ellipse fill="none" stroke="black" cx="1128" cy="-1647.86" rx="50.09" ry="18"/>
<text text-anchor="middle" x="1128" y="-1644.16" font-family="Times New Roman,serif" font-size="14.00">interface11</text>
</g>
<!-- 2&#45;&gt;23 -->
<g id="edge8" class="edge">
<title>2&#45;&gt;23</title>
<path fill="none" stroke="black" d="M1113.54,-1665.17C1102.87,-1674.6 1088.14,-1686.59 1074.67,-1696.85"/>
<polygon fill="black" stroke="black" points="1072.4,-1694.18 1066.5,-1702.98 1076.6,-1699.78 1072.4,-1694.18"/>
</g>
<!-- 23&#45;&gt;10 -->
<g id="edge73" class="edge">
<title>23&#45;&gt;10</title>
<path fill="none" stroke="black" d="M1013.8,-1710.14C983.19,-1699.18 933.51,-1680.13 898.86,-1666.18"/>
<polygon fill="black" stroke="black" points="900.09,-1662.9 889.51,-1662.39 897.46,-1669.39 900.09,-1662.9"/>
</g>
<!-- 23&#45;&gt;2 -->
<g id="edge76" class="edge">
<title>23&#45;&gt;2</title>
<path fill="none" stroke="black" d="M1056.59,-1701.56C1067.52,-1691.97 1082.32,-1679.97 1095.67,-1669.85"/>
<polygon fill="black" stroke="black" points="1097.82,-1672.61 1103.74,-1663.83 1093.63,-1667 1097.82,-1672.61"/>
</g>
<!-- 23&#45;&gt;20 -->
<g id="edge75" class="edge">
<title>23&#45;&gt;20</title>
<path fill="none" stroke="black" d="M1013.83,-1715.82C969.75,-1709.75 881.48,-1694.19 812,-1665.86 778.24,-1652.1 273.18,-1349.53 256,-1317.38 248.46,-1303.27 251.65,-1296.77 256,-1281.38 336.71,-995.94 575.4,-712.41 655.02,-629.03"/>
<polygon fill="black" stroke="black" points="657.77,-631.21 662.21,-621.59 652.74,-626.35 657.77,-631.21"/>
</g>
<!-- 7 -->
<g id="node23" class="node">
<title>7</title>
<ellipse fill="none" stroke="red" cx="1709" cy="-1822.71" rx="95.58" ry="18"/>
<text text-anchor="middle" x="1709" y="-1819.01" font-family="Times New Roman,serif" font-size="14.00">executionEnvironment3</text>
</g>
<!-- 23&#45;&gt;7 -->
<g id="edge78" class="edge">
<title>23&#45;&gt;7</title>
<path fill="none" stroke="black" d="M1068.26,-1730.99C1074.09,-1733.6 1080.17,-1736.14 1086,-1737.86 1264.52,-1790.46 1481.19,-1810.14 1606.32,-1817.44"/>
<polygon fill="black" stroke="black" points="1606.47,-1820.96 1616.65,-1818.03 1606.87,-1813.97 1606.47,-1820.96"/>
</g>
<!-- 23&#45;&gt;21 -->
<g id="edge77" class="edge">
<title>23&#45;&gt;21</title>
<path fill="none" stroke="black" d="M1040.44,-1701.66C1044.86,-1677.74 1057.93,-1632.95 1065,-1593.86 1074.71,-1540.21 1079.53,-1476.52 1084.46,-1441.23"/>
<polygon fill="black" stroke="black" points="1087.93,-1441.65 1085.99,-1431.23 1081.01,-1440.59 1087.93,-1441.65"/>
</g>
<!-- 41 -->
<g id="node48" class="node">
<title>41</title>
<ellipse fill="none" stroke="black" cx="1256" cy="-1647.86" rx="60.39" ry="18"/>
<text text-anchor="middle" x="1256" y="-1644.16" font-family="Times New Roman,serif" font-size="14.00">component12</text>
</g>
<!-- 23&#45;&gt;41 -->
<g id="edge74" class="edge">
<title>23&#45;&gt;41</title>
<path fill="none" stroke="black" d="M1065.27,-1702.93C1066.18,-1702.56 1067.1,-1702.21 1068,-1701.86 1110.67,-1685.58 1160.6,-1671.16 1198.37,-1661.49"/>
<polygon fill="black" stroke="black" points="1199.35,-1664.86 1208.19,-1659.02 1197.63,-1658.07 1199.35,-1664.86"/>
</g>
<!-- 3 -->
<g id="node11" class="node">
<title>3</title>
<ellipse fill="none" stroke="red" cx="922" cy="-603.54" rx="46.29" ry="18"/>
<text text-anchor="middle" x="922" y="-599.84" font-family="Times New Roman,serif" font-size="14.00">interface0</text>
</g>
<!-- 25 -->
<g id="node12" class="node">
<title>25</title>
<ellipse fill="none" stroke="black" cx="868" cy="-450" rx="100.18" ry="18"/>
<text text-anchor="middle" x="868" y="-446.3" font-family="Times New Roman,serif" font-size="14.00">executionEnvironment11</text>
</g>
<!-- 3&#45;&gt;25 -->
<g id="edge9" class="edge">
<title>3&#45;&gt;25</title>
<path fill="none" stroke="black" d="M915.91,-585.45C906.59,-559.3 888.71,-509.13 877.63,-478.02"/>
<polygon fill="black" stroke="black" points="880.8,-476.5 874.15,-468.26 874.21,-478.85 880.8,-476.5"/>
</g>
<!-- 33 -->
<g id="node14" class="node">
<title>33</title>
<ellipse fill="none" stroke="black" cx="529" cy="-306" rx="55.79" ry="18"/>
<text text-anchor="middle" x="529" y="-302.3" font-family="Times New Roman,serif" font-size="14.00">component2</text>
</g>
<!-- 25&#45;&gt;33 -->
<g id="edge82" class="edge">
<title>25&#45;&gt;33</title>
<path fill="none" stroke="black" d="M836.15,-432.93C798.74,-414.32 734.6,-383.26 678,-360 644.46,-346.22 605.87,-332.55 576.37,-322.55"/>
<polygon fill="black" stroke="black" points="577.32,-319.18 566.73,-319.3 575.09,-325.81 577.32,-319.18"/>
</g>
<!-- 4 -->
<g id="node13" class="node">
<title>4</title>
<ellipse fill="none" stroke="black" cx="196" cy="-378" rx="95.58" ry="18"/>
<text text-anchor="middle" x="196" y="-374.3" font-family="Times New Roman,serif" font-size="14.00">executionEnvironment9</text>
</g>
<!-- 4&#45;&gt;33 -->
<g id="edge10" class="edge">
<title>4&#45;&gt;33</title>
<path fill="none" stroke="black" d="M253.98,-363.67C315.3,-350.39 411.27,-330.24 472.16,-317.89"/>
<polygon fill="black" stroke="black" points="472.88,-321.31 481.99,-315.9 471.49,-314.45 472.88,-321.31"/>
</g>
<!-- 19 -->
<g id="node15" class="node">
<title>19</title>
<ellipse fill="none" stroke="black" cx="423" cy="-450" rx="33.29" ry="18"/>
<text text-anchor="middle" x="423" y="-446.3" font-family="Times New Roman,serif" font-size="14.00">node5</text>
</g>
<!-- 4&#45;&gt;19 -->
<g id="edge11" class="edge">
<title>4&#45;&gt;19</title>
<path fill="none" stroke="black" d="M254.99,-392.19C293.86,-402.13 345.46,-416.65 390,-432 390.58,-432.2 391.17,-432.4 391.75,-432.61"/>
<polygon fill="black" stroke="black" points="390.74,-435.97 401.34,-436.18 393.19,-429.41 390.74,-435.97"/>
</g>
<!-- 33&#45;&gt;4 -->
<g id="edge94" class="edge">
<title>33&#45;&gt;4</title>
<path fill="none" stroke="black" d="M485.09,-317.27C430.4,-329.22 336.36,-349.04 270.38,-362.54"/>
<polygon fill="black" stroke="black" points="269.55,-359.14 260.45,-364.57 270.95,-365.99 269.55,-359.14"/>
</g>
<!-- 19&#45;&gt;4 -->
<g id="edge60" class="edge">
<title>19&#45;&gt;4</title>
<path fill="none" stroke="black" d="M394.59,-440.44C387.15,-437.59 379.29,-434.51 372,-432 333.33,-418.68 289.34,-405.98 254.95,-396.35"/>
<polygon fill="black" stroke="black" points="255.63,-392.91 245.06,-393.59 253.75,-399.65 255.63,-392.91"/>
</g>
<!-- 19&#45;&gt;20 -->
<g id="edge57" class="edge">
<title>19&#45;&gt;20</title>
<path fill="none" stroke="black" d="M454.4,-456.17C488.87,-463.44 544.29,-478.72 586,-504 618.67,-523.81 649.58,-555.32 667.13,-577.37"/>
<polygon fill="black" stroke="black" points="664.55,-579.75 673.39,-585.59 670.12,-575.51 664.55,-579.75"/>
</g>
<!-- 43 -->
<g id="node33" class="node">
<title>43</title>
<ellipse fill="none" stroke="black" cx="405" cy="-378" rx="95.58" ry="18"/>
<text text-anchor="middle" x="405" y="-374.3" font-family="Times New Roman,serif" font-size="14.00">executionEnvironment4</text>
</g>
<!-- 19&#45;&gt;43 -->
<g id="edge58" class="edge">
<title>19&#45;&gt;43</title>
<path fill="none" stroke="black" d="M413.02,-432.76C410.11,-424.87 407.35,-415.16 405.39,-406.18"/>
<polygon fill="black" stroke="black" points="408.79,-405.31 403.51,-396.12 401.91,-406.6 408.79,-405.31"/>
</g>
<!-- 19&#45;&gt;14 -->
<g id="edge59" class="edge">
<title>19&#45;&gt;14</title>
<path fill="none" stroke="black" d="M423.98,-468.05C420.95,-511.39 406.65,-627.67 456,-703.08 625.54,-962.15 1016.11,-1073.83 1147.26,-1105.82"/>
<polygon fill="black" stroke="black" points="1146.79,-1109.31 1157.33,-1108.25 1148.43,-1102.5 1146.79,-1109.31"/>
</g>
<!-- 5 -->
<g id="node16" class="node">
<title>5</title>
<ellipse fill="none" stroke="black" cx="852" cy="-757.08" rx="60.39" ry="18"/>
<text text-anchor="middle" x="852" y="-753.38" font-family="Times New Roman,serif" font-size="14.00">component14</text>
</g>
<!-- 5&#45;&gt;5 -->
<g id="edge12" class="edge">
<title>5&#45;&gt;5</title>
<path fill="none" stroke="black" d="M893.57,-770.29C913.2,-771.82 930.44,-767.42 930.44,-757.08 930.44,-748.6 918.84,-744.12 903.83,-743.63"/>
<polygon fill="black" stroke="black" points="903.48,-740.14 893.57,-743.88 903.65,-747.13 903.48,-740.14"/>
</g>
<!-- 5&#45;&gt;20 -->
<g id="edge13" class="edge">
<title>5&#45;&gt;20</title>
<path fill="none" stroke="black" d="M829.68,-740.15C796.74,-713.56 736.01,-659.97 703.17,-628.71"/>
<polygon fill="black" stroke="black" points="705.46,-626.06 695.83,-621.64 700.61,-631.1 705.46,-626.06"/>
</g>
<!-- 35 -->
<g id="node18" class="node">
<title>35</title>
<ellipse fill="none" stroke="black" cx="1478" cy="-829.08" rx="46.29" ry="18"/>
<text text-anchor="middle" x="1478" y="-825.38" font-family="Times New Roman,serif" font-size="14.00">interface5</text>
</g>
<!-- 5&#45;&gt;35 -->
<g id="edge14" class="edge">
<title>5&#45;&gt;35</title>
<path fill="none" stroke="black" d="M908.36,-763.94C1028.32,-776.95 1307.2,-808.13 1424.55,-821.65"/>
<polygon fill="black" stroke="black" points="1424.39,-825.15 1434.72,-822.82 1425.19,-818.2 1424.39,-825.15"/>
</g>
<!-- 20&#45;&gt;10 -->
<g id="edge61" class="edge">
<title>20&#45;&gt;10</title>
<path fill="none" stroke="black" d="M690.44,-621.5C704.36,-658.63 726,-750.05 726,-828.08 726,-902.08 726,-902.08 726,-902.08 726,-1049.85 858,-1059.46 858,-1207.23 858,-1414.27 858,-1414.27 858,-1414.27 858,-1488.62 863.68,-1576.19 863.54,-1619.61"/>
<polygon fill="black" stroke="black" points="860.04,-1619.6 863.37,-1629.66 867.04,-1619.72 860.04,-1619.6"/>
</g>
<!-- 20&#45;&gt;23 -->
<g id="edge63" class="edge">
<title>20&#45;&gt;23</title>
<path fill="none" stroke="black" d="M668.47,-621.59C608.97,-694.12 357.31,-986.73 274,-1281.38 269.65,-1296.77 266.46,-1303.27 274,-1317.38 291.18,-1349.53 796.24,-1652.1 830,-1665.86 888.65,-1689.77 960.67,-1704.59 1003.72,-1712.28"/>
<polygon fill="black" stroke="black" points="1003.3,-1715.76 1013.76,-1714.04 1004.51,-1708.86 1003.3,-1715.76"/>
</g>
<!-- 20&#45;&gt;19 -->
<g id="edge65" class="edge">
<title>20&#45;&gt;19</title>
<path fill="none" stroke="black" d="M661.04,-585.59C639.76,-563.9 605.01,-526.44 568,-504 534.55,-483.72 492.27,-469.88 461.9,-461.44"/>
<polygon fill="black" stroke="black" points="462.65,-458.02 452.09,-458.79 460.83,-464.78 462.65,-458.02"/>
</g>
<!-- 20&#45;&gt;5 -->
<g id="edge64" class="edge">
<title>20&#45;&gt;5</title>
<path fill="none" stroke="black" d="M704,-621.03C737.34,-648 798.1,-701.65 830.55,-732.6"/>
<polygon fill="black" stroke="black" points="828.15,-735.15 837.78,-739.58 833.01,-730.11 828.15,-735.15"/>
</g>
<!-- 8 -->
<g id="node27" class="node">
<title>8</title>
<ellipse fill="none" stroke="black" cx="620" cy="-450" rx="46.29" ry="18"/>
<text text-anchor="middle" x="620" y="-446.3" font-family="Times New Roman,serif" font-size="14.00">interface1</text>
</g>
<!-- 20&#45;&gt;8 -->
<g id="edge66" class="edge">
<title>20&#45;&gt;8</title>
<path fill="none" stroke="black" d="M669.66,-585.45C656.4,-559.3 635.92,-509.13 625.56,-478.02"/>
<polygon fill="black" stroke="black" points="628.83,-476.73 622.47,-468.26 622.16,-478.85 628.83,-476.73"/>
</g>
<!-- 45 -->
<g id="node32" class="node">
<title>45</title>
<path fill="none" stroke="black" d="M750,-464.73C750,-466.53 735.21,-468 717,-468 698.79,-468 684,-466.53 684,-464.73 684,-464.73 684,-435.27 684,-435.27 684,-433.47 698.79,-432 717,-432 735.21,-432 750,-433.47 750,-435.27 750,-435.27 750,-464.73 750,-464.73"/>
<path fill="none" stroke="black" d="M750,-464.73C750,-462.92 735.21,-461.45 717,-461.45 698.79,-461.45 684,-462.92 684,-464.73"/>
<text text-anchor="middle" x="717" y="-446.3" font-family="Times New Roman,serif" font-size="14.00">device11</text>
</g>
<!-- 20&#45;&gt;45 -->
<g id="edge62" class="edge">
<title>20&#45;&gt;45</title>
<path fill="none" stroke="black" d="M680.6,-585.45C684.07,-559.3 695.71,-509.13 705.27,-478.02"/>
<polygon fill="black" stroke="black" points="708.68,-478.85 708.42,-468.26 702.02,-476.7 708.68,-478.85"/>
</g>
<!-- 35&#45;&gt;5 -->
<g id="edge95" class="edge">
<title>35&#45;&gt;5</title>
<path fill="none" stroke="black" d="M1433.87,-823.54C1325.19,-811.83 1044.64,-780.5 916.94,-765.84"/>
<polygon fill="black" stroke="black" points="917.24,-762.35 906.9,-764.69 916.44,-769.31 917.24,-762.35"/>
</g>
<!-- 60 -->
<g id="node26" class="node">
<title>60</title>
<ellipse fill="none" stroke="black" cx="1478" cy="-757.08" rx="95.58" ry="18"/>
<text text-anchor="middle" x="1478" y="-753.38" font-family="Times New Roman,serif" font-size="14.00">executionEnvironment8</text>
</g>
<!-- 35&#45;&gt;60 -->
<g id="edge97" class="edge">
<title>35&#45;&gt;60</title>
<path fill="none" stroke="black" d="M1472.12,-811.14C1471.3,-803.43 1471.06,-794.11 1471.39,-785.45"/>
<polygon fill="black" stroke="black" points="1474.89,-785.57 1472.09,-775.36 1467.91,-785.1 1474.89,-785.57"/>
</g>
<!-- 59 -->
<g id="node58" class="node">
<title>59</title>
<ellipse fill="none" stroke="black" cx="1496" cy="-901.08" rx="46.29" ry="18"/>
<text text-anchor="middle" x="1496" y="-897.38" font-family="Times New Roman,serif" font-size="14.00">interface7</text>
</g>
<!-- 35&#45;&gt;59 -->
<g id="edge96" class="edge">
<title>35&#45;&gt;59</title>
<path fill="none" stroke="black" d="M1488.12,-846.71C1490.98,-854.52 1493.68,-864.05 1495.6,-872.88"/>
<polygon fill="black" stroke="black" points="1492.18,-873.6 1497.47,-882.78 1499.06,-872.3 1492.18,-873.6"/>
</g>
<!-- 6 -->
<g id="node19" class="node">
<title>6</title>
<ellipse fill="none" stroke="black" cx="1528" cy="-306" rx="37.89" ry="18"/>
<text text-anchor="middle" x="1528" y="-302.3" font-family="Times New Roman,serif" font-size="14.00">node10</text>
</g>
<!-- 6&#45;&gt;12 -->
<g id="edge15" class="edge">
<title>6&#45;&gt;12</title>
<path fill="none" stroke="black" d="M1522.12,-288.05C1521.29,-280.23 1521.05,-270.75 1521.41,-261.98"/>
<polygon fill="black" stroke="black" points="1524.92,-262.01 1522.14,-251.79 1517.93,-261.51 1524.92,-262.01"/>
</g>
<!-- 6&#45;&gt;66 -->
<g id="edge16" class="edge">
<title>6&#45;&gt;66</title>
<path fill="none" stroke="black" d="M1542.35,-322.83C1547.77,-331.06 1553.62,-341.34 1558.3,-350.72"/>
<polygon fill="black" stroke="black" points="1555.26,-352.49 1562.68,-360.05 1561.6,-349.52 1555.26,-352.49"/>
</g>
<!-- 6&#45;&gt;63 -->
<g id="edge17" class="edge">
<title>6&#45;&gt;63</title>
<path fill="none" stroke="black" d="M1532.9,-324.19C1532.32,-334.56 1530.03,-348.04 1528,-360 1520.41,-404.83 1512.04,-454.32 1504.2,-496.84"/>
<polygon fill="black" stroke="black" points="1500.71,-496.46 1502.33,-506.93 1507.6,-497.73 1500.71,-496.46"/>
</g>
<!-- 12&#45;&gt;28 -->
<g id="edge35" class="edge">
<title>12&#45;&gt;28</title>
<path fill="none" stroke="black" d="M1560.66,-224.42C1615.52,-211.14 1725.84,-185.73 1787.64,-172.13"/>
<polygon fill="black" stroke="black" points="1788.48,-175.53 1797.5,-169.97 1786.98,-168.69 1788.48,-175.53"/>
</g>
<!-- 12&#45;&gt;6 -->
<g id="edge34" class="edge">
<title>12&#45;&gt;6</title>
<path fill="none" stroke="black" d="M1533.86,-251.79C1534.7,-259.59 1534.94,-269.07 1534.6,-277.85"/>
<polygon fill="black" stroke="black" points="1531.09,-277.83 1533.88,-288.05 1538.07,-278.33 1531.09,-277.83"/>
</g>
<!-- 66&#45;&gt;49 -->
<g id="edge168" class="edge">
<title>66&#45;&gt;49</title>
<path fill="none" stroke="black" d="M1571.86,-395.79C1572.7,-403.59 1572.94,-413.07 1572.6,-421.85"/>
<polygon fill="black" stroke="black" points="1569.09,-421.83 1571.88,-432.05 1576.07,-422.33 1569.09,-421.83"/>
</g>
<!-- 66&#45;&gt;6 -->
<g id="edge166" class="edge">
<title>66&#45;&gt;6</title>
<path fill="none" stroke="black" d="M1551.62,-361.12C1546.26,-352.97 1540.48,-342.84 1535.84,-333.55"/>
<polygon fill="black" stroke="black" points="1538.91,-331.84 1531.47,-324.29 1532.57,-334.83 1538.91,-331.84"/>
</g>
<!-- 66&#45;&gt;47 -->
<g id="edge167" class="edge">
<title>66&#45;&gt;47</title>
<path fill="none" stroke="black" d="M1589.11,-392.58C1600.96,-402.5 1614.14,-416.82 1622,-432 1657.81,-501.13 1662,-524.69 1662,-602.54 1662,-830.08 1662,-830.08 1662,-830.08 1662,-887.17 1604.22,-931.64 1563.58,-954.69"/>
<polygon fill="black" stroke="black" points="1561.78,-951.68 1554.68,-959.54 1565.13,-957.82 1561.78,-951.68"/>
</g>
<!-- 24 -->
<g id="node49" class="node">
<title>24</title>
<ellipse fill="none" stroke="black" cx="1871" cy="-306" rx="55.79" ry="18"/>
<text text-anchor="middle" x="1871" y="-302.3" font-family="Times New Roman,serif" font-size="14.00">component8</text>
</g>
<!-- 66&#45;&gt;24 -->
<g id="edge169" class="edge">
<title>66&#45;&gt;24</title>
<path fill="none" stroke="black" d="M1598.78,-368.42C1650.65,-355.91 1751.87,-332.63 1815.26,-318.6"/>
<polygon fill="black" stroke="black" points="1816.09,-322.01 1825.1,-316.44 1814.58,-315.17 1816.09,-322.01"/>
</g>
<!-- 63&#45;&gt;49 -->
<g id="edge161" class="edge">
<title>63&#45;&gt;49</title>
<path fill="none" stroke="black" d="M1522.52,-514.39C1530.98,-500.15 1539.42,-486.5 1546.62,-475.55"/>
<polygon fill="black" stroke="black" points="1549.67,-477.27 1552.35,-467.02 1543.86,-473.37 1549.67,-477.27"/>
</g>
<!-- 63&#45;&gt;6 -->
<g id="edge159" class="edge">
<title>63&#45;&gt;6</title>
<path fill="none" stroke="black" d="M1486.36,-504.3C1493.05,-460.18 1501.96,-407.47 1510,-360 1511.46,-351.36 1513.06,-341.94 1514.95,-333.46"/>
<polygon fill="black" stroke="black" points="1518.35,-334.26 1517.39,-323.71 1511.56,-332.56 1518.35,-334.26"/>
</g>
<!-- 63&#45;&gt;60 -->
<g id="edge163" class="edge">
<title>63&#45;&gt;60</title>
<path fill="none" stroke="black" d="M1484.47,-702.96C1484.24,-712.34 1483.85,-721.22 1483.32,-728.93"/>
<polygon fill="black" stroke="black" points="1479.82,-728.73 1482.46,-738.99 1486.8,-729.33 1479.82,-728.73"/>
</g>
<!-- 63&#45;&gt;54 -->
<g id="edge162" class="edge">
<title>63&#45;&gt;54</title>
<path fill="none" stroke="black" d="M1389.4,-649.27C1349.22,-671.79 1303.39,-702.2 1270,-739.08 1065.96,-964.48 1061.25,-1063.68 969,-1353.38 953.56,-1401.85 945.31,-1459.52 939.38,-1499.92"/>
<polygon fill="black" stroke="black" points="935.88,-1499.66 937.88,-1510.06 942.81,-1500.68 935.88,-1499.66"/>
</g>
<!-- 63&#45;&gt;14 -->
<g id="edge160" class="edge">
<title>63&#45;&gt;14</title>
<path fill="none" stroke="black" d="M1390.61,-651.63C1330.29,-689.72 1261,-749.86 1261,-828.08 1261,-974.08 1261,-974.08 1261,-974.08 1261,-1018.87 1235.06,-1065.63 1214.52,-1092.74"/>
<polygon fill="black" stroke="black" points="1211.57,-1090.83 1208.08,-1100.83 1217.05,-1095.19 1211.57,-1090.83"/>
</g>
<!-- 7&#45;&gt;23 -->
<g id="edge18" class="edge">
<title>7&#45;&gt;23</title>
<path fill="none" stroke="black" d="M1615.93,-1818.63C1491.46,-1812.49 1264.93,-1794.24 1074.42,-1739.64"/>
<polygon fill="black" stroke="black" points="1075.38,-1736.28 1064.8,-1736.85 1073.43,-1743 1075.38,-1736.28"/>
</g>
<!-- 7&#45;&gt;47 -->
<g id="edge19" class="edge">
<title>7&#45;&gt;47</title>
<path fill="none" stroke="black" d="M1694.29,-1804.62C1674.98,-1774.23 1645,-1708.38 1645,-1648.86 1645,-1648.86 1645,-1648.86 1645,-1207.23 1645,-1121.96 1627.94,-1096.91 1579,-1027.08 1570.91,-1015.54 1559.7,-1005.02 1549.49,-996.46"/>
<polygon fill="black" stroke="black" points="1551.56,-993.63 1541.6,-990.02 1547.14,-999.05 1551.56,-993.63"/>
</g>
<!-- 71 -->
<g id="node25" class="node">
<title>71</title>
<ellipse fill="none" stroke="black" cx="1849" cy="-1957.7" rx="46.28" ry="46.28"/>
<ellipse fill="none" stroke="black" cx="1849" cy="-1957.7" rx="50.29" ry="50.29"/>
<text text-anchor="middle" x="1849" y="-1954" font-family="Times New Roman,serif" font-size="14.00">interface3</text>
</g>
<!-- 7&#45;&gt;71 -->
<g id="edge20" class="edge">
<title>7&#45;&gt;71</title>
<path fill="none" stroke="black" d="M1731.25,-1840.42C1752.15,-1858.41 1783.64,-1887.77 1808.86,-1912.48"/>
<polygon fill="black" stroke="black" points="1806.55,-1915.12 1816.13,-1919.65 1811.46,-1910.14 1806.55,-1915.12"/>
</g>
<!-- 7&#45;&gt;60 -->
<g id="edge21" class="edge">
<title>7&#45;&gt;60</title>
<path fill="none" stroke="black" d="M1710.24,-1804.33C1717.74,-1773.5 1739,-1707 1739,-1648.86 1739,-1648.86 1739,-1648.86 1739,-1298.38 1739,-1253.68 1553.28,-852.5 1524,-811.08 1516.66,-800.7 1507.1,-790.66 1498.49,-782.16"/>
<polygon fill="black" stroke="black" points="1500.85,-779.58 1491.24,-775.12 1495.97,-784.6 1500.85,-779.58"/>
</g>
<!-- 47&#45;&gt;52 -->
<g id="edge126" class="edge">
<title>47&#45;&gt;52</title>
<path fill="none" stroke="black" d="M1520.55,-991.36C1516.44,-999.62 1510.61,-1009.68 1504.69,-1018.79"/>
<polygon fill="black" stroke="black" points="1501.75,-1016.89 1499.05,-1027.14 1507.55,-1020.81 1501.75,-1016.89"/>
</g>
<!-- 47&#45;&gt;66 -->
<g id="edge125" class="edge">
<title>47&#45;&gt;66</title>
<path fill="none" stroke="black" d="M1546.85,-957.4C1581.42,-935.25 1644,-889.49 1644,-830.08 1644,-830.08 1644,-830.08 1644,-602.54 1644,-524.69 1639.81,-501.13 1604,-432 1598.6,-421.57 1590.69,-411.55 1583.36,-403.08"/>
<polygon fill="black" stroke="black" points="1585.87,-400.63 1576.61,-395.48 1580.63,-405.28 1585.87,-400.63"/>
</g>
<!-- 47&#45;&gt;7 -->
<g id="edge127" class="edge">
<title>47&#45;&gt;7</title>
<path fill="none" stroke="black" d="M1553.19,-987.19C1568.26,-996.79 1585.68,-1010.93 1597,-1027.08 1645.94,-1096.91 1663,-1121.96 1663,-1207.23 1663,-1648.86 1663,-1648.86 1663,-1648.86 1663,-1702.8 1687.62,-1761.93 1701.22,-1795.17"/>
<polygon fill="black" stroke="black" points="1698.05,-1796.66 1705.05,-1804.62 1704.54,-1794.03 1698.05,-1796.66"/>
</g>
<!-- 47&#45;&gt;59 -->
<g id="edge124" class="edge">
<title>47&#45;&gt;59</title>
<path fill="none" stroke="black" d="M1512.29,-955.49C1508.17,-947.62 1503.93,-938.01 1500.61,-929.13"/>
<polygon fill="black" stroke="black" points="1503.87,-927.84 1497.3,-919.53 1497.25,-930.12 1503.87,-927.84"/>
</g>
<!-- 71&#45;&gt;7 -->
<g id="edge184" class="edge">
<title>71&#45;&gt;7</title>
<path fill="none" stroke="black" d="M1810.36,-1925.52C1784.11,-1901.89 1750.57,-1869.89 1729.33,-1848.11"/>
<polygon fill="black" stroke="black" points="1731.81,-1845.65 1722.36,-1840.87 1726.77,-1850.5 1731.81,-1845.65"/>
</g>
<!-- 46 -->
<g id="node43" class="node">
<title>46</title>
<ellipse fill="none" stroke="black" cx="1859" cy="-2061.84" rx="60.39" ry="18"/>
<text text-anchor="middle" x="1859" y="-2058.14" font-family="Times New Roman,serif" font-size="14.00">component15</text>
</g>
<!-- 71&#45;&gt;46 -->
<g id="edge182" class="edge">
<title>71&#45;&gt;46</title>
<path fill="none" stroke="black" d="M1860.47,-2006.96C1861.42,-2016.06 1862.09,-2025.28 1862.38,-2033.46"/>
<polygon fill="black" stroke="black" points="1858.88,-2033.57 1862.52,-2043.52 1865.88,-2033.47 1858.88,-2033.57"/>
</g>
<!-- 53 -->
<g id="node50" class="node">
<title>53</title>
<ellipse fill="none" stroke="black" cx="1974" cy="-234" rx="46.29" ry="18"/>
<text text-anchor="middle" x="1974" y="-230.3" font-family="Times New Roman,serif" font-size="14.00">interface2</text>
</g>
<!-- 71&#45;&gt;53 -->
<g id="edge183" class="edge">
<title>71&#45;&gt;53</title>
<path fill="none" stroke="black" d="M1852.4,-1907.26C1859.34,-1859.71 1871,-1785.7 1871,-1720.86 1871,-1720.86 1871,-1720.86 1871,-1116.08 1871,-1012.2 1965,-1005.97 1965,-902.08 1965,-902.08 1965,-902.08 1965,-377 1965,-337 1965,-290.65 1967.29,-262.08"/>
<polygon fill="black" stroke="black" points="1970.78,-262.35 1968.29,-252.05 1963.82,-261.65 1970.78,-262.35"/>
</g>
<!-- 60&#45;&gt;35 -->
<g id="edge154" class="edge">
<title>60&#45;&gt;35</title>
<path fill="none" stroke="black" d="M1483.91,-775.36C1484.71,-783.11 1484.94,-792.44 1484.59,-801.09"/>
<polygon fill="black" stroke="black" points="1481.09,-800.92 1483.88,-811.14 1488.08,-801.41 1481.09,-800.92"/>
</g>
<!-- 60&#45;&gt;63 -->
<g id="edge156" class="edge">
<title>60&#45;&gt;63</title>
<path fill="none" stroke="black" d="M1473.54,-738.99C1472.79,-731.85 1472.23,-722.92 1471.85,-713.07"/>
<polygon fill="black" stroke="black" points="1475.34,-712.84 1471.53,-702.96 1468.34,-713.06 1475.34,-712.84"/>
</g>
<!-- 60&#45;&gt;7 -->
<g id="edge155" class="edge">
<title>60&#45;&gt;7</title>
<path fill="none" stroke="black" d="M1506.32,-774.42C1518.67,-784.18 1532.28,-797.33 1542,-811.08 1571.28,-852.5 1757,-1253.68 1757,-1298.38 1757,-1648.86 1757,-1648.86 1757,-1648.86 1757,-1701.83 1739.36,-1761.74 1725.06,-1795.29"/>
<polygon fill="black" stroke="black" points="1721.69,-1794.26 1720.76,-1804.82 1728.07,-1797.15 1721.69,-1794.26"/>
</g>
<!-- 8&#45;&gt;20 -->
<g id="edge22" class="edge">
<title>8&#45;&gt;20</title>
<path fill="none" stroke="black" d="M631.19,-467.8C644.47,-493.9 665.11,-544.45 675.48,-575.67"/>
<polygon fill="black" stroke="black" points="672.23,-576.98 678.58,-585.45 678.9,-574.86 672.23,-576.98"/>
</g>
<!-- 9&#45;&gt;28 -->
<g id="edge24" class="edge">
<title>9&#45;&gt;28</title>
<path fill="none" stroke="black" d="M1837.91,-108.28C1838.71,-116.03 1838.94,-125.36 1838.59,-134.01"/>
<polygon fill="black" stroke="black" points="1835.09,-133.83 1837.88,-144.05 1842.08,-134.33 1835.09,-133.83"/>
</g>
<!-- 48 -->
<g id="node29" class="node">
<title>48</title>
<path fill="none" stroke="black" d="M1878.5,-32.73C1878.5,-34.53 1857.66,-36 1832,-36 1806.34,-36 1785.5,-34.53 1785.5,-32.73 1785.5,-32.73 1785.5,-3.27 1785.5,-3.27 1785.5,-1.47 1806.34,0 1832,0 1857.66,0 1878.5,-1.47 1878.5,-3.27 1878.5,-3.27 1878.5,-32.73 1878.5,-32.73"/>
<path fill="none" stroke="black" d="M1878.5,-32.73C1878.5,-30.92 1857.66,-29.45 1832,-29.45 1806.34,-29.45 1785.5,-30.92 1785.5,-32.73"/>
<text text-anchor="middle" x="1832" y="-14.3" font-family="Times New Roman,serif" font-size="14.00">component10</text>
</g>
<!-- 9&#45;&gt;48 -->
<g id="edge23" class="edge">
<title>9&#45;&gt;48</title>
<path fill="none" stroke="black" d="M1826.12,-72.05C1825.3,-64.35 1825.06,-55.03 1825.39,-46.36"/>
<polygon fill="black" stroke="black" points="1828.89,-46.49 1826.09,-36.28 1821.91,-46.01 1828.89,-46.49"/>
</g>
<!-- 48&#45;&gt;9 -->
<g id="edge128" class="edge">
<title>48&#45;&gt;9</title>
<path fill="none" stroke="black" d="M1837.91,-36.28C1838.71,-44.03 1838.94,-53.36 1838.59,-62.01"/>
<polygon fill="black" stroke="black" points="1835.09,-61.83 1837.88,-72.05 1842.08,-62.33 1835.09,-61.83"/>
</g>
<!-- 54&#45;&gt;10 -->
<g id="edge139" class="edge">
<title>54&#45;&gt;10</title>
<path fill="none" stroke="black" d="M908.12,-1589.25C900.62,-1600.09 892.07,-1611.71 884.22,-1621.65"/>
<polygon fill="black" stroke="black" points="881.4,-1619.58 877.84,-1629.56 886.84,-1623.98 881.4,-1619.58"/>
</g>
<!-- 54&#45;&gt;63 -->
<g id="edge142" class="edge">
<title>54&#45;&gt;63</title>
<path fill="none" stroke="black" d="M924.27,-1509.3C926.03,-1468.83 934.33,-1405.74 951,-1353.38 1043.25,-1063.68 1047.96,-964.48 1252,-739.08 1286.51,-700.96 1334.3,-669.77 1377.08,-647.04"/>
<polygon fill="black" stroke="black" points="1378.88,-650.05 1386.13,-642.32 1375.65,-643.85 1378.88,-650.05"/>
</g>
<!-- 54&#45;&gt;14 -->
<g id="edge140" class="edge">
<title>54&#45;&gt;14</title>
<path fill="none" stroke="black" d="M939.77,-1510.7C961.41,-1457.22 1007.97,-1359.86 1056,-1281.38 1087.61,-1229.73 1098.34,-1218.5 1136,-1171.08 1144.37,-1160.54 1154.08,-1149.23 1163.14,-1139.77"/>
<polygon fill="black" stroke="black" points="1165.67,-1142.2 1170.23,-1132.64 1160.7,-1137.27 1165.67,-1142.2"/>
</g>
<!-- 54&#45;&gt;21 -->
<g id="edge141" class="edge">
<title>54&#45;&gt;21</title>
<path fill="none" stroke="black" d="M956.29,-1519.72C961.1,-1516.04 966.11,-1512.43 971,-1509.17 998.46,-1490.83 1010.77,-1494.48 1036,-1473.17 1048.22,-1462.84 1059.49,-1448.94 1068.92,-1437.23"/>
<polygon fill="black" stroke="black" points="1071.86,-1439.16 1075.44,-1429.18 1066.42,-1434.75 1071.86,-1439.16"/>
</g>
<!-- 11 -->
<g id="node31" class="node">
<title>11</title>
<ellipse fill="none" stroke="red" cx="654" cy="-2512.93" rx="38.19" ry="18"/>
<text text-anchor="middle" x="654" y="-2509.23" font-family="Times New Roman,serif" font-size="14.00">device7</text>
</g>
<!-- 11&#45;&gt;58 -->
<g id="edge32" class="edge">
<title>11&#45;&gt;58</title>
<path fill="none" stroke="black" d="M691.68,-2509.27C845.59,-2498.41 1426.56,-2457.41 1598.06,-2445.31"/>
<polygon fill="black" stroke="black" points="1598.56,-2448.78 1608.29,-2444.59 1598.06,-2441.8 1598.56,-2448.78"/>
</g>
<!-- 11&#45;&gt;1 -->
<g id="edge30" class="edge">
<title>11&#45;&gt;1</title>
<path fill="none" stroke="black" d="M681.71,-2500.36C742.06,-2473.11 880,-2398.76 880,-2288.39 880,-2288.39 880,-2288.39 880,-1956.7 880,-1882.77 905.91,-1694.38 942,-1629.86 945.89,-1622.9 978.09,-1594.45 1001.71,-1574.08"/>
<polygon fill="black" stroke="black" points="1004.04,-1576.69 1009.34,-1567.52 999.48,-1571.39 1004.04,-1576.69"/>
</g>
<!-- 11&#45;&gt;4 -->
<g id="edge33" class="edge">
<title>11&#45;&gt;4</title>
<path fill="none" stroke="black" d="M616.96,-2507.5C478.61,-2489.96 0,-2419.78 0,-2288.39 0,-2288.39 0,-2288.39 0,-756.08 0,-640.71 9.96,-606.97 62,-504 84.36,-459.75 129.16,-423.05 160.79,-401.11"/>
<polygon fill="black" stroke="black" points="163.02,-403.82 169.33,-395.32 159.09,-398.03 163.02,-403.82"/>
</g>
<!-- 11&#45;&gt;45 -->
<g id="edge29" class="edge">
<title>11&#45;&gt;45</title>
<path fill="none" stroke="black" d="M654,-2494.82C654,-2457.39 654,-2365.42 654,-2288.39 654,-2288.39 654,-2288.39 654,-1956.7 654,-1871.58 642.33,-1845.9 597,-1773.86 553.23,-1704.3 437.99,-1699.89 481,-1629.86 499.52,-1599.71 523.47,-1614.79 552,-1593.86 612.49,-1549.48 630,-1536.63 670,-1473.17 726.99,-1382.76 726.24,-1350.21 747,-1245.38 762.85,-1165.32 762.34,-1144.42 769,-1063.08 780.75,-919.43 773.9,-882.93 783,-739.08 784.01,-723.06 785.33,-719.12 786,-703.08 789.68,-614.68 825.11,-583.37 786,-504 779.71,-491.24 768.72,-480.7 757.33,-472.47"/>
<polygon fill="black" stroke="black" points="759.28,-469.56 749.03,-466.89 755.37,-475.37 759.28,-469.56"/>
</g>
<!-- 11&#45;&gt;43 -->
<g id="edge31" class="edge">
<title>11&#45;&gt;43</title>
<path fill="none" stroke="black" d="M631.18,-2498.43C547.06,-2447.26 253.29,-2255.5 137,-2007.84 82.61,-1892.02 114,-1848.82 114,-1720.86 114,-1720.86 114,-1720.86 114,-1412.27 114,-1280.44 152,-1249.92 152,-1118.08 152,-1118.08 152,-1118.08 152,-602.54 152,-526.28 120.17,-488.86 171,-432 181.56,-420.19 262.18,-403.7 325.89,-392.27"/>
<polygon fill="black" stroke="black" points="326.72,-395.67 335.95,-390.48 325.49,-388.78 326.72,-395.67"/>
</g>
<!-- 45&#45;&gt;20 -->
<g id="edge118" class="edge">
<title>45&#45;&gt;20</title>
<path fill="none" stroke="black" d="M717.38,-468.26C713.87,-494.51 702.22,-544.7 692.67,-575.73"/>
<polygon fill="black" stroke="black" points="689.27,-574.86 689.52,-585.45 695.93,-577.01 689.27,-574.86"/>
</g>
<!-- 43&#45;&gt;19 -->
<g id="edge110" class="edge">
<title>43&#45;&gt;19</title>
<path fill="none" stroke="black" d="M415.29,-396.1C418.08,-403.79 420.69,-413.05 422.58,-421.67"/>
<polygon fill="black" stroke="black" points="419.17,-422.52 424.47,-431.7 426.05,-421.22 419.17,-422.52"/>
</g>
<!-- 13 -->
<g id="node34" class="node">
<title>13</title>
<ellipse fill="none" stroke="red" cx="1752" cy="-2584.93" rx="33.29" ry="18"/>
<text text-anchor="middle" x="1752" y="-2581.23" font-family="Times New Roman,serif" font-size="14.00">node4</text>
</g>
<!-- 13&#45;&gt;0 -->
<g id="edge39" class="edge">
<title>13&#45;&gt;0</title>
<path fill="none" stroke="black" d="M1752,-2566.62C1752,-2558.91 1752,-2549.64 1752,-2541.04"/>
<polygon fill="black" stroke="black" points="1755.5,-2541.03 1752,-2531.03 1748.5,-2541.03 1755.5,-2541.03"/>
</g>
<!-- 13&#45;&gt;49 -->
<g id="edge38" class="edge">
<title>13&#45;&gt;49</title>
<path fill="none" stroke="black" d="M1777.68,-2573.28C1783.05,-2571.12 1788.69,-2568.91 1794,-2566.93 1944.43,-2510.74 2133,-2602.51 2133,-2441.93 2133,-2441.93 2133,-2441.93 2133,-1550.51 2133,-1294.19 1816.14,-697.46 1648,-504 1635.17,-489.24 1617.25,-477.02 1601.44,-468.05"/>
<polygon fill="black" stroke="black" points="1602.88,-464.85 1592.42,-463.15 1599.54,-471 1602.88,-464.85"/>
</g>
<!-- 13&#45;&gt;28 -->
<g id="edge40" class="edge">
<title>13&#45;&gt;28</title>
<path fill="none" stroke="black" d="M1776.5,-2572.7C1782.15,-2570.48 1788.2,-2568.39 1794,-2566.93 1864.45,-2549.13 2058.07,-2570.52 2119,-2530.93 2157.42,-2505.97 2171,-2487.74 2171,-2441.93 2171,-2441.93 2171,-2441.93 2171,-972.08 2171,-875.48 2133,-854.68 2133,-758.08 2133,-758.08 2133,-758.08 2133,-305 2133,-194.76 1965.81,-169.97 1880.64,-164.49"/>
<polygon fill="black" stroke="black" points="1880.61,-160.98 1870.43,-163.9 1880.21,-167.97 1880.61,-160.98"/>
</g>
<!-- 13&#45;&gt;1 -->
<g id="edge36" class="edge">
<title>13&#45;&gt;1</title>
<path fill="none" stroke="black" d="M1718.7,-2584.09C1630.09,-2583.81 1381.64,-2578.5 1182,-2530.93 1076.99,-2505.9 956,-2549.88 956,-2441.93 956,-2441.93 956,-2441.93 956,-1718.86 956,-1665.13 987.72,-1608.91 1008.76,-1577.53"/>
<polygon fill="black" stroke="black" points="1011.85,-1579.22 1014.63,-1568.99 1006.08,-1575.25 1011.85,-1579.22"/>
</g>
<!-- 13&#45;&gt;22 -->
<g id="edge37" class="edge">
<title>13&#45;&gt;22</title>
<path fill="none" stroke="black" d="M1727.45,-2572.62C1691.44,-2554.5 1625.68,-2515.18 1599,-2458.93 1589.5,-2438.89 1586.89,-2416.05 1587.96,-2393.75"/>
<polygon fill="black" stroke="black" points="1591.47,-2393.78 1588.7,-2383.55 1584.49,-2393.27 1591.47,-2393.78"/>
</g>
<!-- 22&#45;&gt;58 -->
<g id="edge70" class="edge">
<title>22&#45;&gt;58</title>
<path fill="none" stroke="black" d="M1641.05,-2383.75C1642.98,-2394.29 1644.62,-2404.28 1645.77,-2412.84"/>
<polygon fill="black" stroke="black" points="1642.31,-2413.32 1646.97,-2422.84 1649.26,-2412.49 1642.31,-2413.32"/>
</g>
<!-- 22&#45;&gt;30 -->
<g id="edge72" class="edge">
<title>22&#45;&gt;30</title>
<path fill="none" stroke="black" d="M1555.27,-2207.51C1532.05,-2166.16 1511,-2113.66 1511,-2062.84 1511,-2062.84 1511,-2062.84 1511,-1956.7 1511,-1806.31 1563.23,-1396.95 1467,-1281.38 1437.62,-1246.09 1308.79,-1224.77 1237.91,-1215.21"/>
<polygon fill="black" stroke="black" points="1238.27,-1211.73 1227.9,-1213.89 1237.35,-1218.67 1238.27,-1211.73"/>
</g>
<!-- 64 -->
<g id="node47" class="node">
<title>64</title>
<ellipse fill="none" stroke="black" cx="1617" cy="-2133.84" rx="60.39" ry="18"/>
<text text-anchor="middle" x="1617" y="-2130.14" font-family="Times New Roman,serif" font-size="14.00">component11</text>
</g>
<!-- 22&#45;&gt;64 -->
<g id="edge71" class="edge">
<title>22&#45;&gt;64</title>
<path fill="none" stroke="black" d="M1609.83,-2187.85C1610.19,-2178.47 1610.69,-2169.61 1611.33,-2161.91"/>
<polygon fill="black" stroke="black" points="1614.82,-2162.16 1612.32,-2151.87 1607.85,-2161.48 1614.82,-2162.16"/>
</g>
<!-- 14&#45;&gt;52 -->
<g id="edge42" class="edge">
<title>14&#45;&gt;52</title>
<path fill="none" stroke="black" d="M1223.31,-1107.22C1268.91,-1095.72 1353.02,-1075.47 1413.22,-1061.45"/>
<polygon fill="black" stroke="black" points="1414.09,-1064.84 1423.04,-1059.16 1412.5,-1058.02 1414.09,-1064.84"/>
</g>
<!-- 14&#45;&gt;19 -->
<g id="edge41" class="edge">
<title>14&#45;&gt;19</title>
<path fill="none" stroke="black" d="M1155.76,-1109.48C1031.78,-1083.08 614.76,-973.18 438,-703.08 391.91,-632.66 401.34,-526.58 412.78,-477.56"/>
<polygon fill="black" stroke="black" points="416.21,-478.29 415.31,-467.73 409.43,-476.54 416.21,-478.29"/>
</g>
<!-- 14&#45;&gt;63 -->
<g id="edge44" class="edge">
<title>14&#45;&gt;63</title>
<path fill="none" stroke="black" d="M1197.82,-1099.17C1212.51,-1073.52 1243,-1022.65 1243,-974.08 1243,-974.08 1243,-974.08 1243,-828.08 1243,-748.76 1314.25,-688.04 1378.33,-650.04"/>
<polygon fill="black" stroke="black" points="1380.42,-652.87 1387.32,-644.83 1376.91,-646.82 1380.42,-652.87"/>
</g>
<!-- 14&#45;&gt;54 -->
<g id="edge43" class="edge">
<title>14&#45;&gt;54</title>
<path fill="none" stroke="black" d="M1183.52,-1134.95C1175.56,-1145.21 1163.85,-1158.68 1154,-1171.08 1116.34,-1218.5 1105.61,-1229.73 1074,-1281.38 1027.43,-1357.47 982.24,-1451.31 954.53,-1505.69"/>
<polygon fill="black" stroke="black" points="951.35,-1504.23 949.9,-1514.72 957.58,-1507.42 951.35,-1504.23"/>
</g>
<!-- 14&#45;&gt;30 -->
<g id="edge45" class="edge">
<title>14&#45;&gt;30</title>
<path fill="none" stroke="black" d="M1196.43,-1135C1197.27,-1142.58 1197.71,-1151.91 1197.75,-1161.32"/>
<polygon fill="black" stroke="black" points="1194.25,-1161.44 1197.63,-1171.48 1201.25,-1161.53 1194.25,-1161.44"/>
</g>
<!-- 30&#45;&gt;40 -->
<g id="edge91" class="edge">
<title>30&#45;&gt;40</title>
<path fill="none" stroke="black" d="M1197.63,-1245.12C1197.87,-1253.9 1197.74,-1263.13 1197.26,-1271.41"/>
<polygon fill="black" stroke="black" points="1193.75,-1271.35 1196.41,-1281.61 1200.73,-1271.93 1193.75,-1271.35"/>
</g>
<!-- 30&#45;&gt;22 -->
<g id="edge89" class="edge">
<title>30&#45;&gt;22</title>
<path fill="none" stroke="black" d="M1228.12,-1212.68C1299.86,-1220.62 1452.67,-1242.55 1485,-1281.38 1581.23,-1396.95 1529,-1806.31 1529,-1956.7 1529,-2062.84 1529,-2062.84 1529,-2062.84 1529,-2106.96 1544.86,-2152.35 1563.01,-2190.6"/>
<polygon fill="black" stroke="black" points="1559.9,-2192.2 1567.41,-2199.66 1566.19,-2189.14 1559.9,-2192.2"/>
</g>
<!-- 30&#45;&gt;14 -->
<g id="edge90" class="edge">
<title>30&#45;&gt;14</title>
<path fill="none" stroke="black" d="M1184.37,-1171.48C1184.13,-1162.73 1184.25,-1153.5 1184.73,-1145.22"/>
<polygon fill="black" stroke="black" points="1188.24,-1145.26 1185.57,-1135 1181.26,-1144.68 1188.24,-1145.26"/>
</g>
<!-- 15 -->
<g id="node38" class="node">
<title>15</title>
<ellipse fill="none" stroke="red" cx="540" cy="-1413.27" rx="33.29" ry="18"/>
<text text-anchor="middle" x="540" y="-1409.57" font-family="Times New Roman,serif" font-size="14.00">node3</text>
</g>
<!-- 15&#45;&gt;40 -->
<g id="edge47" class="edge">
<title>15&#45;&gt;40</title>
<path fill="none" stroke="black" d="M571.75,-1407.76C688.84,-1391.07 1092.66,-1332.94 1149,-1317.38 1151.45,-1316.7 1153.96,-1315.92 1156.46,-1315.08"/>
<polygon fill="black" stroke="black" points="1157.82,-1318.31 1166.01,-1311.59 1155.41,-1311.74 1157.82,-1318.31"/>
</g>
<!-- 15&#45;&gt;4 -->
<g id="edge50" class="edge">
<title>15&#45;&gt;4</title>
<path fill="none" stroke="black" d="M533.8,-1395.25C524.26,-1369.79 504.78,-1320.6 483,-1281.38 366.89,-1072.32 190,-1069.22 190,-830.08 190,-830.08 190,-830.08 190,-756.08 190,-627.77 175.22,-596.25 171,-468 170.47,-452.01 167.5,-447.61 171,-432 173.07,-422.77 176.93,-413.25 181.02,-404.87"/>
<polygon fill="black" stroke="black" points="184.14,-406.46 185.63,-395.97 177.92,-403.23 184.14,-406.46"/>
</g>
<!-- 15&#45;&gt;66 -->
<g id="edge48" class="edge">
<title>15&#45;&gt;66</title>
<path fill="none" stroke="black" d="M545.55,-1395.38C554.39,-1369.66 573.13,-1319.65 597,-1281.38 764.4,-1012.96 836.11,-964.55 1058,-739.08 1075.01,-721.8 1087.49,-724.42 1099,-703.08 1156.77,-596.01 1050.27,-517.32 1137,-432 1163.79,-405.64 1411.36,-388.08 1517.76,-381.69"/>
<polygon fill="black" stroke="black" points="1518.13,-385.17 1527.91,-381.09 1517.72,-378.19 1518.13,-385.17"/>
</g>
<!-- 36 -->
<g id="node39" class="node">
<title>36</title>
<ellipse fill="none" stroke="black" cx="276" cy="-450" rx="95.58" ry="18"/>
<text text-anchor="middle" x="276" y="-446.3" font-family="Times New Roman,serif" font-size="14.00">executionEnvironment1</text>
</g>
<!-- 15&#45;&gt;36 -->
<g id="edge46" class="edge">
<title>15&#45;&gt;36</title>
<path fill="none" stroke="black" d="M537.43,-1395.22C533.53,-1370.12 525.54,-1321.86 516,-1281.38 440.57,-961.17 318.33,-580.45 284.77,-477.67"/>
<polygon fill="black" stroke="black" points="288.06,-476.49 281.63,-468.07 281.41,-478.67 288.06,-476.49"/>
</g>
<!-- 37 -->
<g id="node40" class="node">
<title>37</title>
<ellipse fill="none" stroke="black" cx="374" cy="-1299.38" rx="100.18" ry="18"/>
<text text-anchor="middle" x="374" y="-1295.68" font-family="Times New Roman,serif" font-size="14.00">executionEnvironment10</text>
</g>
<!-- 15&#45;&gt;37 -->
<g id="edge49" class="edge">
<title>15&#45;&gt;37</title>
<path fill="none" stroke="black" d="M530.14,-1395.99C521.63,-1383.05 508.32,-1365.22 493,-1353.38 474.38,-1338.98 451.24,-1327.53 430.32,-1319.01"/>
<polygon fill="black" stroke="black" points="431.48,-1315.71 420.89,-1315.3 428.92,-1322.22 431.48,-1315.71"/>
</g>
<!-- 16 -->
<g id="node41" class="node">
<title>16</title>
<ellipse fill="none" stroke="red" cx="1849" cy="-2584.93" rx="46.29" ry="18"/>
<text text-anchor="middle" x="1849" y="-2581.23" font-family="Times New Roman,serif" font-size="14.00">interface6</text>
</g>
<!-- 17 -->
<g id="node42" class="node">
<title>17</title>
<ellipse fill="none" stroke="red" cx="71" cy="-2133.84" rx="42.79" ry="18"/>
<text text-anchor="middle" x="71" y="-2130.14" font-family="Times New Roman,serif" font-size="14.00">device10</text>
</g>
<!-- 17&#45;&gt;4 -->
<g id="edge53" class="edge">
<title>17&#45;&gt;4</title>
<path fill="none" stroke="black" d="M65.55,-2115.75C56.18,-2084.77 38,-2017.16 38,-1958.7 38,-1958.7 38,-1958.7 38,-972.08 38,-875.48 76,-854.68 76,-758.08 76,-758.08 76,-758.08 76,-602.54 76,-521.94 137.31,-442.35 172.28,-403.51"/>
<polygon fill="black" stroke="black" points="175.13,-405.59 179.31,-395.86 169.97,-400.85 175.13,-405.59"/>
</g>
<!-- 17&#45;&gt;36 -->
<g id="edge52" class="edge">
<title>17&#45;&gt;36</title>
<path fill="none" stroke="black" d="M71.83,-2115.55C73.25,-2084.26 76,-2016.17 76,-1958.7 76,-1958.7 76,-1958.7 76,-1298.38 76,-1079.56 228,-1048.9 228,-830.08 228,-830.08 228,-830.08 228,-756.08 228,-652.25 255.47,-530.92 268.85,-477.99"/>
<polygon fill="black" stroke="black" points="272.3,-478.61 271.4,-468.05 265.52,-476.87 272.3,-478.61"/>
</g>
<!-- 17&#45;&gt;46 -->
<g id="edge51" class="edge">
<title>17&#45;&gt;46</title>
<path fill="none" stroke="black" d="M113.43,-2131.18C348.75,-2121.97 1493.5,-2077.15 1789.19,-2065.58"/>
<polygon fill="black" stroke="black" points="1789.49,-2069.07 1799.34,-2065.18 1789.21,-2062.07 1789.49,-2069.07"/>
</g>
<!-- 46&#45;&gt;71 -->
<g id="edge122" class="edge">
<title>46&#45;&gt;71</title>
<path fill="none" stroke="black" d="M1852.09,-2043.52C1850.58,-2036.24 1849.23,-2027.32 1848.14,-2018.02"/>
<polygon fill="black" stroke="black" points="1851.59,-2017.42 1847.07,-2007.84 1844.63,-2018.15 1851.59,-2017.42"/>
</g>
<!-- 46&#45;&gt;46 -->
<g id="edge119" class="edge">
<title>46&#45;&gt;46</title>
<path fill="none" stroke="black" d="M1900.57,-2075.05C1920.2,-2076.58 1937.44,-2072.18 1937.44,-2061.84 1937.44,-2053.37 1925.84,-2048.88 1910.83,-2048.39"/>
<polygon fill="black" stroke="black" points="1910.48,-2044.9 1900.57,-2048.64 1910.65,-2051.9 1910.48,-2044.9"/>
</g>
<!-- 46&#45;&gt;64 -->
<g id="edge121" class="edge">
<title>46&#45;&gt;64</title>
<path fill="none" stroke="black" d="M1819.93,-2075.7C1779.47,-2087.92 1716.12,-2106.26 1670.92,-2118.85"/>
<polygon fill="black" stroke="black" points="1669.98,-2115.47 1661.28,-2121.52 1671.85,-2122.22 1669.98,-2115.47"/>
</g>
<!-- 46&#45;&gt;24 -->
<g id="edge123" class="edge">
<title>46&#45;&gt;24</title>
<path fill="none" stroke="black" d="M1871.75,-2043.81C1880.93,-2034.3 1892.37,-2021.62 1899,-2007.84 1934.9,-1933.25 1927,-1906.49 1927,-1823.71 1927,-1823.71 1927,-1823.71 1927,-1207.23 1927,-1071.37 1909,-1037.94 1909,-902.08 1909,-902.08 1909,-902.08 1909,-449 1909,-407.14 1890.36,-361.69 1878.81,-333.77"/>
<polygon fill="black" stroke="black" points="1881.96,-332.24 1874.92,-324.32 1875.49,-334.9 1881.96,-332.24"/>
</g>
<!-- 46&#45;&gt;53 -->
<g id="edge120" class="edge">
<title>46&#45;&gt;53</title>
<path fill="none" stroke="black" d="M1888.69,-2045.9C1905.18,-2037.23 1924.63,-2024.66 1937,-2007.84 1986.98,-1939.89 1983,-1908.06 1983,-1823.71 1983,-1823.71 1983,-1823.71 1983,-1298.38 1983,-1184.98 2021,-1159.48 2021,-1046.08 2021,-1046.08 2021,-1046.08 2021,-377 2021,-334.09 1998.6,-288.66 1984.41,-261.06"/>
<polygon fill="black" stroke="black" points="1987.47,-259.36 1979.78,-252.07 1981.25,-262.56 1987.47,-259.36"/>
</g>
<!-- 18 -->
<g id="node44" class="node">
<title>18</title>
<ellipse fill="none" stroke="red" cx="613" cy="-378" rx="55.79" ry="18"/>
<text text-anchor="middle" x="613" y="-374.3" font-family="Times New Roman,serif" font-size="14.00">component1</text>
</g>
<!-- 18&#45;&gt;33 -->
<g id="edge55" class="edge">
<title>18&#45;&gt;33</title>
<path fill="none" stroke="black" d="M593.52,-360.76C582.39,-351.49 568.26,-339.71 556.06,-329.55"/>
<polygon fill="black" stroke="black" points="558.3,-326.86 548.38,-323.15 553.82,-332.24 558.3,-326.86"/>
</g>
<!-- 18&#45;&gt;48 -->
<g id="edge54" class="edge">
<title>18&#45;&gt;48</title>
<path fill="none" stroke="black" d="M653.17,-365.29C706.49,-346.97 794,-306.09 794,-235 794,-235 794,-235 794,-161 794,-61.12 1558.17,-28.1 1775.17,-20.73"/>
<polygon fill="black" stroke="black" points="1775.51,-24.23 1785.38,-20.39 1775.27,-17.23 1775.51,-24.23"/>
</g>
<!-- 65 -->
<g id="node45" class="node">
<title>65</title>
<ellipse fill="none" stroke="black" cx="197" cy="-306" rx="44.69" ry="18"/>
<text text-anchor="middle" x="197" y="-302.3" font-family="Times New Roman,serif" font-size="14.00">package5</text>
</g>
<!-- 18&#45;&gt;65 -->
<g id="edge56" class="edge">
<title>18&#45;&gt;65</title>
<path fill="none" stroke="black" d="M564.47,-368.83C485.03,-355.47 328.03,-329.05 247.39,-315.48"/>
<polygon fill="black" stroke="black" points="247.92,-312.02 237.48,-313.81 246.76,-318.92 247.92,-312.02"/>
</g>
<!-- 21&#45;&gt;40 -->
<g id="edge68" class="edge">
<title>21&#45;&gt;40</title>
<path fill="none" stroke="black" d="M1097.2,-1395.4C1104.94,-1383.42 1117.86,-1367.09 1130,-1353.38 1140.04,-1342.04 1151.82,-1329.94 1162.49,-1320.18"/>
<polygon fill="black" stroke="black" points="1164.85,-1322.76 1170.03,-1313.52 1160.22,-1317.52 1164.85,-1322.76"/>
</g>
<!-- 21&#45;&gt;23 -->
<g id="edge67" class="edge">
<title>21&#45;&gt;23</title>
<path fill="none" stroke="black" d="M1096.4,-1431.23C1098.48,-1463.24 1093.71,-1534.66 1083,-1593.86 1076.78,-1628.22 1065.94,-1666.98 1056.36,-1692.1"/>
<polygon fill="black" stroke="black" points="1053,-1691.08 1052.49,-1701.66 1059.49,-1693.71 1053,-1691.08"/>
</g>
<!-- 21&#45;&gt;54 -->
<g id="edge69" class="edge">
<title>21&#45;&gt;54</title>
<path fill="none" stroke="black" d="M1088.54,-1431.25C1081.46,-1443.89 1068.39,-1461.01 1054,-1473.17 1028.77,-1494.48 1016.46,-1490.83 989,-1509.17 983.26,-1513 977.37,-1517.29 971.59,-1521.63"/>
<polygon fill="black" stroke="black" points="969.09,-1519.13 963.24,-1527.96 973.32,-1524.71 969.09,-1519.13"/>
</g>
<!-- 64&#45;&gt;22 -->
<g id="edge165" class="edge">
<title>64&#45;&gt;22</title>
<path fill="none" stroke="black" d="M1621.23,-2151.87C1621.89,-2158.99 1622.33,-2167.91 1622.58,-2177.74"/>
<polygon fill="black" stroke="black" points="1619.09,-2177.91 1622.77,-2187.85 1626.09,-2177.78 1619.09,-2177.91"/>
</g>
<!-- 64&#45;&gt;46 -->
<g id="edge164" class="edge">
<title>64&#45;&gt;46</title>
<path fill="none" stroke="black" d="M1656.02,-2120.01C1696.44,-2107.8 1759.71,-2089.48 1804.92,-2076.89"/>
<polygon fill="black" stroke="black" points="1805.86,-2080.26 1814.56,-2074.21 1803.99,-2073.51 1805.86,-2080.26"/>
</g>
<!-- 41&#45;&gt;23 -->
<g id="edge107" class="edge">
<title>41&#45;&gt;23</title>
<path fill="none" stroke="black" d="M1214.9,-1661.07C1180.08,-1670.74 1129.3,-1685.34 1086,-1701.86 1083.18,-1702.93 1080.28,-1704.14 1077.37,-1705.39"/>
<polygon fill="black" stroke="black" points="1075.8,-1702.25 1068.06,-1709.48 1078.62,-1708.66 1075.8,-1702.25"/>
</g>
<!-- 24&#45;&gt;66 -->
<g id="edge81" class="edge">
<title>24&#45;&gt;66</title>
<path fill="none" stroke="black" d="M1828.7,-317.87C1771.26,-331.59 1669.32,-354.97 1610.68,-367.83"/>
<polygon fill="black" stroke="black" points="1609.63,-364.48 1600.6,-370.03 1611.12,-371.32 1609.63,-364.48"/>
</g>
<!-- 24&#45;&gt;46 -->
<g id="edge79" class="edge">
<title>24&#45;&gt;46</title>
<path fill="none" stroke="black" d="M1886,-323.46C1902.98,-349.34 1927,-401.48 1927,-449 1927,-902.08 1927,-902.08 1927,-902.08 1927,-1037.94 1945,-1071.37 1945,-1207.23 1945,-1823.71 1945,-1823.71 1945,-1823.71 1945,-1906.49 1952.9,-1933.25 1917,-2007.84 1911.48,-2019.31 1902.63,-2030.02 1893.39,-2038.77"/>
<polygon fill="black" stroke="black" points="1890.8,-2036.39 1885.61,-2045.63 1895.43,-2041.64 1890.8,-2036.39"/>
</g>
<!-- 24&#45;&gt;53 -->
<g id="edge80" class="edge">
<title>24&#45;&gt;53</title>
<path fill="none" stroke="black" d="M1889.09,-288.76C1903.02,-278.52 1922.48,-265.22 1939.32,-254.41"/>
<polygon fill="black" stroke="black" points="1941.27,-257.32 1947.84,-249.02 1937.52,-251.41 1941.27,-257.32"/>
</g>
<!-- 53&#45;&gt;71 -->
<g id="edge137" class="edge">
<title>53&#45;&gt;71</title>
<path fill="none" stroke="black" d="M1979.71,-252.05C1983,-278.71 1983,-331.89 1983,-377 1983,-902.08 1983,-902.08 1983,-902.08 1983,-1005.97 1889,-1012.2 1889,-1116.08 1889,-1720.86 1889,-1720.86 1889,-1720.86 1889,-1782.55 1878.45,-1852.54 1867.87,-1900.15"/>
<polygon fill="black" stroke="black" points="1864.44,-1899.42 1865.61,-1909.95 1871.26,-1900.99 1864.44,-1899.42"/>
</g>
<!-- 53&#45;&gt;46 -->
<g id="edge136" class="edge">
<title>53&#45;&gt;46</title>
<path fill="none" stroke="black" d="M1990.78,-251.22C2010.38,-276.78 2039,-328.5 2039,-377 2039,-1046.08 2039,-1046.08 2039,-1046.08 2039,-1159.48 2001,-1184.98 2001,-1298.38 2001,-1823.71 2001,-1823.71 2001,-1823.71 2001,-1908.06 2004.98,-1939.89 1955,-2007.84 1943.5,-2023.47 1925.89,-2035.44 1908.8,-2044.01"/>
<polygon fill="black" stroke="black" points="1906.96,-2041.01 1899.4,-2048.43 1909.94,-2047.34 1906.96,-2041.01"/>
</g>
<!-- 53&#45;&gt;24 -->
<g id="edge138" class="edge">
<title>53&#45;&gt;24</title>
<path fill="none" stroke="black" d="M1956.51,-250.8C1942.9,-260.84 1923.77,-273.94 1906.99,-284.74"/>
<polygon fill="black" stroke="black" points="1905.04,-281.84 1898.48,-290.15 1908.8,-287.74 1905.04,-281.84"/>
</g>
<!-- 26 -->
<g id="node51" class="node">
<title>26</title>
<ellipse fill="none" stroke="black" cx="191" cy="-1822.71" rx="49.29" ry="18"/>
<text text-anchor="middle" x="191" y="-1819.01" font-family="Times New Roman,serif" font-size="14.00">package10</text>
</g>
<!-- 27 -->
<g id="node52" class="node">
<title>27</title>
<ellipse fill="none" stroke="red" cx="1953" cy="-2584.93" rx="40.09" ry="18"/>
<text text-anchor="middle" x="1953" y="-2581.23" font-family="Times New Roman,serif" font-size="14.00">artifact2</text>
</g>
<!-- 29 -->
<g id="node53" class="node">
<title>29</title>
<ellipse fill="none" stroke="red" cx="1369" cy="-1413.27" rx="55.8" ry="55.8"/>
<ellipse fill="none" stroke="red" cx="1369" cy="-1413.27" rx="59.79" ry="59.79"/>
<text text-anchor="middle" x="1369" y="-1409.57" font-family="Times New Roman,serif" font-size="14.00">component5</text>
</g>
<!-- 29&#45;&gt;5 -->
<g id="edge86" class="edge">
<title>29&#45;&gt;5</title>
<path fill="none" stroke="black" d="M1327.01,-1370.25C1318.62,-1363.71 1309.45,-1357.7 1300,-1353.38 1203.92,-1309.4 1154.9,-1372.9 1065,-1317.38 1005.05,-1280.35 896,-1121.92 896,-1046.08 896,-1046.08 896,-1046.08 896,-900.08 896,-858.06 878.2,-812.06 865.25,-784.13"/>
<polygon fill="black" stroke="black" points="868.37,-782.56 860.9,-775.04 862.06,-785.58 868.37,-782.56"/>
</g>
<!-- 29&#45;&gt;24 -->
<g id="edge88" class="edge">
<title>29&#45;&gt;24</title>
<path fill="none" stroke="black" d="M1413.91,-1373.23C1433.2,-1356.26 1455.88,-1336.03 1476,-1317.38 1688.96,-1119.88 1814,-1048.52 1814,-758.08 1814,-758.08 1814,-758.08 1814,-449 1814,-405.56 1837.25,-359.68 1854.06,-332.2"/>
<polygon fill="black" stroke="black" points="1857.1,-333.94 1859.47,-323.62 1851.17,-330.21 1857.1,-333.94"/>
</g>
<!-- 39 -->
<g id="node54" class="node">
<title>39</title>
<ellipse fill="none" stroke="black" cx="1411" cy="-1299.38" rx="55.79" ry="18"/>
<text text-anchor="middle" x="1411" y="-1295.68" font-family="Times New Roman,serif" font-size="14.00">component3</text>
</g>
<!-- 29&#45;&gt;39 -->
<g id="edge87" class="edge">
<title>29&#45;&gt;39</title>
<path fill="none" stroke="black" d="M1389.75,-1356.98C1393.66,-1346.58 1397.57,-1336.15 1400.96,-1327.12"/>
<polygon fill="black" stroke="black" points="1404.29,-1328.2 1404.53,-1317.61 1397.74,-1325.74 1404.29,-1328.2"/>
</g>
<!-- 31 -->
<g id="node55" class="node">
<title>31</title>
<path fill="none" stroke="red" d="M1172,-1734.59C1172,-1736.39 1152.73,-1737.86 1129,-1737.86 1105.27,-1737.86 1086,-1736.39 1086,-1734.59 1086,-1734.59 1086,-1705.13 1086,-1705.13 1086,-1703.33 1105.27,-1701.86 1129,-1701.86 1152.73,-1701.86 1172,-1703.33 1172,-1705.13 1172,-1705.13 1172,-1734.59 1172,-1734.59"/>
<path fill="none" stroke="red" d="M1172,-1734.59C1172,-1732.78 1152.73,-1731.31 1129,-1731.31 1105.27,-1731.31 1086,-1732.78 1086,-1734.59"/>
<text text-anchor="middle" x="1129" y="-1716.16" font-family="Times New Roman,serif" font-size="14.00">component6</text>
</g>
<!-- 31&#45;&gt;2 -->
<g id="edge92" class="edge">
<title>31&#45;&gt;2</title>
<path fill="none" stroke="black" d="M1128.75,-1701.56C1128.64,-1693.84 1128.51,-1684.57 1128.39,-1675.97"/>
<polygon fill="black" stroke="black" points="1131.89,-1675.91 1128.24,-1665.96 1124.89,-1676.01 1131.89,-1675.91"/>
</g>
<!-- 32 -->
<g id="node56" class="node">
<title>32</title>
<ellipse fill="none" stroke="red" cx="830" cy="-1719.86" rx="60.39" ry="18"/>
<text text-anchor="middle" x="830" y="-1716.16" font-family="Times New Roman,serif" font-size="14.00">component13</text>
</g>
<!-- 32&#45;&gt;10 -->
<g id="edge93" class="edge">
<title>32&#45;&gt;10</title>
<path fill="none" stroke="black" d="M837.26,-1701.92C840.68,-1693.95 844.82,-1684.27 848.64,-1675.37"/>
<polygon fill="black" stroke="black" points="851.87,-1676.71 852.6,-1666.14 845.44,-1673.95 851.87,-1676.71"/>
</g>
<!-- 34 -->
<g id="node57" class="node">
<title>34</title>
<ellipse fill="none" stroke="black" cx="528" cy="-1647.86" rx="37.89" ry="18"/>
<text text-anchor="middle" x="528" y="-1644.16" font-family="Times New Roman,serif" font-size="14.00">model5</text>
</g>
<!-- 59&#45;&gt;35 -->
<g id="edge153" class="edge">
<title>59&#45;&gt;35</title>
<path fill="none" stroke="black" d="M1485.89,-883.49C1483.04,-875.71 1480.35,-866.22 1478.42,-857.41"/>
<polygon fill="black" stroke="black" points="1481.85,-856.71 1476.56,-847.53 1474.97,-858.01 1481.85,-856.71"/>
</g>
<!-- 59&#45;&gt;47 -->
<g id="edge152" class="edge">
<title>59&#45;&gt;47</title>
<path fill="none" stroke="black" d="M1508.73,-918.71C1512.86,-926.61 1517.11,-936.26 1520.44,-945.17"/>
<polygon fill="black" stroke="black" points="1517.18,-946.46 1523.75,-954.78 1523.8,-944.18 1517.18,-946.46"/>
</g>
<!-- 38 -->
<g id="node59" class="node">
<title>38</title>
<ellipse fill="none" stroke="red" cx="1057" cy="-603.54" rx="33.29" ry="18"/>
<text text-anchor="middle" x="1057" y="-599.84" font-family="Times New Roman,serif" font-size="14.00">node8</text>
</g>
<!-- 38&#45;&gt;49 -->
<g id="edge102" class="edge">
<title>38&#45;&gt;49</title>
<path fill="none" stroke="black" d="M1084.84,-593.3C1139.23,-575.36 1263.5,-534.84 1369,-504 1421.96,-488.52 1483.42,-472.25 1523.42,-461.89"/>
<polygon fill="black" stroke="black" points="1524.31,-465.28 1533.11,-459.38 1522.56,-458.5 1524.31,-465.28"/>
</g>
<!-- 38&#45;&gt;25 -->
<g id="edge99" class="edge">
<title>38&#45;&gt;25</title>
<path fill="none" stroke="black" d="M1046.88,-586.02C1033.2,-564.79 1007.04,-527.83 977,-504 959.79,-490.34 938.48,-479.01 919.29,-470.38"/>
<polygon fill="black" stroke="black" points="920.63,-467.14 910.06,-466.36 917.83,-473.56 920.63,-467.14"/>
</g>
<!-- 38&#45;&gt;6 -->
<g id="edge98" class="edge">
<title>38&#45;&gt;6</title>
<path fill="none" stroke="black" d="M1056.59,-585.38C1056.73,-551.31 1062.03,-474.72 1104,-432 1206.84,-327.31 1392.63,-309.28 1480.06,-306.85"/>
<polygon fill="black" stroke="black" points="1480.3,-310.35 1490.22,-306.63 1480.14,-303.35 1480.3,-310.35"/>
</g>
<!-- 38&#45;&gt;12 -->
<g id="edge100" class="edge">
<title>38&#45;&gt;12</title>
<path fill="none" stroke="black" d="M1055.53,-585.35C1053.54,-553.45 1052.66,-483.64 1077,-432 1095.9,-391.91 1108.48,-383.6 1146,-360 1255.72,-290.99 1407.35,-256.31 1482.29,-242.48"/>
<polygon fill="black" stroke="black" points="1483.13,-245.89 1492.34,-240.66 1481.88,-239 1483.13,-245.89"/>
</g>
<!-- 38&#45;&gt;36 -->
<g id="edge101" class="edge">
<title>38&#45;&gt;36</title>
<path fill="none" stroke="black" d="M1049.16,-586.05C1037.22,-563.02 1012.08,-522.03 977,-504 858.98,-443.36 512.88,-482.62 381,-468 371.97,-467 362.53,-465.75 353.18,-464.4"/>
<polygon fill="black" stroke="black" points="353.49,-460.91 343.08,-462.89 352.45,-467.83 353.49,-460.91"/>
</g>
<!-- 56 -->
<g id="node60" class="node">
<title>56</title>
<ellipse fill="none" stroke="black" cx="1191" cy="-450" rx="44.69" ry="18"/>
<text text-anchor="middle" x="1191" y="-446.3" font-family="Times New Roman,serif" font-size="14.00">package6</text>
</g>
<!-- 38&#45;&gt;56 -->
<g id="edge103" class="edge">
<title>38&#45;&gt;56</title>
<path fill="none" stroke="black" d="M1070.38,-586.69C1086.99,-567.1 1116.27,-532.82 1142,-504 1150.65,-494.31 1160.33,-483.78 1168.78,-474.68"/>
<polygon fill="black" stroke="black" points="1171.59,-476.81 1175.84,-467.1 1166.46,-472.03 1171.59,-476.81"/>
</g>
<!-- 42 -->
<g id="node61" class="node">
<title>42</title>
<ellipse fill="none" stroke="red" cx="1258" cy="-1719.86" rx="55.79" ry="18"/>
<text text-anchor="middle" x="1258" y="-1716.16" font-family="Times New Roman,serif" font-size="14.00">component9</text>
</g>
<!-- 42&#45;&gt;41 -->
<g id="edge108" class="edge">
<title>42&#45;&gt;41</title>
<path fill="none" stroke="black" d="M1257.51,-1701.56C1257.29,-1693.84 1257.02,-1684.57 1256.77,-1675.97"/>
<polygon fill="black" stroke="black" points="1260.27,-1675.86 1256.49,-1665.96 1253.28,-1676.06 1260.27,-1675.86"/>
</g>
<!-- 42&#45;&gt;24 -->
<g id="edge109" class="edge">
<title>42&#45;&gt;24</title>
<path fill="none" stroke="black" d="M1289.73,-1705.03C1410.28,-1650.12 1833,-1434.99 1833,-1118.08 1833,-1118.08 1833,-1118.08 1833,-1044.08 1833,-947.48 1871,-926.68 1871,-830.08 1871,-830.08 1871,-830.08 1871,-449 1871,-409 1871,-362.65 1871,-334.08"/>
<polygon fill="black" stroke="black" points="1874.5,-334.05 1871,-324.05 1867.5,-334.05 1874.5,-334.05"/>
</g>
<!-- 44 -->
<g id="node62" class="node">
<title>44</title>
<ellipse fill="none" stroke="red" cx="681" cy="-1719.86" rx="33.29" ry="18"/>
<text text-anchor="middle" x="681" y="-1716.16" font-family="Times New Roman,serif" font-size="14.00">node2</text>
</g>
<!-- 44&#45;&gt;40 -->
<g id="edge114" class="edge">
<title>44&#45;&gt;40</title>
<path fill="none" stroke="black" d="M698.28,-1704.31C710.32,-1693.94 726.56,-1679.48 740,-1665.86 877.4,-1526.6 882.3,-1454.11 1050,-1353.38 1090.13,-1329.27 1105.29,-1334.16 1149,-1317.38 1151.23,-1316.52 1153.52,-1315.63 1155.83,-1314.72"/>
<polygon fill="black" stroke="black" points="1157.3,-1317.9 1165.29,-1310.95 1154.71,-1311.4 1157.3,-1317.9"/>
</g>
<!-- 44&#45;&gt;28 -->
<g id="edge116" class="edge">
<title>44&#45;&gt;28</title>
<path fill="none" stroke="black" d="M686.47,-1701.69C728.3,-1570.08 996,-723.15 996,-604.54 996,-604.54 996,-604.54 996,-305 996,-224.48 1606.51,-177.88 1784.09,-166.03"/>
<polygon fill="black" stroke="black" points="1784.43,-169.51 1794.18,-165.36 1783.97,-162.53 1784.43,-169.51"/>
</g>
<!-- 44&#45;&gt;10 -->
<g id="edge111" class="edge">
<title>44&#45;&gt;10</title>
<path fill="none" stroke="black" d="M707.03,-1708.68C736.99,-1696.97 786.49,-1677.61 821.04,-1664.1"/>
<polygon fill="black" stroke="black" points="822.32,-1667.35 830.36,-1660.45 819.77,-1660.83 822.32,-1667.35"/>
</g>
<!-- 44&#45;&gt;19 -->
<g id="edge112" class="edge">
<title>44&#45;&gt;19</title>
<path fill="none" stroke="black" d="M661.43,-1705.15C647.07,-1694.83 627.32,-1680.08 611,-1665.86 593.94,-1651 592.44,-1644.28 575,-1629.86 553.06,-1611.71 543.75,-1612.24 522,-1593.86 392,-1484 320.47,-1475.31 257,-1317.38 192.57,-1157.04 370.71,-606.2 413.84,-477.87"/>
<polygon fill="black" stroke="black" points="417.27,-478.66 417.15,-468.07 410.64,-476.43 417.27,-478.66"/>
</g>
<!-- 44&#45;&gt;60 -->
<g id="edge117" class="edge">
<title>44&#45;&gt;60</title>
<path fill="none" stroke="black" d="M711.46,-1712.46C753.68,-1703.36 832.25,-1685.56 898,-1665.86 1020.05,-1629.29 1352.69,-1567.8 1438,-1473.17 1496.18,-1408.63 1494.2,-1366.35 1476,-1281.38 1445.4,-1138.48 1359,-1120.22 1359,-974.08 1359,-974.08 1359,-974.08 1359,-900.08 1359,-847.9 1406.8,-804.82 1441.81,-780.27"/>
<polygon fill="black" stroke="black" points="1444.1,-782.95 1450.4,-774.43 1440.16,-777.16 1444.1,-782.95"/>
</g>
<!-- 44&#45;&gt;37 -->
<g id="edge115" class="edge">
<title>44&#45;&gt;37</title>
<path fill="none" stroke="black" d="M668.91,-1702.84C639.46,-1663.75 561.72,-1560.33 498,-1473.17 459.99,-1421.18 416.22,-1359.83 392.17,-1326"/>
<polygon fill="black" stroke="black" points="394.86,-1323.74 386.22,-1317.62 389.16,-1327.8 394.86,-1323.74"/>
</g>
<!-- 44&#45;&gt;34 -->
<g id="edge113" class="edge">
<title>44&#45;&gt;34</title>
<path fill="none" stroke="black" d="M656.42,-1707.61C631.3,-1696.12 592.04,-1678.16 563.53,-1665.12"/>
<polygon fill="black" stroke="black" points="564.87,-1661.88 554.32,-1660.9 561.95,-1668.24 564.87,-1661.88"/>
</g>
<!-- 50 -->
<g id="node63" class="node">
<title>50</title>
<ellipse fill="none" stroke="red" cx="512" cy="-603.54" rx="55.79" ry="18"/>
<text text-anchor="middle" x="512" y="-599.84" font-family="Times New Roman,serif" font-size="14.00">component4</text>
</g>
<!-- 50&#45;&gt;33 -->
<g id="edge131" class="edge">
<title>50&#45;&gt;33</title>
<path fill="none" stroke="black" d="M512.99,-585.37C515.82,-536.2 523.97,-394.51 527.42,-334.44"/>
<polygon fill="black" stroke="black" points="530.93,-334.4 528.01,-324.21 523.94,-334 530.93,-334.4"/>
</g>
<!-- 50&#45;&gt;8 -->
<g id="edge132" class="edge">
<title>50&#45;&gt;8</title>
<path fill="none" stroke="black" d="M522.07,-585.75C534.22,-565.82 555.57,-531.77 576,-504 583.16,-494.27 591.53,-483.96 599.03,-475.05"/>
<polygon fill="black" stroke="black" points="601.8,-477.19 605.62,-467.31 596.47,-472.65 601.8,-477.19"/>
</g>
<!-- 51 -->
<g id="node64" class="node">
<title>51</title>
<ellipse fill="none" stroke="red" cx="2067" cy="-2584.93" rx="55.79" ry="18"/>
<text text-anchor="middle" x="2067" y="-2581.23" font-family="Times New Roman,serif" font-size="14.00">component7</text>
</g>
<!-- 55 -->
<g id="node65" class="node">
<title>55</title>
<ellipse fill="none" stroke="black" cx="539" cy="-1822.71" rx="44.71" ry="44.71"/>
<ellipse fill="none" stroke="black" cx="539" cy="-1822.71" rx="48.69" ry="48.69"/>
<text text-anchor="middle" x="539" y="-1819.01" font-family="Times New Roman,serif" font-size="14.00">package4</text>
</g>
<!-- 57 -->
<g id="node66" class="node">
<title>57</title>
<ellipse fill="none" stroke="red" cx="462" cy="-1957.7" rx="37.89" ry="18"/>
<text text-anchor="middle" x="462" y="-1954" font-family="Times New Roman,serif" font-size="14.00">model0</text>
</g>
<!-- 57&#45;&gt;7 -->
<g id="edge147" class="edge">
<title>57&#45;&gt;7</title>
<path fill="none" stroke="black" d="M498.31,-1952.83C665.73,-1934.97 1365.8,-1860.31 1617.98,-1833.41"/>
<polygon fill="black" stroke="black" points="1618.63,-1836.86 1628.2,-1832.32 1617.89,-1829.9 1618.63,-1836.86"/>
</g>
<!-- 57&#45;&gt;65 -->
<g id="edge146" class="edge">
<title>57&#45;&gt;65</title>
<path fill="none" stroke="black" d="M445.77,-1941.16C381.98,-1879.41 152,-1650.01 152,-1552.51 152,-1552.51 152,-1552.51 152,-1412.27 152,-974.76 -21.25,-861.52 62,-432 68.56,-398.13 67.61,-385.36 91,-360 107.57,-342.03 131.59,-329.33 152.58,-320.87"/>
<polygon fill="black" stroke="black" points="153.88,-324.12 161.97,-317.28 151.38,-317.58 153.88,-324.12"/>
</g>
<!-- 57&#45;&gt;26 -->
<g id="edge143" class="edge">
<title>57&#45;&gt;26</title>
<path fill="none" stroke="black" d="M431.58,-1947.05C390.01,-1933.24 313.8,-1905.71 254,-1871.55 241.17,-1864.22 228,-1854.6 217.04,-1845.92"/>
<polygon fill="black" stroke="black" points="219.1,-1843.08 209.13,-1839.5 214.69,-1848.52 219.1,-1843.08"/>
</g>
<!-- 57&#45;&gt;34 -->
<g id="edge145" class="edge">
<title>57&#45;&gt;34</title>
<path fill="none" stroke="black" d="M462.32,-1939.57C463.26,-1906.91 466.9,-1833.65 481,-1773.86 489.28,-1738.76 504.85,-1700.16 515.8,-1675.27"/>
<polygon fill="black" stroke="black" points="519.14,-1676.37 520.03,-1665.81 512.75,-1673.51 519.14,-1676.37"/>
</g>
<!-- 57&#45;&gt;56 -->
<g id="edge148" class="edge">
<title>57&#45;&gt;56</title>
<path fill="none" stroke="black" d="M486.4,-1943.78C514.43,-1928.4 561.17,-1901.06 597,-1871.55 660.03,-1819.65 679.47,-1806.94 723,-1737.86 985.88,-1320.72 969.69,-1171.71 1123,-703.08 1149.48,-622.15 1173.71,-524.24 1184.74,-477.86"/>
<polygon fill="black" stroke="black" points="1188.18,-478.53 1187.07,-468 1181.37,-476.92 1188.18,-478.53"/>
</g>
<!-- 57&#45;&gt;55 -->
<g id="edge149" class="edge">
<title>57&#45;&gt;55</title>
<path fill="none" stroke="black" d="M471.6,-1940.12C481.14,-1923.64 496.27,-1897.51 509.78,-1874.17"/>
<polygon fill="black" stroke="black" points="512.88,-1875.8 514.86,-1865.39 506.82,-1872.3 512.88,-1875.8"/>
</g>
<!-- 62 -->
<g id="node67" class="node">
<title>62</title>
<ellipse fill="none" stroke="black" cx="652" cy="-1299.38" rx="46.29" ry="18"/>
<text text-anchor="middle" x="652" y="-1295.68" font-family="Times New Roman,serif" font-size="14.00">interface9</text>
</g>
<!-- 57&#45;&gt;62 -->
<g id="edge144" class="edge">
<title>57&#45;&gt;62</title>
<path fill="none" stroke="black" d="M452.7,-1939.97C418.19,-1875.46 305.1,-1639.91 416,-1509.17 464.83,-1451.6 524.52,-1522.1 582,-1473.17 625.55,-1436.1 607.17,-1406.24 629,-1353.38 632.58,-1344.71 636.61,-1335.32 640.28,-1326.87"/>
<polygon fill="black" stroke="black" points="643.58,-1328.06 644.39,-1317.5 637.17,-1325.25 643.58,-1328.06"/>
</g>
<!-- 62&#45;&gt;20 -->
<g id="edge158" class="edge">
<title>62&#45;&gt;20</title>
<path fill="none" stroke="black" d="M645.98,-1281.48C635.26,-1249.84 614,-1179.34 614,-1118.08 614,-1118.08 614,-1118.08 614,-828.08 614,-754 648.18,-671.71 667.71,-630.73"/>
<polygon fill="black" stroke="black" points="670.88,-632.21 672.1,-621.69 664.58,-629.16 670.88,-632.21"/>
</g>
<!-- 61 -->
<g id="node68" class="node">
<title>61</title>
<ellipse fill="none" stroke="red" cx="191" cy="-1957.7" rx="44.69" ry="18"/>
<text text-anchor="middle" x="191" y="-1954" font-family="Times New Roman,serif" font-size="14.00">package9</text>
</g>
<!-- 61&#45;&gt;26 -->
<g id="edge157" class="edge">
<title>61&#45;&gt;26</title>
<path fill="none" stroke="black" d="M191,-1939.58C191,-1917.14 191,-1877.5 191,-1850.92"/>
<polygon fill="black" stroke="black" points="194.5,-1850.75 191,-1840.75 187.5,-1850.75 194.5,-1850.75"/>
</g>
<!-- 67 -->
<g id="node69" class="node">
<title>67</title>
<ellipse fill="none" stroke="red" cx="1231" cy="-2512.93" rx="40.09" ry="18"/>
<text text-anchor="middle" x="1231" y="-2509.23" font-family="Times New Roman,serif" font-size="14.00">artifact1</text>
</g>
<!-- 67&#45;&gt;58 -->
<g id="edge171" class="edge">
<title>67&#45;&gt;58</title>
<path fill="none" stroke="black" d="M1268.19,-2505.65C1344.32,-2492.81 1517.67,-2463.57 1600.41,-2449.62"/>
<polygon fill="black" stroke="black" points="1601.24,-2453.03 1610.51,-2447.91 1600.07,-2446.12 1601.24,-2453.03"/>
</g>
<!-- 67&#45;&gt;5 -->
<g id="edge170" class="edge">
<title>67&#45;&gt;5</title>
<path fill="none" stroke="black" d="M1206.7,-2498.47C1133.16,-2455.78 918,-2315.43 918,-2134.84 918,-2134.84 918,-2134.84 918,-1956.7 918,-1723.39 591.17,-1871.52 481,-1665.86 435.03,-1580.04 548.47,-1573.89 620,-1473.17 642.96,-1440.84 693.33,-1354.6 707,-1317.38 741.08,-1224.55 727.82,-1195.45 750,-1099.08 757.42,-1066.83 759.9,-1058.9 769,-1027.08 794.49,-938 827.75,-833.33 843.29,-785.01"/>
<polygon fill="black" stroke="black" points="846.68,-785.91 846.41,-775.32 840.01,-783.76 846.68,-785.91"/>
</g>
<!-- 70 -->
<g id="node70" class="node">
<title>70</title>
<ellipse fill="none" stroke="black" cx="1361" cy="-2133.84" rx="46.29" ry="18"/>
<text text-anchor="middle" x="1361" y="-2130.14" font-family="Times New Roman,serif" font-size="14.00">interface8</text>
</g>
<!-- 67&#45;&gt;70 -->
<g id="edge172" class="edge">
<title>67&#45;&gt;70</title>
<path fill="none" stroke="black" d="M1236.92,-2494.75C1257.57,-2434.87 1326.44,-2235.1 1351.65,-2161.97"/>
<polygon fill="black" stroke="black" points="1355.09,-2162.72 1355.04,-2152.13 1348.47,-2160.44 1355.09,-2162.72"/>
</g>
<!-- 68 -->
<g id="node71" class="node">
<title>68</title>
<ellipse fill="none" stroke="red" cx="1245" cy="-1413.27" rx="46.29" ry="18"/>
<text text-anchor="middle" x="1245" y="-1409.57" font-family="Times New Roman,serif" font-size="14.00">interface4</text>
</g>
<!-- 68&#45;&gt;40 -->
<g id="edge175" class="edge">
<title>68&#45;&gt;40</title>
<path fill="none" stroke="black" d="M1236.8,-1395.28C1227.95,-1376.93 1213.74,-1347.5 1203.5,-1326.27"/>
<polygon fill="black" stroke="black" points="1206.6,-1324.65 1199.1,-1317.16 1200.3,-1327.69 1206.6,-1324.65"/>
</g>
<!-- 68&#45;&gt;24 -->
<g id="edge176" class="edge">
<title>68&#45;&gt;24</title>
<path fill="none" stroke="black" d="M1256.25,-1395.81C1274.03,-1370.24 1310.31,-1319.92 1346,-1281.38 1444.42,-1175.1 1504.8,-1181.65 1588,-1063.08 1647.54,-978.23 1641.62,-944.88 1676,-847.08 1750.92,-634 1708.22,-555.7 1821,-360 1827.25,-349.15 1836.15,-338.77 1844.7,-330.11"/>
<polygon fill="black" stroke="black" points="1847.32,-332.45 1852.06,-322.98 1842.45,-327.42 1847.32,-332.45"/>
</g>
<!-- 68&#45;&gt;39 -->
<g id="edge174" class="edge">
<title>68&#45;&gt;39</title>
<path fill="none" stroke="black" d="M1257.61,-1395.68C1267.95,-1382.91 1283.53,-1365.45 1300,-1353.38 1320.09,-1338.65 1344.91,-1326.34 1365.99,-1317.31"/>
<polygon fill="black" stroke="black" points="1367.5,-1320.47 1375.38,-1313.39 1364.8,-1314.01 1367.5,-1320.47"/>
</g>
<!-- 68&#45;&gt;62 -->
<g id="edge173" class="edge">
<title>68&#45;&gt;62</title>
<path fill="none" stroke="black" d="M1222.72,-1397.18C1201.07,-1383.32 1166.73,-1363.46 1134,-1353.38 1055.47,-1329.2 816.45,-1311.08 707.36,-1303.83"/>
<polygon fill="black" stroke="black" points="707.42,-1300.33 697.21,-1303.17 706.96,-1307.32 707.42,-1300.33"/>
</g>
<!-- 69 -->
<g id="node72" class="node">
<title>69</title>
<ellipse fill="none" stroke="red" cx="1442" cy="-2287.39" rx="55.79" ry="18"/>
<text text-anchor="middle" x="1442" y="-2283.69" font-family="Times New Roman,serif" font-size="14.00">component0</text>
</g>
<!-- 69&#45;&gt;48 -->
<g id="edge177" class="edge">
<title>69&#45;&gt;48</title>
<path fill="none" stroke="black" d="M1448.14,-2269.44C1457.18,-2247.02 1476.29,-2208 1506,-2187.84 1573.51,-2142.04 1606.63,-2170.74 1686,-2151.84 1802.64,-2124.07 1850.27,-2152.05 1946,-2079.84 2042.69,-2006.92 2039,-1944.82 2039,-1823.71 2039,-1823.71 2039,-1823.71 2039,-1412.27 2039,-1280.44 2077,-1249.92 2077,-1118.08 2077,-1118.08 2077,-1118.08 2077,-1044.08 2077,-910.28 2171,-891.88 2171,-758.08 2171,-758.08 2171,-758.08 2171,-161 2171,-40.18 1985.54,-20.4 1888.97,-18.29"/>
<polygon fill="black" stroke="black" points="1888.84,-14.79 1878.78,-18.13 1888.72,-21.79 1888.84,-14.79"/>
</g>
<!-- 69&#45;&gt;21 -->
<g id="edge179" class="edge">
<title>69&#45;&gt;21</title>
<path fill="none" stroke="black" d="M1443.07,-2269.21C1447.2,-2190.02 1455.93,-1854.39 1325,-1629.86 1270.55,-1536.48 1214.41,-1550.61 1139,-1473.17 1128.45,-1462.34 1117.85,-1449.29 1109.4,-1438.22"/>
<polygon fill="black" stroke="black" points="1112.19,-1436.11 1103.38,-1430.22 1106.59,-1440.32 1112.19,-1436.11"/>
</g>
<!-- 69&#45;&gt;64 -->
<g id="edge180" class="edge">
<title>69&#45;&gt;64</title>
<path fill="none" stroke="black" d="M1449.45,-2269.37C1459.57,-2247.94 1479.47,-2211.12 1506,-2187.84 1523.96,-2172.09 1547.42,-2159.98 1568.14,-2151.35"/>
<polygon fill="black" stroke="black" points="1569.46,-2154.59 1577.44,-2147.62 1566.86,-2148.09 1569.46,-2154.59"/>
</g>
<!-- 69&#45;&gt;39 -->
<g id="edge178" class="edge">
<title>69&#45;&gt;39</title>
<path fill="none" stroke="black" d="M1445.99,-2269.39C1454.36,-2232.18 1473,-2140.62 1473,-2062.84 1473,-2062.84 1473,-2062.84 1473,-1956.7 1473,-1688.1 1508.23,-1612.63 1438,-1353.38 1435.49,-1344.11 1431.24,-1334.58 1426.84,-1326.2"/>
<polygon fill="black" stroke="black" points="1429.82,-1324.35 1421.91,-1317.31 1423.7,-1327.75 1429.82,-1324.35"/>
</g>
<!-- 69&#45;&gt;70 -->
<g id="edge181" class="edge">
<title>69&#45;&gt;70</title>
<path fill="none" stroke="black" d="M1433.02,-2269.59C1418.91,-2243.19 1391.44,-2191.8 1374.81,-2160.67"/>
<polygon fill="black" stroke="black" points="1377.82,-2158.89 1370.02,-2151.72 1371.65,-2162.19 1377.82,-2158.89"/>
</g>
<!-- 72 -->
<g id="node73" class="node">
<title>72</title>
<ellipse fill="none" stroke="red" cx="1107" cy="-1299.38" rx="33.29" ry="18"/>
<text text-anchor="middle" x="1107" y="-1295.68" font-family="Times New Roman,serif" font-size="14.00">node6</text>
</g>
<!-- 72&#45;&gt;45 -->
<g id="edge185" class="edge">
<title>72&#45;&gt;45</title>
<path fill="none" stroke="black" d="M1098.22,-1281.68C1074.34,-1234.67 1010,-1096.61 1010,-974.08 1010,-974.08 1010,-974.08 1010,-900.08 1010,-821.88 992.95,-795.7 939,-739.08 914.32,-713.18 889.27,-731.08 867,-703.08 810.35,-631.85 875.1,-575.67 819,-504 810.86,-493.59 783.85,-479.77 759.67,-468.85"/>
<polygon fill="black" stroke="black" points="760.8,-465.53 750.24,-464.67 757.96,-471.93 760.8,-465.53"/>
</g>
<!-- 72&#45;&gt;30 -->
<g id="edge186" class="edge">
<title>72&#45;&gt;30</title>
<path fill="none" stroke="black" d="M1121.63,-1282.85C1131.94,-1271.91 1146.15,-1256.82 1159.03,-1243.16"/>
<polygon fill="black" stroke="black" points="1161.7,-1245.43 1166.01,-1235.75 1156.61,-1240.63 1161.7,-1245.43"/>
</g>
</g>
</svg>
