<?xml version="1.0" encoding="UTF-8" standalone="no"?>
<!DOCTYPE svg PUBLIC "-//W3C//DTD SVG 1.1//EN"
 "http://www.w3.org/Graphics/SVG/1.1/DTD/svg11.dtd">
<!-- Generated by graphviz version 2.49.3 (20211023.0002)
 -->
<!-- Title: test Pages: 1 -->
<svg width="2314pt" height="2450pt"
 viewBox="0.00 0.00 2313.93 2449.65" xmlns="http://www.w3.org/2000/svg" xmlns:xlink="http://www.w3.org/1999/xlink">
<g id="graph0" class="graph" transform="scale(1 1) rotate(0) translate(4 2445.65)">
<title>test</title>
<polygon fill="white" stroke="transparent" points="-4,4 -4,-2445.65 2309.93,-2445.65 2309.93,4 -4,4"/>
<!-- 0 -->
<g id="node1" class="node">
<title>0</title>
<ellipse fill="none" stroke="red" cx="1634.93" cy="-2351.65" rx="95.58" ry="18"/>
<text text-anchor="middle" x="1634.93" y="-2347.95" font-family="Times New Roman,serif" font-size="14.00">executionEnvironment2</text>
</g>
<!-- 33 -->
<g id="node2" class="node">
<title>33</title>
<ellipse fill="none" stroke="black" cx="473.93" cy="-2279.65" rx="33.29" ry="18"/>
<text text-anchor="middle" x="473.93" y="-2275.95" font-family="Times New Roman,serif" font-size="14.00">node3</text>
</g>
<!-- 0&#45;&gt;33 -->
<g id="edge1" class="edge">
<title>0&#45;&gt;33</title>
<path fill="none" stroke="black" d="M1541.91,-2347.41C1364.41,-2340.69 965.52,-2323.68 630.93,-2297.65 591.75,-2294.6 547.48,-2290.01 515.85,-2286.37"/>
<polygon fill="black" stroke="black" points="515.98,-2282.86 505.64,-2285.17 515.16,-2289.81 515.98,-2282.86"/>
</g>
<!-- 67 -->
<g id="node3" class="node">
<title>67</title>
<ellipse fill="none" stroke="black" cx="160.93" cy="-1733.01" rx="38.19" ry="18"/>
<text text-anchor="middle" x="160.93" y="-1729.31" font-family="Times New Roman,serif" font-size="14.00">device2</text>
</g>
<!-- 0&#45;&gt;67 -->
<g id="edge2" class="edge">
<title>0&#45;&gt;67</title>
<path fill="none" stroke="black" d="M1566.97,-2338.89C1299.49,-2292.38 331.42,-2121.91 278.93,-2081.65 250.62,-2059.94 219.91,-1971.26 207.93,-1937.65 186,-1876.13 171.68,-1800.45 165.1,-1760.94"/>
<polygon fill="black" stroke="black" points="168.55,-1760.33 163.49,-1751.02 161.64,-1761.45 168.55,-1760.33"/>
</g>
<!-- 64 -->
<g id="node4" class="node">
<title>64</title>
<ellipse fill="none" stroke="black" cx="1461.93" cy="-1261.98" rx="95.58" ry="18"/>
<text text-anchor="middle" x="1461.93" y="-1258.28" font-family="Times New Roman,serif" font-size="14.00">executionEnvironment9</text>
</g>
<!-- 0&#45;&gt;64 -->
<g id="edge3" class="edge">
<title>0&#45;&gt;64</title>
<path fill="none" stroke="black" d="M1629.22,-2333.6C1625.93,-2306.94 1625.93,-2253.77 1625.93,-2208.65 1625.93,-2208.65 1625.93,-2208.65 1625.93,-1990.65 1625.93,-1852.84 1664,-1792.58 1578.93,-1684.17 1553.1,-1651.25 1515.19,-1682.96 1491.93,-1648.17 1483.04,-1634.87 1487.07,-1627.41 1491.93,-1612.17 1530.42,-1491.63 1683.57,-1467.23 1619.93,-1357.87 1619.01,-1356.3 1541.04,-1312.38 1494.86,-1284.85"/>
<polygon fill="black" stroke="black" points="1496.46,-1281.72 1486.08,-1279.58 1492.86,-1287.73 1496.46,-1281.72"/>
</g>
<!-- 12 -->
<g id="node5" class="node">
<title>12</title>
<ellipse fill="none" stroke="red" cx="1341.93" cy="-1486.17" rx="38.19" ry="18"/>
<text text-anchor="middle" x="1341.93" y="-1482.47" font-family="Times New Roman,serif" font-size="14.00">device4</text>
</g>
<!-- 0&#45;&gt;12 -->
<g id="edge4" class="edge">
<title>0&#45;&gt;12</title>
<path fill="none" stroke="black" d="M1617.51,-2333.58C1597.93,-2307.74 1569.93,-2256.62 1569.93,-2208.65 1569.93,-2208.65 1569.93,-2208.65 1569.93,-1876.76 1569.93,-1789.91 1596.38,-1747.47 1536.93,-1684.17 1489.41,-1633.56 1435.94,-1695.26 1384.93,-1648.17 1346.99,-1613.14 1336.64,-1550.29 1336.79,-1514.35"/>
<polygon fill="black" stroke="black" points="1340.3,-1514.24 1337.16,-1504.12 1333.3,-1513.99 1340.3,-1514.24"/>
</g>
<!-- 65 -->
<g id="node6" class="node">
<title>65</title>
<ellipse fill="none" stroke="black" cx="1314.93" cy="-1395.02" rx="95.58" ry="18"/>
<text text-anchor="middle" x="1314.93" y="-1391.32" font-family="Times New Roman,serif" font-size="14.00">executionEnvironment4</text>
</g>
<!-- 0&#45;&gt;65 -->
<g id="edge5" class="edge">
<title>0&#45;&gt;65</title>
<path fill="none" stroke="black" d="M1640.72,-2333.58C1653.94,-2307.74 1681.93,-2256.62 1681.93,-2208.65 1681.93,-2208.65 1681.93,-2208.65 1681.93,-1990.65 1681.93,-1846.95 1677.03,-1789.18 1578.93,-1684.17 1550.37,-1653.59 1523.85,-1675.23 1491.93,-1648.17 1420.07,-1587.23 1438.98,-1541.59 1379.93,-1468.17 1366.12,-1450.99 1348.51,-1433.68 1334.94,-1420.32"/>
<polygon fill="black" stroke="black" points="1337.04,-1417.48 1327.47,-1412.94 1332.12,-1422.46 1337.04,-1417.48"/>
</g>
<!-- 62 -->
<g id="node7" class="node">
<title>62</title>
<ellipse fill="none" stroke="black" cx="1312.93" cy="-560.29" rx="38.19" ry="18"/>
<text text-anchor="middle" x="1312.93" y="-556.59" font-family="Times New Roman,serif" font-size="14.00">device1</text>
</g>
<!-- 0&#45;&gt;62 -->
<g id="edge6" class="edge">
<title>0&#45;&gt;62</title>
<path fill="none" stroke="black" d="M1654.83,-2333.91C1685,-2310.31 1737.93,-2263.91 1737.93,-2208.65 1737.93,-2208.65 1737.93,-2208.65 1737.93,-2134.65 1737.93,-2035.43 1806.12,-2029.78 1842.93,-1937.65 1895.38,-1806.38 1927.93,-1772.52 1927.93,-1631.17 1927.93,-1631.17 1927.93,-1631.17 1927.93,-1075.08 1927.93,-774.25 1629,-846.49 1400.93,-650.29 1375.92,-628.78 1348.27,-603.22 1330.52,-585.03"/>
<polygon fill="black" stroke="black" points="1332.99,-582.54 1323.56,-577.71 1327.92,-587.37 1332.99,-582.54"/>
</g>
<!-- 33&#45;&gt;0 -->
<g id="edge90" class="edge">
<title>33&#45;&gt;0</title>
<path fill="none" stroke="black" d="M506.36,-2283.72C541.73,-2287.48 599.4,-2293.8 648.93,-2297.65 971.02,-2322.71 1352.68,-2339.41 1532.11,-2346.61"/>
<polygon fill="black" stroke="black" points="1532.2,-2350.12 1542.33,-2347.02 1532.48,-2343.13 1532.2,-2350.12"/>
</g>
<!-- 33&#45;&gt;67 -->
<g id="edge88" class="edge">
<title>33&#45;&gt;67</title>
<path fill="none" stroke="black" d="M459.01,-2263.28C434,-2231.98 382.29,-2160.23 322.93,-2117.65 289.26,-2093.5 267.12,-2110.03 236.93,-2081.65 184.95,-2032.77 184.51,-2006.55 165.93,-1937.65 149.33,-1876.06 149.15,-1800.41 153.64,-1760.92"/>
<polygon fill="black" stroke="black" points="157.11,-1761.39 154.98,-1751.01 150.17,-1760.45 157.11,-1761.39"/>
</g>
<!-- 38 -->
<g id="node26" class="node">
<title>38</title>
<ellipse fill="none" stroke="red" cx="249.93" cy="-1733.01" rx="33.29" ry="18"/>
<text text-anchor="middle" x="249.93" y="-1729.31" font-family="Times New Roman,serif" font-size="14.00">node0</text>
</g>
<!-- 33&#45;&gt;38 -->
<g id="edge91" class="edge">
<title>33&#45;&gt;38</title>
<path fill="none" stroke="black" d="M468.22,-2261.6C464.93,-2234.94 464.93,-2181.77 464.93,-2136.65 464.93,-2136.65 464.93,-2136.65 464.93,-2062.65 464.93,-1949.25 464.41,-1905.9 392.93,-1817.86 371.63,-1791.62 355.55,-1798.15 325.93,-1781.86 309.22,-1772.67 290.76,-1762.3 276.1,-1753.58"/>
<polygon fill="black" stroke="black" points="277.87,-1750.56 267.5,-1748.38 274.25,-1756.55 277.87,-1750.56"/>
</g>
<!-- 22 -->
<g id="node47" class="node">
<title>22</title>
<ellipse fill="none" stroke="red" cx="624.93" cy="-632.29" rx="46.29" ry="18"/>
<text text-anchor="middle" x="624.93" y="-628.59" font-family="Times New Roman,serif" font-size="14.00">interface2</text>
</g>
<!-- 33&#45;&gt;22 -->
<g id="edge89" class="edge">
<title>33&#45;&gt;22</title>
<path fill="none" stroke="black" d="M475.6,-2261.58C479.57,-2251.47 485.32,-2238.22 487.93,-2225.65 510.7,-2115.99 511.75,-2082.87 486.93,-1973.65 470.03,-1899.27 457.21,-1881.35 414.93,-1817.86 402.9,-1799.79 393.16,-1800.44 381.93,-1781.86 327.56,-1691.84 301.93,-1664.34 301.93,-1559.17 301.93,-1559.17 301.93,-1559.17 301.93,-931.08 301.93,-781 493.13,-683.82 581.41,-648.37"/>
<polygon fill="black" stroke="black" points="582.86,-651.55 590.89,-644.64 580.3,-645.04 582.86,-651.55"/>
</g>
<!-- 52 -->
<g id="node57" class="node">
<title>52</title>
<ellipse fill="none" stroke="black" cx="287.93" cy="-2207.65" rx="38.19" ry="18"/>
<text text-anchor="middle" x="287.93" y="-2203.95" font-family="Times New Roman,serif" font-size="14.00">device3</text>
</g>
<!-- 33&#45;&gt;52 -->
<g id="edge92" class="edge">
<title>33&#45;&gt;52</title>
<path fill="none" stroke="black" d="M445.7,-2269.78C413.16,-2258.42 359.9,-2238.51 324.31,-2224.51"/>
<polygon fill="black" stroke="black" points="325.36,-2221.16 314.77,-2220.73 322.78,-2227.66 325.36,-2221.16"/>
</g>
<!-- 67&#45;&gt;33 -->
<g id="edge183" class="edge">
<title>67&#45;&gt;33</title>
<path fill="none" stroke="black" d="M164.84,-1751.01C167.26,-1786.42 165.81,-1870.42 183.93,-1937.65 202.51,-2006.55 202.95,-2032.77 254.93,-2081.65 285.12,-2110.03 307.26,-2093.5 340.93,-2117.65 394.36,-2155.97 441.59,-2217.93 462.84,-2252.76"/>
<polygon fill="black" stroke="black" points="460.07,-2254.94 468.13,-2261.82 466.11,-2251.41 460.07,-2254.94"/>
</g>
<!-- 24 -->
<g id="node23" class="node">
<title>24</title>
<ellipse fill="none" stroke="black" cx="258.93" cy="-1877.76" rx="38.21" ry="38.21"/>
<ellipse fill="none" stroke="black" cx="258.93" cy="-1877.76" rx="42.19" ry="42.19"/>
<text text-anchor="middle" x="258.93" y="-1874.06" font-family="Times New Roman,serif" font-size="14.00">device9</text>
</g>
<!-- 67&#45;&gt;24 -->
<g id="edge184" class="edge">
<title>67&#45;&gt;24</title>
<path fill="none" stroke="black" d="M176.13,-1749.71C191.77,-1769.26 215.92,-1803.51 234.21,-1831.53"/>
<polygon fill="black" stroke="black" points="231.32,-1833.5 239.68,-1840 237.2,-1829.7 231.32,-1833.5"/>
</g>
<!-- 64&#45;&gt;0 -->
<g id="edge177" class="edge">
<title>64&#45;&gt;0</title>
<path fill="none" stroke="black" d="M1495.84,-1278.94C1546.87,-1305.53 1636.95,-1356.18 1637.93,-1357.87 1701.57,-1467.23 1548.42,-1491.63 1509.93,-1612.17 1505.07,-1627.41 1501.04,-1634.87 1509.93,-1648.17 1533.19,-1682.96 1571.1,-1651.25 1596.93,-1684.17 1682,-1792.58 1643.93,-1852.84 1643.93,-1990.65 1643.93,-2208.65 1643.93,-2208.65 1643.93,-2208.65 1643.93,-2248.65 1643.93,-2295 1641.64,-2323.57"/>
<polygon fill="black" stroke="black" points="1638.15,-2323.3 1640.65,-2333.6 1645.12,-2324 1638.15,-2323.3"/>
</g>
<!-- 47 -->
<g id="node28" class="node">
<title>47</title>
<ellipse fill="none" stroke="red" cx="1730.93" cy="-1395.02" rx="33.28" ry="33.28"/>
<ellipse fill="none" stroke="red" cx="1730.93" cy="-1395.02" rx="37.29" ry="37.29"/>
<text text-anchor="middle" x="1730.93" y="-1391.32" font-family="Times New Roman,serif" font-size="14.00">node4</text>
</g>
<!-- 64&#45;&gt;47 -->
<g id="edge176" class="edge">
<title>64&#45;&gt;47</title>
<path fill="none" stroke="black" d="M1494.34,-1279C1516.9,-1291.79 1547.56,-1309.55 1575.93,-1321.87 1624.28,-1342.87 1641.76,-1334.36 1688.93,-1357.87 1691.66,-1359.23 1694.41,-1360.73 1697.12,-1362.32"/>
<polygon fill="black" stroke="black" points="1695.27,-1365.29 1705.61,-1367.64 1698.99,-1359.36 1695.27,-1365.29"/>
</g>
<!-- 59 -->
<g id="node60" class="node">
<title>59</title>
<ellipse fill="none" stroke="black" cx="1433.93" cy="-1148.08" rx="55.79" ry="18"/>
<text text-anchor="middle" x="1433.93" y="-1144.38" font-family="Times New Roman,serif" font-size="14.00">component8</text>
</g>
<!-- 64&#45;&gt;59 -->
<g id="edge178" class="edge">
<title>64&#45;&gt;59</title>
<path fill="none" stroke="black" d="M1452.67,-1243.98C1446.19,-1225.99 1438.73,-1197.33 1434.84,-1176.21"/>
<polygon fill="black" stroke="black" points="1438.28,-1175.54 1433.2,-1166.24 1431.37,-1176.67 1438.28,-1175.54"/>
</g>
<!-- 12&#45;&gt;0 -->
<g id="edge33" class="edge">
<title>12&#45;&gt;0</title>
<path fill="none" stroke="black" d="M1347.32,-1504.12C1352.79,-1536.99 1361.06,-1609.52 1402.93,-1648.17 1453.94,-1695.26 1507.41,-1633.56 1554.93,-1684.17 1614.38,-1747.47 1587.93,-1789.91 1587.93,-1876.76 1587.93,-2208.65 1587.93,-2208.65 1587.93,-2208.65 1587.93,-2251.56 1610.33,-2296.99 1624.52,-2324.59"/>
<polygon fill="black" stroke="black" points="1621.46,-2326.29 1629.15,-2333.58 1627.68,-2323.09 1621.46,-2326.29"/>
</g>
<!-- 12&#45;&gt;65 -->
<g id="edge35" class="edge">
<title>12&#45;&gt;65</title>
<path fill="none" stroke="black" d="M1331.62,-1468.82C1326.31,-1456.12 1320.58,-1438.22 1316.93,-1423.35"/>
<polygon fill="black" stroke="black" points="1320.26,-1422.18 1314.68,-1413.18 1313.42,-1423.7 1320.26,-1422.18"/>
</g>
<!-- 28 -->
<g id="node13" class="node">
<title>28</title>
<path fill="none" stroke="red" d="M611.43,-1162.81C611.43,-1164.62 590.59,-1166.08 564.93,-1166.08 539.28,-1166.08 518.43,-1164.62 518.43,-1162.81 518.43,-1162.81 518.43,-1133.36 518.43,-1133.36 518.43,-1131.55 539.28,-1130.08 564.93,-1130.08 590.59,-1130.08 611.43,-1131.55 611.43,-1133.36 611.43,-1133.36 611.43,-1162.81 611.43,-1162.81"/>
<path fill="none" stroke="red" d="M611.43,-1162.81C611.43,-1161.01 590.59,-1159.54 564.93,-1159.54 539.28,-1159.54 518.43,-1161.01 518.43,-1162.81"/>
<text text-anchor="middle" x="564.93" y="-1144.38" font-family="Times New Roman,serif" font-size="14.00">component11</text>
</g>
<!-- 12&#45;&gt;28 -->
<g id="edge32" class="edge">
<title>12&#45;&gt;28</title>
<path fill="none" stroke="black" d="M1309.86,-1476.11C1301.97,-1473.38 1293.66,-1470.5 1285.93,-1468.17 1024.02,-1389.01 916.93,-1471.63 687.93,-1321.87 630.95,-1284.6 588.73,-1214.07 571.91,-1175.65"/>
<polygon fill="black" stroke="black" points="575.06,-1174.09 568.02,-1166.17 568.58,-1176.75 575.06,-1174.09"/>
</g>
<!-- 12&#45;&gt;47 -->
<g id="edge31" class="edge">
<title>12&#45;&gt;47</title>
<path fill="none" stroke="black" d="M1376.75,-1478.54C1440.71,-1467.3 1573.93,-1444.49 1619.93,-1432.17 1641.92,-1426.28 1665.95,-1417.87 1686.11,-1410.64"/>
<polygon fill="black" stroke="black" points="1687.45,-1413.88 1695.67,-1407.2 1685.08,-1407.29 1687.45,-1413.88"/>
</g>
<!-- 39 -->
<g id="node37" class="node">
<title>39</title>
<ellipse fill="none" stroke="black" cx="461.93" cy="-1558.17" rx="38.19" ry="18"/>
<text text-anchor="middle" x="461.93" y="-1554.47" font-family="Times New Roman,serif" font-size="14.00">device5</text>
</g>
<!-- 12&#45;&gt;39 -->
<g id="edge34" class="edge">
<title>12&#45;&gt;39</title>
<path fill="none" stroke="black" d="M1318.06,-1500.35C1313.44,-1501.86 1308.61,-1503.2 1303.93,-1504.17 1151.21,-1535.97 666.17,-1551.77 510.46,-1555.99"/>
<polygon fill="black" stroke="black" points="510.16,-1552.49 500.26,-1556.26 510.35,-1559.49 510.16,-1552.49"/>
</g>
<!-- 65&#45;&gt;0 -->
<g id="edge179" class="edge">
<title>65&#45;&gt;0</title>
<path fill="none" stroke="black" d="M1341.35,-1412.38C1358.86,-1426.31 1381.18,-1447.34 1397.93,-1468.17 1456.98,-1541.59 1438.07,-1587.23 1509.93,-1648.17 1541.85,-1675.23 1568.37,-1653.59 1596.93,-1684.17 1695.03,-1789.18 1699.93,-1846.95 1699.93,-1990.65 1699.93,-2208.65 1699.93,-2208.65 1699.93,-2208.65 1699.93,-2251.93 1677.14,-2297.79 1658.3,-2325.31"/>
<polygon fill="black" stroke="black" points="1655.35,-2323.42 1652.36,-2333.58 1661.04,-2327.5 1655.35,-2323.42"/>
</g>
<!-- 65&#45;&gt;12 -->
<g id="edge180" class="edge">
<title>65&#45;&gt;12</title>
<path fill="none" stroke="black" d="M1325.58,-1413.16C1330.81,-1425.85 1336.4,-1443.39 1339.97,-1457.99"/>
<polygon fill="black" stroke="black" points="1336.61,-1458.97 1342.19,-1467.98 1343.44,-1457.46 1336.61,-1458.97"/>
</g>
<!-- 62&#45;&gt;0 -->
<g id="edge171" class="edge">
<title>62&#45;&gt;0</title>
<path fill="none" stroke="black" d="M1334.06,-575.47C1355.59,-593.29 1389.13,-624.66 1418.93,-650.29 1647,-846.49 1945.93,-774.25 1945.93,-1075.08 1945.93,-1631.17 1945.93,-1631.17 1945.93,-1631.17 1945.93,-1772.52 1913.38,-1806.38 1860.93,-1937.65 1824.12,-2029.78 1755.93,-2035.43 1755.93,-2134.65 1755.93,-2208.65 1755.93,-2208.65 1755.93,-2208.65 1755.93,-2260.03 1710.17,-2303.74 1674.8,-2328.6"/>
<polygon fill="black" stroke="black" points="1672.39,-2326 1666.07,-2334.5 1676.31,-2331.8 1672.39,-2326"/>
</g>
<!-- 62&#45;&gt;62 -->
<g id="edge174" class="edge">
<title>62&#45;&gt;62</title>
<path fill="none" stroke="black" d="M1339.89,-573.1C1355.15,-575.6 1369.28,-571.33 1369.28,-560.29 1369.28,-551.76 1360.83,-547.27 1349.94,-546.83"/>
<polygon fill="black" stroke="black" points="1349.64,-543.34 1339.89,-547.49 1350.1,-550.33 1349.64,-543.34"/>
</g>
<!-- 60 -->
<g id="node14" class="node">
<title>60</title>
<ellipse fill="none" stroke="black" cx="766.93" cy="-469.15" rx="33.29" ry="18"/>
<text text-anchor="middle" x="766.93" y="-465.45" font-family="Times New Roman,serif" font-size="14.00">node6</text>
</g>
<!-- 62&#45;&gt;60 -->
<g id="edge172" class="edge">
<title>62&#45;&gt;60</title>
<path fill="none" stroke="black" d="M1277,-553.98C1179.51,-538.76 911.02,-494.95 807.9,-477.48"/>
<polygon fill="black" stroke="black" points="808.32,-474 797.87,-475.77 807.15,-480.9 808.32,-474"/>
</g>
<!-- 41 -->
<g id="node30" class="node">
<title>41</title>
<ellipse fill="none" stroke="red" cx="1775.93" cy="-469.15" rx="33.28" ry="33.28"/>
<ellipse fill="none" stroke="red" cx="1775.93" cy="-469.15" rx="37.29" ry="37.29"/>
<text text-anchor="middle" x="1775.93" y="-465.45" font-family="Times New Roman,serif" font-size="14.00">node5</text>
</g>
<!-- 62&#45;&gt;41 -->
<g id="edge173" class="edge">
<title>62&#45;&gt;41</title>
<path fill="none" stroke="black" d="M1350.73,-556.44C1437.74,-549.9 1649.18,-532.36 1715.93,-506.29 1722.81,-503.61 1729.64,-499.79 1736.13,-495.64"/>
<polygon fill="black" stroke="black" points="1738.39,-498.34 1744.73,-489.85 1734.48,-492.53 1738.39,-498.34"/>
</g>
<!-- 62&#45;&gt;22 -->
<g id="edge170" class="edge">
<title>62&#45;&gt;22</title>
<path fill="none" stroke="black" d="M1275.99,-565.4C1161.78,-577.46 814.54,-612.8 679.44,-626.13"/>
<polygon fill="black" stroke="black" points="678.93,-622.66 669.32,-627.12 679.62,-629.63 678.93,-622.66"/>
</g>
<!-- 1 -->
<g id="node8" class="node">
<title>1</title>
<ellipse fill="none" stroke="red" cx="1107.93" cy="-1261.98" rx="50.09" ry="18"/>
<text text-anchor="middle" x="1107.93" y="-1258.28" font-family="Times New Roman,serif" font-size="14.00">interface11</text>
</g>
<!-- 49 -->
<g id="node9" class="node">
<title>49</title>
<ellipse fill="none" stroke="black" cx="1101.93" cy="-1148.08" rx="46.29" ry="18"/>
<text text-anchor="middle" x="1101.93" y="-1144.38" font-family="Times New Roman,serif" font-size="14.00">interface7</text>
</g>
<!-- 1&#45;&gt;49 -->
<g id="edge7" class="edge">
<title>1&#45;&gt;49</title>
<path fill="none" stroke="black" d="M1107,-1243.5C1106.04,-1225.59 1104.53,-1197.51 1103.41,-1176.62"/>
<polygon fill="black" stroke="black" points="1106.9,-1176.24 1102.86,-1166.45 1099.91,-1176.62 1106.9,-1176.24"/>
</g>
<!-- 43 -->
<g id="node10" class="node">
<title>43</title>
<ellipse fill="none" stroke="black" cx="1203.93" cy="-1148.08" rx="37.89" ry="18"/>
<text text-anchor="middle" x="1203.93" y="-1144.38" font-family="Times New Roman,serif" font-size="14.00">model6</text>
</g>
<!-- 1&#45;&gt;43 -->
<g id="edge8" class="edge">
<title>1&#45;&gt;43</title>
<path fill="none" stroke="black" d="M1122.1,-1244.47C1138.38,-1225.49 1165.22,-1194.21 1183.7,-1172.67"/>
<polygon fill="black" stroke="black" points="1186.48,-1174.81 1190.33,-1164.94 1181.16,-1170.25 1186.48,-1174.81"/>
</g>
<!-- 3 -->
<g id="node16" class="node">
<title>3</title>
<ellipse fill="none" stroke="black" cx="1419.93" cy="-234" rx="46.29" ry="18"/>
<text text-anchor="middle" x="1419.93" y="-230.3" font-family="Times New Roman,serif" font-size="14.00">interface5</text>
</g>
<!-- 43&#45;&gt;3 -->
<g id="edge128" class="edge">
<title>43&#45;&gt;3</title>
<path fill="none" stroke="black" d="M1201.96,-1130.06C1199.04,-1103.44 1193.93,-1050.31 1193.93,-1005.08 1193.93,-1005.08 1193.93,-1005.08 1193.93,-745.19 1193.93,-542.25 1345.27,-329.81 1400.26,-259.31"/>
<polygon fill="black" stroke="black" points="1403.03,-261.45 1406.47,-251.43 1397.53,-257.12 1403.03,-261.45"/>
</g>
<!-- 2 -->
<g id="node11" class="node">
<title>2</title>
<ellipse fill="none" stroke="red" cx="487.93" cy="-1261.98" rx="46.29" ry="18"/>
<text text-anchor="middle" x="487.93" y="-1258.28" font-family="Times New Roman,serif" font-size="14.00">interface9</text>
</g>
<!-- 21 -->
<g id="node12" class="node">
<title>21</title>
<ellipse fill="none" stroke="black" cx="1322.93" cy="-162" rx="60.39" ry="18"/>
<text text-anchor="middle" x="1322.93" y="-158.3" font-family="Times New Roman,serif" font-size="14.00">component12</text>
</g>
<!-- 2&#45;&gt;21 -->
<g id="edge9" class="edge">
<title>2&#45;&gt;21</title>
<path fill="none" stroke="black" d="M482.31,-1243.96C472.18,-1211.76 451.93,-1139.55 451.93,-1077.08 451.93,-1077.08 451.93,-1077.08 451.93,-559.29 451.93,-430.62 546.19,-416.22 661.93,-360 871.26,-258.33 1143.69,-197.49 1262.79,-174.09"/>
<polygon fill="black" stroke="black" points="1263.66,-177.48 1272.81,-172.14 1262.32,-170.61 1263.66,-177.48"/>
</g>
<!-- 2&#45;&gt;28 -->
<g id="edge10" class="edge">
<title>2&#45;&gt;28</title>
<path fill="none" stroke="black" d="M499.3,-1244.47C511.94,-1226.09 532.54,-1196.15 547.29,-1174.72"/>
<polygon fill="black" stroke="black" points="550.23,-1176.62 553.02,-1166.4 544.47,-1172.65 550.23,-1176.62"/>
</g>
<!-- 2&#45;&gt;60 -->
<g id="edge11" class="edge">
<title>2&#45;&gt;60</title>
<path fill="none" stroke="black" d="M487.37,-1243.93C484.45,-1145.56 474.73,-651.1 569.93,-542.29 606.6,-500.39 637.92,-526.18 689.93,-506.29 704.95,-500.55 721.12,-493.16 734.75,-486.55"/>
<polygon fill="black" stroke="black" points="736.3,-489.69 743.73,-482.14 733.21,-483.41 736.3,-489.69"/>
</g>
<!-- 50 -->
<g id="node15" class="node">
<title>50</title>
<ellipse fill="none" stroke="black" cx="689.93" cy="-1148.08" rx="60.39" ry="18"/>
<text text-anchor="middle" x="689.93" y="-1144.38" font-family="Times New Roman,serif" font-size="14.00">component15</text>
</g>
<!-- 2&#45;&gt;50 -->
<g id="edge12" class="edge">
<title>2&#45;&gt;50</title>
<path fill="none" stroke="black" d="M513.52,-1246.81C548.97,-1227.17 613.24,-1191.57 653.64,-1169.19"/>
<polygon fill="black" stroke="black" points="655.57,-1172.12 662.63,-1164.21 652.18,-1166 655.57,-1172.12"/>
</g>
<!-- 21&#45;&gt;3 -->
<g id="edge50" class="edge">
<title>21&#45;&gt;3</title>
<path fill="none" stroke="black" d="M1349.89,-178.34C1364.22,-187.85 1381.58,-200.24 1395.51,-210.81"/>
<polygon fill="black" stroke="black" points="1393.63,-213.78 1403.68,-217.12 1397.91,-208.23 1393.63,-213.78"/>
</g>
<!-- 21&#45;&gt;41 -->
<g id="edge49" class="edge">
<title>21&#45;&gt;41</title>
<path fill="none" stroke="black" d="M1333.95,-179.86C1342.42,-199.2 1354.41,-230.96 1373.93,-252 1418.07,-299.56 1439.72,-302.49 1500.93,-324 1595.65,-357.28 1641.57,-302.6 1723.93,-360 1745.42,-374.98 1760.26,-400.1 1768.95,-422.37"/>
<polygon fill="black" stroke="black" points="1765.74,-423.79 1772.4,-432.02 1772.33,-421.43 1765.74,-423.79"/>
</g>
<!-- 19 -->
<g id="node44" class="node">
<title>19</title>
<path fill="none" stroke="red" d="M1365.93,-104.73C1365.93,-106.53 1346.66,-108 1322.93,-108 1299.21,-108 1279.93,-106.53 1279.93,-104.73 1279.93,-104.73 1279.93,-75.27 1279.93,-75.27 1279.93,-73.47 1299.21,-72 1322.93,-72 1346.66,-72 1365.93,-73.47 1365.93,-75.27 1365.93,-75.27 1365.93,-104.73 1365.93,-104.73"/>
<path fill="none" stroke="red" d="M1365.93,-104.73C1365.93,-102.92 1346.66,-101.45 1322.93,-101.45 1299.21,-101.45 1279.93,-102.92 1279.93,-104.73"/>
<text text-anchor="middle" x="1322.93" y="-86.3" font-family="Times New Roman,serif" font-size="14.00">component1</text>
</g>
<!-- 21&#45;&gt;19 -->
<g id="edge48" class="edge">
<title>21&#45;&gt;19</title>
<path fill="none" stroke="black" d="M1317.06,-144.05C1316.24,-136.35 1316,-127.03 1316.33,-118.36"/>
<polygon fill="black" stroke="black" points="1319.83,-118.49 1317.02,-108.28 1312.84,-118.01 1319.83,-118.49"/>
</g>
<!-- 28&#45;&gt;12 -->
<g id="edge76" class="edge">
<title>28&#45;&gt;12</title>
<path fill="none" stroke="black" d="M577.88,-1166.17C599.3,-1201.2 643.85,-1281.27 705.93,-1321.87 934.93,-1471.63 1042.02,-1389.01 1303.93,-1468.17 1304.99,-1468.49 1306.06,-1468.82 1307.14,-1469.16"/>
<polygon fill="black" stroke="black" points="1306.27,-1472.56 1316.86,-1472.39 1308.48,-1465.91 1306.27,-1472.56"/>
</g>
<!-- 28&#45;&gt;60 -->
<g id="edge75" class="edge">
<title>28&#45;&gt;60</title>
<path fill="none" stroke="black" d="M585.24,-1130.02C631.73,-1088.91 741.93,-979.04 741.93,-861.08 741.93,-861.08 741.93,-861.08 741.93,-631.29 741.93,-583.73 752.7,-529.19 760.1,-497.32"/>
<polygon fill="black" stroke="black" points="763.55,-497.96 762.46,-487.42 756.74,-496.33 763.55,-497.96"/>
</g>
<!-- 60&#45;&gt;62 -->
<g id="edge168" class="edge">
<title>60&#45;&gt;62</title>
<path fill="none" stroke="black" d="M798.52,-474.78C890.93,-489.15 1160.31,-533.08 1267.89,-551.28"/>
<polygon fill="black" stroke="black" points="1267.35,-554.73 1277.79,-552.95 1268.52,-547.83 1267.35,-554.73"/>
</g>
<!-- 17 -->
<g id="node43" class="node">
<title>17</title>
<ellipse fill="none" stroke="black" cx="766.93" cy="-378" rx="95.58" ry="18"/>
<text text-anchor="middle" x="766.93" y="-374.3" font-family="Times New Roman,serif" font-size="14.00">executionEnvironment0</text>
</g>
<!-- 60&#45;&gt;17 -->
<g id="edge167" class="edge">
<title>60&#45;&gt;17</title>
<path fill="none" stroke="black" d="M761.52,-451.38C760.09,-438.64 759.81,-420.84 760.67,-406.09"/>
<polygon fill="black" stroke="black" points="764.17,-406.25 761.5,-396 757.19,-405.68 764.17,-406.25"/>
</g>
<!-- 60&#45;&gt;52 -->
<g id="edge169" class="edge">
<title>60&#45;&gt;52</title>
<path fill="none" stroke="black" d="M748.37,-484.18C734.8,-491.5 716.19,-500.17 698.93,-506.29 636.36,-528.51 613.69,-513.35 553.93,-542.29 359.93,-636.27 263.93,-715.51 263.93,-931.08 263.93,-1005.08 263.93,-1005.08 263.93,-1005.08 263.93,-1313.34 154.43,-1377.53 122.93,-1684.17 118.5,-1727.36 117.23,-1738.82 122.93,-1781.86 141.3,-1920.55 160.07,-1954.73 218.93,-2081.65 234.16,-2114.48 237.53,-2123.11 256.93,-2153.65 262.81,-2162.89 269.83,-2172.58 275.88,-2181.1"/>
<polygon fill="black" stroke="black" points="273.15,-2183.3 281.74,-2189.49 278.89,-2179.29 273.15,-2183.3"/>
</g>
<!-- 3&#45;&gt;21 -->
<g id="edge13" class="edge">
<title>3&#45;&gt;21</title>
<path fill="none" stroke="black" d="M1394.76,-218.83C1380.26,-209.28 1362.25,-196.48 1347.81,-185.54"/>
<polygon fill="black" stroke="black" points="1349.84,-182.68 1339.78,-179.35 1345.57,-188.23 1349.84,-182.68"/>
</g>
<!-- 31 -->
<g id="node17" class="node">
<title>31</title>
<ellipse fill="none" stroke="black" cx="1546.93" cy="-306" rx="46.29" ry="18"/>
<text text-anchor="middle" x="1546.93" y="-302.3" font-family="Times New Roman,serif" font-size="14.00">interface6</text>
</g>
<!-- 3&#45;&gt;31 -->
<g id="edge14" class="edge">
<title>3&#45;&gt;31</title>
<path fill="none" stroke="black" d="M1449.12,-248.11C1469.4,-258.47 1496.21,-273.1 1516.7,-284.94"/>
<polygon fill="black" stroke="black" points="1514.95,-287.96 1525.35,-289.98 1518.48,-281.92 1514.95,-287.96"/>
</g>
<!-- 45 -->
<g id="node18" class="node">
<title>45</title>
<ellipse fill="none" stroke="black" cx="1370.93" cy="-18" rx="60.39" ry="18"/>
<text text-anchor="middle" x="1370.93" y="-14.3" font-family="Times New Roman,serif" font-size="14.00">component10</text>
</g>
<!-- 3&#45;&gt;45 -->
<g id="edge15" class="edge">
<title>3&#45;&gt;45</title>
<path fill="none" stroke="black" d="M1412.25,-216.21C1400.23,-179.34 1379.73,-91.04 1372.48,-46.17"/>
<polygon fill="black" stroke="black" points="1375.9,-45.39 1370.96,-36.01 1368.98,-46.42 1375.9,-45.39"/>
</g>
<!-- 31&#45;&gt;3 -->
<g id="edge87" class="edge">
<title>31&#45;&gt;3</title>
<path fill="none" stroke="black" d="M1517.63,-291.83C1497.47,-281.53 1470.89,-267.02 1450.48,-255.25"/>
<polygon fill="black" stroke="black" points="1451.98,-252.07 1441.58,-250.05 1448.45,-258.12 1451.98,-252.07"/>
</g>
<!-- 31&#45;&gt;47 -->
<g id="edge85" class="edge">
<title>31&#45;&gt;47</title>
<path fill="none" stroke="black" d="M1560.98,-323.19C1593.28,-369.43 1667.93,-506.8 1667.93,-631.29 1667.93,-1077.08 1667.93,-1077.08 1667.93,-1077.08 1667.93,-1129.63 1706.04,-1273.46 1723.34,-1347.95"/>
<polygon fill="black" stroke="black" points="1720,-1349.02 1725.64,-1357.98 1726.82,-1347.45 1720,-1349.02"/>
</g>
<!-- 44 -->
<g id="node61" class="node">
<title>44</title>
<ellipse fill="none" stroke="black" cx="1879.93" cy="-378" rx="100.18" ry="18"/>
<text text-anchor="middle" x="1879.93" y="-374.3" font-family="Times New Roman,serif" font-size="14.00">executionEnvironment10</text>
</g>
<!-- 31&#45;&gt;44 -->
<g id="edge86" class="edge">
<title>31&#45;&gt;44</title>
<path fill="none" stroke="black" d="M1587.95,-314.69C1643.56,-325.84 1743.41,-346.74 1810.71,-361.24"/>
<polygon fill="black" stroke="black" points="1810.29,-364.73 1820.8,-363.42 1811.77,-357.89 1810.29,-364.73"/>
</g>
<!-- 45&#45;&gt;3 -->
<g id="edge133" class="edge">
<title>45&#45;&gt;3</title>
<path fill="none" stroke="black" d="M1378.67,-35.94C1390.68,-72.85 1411.1,-160.83 1418.37,-205.69"/>
<polygon fill="black" stroke="black" points="1414.95,-206.48 1419.88,-215.85 1421.87,-205.44 1414.95,-206.48"/>
</g>
<!-- 45&#45;&gt;19 -->
<g id="edge132" class="edge">
<title>45&#45;&gt;19</title>
<path fill="none" stroke="black" d="M1365.1,-36.1C1360.29,-44.38 1353.57,-54.49 1346.84,-63.64"/>
<polygon fill="black" stroke="black" points="1343.98,-61.62 1340.71,-71.7 1349.55,-65.85 1343.98,-61.62"/>
</g>
<!-- 4 -->
<g id="node19" class="node">
<title>4</title>
<ellipse fill="none" stroke="black" cx="1375.93" cy="-1004.08" rx="40.09" ry="18"/>
<text text-anchor="middle" x="1375.93" y="-1000.38" font-family="Times New Roman,serif" font-size="14.00">artifact9</text>
</g>
<!-- 4&#45;&gt;4 -->
<g id="edge18" class="edge">
<title>4&#45;&gt;4</title>
<path fill="none" stroke="black" d="M1404.43,-1016.98C1419.98,-1019.28 1434.23,-1014.98 1434.23,-1004.08 1434.23,-995.65 1425.71,-991.17 1414.65,-990.64"/>
<polygon fill="black" stroke="black" points="1414.23,-987.16 1404.43,-991.18 1414.6,-994.15 1414.23,-987.16"/>
</g>
<!-- 72 -->
<g id="node20" class="node">
<title>72</title>
<ellipse fill="none" stroke="red" cx="1433.93" cy="-1076.08" rx="40.09" ry="18"/>
<text text-anchor="middle" x="1433.93" y="-1072.38" font-family="Times New Roman,serif" font-size="14.00">artifact5</text>
</g>
<!-- 4&#45;&gt;72 -->
<g id="edge16" class="edge">
<title>4&#45;&gt;72</title>
<path fill="none" stroke="black" d="M1394.36,-1020.44C1402.53,-1029.06 1411.89,-1040.02 1419.55,-1049.87"/>
<polygon fill="black" stroke="black" points="1416.96,-1052.25 1425.77,-1058.14 1422.56,-1048.04 1416.96,-1052.25"/>
</g>
<!-- 9 -->
<g id="node21" class="node">
<title>9</title>
<ellipse fill="none" stroke="black" cx="1319.93" cy="-932.08" rx="60.39" ry="18"/>
<text text-anchor="middle" x="1319.93" y="-928.38" font-family="Times New Roman,serif" font-size="14.00">component14</text>
</g>
<!-- 4&#45;&gt;9 -->
<g id="edge17" class="edge">
<title>4&#45;&gt;9</title>
<path fill="none" stroke="black" d="M1358.1,-987.9C1350.19,-979.31 1341.15,-968.36 1333.75,-958.5"/>
<polygon fill="black" stroke="black" points="1336.44,-956.25 1327.74,-950.21 1330.77,-960.36 1336.44,-956.25"/>
</g>
<!-- 72&#45;&gt;4 -->
<g id="edge194" class="edge">
<title>72&#45;&gt;4</title>
<path fill="none" stroke="black" d="M1415.67,-1059.9C1407.43,-1051.22 1397.97,-1040.14 1390.24,-1030.2"/>
<polygon fill="black" stroke="black" points="1393.04,-1028.1 1384.23,-1022.21 1387.44,-1032.31 1393.04,-1028.1"/>
</g>
<!-- 72&#45;&gt;9 -->
<g id="edge191" class="edge">
<title>72&#45;&gt;9</title>
<path fill="none" stroke="black" d="M1398.47,-1067.26C1374.11,-1059.91 1343.31,-1046.3 1326.93,-1022.08 1314.75,-1004.08 1313.82,-979.09 1315.46,-960.17"/>
<polygon fill="black" stroke="black" points="1318.96,-960.44 1316.63,-950.1 1312,-959.63 1318.96,-960.44"/>
</g>
<!-- 56 -->
<g id="node31" class="node">
<title>56</title>
<ellipse fill="none" stroke="black" cx="1879.93" cy="-306" rx="95.58" ry="18"/>
<text text-anchor="middle" x="1879.93" y="-302.3" font-family="Times New Roman,serif" font-size="14.00">executionEnvironment3</text>
</g>
<!-- 72&#45;&gt;56 -->
<g id="edge193" class="edge">
<title>72&#45;&gt;56</title>
<path fill="none" stroke="black" d="M1463.13,-1063.52C1509.45,-1044.71 1593.93,-1002.45 1593.93,-933.08 1593.93,-933.08 1593.93,-933.08 1593.93,-468.15 1593.93,-418.5 1586.07,-394.33 1621.93,-360 1645.04,-337.88 1721.63,-323.83 1785.46,-315.79"/>
<polygon fill="black" stroke="black" points="1786.08,-319.24 1795.58,-314.56 1785.23,-312.3 1786.08,-319.24"/>
</g>
<!-- 37 -->
<g id="node59" class="node">
<title>37</title>
<ellipse fill="none" stroke="black" cx="1037.93" cy="-378" rx="55.79" ry="18"/>
<text text-anchor="middle" x="1037.93" y="-374.3" font-family="Times New Roman,serif" font-size="14.00">component4</text>
</g>
<!-- 72&#45;&gt;37 -->
<g id="edge190" class="edge">
<title>72&#45;&gt;37</title>
<path fill="none" stroke="black" d="M1435.66,-1057.97C1443.23,-1031.66 1461.93,-979.45 1461.93,-933.08 1461.93,-933.08 1461.93,-933.08 1461.93,-631.29 1461.93,-463.69 1216.76,-405.47 1099.22,-386.91"/>
<polygon fill="black" stroke="black" points="1099.69,-383.45 1089.28,-385.39 1098.63,-390.37 1099.69,-383.45"/>
</g>
<!-- 72&#45;&gt;59 -->
<g id="edge192" class="edge">
<title>72&#45;&gt;59</title>
<path fill="none" stroke="black" d="M1439.85,-1094.36C1440.65,-1102.11 1440.87,-1111.45 1440.52,-1120.09"/>
<polygon fill="black" stroke="black" points="1437.03,-1119.92 1439.81,-1130.14 1444.01,-1120.41 1437.03,-1119.92"/>
</g>
<!-- 9&#45;&gt;4 -->
<g id="edge30" class="edge">
<title>9&#45;&gt;4</title>
<path fill="none" stroke="black" d="M1338.79,-949.39C1346.49,-957.84 1355.13,-968.35 1362.23,-977.82"/>
<polygon fill="black" stroke="black" points="1359.56,-980.09 1368.26,-986.14 1365.23,-975.99 1359.56,-980.09"/>
</g>
<!-- 69 -->
<g id="node34" class="node">
<title>69</title>
<ellipse fill="none" stroke="black" cx="615.93" cy="-860.08" rx="46.29" ry="18"/>
<text text-anchor="middle" x="615.93" y="-856.38" font-family="Times New Roman,serif" font-size="14.00">interface3</text>
</g>
<!-- 9&#45;&gt;69 -->
<g id="edge29" class="edge">
<title>9&#45;&gt;69</title>
<path fill="none" stroke="black" d="M1263.25,-925.82C1130.28,-912.99 800.1,-880.17 669.88,-866.84"/>
<polygon fill="black" stroke="black" points="670.06,-863.34 659.75,-865.8 669.34,-870.3 670.06,-863.34"/>
</g>
<!-- 5 -->
<g id="node22" class="node">
<title>5</title>
<ellipse fill="none" stroke="black" cx="393.93" cy="-1991.65" rx="42.79" ry="18"/>
<text text-anchor="middle" x="393.93" y="-1987.95" font-family="Times New Roman,serif" font-size="14.00">device10</text>
</g>
<!-- 5&#45;&gt;24 -->
<g id="edge19" class="edge">
<title>5&#45;&gt;24</title>
<path fill="none" stroke="black" d="M371.55,-1976.02C350.98,-1960.57 320.34,-1935.63 296.15,-1914.87"/>
<polygon fill="black" stroke="black" points="298.39,-1912.19 288.54,-1908.29 293.82,-1917.48 298.39,-1912.19"/>
</g>
<!-- 40 -->
<g id="node24" class="node">
<title>40</title>
<ellipse fill="none" stroke="black" cx="320.93" cy="-2063.65" rx="33.29" ry="18"/>
<text text-anchor="middle" x="320.93" y="-2059.95" font-family="Times New Roman,serif" font-size="14.00">node7</text>
</g>
<!-- 5&#45;&gt;40 -->
<g id="edge20" class="edge">
<title>5&#45;&gt;40</title>
<path fill="none" stroke="black" d="M382.55,-2009.16C373.39,-2018.97 360.46,-2031.5 348.73,-2041.96"/>
<polygon fill="black" stroke="black" points="346.1,-2039.61 340.86,-2048.82 350.7,-2044.89 346.1,-2039.61"/>
</g>
<!-- 63 -->
<g id="node25" class="node">
<title>63</title>
<ellipse fill="none" stroke="black" cx="1672.93" cy="-378" rx="33.29" ry="18"/>
<text text-anchor="middle" x="1672.93" y="-374.3" font-family="Times New Roman,serif" font-size="14.00">node8</text>
</g>
<!-- 5&#45;&gt;63 -->
<g id="edge21" class="edge">
<title>5&#45;&gt;63</title>
<path fill="none" stroke="black" d="M400.46,-1973.7C411.92,-1940.93 431.75,-1867.73 401.93,-1817.86 384.59,-1788.85 356.91,-1807.54 334.93,-1781.86 293.98,-1734.01 305.65,-1708.61 287.93,-1648.17 223.82,-1429.44 169.93,-1377.01 169.93,-1149.08 169.93,-1149.08 169.93,-1149.08 169.93,-931.08 169.93,-752.66 151.01,-675.3 269.93,-542.29 361.85,-439.5 424.94,-460.14 559.93,-432 665.93,-409.91 1437.77,-385.92 1629.77,-380.25"/>
<polygon fill="black" stroke="black" points="1629.88,-383.75 1639.78,-379.96 1629.68,-376.75 1629.88,-383.75"/>
</g>
<!-- 5&#45;&gt;38 -->
<g id="edge22" class="edge">
<title>5&#45;&gt;38</title>
<path fill="none" stroke="black" d="M390.07,-1973.62C387.64,-1940.39 386.53,-1865.96 351.93,-1817.86 332.88,-1791.37 313.85,-1801.7 287.93,-1781.86 278.92,-1774.96 269.95,-1766.38 262.8,-1758.39"/>
<polygon fill="black" stroke="black" points="265.44,-1756.09 256.33,-1750.69 260.09,-1760.6 265.44,-1756.09"/>
</g>
<!-- 24&#45;&gt;67 -->
<g id="edge58" class="edge">
<title>24&#45;&gt;67</title>
<path fill="none" stroke="black" d="M231.46,-1845.08C212.35,-1819.41 187.96,-1783.7 173.28,-1759.77"/>
<polygon fill="black" stroke="black" points="176.12,-1757.69 167.98,-1750.91 170.11,-1761.29 176.12,-1757.69"/>
</g>
<!-- 24&#45;&gt;5 -->
<g id="edge59" class="edge">
<title>24&#45;&gt;5</title>
<path fill="none" stroke="black" d="M293.32,-1902.58C318.05,-1921.83 350.51,-1948.76 371.88,-1967.76"/>
<polygon fill="black" stroke="black" points="369.72,-1970.52 379.49,-1974.62 374.41,-1965.32 369.72,-1970.52"/>
</g>
<!-- 24&#45;&gt;38 -->
<g id="edge60" class="edge">
<title>24&#45;&gt;38</title>
<path fill="none" stroke="black" d="M256.33,-1835.47C254.83,-1811.63 252.98,-1782.31 251.66,-1761.33"/>
<polygon fill="black" stroke="black" points="255.14,-1760.95 251.02,-1751.19 248.15,-1761.39 255.14,-1760.95"/>
</g>
<!-- 40&#45;&gt;5 -->
<g id="edge118" class="edge">
<title>40&#45;&gt;5</title>
<path fill="none" stroke="black" d="M332.06,-2046.42C340.98,-2036.83 353.59,-2024.59 365.17,-2014.2"/>
<polygon fill="black" stroke="black" points="367.76,-2016.59 372.97,-2007.37 363.14,-2011.33 367.76,-2016.59"/>
</g>
<!-- 40&#45;&gt;38 -->
<g id="edge119" class="edge">
<title>40&#45;&gt;38</title>
<path fill="none" stroke="black" d="M318.84,-2045.41C319.63,-2004.53 329.02,-1899.07 300.93,-1817.86 293.23,-1795.59 277.59,-1774.06 265.43,-1758.39"/>
<polygon fill="black" stroke="black" points="268.03,-1756.03 259.11,-1750.32 262.52,-1760.35 268.03,-1756.03"/>
</g>
<!-- 29 -->
<g id="node56" class="node">
<title>29</title>
<ellipse fill="none" stroke="black" cx="289.93" cy="-2135.65" rx="33.29" ry="18"/>
<text text-anchor="middle" x="289.93" y="-2131.95" font-family="Times New Roman,serif" font-size="14.00">node9</text>
</g>
<!-- 40&#45;&gt;29 -->
<g id="edge117" class="edge">
<title>40&#45;&gt;29</title>
<path fill="none" stroke="black" d="M319.19,-2081.94C316.35,-2090.3 312.03,-2100.49 307.49,-2109.68"/>
<polygon fill="black" stroke="black" points="304.27,-2108.28 302.73,-2118.77 310.47,-2111.53 304.27,-2108.28"/>
</g>
<!-- 63&#45;&gt;41 -->
<g id="edge175" class="edge">
<title>63&#45;&gt;41</title>
<path fill="none" stroke="black" d="M1693.51,-392.48C1707.8,-403.53 1726.96,-419.65 1743.27,-434.18"/>
<polygon fill="black" stroke="black" points="1741.24,-437.06 1751.01,-441.16 1745.92,-431.86 1741.24,-437.06"/>
</g>
<!-- 38&#45;&gt;33 -->
<g id="edge110" class="edge">
<title>38&#45;&gt;33</title>
<path fill="none" stroke="black" d="M275.45,-1744.57C294.63,-1754.34 320.94,-1769.21 343.93,-1781.86 373.55,-1798.15 389.63,-1791.62 410.93,-1817.86 482.41,-1905.9 482.93,-1949.25 482.93,-2062.65 482.93,-2136.65 482.93,-2136.65 482.93,-2136.65 482.93,-2176.65 482.93,-2223 480.64,-2251.57"/>
<polygon fill="black" stroke="black" points="477.15,-2251.3 479.65,-2261.6 484.12,-2252 477.15,-2251.3"/>
</g>
<!-- 38&#45;&gt;5 -->
<g id="edge113" class="edge">
<title>38&#45;&gt;5</title>
<path fill="none" stroke="black" d="M269.25,-1748.05C279.78,-1758.19 292.8,-1771.81 305.93,-1781.86 331.85,-1801.7 350.88,-1791.37 369.93,-1817.86 401.29,-1861.45 405.14,-1926.66 401.56,-1963.24"/>
<polygon fill="black" stroke="black" points="398.03,-1963.26 400.24,-1973.62 404.98,-1964.14 398.03,-1963.26"/>
</g>
<!-- 38&#45;&gt;40 -->
<g id="edge111" class="edge">
<title>38&#45;&gt;40</title>
<path fill="none" stroke="black" d="M269.91,-1747.4C286.88,-1762.86 309.22,-1789.78 318.93,-1817.86 345.07,-1893.42 338.76,-1989.96 330,-2035.96"/>
<polygon fill="black" stroke="black" points="326.52,-2035.5 327.86,-2046.01 333.36,-2036.96 326.52,-2035.5"/>
</g>
<!-- 35 -->
<g id="node63" class="node">
<title>35</title>
<ellipse fill="none" stroke="black" cx="460.93" cy="-1630.17" rx="33.29" ry="18"/>
<text text-anchor="middle" x="460.93" y="-1626.47" font-family="Times New Roman,serif" font-size="14.00">node1</text>
</g>
<!-- 38&#45;&gt;35 -->
<g id="edge112" class="edge">
<title>38&#45;&gt;35</title>
<path fill="none" stroke="black" d="M271.98,-1719.24C308.66,-1700.43 381.93,-1665.37 425.76,-1645.63"/>
<polygon fill="black" stroke="black" points="427.21,-1648.82 434.91,-1641.55 424.35,-1642.43 427.21,-1648.82"/>
</g>
<!-- 6 -->
<g id="node27" class="node">
<title>6</title>
<ellipse fill="none" stroke="red" cx="1809.93" cy="-1877.76" rx="33.29" ry="18"/>
<text text-anchor="middle" x="1809.93" y="-1874.06" font-family="Times New Roman,serif" font-size="14.00">node2</text>
</g>
<!-- 6&#45;&gt;60 -->
<g id="edge25" class="edge">
<title>6&#45;&gt;60</title>
<path fill="none" stroke="black" d="M1810.41,-1859.49C1811.47,-1819.39 1813.93,-1716.88 1813.93,-1631.17 1813.93,-1631.17 1813.93,-1631.17 1813.93,-1485.17 1813.93,-1427.97 1814.39,-1411.67 1794.93,-1357.87 1740.93,-1208.55 1423.93,-905.98 1423.93,-747.19 1423.93,-747.19 1423.93,-747.19 1423.93,-631.29 1423.93,-586.77 1414.54,-567.64 1377.93,-542.29 1285.78,-478.48 934.04,-470.81 810.3,-470.11"/>
<polygon fill="black" stroke="black" points="810.09,-466.61 800.08,-470.07 810.06,-473.61 810.09,-466.61"/>
</g>
<!-- 6&#45;&gt;38 -->
<g id="edge28" class="edge">
<title>6&#45;&gt;38</title>
<path fill="none" stroke="black" d="M1781.51,-1868.4C1734.18,-1854.93 1636.01,-1828.79 1550.93,-1817.86 1053.87,-1754.01 919.44,-1856.82 423.93,-1781.86 375.58,-1774.55 321.5,-1758.36 286.66,-1746.85"/>
<polygon fill="black" stroke="black" points="287.52,-1743.44 276.93,-1743.58 285.3,-1750.08 287.52,-1743.44"/>
</g>
<!-- 6&#45;&gt;47 -->
<g id="edge23" class="edge">
<title>6&#45;&gt;47</title>
<path fill="none" stroke="black" d="M1805.9,-1859.6C1796.89,-1819.74 1775.93,-1717.69 1775.93,-1631.17 1775.93,-1631.17 1775.93,-1631.17 1775.93,-1557.17 1775.93,-1515.84 1762.03,-1470.67 1749.68,-1438.7"/>
<polygon fill="black" stroke="black" points="1752.86,-1437.22 1745.92,-1429.22 1746.36,-1439.81 1752.86,-1437.22"/>
</g>
<!-- 18 -->
<g id="node29" class="node">
<title>18</title>
<ellipse fill="none" stroke="black" cx="1420.93" cy="-1733.01" rx="44.69" ry="18"/>
<text text-anchor="middle" x="1420.93" y="-1729.31" font-family="Times New Roman,serif" font-size="14.00">package5</text>
</g>
<!-- 6&#45;&gt;18 -->
<g id="edge24" class="edge">
<title>6&#45;&gt;18</title>
<path fill="none" stroke="black" d="M1783.2,-1866.94C1716.61,-1842.51 1542.98,-1778.8 1462.72,-1749.35"/>
<polygon fill="black" stroke="black" points="1463.55,-1745.92 1452.95,-1745.76 1461.14,-1752.49 1463.55,-1745.92"/>
</g>
<!-- 6&#45;&gt;41 -->
<g id="edge26" class="edge">
<title>6&#45;&gt;41</title>
<path fill="none" stroke="black" d="M1814.92,-1859.66C1826.04,-1819.92 1851.93,-1718.11 1851.93,-1631.17 1851.93,-1631.17 1851.93,-1631.17 1851.93,-1260.98 1851.93,-1146.97 1833.93,-1119.1 1833.93,-1005.08 1833.93,-1005.08 1833.93,-1005.08 1833.93,-631.29 1833.93,-588.13 1815.28,-542.1 1799.13,-510.33"/>
<polygon fill="black" stroke="black" points="1802.18,-508.6 1794.44,-501.36 1795.97,-511.85 1802.18,-508.6"/>
</g>
<!-- 6&#45;&gt;56 -->
<g id="edge27" class="edge">
<title>6&#45;&gt;56</title>
<path fill="none" stroke="black" d="M1819.27,-1860.39C1840.37,-1821.79 1889.93,-1721.52 1889.93,-1631.17 1889.93,-1631.17 1889.93,-1631.17 1889.93,-1557.17 1889.93,-1295.71 2229.93,-1338.54 2229.93,-1077.08 2229.93,-1077.08 2229.93,-1077.08 2229.93,-468.15 2229.93,-358.25 2085.8,-323.04 1982.52,-311.91"/>
<polygon fill="black" stroke="black" points="1982.65,-308.41 1972.35,-310.88 1981.95,-315.37 1982.65,-308.41"/>
</g>
<!-- 47&#45;&gt;64 -->
<g id="edge137" class="edge">
<title>47&#45;&gt;64</title>
<path fill="none" stroke="black" d="M1699.29,-1375.32C1690.35,-1369.16 1680.55,-1362.67 1670.93,-1357.87 1623.76,-1334.36 1606.28,-1342.87 1557.93,-1321.87 1533.94,-1311.45 1508.3,-1297.14 1489.42,-1285.23"/>
<polygon fill="black" stroke="black" points="1491.29,-1282.28 1480.99,-1279.78 1487.49,-1288.15 1491.29,-1282.28"/>
</g>
<!-- 47&#45;&gt;12 -->
<g id="edge138" class="edge">
<title>47&#45;&gt;12</title>
<path fill="none" stroke="black" d="M1697.96,-1412.3C1680.32,-1419.13 1658.26,-1426.73 1637.93,-1432.17 1592.04,-1444.46 1459.38,-1467.18 1388.16,-1478.46"/>
<polygon fill="black" stroke="black" points="1387.45,-1475.03 1378.12,-1480.04 1388.54,-1481.94 1387.45,-1475.03"/>
</g>
<!-- 47&#45;&gt;31 -->
<g id="edge140" class="edge">
<title>47&#45;&gt;31</title>
<path fill="none" stroke="black" d="M1716.51,-1360.66C1692.79,-1291.19 1649.93,-1132.8 1649.93,-1077.08 1649.93,-1077.08 1649.93,-1077.08 1649.93,-631.29 1649.93,-514.66 1584.41,-386.72 1557.62,-333.01"/>
<polygon fill="black" stroke="black" points="1560.67,-331.27 1553.1,-323.86 1554.4,-334.38 1560.67,-331.27"/>
</g>
<!-- 47&#45;&gt;47 -->
<g id="edge136" class="edge">
<title>47&#45;&gt;47</title>
<path fill="none" stroke="black" d="M1764.04,-1411.87C1776.16,-1412.33 1786.08,-1406.71 1786.08,-1395.02 1786.08,-1386.8 1781.17,-1381.59 1774.05,-1379.37"/>
<polygon fill="black" stroke="black" points="1774.39,-1375.89 1764.04,-1378.17 1773.56,-1382.84 1774.39,-1375.89"/>
</g>
<!-- 47&#45;&gt;56 -->
<g id="edge139" class="edge">
<title>47&#45;&gt;56</title>
<path fill="none" stroke="black" d="M1747.54,-1361.4C1778.62,-1311.43 1846.44,-1213.01 1904.93,-1130.08 1989.75,-1009.84 2097.93,-1008.23 2097.93,-861.08 2097.93,-861.08 2097.93,-861.08 2097.93,-559.29 2097.93,-470.08 2132.6,-427.21 2073.93,-360 2058.45,-342.26 2006.85,-328.93 1960.71,-320.07"/>
<polygon fill="black" stroke="black" points="1961.13,-316.58 1950.65,-318.19 1959.84,-323.47 1961.13,-316.58"/>
</g>
<!-- 41&#45;&gt;62 -->
<g id="edge124" class="edge">
<title>41&#45;&gt;62</title>
<path fill="none" stroke="black" d="M1751.3,-497.28C1745.82,-500.79 1739.9,-503.97 1733.93,-506.29 1667.34,-532.3 1456.75,-549.81 1360.99,-556.39"/>
<polygon fill="black" stroke="black" points="1360.73,-552.9 1350.99,-557.07 1361.21,-559.89 1360.73,-552.9"/>
</g>
<!-- 41&#45;&gt;21 -->
<g id="edge120" class="edge">
<title>41&#45;&gt;21</title>
<path fill="none" stroke="black" d="M1759.02,-435.88C1748.19,-411.09 1731.93,-378.12 1705.93,-360 1623.57,-302.6 1577.65,-357.28 1482.93,-324 1421.72,-302.49 1400.07,-299.56 1355.93,-252 1339.56,-234.35 1328.49,-209.17 1323.34,-190.09"/>
<polygon fill="black" stroke="black" points="1326.72,-189.18 1321.09,-180.21 1319.9,-190.73 1326.72,-189.18"/>
</g>
<!-- 41&#45;&gt;63 -->
<g id="edge121" class="edge">
<title>41&#45;&gt;63</title>
<path fill="none" stroke="black" d="M1745.68,-447.02C1728.71,-433.34 1708.1,-415.54 1693.07,-401.58"/>
<polygon fill="black" stroke="black" points="1695.43,-399 1685.76,-394.67 1690.62,-404.09 1695.43,-399"/>
</g>
<!-- 16 -->
<g id="node42" class="node">
<title>16</title>
<ellipse fill="none" stroke="black" cx="2035.93" cy="-378" rx="38.19" ry="18"/>
<text text-anchor="middle" x="2035.93" y="-374.3" font-family="Times New Roman,serif" font-size="14.00">device0</text>
</g>
<!-- 41&#45;&gt;16 -->
<g id="edge123" class="edge">
<title>41&#45;&gt;16</title>
<path fill="none" stroke="black" d="M1810.13,-454.56C1850.8,-440.24 1920.24,-416.9 1979.93,-396 1984.41,-394.43 1989.11,-392.76 1993.83,-391.1"/>
<polygon fill="black" stroke="black" points="1995.18,-394.34 2003.48,-387.74 1992.88,-387.73 1995.18,-394.34"/>
</g>
<!-- 41&#45;&gt;44 -->
<g id="edge122" class="edge">
<title>41&#45;&gt;44</title>
<path fill="none" stroke="black" d="M1800.89,-441.4C1814.78,-428.85 1832.14,-414.04 1847.1,-402"/>
<polygon fill="black" stroke="black" points="1849.48,-404.59 1855.13,-395.63 1845.13,-399.11 1849.48,-404.59"/>
</g>
<!-- 56&#45;&gt;72 -->
<g id="edge158" class="edge">
<title>56&#45;&gt;72</title>
<path fill="none" stroke="black" d="M1799.88,-315.84C1739.36,-323.88 1663,-337.92 1639.93,-360 1604.07,-394.33 1611.93,-418.5 1611.93,-468.15 1611.93,-933.08 1611.93,-933.08 1611.93,-933.08 1611.93,-1001.45 1529.86,-1043.49 1477.06,-1062.7"/>
<polygon fill="black" stroke="black" points="1475.85,-1059.41 1467.57,-1066.02 1478.16,-1066.02 1475.85,-1059.41"/>
</g>
<!-- 56&#45;&gt;47 -->
<g id="edge157" class="edge">
<title>56&#45;&gt;47</title>
<path fill="none" stroke="black" d="M1956.99,-316.72C2010.23,-325.4 2074.36,-339.87 2091.93,-360 2150.6,-427.21 2115.93,-470.08 2115.93,-559.29 2115.93,-861.08 2115.93,-861.08 2115.93,-861.08 2115.93,-1008.23 2007.75,-1009.84 1922.93,-1130.08 1865.55,-1211.44 1799.18,-1307.71 1761.23,-1358.51"/>
<polygon fill="black" stroke="black" points="1758.39,-1356.47 1755.16,-1366.56 1763.98,-1360.68 1758.39,-1356.47"/>
</g>
<!-- 56&#45;&gt;44 -->
<g id="edge159" class="edge">
<title>56&#45;&gt;44</title>
<path fill="none" stroke="black" d="M1885.83,-324.1C1886.63,-331.79 1886.87,-341.05 1886.54,-349.67"/>
<polygon fill="black" stroke="black" points="1883.04,-349.48 1885.85,-359.7 1890.03,-349.96 1883.04,-349.48"/>
</g>
<!-- 7 -->
<g id="node32" class="node">
<title>7</title>
<ellipse fill="none" stroke="black" cx="1168.93" cy="-1733.01" rx="44.69" ry="18"/>
<text text-anchor="middle" x="1168.93" y="-1729.31" font-family="Times New Roman,serif" font-size="14.00">package1</text>
</g>
<!-- 8 -->
<g id="node33" class="node">
<title>8</title>
<ellipse fill="none" stroke="black" cx="883.93" cy="-1148.08" rx="40.09" ry="18"/>
<text text-anchor="middle" x="883.93" y="-1144.38" font-family="Times New Roman,serif" font-size="14.00">artifact3</text>
</g>
<!-- 69&#45;&gt;9 -->
<g id="edge189" class="edge">
<title>69&#45;&gt;9</title>
<path fill="none" stroke="black" d="M660.27,-865.16C780.22,-876.67 1111.25,-909.55 1253.57,-924.06"/>
<polygon fill="black" stroke="black" points="1253.59,-927.58 1263.89,-925.12 1254.3,-920.62 1253.59,-927.58"/>
</g>
<!-- 68 -->
<g id="node49" class="node">
<title>68</title>
<ellipse fill="none" stroke="black" cx="615.93" cy="-746.19" rx="55.8" ry="55.8"/>
<ellipse fill="none" stroke="black" cx="615.93" cy="-746.19" rx="59.79" ry="59.79"/>
<text text-anchor="middle" x="615.93" y="-742.49" font-family="Times New Roman,serif" font-size="14.00">component6</text>
</g>
<!-- 69&#45;&gt;68 -->
<g id="edge188" class="edge">
<title>69&#45;&gt;68</title>
<path fill="none" stroke="black" d="M610.92,-842.09C610.12,-834.74 609.59,-825.61 609.34,-815.94"/>
<polygon fill="black" stroke="black" points="612.84,-815.66 609.19,-805.71 605.84,-815.77 612.84,-815.66"/>
</g>
<!-- 10 -->
<g id="node35" class="node">
<title>10</title>
<ellipse fill="none" stroke="black" cx="2087.93" cy="-1630.17" rx="38.19" ry="18"/>
<text text-anchor="middle" x="2087.93" y="-1626.47" font-family="Times New Roman,serif" font-size="14.00">device8</text>
</g>
<!-- 11 -->
<g id="node36" class="node">
<title>11</title>
<ellipse fill="none" stroke="black" cx="771.93" cy="-1733.01" rx="44.71" ry="44.71"/>
<ellipse fill="none" stroke="black" cx="771.93" cy="-1733.01" rx="48.69" ry="48.69"/>
<text text-anchor="middle" x="771.93" y="-1729.31" font-family="Times New Roman,serif" font-size="14.00">package7</text>
</g>
<!-- 39&#45;&gt;12 -->
<g id="edge116" class="edge">
<title>39&#45;&gt;12</title>
<path fill="none" stroke="black" d="M500.29,-1556.07C641.64,-1551.98 1132.19,-1536.18 1285.93,-1504.17 1290.9,-1503.13 1296.06,-1501.68 1301.16,-1500.06"/>
<polygon fill="black" stroke="black" points="1302.48,-1503.31 1310.84,-1496.8 1300.24,-1496.68 1302.48,-1503.31"/>
</g>
<!-- 39&#45;&gt;68 -->
<g id="edge114" class="edge">
<title>39&#45;&gt;68</title>
<path fill="none" stroke="black" d="M451.55,-1540.77C424.63,-1486.17 357.93,-1305.12 357.93,-1149.08 357.93,-1149.08 357.93,-1149.08 357.93,-931.08 357.93,-838.19 471.46,-786.9 547.97,-763.39"/>
<polygon fill="black" stroke="black" points="548.99,-766.73 557.57,-760.52 546.99,-760.03 548.99,-766.73"/>
</g>
<!-- 39&#45;&gt;35 -->
<g id="edge115" class="edge">
<title>39&#45;&gt;35</title>
<path fill="none" stroke="black" d="M467.6,-1576.44C468.29,-1584.2 468.38,-1593.53 467.91,-1602.17"/>
<polygon fill="black" stroke="black" points="464.42,-1601.96 467.05,-1612.22 471.39,-1602.56 464.42,-1601.96"/>
</g>
<!-- 13 -->
<g id="node38" class="node">
<title>13</title>
<ellipse fill="none" stroke="black" cx="922.93" cy="-1733.01" rx="42.47" ry="42.47"/>
<ellipse fill="none" stroke="black" cx="922.93" cy="-1733.01" rx="46.49" ry="46.49"/>
<text text-anchor="middle" x="922.93" y="-1729.31" font-family="Times New Roman,serif" font-size="14.00">model10</text>
</g>
<!-- 14 -->
<g id="node39" class="node">
<title>14</title>
<ellipse fill="none" stroke="red" cx="1491.93" cy="-1877.76" rx="46.28" ry="46.28"/>
<ellipse fill="none" stroke="red" cx="1491.93" cy="-1877.76" rx="50.29" ry="50.29"/>
<text text-anchor="middle" x="1491.93" y="-1874.06" font-family="Times New Roman,serif" font-size="14.00">interface8</text>
</g>
<!-- 14&#45;&gt;62 -->
<g id="edge37" class="edge">
<title>14&#45;&gt;62</title>
<path fill="none" stroke="black" d="M1510.52,-1830.87C1524.42,-1788.35 1536.06,-1725.6 1503.93,-1684.17 1464.57,-1633.4 1421.13,-1677.43 1363.93,-1648.17 1274.87,-1602.6 1233.39,-1594.75 1190.93,-1504.17 1178.97,-1478.64 1164.16,-1414.1 1194.93,-1357.87 1208.43,-1333.22 1231.95,-1345.66 1246.93,-1321.87 1284.31,-1262.54 1266.36,-1235.99 1271.93,-1166.08 1273.21,-1150.13 1274.4,-1145.89 1271.93,-1130.08 1262.94,-1072.45 1231.93,-1063.41 1231.93,-1005.08 1231.93,-1005.08 1231.93,-1005.08 1231.93,-745.19 1231.93,-683.7 1270.33,-619.71 1294.25,-585.81"/>
<polygon fill="black" stroke="black" points="1297.26,-587.62 1300.28,-577.47 1291.58,-583.52 1297.26,-587.62"/>
</g>
<!-- 14&#45;&gt;50 -->
<g id="edge38" class="edge">
<title>14&#45;&gt;50</title>
<path fill="none" stroke="black" d="M1502.73,-1828.53C1509.39,-1784.97 1510.83,-1722.06 1474.93,-1684.17 1436.03,-1643.11 1276.1,-1667.49 1222.93,-1648.17 964.37,-1554.21 835.54,-1559.51 696.93,-1321.87 670.48,-1276.51 676.9,-1212.48 683.63,-1176.46"/>
<polygon fill="black" stroke="black" points="687.15,-1176.73 685.69,-1166.23 680.29,-1175.34 687.15,-1176.73"/>
</g>
<!-- 70 -->
<g id="node40" class="node">
<title>70</title>
<ellipse fill="none" stroke="black" cx="1313.93" cy="-1733.01" rx="44.39" ry="18"/>
<text text-anchor="middle" x="1313.93" y="-1729.31" font-family="Times New Roman,serif" font-size="14.00">artifact11</text>
</g>
<!-- 14&#45;&gt;70 -->
<g id="edge36" class="edge">
<title>14&#45;&gt;70</title>
<path fill="none" stroke="black" d="M1456.53,-1841.73C1447.52,-1833.51 1437.63,-1825.06 1427.93,-1817.86 1402.66,-1799.1 1392.3,-1800.5 1366.93,-1781.86 1356.74,-1774.37 1346.24,-1765.24 1337.31,-1756.97"/>
<polygon fill="black" stroke="black" points="1339.59,-1754.31 1329.91,-1750 1334.79,-1759.4 1339.59,-1754.31"/>
</g>
<!-- 15 -->
<g id="node41" class="node">
<title>15</title>
<ellipse fill="none" stroke="black" cx="1027.93" cy="-1733.01" rx="40.09" ry="18"/>
<text text-anchor="middle" x="1027.93" y="-1729.31" font-family="Times New Roman,serif" font-size="14.00">artifact7</text>
</g>
<!-- 16&#45;&gt;41 -->
<g id="edge39" class="edge">
<title>16&#45;&gt;41</title>
<path fill="none" stroke="black" d="M2010.5,-391.52C2006.32,-393.04 2002.03,-394.57 1997.93,-396 1937.3,-417.23 1866.61,-440.98 1821.45,-455.23"/>
<polygon fill="black" stroke="black" points="1820.16,-451.97 1811.66,-458.3 1822.25,-458.65 1820.16,-451.97"/>
</g>
<!-- 17&#45;&gt;60 -->
<g id="edge40" class="edge">
<title>17&#45;&gt;60</title>
<path fill="none" stroke="black" d="M772.37,-396C773.79,-408.8 774.06,-426.6 773.18,-441.32"/>
<polygon fill="black" stroke="black" points="769.69,-441.12 772.35,-451.38 776.66,-441.7 769.69,-441.12"/>
</g>
<!-- 19&#45;&gt;21 -->
<g id="edge41" class="edge">
<title>19&#45;&gt;21</title>
<path fill="none" stroke="black" d="M1328.85,-108.28C1329.65,-116.03 1329.87,-125.36 1329.52,-134.01"/>
<polygon fill="black" stroke="black" points="1326.03,-133.83 1328.81,-144.05 1333.01,-134.33 1326.03,-133.83"/>
</g>
<!-- 19&#45;&gt;45 -->
<g id="edge42" class="edge">
<title>19&#45;&gt;45</title>
<path fill="none" stroke="black" d="M1328.88,-71.7C1333.79,-63.27 1340.66,-52.97 1347.49,-43.73"/>
<polygon fill="black" stroke="black" points="1350.4,-45.69 1353.69,-35.62 1344.84,-41.44 1350.4,-45.69"/>
</g>
<!-- 20 -->
<g id="node45" class="node">
<title>20</title>
<ellipse fill="none" stroke="red" cx="1831.93" cy="-2351.65" rx="37.89" ry="18"/>
<text text-anchor="middle" x="1831.93" y="-2347.95" font-family="Times New Roman,serif" font-size="14.00">node10</text>
</g>
<!-- 20&#45;&gt;33 -->
<g id="edge43" class="edge">
<title>20&#45;&gt;33</title>
<path fill="none" stroke="black" d="M1798.46,-2343.29C1781.08,-2339.77 1759.46,-2335.85 1739.93,-2333.65 1262.93,-2279.87 679.29,-2279.26 517.37,-2280.26"/>
<polygon fill="black" stroke="black" points="517.3,-2276.76 507.32,-2280.33 517.34,-2283.76 517.3,-2276.76"/>
</g>
<!-- 20&#45;&gt;10 -->
<g id="edge44" class="edge">
<title>20&#45;&gt;10</title>
<path fill="none" stroke="black" d="M1868.43,-2346.86C1938.05,-2337.41 2082.93,-2306.03 2082.93,-2208.65 2082.93,-2208.65 2082.93,-2208.65 2082.93,-1876.76 2082.93,-1797.57 2085.56,-1704.05 2087.01,-1658.65"/>
<polygon fill="black" stroke="black" points="2090.51,-1658.54 2087.34,-1648.44 2083.52,-1658.32 2090.51,-1658.54"/>
</g>
<!-- 20&#45;&gt;70 -->
<g id="edge45" class="edge">
<title>20&#45;&gt;70</title>
<path fill="none" stroke="black" d="M1824.43,-2333.99C1813.35,-2307.85 1793.93,-2255.35 1793.93,-2208.65 1793.93,-2208.65 1793.93,-2208.65 1793.93,-2134.65 1793.93,-1951.87 1549.17,-2078.71 1432.93,-1937.65 1397.41,-1894.55 1423.54,-1865.83 1394.93,-1817.86 1386.95,-1804.47 1359.23,-1776.82 1338.43,-1756.93"/>
<polygon fill="black" stroke="black" points="1340.79,-1754.35 1331.13,-1750 1335.97,-1759.42 1340.79,-1754.35"/>
</g>
<!-- 20&#45;&gt;16 -->
<g id="edge47" class="edge">
<title>20&#45;&gt;16</title>
<path fill="none" stroke="black" d="M1869.82,-2350.82C1954.94,-2349 2153.93,-2331.61 2153.93,-2208.65 2153.93,-2208.65 2153.93,-2208.65 2153.93,-1732.01 2153.93,-1342.69 2059.93,-1250.41 2059.93,-861.08 2059.93,-861.08 2059.93,-861.08 2059.93,-559.29 2059.93,-504.49 2048.9,-441.13 2041.8,-406.01"/>
<polygon fill="black" stroke="black" points="2045.19,-405.13 2039.74,-396.05 2038.34,-406.55 2045.19,-405.13"/>
</g>
<!-- 61 -->
<g id="node46" class="node">
<title>61</title>
<ellipse fill="none" stroke="black" cx="1523.93" cy="-1395.02" rx="95.58" ry="18"/>
<text text-anchor="middle" x="1523.93" y="-1391.32" font-family="Times New Roman,serif" font-size="14.00">executionEnvironment5</text>
</g>
<!-- 20&#45;&gt;61 -->
<g id="edge46" class="edge">
<title>20&#45;&gt;61</title>
<path fill="none" stroke="black" d="M1831.93,-2333.6C1831.93,-2306.94 1831.93,-2253.77 1831.93,-2208.65 1831.93,-2208.65 1831.93,-2208.65 1831.93,-2134.65 1831.93,-2042.59 1786.75,-2027.77 1767.93,-1937.65 1739.96,-1803.67 1737.93,-1768.03 1737.93,-1631.17 1737.93,-1631.17 1737.93,-1631.17 1737.93,-1557.17 1737.93,-1480.31 1648.75,-1435.52 1585.53,-1413.44"/>
<polygon fill="black" stroke="black" points="1586.6,-1410.11 1576.01,-1410.21 1584.36,-1416.74 1586.6,-1410.11"/>
</g>
<!-- 22&#45;&gt;33 -->
<g id="edge51" class="edge">
<title>22&#45;&gt;33</title>
<path fill="none" stroke="black" d="M595.49,-646.32C518.84,-679.96 319.93,-778.01 319.93,-931.08 319.93,-1559.17 319.93,-1559.17 319.93,-1559.17 319.93,-1664.34 345.56,-1691.84 399.93,-1781.86 411.16,-1800.44 420.9,-1799.79 432.93,-1817.86 475.21,-1881.35 488.03,-1899.27 504.93,-1973.65 529.75,-2082.87 528.7,-2115.99 505.93,-2225.65 503.88,-2235.56 499.86,-2245.9 495.21,-2254.78"/>
<polygon fill="black" stroke="black" points="492.18,-2253.03 490.18,-2263.44 498.23,-2256.55 492.18,-2253.03"/>
</g>
<!-- 22&#45;&gt;62 -->
<g id="edge54" class="edge">
<title>22&#45;&gt;62</title>
<path fill="none" stroke="black" d="M668.85,-626.46C791.74,-613.53 1137.85,-578.32 1265.21,-565.79"/>
<polygon fill="black" stroke="black" points="1265.81,-569.25 1275.43,-564.79 1265.13,-562.28 1265.81,-569.25"/>
</g>
<!-- 55 -->
<g id="node48" class="node">
<title>55</title>
<ellipse fill="none" stroke="black" cx="624.93" cy="-560.29" rx="46.29" ry="18"/>
<text text-anchor="middle" x="624.93" y="-556.59" font-family="Times New Roman,serif" font-size="14.00">interface4</text>
</g>
<!-- 22&#45;&gt;55 -->
<g id="edge52" class="edge">
<title>22&#45;&gt;55</title>
<path fill="none" stroke="black" d="M619.06,-614.35C618.24,-606.64 618,-597.32 618.33,-588.66"/>
<polygon fill="black" stroke="black" points="621.83,-588.79 619.02,-578.57 614.84,-588.31 621.83,-588.79"/>
</g>
<!-- 22&#45;&gt;68 -->
<g id="edge53" class="edge">
<title>22&#45;&gt;68</title>
<path fill="none" stroke="black" d="M628.58,-650.52C628.8,-658.04 628.57,-667.4 628.01,-677.27"/>
<polygon fill="black" stroke="black" points="624.51,-677.06 627.34,-687.28 631.5,-677.53 624.51,-677.06"/>
</g>
<!-- 55&#45;&gt;22 -->
<g id="edge155" class="edge">
<title>55&#45;&gt;22</title>
<path fill="none" stroke="black" d="M630.85,-578.57C631.65,-586.32 631.87,-595.66 631.52,-604.3"/>
<polygon fill="black" stroke="black" points="628.03,-604.13 630.81,-614.35 635.01,-604.62 628.03,-604.13"/>
</g>
<!-- 53 -->
<g id="node65" class="node">
<title>53</title>
<ellipse fill="none" stroke="black" cx="624.93" cy="-469.15" rx="55.79" ry="18"/>
<text text-anchor="middle" x="624.93" y="-465.45" font-family="Times New Roman,serif" font-size="14.00">component7</text>
</g>
<!-- 55&#45;&gt;53 -->
<g id="edge156" class="edge">
<title>55&#45;&gt;53</title>
<path fill="none" stroke="black" d="M619.48,-542.11C618.09,-529.4 617.82,-511.86 618.67,-497.27"/>
<polygon fill="black" stroke="black" points="622.16,-497.53 619.48,-487.28 615.18,-496.96 622.16,-497.53"/>
</g>
<!-- 68&#45;&gt;69 -->
<g id="edge186" class="edge">
<title>68&#45;&gt;69</title>
<path fill="none" stroke="black" d="M622.68,-805.71C622.63,-814.88 622.34,-823.96 621.82,-831.95"/>
<polygon fill="black" stroke="black" points="618.31,-831.83 620.94,-842.09 625.29,-832.43 618.31,-831.83"/>
</g>
<!-- 68&#45;&gt;39 -->
<g id="edge187" class="edge">
<title>68&#45;&gt;39</title>
<path fill="none" stroke="black" d="M558.44,-764.05C487.36,-787.86 375.93,-839.05 375.93,-931.08 375.93,-1149.08 375.93,-1149.08 375.93,-1149.08 375.93,-1296.2 435.22,-1465.56 455.69,-1530.2"/>
<polygon fill="black" stroke="black" points="452.42,-1531.49 458.73,-1540 459.11,-1529.41 452.42,-1531.49"/>
</g>
<!-- 68&#45;&gt;22 -->
<g id="edge185" class="edge">
<title>68&#45;&gt;22</title>
<path fill="none" stroke="black" d="M613.93,-686.29C614.71,-677.17 615.73,-668.15 616.9,-660.22"/>
<polygon fill="black" stroke="black" points="620.39,-660.59 618.58,-650.15 613.48,-659.44 620.39,-660.59"/>
</g>
<!-- 23 -->
<g id="node50" class="node">
<title>23</title>
<ellipse fill="none" stroke="red" cx="221.93" cy="-2351.65" rx="37.89" ry="18"/>
<text text-anchor="middle" x="221.93" y="-2347.95" font-family="Times New Roman,serif" font-size="14.00">node11</text>
</g>
<!-- 23&#45;&gt;33 -->
<g id="edge55" class="edge">
<title>23&#45;&gt;33</title>
<path fill="none" stroke="black" d="M253.59,-2341.86C299.72,-2329.04 385.33,-2305.26 435.17,-2291.42"/>
<polygon fill="black" stroke="black" points="436.24,-2294.75 444.93,-2288.71 434.36,-2288.01 436.24,-2294.75"/>
</g>
<!-- 23&#45;&gt;49 -->
<g id="edge57" class="edge">
<title>23&#45;&gt;49</title>
<path fill="none" stroke="black" d="M194.07,-2339.41C150.69,-2319.85 71.93,-2275.17 71.93,-2208.65 71.93,-2208.65 71.93,-2208.65 71.93,-2062.65 71.93,-1893.4 15.93,-1822.16 113.93,-1684.17 353.85,-1346.35 670.67,-1605.28 972.93,-1321.87 1015.81,-1281.68 991.52,-1247.41 1028.93,-1202.08 1039.73,-1189.01 1054.45,-1177.51 1067.85,-1168.6"/>
<polygon fill="black" stroke="black" points="1069.87,-1171.46 1076.41,-1163.12 1066.1,-1165.56 1069.87,-1171.46"/>
</g>
<!-- 23&#45;&gt;24 -->
<g id="edge56" class="edge">
<title>23&#45;&gt;24</title>
<path fill="none" stroke="black" d="M221.93,-2333.6C221.93,-2306.94 221.93,-2253.77 221.93,-2208.65 221.93,-2208.65 221.93,-2208.65 221.93,-2062.65 221.93,-2016.51 233.27,-1965.12 243.39,-1928.42"/>
<polygon fill="black" stroke="black" points="246.85,-1929.05 246.2,-1918.47 240.11,-1927.14 246.85,-1929.05"/>
</g>
<!-- 25 -->
<g id="node51" class="node">
<title>25</title>
<ellipse fill="none" stroke="red" cx="728.93" cy="-1877.76" rx="55.79" ry="18"/>
<text text-anchor="middle" x="728.93" y="-1874.06" font-family="Times New Roman,serif" font-size="14.00">component0</text>
</g>
<!-- 25&#45;&gt;43 -->
<g id="edge66" class="edge">
<title>25&#45;&gt;43</title>
<path fill="none" stroke="black" d="M750.55,-1861.15C773.05,-1843.95 807.99,-1814.37 829.93,-1781.86 856,-1743.25 845.82,-1725.17 867.93,-1684.17 952.39,-1527.55 966.5,-1475.59 1099.93,-1357.87 1125.28,-1335.51 1146.63,-1348.9 1166.93,-1321.87 1199.33,-1278.75 1204.68,-1213.36 1204.85,-1176.63"/>
<polygon fill="black" stroke="black" points="1208.35,-1176.18 1204.76,-1166.21 1201.35,-1176.24 1208.35,-1176.18"/>
</g>
<!-- 25&#45;&gt;28 -->
<g id="edge68" class="edge">
<title>25&#45;&gt;28</title>
<path fill="none" stroke="black" d="M703.83,-1861.53C683.89,-1849.51 655.25,-1832.4 629.93,-1817.86 601.3,-1801.42 581.7,-1810.31 564.93,-1781.86 503.46,-1677.55 547.85,-1283.72 561.37,-1176.3"/>
<polygon fill="black" stroke="black" points="564.86,-1176.63 562.65,-1166.27 557.92,-1175.74 564.86,-1176.63"/>
</g>
<!-- 25&#45;&gt;9 -->
<g id="edge63" class="edge">
<title>25&#45;&gt;9</title>
<path fill="none" stroke="black" d="M695.21,-1863.2C663.56,-1848.44 618.17,-1821.51 597.93,-1781.86 578.19,-1743.19 577.22,-1722.33 597.93,-1684.17 724.86,-1450.29 870.98,-1493.48 1099.93,-1357.87 1129.02,-1340.65 1143.01,-1345.76 1166.93,-1321.87 1222.6,-1266.29 1220.94,-1238.8 1250.93,-1166.08 1280.73,-1093.84 1303.53,-1004.16 1313.86,-960.1"/>
<polygon fill="black" stroke="black" points="1317.32,-960.7 1316.16,-950.16 1310.5,-959.12 1317.32,-960.7"/>
</g>
<!-- 25&#45;&gt;38 -->
<g id="edge65" class="edge">
<title>25&#45;&gt;38</title>
<path fill="none" stroke="black" d="M687.1,-1865.78C623.03,-1848.8 496.89,-1814.69 390.93,-1781.86 355.15,-1770.77 314.7,-1756.91 286.33,-1746.96"/>
<polygon fill="black" stroke="black" points="287.42,-1743.63 276.82,-1743.62 285.1,-1750.24 287.42,-1743.63"/>
</g>
<!-- 25&#45;&gt;18 -->
<g id="edge61" class="edge">
<title>25&#45;&gt;18</title>
<path fill="none" stroke="black" d="M771.84,-1865.96C825.54,-1852.8 920.49,-1830.76 1002.93,-1817.86 1163.55,-1792.74 1217.96,-1846.93 1366.93,-1781.86 1379.49,-1776.38 1391.17,-1766.85 1400.44,-1757.73"/>
<polygon fill="black" stroke="black" points="1403.21,-1759.89 1407.62,-1750.26 1398.16,-1755.04 1403.21,-1759.89"/>
</g>
<!-- 25&#45;&gt;7 -->
<g id="edge64" class="edge">
<title>25&#45;&gt;7</title>
<path fill="none" stroke="black" d="M774.98,-1867.49C842.56,-1853.16 971.96,-1822.93 1076.93,-1781.86 1097.16,-1773.95 1118.76,-1762.86 1135.94,-1753.36"/>
<polygon fill="black" stroke="black" points="1137.99,-1756.22 1145,-1748.27 1134.56,-1750.12 1137.99,-1756.22"/>
</g>
<!-- 25&#45;&gt;11 -->
<g id="edge71" class="edge">
<title>25&#45;&gt;11</title>
<path fill="none" stroke="black" d="M734.04,-1859.82C739.24,-1842.54 747.6,-1814.79 755.15,-1789.74"/>
<polygon fill="black" stroke="black" points="758.57,-1790.52 758.1,-1779.94 751.86,-1788.5 758.57,-1790.52"/>
</g>
<!-- 25&#45;&gt;13 -->
<g id="edge69" class="edge">
<title>25&#45;&gt;13</title>
<path fill="none" stroke="black" d="M751.98,-1861.03C778.91,-1842.51 824.65,-1810.64 862.93,-1781.86 868.3,-1777.83 873.88,-1773.53 879.38,-1769.22"/>
<polygon fill="black" stroke="black" points="881.66,-1771.88 887.34,-1762.94 877.32,-1766.38 881.66,-1771.88"/>
</g>
<!-- 25&#45;&gt;15 -->
<g id="edge70" class="edge">
<title>25&#45;&gt;15</title>
<path fill="none" stroke="black" d="M771.85,-1866.05C823.47,-1851.94 911.46,-1823.89 977.93,-1781.86 988.35,-1775.27 998.45,-1766.28 1006.81,-1757.87"/>
<polygon fill="black" stroke="black" points="1009.58,-1760.04 1013.96,-1750.4 1004.52,-1755.2 1009.58,-1760.04"/>
</g>
<!-- 25&#45;&gt;19 -->
<g id="edge62" class="edge">
<title>25&#45;&gt;19</title>
<path fill="none" stroke="black" d="M681.97,-1867.84C605.75,-1852.47 459.99,-1819.03 423.93,-1781.86 392.75,-1749.71 207.93,-1049.88 207.93,-1005.08 207.93,-1005.08 207.93,-1005.08 207.93,-631.29 207.93,-153.28 1048.11,-98.03 1269.82,-91.77"/>
<polygon fill="black" stroke="black" points="1270,-95.27 1279.91,-91.51 1269.82,-88.27 1270,-95.27"/>
</g>
<!-- 32 -->
<g id="node52" class="node">
<title>32</title>
<ellipse fill="none" stroke="black" cx="655.93" cy="-1733.01" rx="44.71" ry="44.71"/>
<ellipse fill="none" stroke="black" cx="655.93" cy="-1733.01" rx="48.69" ry="48.69"/>
<text text-anchor="middle" x="655.93" y="-1729.31" font-family="Times New Roman,serif" font-size="14.00">package0</text>
</g>
<!-- 25&#45;&gt;32 -->
<g id="edge67" class="edge">
<title>25&#45;&gt;32</title>
<path fill="none" stroke="black" d="M720.27,-1859.82C710.98,-1841.65 695.77,-1811.9 682.46,-1785.89"/>
<polygon fill="black" stroke="black" points="685.52,-1784.18 677.85,-1776.87 679.29,-1787.37 685.52,-1784.18"/>
</g>
<!-- 54 -->
<g id="node53" class="node">
<title>54</title>
<ellipse fill="none" stroke="black" cx="472.93" cy="-1733.01" rx="40.09" ry="18"/>
<text text-anchor="middle" x="472.93" y="-1729.31" font-family="Times New Roman,serif" font-size="14.00">artifact0</text>
</g>
<!-- 25&#45;&gt;54 -->
<g id="edge72" class="edge">
<title>25&#45;&gt;54</title>
<path fill="none" stroke="black" d="M705.66,-1861.09C686.05,-1848.34 656.94,-1830.46 629.93,-1817.86 585.99,-1797.36 568.76,-1806.4 526.93,-1781.86 515.46,-1775.13 504.2,-1765.74 494.97,-1757.06"/>
<polygon fill="black" stroke="black" points="497.33,-1754.48 487.72,-1750.01 492.45,-1759.5 497.33,-1754.48"/>
</g>
<!-- 26 -->
<g id="node54" class="node">
<title>26</title>
<ellipse fill="none" stroke="black" cx="1609.93" cy="-1630.17" rx="100.18" ry="18"/>
<text text-anchor="middle" x="1609.93" y="-1626.47" font-family="Times New Roman,serif" font-size="14.00">executionEnvironment11</text>
</g>
<!-- 54&#45;&gt;26 -->
<g id="edge154" class="edge">
<title>54&#45;&gt;26</title>
<path fill="none" stroke="black" d="M499.02,-1719.26C523.81,-1707.81 562.47,-1691.69 597.93,-1684.17 767.44,-1648.23 1275.22,-1636.22 1500.37,-1632.59"/>
<polygon fill="black" stroke="black" points="1500.61,-1636.09 1510.55,-1632.43 1500.5,-1629.09 1500.61,-1636.09"/>
</g>
<!-- 27 -->
<g id="node55" class="node">
<title>27</title>
<ellipse fill="none" stroke="red" cx="1325.93" cy="-1877.76" rx="55.8" ry="55.8"/>
<ellipse fill="none" stroke="red" cx="1325.93" cy="-1877.76" rx="59.79" ry="59.79"/>
<text text-anchor="middle" x="1325.93" y="-1874.06" font-family="Times New Roman,serif" font-size="14.00">component3</text>
</g>
<!-- 27&#45;&gt;7 -->
<g id="edge74" class="edge">
<title>27&#45;&gt;7</title>
<path fill="none" stroke="black" d="M1281.78,-1836.61C1253.26,-1810.68 1217.21,-1777.9 1193.63,-1756.47"/>
<polygon fill="black" stroke="black" points="1195.9,-1753.8 1186.14,-1749.66 1191.19,-1758.98 1195.9,-1753.8"/>
</g>
<!-- 27&#45;&gt;70 -->
<g id="edge73" class="edge">
<title>27&#45;&gt;70</title>
<path fill="none" stroke="black" d="M1320.98,-1817.87C1319.34,-1798.28 1317.58,-1777.39 1316.23,-1761.36"/>
<polygon fill="black" stroke="black" points="1319.7,-1760.79 1315.37,-1751.12 1312.72,-1761.38 1319.7,-1760.79"/>
</g>
<!-- 29&#45;&gt;40 -->
<g id="edge77" class="edge">
<title>29&#45;&gt;40</title>
<path fill="none" stroke="black" d="M291.68,-2117.35C294.54,-2108.93 298.89,-2098.67 303.47,-2089.44"/>
<polygon fill="black" stroke="black" points="306.71,-2090.8 308.26,-2080.32 300.51,-2087.55 306.71,-2090.8"/>
</g>
<!-- 29&#45;&gt;52 -->
<g id="edge78" class="edge">
<title>29&#45;&gt;52</title>
<path fill="none" stroke="black" d="M295.32,-2153.44C295.93,-2161.24 295.91,-2170.72 295.31,-2179.5"/>
<polygon fill="black" stroke="black" points="291.8,-2179.41 294.3,-2189.71 298.76,-2180.1 291.8,-2179.41"/>
</g>
<!-- 52&#45;&gt;33 -->
<g id="edge149" class="edge">
<title>52&#45;&gt;33</title>
<path fill="none" stroke="black" d="M318.69,-2218.4C352.01,-2230.1 404.78,-2249.86 439.46,-2263.54"/>
<polygon fill="black" stroke="black" points="438.58,-2266.96 449.16,-2267.4 441.17,-2260.46 438.58,-2266.96"/>
</g>
<!-- 52&#45;&gt;60 -->
<g id="edge151" class="edge">
<title>52&#45;&gt;60</title>
<path fill="none" stroke="black" d="M268.12,-2191.81C258.42,-2181.43 247.47,-2167.08 238.93,-2153.65 219.53,-2123.11 216.16,-2114.48 200.93,-2081.65 142.07,-1954.73 123.3,-1920.55 104.93,-1781.86 99.23,-1738.82 100.5,-1727.36 104.93,-1684.17 136.43,-1377.53 245.93,-1313.34 245.93,-1005.08 245.93,-1005.08 245.93,-1005.08 245.93,-931.08 245.93,-715.51 341.93,-636.27 535.93,-542.29 595.69,-513.35 618.36,-528.51 680.93,-506.29 697.88,-500.28 716.12,-491.81 731.56,-484.58"/>
<polygon fill="black" stroke="black" points="733.2,-487.68 740.77,-480.28 730.23,-481.34 733.2,-487.68"/>
</g>
<!-- 52&#45;&gt;29 -->
<g id="edge150" class="edge">
<title>52&#45;&gt;29</title>
<path fill="none" stroke="black" d="M282.54,-2189.71C281.93,-2181.88 281.97,-2172.4 282.57,-2163.63"/>
<polygon fill="black" stroke="black" points="286.08,-2163.74 283.59,-2153.44 279.11,-2163.04 286.08,-2163.74"/>
</g>
<!-- 30 -->
<g id="node58" class="node">
<title>30</title>
<ellipse fill="none" stroke="red" cx="903.93" cy="-1261.98" rx="55.8" ry="55.8"/>
<ellipse fill="none" stroke="red" cx="903.93" cy="-1261.98" rx="59.79" ry="59.79"/>
<text text-anchor="middle" x="903.93" y="-1258.28" font-family="Times New Roman,serif" font-size="14.00">component2</text>
</g>
<!-- 30&#45;&gt;50 -->
<g id="edge84" class="edge">
<title>30&#45;&gt;50</title>
<path fill="none" stroke="black" d="M860.78,-1220.17C852.57,-1213.58 843.77,-1207.25 834.93,-1202.08 806.36,-1185.4 771.63,-1172.48 743.32,-1163.58"/>
<polygon fill="black" stroke="black" points="744.18,-1160.18 733.6,-1160.6 742.13,-1166.88 744.18,-1160.18"/>
</g>
<!-- 30&#45;&gt;45 -->
<g id="edge83" class="edge">
<title>30&#45;&gt;45</title>
<path fill="none" stroke="black" d="M922.93,-1204.97C926.7,-1192.3 930.3,-1178.82 932.93,-1166.08 995.51,-863.03 953.93,-779.59 953.93,-470.15 953.93,-470.15 953.93,-470.15 953.93,-305 953.93,-133.72 1196.16,-57.39 1311.39,-30.77"/>
<polygon fill="black" stroke="black" points="1312.48,-34.11 1321.46,-28.5 1310.94,-27.29 1312.48,-34.11"/>
</g>
<!-- 30&#45;&gt;8 -->
<g id="edge80" class="edge">
<title>30&#45;&gt;8</title>
<path fill="none" stroke="black" d="M893.52,-1202.74C891.86,-1193.43 890.21,-1184.21 888.76,-1176.11"/>
<polygon fill="black" stroke="black" points="892.2,-1175.42 886.99,-1166.19 885.3,-1176.65 892.2,-1175.42"/>
</g>
<!-- 30&#45;&gt;19 -->
<g id="edge81" class="edge">
<title>30&#45;&gt;19</title>
<path fill="none" stroke="black" d="M946.05,-1219.22C960.16,-1203.55 975.05,-1184.94 985.93,-1166.08 1002.87,-1136.75 1001.05,-1126.48 1010.93,-1094.08 1092.88,-825.48 1139.93,-433.13 1139.93,-379 1139.93,-379 1139.93,-379 1139.93,-233 1139.93,-166.61 1216.04,-126.8 1270.09,-106.89"/>
<polygon fill="black" stroke="black" points="1271.32,-110.17 1279.57,-103.52 1268.97,-103.57 1271.32,-110.17"/>
</g>
<!-- 30&#45;&gt;37 -->
<g id="edge79" class="edge">
<title>30&#45;&gt;37</title>
<path fill="none" stroke="black" d="M940.35,-1213.89C950.07,-1199.27 959.61,-1182.63 965.93,-1166.08 1033.19,-990.17 1029.93,-935.53 1029.93,-747.19 1029.93,-747.19 1029.93,-747.19 1029.93,-559.29 1029.93,-504.92 1033.61,-441.41 1035.98,-406.14"/>
<polygon fill="black" stroke="black" points="1039.47,-406.36 1036.67,-396.14 1032.49,-405.88 1039.47,-406.36"/>
</g>
<!-- 30&#45;&gt;59 -->
<g id="edge82" class="edge">
<title>30&#45;&gt;59</title>
<path fill="none" stroke="black" d="M957.91,-1235.31C984.73,-1223.53 1017.96,-1210.37 1048.93,-1202.08 1108.38,-1186.19 1278.58,-1166.04 1371.52,-1155.76"/>
<polygon fill="black" stroke="black" points="1372.08,-1159.22 1381.64,-1154.65 1371.32,-1152.27 1372.08,-1159.22"/>
</g>
<!-- 37&#45;&gt;72 -->
<g id="edge108" class="edge">
<title>37&#45;&gt;72</title>
<path fill="none" stroke="black" d="M1090.44,-384.25C1207.66,-399.52 1479.93,-454.68 1479.93,-631.29 1479.93,-933.08 1479.93,-933.08 1479.93,-933.08 1479.93,-975.02 1464.64,-1021.73 1451.32,-1049.74"/>
<polygon fill="black" stroke="black" points="1448.12,-1048.33 1446.73,-1058.83 1454.36,-1051.49 1448.12,-1048.33"/>
</g>
<!-- 37&#45;&gt;37 -->
<g id="edge107" class="edge">
<title>37&#45;&gt;37</title>
<path fill="none" stroke="black" d="M1076.33,-391.14C1095.14,-392.86 1111.83,-388.48 1111.83,-378 1111.83,-369.49 1100.81,-365 1086.59,-364.54"/>
<polygon fill="black" stroke="black" points="1086.22,-361.05 1076.33,-364.86 1086.44,-368.05 1086.22,-361.05"/>
</g>
<!-- 37&#45;&gt;53 -->
<g id="edge109" class="edge">
<title>37&#45;&gt;53</title>
<path fill="none" stroke="black" d="M987.05,-385.59C926.17,-393.58 821.74,-408.89 733.93,-432 713.56,-437.36 691.48,-445.12 672.47,-452.08"/>
<polygon fill="black" stroke="black" points="671.01,-448.89 662.83,-455.63 673.42,-455.46 671.01,-448.89"/>
</g>
<!-- 59&#45;&gt;64 -->
<g id="edge166" class="edge">
<title>59&#45;&gt;64</title>
<path fill="none" stroke="black" d="M1443.2,-1166.08C1449.64,-1183.98 1457.06,-1212.43 1460.97,-1233.52"/>
<polygon fill="black" stroke="black" points="1457.53,-1234.2 1462.62,-1243.5 1464.44,-1233.06 1457.53,-1234.2"/>
</g>
<!-- 59&#45;&gt;72 -->
<g id="edge165" class="edge">
<title>59&#45;&gt;72</title>
<path fill="none" stroke="black" d="M1428.06,-1130.14C1427.24,-1122.43 1427,-1113.11 1427.33,-1104.45"/>
<polygon fill="black" stroke="black" points="1430.83,-1104.58 1428.02,-1094.36 1423.84,-1104.1 1430.83,-1104.58"/>
</g>
<!-- 44&#45;&gt;31 -->
<g id="edge131" class="edge">
<title>44&#45;&gt;31</title>
<path fill="none" stroke="black" d="M1814.29,-364.32C1749.93,-351.2 1653.42,-330.9 1595.61,-318.31"/>
<polygon fill="black" stroke="black" points="1596.14,-314.84 1585.63,-316.13 1594.65,-321.68 1596.14,-314.84"/>
</g>
<!-- 44&#45;&gt;41 -->
<g id="edge129" class="edge">
<title>44&#45;&gt;41</title>
<path fill="none" stroke="black" d="M1865.65,-395.89C1852.31,-408.54 1832.1,-426.11 1814.18,-440.75"/>
<polygon fill="black" stroke="black" points="1811.72,-438.24 1806.14,-447.25 1816.12,-443.68 1811.72,-438.24"/>
</g>
<!-- 44&#45;&gt;56 -->
<g id="edge130" class="edge">
<title>44&#45;&gt;56</title>
<path fill="none" stroke="black" d="M1874.02,-359.7C1873.22,-351.98 1873,-342.71 1873.34,-334.11"/>
<polygon fill="black" stroke="black" points="1876.83,-334.32 1874.04,-324.1 1869.85,-333.84 1876.83,-334.32"/>
</g>
<!-- 34 -->
<g id="node62" class="node">
<title>34</title>
<ellipse fill="none" stroke="red" cx="1912.93" cy="-2423.65" rx="95.58" ry="18"/>
<text text-anchor="middle" x="1912.93" y="-2419.95" font-family="Times New Roman,serif" font-size="14.00">executionEnvironment1</text>
</g>
<!-- 34&#45;&gt;0 -->
<g id="edge96" class="edge">
<title>34&#45;&gt;0</title>
<path fill="none" stroke="black" d="M1858.01,-2408.82C1812.51,-2397.36 1747.76,-2381.06 1699.73,-2368.97"/>
<polygon fill="black" stroke="black" points="1700.3,-2365.5 1689.74,-2366.45 1698.59,-2372.29 1700.3,-2365.5"/>
</g>
<!-- 34&#45;&gt;33 -->
<g id="edge93" class="edge">
<title>34&#45;&gt;33</title>
<path fill="none" stroke="black" d="M1817.72,-2421.87C1535.5,-2419.14 716.04,-2407.97 601.93,-2369.65 560.67,-2355.79 520.74,-2324.22 496.75,-2302.66"/>
<polygon fill="black" stroke="black" points="498.98,-2299.96 489.24,-2295.78 494.24,-2305.12 498.98,-2299.96"/>
</g>
<!-- 34&#45;&gt;3 -->
<g id="edge97" class="edge">
<title>34&#45;&gt;3</title>
<path fill="none" stroke="black" d="M1982.38,-2411.23C1994.23,-2409.33 2006.43,-2407.41 2017.93,-2405.65 2073.64,-2397.15 2224.41,-2404.18 2268.93,-2369.65 2302.78,-2343.4 2305.93,-2323.49 2305.93,-2280.65 2305.93,-2280.65 2305.93,-2280.65 2305.93,-1732.01 2305.93,-1440.44 2267.93,-1368.65 2267.93,-1077.08 2267.93,-1077.08 2267.93,-1077.08 2267.93,-377 2267.93,-296.38 1664,-250.7 1475.47,-238.41"/>
<polygon fill="black" stroke="black" points="1475.43,-234.9 1465.23,-237.74 1474.98,-241.88 1475.43,-234.9"/>
</g>
<!-- 34&#45;&gt;31 -->
<g id="edge99" class="edge">
<title>34&#45;&gt;31</title>
<path fill="none" stroke="black" d="M1976.25,-2410.14C2028.89,-2399.14 2099.2,-2382.86 2124.93,-2369.65 2179.36,-2341.72 2229.93,-2341.83 2229.93,-2280.65 2229.93,-2280.65 2229.93,-2280.65 2229.93,-1732.01 2229.93,-1440.44 2191.93,-1368.65 2191.93,-1077.08 2191.93,-1077.08 2191.93,-1077.08 2191.93,-559.29 2191.93,-458.34 2169.74,-411.55 2082.93,-360 2062.46,-347.84 1735.1,-321.47 1602.28,-311.21"/>
<polygon fill="black" stroke="black" points="1602.17,-307.69 1591.93,-310.41 1601.63,-314.67 1602.17,-307.69"/>
</g>
<!-- 34&#45;&gt;47 -->
<g id="edge94" class="edge">
<title>34&#45;&gt;47</title>
<path fill="none" stroke="black" d="M1963.14,-2408.24C2043.46,-2383.67 2191.93,-2331.4 2191.93,-2280.65 2191.93,-2280.65 2191.93,-2280.65 2191.93,-1732.01 2191.93,-1528.21 1894.04,-1434.95 1777.18,-1406.21"/>
<polygon fill="black" stroke="black" points="1777.65,-1402.72 1767.11,-1403.78 1776.01,-1409.52 1777.65,-1402.72"/>
</g>
<!-- 34&#45;&gt;69 -->
<g id="edge95" class="edge">
<title>34&#45;&gt;69</title>
<path fill="none" stroke="black" d="M1817.62,-2422.19C1477.3,-2420.2 333.91,-2410.52 174.93,-2369.65 90.81,-2348.02 0.93,-2367.51 0.93,-2280.65 0.93,-2280.65 0.93,-2280.65 0.93,-1876.76 0.93,-1790.5 -6.76,-1764.39 24.93,-1684.17 132.98,-1410.72 413.93,-1443.1 413.93,-1149.08 413.93,-1149.08 413.93,-1149.08 413.93,-1003.08 413.93,-928.37 507.57,-889.57 567.34,-872.41"/>
<polygon fill="black" stroke="black" points="568.28,-875.78 576.99,-869.75 566.42,-869.04 568.28,-875.78"/>
</g>
<!-- 34&#45;&gt;16 -->
<g id="edge98" class="edge">
<title>34&#45;&gt;16</title>
<path fill="none" stroke="black" d="M1982.68,-2411.33C1994.45,-2409.43 2006.54,-2407.48 2017.93,-2405.65 2068.15,-2397.59 2206.13,-2403.67 2243.93,-2369.65 2274.39,-2342.25 2267.93,-2321.62 2267.93,-2280.65 2267.93,-2280.65 2267.93,-2280.65 2267.93,-1732.01 2267.93,-1436.56 2153.93,-1372.54 2153.93,-1077.08 2153.93,-1077.08 2153.93,-1077.08 2153.93,-559.29 2153.93,-492.97 2097.34,-432.04 2062.54,-400.84"/>
<polygon fill="black" stroke="black" points="2064.46,-397.87 2054.63,-393.93 2059.85,-403.14 2064.46,-397.87"/>
</g>
<!-- 34&#45;&gt;54 -->
<g id="edge100" class="edge">
<title>34&#45;&gt;54</title>
<path fill="none" stroke="black" d="M1817.56,-2422.21C1518.04,-2419.56 615.93,-2401.56 615.93,-2280.65 615.93,-2280.65 615.93,-2280.65 615.93,-1990.65 615.93,-1910.83 609.29,-1885.52 566.93,-1817.86 557.81,-1803.29 524.44,-1774.99 500.04,-1755.32"/>
<polygon fill="black" stroke="black" points="502.16,-1752.53 492.16,-1749.01 497.78,-1757.99 502.16,-1752.53"/>
</g>
<!-- 35&#45;&gt;38 -->
<g id="edge102" class="edge">
<title>35&#45;&gt;38</title>
<path fill="none" stroke="black" d="M439,-1643.88C402.39,-1662.67 329.08,-1697.75 285.19,-1717.51"/>
<polygon fill="black" stroke="black" points="283.73,-1714.33 276.03,-1721.6 286.59,-1720.72 283.73,-1714.33"/>
</g>
<!-- 35&#45;&gt;39 -->
<g id="edge101" class="edge">
<title>35&#45;&gt;39</title>
<path fill="none" stroke="black" d="M455.3,-1612.22C454.58,-1604.4 454.48,-1594.92 454.96,-1586.15"/>
<polygon fill="black" stroke="black" points="458.46,-1586.22 455.83,-1575.96 451.49,-1585.62 458.46,-1586.22"/>
</g>
<!-- 36 -->
<g id="node64" class="node">
<title>36</title>
<ellipse fill="none" stroke="red" cx="765.93" cy="-1261.98" rx="60.39" ry="18"/>
<text text-anchor="middle" x="765.93" y="-1258.28" font-family="Times New Roman,serif" font-size="14.00">component13</text>
</g>
<!-- 36&#45;&gt;49 -->
<g id="edge104" class="edge">
<title>36&#45;&gt;49</title>
<path fill="none" stroke="black" d="M780.69,-1244.35C793.64,-1230.84 813.67,-1212.39 834.93,-1202.08 903,-1169.1 990.31,-1156.64 1046.2,-1151.94"/>
<polygon fill="black" stroke="black" points="1046.57,-1155.42 1056.26,-1151.15 1046.02,-1148.44 1046.57,-1155.42"/>
</g>
<!-- 36&#45;&gt;8 -->
<g id="edge103" class="edge">
<title>36&#45;&gt;8</title>
<path fill="none" stroke="black" d="M783.09,-1244.71C803.42,-1225.43 837.41,-1193.2 860.24,-1171.56"/>
<polygon fill="black" stroke="black" points="862.67,-1174.07 867.52,-1164.65 857.85,-1168.99 862.67,-1174.07"/>
</g>
<!-- 36&#45;&gt;53 -->
<g id="edge105" class="edge">
<title>36&#45;&gt;53</title>
<path fill="none" stroke="black" d="M768.22,-1243.79C770.93,-1218.11 773.43,-1168.64 758.93,-1130.08 708.8,-996.76 620.18,-1007.61 560.93,-878.08 498.25,-741.05 442.05,-674.74 513.93,-542.29 527.82,-516.7 555.15,-498.77 579.21,-487.19"/>
<polygon fill="black" stroke="black" points="580.94,-490.24 588.58,-482.91 578.03,-483.88 580.94,-490.24"/>
</g>
<!-- 57 -->
<g id="node66" class="node">
<title>57</title>
<ellipse fill="none" stroke="black" cx="809.93" cy="-746.19" rx="40.09" ry="18"/>
<text text-anchor="middle" x="809.93" y="-742.49" font-family="Times New Roman,serif" font-size="14.00">artifact2</text>
</g>
<!-- 36&#45;&gt;57 -->
<g id="edge106" class="edge">
<title>36&#45;&gt;57</title>
<path fill="none" stroke="black" d="M773.86,-1243.91C787.96,-1211.91 815.93,-1140.44 815.93,-1077.08 815.93,-1077.08 815.93,-1077.08 815.93,-931.08 815.93,-875.5 813.16,-810.52 811.39,-774.6"/>
<polygon fill="black" stroke="black" points="814.87,-774.23 810.87,-764.42 807.88,-774.59 814.87,-774.23"/>
</g>
<!-- 53&#45;&gt;55 -->
<g id="edge153" class="edge">
<title>53&#45;&gt;55</title>
<path fill="none" stroke="black" d="M630.39,-487.28C631.78,-499.97 632.05,-517.52 631.2,-532.11"/>
<polygon fill="black" stroke="black" points="627.71,-531.85 630.39,-542.11 634.69,-532.42 627.71,-531.85"/>
</g>
<!-- 53&#45;&gt;37 -->
<g id="edge152" class="edge">
<title>53&#45;&gt;37</title>
<path fill="none" stroke="black" d="M652.96,-453.33C670.81,-446.07 694.33,-437.68 715.93,-432 804.34,-408.74 909.59,-393.37 975.19,-385.43"/>
<polygon fill="black" stroke="black" points="975.85,-388.88 985.37,-384.22 975.03,-381.93 975.85,-388.88"/>
</g>
<!-- 42 -->
<g id="node67" class="node">
<title>42</title>
<ellipse fill="none" stroke="red" cx="922.93" cy="-2063.65" rx="38.19" ry="18"/>
<text text-anchor="middle" x="922.93" y="-2059.95" font-family="Times New Roman,serif" font-size="14.00">device6</text>
</g>
<!-- 42&#45;&gt;5 -->
<g id="edge127" class="edge">
<title>42&#45;&gt;5</title>
<path fill="none" stroke="black" d="M886.57,-2057.84C794.18,-2045.61 550.21,-2013.33 444.25,-1999.31"/>
<polygon fill="black" stroke="black" points="444.51,-1995.81 434.13,-1997.97 443.59,-2002.75 444.51,-1995.81"/>
</g>
<!-- 42&#45;&gt;47 -->
<g id="edge125" class="edge">
<title>42&#45;&gt;47</title>
<path fill="none" stroke="black" d="M949.45,-2050.52C989.94,-2031.05 1068.04,-1989.67 1120.93,-1937.65 1179.94,-1879.62 1185.06,-1855.45 1222.93,-1781.86 1244.25,-1740.44 1231.07,-1719.92 1260.93,-1684.17 1381.7,-1539.58 1594.6,-1446.99 1686.57,-1411.91"/>
<polygon fill="black" stroke="black" points="1688.01,-1415.11 1696.13,-1408.31 1685.54,-1408.56 1688.01,-1415.11"/>
</g>
<!-- 42&#45;&gt;13 -->
<g id="edge126" class="edge">
<title>42&#45;&gt;13</title>
<path fill="none" stroke="black" d="M922.93,-2045.44C922.93,-1998.4 922.93,-1866.05 922.93,-1789.88"/>
<polygon fill="black" stroke="black" points="926.43,-1789.52 922.93,-1779.52 919.43,-1789.52 926.43,-1789.52"/>
</g>
<!-- 46 -->
<g id="node68" class="node">
<title>46</title>
<ellipse fill="none" stroke="red" cx="1061.93" cy="-1877.76" rx="50.09" ry="18"/>
<text text-anchor="middle" x="1061.93" y="-1874.06" font-family="Times New Roman,serif" font-size="14.00">interface10</text>
</g>
<!-- 46&#45;&gt;15 -->
<g id="edge135" class="edge">
<title>46&#45;&gt;15</title>
<path fill="none" stroke="black" d="M1057.83,-1859.54C1052.01,-1835.1 1041.3,-1790.12 1034.4,-1761.17"/>
<polygon fill="black" stroke="black" points="1037.77,-1760.21 1032.05,-1751.29 1030.96,-1761.83 1037.77,-1760.21"/>
</g>
<!-- 46&#45;&gt;22 -->
<g id="edge134" class="edge">
<title>46&#45;&gt;22</title>
<path fill="none" stroke="black" d="M1065.97,-1859.6C1074.97,-1819.74 1095.93,-1717.69 1095.93,-1631.17 1095.93,-1631.17 1095.93,-1631.17 1095.93,-1557.17 1095.93,-1466.55 1086.18,-1431.55 1138.93,-1357.87 1157.04,-1332.59 1179.47,-1346.13 1198.93,-1321.87 1254.21,-1252.99 1294.29,-1207.03 1250.93,-1130.08 1217.38,-1070.53 769.93,-860.02 727.93,-806.08 693.18,-761.45 716.68,-733.11 684.93,-686.29 676.85,-674.38 665.49,-663.43 654.82,-654.61"/>
<polygon fill="black" stroke="black" points="656.87,-651.77 646.86,-648.31 652.52,-657.26 656.87,-651.77"/>
</g>
<!-- 48 -->
<g id="node69" class="node">
<title>48</title>
<ellipse fill="none" stroke="red" cx="1242.93" cy="-1486.17" rx="42.79" ry="18"/>
<text text-anchor="middle" x="1242.93" y="-1482.47" font-family="Times New Roman,serif" font-size="14.00">device11</text>
</g>
<!-- 48&#45;&gt;65 -->
<g id="edge143" class="edge">
<title>48&#45;&gt;65</title>
<path fill="none" stroke="black" d="M1256.14,-1468.82C1266.96,-1455.42 1282.46,-1436.23 1294.82,-1420.92"/>
<polygon fill="black" stroke="black" points="1297.76,-1422.85 1301.32,-1412.87 1292.32,-1418.45 1297.76,-1422.85"/>
</g>
<!-- 48&#45;&gt;62 -->
<g id="edge144" class="edge">
<title>48&#45;&gt;62</title>
<path fill="none" stroke="black" d="M1229.29,-1468.67C1222,-1458.76 1213.75,-1445.51 1209.93,-1432.17 1200.86,-1400.42 1190.78,-1384.77 1209.93,-1357.87 1238.31,-1318.03 1279.15,-1356.26 1313.93,-1321.87 1354.16,-1282.1 1315.06,-1240.11 1356.93,-1202.08 1405.14,-1158.32 1453.78,-1212.99 1498.93,-1166.08 1526.99,-1136.95 1517.93,-1117.53 1517.93,-1077.08 1517.93,-1077.08 1517.93,-1077.08 1517.93,-1003.08 1517.93,-911.44 1399.8,-957.43 1353.93,-878.08 1299.18,-783.36 1304.47,-646.49 1309.77,-588.69"/>
<polygon fill="black" stroke="black" points="1313.28,-588.83 1310.78,-578.54 1306.31,-588.14 1313.28,-588.83"/>
</g>
<!-- 48&#45;&gt;49 -->
<g id="edge142" class="edge">
<title>48&#45;&gt;49</title>
<path fill="none" stroke="black" d="M1215.37,-1472.1C1170.47,-1449.07 1083.14,-1396.51 1048.93,-1321.87 1026.75,-1273.48 1028.56,-1251.27 1048.93,-1202.08 1053.91,-1190.06 1063.09,-1179.34 1072.42,-1170.75"/>
<polygon fill="black" stroke="black" points="1074.92,-1173.22 1080.21,-1164.04 1070.35,-1167.91 1074.92,-1173.22"/>
</g>
<!-- 48&#45;&gt;61 -->
<g id="edge141" class="edge">
<title>48&#45;&gt;61</title>
<path fill="none" stroke="black" d="M1275.61,-1474.29C1282,-1472.22 1288.67,-1470.09 1294.93,-1468.17 1350.2,-1451.18 1364.83,-1449.66 1419.93,-1432.17 1437.07,-1426.73 1455.65,-1420.41 1472.3,-1414.59"/>
<polygon fill="black" stroke="black" points="1473.58,-1417.85 1481.85,-1411.23 1471.26,-1411.24 1473.58,-1417.85"/>
</g>
<!-- 51 -->
<g id="node70" class="node">
<title>51</title>
<ellipse fill="none" stroke="red" cx="2013.93" cy="-1733.01" rx="38.19" ry="18"/>
<text text-anchor="middle" x="2013.93" y="-1729.31" font-family="Times New Roman,serif" font-size="14.00">device7</text>
</g>
<!-- 51&#45;&gt;45 -->
<g id="edge148" class="edge">
<title>51&#45;&gt;45</title>
<path fill="none" stroke="black" d="M2016.46,-1714.98C2020.24,-1691.42 2028.32,-1647.75 2040.93,-1612.17 2129.61,-1362.04 2305.93,-1342.47 2305.93,-1077.08 2305.93,-1077.08 2305.93,-1077.08 2305.93,-161 2305.93,-73.46 1657.09,-33.23 1440.42,-22.23"/>
<polygon fill="black" stroke="black" points="1440.29,-18.72 1430.13,-21.72 1439.94,-25.71 1440.29,-18.72"/>
</g>
<!-- 51&#45;&gt;10 -->
<g id="edge145" class="edge">
<title>51&#45;&gt;10</title>
<path fill="none" stroke="black" d="M2025.82,-1715.81C2037.8,-1699.49 2056.42,-1674.12 2070.15,-1655.4"/>
<polygon fill="black" stroke="black" points="2072.98,-1657.46 2076.07,-1647.33 2067.34,-1653.32 2072.98,-1657.46"/>
</g>
<!-- 51&#45;&gt;26 -->
<g id="edge146" class="edge">
<title>51&#45;&gt;26</title>
<path fill="none" stroke="black" d="M1980.87,-1723.76C1914.37,-1707.16 1763.32,-1669.46 1675.86,-1647.63"/>
<polygon fill="black" stroke="black" points="1676.59,-1644.2 1666.04,-1645.17 1674.9,-1650.99 1676.59,-1644.2"/>
</g>
<!-- 51&#45;&gt;44 -->
<g id="edge147" class="edge">
<title>51&#45;&gt;44</title>
<path fill="none" stroke="black" d="M2012.36,-1715.01C2010.88,-1698.09 2008.76,-1671.36 2007.93,-1648.17 2003.93,-1536 2021.93,-1508.26 2021.93,-1396.02 2021.93,-1396.02 2021.93,-1396.02 2021.93,-559.29 2021.93,-489.96 1956.32,-431.58 1914.3,-401.3"/>
<polygon fill="black" stroke="black" points="1916.17,-398.34 1905.98,-395.45 1912.14,-404.06 1916.17,-398.34"/>
</g>
<!-- 58 -->
<g id="node71" class="node">
<title>58</title>
<ellipse fill="none" stroke="red" cx="899.93" cy="-860.08" rx="55.79" ry="18"/>
<text text-anchor="middle" x="899.93" y="-856.38" font-family="Times New Roman,serif" font-size="14.00">component5</text>
</g>
<!-- 58&#45;&gt;17 -->
<g id="edge160" class="edge">
<title>58&#45;&gt;17</title>
<path fill="none" stroke="black" d="M897.1,-841.86C891.16,-804.17 877.93,-711.47 877.93,-633.29 877.93,-633.29 877.93,-633.29 877.93,-559.29 877.93,-495.32 826.63,-435 793.78,-402.93"/>
<polygon fill="black" stroke="black" points="795.92,-400.14 786.27,-395.78 791.09,-405.21 795.92,-400.14"/>
</g>
<!-- 58&#45;&gt;19 -->
<g id="edge162" class="edge">
<title>58&#45;&gt;19</title>
<path fill="none" stroke="black" d="M901.99,-841.83C906.31,-804.09 915.93,-711.3 915.93,-633.29 915.93,-633.29 915.93,-633.29 915.93,-233 915.93,-158.89 1159.57,-114.45 1269.84,-98.14"/>
<polygon fill="black" stroke="black" points="1270.37,-101.6 1279.76,-96.69 1269.36,-94.67 1270.37,-101.6"/>
</g>
<!-- 58&#45;&gt;68 -->
<g id="edge161" class="edge">
<title>58&#45;&gt;68</title>
<path fill="none" stroke="black" d="M865.01,-846C836.85,-835.4 796.26,-819.99 760.93,-806.08 734.59,-795.71 705.67,-784.03 680.64,-773.82"/>
<polygon fill="black" stroke="black" points="681.83,-770.52 671.25,-769.98 679.18,-777 681.83,-770.52"/>
</g>
<!-- 58&#45;&gt;44 -->
<g id="edge163" class="edge">
<title>58&#45;&gt;44</title>
<path fill="none" stroke="black" d="M909.85,-842.3C932.74,-803.92 989.33,-711.14 1015.93,-686.29 1237.97,-479 1608.96,-410.01 1783.55,-388.31"/>
<polygon fill="black" stroke="black" points="1783.99,-391.78 1793.49,-387.1 1783.14,-384.83 1783.99,-391.78"/>
</g>
<!-- 58&#45;&gt;57 -->
<g id="edge164" class="edge">
<title>58&#45;&gt;57</title>
<path fill="none" stroke="black" d="M886.65,-842.57C871.55,-823.79 846.73,-792.94 829.43,-771.43"/>
<polygon fill="black" stroke="black" points="831.97,-769 822.98,-763.4 826.52,-773.39 831.97,-769"/>
</g>
<!-- 66 -->
<g id="node72" class="node">
<title>66</title>
<ellipse fill="none" stroke="red" cx="1621.93" cy="-1261.98" rx="46.29" ry="18"/>
<text text-anchor="middle" x="1621.93" y="-1258.28" font-family="Times New Roman,serif" font-size="14.00">interface0</text>
</g>
<!-- 66&#45;&gt;63 -->
<g id="edge181" class="edge">
<title>66&#45;&gt;63</title>
<path fill="none" stroke="black" d="M1635.43,-1244.4C1659.17,-1213.49 1705.93,-1144.12 1705.93,-1077.08 1705.93,-1077.08 1705.93,-1077.08 1705.93,-631.29 1705.93,-548.68 1688.32,-452.14 1678.83,-406.1"/>
<polygon fill="black" stroke="black" points="1682.2,-405.1 1676.72,-396.03 1675.35,-406.54 1682.2,-405.1"/>
</g>
<!-- 66&#45;&gt;59 -->
<g id="edge182" class="edge">
<title>66&#45;&gt;59</title>
<path fill="none" stroke="black" d="M1609.75,-1244.35C1599.53,-1231.38 1583.91,-1213.69 1566.93,-1202.08 1542,-1185.05 1510.78,-1172.25 1484.86,-1163.5"/>
<polygon fill="black" stroke="black" points="1485.8,-1160.12 1475.21,-1160.34 1483.62,-1166.78 1485.8,-1160.12"/>
</g>
<!-- 71 -->
<g id="node73" class="node">
<title>71</title>
<ellipse fill="none" stroke="red" cx="2066.93" cy="-2423.65" rx="40.09" ry="18"/>
<text text-anchor="middle" x="2066.93" y="-2419.95" font-family="Times New Roman,serif" font-size="14.00">artifact4</text>
</g>
</g>
</svg>
