<?xml version="1.0" encoding="UTF-8" standalone="no"?>
<!DOCTYPE svg PUBLIC "-//W3C//DTD SVG 1.1//EN"
 "http://www.w3.org/Graphics/SVG/1.1/DTD/svg11.dtd">
<!-- Generated by graphviz version 2.49.3 (20211023.0002)
 -->
<!-- Title: test Pages: 1 -->
<svg width="2438pt" height="2175pt"
 viewBox="0.00 0.00 2438.24 2175.35" xmlns="http://www.w3.org/2000/svg" xmlns:xlink="http://www.w3.org/1999/xlink">
<g id="graph0" class="graph" transform="scale(1 1) rotate(0) translate(4 2171.35)">
<title>test</title>
<polygon fill="white" stroke="transparent" points="-4,4 -4,-2171.35 2434.24,-2171.35 2434.24,4 -4,4"/>
<!-- 0 -->
<g id="node1" class="node">
<title>0</title>
<ellipse fill="none" stroke="red" cx="491.54" cy="-2149.35" rx="33.29" ry="18"/>
<text text-anchor="middle" x="491.54" y="-2145.65" font-family="Times New Roman,serif" font-size="14.00">node2</text>
</g>
<!-- 70 -->
<g id="node2" class="node">
<title>70</title>
<ellipse fill="none" stroke="black" cx="347.54" cy="-2053.66" rx="40.09" ry="18"/>
<text text-anchor="middle" x="347.54" y="-2049.96" font-family="Times New Roman,serif" font-size="14.00">artifact5</text>
</g>
<!-- 0&#45;&gt;70 -->
<g id="edge1" class="edge">
<title>0&#45;&gt;70</title>
<path fill="none" stroke="black" d="M468.92,-2135.97C450.45,-2125.65 423.86,-2110.26 401.54,-2095.35 392.61,-2089.38 383.16,-2082.48 374.71,-2076.08"/>
<polygon fill="black" stroke="black" points="376.71,-2073.2 366.65,-2069.89 372.45,-2078.76 376.71,-2073.2"/>
</g>
<!-- 16 -->
<g id="node3" class="node">
<title>16</title>
<ellipse fill="none" stroke="black" cx="589.54" cy="-749.79" rx="38.19" ry="18"/>
<text text-anchor="middle" x="589.54" y="-746.09" font-family="Times New Roman,serif" font-size="14.00">device9</text>
</g>
<!-- 0&#45;&gt;16 -->
<g id="edge2" class="edge">
<title>0&#45;&gt;16</title>
<path fill="none" stroke="black" d="M480,-2132.01C458.74,-2100.26 415.54,-2027.34 415.54,-1958.96 415.54,-1958.96 415.54,-1958.96 415.54,-1854.11 415.54,-1450.29 520.67,-1359.66 572.54,-959.18 580.93,-894.39 585.93,-817.69 588.16,-777.85"/>
<polygon fill="black" stroke="black" points="591.65,-778.04 588.7,-767.87 584.66,-777.66 591.65,-778.04"/>
</g>
<!-- 56 -->
<g id="node4" class="node">
<title>56</title>
<ellipse fill="none" stroke="black" cx="2392.54" cy="-1320.27" rx="37.89" ry="18"/>
<text text-anchor="middle" x="2392.54" y="-1316.57" font-family="Times New Roman,serif" font-size="14.00">node10</text>
</g>
<!-- 0&#45;&gt;56 -->
<g id="edge3" class="edge">
<title>0&#45;&gt;56</title>
<path fill="none" stroke="black" d="M524.89,-2148.64C778.23,-2150.45 2389.54,-2154.23 2389.54,-1958.96 2389.54,-1958.96 2389.54,-1958.96 2389.54,-1463.27 2389.54,-1423.25 2390.75,-1376.91 2391.63,-1348.34"/>
<polygon fill="black" stroke="black" points="2395.13,-1348.42 2391.95,-1338.31 2388.13,-1348.2 2395.13,-1348.42"/>
</g>
<!-- 12 -->
<g id="node5" class="node">
<title>12</title>
<ellipse fill="none" stroke="black" cx="1460.54" cy="-749.79" rx="33.29" ry="18"/>
<text text-anchor="middle" x="1460.54" y="-746.09" font-family="Times New Roman,serif" font-size="14.00">node0</text>
</g>
<!-- 0&#45;&gt;12 -->
<g id="edge4" class="edge">
<title>0&#45;&gt;12</title>
<path fill="none" stroke="black" d="M524.85,-2148.39C683.13,-2148.29 1354.71,-2144.96 1432.54,-2095.35 1838.06,-1836.86 1389.54,-1495.08 1389.54,-1014.18 1389.54,-1014.18 1389.54,-1014.18 1389.54,-916.49 1389.54,-862.65 1421.6,-806.35 1442.63,-775.2"/>
<polygon fill="black" stroke="black" points="1445.68,-776.96 1448.5,-766.74 1439.92,-772.97 1445.68,-776.96"/>
</g>
<!-- 45 -->
<g id="node6" class="node">
<title>45</title>
<ellipse fill="none" stroke="black" cx="530.54" cy="-1855.11" rx="44.71" ry="44.71"/>
<ellipse fill="none" stroke="black" cx="530.54" cy="-1855.11" rx="48.69" ry="48.69"/>
<text text-anchor="middle" x="530.54" y="-1851.41" font-family="Times New Roman,serif" font-size="14.00">package1</text>
</g>
<!-- 0&#45;&gt;45 -->
<g id="edge5" class="edge">
<title>0&#45;&gt;45</title>
<path fill="none" stroke="black" d="M492.44,-2131.24C494.49,-2095.52 500.22,-2010.47 511.54,-1939.96 512.95,-1931.18 514.73,-1921.94 516.64,-1912.94"/>
<polygon fill="black" stroke="black" points="520.12,-1913.43 518.83,-1902.91 513.28,-1911.94 520.12,-1913.43"/>
</g>
<!-- 1 -->
<g id="node7" class="node">
<title>1</title>
<ellipse fill="none" stroke="black" cx="476.54" cy="-1752.27" rx="33.29" ry="18"/>
<text text-anchor="middle" x="476.54" y="-1748.57" font-family="Times New Roman,serif" font-size="14.00">node4</text>
</g>
<!-- 0&#45;&gt;1 -->
<g id="edge6" class="edge">
<title>0&#45;&gt;1</title>
<path fill="none" stroke="black" d="M489.47,-2131.28C483.64,-2081.32 467.84,-1931.09 472.54,-1806.27 472.86,-1797.93 473.45,-1788.87 474.08,-1780.65"/>
<polygon fill="black" stroke="black" points="477.59,-1780.69 474.92,-1770.43 470.61,-1780.11 477.59,-1780.69"/>
</g>
<!-- 4 -->
<g id="node8" class="node">
<title>4</title>
<path fill="none" stroke="red" d="M1409.54,-764.52C1409.54,-766.32 1375.03,-767.79 1332.54,-767.79 1290.05,-767.79 1255.54,-766.32 1255.54,-764.52 1255.54,-764.52 1255.54,-735.06 1255.54,-735.06 1255.54,-733.26 1290.05,-731.79 1332.54,-731.79 1375.03,-731.79 1409.54,-733.26 1409.54,-735.06 1409.54,-735.06 1409.54,-764.52 1409.54,-764.52"/>
<path fill="none" stroke="red" d="M1409.54,-764.52C1409.54,-762.71 1375.03,-761.24 1332.54,-761.24 1290.05,-761.24 1255.54,-762.71 1255.54,-764.52"/>
<text text-anchor="middle" x="1332.54" y="-746.09" font-family="Times New Roman,serif" font-size="14.00">executionEnvironment11</text>
</g>
<!-- 0&#45;&gt;4 -->
<g id="edge7" class="edge">
<title>0&#45;&gt;4</title>
<path fill="none" stroke="black" d="M524.72,-2147.85C675.03,-2145.35 1288.11,-2132.94 1364.54,-2095.35 1436.73,-2059.85 1483.54,-2039.41 1483.54,-1958.96 1483.54,-1958.96 1483.54,-1958.96 1483.54,-1679.27 1483.54,-1503.13 1313.54,-1497.41 1313.54,-1321.27 1313.54,-1321.27 1313.54,-1321.27 1313.54,-916.49 1313.54,-867.58 1321.81,-811.08 1327.44,-778.29"/>
<polygon fill="black" stroke="black" points="1330.94,-778.59 1329.23,-768.13 1324.05,-777.37 1330.94,-778.59"/>
</g>
<!-- 23 -->
<g id="node10" class="node">
<title>23</title>
<ellipse fill="none" stroke="black" cx="1093.54" cy="-1957.96" rx="60.39" ry="18"/>
<text text-anchor="middle" x="1093.54" y="-1954.26" font-family="Times New Roman,serif" font-size="14.00">component11</text>
</g>
<!-- 70&#45;&gt;23 -->
<g id="edge183" class="edge">
<title>70&#45;&gt;23</title>
<path fill="none" stroke="black" d="M384.55,-2046.35C440.33,-2037.88 548.74,-2022.65 641.54,-2011.96 807.43,-1992.84 850.92,-2004.01 1015.54,-1975.96 1022.48,-1974.78 1029.76,-1973.28 1036.97,-1971.66"/>
<polygon fill="black" stroke="black" points="1037.78,-1975.06 1046.73,-1969.4 1036.2,-1968.24 1037.78,-1975.06"/>
</g>
<!-- 42 -->
<g id="node12" class="node">
<title>42</title>
<ellipse fill="none" stroke="black" cx="399.54" cy="-1166.72" rx="50.09" ry="18"/>
<text text-anchor="middle" x="399.54" y="-1163.02" font-family="Times New Roman,serif" font-size="14.00">interface11</text>
</g>
<!-- 70&#45;&gt;42 -->
<g id="edge185" class="edge">
<title>70&#45;&gt;42</title>
<path fill="none" stroke="black" d="M345.54,-2035.63C347.42,-2001.63 359.54,-1922.86 359.54,-1856.11 359.54,-1856.11 359.54,-1856.11 359.54,-1391.27 359.54,-1319.57 375.38,-1236.15 387.7,-1194.4"/>
<polygon fill="black" stroke="black" points="391.09,-1195.31 390.75,-1184.72 384.41,-1193.21 391.09,-1195.31"/>
</g>
<!-- 38 -->
<g id="node27" class="node">
<title>38</title>
<ellipse fill="none" stroke="black" cx="1614.54" cy="-605.79" rx="60.39" ry="18"/>
<text text-anchor="middle" x="1614.54" y="-602.09" font-family="Times New Roman,serif" font-size="14.00">component13</text>
</g>
<!-- 70&#45;&gt;38 -->
<g id="edge184" class="edge">
<title>70&#45;&gt;38</title>
<path fill="none" stroke="black" d="M384.76,-2046.75C441.81,-2037.9 554.39,-2021.26 650.54,-2011.96 717.68,-2005.46 1206.57,-2021.26 1256.54,-1975.96 1296.5,-1939.74 1275.54,-1910.04 1275.54,-1856.11 1275.54,-1856.11 1275.54,-1856.11 1275.54,-1391.27 1275.54,-1084.14 1468.92,-1056.55 1573.54,-767.79 1590.14,-721.99 1602.68,-666.54 1609.3,-634.11"/>
<polygon fill="black" stroke="black" points="1612.78,-634.53 1611.31,-624.04 1605.92,-633.16 1612.78,-634.53"/>
</g>
<!-- 66 -->
<g id="node44" class="node">
<title>66</title>
<ellipse fill="none" stroke="red" cx="355.54" cy="-1013.18" rx="95.58" ry="18"/>
<text text-anchor="middle" x="355.54" y="-1009.48" font-family="Times New Roman,serif" font-size="14.00">executionEnvironment7</text>
</g>
<!-- 70&#45;&gt;66 -->
<g id="edge186" class="edge">
<title>70&#45;&gt;66</title>
<path fill="none" stroke="black" d="M332.25,-2036.84C308.11,-2004.37 265.54,-1927.27 265.54,-1856.11 265.54,-1856.11 265.54,-1856.11 265.54,-1319.27 265.54,-1212.73 312.25,-1092.07 338.67,-1040.17"/>
<polygon fill="black" stroke="black" points="341.78,-1041.78 343.35,-1031.3 335.59,-1038.51 341.78,-1041.78"/>
</g>
<!-- 30 -->
<g id="node16" class="node">
<title>30</title>
<ellipse fill="none" stroke="black" cx="1332.54" cy="-677.79" rx="46.29" ry="18"/>
<text text-anchor="middle" x="1332.54" y="-674.09" font-family="Times New Roman,serif" font-size="14.00">interface3</text>
</g>
<!-- 12&#45;&gt;30 -->
<g id="edge31" class="edge">
<title>12&#45;&gt;30</title>
<path fill="none" stroke="black" d="M1435.48,-737.85C1414.66,-727.44 1385.19,-711.53 1363.04,-698.84"/>
<polygon fill="black" stroke="black" points="1364.75,-695.79 1354.34,-693.81 1361.24,-701.85 1364.75,-695.79"/>
</g>
<!-- 21 -->
<g id="node29" class="node">
<title>21</title>
<ellipse fill="none" stroke="black" cx="1796.54" cy="-378" rx="40.09" ry="18"/>
<text text-anchor="middle" x="1796.54" y="-374.3" font-family="Times New Roman,serif" font-size="14.00">artifact0</text>
</g>
<!-- 12&#45;&gt;21 -->
<g id="edge30" class="edge">
<title>12&#45;&gt;21</title>
<path fill="none" stroke="black" d="M1489.44,-740.54C1553.55,-720.49 1706.94,-662.57 1769.54,-551.79 1795.6,-505.68 1798.68,-442.17 1798,-406.39"/>
<polygon fill="black" stroke="black" points="1801.49,-406.12 1797.69,-396.23 1794.5,-406.33 1801.49,-406.12"/>
</g>
<!-- 4&#45;&gt;30 -->
<g id="edge13" class="edge">
<title>4&#45;&gt;30</title>
<path fill="none" stroke="black" d="M1332.54,-731.49C1332.54,-723.77 1332.54,-714.5 1332.54,-705.9"/>
<polygon fill="black" stroke="black" points="1336.04,-705.89 1332.54,-695.89 1329.04,-705.89 1336.04,-705.89"/>
</g>
<!-- 2 -->
<g id="node9" class="node">
<title>2</title>
<ellipse fill="none" stroke="black" cx="803.54" cy="-1320.27" rx="46.29" ry="18"/>
<text text-anchor="middle" x="803.54" y="-1316.57" font-family="Times New Roman,serif" font-size="14.00">interface6</text>
</g>
<!-- 2&#45;&gt;23 -->
<g id="edge8" class="edge">
<title>2&#45;&gt;23</title>
<path fill="none" stroke="black" d="M810.41,-1338.17C838.14,-1424.05 938.04,-1811.62 1017.54,-1903.96 1028.8,-1917.04 1044.11,-1927.94 1058.11,-1936.39"/>
<polygon fill="black" stroke="black" points="1056.66,-1939.6 1067.06,-1941.59 1060.17,-1933.54 1056.66,-1939.6"/>
</g>
<!-- 67 -->
<g id="node11" class="node">
<title>67</title>
<ellipse fill="none" stroke="black" cx="1132.54" cy="-1392.27" rx="46.29" ry="18"/>
<text text-anchor="middle" x="1132.54" y="-1388.57" font-family="Times New Roman,serif" font-size="14.00">interface5</text>
</g>
<!-- 2&#45;&gt;67 -->
<g id="edge9" class="edge">
<title>2&#45;&gt;67</title>
<path fill="none" stroke="black" d="M844.16,-1328.97C905,-1341.31 1019.27,-1365.57 1084.27,-1379.9"/>
<polygon fill="black" stroke="black" points="1083.74,-1383.37 1094.26,-1382.12 1085.25,-1376.54 1083.74,-1383.37"/>
</g>
<!-- 2&#45;&gt;42 -->
<g id="edge10" class="edge">
<title>2&#45;&gt;42</title>
<path fill="none" stroke="black" d="M769.75,-1308C695.77,-1281.65 520.24,-1215.9 440.31,-1184.69"/>
<polygon fill="black" stroke="black" points="441.18,-1181.27 430.59,-1180.88 438.63,-1187.79 441.18,-1181.27"/>
</g>
<!-- 23&#45;&gt;70 -->
<g id="edge49" class="edge">
<title>23&#45;&gt;70</title>
<path fill="none" stroke="black" d="M1054.38,-1971.75C1047.49,-1973.33 1040.35,-1974.8 1033.54,-1975.96 868.92,-2004.01 825.43,-1992.84 659.54,-2011.96 566.33,-2022.7 457.37,-2038.01 395.9,-2046.46"/>
<polygon fill="black" stroke="black" points="395.15,-2043.03 385.71,-2047.86 396.1,-2049.97 395.15,-2043.03"/>
</g>
<!-- 23&#45;&gt;2 -->
<g id="edge51" class="edge">
<title>23&#45;&gt;2</title>
<path fill="none" stroke="black" d="M1055.37,-1943.74C1036.31,-1934.7 1014.41,-1921.22 999.54,-1903.96 922.84,-1814.87 827.16,-1451 806.92,-1348.35"/>
<polygon fill="black" stroke="black" points="810.34,-1347.63 805.06,-1338.45 803.46,-1348.93 810.34,-1347.63"/>
</g>
<!-- 39 -->
<g id="node34" class="node">
<title>39</title>
<ellipse fill="none" stroke="black" cx="1597.54" cy="-1013.18" rx="55.79" ry="18"/>
<text text-anchor="middle" x="1597.54" y="-1009.48" font-family="Times New Roman,serif" font-size="14.00">component7</text>
</g>
<!-- 23&#45;&gt;39 -->
<g id="edge52" class="edge">
<title>23&#45;&gt;39</title>
<path fill="none" stroke="black" d="M1117.11,-1941.36C1193.42,-1892.92 1427.54,-1736.29 1427.54,-1537.27 1427.54,-1537.27 1427.54,-1537.27 1427.54,-1391.27 1427.54,-1342.02 1462.19,-1340.25 1493.54,-1302.27 1507.36,-1285.53 1516.3,-1285.4 1526.54,-1266.27 1566.89,-1190.91 1581.48,-1088.85 1590,-1041.02"/>
<polygon fill="black" stroke="black" points="1593.45,-1041.6 1591.83,-1031.13 1586.57,-1040.32 1593.45,-1041.6"/>
</g>
<!-- 47 -->
<g id="node41" class="node">
<title>47</title>
<ellipse fill="none" stroke="black" cx="1055.54" cy="-1855.11" rx="38.19" ry="18"/>
<text text-anchor="middle" x="1055.54" y="-1851.41" font-family="Times New Roman,serif" font-size="14.00">device2</text>
</g>
<!-- 23&#45;&gt;47 -->
<g id="edge50" class="edge">
<title>23&#45;&gt;47</title>
<path fill="none" stroke="black" d="M1081.88,-1939.85C1074.3,-1924.28 1065.26,-1901.03 1059.62,-1882.97"/>
<polygon fill="black" stroke="black" points="1062.96,-1881.92 1056.79,-1873.3 1056.24,-1883.88 1062.96,-1881.92"/>
</g>
<!-- 67&#45;&gt;2 -->
<g id="edge172" class="edge">
<title>67&#45;&gt;2</title>
<path fill="none" stroke="black" d="M1091.97,-1383.57C1031.13,-1371.24 916.77,-1346.95 851.76,-1332.62"/>
<polygon fill="black" stroke="black" points="852.29,-1329.15 841.77,-1330.41 850.77,-1335.98 852.29,-1329.15"/>
</g>
<!-- 35 -->
<g id="node28" class="node">
<title>35</title>
<ellipse fill="none" stroke="black" cx="1561.54" cy="-1320.27" rx="50.09" ry="18"/>
<text text-anchor="middle" x="1561.54" y="-1316.57" font-family="Times New Roman,serif" font-size="14.00">interface10</text>
</g>
<!-- 67&#45;&gt;35 -->
<g id="edge171" class="edge">
<title>67&#45;&gt;35</title>
<path fill="none" stroke="black" d="M1173.69,-1383.84C1251.25,-1370.68 1418.77,-1343.33 1506.13,-1329.57"/>
<polygon fill="black" stroke="black" points="1506.78,-1333.01 1516.12,-1328 1505.7,-1326.09 1506.78,-1333.01"/>
</g>
<!-- 67&#45;&gt;39 -->
<g id="edge173" class="edge">
<title>67&#45;&gt;39</title>
<path fill="none" stroke="black" d="M1145.27,-1374.91C1191.18,-1325.28 1350.68,-1173.29 1498.54,-1067.18 1516.11,-1054.58 1536.83,-1042.22 1554.87,-1032.61"/>
<polygon fill="black" stroke="black" points="1556.77,-1035.57 1564.03,-1027.85 1553.54,-1029.36 1556.77,-1035.57"/>
</g>
<!-- 36 -->
<g id="node46" class="node">
<title>36</title>
<ellipse fill="none" stroke="black" cx="1113.54" cy="-1464.27" rx="95.58" ry="18"/>
<text text-anchor="middle" x="1113.54" y="-1460.57" font-family="Times New Roman,serif" font-size="14.00">executionEnvironment1</text>
</g>
<!-- 67&#45;&gt;36 -->
<g id="edge174" class="edge">
<title>67&#45;&gt;36</title>
<path fill="none" stroke="black" d="M1133.77,-1410.54C1132.43,-1418.47 1130.05,-1428.04 1127.28,-1436.84"/>
<polygon fill="black" stroke="black" points="1123.96,-1435.73 1124.02,-1446.32 1130.58,-1438 1123.96,-1435.73"/>
</g>
<!-- 42&#45;&gt;70 -->
<g id="edge104" class="edge">
<title>42&#45;&gt;70</title>
<path fill="none" stroke="black" d="M400.32,-1185C396.09,-1222.39 377.54,-1313.69 377.54,-1391.27 377.54,-1856.11 377.54,-1856.11 377.54,-1856.11 377.54,-1917.28 367.36,-1988.55 358.14,-2026.2"/>
<polygon fill="black" stroke="black" points="354.75,-2025.33 355.57,-2035.89 361.52,-2027.12 354.75,-2025.33"/>
</g>
<!-- 42&#45;&gt;2 -->
<g id="edge105" class="edge">
<title>42&#45;&gt;2</title>
<path fill="none" stroke="black" d="M435,-1179.59C510.25,-1206.43 684.99,-1271.91 763.83,-1302.72"/>
<polygon fill="black" stroke="black" points="762.82,-1306.08 773.41,-1306.48 765.38,-1299.57 762.82,-1306.08"/>
</g>
<!-- 42&#45;&gt;66 -->
<g id="edge106" class="edge">
<title>42&#45;&gt;66</title>
<path fill="none" stroke="black" d="M390.23,-1148.93C379.91,-1122.9 365,-1072.56 358.1,-1041.32"/>
<polygon fill="black" stroke="black" points="361.53,-1040.61 356.09,-1031.52 354.67,-1042.02 361.53,-1040.61"/>
</g>
<!-- 3 -->
<g id="node13" class="node">
<title>3</title>
<ellipse fill="none" stroke="red" cx="915.54" cy="-1013.18" rx="46.29" ry="18"/>
<text text-anchor="middle" x="915.54" y="-1009.48" font-family="Times New Roman,serif" font-size="14.00">interface9</text>
</g>
<!-- 46 -->
<g id="node14" class="node">
<title>46</title>
<ellipse fill="none" stroke="red" cx="865.54" cy="-917.49" rx="37.88" ry="37.88"/>
<ellipse fill="none" stroke="red" cx="865.54" cy="-917.49" rx="41.89" ry="41.89"/>
<text text-anchor="middle" x="865.54" y="-913.79" font-family="Times New Roman,serif" font-size="14.00">model2</text>
</g>
<!-- 3&#45;&gt;46 -->
<g id="edge11" class="edge">
<title>3&#45;&gt;46</title>
<path fill="none" stroke="black" d="M906.6,-995.43C901.82,-986.46 895.66,-974.94 889.59,-963.55"/>
<polygon fill="black" stroke="black" points="892.56,-961.68 884.76,-954.5 886.38,-964.97 892.56,-961.68"/>
</g>
<!-- 15 -->
<g id="node15" class="node">
<title>15</title>
<ellipse fill="none" stroke="black" cx="1070.54" cy="-306" rx="46.29" ry="18"/>
<text text-anchor="middle" x="1070.54" y="-302.3" font-family="Times New Roman,serif" font-size="14.00">interface0</text>
</g>
<!-- 3&#45;&gt;15 -->
<g id="edge12" class="edge">
<title>3&#45;&gt;15</title>
<path fill="none" stroke="black" d="M920.8,-994.9C928.02,-967.62 937.87,-913.79 916.54,-875.79 901.51,-849 875.96,-864.37 857.54,-839.79 832.97,-807.01 833.54,-791.76 833.54,-750.79 833.54,-750.79 833.54,-750.79 833.54,-676.79 833.54,-521.57 868.81,-467.74 980.54,-360 995.41,-345.66 1014.86,-333.59 1031.88,-324.61"/>
<polygon fill="black" stroke="black" points="1033.72,-327.6 1041.04,-319.94 1030.54,-321.36 1033.72,-327.6"/>
</g>
<!-- 46&#45;&gt;4 -->
<g id="edge112" class="edge">
<title>46&#45;&gt;4</title>
<path fill="none" stroke="black" d="M907.48,-917.05C982.65,-916.23 1143.06,-906.1 1256.54,-839.79 1282.67,-824.52 1304.13,-796.89 1317.5,-776.45"/>
<polygon fill="black" stroke="black" points="1320.51,-778.24 1322.89,-767.91 1314.59,-774.5 1320.51,-778.24"/>
</g>
<!-- 24 -->
<g id="node47" class="node">
<title>24</title>
<ellipse fill="none" stroke="black" cx="355.54" cy="-821.79" rx="95.58" ry="18"/>
<text text-anchor="middle" x="355.54" y="-818.09" font-family="Times New Roman,serif" font-size="14.00">executionEnvironment5</text>
</g>
<!-- 46&#45;&gt;24 -->
<g id="edge111" class="edge">
<title>46&#45;&gt;24</title>
<path fill="none" stroke="black" d="M824.67,-908.98C739.29,-893.29 540.87,-856.84 431.42,-836.73"/>
<polygon fill="black" stroke="black" points="431.9,-833.26 421.43,-834.9 430.64,-840.14 431.9,-833.26"/>
</g>
<!-- 15&#45;&gt;30 -->
<g id="edge37" class="edge">
<title>15&#45;&gt;30</title>
<path fill="none" stroke="black" d="M1084.93,-323.11C1130.85,-381.15 1271.91,-579.92 1318.02,-651.14"/>
<polygon fill="black" stroke="black" points="1315.3,-653.4 1323.63,-659.94 1321.2,-649.63 1315.3,-653.4"/>
</g>
<!-- 10 -->
<g id="node30" class="node">
<title>10</title>
<ellipse fill="none" stroke="black" cx="1227.54" cy="-378" rx="46.29" ry="18"/>
<text text-anchor="middle" x="1227.54" y="-374.3" font-family="Times New Roman,serif" font-size="14.00">interface1</text>
</g>
<!-- 15&#45;&gt;10 -->
<g id="edge36" class="edge">
<title>15&#45;&gt;10</title>
<path fill="none" stroke="black" d="M1102.67,-318.99C1128.88,-329.91 1165.67,-346.2 1192.6,-358.74"/>
<polygon fill="black" stroke="black" points="1191.13,-361.92 1201.67,-363 1194.11,-355.58 1191.13,-361.92"/>
</g>
<!-- 30&#45;&gt;12 -->
<g id="edge72" class="edge">
<title>30&#45;&gt;12</title>
<path fill="none" stroke="black" d="M1362,-691.94C1383.18,-702.69 1411.4,-718 1432.29,-730.03"/>
<polygon fill="black" stroke="black" points="1430.64,-733.11 1441.04,-735.13 1434.16,-727.07 1430.64,-733.11"/>
</g>
<!-- 30&#45;&gt;15 -->
<g id="edge73" class="edge">
<title>30&#45;&gt;15</title>
<path fill="none" stroke="black" d="M1317.95,-660.42C1271.85,-602.1 1131.35,-404.1 1085.19,-332.83"/>
<polygon fill="black" stroke="black" points="1087.89,-330.56 1079.56,-324.02 1081.99,-334.33 1087.89,-330.56"/>
</g>
<!-- 30&#45;&gt;38 -->
<g id="edge71" class="edge">
<title>30&#45;&gt;38</title>
<path fill="none" stroke="black" d="M1368.61,-666.5C1376.79,-664.24 1385.45,-661.89 1393.54,-659.79 1449.29,-645.34 1513.31,-630.14 1558.05,-619.74"/>
<polygon fill="black" stroke="black" points="1558.9,-623.13 1567.86,-617.47 1557.32,-616.32 1558.9,-623.13"/>
</g>
<!-- 5 -->
<g id="node17" class="node">
<title>5</title>
<ellipse fill="none" stroke="black" cx="1055.54" cy="-1680.27" rx="38.19" ry="18"/>
<text text-anchor="middle" x="1055.54" y="-1676.57" font-family="Times New Roman,serif" font-size="14.00">device0</text>
</g>
<!-- 49 -->
<g id="node18" class="node">
<title>49</title>
<ellipse fill="none" stroke="black" cx="1038.54" cy="-1608.27" rx="38.19" ry="18"/>
<text text-anchor="middle" x="1038.54" y="-1604.57" font-family="Times New Roman,serif" font-size="14.00">device3</text>
</g>
<!-- 5&#45;&gt;49 -->
<g id="edge14" class="edge">
<title>5&#45;&gt;49</title>
<path fill="none" stroke="black" d="M1045.67,-1662.68C1042.93,-1654.89 1040.37,-1645.4 1038.57,-1636.6"/>
<polygon fill="black" stroke="black" points="1042.02,-1635.96 1036.85,-1626.71 1035.12,-1637.17 1042.02,-1635.96"/>
</g>
<!-- 60 -->
<g id="node19" class="node">
<title>60</title>
<path fill="none" stroke="red" d="M1082.54,-1766.99C1082.54,-1768.8 1070.44,-1770.27 1055.54,-1770.27 1040.64,-1770.27 1028.54,-1768.8 1028.54,-1766.99 1028.54,-1766.99 1028.54,-1737.54 1028.54,-1737.54 1028.54,-1735.73 1040.64,-1734.27 1055.54,-1734.27 1070.44,-1734.27 1082.54,-1735.73 1082.54,-1737.54 1082.54,-1737.54 1082.54,-1766.99 1082.54,-1766.99"/>
<path fill="none" stroke="red" d="M1082.54,-1766.99C1082.54,-1765.19 1070.44,-1763.72 1055.54,-1763.72 1040.64,-1763.72 1028.54,-1765.19 1028.54,-1766.99"/>
<text text-anchor="middle" x="1055.54" y="-1748.57" font-family="Times New Roman,serif" font-size="14.00">node5</text>
</g>
<!-- 5&#45;&gt;60 -->
<g id="edge15" class="edge">
<title>5&#45;&gt;60</title>
<path fill="none" stroke="black" d="M1061.44,-1698.37C1062.24,-1706.06 1062.48,-1715.32 1062.15,-1723.93"/>
<polygon fill="black" stroke="black" points="1058.65,-1723.75 1061.46,-1733.96 1065.63,-1724.23 1058.65,-1723.75"/>
</g>
<!-- 49&#45;&gt;5 -->
<g id="edge119" class="edge">
<title>49&#45;&gt;5</title>
<path fill="none" stroke="black" d="M1048.42,-1625.89C1051.17,-1633.71 1053.74,-1643.23 1055.53,-1652.06"/>
<polygon fill="black" stroke="black" points="1052.09,-1652.71 1057.26,-1661.96 1058.99,-1651.51 1052.09,-1652.71"/>
</g>
<!-- 49&#45;&gt;10 -->
<g id="edge120" class="edge">
<title>49&#45;&gt;10</title>
<path fill="none" stroke="black" d="M1053.45,-1591.48C1068.86,-1573.15 1088.84,-1542.34 1074.54,-1518.27 1057.49,-1489.53 1028.52,-1509.05 1008.54,-1482.27 984.36,-1449.85 989.54,-1433.71 989.54,-1393.27 989.54,-1393.27 989.54,-1393.27 989.54,-1165.72 989.54,-1034.73 1009.65,-984.49 936.54,-875.79 922.05,-854.25 901.91,-863.13 890.54,-839.79 883.53,-825.41 885.28,-818.9 890.54,-803.79 954.1,-621.41 1132.22,-458.53 1200.47,-401.03"/>
<polygon fill="black" stroke="black" points="1202.8,-403.64 1208.23,-394.54 1198.31,-398.27 1202.8,-403.64"/>
</g>
<!-- 22 -->
<g id="node43" class="node">
<title>22</title>
<ellipse fill="none" stroke="black" cx="1022.54" cy="-1536.27" rx="42.79" ry="18"/>
<text text-anchor="middle" x="1022.54" y="-1532.57" font-family="Times New Roman,serif" font-size="14.00">device11</text>
</g>
<!-- 49&#45;&gt;22 -->
<g id="edge118" class="edge">
<title>49&#45;&gt;22</title>
<path fill="none" stroke="black" d="M1028.91,-1590.68C1026.28,-1582.89 1023.86,-1573.4 1022.18,-1564.6"/>
<polygon fill="black" stroke="black" points="1025.64,-1564.03 1020.6,-1554.71 1018.73,-1565.14 1025.64,-1564.03"/>
</g>
<!-- 60&#45;&gt;5 -->
<g id="edge154" class="edge">
<title>60&#45;&gt;5</title>
<path fill="none" stroke="black" d="M1049.63,-1733.96C1048.83,-1726.25 1048.6,-1716.98 1048.95,-1708.38"/>
<polygon fill="black" stroke="black" points="1052.44,-1708.59 1049.65,-1698.37 1045.46,-1708.1 1052.44,-1708.59"/>
</g>
<!-- 27 -->
<g id="node37" class="node">
<title>27</title>
<ellipse fill="none" stroke="black" cx="748.54" cy="-234" rx="38.19" ry="18"/>
<text text-anchor="middle" x="748.54" y="-230.3" font-family="Times New Roman,serif" font-size="14.00">device6</text>
</g>
<!-- 60&#45;&gt;27 -->
<g id="edge152" class="edge">
<title>60&#45;&gt;27</title>
<path fill="none" stroke="black" d="M1028.39,-1737.83C992.24,-1715.49 933.54,-1667.39 933.54,-1609.27 933.54,-1609.27 933.54,-1609.27 933.54,-1391.27 933.54,-1129.27 777.54,-1084.79 777.54,-822.79 777.54,-822.79 777.54,-822.79 777.54,-377 777.54,-335.81 762.44,-290.12 753.53,-261.98"/>
<polygon fill="black" stroke="black" points="756.77,-260.61 750.47,-252.09 750.09,-262.68 756.77,-260.61"/>
</g>
<!-- 60&#45;&gt;47 -->
<g id="edge153" class="edge">
<title>60&#45;&gt;47</title>
<path fill="none" stroke="black" d="M1060.77,-1770.46C1062.46,-1785.91 1062.74,-1808.88 1061.61,-1826.84"/>
<polygon fill="black" stroke="black" points="1058.11,-1826.75 1060.76,-1837.01 1065.09,-1827.33 1058.11,-1826.75"/>
</g>
<!-- 6 -->
<g id="node20" class="node">
<title>6</title>
<ellipse fill="none" stroke="black" cx="2226.54" cy="-306" rx="55.79" ry="18"/>
<text text-anchor="middle" x="2226.54" y="-302.3" font-family="Times New Roman,serif" font-size="14.00">component5</text>
</g>
<!-- 53 -->
<g id="node21" class="node">
<title>53</title>
<ellipse fill="none" stroke="red" cx="1936.54" cy="-821.79" rx="55.79" ry="18"/>
<text text-anchor="middle" x="1936.54" y="-818.09" font-family="Times New Roman,serif" font-size="14.00">component0</text>
</g>
<!-- 6&#45;&gt;53 -->
<g id="edge16" class="edge">
<title>6&#45;&gt;53</title>
<path fill="none" stroke="black" d="M2220.83,-324.32C2193.44,-385.51 2079.28,-596.97 1978.54,-767.79 1972.95,-777.27 1966.6,-787.57 1960.42,-796.55"/>
<polygon fill="black" stroke="black" points="1957.57,-794.52 1954.56,-804.68 1963.25,-798.6 1957.57,-794.52"/>
</g>
<!-- 20 -->
<g id="node22" class="node">
<title>20</title>
<ellipse fill="none" stroke="black" cx="2250.54" cy="-378" rx="40.09" ry="18"/>
<text text-anchor="middle" x="2250.54" y="-374.3" font-family="Times New Roman,serif" font-size="14.00">artifact8</text>
</g>
<!-- 6&#45;&gt;20 -->
<g id="edge17" class="edge">
<title>6&#45;&gt;20</title>
<path fill="none" stroke="black" d="M2238.08,-323.62C2241.62,-331.44 2245.13,-340.97 2247.81,-349.8"/>
<polygon fill="black" stroke="black" points="2244.51,-350.98 2250.52,-359.7 2251.26,-349.13 2244.51,-350.98"/>
</g>
<!-- 53&#45;&gt;12 -->
<g id="edge128" class="edge">
<title>53&#45;&gt;12</title>
<path fill="none" stroke="black" d="M1886.5,-813.43C1792.23,-799.57 1589.94,-769.82 1502.37,-756.94"/>
<polygon fill="black" stroke="black" points="1502.68,-753.45 1492.28,-755.46 1501.66,-760.37 1502.68,-753.45"/>
</g>
<!-- 53&#45;&gt;6 -->
<g id="edge125" class="edge">
<title>53&#45;&gt;6</title>
<path fill="none" stroke="black" d="M1939.63,-803.73C1944.99,-793.41 1953.38,-779.93 1960.54,-767.79 2057.17,-603.93 2166.16,-402.68 2208.66,-332.54"/>
<polygon fill="black" stroke="black" points="2211.72,-334.25 2213.98,-323.9 2205.76,-330.59 2211.72,-334.25"/>
</g>
<!-- 54 -->
<g id="node31" class="node">
<title>54</title>
<ellipse fill="none" stroke="black" cx="1534.54" cy="-491.9" rx="55.8" ry="55.8"/>
<ellipse fill="none" stroke="black" cx="1534.54" cy="-491.9" rx="59.79" ry="59.79"/>
<text text-anchor="middle" x="1534.54" y="-488.2" font-family="Times New Roman,serif" font-size="14.00">component8</text>
</g>
<!-- 53&#45;&gt;54 -->
<g id="edge130" class="edge">
<title>53&#45;&gt;54</title>
<path fill="none" stroke="black" d="M1890.09,-811.59C1856.95,-803.15 1812.47,-788.75 1777.54,-767.79 1716.58,-731.21 1721.49,-694.68 1659.54,-659.79 1609.91,-631.84 1572.58,-667.9 1536.54,-623.79 1522.09,-606.1 1517.26,-582.22 1517.28,-559.69"/>
<polygon fill="black" stroke="black" points="1520.79,-559.57 1517.61,-549.47 1513.79,-559.35 1520.79,-559.57"/>
</g>
<!-- 68 -->
<g id="node33" class="node">
<title>68</title>
<ellipse fill="none" stroke="black" cx="2015.54" cy="-306" rx="55.79" ry="18"/>
<text text-anchor="middle" x="2015.54" y="-302.3" font-family="Times New Roman,serif" font-size="14.00">component1</text>
</g>
<!-- 53&#45;&gt;68 -->
<g id="edge126" class="edge">
<title>53&#45;&gt;68</title>
<path fill="none" stroke="black" d="M1936.54,-803.7C1942.82,-728.49 1989.02,-426.73 2008.13,-334.14"/>
<polygon fill="black" stroke="black" points="2011.6,-334.67 2010.27,-324.16 2004.75,-333.2 2011.6,-334.67"/>
</g>
<!-- 26 -->
<g id="node39" class="node">
<title>26</title>
<ellipse fill="none" stroke="red" cx="1992.54" cy="-917.49" rx="55.79" ry="18"/>
<text text-anchor="middle" x="1992.54" y="-913.79" font-family="Times New Roman,serif" font-size="14.00">component3</text>
</g>
<!-- 53&#45;&gt;26 -->
<g id="edge129" class="edge">
<title>53&#45;&gt;26</title>
<path fill="none" stroke="black" d="M1951.65,-839.24C1961.69,-853.33 1974.25,-873.87 1982.98,-890.23"/>
<polygon fill="black" stroke="black" points="1979.96,-892 1987.63,-899.3 1986.19,-888.81 1979.96,-892"/>
</g>
<!-- 52 -->
<g id="node64" class="node">
<title>52</title>
<path fill="none" stroke="red" d="M1881.54,-764.52C1881.54,-766.32 1862.27,-767.79 1838.54,-767.79 1814.81,-767.79 1795.54,-766.32 1795.54,-764.52 1795.54,-764.52 1795.54,-735.06 1795.54,-735.06 1795.54,-733.26 1814.81,-731.79 1838.54,-731.79 1862.27,-731.79 1881.54,-733.26 1881.54,-735.06 1881.54,-735.06 1881.54,-764.52 1881.54,-764.52"/>
<path fill="none" stroke="red" d="M1881.54,-764.52C1881.54,-762.71 1862.27,-761.24 1838.54,-761.24 1814.81,-761.24 1795.54,-762.71 1795.54,-764.52"/>
<text text-anchor="middle" x="1838.54" y="-746.09" font-family="Times New Roman,serif" font-size="14.00">component6</text>
</g>
<!-- 53&#45;&gt;52 -->
<g id="edge127" class="edge">
<title>53&#45;&gt;52</title>
<path fill="none" stroke="black" d="M1909.86,-805.77C1895.87,-796.59 1878.9,-784.65 1864.96,-774.24"/>
<polygon fill="black" stroke="black" points="1866.81,-771.25 1856.73,-768 1862.58,-776.83 1866.81,-771.25"/>
</g>
<!-- 20&#45;&gt;6 -->
<g id="edge42" class="edge">
<title>20&#45;&gt;6</title>
<path fill="none" stroke="black" d="M2239.01,-360.41C2235.49,-352.62 2231.99,-343.14 2229.31,-334.33"/>
<polygon fill="black" stroke="black" points="2232.62,-333.16 2226.59,-324.45 2225.87,-335.02 2232.62,-333.16"/>
</g>
<!-- 9 -->
<g id="node25" class="node">
<title>9</title>
<ellipse fill="none" stroke="red" cx="1686.54" cy="-491.9" rx="55.79" ry="18"/>
<text text-anchor="middle" x="1686.54" y="-488.2" font-family="Times New Roman,serif" font-size="14.00">component4</text>
</g>
<!-- 20&#45;&gt;9 -->
<g id="edge43" class="edge">
<title>20&#45;&gt;9</title>
<path fill="none" stroke="black" d="M2214.98,-386.78C2120.08,-406.39 1860.68,-457.89 1744.29,-480.26"/>
<polygon fill="black" stroke="black" points="1743.32,-476.89 1734.15,-482.21 1744.63,-483.76 1743.32,-476.89"/>
</g>
<!-- 7 -->
<g id="node23" class="node">
<title>7</title>
<ellipse fill="none" stroke="black" cx="2058.54" cy="-1320.27" rx="60.39" ry="18"/>
<text text-anchor="middle" x="2058.54" y="-1316.57" font-family="Times New Roman,serif" font-size="14.00">component12</text>
</g>
<!-- 8 -->
<g id="node24" class="node">
<title>8</title>
<path fill="none" stroke="black" d="M943.04,-1869.84C943.04,-1871.65 910.1,-1873.11 869.54,-1873.11 828.99,-1873.11 796.04,-1871.65 796.04,-1869.84 796.04,-1869.84 796.04,-1840.39 796.04,-1840.39 796.04,-1838.58 828.99,-1837.11 869.54,-1837.11 910.1,-1837.11 943.04,-1838.58 943.04,-1840.39 943.04,-1840.39 943.04,-1869.84 943.04,-1869.84"/>
<path fill="none" stroke="black" d="M943.04,-1869.84C943.04,-1868.03 910.1,-1866.57 869.54,-1866.57 828.99,-1866.57 796.04,-1868.03 796.04,-1869.84"/>
<text text-anchor="middle" x="869.54" y="-1851.41" font-family="Times New Roman,serif" font-size="14.00">executionEnvironment4</text>
</g>
<!-- 9&#45;&gt;20 -->
<g id="edge18" class="edge">
<title>9&#45;&gt;20</title>
<path fill="none" stroke="black" d="M1731.59,-481.16C1836.78,-459.55 2097.29,-407.88 2203.97,-387.49"/>
<polygon fill="black" stroke="black" points="2204.63,-390.92 2213.8,-385.61 2203.32,-384.05 2204.63,-390.92"/>
</g>
<!-- 9&#45;&gt;9 -->
<g id="edge22" class="edge">
<title>9&#45;&gt;9</title>
<path fill="none" stroke="black" d="M1710,-508.28C1733.87,-517.92 1760.44,-512.46 1760.44,-491.9 1760.44,-474.06 1740.46,-467.59 1719.58,-472.47"/>
<polygon fill="black" stroke="black" points="1718.47,-469.15 1710,-475.51 1720.59,-475.82 1718.47,-469.15"/>
</g>
<!-- 43 -->
<g id="node26" class="node">
<title>43</title>
<ellipse fill="none" stroke="black" cx="1682.54" cy="-378" rx="55.79" ry="18"/>
<text text-anchor="middle" x="1682.54" y="-374.3" font-family="Times New Roman,serif" font-size="14.00">component2</text>
</g>
<!-- 9&#45;&gt;43 -->
<g id="edge19" class="edge">
<title>9&#45;&gt;43</title>
<path fill="none" stroke="black" d="M1680.92,-473.9C1678.31,-455.99 1677,-427.51 1677.62,-406.42"/>
<polygon fill="black" stroke="black" points="1681.13,-406.31 1678.13,-396.15 1674.14,-405.97 1681.13,-406.31"/>
</g>
<!-- 9&#45;&gt;38 -->
<g id="edge20" class="edge">
<title>9&#45;&gt;38</title>
<path fill="none" stroke="black" d="M1680.64,-509.84C1670.69,-528.51 1651.5,-558.71 1636.19,-580.03"/>
<polygon fill="black" stroke="black" points="1633.23,-578.15 1630.12,-588.28 1638.87,-582.3 1633.23,-578.15"/>
</g>
<!-- 9&#45;&gt;35 -->
<g id="edge21" class="edge">
<title>9&#45;&gt;35</title>
<path fill="none" stroke="black" d="M1689.36,-509.91C1695.9,-550.89 1711.54,-658.4 1711.54,-748.79 1711.54,-1014.18 1711.54,-1014.18 1711.54,-1014.18 1711.54,-1129.12 1624.75,-1245.73 1583.2,-1294.96"/>
<polygon fill="black" stroke="black" points="1580.32,-1292.94 1576.47,-1302.81 1585.64,-1297.5 1580.32,-1292.94"/>
</g>
<!-- 9&#45;&gt;21 -->
<g id="edge23" class="edge">
<title>9&#45;&gt;21</title>
<path fill="none" stroke="black" d="M1698.24,-473.9C1715.31,-454.35 1746.77,-422.19 1769.63,-400.8"/>
<polygon fill="black" stroke="black" points="1772.03,-403.35 1777.02,-394 1767.29,-398.2 1772.03,-403.35"/>
</g>
<!-- 43&#45;&gt;9 -->
<g id="edge108" class="edge">
<title>43&#45;&gt;9</title>
<path fill="none" stroke="black" d="M1688.18,-396.15C1690.79,-414.13 1692.09,-442.62 1691.46,-463.67"/>
<polygon fill="black" stroke="black" points="1687.95,-463.74 1690.94,-473.9 1694.94,-464.09 1687.95,-463.74"/>
</g>
<!-- 43&#45;&gt;68 -->
<g id="edge107" class="edge">
<title>43&#45;&gt;68</title>
<path fill="none" stroke="black" d="M1720.05,-364.49C1726.2,-362.92 1732.52,-361.38 1738.54,-360 1812.96,-342.93 1899.76,-326.37 1956.18,-316.43"/>
<polygon fill="black" stroke="black" points="1957.1,-319.82 1966.35,-314.65 1955.9,-312.92 1957.1,-319.82"/>
</g>
<!-- 33 -->
<g id="node57" class="node">
<title>33</title>
<ellipse fill="none" stroke="black" cx="1682.54" cy="-306" rx="46.29" ry="18"/>
<text text-anchor="middle" x="1682.54" y="-302.3" font-family="Times New Roman,serif" font-size="14.00">interface2</text>
</g>
<!-- 43&#45;&gt;33 -->
<g id="edge109" class="edge">
<title>43&#45;&gt;33</title>
<path fill="none" stroke="black" d="M1676.66,-360.05C1675.85,-352.35 1675.6,-343.03 1675.94,-334.36"/>
<polygon fill="black" stroke="black" points="1679.44,-334.49 1676.63,-324.28 1672.45,-334.01 1679.44,-334.49"/>
</g>
<!-- 38&#45;&gt;9 -->
<g id="edge94" class="edge">
<title>38&#45;&gt;9</title>
<path fill="none" stroke="black" d="M1620.47,-587.8C1630.44,-569.1 1649.66,-538.87 1664.96,-517.56"/>
<polygon fill="black" stroke="black" points="1667.92,-519.45 1671.03,-509.32 1662.28,-515.3 1667.92,-519.45"/>
</g>
<!-- 38&#45;&gt;54 -->
<g id="edge95" class="edge">
<title>38&#45;&gt;54</title>
<path fill="none" stroke="black" d="M1597.78,-588.28C1589.7,-578.51 1579.79,-565.48 1570.2,-552.2"/>
<polygon fill="black" stroke="black" points="1572.96,-550.03 1564.3,-543.93 1567.26,-554.1 1572.96,-550.03"/>
</g>
<!-- 35&#45;&gt;67 -->
<g id="edge85" class="edge">
<title>35&#45;&gt;67</title>
<path fill="none" stroke="black" d="M1517.77,-1329.14C1438.23,-1342.61 1270.63,-1369.96 1185.07,-1383.42"/>
<polygon fill="black" stroke="black" points="1184.39,-1379.99 1175.05,-1384.99 1185.48,-1386.9 1184.39,-1379.99"/>
</g>
<!-- 35&#45;&gt;35 -->
<g id="edge87" class="edge">
<title>35&#45;&gt;35</title>
<path fill="none" stroke="black" d="M1596.2,-1333.33C1613.8,-1335.24 1629.59,-1330.88 1629.59,-1320.27 1629.59,-1311.72 1619.37,-1307.23 1606.2,-1306.8"/>
<polygon fill="black" stroke="black" points="1606.05,-1303.3 1596.2,-1307.2 1606.34,-1310.3 1606.05,-1303.3"/>
</g>
<!-- 11 -->
<g id="node32" class="node">
<title>11</title>
<ellipse fill="none" stroke="black" cx="1785.54" cy="-1166.72" rx="46.29" ry="18"/>
<text text-anchor="middle" x="1785.54" y="-1163.02" font-family="Times New Roman,serif" font-size="14.00">interface7</text>
</g>
<!-- 35&#45;&gt;11 -->
<g id="edge86" class="edge">
<title>35&#45;&gt;11</title>
<path fill="none" stroke="black" d="M1599.82,-1308.45C1639.5,-1297.77 1697.93,-1280.96 1716.54,-1266.27 1740.75,-1247.15 1757.55,-1215.38 1769.05,-1193.09"/>
<polygon fill="black" stroke="black" points="1772.17,-1194.67 1773.66,-1184.18 1765.95,-1191.45 1772.17,-1194.67"/>
</g>
<!-- 21&#45;&gt;9 -->
<g id="edge44" class="edge">
<title>21&#45;&gt;9</title>
<path fill="none" stroke="black" d="M1785.33,-395.44C1768.6,-414.68 1737.39,-446.63 1714.39,-468.21"/>
<polygon fill="black" stroke="black" points="1711.91,-465.74 1706.94,-475.1 1716.66,-470.88 1711.91,-465.74"/>
</g>
<!-- 21&#45;&gt;26 -->
<g id="edge45" class="edge">
<title>21&#45;&gt;26</title>
<path fill="none" stroke="black" d="M1811.33,-394.98C1853.58,-449.15 1971.94,-632.02 2010.54,-803.79 2017.04,-832.69 2012.75,-866.67 2006.29,-889.71"/>
<polygon fill="black" stroke="black" points="2002.88,-888.87 2003.2,-899.46 2009.55,-890.99 2002.88,-888.87"/>
</g>
<!-- 10&#45;&gt;15 -->
<g id="edge25" class="edge">
<title>10&#45;&gt;15</title>
<path fill="none" stroke="black" d="M1195.31,-364.97C1169.13,-354.06 1132.45,-337.82 1105.57,-325.3"/>
<polygon fill="black" stroke="black" points="1107.04,-322.12 1096.5,-321.04 1104.07,-328.46 1107.04,-322.12"/>
</g>
<!-- 10&#45;&gt;10 -->
<g id="edge24" class="edge">
<title>10&#45;&gt;10</title>
<path fill="none" stroke="black" d="M1259.56,-390.99C1276.41,-393.09 1291.69,-388.76 1291.69,-378 1291.69,-369.51 1282.18,-365.03 1269.88,-364.54"/>
<polygon fill="black" stroke="black" points="1269.39,-361.06 1259.56,-365.01 1269.71,-368.06 1269.39,-361.06"/>
</g>
<!-- 10&#45;&gt;54 -->
<g id="edge26" class="edge">
<title>10&#45;&gt;54</title>
<path fill="none" stroke="black" d="M1262.31,-390.13C1312.6,-407.47 1406.25,-441.42 1469.54,-465.09"/>
<polygon fill="black" stroke="black" points="1468.44,-468.42 1479.04,-468.65 1470.9,-461.87 1468.44,-468.42"/>
</g>
<!-- 54&#45;&gt;53 -->
<g id="edge131" class="edge">
<title>54&#45;&gt;53</title>
<path fill="none" stroke="black" d="M1533.98,-552.11C1534.29,-576.73 1538.46,-604.1 1554.54,-623.79 1590.58,-667.9 1627.91,-631.84 1677.54,-659.79 1739.49,-694.68 1734.58,-731.21 1795.54,-767.79 1824.04,-784.89 1858.88,-797.62 1886.88,-806.31"/>
<polygon fill="black" stroke="black" points="1885.89,-809.67 1896.47,-809.22 1887.92,-802.97 1885.89,-809.67"/>
</g>
<!-- 54&#45;&gt;38 -->
<g id="edge132" class="edge">
<title>54&#45;&gt;38</title>
<path fill="none" stroke="black" d="M1573.52,-538.13C1583.79,-552.08 1594.13,-566.95 1601.95,-579.1"/>
<polygon fill="black" stroke="black" points="1599.13,-581.18 1607.4,-587.8 1605.06,-577.46 1599.13,-581.18"/>
</g>
<!-- 54&#45;&gt;10 -->
<g id="edge133" class="edge">
<title>54&#45;&gt;10</title>
<path fill="none" stroke="black" d="M1477.96,-472.17C1416.83,-450.67 1321.14,-415.76 1267.41,-395.33"/>
<polygon fill="black" stroke="black" points="1268.48,-391.99 1257.89,-391.69 1265.98,-398.53 1268.48,-391.99"/>
</g>
<!-- 54&#45;&gt;54 -->
<g id="edge134" class="edge">
<title>54&#45;&gt;54</title>
<path fill="none" stroke="black" d="M1590.91,-512.33C1603.36,-510.41 1612.44,-503.6 1612.44,-491.9 1612.44,-483.67 1607.95,-477.86 1600.96,-474.46"/>
<polygon fill="black" stroke="black" points="1601.49,-470.97 1590.91,-471.46 1599.49,-477.68 1601.49,-470.97"/>
</g>
<!-- 11&#45;&gt;35 -->
<g id="edge27" class="edge">
<title>11&#45;&gt;35</title>
<path fill="none" stroke="black" d="M1785.61,-1184.93C1779.78,-1206.91 1761.9,-1244.67 1734.54,-1266.27 1716.02,-1280.89 1658.07,-1297.61 1614.21,-1308.29"/>
<polygon fill="black" stroke="black" points="1613.15,-1304.95 1604.24,-1310.68 1614.78,-1311.76 1613.15,-1304.95"/>
</g>
<!-- 11&#45;&gt;68 -->
<g id="edge28" class="edge">
<title>11&#45;&gt;68</title>
<path fill="none" stroke="black" d="M1788.94,-1148.67C1802.74,-1114.08 1848.02,-1035.57 1909.54,-995.18 1962.89,-960.16 1992.88,-990.4 2048.54,-959.18 2124.59,-916.54 2189.54,-909.98 2189.54,-822.79 2189.54,-822.79 2189.54,-822.79 2189.54,-748.79 2189.54,-578.71 2072.35,-397.92 2030.14,-332.48"/>
<polygon fill="black" stroke="black" points="2033.06,-330.54 2024.7,-324.03 2027.17,-334.33 2033.06,-330.54"/>
</g>
<!-- 11&#45;&gt;39 -->
<g id="edge29" class="edge">
<title>11&#45;&gt;39</title>
<path fill="none" stroke="black" d="M1766.21,-1150.15C1745.44,-1129.62 1711.89,-1093.08 1678.54,-1067.18 1663.1,-1055.19 1644.69,-1043.9 1629.24,-1034.84"/>
<polygon fill="black" stroke="black" points="1630.93,-1031.78 1620.52,-1029.78 1627.41,-1037.83 1630.93,-1031.78"/>
</g>
<!-- 68&#45;&gt;53 -->
<g id="edge175" class="edge">
<title>68&#45;&gt;53</title>
<path fill="none" stroke="black" d="M2015.54,-324.16C2009.23,-399.49 1963.03,-701.26 1943.94,-793.72"/>
<polygon fill="black" stroke="black" points="1940.47,-793.18 1941.8,-803.7 1947.32,-794.65 1940.47,-793.18"/>
</g>
<!-- 68&#45;&gt;43 -->
<g id="edge176" class="edge">
<title>68&#45;&gt;43</title>
<path fill="none" stroke="black" d="M1969.72,-316.42C1917.78,-326.36 1830.97,-342.92 1756.54,-360 1750.35,-361.42 1743.85,-363.01 1737.37,-364.62"/>
<polygon fill="black" stroke="black" points="1736.08,-361.34 1727.24,-367.17 1737.79,-368.12 1736.08,-361.34"/>
</g>
<!-- 68&#45;&gt;11 -->
<g id="edge177" class="edge">
<title>68&#45;&gt;11</title>
<path fill="none" stroke="black" d="M2031.79,-323.63C2078.46,-380.01 2207.54,-570.3 2207.54,-748.79 2207.54,-822.79 2207.54,-822.79 2207.54,-822.79 2207.54,-909.98 2142.59,-916.54 2066.54,-959.18 2010.88,-990.4 1980.89,-960.16 1927.54,-995.18 1870.54,-1032.61 1827.48,-1102.76 1804.05,-1140.37"/>
<polygon fill="black" stroke="black" points="1800.87,-1138.86 1798.52,-1149.19 1806.8,-1142.58 1800.87,-1138.86"/>
</g>
<!-- 14 -->
<g id="node38" class="node">
<title>14</title>
<ellipse fill="none" stroke="black" cx="2066.54" cy="-234" rx="44.39" ry="18"/>
<text text-anchor="middle" x="2066.54" y="-230.3" font-family="Times New Roman,serif" font-size="14.00">artifact11</text>
</g>
<!-- 68&#45;&gt;14 -->
<g id="edge178" class="edge">
<title>68&#45;&gt;14</title>
<path fill="none" stroke="black" d="M2022.01,-288.05C2027.46,-279.29 2035.18,-268.45 2042.72,-258.86"/>
<polygon fill="black" stroke="black" points="2045.66,-260.8 2049.25,-250.83 2040.23,-256.38 2045.66,-260.8"/>
</g>
<!-- 39&#45;&gt;23 -->
<g id="edge96" class="edge">
<title>39&#45;&gt;23</title>
<path fill="none" stroke="black" d="M1600.73,-1031.44C1601.47,-1073.81 1587.83,-1185.41 1544.54,-1266.27 1534.3,-1285.4 1525.36,-1285.53 1511.54,-1302.27 1480.19,-1340.25 1445.54,-1342.02 1445.54,-1391.27 1445.54,-1537.27 1445.54,-1537.27 1445.54,-1537.27 1445.54,-1730.82 1224.12,-1884.28 1132.41,-1937.13"/>
<polygon fill="black" stroke="black" points="1130.41,-1934.24 1123.44,-1942.21 1133.86,-1940.33 1130.41,-1934.24"/>
</g>
<!-- 39&#45;&gt;67 -->
<g id="edge97" class="edge">
<title>39&#45;&gt;67</title>
<path fill="none" stroke="black" d="M1575.72,-1029.85C1558.96,-1039.78 1535.84,-1053.33 1516.54,-1067.18 1374.37,-1169.21 1221.42,-1313.66 1160.03,-1368.74"/>
<polygon fill="black" stroke="black" points="1157.47,-1366.34 1152.33,-1375.61 1162.12,-1371.57 1157.47,-1366.34"/>
</g>
<!-- 39&#45;&gt;11 -->
<g id="edge98" class="edge">
<title>39&#45;&gt;11</title>
<path fill="none" stroke="black" d="M1631.84,-1027.59C1651.81,-1037.43 1676.63,-1051.73 1696.54,-1067.18 1725.18,-1089.42 1753.97,-1119.51 1771.04,-1140.57"/>
<polygon fill="black" stroke="black" points="1768.49,-1142.99 1777.4,-1148.72 1774.01,-1138.68 1768.49,-1142.99"/>
</g>
<!-- 39&#45;&gt;26 -->
<g id="edge99" class="edge">
<title>39&#45;&gt;26</title>
<path fill="none" stroke="black" d="M1639.48,-1001.16C1711.29,-983.44 1857.46,-948.75 1937.41,-930.45"/>
<polygon fill="black" stroke="black" points="1938.33,-933.83 1947.3,-928.2 1936.77,-927.01 1938.33,-933.83"/>
</g>
<!-- 13 -->
<g id="node35" class="node">
<title>13</title>
<ellipse fill="none" stroke="black" cx="1144.54" cy="-18" rx="33.29" ry="18"/>
<text text-anchor="middle" x="1144.54" y="-14.3" font-family="Times New Roman,serif" font-size="14.00">node8</text>
</g>
<!-- 40 -->
<g id="node36" class="node">
<title>40</title>
<ellipse fill="none" stroke="black" cx="729.54" cy="-90" rx="37.89" ry="18"/>
<text text-anchor="middle" x="729.54" y="-86.3" font-family="Times New Roman,serif" font-size="14.00">node11</text>
</g>
<!-- 13&#45;&gt;40 -->
<g id="edge32" class="edge">
<title>13&#45;&gt;40</title>
<path fill="none" stroke="black" d="M1111.92,-22.39C1048.99,-28.8 907.42,-44.57 790.54,-72 784.35,-73.45 777.84,-75.31 771.45,-77.26"/>
<polygon fill="black" stroke="black" points="770.05,-74.03 761.55,-80.35 772.13,-80.71 770.05,-74.03"/>
</g>
<!-- 13&#45;&gt;27 -->
<g id="edge33" class="edge">
<title>13&#45;&gt;27</title>
<path fill="none" stroke="black" d="M1121.68,-31.36C1054.9,-67.44 859.98,-172.78 781.67,-215.1"/>
<polygon fill="black" stroke="black" points="779.85,-212.1 772.72,-219.94 783.18,-218.26 779.85,-212.1"/>
</g>
<!-- 40&#45;&gt;13 -->
<g id="edge102" class="edge">
<title>40&#45;&gt;13</title>
<path fill="none" stroke="black" d="M755.39,-76.74C761,-74.98 766.9,-73.32 772.54,-72 889.61,-44.53 1031.45,-28.75 1101.45,-22.36"/>
<polygon fill="black" stroke="black" points="1102,-25.82 1111.65,-21.45 1101.38,-18.85 1102,-25.82"/>
</g>
<!-- 40&#45;&gt;66 -->
<g id="edge101" class="edge">
<title>40&#45;&gt;66</title>
<path fill="none" stroke="black" d="M704.99,-104C700.88,-105.44 696.63,-106.81 692.54,-108 472.54,-171.87 404.25,-138.87 188.54,-216 173.01,-221.55 155.54,-216.5 155.54,-233 155.54,-678.79 155.54,-678.79 155.54,-678.79 155.54,-813.25 279.08,-938.02 332.11,-988.53"/>
<polygon fill="black" stroke="black" points="329.73,-991.1 339.4,-995.43 334.54,-986.01 329.73,-991.1"/>
</g>
<!-- 28 -->
<g id="node51" class="node">
<title>28</title>
<path fill="none" stroke="red" d="M759.04,-176.73C759.04,-178.53 745.82,-180 729.54,-180 713.26,-180 700.04,-178.53 700.04,-176.73 700.04,-176.73 700.04,-147.27 700.04,-147.27 700.04,-145.47 713.26,-144 729.54,-144 745.82,-144 759.04,-145.47 759.04,-147.27 759.04,-147.27 759.04,-176.73 759.04,-176.73"/>
<path fill="none" stroke="red" d="M759.04,-176.73C759.04,-174.92 745.82,-173.45 729.54,-173.45 713.26,-173.45 700.04,-174.92 700.04,-176.73"/>
<text text-anchor="middle" x="729.54" y="-158.3" font-family="Times New Roman,serif" font-size="14.00">device7</text>
</g>
<!-- 40&#45;&gt;28 -->
<g id="edge100" class="edge">
<title>40&#45;&gt;28</title>
<path fill="none" stroke="black" d="M735.44,-108.1C736.24,-115.79 736.48,-125.05 736.15,-133.67"/>
<polygon fill="black" stroke="black" points="732.65,-133.48 735.46,-143.7 739.63,-133.96 732.65,-133.48"/>
</g>
<!-- 51 -->
<g id="node53" class="node">
<title>51</title>
<ellipse fill="none" stroke="black" cx="729.54" cy="-18" rx="95.58" ry="18"/>
<text text-anchor="middle" x="729.54" y="-14.3" font-family="Times New Roman,serif" font-size="14.00">executionEnvironment8</text>
</g>
<!-- 40&#45;&gt;51 -->
<g id="edge103" class="edge">
<title>40&#45;&gt;51</title>
<path fill="none" stroke="black" d="M723.66,-72.05C722.85,-64.35 722.6,-55.03 722.94,-46.36"/>
<polygon fill="black" stroke="black" points="726.44,-46.49 723.63,-36.28 719.45,-46.01 726.44,-46.49"/>
</g>
<!-- 27&#45;&gt;60 -->
<g id="edge65" class="edge">
<title>27&#45;&gt;60</title>
<path fill="none" stroke="black" d="M761.53,-251.24C775.91,-277.23 795.54,-330.04 795.54,-377 795.54,-822.79 795.54,-822.79 795.54,-822.79 795.54,-1084.79 951.54,-1129.27 951.54,-1391.27 951.54,-1609.27 951.54,-1609.27 951.54,-1609.27 951.54,-1660.31 996.8,-1703.62 1027.76,-1728.54"/>
<polygon fill="black" stroke="black" points="1025.65,-1731.34 1035.67,-1734.78 1029.98,-1725.84 1025.65,-1731.34"/>
</g>
<!-- 27&#45;&gt;24 -->
<g id="edge66" class="edge">
<title>27&#45;&gt;24</title>
<path fill="none" stroke="black" d="M744.83,-252.34C734.54,-278.53 711.54,-330.1 711.54,-377 711.54,-492.9 711.54,-492.9 711.54,-492.9 711.54,-691.63 429.45,-557.72 333.54,-731.79 322.46,-751.9 332.84,-776.69 343,-795"/>
<polygon fill="black" stroke="black" points="339.98,-796.78 348.02,-803.67 346.04,-793.27 339.98,-796.78"/>
</g>
<!-- 27&#45;&gt;28 -->
<g id="edge67" class="edge">
<title>27&#45;&gt;28</title>
<path fill="none" stroke="black" d="M738.2,-216.41C735.24,-208.62 732.41,-199.14 730.36,-190.33"/>
<polygon fill="black" stroke="black" points="733.77,-189.55 728.35,-180.45 726.91,-190.94 733.77,-189.55"/>
</g>
<!-- 14&#45;&gt;68 -->
<g id="edge34" class="edge">
<title>14&#45;&gt;68</title>
<path fill="none" stroke="black" d="M2059.96,-252.12C2054.57,-260.76 2047.02,-271.38 2039.6,-280.84"/>
<polygon fill="black" stroke="black" points="2036.75,-278.79 2033.17,-288.76 2042.19,-283.2 2036.75,-278.79"/>
</g>
<!-- 14&#45;&gt;26 -->
<g id="edge35" class="edge">
<title>14&#45;&gt;26</title>
<path fill="none" stroke="black" d="M2079.6,-251.52C2083.92,-261.89 2087.58,-275.59 2089.54,-288 2097.05,-335.44 2096.71,-348.07 2093.54,-396 2080.4,-594.54 2087.47,-647.98 2034.54,-839.79 2029.67,-857.44 2021.57,-876.35 2013.53,-890.97"/>
<polygon fill="black" stroke="black" points="2010.33,-889.51 2008.3,-899.91 2016.37,-893.05 2010.33,-889.51"/>
</g>
<!-- 26&#45;&gt;53 -->
<g id="edge61" class="edge">
<title>26&#45;&gt;53</title>
<path fill="none" stroke="black" d="M1977.21,-899.74C1967.22,-885.66 1954.77,-865.28 1946.1,-849.04"/>
<polygon fill="black" stroke="black" points="1949.15,-847.33 1941.48,-840.03 1942.93,-850.53 1949.15,-847.33"/>
</g>
<!-- 26&#45;&gt;21 -->
<g id="edge62" class="edge">
<title>26&#45;&gt;21</title>
<path fill="none" stroke="black" d="M1990.85,-899.46C1993.18,-877.2 2000.03,-837.11 1992.54,-803.79 1955.99,-641.16 1847.96,-468.59 1809.75,-404.71"/>
<polygon fill="black" stroke="black" points="1812.55,-402.56 1804.44,-395.74 1806.53,-406.13 1812.55,-402.56"/>
</g>
<!-- 26&#45;&gt;39 -->
<g id="edge63" class="edge">
<title>26&#45;&gt;39</title>
<path fill="none" stroke="black" d="M1950.75,-929.47C1878.95,-947.2 1732.49,-981.95 1652.52,-1000.25"/>
<polygon fill="black" stroke="black" points="1651.6,-996.87 1642.63,-1002.51 1653.16,-1003.7 1651.6,-996.87"/>
</g>
<!-- 26&#45;&gt;14 -->
<g id="edge64" class="edge">
<title>26&#45;&gt;14</title>
<path fill="none" stroke="black" d="M1994.44,-899.31C2000.15,-884.09 2010.68,-861.03 2016.54,-839.79 2069.47,-647.98 2062.4,-594.54 2075.54,-396 2078.71,-348.07 2079.05,-335.44 2071.54,-288 2070.18,-279.41 2068.01,-270.19 2066.19,-261.9"/>
<polygon fill="black" stroke="black" points="2069.59,-261.09 2064.15,-252 2062.74,-262.5 2069.59,-261.09"/>
</g>
<!-- 17 -->
<g id="node40" class="node">
<title>17</title>
<ellipse fill="none" stroke="black" cx="1209.54" cy="-1957.96" rx="37.89" ry="18"/>
<text text-anchor="middle" x="1209.54" y="-1954.26" font-family="Times New Roman,serif" font-size="14.00">model7</text>
</g>
<!-- 17&#45;&gt;40 -->
<g id="edge38" class="edge">
<title>17&#45;&gt;40</title>
<path fill="none" stroke="black" d="M1213.49,-1939.9C1221.21,-1905.04 1237.54,-1823.05 1237.54,-1753.27 1237.54,-1753.27 1237.54,-1753.27 1237.54,-1391.27 1237.54,-1245.72 1229.65,-1201.98 1284.54,-1067.18 1351.59,-902.53 1546.33,-904.1 1502.54,-731.79 1479.38,-640.66 1368.91,-424.55 1300.54,-360 1138.99,-207.47 875.18,-127.82 772.41,-101.28"/>
<polygon fill="black" stroke="black" points="773.25,-97.88 762.69,-98.8 771.52,-104.66 773.25,-97.88"/>
</g>
<!-- 17&#45;&gt;47 -->
<g id="edge39" class="edge">
<title>17&#45;&gt;47</title>
<path fill="none" stroke="black" d="M1188.13,-1942.94C1161.5,-1925.5 1115.88,-1895.63 1085.72,-1875.87"/>
<polygon fill="black" stroke="black" points="1087.55,-1872.89 1077.27,-1870.34 1083.72,-1878.75 1087.55,-1872.89"/>
</g>
<!-- 47&#45;&gt;23 -->
<g id="edge113" class="edge">
<title>47&#45;&gt;23</title>
<path fill="none" stroke="black" d="M1066.92,-1872.63C1074.55,-1888.2 1083.74,-1911.79 1089.46,-1930.07"/>
<polygon fill="black" stroke="black" points="1086.15,-1931.23 1092.31,-1939.85 1092.87,-1929.27 1086.15,-1931.23"/>
</g>
<!-- 47&#45;&gt;60 -->
<g id="edge114" class="edge">
<title>47&#45;&gt;60</title>
<path fill="none" stroke="black" d="M1050.32,-1837.01C1048.63,-1821.58 1048.34,-1798.61 1049.46,-1780.63"/>
<polygon fill="black" stroke="black" points="1052.97,-1780.71 1050.32,-1770.46 1045.99,-1780.13 1052.97,-1780.71"/>
</g>
<!-- 18 -->
<g id="node42" class="node">
<title>18</title>
<ellipse fill="none" stroke="black" cx="467.54" cy="-917.49" rx="95.58" ry="18"/>
<text text-anchor="middle" x="467.54" y="-913.79" font-family="Times New Roman,serif" font-size="14.00">executionEnvironment6</text>
</g>
<!-- 18&#45;&gt;22 -->
<g id="edge40" class="edge">
<title>18&#45;&gt;22</title>
<path fill="none" stroke="black" d="M481.89,-935.42C522.36,-990.41 641.11,-1166.22 780.54,-1266.27 814.54,-1290.66 835.36,-1275.52 867.54,-1302.27 940.92,-1363.25 926.73,-1406.36 984.54,-1482.27 991.77,-1491.76 1000.27,-1501.66 1007.55,-1510.31"/>
<polygon fill="black" stroke="black" points="1004.99,-1512.71 1014.07,-1518.16 1010.37,-1508.23 1004.99,-1512.71"/>
</g>
<!-- 18&#45;&gt;66 -->
<g id="edge41" class="edge">
<title>18&#45;&gt;66</title>
<path fill="none" stroke="black" d="M452.56,-935.49C436.2,-950.57 409.9,-972.73 388.73,-989.35"/>
<polygon fill="black" stroke="black" points="386.36,-986.76 380.6,-995.65 390.65,-992.29 386.36,-986.76"/>
</g>
<!-- 22&#45;&gt;49 -->
<g id="edge46" class="edge">
<title>22&#45;&gt;49</title>
<path fill="none" stroke="black" d="M1032.18,-1553.89C1034.82,-1561.71 1037.25,-1571.23 1038.92,-1580.06"/>
<polygon fill="black" stroke="black" points="1035.47,-1580.64 1040.5,-1589.96 1042.38,-1579.54 1035.47,-1580.64"/>
</g>
<!-- 22&#45;&gt;18 -->
<g id="edge47" class="edge">
<title>22&#45;&gt;18</title>
<path fill="none" stroke="black" d="M1000.75,-1520.47C989.68,-1510.11 976.82,-1495.77 966.54,-1482.27 908.73,-1406.36 922.92,-1363.25 849.54,-1302.27 817.36,-1275.52 796.54,-1290.66 762.54,-1266.27 630.23,-1171.32 516.54,-1008.16 479.68,-944.76"/>
<polygon fill="black" stroke="black" points="482.58,-942.79 474.61,-935.81 476.49,-946.23 482.58,-942.79"/>
</g>
<!-- 22&#45;&gt;36 -->
<g id="edge48" class="edge">
<title>22&#45;&gt;36</title>
<path fill="none" stroke="black" d="M1037.43,-1519.38C1048.62,-1509.94 1064.18,-1497.82 1078.38,-1487.45"/>
<polygon fill="black" stroke="black" points="1080.46,-1490.26 1086.53,-1481.57 1076.37,-1484.58 1080.46,-1490.26"/>
</g>
<!-- 66&#45;&gt;70 -->
<g id="edge167" class="edge">
<title>66&#45;&gt;70</title>
<path fill="none" stroke="black" d="M351.9,-1031.3C336.25,-1077 283.54,-1206.1 283.54,-1319.27 283.54,-1856.11 283.54,-1856.11 283.54,-1856.11 283.54,-1920.77 318.69,-1990.32 337.2,-2026.85"/>
<polygon fill="black" stroke="black" points="334.1,-2028.47 341.73,-2035.83 340.35,-2025.32 334.1,-2028.47"/>
</g>
<!-- 66&#45;&gt;42 -->
<g id="edge169" class="edge">
<title>66&#45;&gt;42</title>
<path fill="none" stroke="black" d="M365.03,-1031.44C375.33,-1057.58 390.09,-1107.44 396.96,-1138.5"/>
<polygon fill="black" stroke="black" points="393.6,-1139.54 399.04,-1148.64 400.46,-1138.14 393.6,-1139.54"/>
</g>
<!-- 66&#45;&gt;40 -->
<g id="edge166" class="edge">
<title>66&#45;&gt;40</title>
<path fill="none" stroke="black" d="M331.26,-995.76C274.19,-950.9 137.54,-820.2 137.54,-678.79 137.54,-678.79 137.54,-678.79 137.54,-233 137.54,-216.5 155.01,-221.55 170.54,-216 386.25,-138.87 454.54,-171.87 674.54,-108 679.1,-106.68 683.87,-105.12 688.61,-103.5"/>
<polygon fill="black" stroke="black" points="689.98,-106.73 698.27,-100.13 687.68,-100.12 689.98,-106.73"/>
</g>
<!-- 66&#45;&gt;18 -->
<g id="edge170" class="edge">
<title>66&#45;&gt;18</title>
<path fill="none" stroke="black" d="M370.72,-995C387.13,-979.89 413.38,-957.78 434.5,-941.21"/>
<polygon fill="black" stroke="black" points="436.84,-943.83 442.6,-934.93 432.55,-938.29 436.84,-943.83"/>
</g>
<!-- 66&#45;&gt;24 -->
<g id="edge168" class="edge">
<title>66&#45;&gt;24</title>
<path fill="none" stroke="black" d="M351.46,-995.04C348.2,-962.1 347.93,-889.69 350.63,-850.05"/>
<polygon fill="black" stroke="black" points="354.13,-850.28 351.45,-840.03 347.15,-849.71 354.13,-850.28"/>
</g>
<!-- 19 -->
<g id="node45" class="node">
<title>19</title>
<path fill="none" stroke="black" d="M1199.04,-764.52C1199.04,-766.32 1166.1,-767.79 1125.54,-767.79 1084.99,-767.79 1052.04,-766.32 1052.04,-764.52 1052.04,-764.52 1052.04,-735.06 1052.04,-735.06 1052.04,-733.26 1084.99,-731.79 1125.54,-731.79 1166.1,-731.79 1199.04,-733.26 1199.04,-735.06 1199.04,-735.06 1199.04,-764.52 1199.04,-764.52"/>
<path fill="none" stroke="black" d="M1199.04,-764.52C1199.04,-762.71 1166.1,-761.24 1125.54,-761.24 1084.99,-761.24 1052.04,-762.71 1052.04,-764.52"/>
<text text-anchor="middle" x="1125.54" y="-746.09" font-family="Times New Roman,serif" font-size="14.00">executionEnvironment9</text>
</g>
<!-- 36&#45;&gt;67 -->
<g id="edge89" class="edge">
<title>36&#45;&gt;67</title>
<path fill="none" stroke="black" d="M1112.32,-1445.96C1113.67,-1437.96 1116.08,-1428.29 1118.89,-1419.42"/>
<polygon fill="black" stroke="black" points="1122.22,-1420.48 1122.19,-1409.89 1115.61,-1418.19 1122.22,-1420.48"/>
</g>
<!-- 36&#45;&gt;22 -->
<g id="edge88" class="edge">
<title>36&#45;&gt;22</title>
<path fill="none" stroke="black" d="M1097.49,-1482.13C1085.61,-1492.09 1069.24,-1504.76 1054.76,-1515.23"/>
<polygon fill="black" stroke="black" points="1052.62,-1512.45 1046.51,-1521.1 1056.68,-1518.16 1052.62,-1512.45"/>
</g>
<!-- 24&#45;&gt;27 -->
<g id="edge53" class="edge">
<title>24&#45;&gt;27</title>
<path fill="none" stroke="black" d="M335.05,-804.01C319.16,-785.57 302.51,-755.44 315.54,-731.79 411.45,-557.72 693.54,-691.63 693.54,-492.9 693.54,-492.9 693.54,-492.9 693.54,-377 693.54,-334.16 712.72,-287.44 728.74,-259.71"/>
<polygon fill="black" stroke="black" points="731.79,-261.42 734.01,-251.06 725.82,-257.77 731.79,-261.42"/>
</g>
<!-- 24&#45;&gt;66 -->
<g id="edge55" class="edge">
<title>24&#45;&gt;66</title>
<path fill="none" stroke="black" d="M359.63,-840.03C362.88,-873.05 363.15,-945.47 360.44,-985.04"/>
<polygon fill="black" stroke="black" points="356.95,-984.79 359.62,-995.04 363.93,-985.36 356.95,-984.79"/>
</g>
<!-- 72 -->
<g id="node48" class="node">
<title>72</title>
<ellipse fill="none" stroke="black" cx="221.54" cy="-749.79" rx="38.19" ry="18"/>
<text text-anchor="middle" x="221.54" y="-746.09" font-family="Times New Roman,serif" font-size="14.00">device5</text>
</g>
<!-- 24&#45;&gt;72 -->
<g id="edge54" class="edge">
<title>24&#45;&gt;72</title>
<path fill="none" stroke="black" d="M319.73,-805.08C298.43,-794.59 271.81,-780.75 251.6,-769.66"/>
<polygon fill="black" stroke="black" points="253.25,-766.58 242.81,-764.79 249.86,-772.7 253.25,-766.58"/>
</g>
<!-- 50 -->
<g id="node49" class="node">
<title>50</title>
<ellipse fill="none" stroke="black" cx="433.54" cy="-749.79" rx="100.18" ry="18"/>
<text text-anchor="middle" x="433.54" y="-746.09" font-family="Times New Roman,serif" font-size="14.00">executionEnvironment10</text>
</g>
<!-- 24&#45;&gt;50 -->
<g id="edge56" class="edge">
<title>24&#45;&gt;50</title>
<path fill="none" stroke="black" d="M368.54,-803.85C377.63,-794.84 389.94,-783.63 401.47,-773.84"/>
<polygon fill="black" stroke="black" points="403.83,-776.43 409.27,-767.34 399.35,-771.05 403.83,-776.43"/>
</g>
<!-- 72&#45;&gt;24 -->
<g id="edge189" class="edge">
<title>72&#45;&gt;24</title>
<path fill="none" stroke="black" d="M249.16,-762.51C270.06,-772.58 298.72,-787.36 321.09,-799.52"/>
<polygon fill="black" stroke="black" points="319.49,-802.64 329.94,-804.38 322.86,-796.5 319.49,-802.64"/>
</g>
<!-- 50&#45;&gt;24 -->
<g id="edge121" class="edge">
<title>50&#45;&gt;24</title>
<path fill="none" stroke="black" d="M420.53,-767.75C411.46,-776.74 399.17,-787.93 387.66,-797.7"/>
<polygon fill="black" stroke="black" points="385.3,-795.11 379.87,-804.2 389.79,-800.48 385.3,-795.11"/>
</g>
<!-- 25 -->
<g id="node50" class="node">
<title>25</title>
<ellipse fill="none" stroke="red" cx="668.54" cy="-1855.11" rx="33.29" ry="18"/>
<text text-anchor="middle" x="668.54" y="-1851.41" font-family="Times New Roman,serif" font-size="14.00">node3</text>
</g>
<!-- 25&#45;&gt;1 -->
<g id="edge60" class="edge">
<title>25&#45;&gt;1</title>
<path fill="none" stroke="black" d="M656.02,-1838.08C647.29,-1827.81 634.85,-1814.84 621.54,-1806.27 620.33,-1805.49 555.57,-1781.93 513.01,-1766.49"/>
<polygon fill="black" stroke="black" points="514.11,-1763.16 503.51,-1763.04 511.72,-1769.74 514.11,-1763.16"/>
</g>
<!-- 25&#45;&gt;49 -->
<g id="edge57" class="edge">
<title>25&#45;&gt;49</title>
<path fill="none" stroke="black" d="M688.7,-1840.77C750.16,-1800.1 935.45,-1677.48 1008.49,-1629.16"/>
<polygon fill="black" stroke="black" points="1010.81,-1631.81 1017.22,-1623.37 1006.95,-1625.97 1010.81,-1631.81"/>
</g>
<!-- 25&#45;&gt;60 -->
<g id="edge58" class="edge">
<title>25&#45;&gt;60</title>
<path fill="none" stroke="black" d="M692.62,-1842.63C716.28,-1831.77 753.67,-1815.78 787.54,-1806.27 881.24,-1779.96 909.02,-1793.45 1003.54,-1770.27 1008.54,-1769.04 1013.76,-1767.57 1018.88,-1766.01"/>
<polygon fill="black" stroke="black" points="1020.03,-1769.32 1028.51,-1762.96 1017.92,-1762.65 1020.03,-1769.32"/>
</g>
<!-- 25&#45;&gt;72 -->
<g id="edge59" class="edge">
<title>25&#45;&gt;72</title>
<path fill="none" stroke="black" d="M653.84,-1838.91C644.64,-1829.44 632.48,-1817.06 621.54,-1806.27 576.45,-1761.78 415.54,-1672.61 415.54,-1609.27 415.54,-1609.27 415.54,-1609.27 415.54,-1463.27 415.54,-1461.66 250.91,-1032.75 250.54,-1031.18 228.82,-940.04 223.37,-828.4 222,-777.9"/>
<polygon fill="black" stroke="black" points="225.5,-777.71 221.76,-767.8 218.5,-777.88 225.5,-777.71"/>
</g>
<!-- 28&#45;&gt;40 -->
<g id="edge68" class="edge">
<title>28&#45;&gt;40</title>
<path fill="none" stroke="black" d="M723.63,-143.7C722.83,-135.98 722.6,-126.71 722.95,-118.11"/>
<polygon fill="black" stroke="black" points="726.44,-118.32 723.65,-108.1 719.46,-117.84 726.44,-118.32"/>
</g>
<!-- 28&#45;&gt;27 -->
<g id="edge69" class="edge">
<title>28&#45;&gt;27</title>
<path fill="none" stroke="black" d="M740.08,-180.1C742.97,-187.79 745.72,-197.05 747.73,-205.67"/>
<polygon fill="black" stroke="black" points="744.34,-206.59 749.76,-215.7 751.2,-205.2 744.34,-206.59"/>
</g>
<!-- 29 -->
<g id="node52" class="node">
<title>29</title>
<ellipse fill="none" stroke="red" cx="578.54" cy="-90" rx="95.58" ry="18"/>
<text text-anchor="middle" x="578.54" y="-86.3" font-family="Times New Roman,serif" font-size="14.00">executionEnvironment2</text>
</g>
<!-- 29&#45;&gt;51 -->
<g id="edge70" class="edge">
<title>29&#45;&gt;51</title>
<path fill="none" stroke="black" d="M612.81,-73.12C634.53,-63.05 662.81,-49.93 686.1,-39.14"/>
<polygon fill="black" stroke="black" points="687.81,-42.2 695.41,-34.82 684.87,-35.85 687.81,-42.2"/>
</g>
<!-- 51&#45;&gt;40 -->
<g id="edge122" class="edge">
<title>51&#45;&gt;40</title>
<path fill="none" stroke="black" d="M735.45,-36.28C736.26,-44.03 736.48,-53.36 736.13,-62.01"/>
<polygon fill="black" stroke="black" points="732.64,-61.83 735.42,-72.05 739.62,-62.33 732.64,-61.83"/>
</g>
<!-- 31 -->
<g id="node54" class="node">
<title>31</title>
<ellipse fill="none" stroke="red" cx="1826.54" cy="-605.79" rx="40.09" ry="18"/>
<text text-anchor="middle" x="1826.54" y="-602.09" font-family="Times New Roman,serif" font-size="14.00">artifact6</text>
</g>
<!-- 31&#45;&gt;21 -->
<g id="edge74" class="edge">
<title>31&#45;&gt;21</title>
<path fill="none" stroke="black" d="M1824.24,-587.45C1819.04,-548.36 1806.39,-453.14 1800.15,-406.15"/>
<polygon fill="black" stroke="black" points="1803.6,-405.54 1798.81,-396.09 1796.66,-406.47 1803.6,-405.54"/>
</g>
<!-- 31&#45;&gt;54 -->
<g id="edge75" class="edge">
<title>31&#45;&gt;54</title>
<path fill="none" stroke="black" d="M1788.97,-599.05C1746.84,-591.73 1677.16,-576.9 1621.54,-551.79 1611,-547.03 1600.34,-541.01 1590.27,-534.66"/>
<polygon fill="black" stroke="black" points="1591.88,-531.53 1581.59,-529 1588.06,-537.39 1591.88,-531.53"/>
</g>
<!-- 31&#45;&gt;13 -->
<g id="edge76" class="edge">
<title>31&#45;&gt;13</title>
<path fill="none" stroke="black" d="M1831.43,-587.68C1841.69,-550.2 1864.54,-457.91 1864.54,-379 1864.54,-379 1864.54,-379 1864.54,-161 1864.54,-22.29 1343.64,-16.81 1187.97,-18.27"/>
<polygon fill="black" stroke="black" points="1187.79,-14.77 1177.82,-18.38 1187.86,-21.77 1187.79,-14.77"/>
</g>
<!-- 32 -->
<g id="node55" class="node">
<title>32</title>
<ellipse fill="none" stroke="red" cx="1214.54" cy="-821.79" rx="33.29" ry="18"/>
<text text-anchor="middle" x="1214.54" y="-818.09" font-family="Times New Roman,serif" font-size="14.00">node1</text>
</g>
<!-- 32&#45;&gt;12 -->
<g id="edge78" class="edge">
<title>32&#45;&gt;12</title>
<path fill="none" stroke="black" d="M1244.97,-814.19C1285.16,-805.18 1357.92,-787.84 1418.54,-767.79 1420.96,-766.99 1423.44,-766.12 1425.92,-765.21"/>
<polygon fill="black" stroke="black" points="1427.33,-768.42 1435.42,-761.58 1424.83,-761.88 1427.33,-768.42"/>
</g>
<!-- 32&#45;&gt;10 -->
<g id="edge79" class="edge">
<title>32&#45;&gt;10</title>
<path fill="none" stroke="black" d="M1217.11,-803.79C1220.9,-777.19 1227.54,-724.09 1227.54,-678.79 1227.54,-678.79 1227.54,-678.79 1227.54,-604.79 1227.54,-533.21 1227.54,-448.86 1227.54,-406.38"/>
<polygon fill="black" stroke="black" points="1231.04,-406.28 1227.54,-396.28 1224.04,-406.28 1231.04,-406.28"/>
</g>
<!-- 32&#45;&gt;13 -->
<g id="edge80" class="edge">
<title>32&#45;&gt;13</title>
<path fill="none" stroke="black" d="M1247.49,-819.81C1316.05,-816.99 1470.37,-806.42 1502.54,-767.79 1512.78,-755.5 1504.16,-747.71 1502.54,-731.79 1494.28,-650.54 1478.24,-632.47 1465.54,-551.79 1453.53,-475.47 1446.54,-456.26 1446.54,-379 1446.54,-379 1446.54,-379 1446.54,-161 1446.54,-48.07 1271.47,-24.79 1187.92,-20.11"/>
<polygon fill="black" stroke="black" points="1187.89,-16.6 1177.72,-19.6 1187.54,-23.59 1187.89,-16.6"/>
</g>
<!-- 32&#45;&gt;19 -->
<g id="edge77" class="edge">
<title>32&#45;&gt;19</title>
<path fill="none" stroke="black" d="M1196.53,-806.62C1184.75,-797.36 1169.08,-785.04 1155.46,-774.32"/>
<polygon fill="black" stroke="black" points="1157.32,-771.33 1147.3,-767.9 1153,-776.84 1157.32,-771.33"/>
</g>
<!-- 65 -->
<g id="node56" class="node">
<title>65</title>
<ellipse fill="none" stroke="black" cx="716.54" cy="-749.79" rx="33.29" ry="18"/>
<text text-anchor="middle" x="716.54" y="-746.09" font-family="Times New Roman,serif" font-size="14.00">node6</text>
</g>
<!-- 32&#45;&gt;65 -->
<g id="edge81" class="edge">
<title>32&#45;&gt;65</title>
<path fill="none" stroke="black" d="M1182.63,-816.3C1095.85,-804.11 855.53,-770.33 758.24,-756.65"/>
<polygon fill="black" stroke="black" points="758.58,-753.16 748.19,-755.24 757.6,-760.1 758.58,-753.16"/>
</g>
<!-- 33&#45;&gt;43 -->
<g id="edge83" class="edge">
<title>33&#45;&gt;43</title>
<path fill="none" stroke="black" d="M1688.45,-324.28C1689.26,-332.03 1689.48,-341.36 1689.13,-350.01"/>
<polygon fill="black" stroke="black" points="1685.64,-349.83 1688.42,-360.05 1692.62,-350.33 1685.64,-349.83"/>
</g>
<!-- 33&#45;&gt;27 -->
<g id="edge82" class="edge">
<title>33&#45;&gt;27</title>
<path fill="none" stroke="black" d="M1637.49,-301.62C1480.34,-289.85 957.19,-250.64 796.14,-238.57"/>
<polygon fill="black" stroke="black" points="796.3,-235.07 786.06,-237.81 795.78,-242.05 796.3,-235.07"/>
</g>
<!-- 33&#45;&gt;33 -->
<g id="edge84" class="edge">
<title>33&#45;&gt;33</title>
<path fill="none" stroke="black" d="M1714.56,-318.99C1731.41,-321.09 1746.69,-316.76 1746.69,-306 1746.69,-297.51 1737.18,-293.03 1724.88,-292.54"/>
<polygon fill="black" stroke="black" points="1724.39,-289.06 1714.56,-293.01 1724.71,-296.06 1724.39,-289.06"/>
</g>
<!-- 34 -->
<g id="node58" class="node">
<title>34</title>
<ellipse fill="none" stroke="black" cx="1844.54" cy="-1320.27" rx="60.39" ry="18"/>
<text text-anchor="middle" x="1844.54" y="-1316.57" font-family="Times New Roman,serif" font-size="14.00">component10</text>
</g>
<!-- 37 -->
<g id="node59" class="node">
<title>37</title>
<ellipse fill="none" stroke="red" cx="1609.54" cy="-1392.27" rx="40.09" ry="18"/>
<text text-anchor="middle" x="1609.54" y="-1388.57" font-family="Times New Roman,serif" font-size="14.00">artifact4</text>
</g>
<!-- 37&#45;&gt;35 -->
<g id="edge90" class="edge">
<title>37&#45;&gt;35</title>
<path fill="none" stroke="black" d="M1598.17,-1374.68C1592.45,-1366.34 1585.4,-1356.06 1579.02,-1346.75"/>
<polygon fill="black" stroke="black" points="1581.71,-1344.49 1573.17,-1338.22 1575.94,-1348.45 1581.71,-1344.49"/>
</g>
<!-- 37&#45;&gt;10 -->
<g id="edge91" class="edge">
<title>37&#45;&gt;10</title>
<path fill="none" stroke="black" d="M1573.76,-1383.9C1549.07,-1376.75 1518.01,-1363.19 1502.54,-1338.27 1494.1,-1324.67 1501.87,-1318.25 1502.54,-1302.27 1508.99,-1149.38 1525.09,-1112.07 1531.54,-959.18 1533.1,-922.15 1535.22,-912.67 1531.54,-875.79 1525.07,-810.83 1530.58,-790.75 1502.54,-731.79 1475.82,-675.62 1452.14,-672.56 1413.54,-623.79 1350.66,-544.34 1278.75,-448.11 1245.79,-403.68"/>
<polygon fill="black" stroke="black" points="1248.49,-401.45 1239.73,-395.5 1242.87,-405.62 1248.49,-401.45"/>
</g>
<!-- 37&#45;&gt;13 -->
<g id="edge93" class="edge">
<title>37&#45;&gt;13</title>
<path fill="none" stroke="black" d="M1617.59,-1374.26C1628.17,-1353.84 1648.71,-1320.14 1676.54,-1302.27 1739.34,-1261.95 1775.17,-1302.26 1840.54,-1266.27 2008.78,-1173.64 2024.74,-1109.28 2144.54,-959.18 2313.13,-747.96 2326.54,-649.25 2326.54,-379 2326.54,-379 2326.54,-379 2326.54,-161 2326.54,-43.94 1400.85,-22.86 1187.87,-19.56"/>
<polygon fill="black" stroke="black" points="1187.75,-16.06 1177.7,-19.41 1187.65,-23.05 1187.75,-16.06"/>
</g>
<!-- 62 -->
<g id="node60" class="node">
<title>62</title>
<ellipse fill="none" stroke="black" cx="1725.54" cy="-1320.27" rx="40.09" ry="18"/>
<text text-anchor="middle" x="1725.54" y="-1316.57" font-family="Times New Roman,serif" font-size="14.00">artifact3</text>
</g>
<!-- 37&#45;&gt;62 -->
<g id="edge92" class="edge">
<title>37&#45;&gt;62</title>
<path fill="none" stroke="black" d="M1632.46,-1377.44C1649.9,-1366.91 1674.12,-1352.29 1693.49,-1340.61"/>
<polygon fill="black" stroke="black" points="1695.52,-1343.47 1702.27,-1335.31 1691.9,-1337.48 1695.52,-1343.47"/>
</g>
<!-- 41 -->
<g id="node61" class="node">
<title>41</title>
<ellipse fill="none" stroke="black" cx="2179.54" cy="-1320.27" rx="42.79" ry="18"/>
<text text-anchor="middle" x="2179.54" y="-1316.57" font-family="Times New Roman,serif" font-size="14.00">device10</text>
</g>
<!-- 44 -->
<g id="node62" class="node">
<title>44</title>
<path fill="none" stroke="red" d="M585.04,-1972.69C585.04,-1974.49 570.47,-1975.96 552.54,-1975.96 534.61,-1975.96 520.04,-1974.49 520.04,-1972.69 520.04,-1972.69 520.04,-1943.23 520.04,-1943.23 520.04,-1941.43 534.61,-1939.96 552.54,-1939.96 570.47,-1939.96 585.04,-1941.43 585.04,-1943.23 585.04,-1943.23 585.04,-1972.69 585.04,-1972.69"/>
<path fill="none" stroke="red" d="M585.04,-1972.69C585.04,-1970.88 570.47,-1969.41 552.54,-1969.41 534.61,-1969.41 520.04,-1970.88 520.04,-1972.69"/>
<text text-anchor="middle" x="552.54" y="-1954.26" font-family="Times New Roman,serif" font-size="14.00">model10</text>
</g>
<!-- 44&#45;&gt;45 -->
<g id="edge110" class="edge">
<title>44&#45;&gt;45</title>
<path fill="none" stroke="black" d="M548.81,-1939.85C547.14,-1932.18 545.06,-1922.65 542.91,-1912.79"/>
<polygon fill="black" stroke="black" points="546.3,-1911.91 540.75,-1902.88 539.46,-1913.4 546.3,-1911.91"/>
</g>
<!-- 48 -->
<g id="node63" class="node">
<title>48</title>
<ellipse fill="none" stroke="red" cx="2326.54" cy="-1392.27" rx="33.29" ry="18"/>
<text text-anchor="middle" x="2326.54" y="-1388.57" font-family="Times New Roman,serif" font-size="14.00">node9</text>
</g>
<!-- 48&#45;&gt;56 -->
<g id="edge117" class="edge">
<title>48&#45;&gt;56</title>
<path fill="none" stroke="black" d="M2341.19,-1375.73C2349.78,-1366.62 2360.81,-1354.92 2370.45,-1344.7"/>
<polygon fill="black" stroke="black" points="2373.16,-1346.92 2377.48,-1337.24 2368.07,-1342.12 2373.16,-1346.92"/>
</g>
<!-- 48&#45;&gt;20 -->
<g id="edge116" class="edge">
<title>48&#45;&gt;20</title>
<path fill="none" stroke="black" d="M2326.54,-1374.16C2326.54,-1336.73 2326.54,-1244.76 2326.54,-1167.72 2326.54,-1167.72 2326.54,-1167.72 2326.54,-676.79 2326.54,-573.49 2283.08,-456.13 2261.89,-405.05"/>
<polygon fill="black" stroke="black" points="2265.07,-403.59 2257.97,-395.74 2258.62,-406.31 2265.07,-403.59"/>
</g>
<!-- 48&#45;&gt;41 -->
<g id="edge115" class="edge">
<title>48&#45;&gt;41</title>
<path fill="none" stroke="black" d="M2302.27,-1379.71C2278.78,-1368.52 2242.88,-1351.43 2215.96,-1338.61"/>
<polygon fill="black" stroke="black" points="2217.39,-1335.41 2206.85,-1334.27 2214.38,-1341.73 2217.39,-1335.41"/>
</g>
<!-- 52&#45;&gt;53 -->
<g id="edge123" class="edge">
<title>52&#45;&gt;53</title>
<path fill="none" stroke="black" d="M1867.67,-767.42C1881.57,-776.64 1897.96,-788.22 1911.32,-798.24"/>
<polygon fill="black" stroke="black" points="1909.54,-801.28 1919.61,-804.55 1913.78,-795.71 1909.54,-801.28"/>
</g>
<!-- 52&#45;&gt;52 -->
<g id="edge124" class="edge">
<title>52&#45;&gt;52</title>
<path fill="none" stroke="black" d="M1881.58,-763.05C1891.9,-762.02 1899.54,-757.59 1899.54,-749.79 1899.54,-744.79 1896.4,-741.18 1891.44,-738.96"/>
<polygon fill="black" stroke="black" points="1892.12,-735.52 1881.58,-736.53 1890.45,-742.32 1892.12,-735.52"/>
</g>
<!-- 55 -->
<g id="node65" class="node">
<title>55</title>
<ellipse fill="none" stroke="red" cx="767.54" cy="-1957.96" rx="38.19" ry="18"/>
<text text-anchor="middle" x="767.54" y="-1954.26" font-family="Times New Roman,serif" font-size="14.00">device4</text>
</g>
<!-- 55&#45;&gt;47 -->
<g id="edge135" class="edge">
<title>55&#45;&gt;47</title>
<path fill="none" stroke="black" d="M796.48,-1946.02C802.42,-1943.91 808.66,-1941.79 814.54,-1939.96 875.08,-1921.16 892.89,-1925.4 952.54,-1903.96 976.41,-1895.38 1002.3,-1883.34 1022.15,-1873.49"/>
<polygon fill="black" stroke="black" points="1023.73,-1876.61 1031.09,-1868.99 1020.58,-1870.36 1023.73,-1876.61"/>
</g>
<!-- 55&#45;&gt;65 -->
<g id="edge136" class="edge">
<title>55&#45;&gt;65</title>
<path fill="none" stroke="black" d="M764.28,-1939.9C749.73,-1863.78 691.54,-1558 691.54,-1537.27 691.54,-1537.27 691.54,-1537.27 691.54,-1319.27 691.54,-1111.01 708.49,-860.25 714.48,-778.21"/>
<polygon fill="black" stroke="black" points="717.99,-778.22 715.23,-767.99 711.01,-777.7 717.99,-778.22"/>
</g>
<!-- 57 -->
<g id="node66" class="node">
<title>57</title>
<ellipse fill="none" stroke="red" cx="1026.54" cy="-821.79" rx="33.29" ry="18"/>
<text text-anchor="middle" x="1026.54" y="-818.09" font-family="Times New Roman,serif" font-size="14.00">node7</text>
</g>
<!-- 57&#45;&gt;12 -->
<g id="edge139" class="edge">
<title>57&#45;&gt;12</title>
<path fill="none" stroke="black" d="M1058.76,-816.9C1146.25,-806.28 1383.98,-776.96 1418.54,-767.79 1421.16,-767.09 1423.83,-766.28 1426.5,-765.39"/>
<polygon fill="black" stroke="black" points="1427.83,-768.63 1436.02,-761.91 1425.42,-762.05 1427.83,-768.63"/>
</g>
<!-- 57&#45;&gt;15 -->
<g id="edge140" class="edge">
<title>57&#45;&gt;15</title>
<path fill="none" stroke="black" d="M1018.44,-804.19C1006.49,-778.13 985.54,-725.75 985.54,-678.79 985.54,-678.79 985.54,-678.79 985.54,-490.9 985.54,-429.23 1025.41,-365.77 1050.54,-331.9"/>
<polygon fill="black" stroke="black" points="1053.62,-333.63 1056.88,-323.55 1048.05,-329.4 1053.62,-333.63"/>
</g>
<!-- 57&#45;&gt;13 -->
<g id="edge142" class="edge">
<title>57&#45;&gt;13</title>
<path fill="none" stroke="black" d="M1029.74,-803.72C1033.11,-785.79 1038.61,-756.79 1043.54,-731.79 1087.12,-510.73 1144.54,-460.31 1144.54,-235 1144.54,-235 1144.54,-235 1144.54,-161 1144.54,-121 1144.54,-74.65 1144.54,-46.08"/>
<polygon fill="black" stroke="black" points="1148.04,-46.05 1144.54,-36.05 1141.04,-46.05 1148.04,-46.05"/>
</g>
<!-- 57&#45;&gt;40 -->
<g id="edge137" class="edge">
<title>57&#45;&gt;40</title>
<path fill="none" stroke="black" d="M1013.23,-804.89C1005.24,-794.77 995.35,-781.09 988.54,-767.79 939.3,-671.63 833.54,-415.04 833.54,-307 833.54,-307 833.54,-307 833.54,-233 833.54,-181.67 788.76,-136.56 757.97,-111.61"/>
<polygon fill="black" stroke="black" points="760.11,-108.84 750.09,-105.41 755.79,-114.35 760.11,-108.84"/>
</g>
<!-- 57&#45;&gt;19 -->
<g id="edge138" class="edge">
<title>57&#45;&gt;19</title>
<path fill="none" stroke="black" d="M1046.1,-806.96C1059.51,-797.48 1077.61,-784.68 1093.15,-773.69"/>
<polygon fill="black" stroke="black" points="1095.33,-776.44 1101.47,-767.81 1091.29,-770.72 1095.33,-776.44"/>
</g>
<!-- 57&#45;&gt;50 -->
<g id="edge141" class="edge">
<title>57&#45;&gt;50</title>
<path fill="none" stroke="black" d="M1002.08,-809.44C996.42,-807.23 990.36,-805.17 984.54,-803.79 792.77,-758.29 738.27,-790.99 542.54,-767.79 533.3,-766.69 523.63,-765.4 514.04,-764.03"/>
<polygon fill="black" stroke="black" points="514.49,-760.56 504.09,-762.57 513.48,-767.48 514.49,-760.56"/>
</g>
<!-- 58 -->
<g id="node67" class="node">
<title>58</title>
<ellipse fill="none" stroke="red" cx="701.54" cy="-2053.66" rx="37.88" ry="37.88"/>
<ellipse fill="none" stroke="red" cx="701.54" cy="-2053.66" rx="41.89" ry="41.89"/>
<text text-anchor="middle" x="701.54" y="-2049.96" font-family="Times New Roman,serif" font-size="14.00">model0</text>
</g>
<!-- 58&#45;&gt;46 -->
<g id="edge144" class="edge">
<title>58&#45;&gt;46</title>
<path fill="none" stroke="black" d="M707.76,-2012.09C716,-1954.63 729.54,-1846.19 729.54,-1753.27 729.54,-1753.27 729.54,-1753.27 729.54,-1391.27 729.54,-1229.05 804.4,-1047.3 843.04,-964.29"/>
<polygon fill="black" stroke="black" points="846.26,-965.68 847.34,-955.14 839.92,-962.7 846.26,-965.68"/>
</g>
<!-- 58&#45;&gt;39 -->
<g id="edge146" class="edge">
<title>58&#45;&gt;39</title>
<path fill="none" stroke="black" d="M743.34,-2051.12C861.42,-2046.19 1195.04,-2027.9 1289.54,-1975.96 1350.34,-1942.54 1389.54,-1925.48 1389.54,-1856.11 1389.54,-1856.11 1389.54,-1856.11 1389.54,-1391.27 1389.54,-1233.29 1440.77,-1193.58 1535.54,-1067.18 1544.21,-1055.63 1555.81,-1044.87 1566.63,-1036.1"/>
<polygon fill="black" stroke="black" points="1568.97,-1038.72 1574.7,-1029.81 1564.66,-1033.2 1568.97,-1038.72"/>
</g>
<!-- 58&#45;&gt;17 -->
<g id="edge147" class="edge">
<title>58&#45;&gt;17</title>
<path fill="none" stroke="black" d="M743.08,-2048.32C824.52,-2039.25 1010.46,-2015.76 1162.54,-1975.96 1165.55,-1975.17 1168.64,-1974.27 1171.72,-1973.3"/>
<polygon fill="black" stroke="black" points="1173.09,-1976.54 1181.47,-1970.05 1170.88,-1969.9 1173.09,-1976.54"/>
</g>
<!-- 58&#45;&gt;72 -->
<g id="edge145" class="edge">
<title>58&#45;&gt;72</title>
<path fill="none" stroke="black" d="M682.06,-2016.46C666.3,-1986.64 643.95,-1943.05 626.54,-1903.96 607.58,-1861.4 623.73,-1836.8 588.54,-1806.27 535.45,-1760.2 497.88,-1800.74 434.54,-1770.27 376.93,-1742.55 321.54,-1745.2 321.54,-1681.27 321.54,-1681.27 321.54,-1681.27 321.54,-1463.27 321.54,-1371.74 280.42,-1355.82 261.54,-1266.27 233.18,-1131.75 235.65,-1096.2 224.54,-959.18 218.96,-890.31 218.24,-872.88 219.54,-803.79 219.7,-795.47 219.99,-786.42 220.31,-778.19"/>
<polygon fill="black" stroke="black" points="223.82,-778.11 220.73,-767.97 216.82,-777.82 223.82,-778.11"/>
</g>
<!-- 58&#45;&gt;44 -->
<g id="edge143" class="edge">
<title>58&#45;&gt;44</title>
<path fill="none" stroke="black" d="M666.61,-2030.69C642.66,-2015.63 611.02,-1995.73 587.15,-1980.72"/>
<polygon fill="black" stroke="black" points="588.73,-1977.58 578.41,-1975.22 585.01,-1983.51 588.73,-1977.58"/>
</g>
<!-- 59 -->
<g id="node68" class="node">
<title>59</title>
<ellipse fill="none" stroke="red" cx="937.54" cy="-821.79" rx="38.19" ry="18"/>
<text text-anchor="middle" x="937.54" y="-818.09" font-family="Times New Roman,serif" font-size="14.00">device1</text>
</g>
<!-- 59&#45;&gt;12 -->
<g id="edge148" class="edge">
<title>59&#45;&gt;12</title>
<path fill="none" stroke="black" d="M965.52,-809.31C971.69,-807.16 978.27,-805.16 984.54,-803.79 1173.64,-762.51 1230.25,-812.61 1418.54,-767.79 1421.18,-767.16 1423.86,-766.4 1426.54,-765.54"/>
<polygon fill="black" stroke="black" points="1427.84,-768.79 1436.07,-762.13 1425.48,-762.2 1427.84,-768.79"/>
</g>
<!-- 59&#45;&gt;4 -->
<g id="edge151" class="edge">
<title>59&#45;&gt;4</title>
<path fill="none" stroke="black" d="M966.1,-809.45C972.12,-807.35 978.49,-805.33 984.54,-803.79 1009.33,-797.48 1150.5,-776.76 1245.25,-763.18"/>
<polygon fill="black" stroke="black" points="1246.01,-766.6 1255.42,-761.72 1245.02,-759.67 1246.01,-766.6"/>
</g>
<!-- 59&#45;&gt;15 -->
<g id="edge150" class="edge">
<title>59&#45;&gt;15</title>
<path fill="none" stroke="black" d="M935.92,-803.62C935.02,-793.26 933.99,-779.78 933.54,-767.79 927.89,-617.7 924.3,-574.57 971.54,-432 982.86,-397.85 986.23,-388.22 1008.54,-360 1017.71,-348.4 1029.71,-337.45 1040.71,-328.55"/>
<polygon fill="black" stroke="black" points="1043.15,-331.08 1048.86,-322.16 1038.83,-325.57 1043.15,-331.08"/>
</g>
<!-- 59&#45;&gt;72 -->
<g id="edge149" class="edge">
<title>59&#45;&gt;72</title>
<path fill="none" stroke="black" d="M899.81,-817.91C784.37,-809.05 437.02,-781.91 324.54,-767.79 305.51,-765.4 284.62,-762.08 266.65,-759.01"/>
<polygon fill="black" stroke="black" points="267.17,-755.55 256.72,-757.29 265.97,-762.45 267.17,-755.55"/>
</g>
<!-- 61 -->
<g id="node69" class="node">
<title>61</title>
<ellipse fill="none" stroke="red" cx="655.54" cy="-821.79" rx="38.19" ry="18"/>
<text text-anchor="middle" x="655.54" y="-818.09" font-family="Times New Roman,serif" font-size="14.00">device8</text>
</g>
<!-- 61&#45;&gt;16 -->
<g id="edge155" class="edge">
<title>61&#45;&gt;16</title>
<path fill="none" stroke="black" d="M640.57,-804.91C631.96,-795.78 620.99,-784.15 611.43,-774.01"/>
<polygon fill="black" stroke="black" points="613.87,-771.49 604.46,-766.61 608.77,-776.29 613.87,-771.49"/>
</g>
<!-- 61&#45;&gt;28 -->
<g id="edge156" class="edge">
<title>61&#45;&gt;28</title>
<path fill="none" stroke="black" d="M655.54,-803.74C655.54,-777.08 655.54,-723.9 655.54,-678.79 655.54,-678.79 655.54,-678.79 655.54,-305 655.54,-259.9 685.26,-214.94 707.03,-188.05"/>
<polygon fill="black" stroke="black" points="709.77,-190.23 713.48,-180.31 704.39,-185.74 709.77,-190.23"/>
</g>
<!-- 61&#45;&gt;65 -->
<g id="edge157" class="edge">
<title>61&#45;&gt;65</title>
<path fill="none" stroke="black" d="M669.38,-804.91C677.26,-795.87 687.28,-784.37 696.05,-774.31"/>
<polygon fill="black" stroke="black" points="698.82,-776.45 702.75,-766.61 693.55,-771.85 698.82,-776.45"/>
</g>
<!-- 63 -->
<g id="node70" class="node">
<title>63</title>
<ellipse fill="none" stroke="red" cx="919.54" cy="-1957.96" rx="95.58" ry="18"/>
<text text-anchor="middle" x="919.54" y="-1954.26" font-family="Times New Roman,serif" font-size="14.00">executionEnvironment0</text>
</g>
<!-- 63&#45;&gt;8 -->
<g id="edge159" class="edge">
<title>63&#45;&gt;8</title>
<path fill="none" stroke="black" d="M911.06,-1939.85C903.3,-1924.2 891.7,-1900.81 882.74,-1882.72"/>
<polygon fill="black" stroke="black" points="885.64,-1880.71 878.06,-1873.3 879.37,-1883.82 885.64,-1880.71"/>
</g>
<!-- 63&#45;&gt;47 -->
<g id="edge158" class="edge">
<title>63&#45;&gt;47</title>
<path fill="none" stroke="black" d="M942,-1940.31C965.45,-1922.92 1002.28,-1895.61 1027.6,-1876.83"/>
<polygon fill="black" stroke="black" points="1029.76,-1879.59 1035.71,-1870.82 1025.59,-1873.97 1029.76,-1879.59"/>
</g>
<!-- 64 -->
<g id="node71" class="node">
<title>64</title>
<ellipse fill="none" stroke="red" cx="1951.54" cy="-1392.27" rx="55.79" ry="18"/>
<text text-anchor="middle" x="1951.54" y="-1388.57" font-family="Times New Roman,serif" font-size="14.00">component9</text>
</g>
<!-- 64&#45;&gt;15 -->
<g id="edge162" class="edge">
<title>64&#45;&gt;15</title>
<path fill="none" stroke="black" d="M1950.56,-1373.94C1949.23,-1355.8 1946.19,-1326.63 1939.54,-1302.27 1909.71,-1192.89 1897.4,-1165.26 1840.54,-1067.18 1815.75,-1024.42 1342.09,-386.78 1300.54,-360 1247.81,-326.01 1175.88,-313.72 1126.58,-309.33"/>
<polygon fill="black" stroke="black" points="1126.67,-305.83 1116.42,-308.51 1126.11,-312.8 1126.67,-305.83"/>
</g>
<!-- 64&#45;&gt;7 -->
<g id="edge165" class="edge">
<title>64&#45;&gt;7</title>
<path fill="none" stroke="black" d="M1975.02,-1375.9C1989.97,-1366.13 2009.54,-1353.32 2025.98,-1342.57"/>
<polygon fill="black" stroke="black" points="2028.29,-1345.24 2034.74,-1336.83 2024.46,-1339.38 2028.29,-1345.24"/>
</g>
<!-- 64&#45;&gt;39 -->
<g id="edge164" class="edge">
<title>64&#45;&gt;39</title>
<path fill="none" stroke="black" d="M1949.07,-1373.97C1945.21,-1353.59 1935.74,-1320.24 1913.54,-1302.27 1849.13,-1250.1 1797.04,-1315.75 1730.54,-1266.27 1653.48,-1208.92 1616.81,-1093.59 1603.59,-1041.19"/>
<polygon fill="black" stroke="black" points="1606.95,-1040.19 1601.18,-1031.3 1600.15,-1041.84 1606.95,-1040.19"/>
</g>
<!-- 64&#45;&gt;34 -->
<g id="edge161" class="edge">
<title>64&#45;&gt;34</title>
<path fill="none" stroke="black" d="M1928.06,-1375.9C1913.11,-1366.13 1893.54,-1353.32 1877.1,-1342.57"/>
<polygon fill="black" stroke="black" points="1878.62,-1339.38 1868.34,-1336.83 1874.79,-1345.24 1878.62,-1339.38"/>
</g>
<!-- 64&#45;&gt;62 -->
<g id="edge163" class="edge">
<title>64&#45;&gt;62</title>
<path fill="none" stroke="black" d="M1911.57,-1379.67C1875.82,-1369.19 1822.04,-1353.17 1775.54,-1338.27 1772.44,-1337.27 1769.24,-1336.23 1766.03,-1335.17"/>
<polygon fill="black" stroke="black" points="1767.02,-1331.81 1756.42,-1331.96 1764.8,-1338.45 1767.02,-1331.81"/>
</g>
<!-- 64&#45;&gt;41 -->
<g id="edge160" class="edge">
<title>64&#45;&gt;41</title>
<path fill="none" stroke="black" d="M1991.47,-1379.53C2027.19,-1368.97 2080.96,-1352.89 2127.54,-1338.27 2130.67,-1337.28 2133.9,-1336.26 2137.14,-1335.22"/>
<polygon fill="black" stroke="black" points="2138.41,-1338.49 2146.85,-1332.08 2136.26,-1331.83 2138.41,-1338.49"/>
</g>
<!-- 69 -->
<g id="node72" class="node">
<title>69</title>
<ellipse fill="none" stroke="red" cx="1309.54" cy="-2053.66" rx="46.29" ry="18"/>
<text text-anchor="middle" x="1309.54" y="-2049.96" font-family="Times New Roman,serif" font-size="14.00">interface4</text>
</g>
<!-- 69&#45;&gt;23 -->
<g id="edge179" class="edge">
<title>69&#45;&gt;23</title>
<path fill="none" stroke="black" d="M1279.96,-2039.82C1242.58,-2023.61 1178,-1995.6 1135.53,-1977.17"/>
<polygon fill="black" stroke="black" points="1136.86,-1973.93 1126.29,-1973.17 1134.07,-1980.36 1136.86,-1973.93"/>
</g>
<!-- 69&#45;&gt;7 -->
<g id="edge181" class="edge">
<title>69&#45;&gt;7</title>
<path fill="none" stroke="black" d="M1331.86,-2037.74C1352.13,-2023.47 1382.06,-2000.54 1403.54,-1975.96 1461.74,-1909.35 1432.42,-1852.97 1507.54,-1806.27 1656.12,-1713.89 1742.73,-1847.86 1899.54,-1770.27 1986.65,-1727.16 2047.54,-1706.46 2047.54,-1609.27 2047.54,-1609.27 2047.54,-1609.27 2047.54,-1463.27 2047.54,-1423.14 2051.96,-1376.83 2055.2,-1348.3"/>
<polygon fill="black" stroke="black" points="2058.68,-1348.62 2056.37,-1338.28 2051.73,-1347.81 2058.68,-1348.62"/>
</g>
<!-- 69&#45;&gt;21 -->
<g id="edge180" class="edge">
<title>69&#45;&gt;21</title>
<path fill="none" stroke="black" d="M1342.56,-2040.82C1471.95,-1993.83 1942.23,-1817.29 2042.54,-1698.27 2159,-1560.09 2188.28,-1513.72 2231.54,-1338.27 2287.04,-1113.16 2151.54,-1054.63 2151.54,-822.79 2151.54,-822.79 2151.54,-822.79 2151.54,-748.79 2151.54,-566.35 1923.91,-438.98 1833.2,-395.46"/>
<polygon fill="black" stroke="black" points="1834.64,-392.27 1824.1,-391.16 1831.65,-398.6 1834.64,-392.27"/>
</g>
<!-- 69&#45;&gt;17 -->
<g id="edge182" class="edge">
<title>69&#45;&gt;17</title>
<path fill="none" stroke="black" d="M1292.58,-2036.76C1276.29,-2021.5 1251.54,-1998.31 1233.3,-1981.22"/>
<polygon fill="black" stroke="black" points="1235.61,-1978.59 1225.92,-1974.31 1230.83,-1983.7 1235.61,-1978.59"/>
</g>
<!-- 71 -->
<g id="node73" class="node">
<title>71</title>
<ellipse fill="none" stroke="red" cx="99.54" cy="-1166.72" rx="95.58" ry="95.58"/>
<ellipse fill="none" stroke="red" cx="99.54" cy="-1166.72" rx="99.58" ry="99.58"/>
<text text-anchor="middle" x="99.54" y="-1163.02" font-family="Times New Roman,serif" font-size="14.00">executionEnvironment3</text>
</g>
<!-- 71&#45;&gt;66 -->
<g id="edge188" class="edge">
<title>71&#45;&gt;66</title>
<path fill="none" stroke="black" d="M181.8,-1110.18C204.14,-1095.71 228.52,-1080.46 251.54,-1067.18 271.3,-1055.78 293.8,-1044.16 312.8,-1034.72"/>
<polygon fill="black" stroke="black" points="314.4,-1037.83 321.82,-1030.26 311.3,-1031.55 314.4,-1037.83"/>
</g>
<!-- 71&#45;&gt;28 -->
<g id="edge187" class="edge">
<title>71&#45;&gt;28</title>
<path fill="none" stroke="black" d="M99.54,-1067.07C99.54,-1021.8 99.54,-967.42 99.54,-918.49 99.54,-918.49 99.54,-918.49 99.54,-604.79 99.54,-315.1 551.59,-199.19 689.85,-170.51"/>
<polygon fill="black" stroke="black" points="690.9,-173.87 700,-168.45 689.5,-167.01 690.9,-173.87"/>
</g>
<!-- 73 -->
<g id="node74" class="node">
<title>73</title>
<ellipse fill="none" stroke="red" cx="1844.54" cy="-1752.27" rx="46.29" ry="18"/>
<text text-anchor="middle" x="1844.54" y="-1748.57" font-family="Times New Roman,serif" font-size="14.00">interface8</text>
</g>
<!-- 73&#45;&gt;5 -->
<g id="edge192" class="edge">
<title>73&#45;&gt;5</title>
<path fill="none" stroke="black" d="M1800.15,-1747.33C1662.75,-1735.14 1245.21,-1698.09 1103.32,-1685.51"/>
<polygon fill="black" stroke="black" points="1103.46,-1682 1093.19,-1684.61 1102.85,-1688.98 1103.46,-1682"/>
</g>
<!-- 73&#45;&gt;20 -->
<g id="edge190" class="edge">
<title>73&#45;&gt;20</title>
<path fill="none" stroke="black" d="M1869.52,-1736.91C1946.6,-1690.95 2180.54,-1538.68 2264.54,-1338.27 2377.87,-1067.89 2250.54,-971.96 2250.54,-678.79 2250.54,-678.79 2250.54,-678.79 2250.54,-604.79 2250.54,-533.21 2250.54,-448.86 2250.54,-406.38"/>
<polygon fill="black" stroke="black" points="2254.04,-406.28 2250.54,-396.28 2247.04,-406.28 2254.04,-406.28"/>
</g>
<!-- 73&#45;&gt;34 -->
<g id="edge191" class="edge">
<title>73&#45;&gt;34</title>
<path fill="none" stroke="black" d="M1844.54,-1734.22C1844.54,-1707.56 1844.54,-1654.38 1844.54,-1609.27 1844.54,-1609.27 1844.54,-1609.27 1844.54,-1463.27 1844.54,-1423.26 1844.54,-1376.92 1844.54,-1348.35"/>
<polygon fill="black" stroke="black" points="1848.04,-1348.32 1844.54,-1338.32 1841.04,-1348.32 1848.04,-1348.32"/>
</g>
</g>
</svg>
