<?xml version="1.0" encoding="UTF-8" standalone="no"?>
<!DOCTYPE svg PUBLIC "-//W3C//DTD SVG 1.1//EN"
 "http://www.w3.org/Graphics/SVG/1.1/DTD/svg11.dtd">
<!-- Generated by graphviz version 2.49.3 (20211023.0002)
 -->
<!-- Title: test Pages: 1 -->
<svg width="2709pt" height="2003pt"
 viewBox="0.00 0.00 2709.44 2003.17" xmlns="http://www.w3.org/2000/svg" xmlns:xlink="http://www.w3.org/1999/xlink">
<g id="graph0" class="graph" transform="scale(1 1) rotate(0) translate(4 1999.17)">
<title>test</title>
<polygon fill="white" stroke="transparent" points="-4,4 -4,-1999.17 2705.44,-1999.17 2705.44,4 -4,4"/>
<!-- 0 -->
<g id="node1" class="node">
<title>0</title>
<ellipse fill="none" stroke="black" cx="411" cy="-1977.17" rx="100.18" ry="18"/>
<text text-anchor="middle" x="411" y="-1973.47" font-family="Times New Roman,serif" font-size="14.00">executionEnvironment11</text>
</g>
<!-- 4 -->
<g id="node2" class="node">
<title>4</title>
<ellipse fill="none" stroke="black" cx="763" cy="-1330.38" rx="38.19" ry="18"/>
<text text-anchor="middle" x="763" y="-1326.68" font-family="Times New Roman,serif" font-size="14.00">device2</text>
</g>
<!-- 0&#45;&gt;4 -->
<g id="edge1" class="edge">
<title>0&#45;&gt;4</title>
<path fill="none" stroke="black" d="M422.87,-1959.19C443.91,-1934.25 484,-1885.13 484,-1834.17 484,-1834.17 484,-1834.17 484,-1616.17 484,-1479.94 648.71,-1382.78 725.12,-1346.77"/>
<polygon fill="black" stroke="black" points="726.81,-1349.84 734.43,-1342.48 723.88,-1343.49 726.81,-1349.84"/>
</g>
<!-- 7 -->
<g id="node3" class="node">
<title>7</title>
<ellipse fill="none" stroke="black" cx="1308" cy="-1905.17" rx="60.39" ry="18"/>
<text text-anchor="middle" x="1308" y="-1901.47" font-family="Times New Roman,serif" font-size="14.00">component14</text>
</g>
<!-- 0&#45;&gt;7 -->
<g id="edge2" class="edge">
<title>0&#45;&gt;7</title>
<path fill="none" stroke="black" d="M500.13,-1968.88C679.36,-1954.62 1079.7,-1923.4 1239.89,-1911.2"/>
<polygon fill="black" stroke="black" points="1240.38,-1914.67 1250.09,-1910.42 1239.85,-1907.69 1240.38,-1914.67"/>
</g>
<!-- 48 -->
<g id="node4" class="node">
<title>48</title>
<ellipse fill="none" stroke="red" cx="577" cy="-1330.38" rx="33.29" ry="18"/>
<text text-anchor="middle" x="577" y="-1326.68" font-family="Times New Roman,serif" font-size="14.00">node5</text>
</g>
<!-- 0&#45;&gt;48 -->
<g id="edge3" class="edge">
<title>0&#45;&gt;48</title>
<path fill="none" stroke="black" d="M337.95,-1964.78C266.96,-1948.78 170,-1912.32 170,-1834.17 170,-1834.17 170,-1834.17 170,-1616.17 170,-1439.56 432.39,-1361.99 535.89,-1339.07"/>
<polygon fill="black" stroke="black" points="536.94,-1342.42 545.98,-1336.9 535.46,-1335.58 536.94,-1342.42"/>
</g>
<!-- 1 -->
<g id="node5" class="node">
<title>1</title>
<path fill="none" stroke="red" d="M712,-561.07C712,-562.88 699,-564.35 683,-564.35 667,-564.35 654,-562.88 654,-561.07 654,-561.07 654,-531.62 654,-531.62 654,-529.81 667,-528.35 683,-528.35 699,-528.35 712,-529.81 712,-531.62 712,-531.62 712,-561.07 712,-561.07"/>
<path fill="none" stroke="red" d="M712,-561.07C712,-559.27 699,-557.8 683,-557.8 667,-557.8 654,-559.27 654,-561.07"/>
<text text-anchor="middle" x="683" y="-542.65" font-family="Times New Roman,serif" font-size="14.00">node10</text>
</g>
<!-- 0&#45;&gt;1 -->
<g id="edge4" class="edge">
<title>0&#45;&gt;1</title>
<path fill="none" stroke="black" d="M330.13,-1966.46C285.76,-1958.74 230.88,-1945.43 186,-1923.17 129.66,-1895.23 76,-1897.06 76,-1834.17 76,-1834.17 76,-1834.17 76,-1185.38 76,-1017.12 524.32,-661.91 650.44,-569.63"/>
<polygon fill="black" stroke="black" points="652.58,-572.4 658.62,-563.69 648.47,-566.74 652.58,-572.4"/>
</g>
<!-- 4&#45;&gt;0 -->
<g id="edge15" class="edge">
<title>4&#45;&gt;0</title>
<path fill="none" stroke="black" d="M738.55,-1344.65C673.45,-1378.86 502,-1477.18 502,-1616.17 502,-1834.17 502,-1834.17 502,-1834.17 502,-1881.01 468.13,-1926.3 441.54,-1952.68"/>
<polygon fill="black" stroke="black" points="439.09,-1950.17 434.26,-1959.6 443.92,-1955.24 439.09,-1950.17"/>
</g>
<!-- 7&#45;&gt;0 -->
<g id="edge23" class="edge">
<title>7&#45;&gt;0</title>
<path fill="none" stroke="black" d="M1250.5,-1910.94C1101.28,-1922.89 700.5,-1954.18 511.8,-1968.65"/>
<polygon fill="black" stroke="black" points="511.31,-1965.17 501.6,-1969.43 511.84,-1972.15 511.31,-1965.17"/>
</g>
<!-- 46 -->
<g id="node21" class="node">
<title>46</title>
<ellipse fill="none" stroke="black" cx="1925" cy="-1509.77" rx="38.19" ry="18"/>
<text text-anchor="middle" x="1925" y="-1506.07" font-family="Times New Roman,serif" font-size="14.00">device3</text>
</g>
<!-- 7&#45;&gt;46 -->
<g id="edge21" class="edge">
<title>7&#45;&gt;46</title>
<path fill="none" stroke="black" d="M1367.67,-1902.27C1482.59,-1898 1729.8,-1885.21 1808,-1851.17 1863.16,-1827.15 1910,-1822.33 1910,-1762.17 1910,-1762.17 1910,-1762.17 1910,-1688.17 1910,-1634.92 1912.73,-1572.73 1917.28,-1537.93"/>
<polygon fill="black" stroke="black" points="1920.8,-1538.05 1918.82,-1527.64 1913.88,-1537.02 1920.8,-1538.05"/>
</g>
<!-- 19 -->
<g id="node22" class="node">
<title>19</title>
<ellipse fill="none" stroke="black" cx="1308" cy="-1833.17" rx="40.09" ry="18"/>
<text text-anchor="middle" x="1308" y="-1829.47" font-family="Times New Roman,serif" font-size="14.00">artifact8</text>
</g>
<!-- 7&#45;&gt;19 -->
<g id="edge22" class="edge">
<title>7&#45;&gt;19</title>
<path fill="none" stroke="black" d="M1302.12,-1887.22C1301.3,-1879.52 1301.06,-1870.2 1301.39,-1861.53"/>
<polygon fill="black" stroke="black" points="1304.89,-1861.66 1302.09,-1851.44 1297.91,-1861.18 1304.89,-1861.66"/>
</g>
<!-- 48&#45;&gt;0 -->
<g id="edge133" class="edge">
<title>48&#45;&gt;0</title>
<path fill="none" stroke="black" d="M547.1,-1338.38C455.82,-1360.41 188,-1437.74 188,-1616.17 188,-1834.17 188,-1834.17 188,-1834.17 188,-1906.49 271.02,-1943.1 335.81,-1960.84"/>
<polygon fill="black" stroke="black" points="335.07,-1964.27 345.63,-1963.43 336.85,-1957.5 335.07,-1964.27"/>
</g>
<!-- 56 -->
<g id="node6" class="node">
<title>56</title>
<ellipse fill="none" stroke="black" cx="809" cy="-642.69" rx="95.58" ry="18"/>
<text text-anchor="middle" x="809" y="-638.99" font-family="Times New Roman,serif" font-size="14.00">executionEnvironment6</text>
</g>
<!-- 48&#45;&gt;56 -->
<g id="edge130" class="edge">
<title>48&#45;&gt;56</title>
<path fill="none" stroke="black" d="M544.59,-1326.51C484.89,-1320.2 361.55,-1303.47 330,-1276.38 266.44,-1221.8 242.51,-1174.02 274,-1096.38 320.52,-981.67 558.69,-764.89 662,-696.69 685.84,-680.96 715.03,-668.89 741.15,-660.27"/>
<polygon fill="black" stroke="black" points="742.53,-663.51 750.99,-657.14 740.4,-656.84 742.53,-663.51"/>
</g>
<!-- 27 -->
<g id="node11" class="node">
<title>27</title>
<path fill="none" stroke="red" d="M981.5,-657.42C981.5,-659.23 968.28,-660.69 952,-660.69 935.72,-660.69 922.5,-659.23 922.5,-657.42 922.5,-657.42 922.5,-627.97 922.5,-627.97 922.5,-626.16 935.72,-624.69 952,-624.69 968.28,-624.69 981.5,-626.16 981.5,-627.97 981.5,-627.97 981.5,-657.42 981.5,-657.42"/>
<path fill="none" stroke="red" d="M981.5,-657.42C981.5,-655.61 968.28,-654.15 952,-654.15 935.72,-654.15 922.5,-655.61 922.5,-657.42"/>
<text text-anchor="middle" x="952" y="-638.99" font-family="Times New Roman,serif" font-size="14.00">device5</text>
</g>
<!-- 48&#45;&gt;27 -->
<g id="edge134" class="edge">
<title>48&#45;&gt;27</title>
<path fill="none" stroke="black" d="M582.71,-1312.43C595.86,-1288.79 625.34,-1244.32 647,-1204.38 765.36,-986.14 729.59,-894.21 880,-696.69 889.29,-684.5 901.85,-673.22 913.98,-664.23"/>
<polygon fill="black" stroke="black" points="916.1,-667.01 922.26,-658.39 912.07,-661.29 916.1,-667.01"/>
</g>
<!-- 72 -->
<g id="node14" class="node">
<title>72</title>
<ellipse fill="none" stroke="red" cx="1197" cy="-1402.38" rx="33.29" ry="18"/>
<text text-anchor="middle" x="1197" y="-1398.68" font-family="Times New Roman,serif" font-size="14.00">node2</text>
</g>
<!-- 48&#45;&gt;72 -->
<g id="edge132" class="edge">
<title>48&#45;&gt;72</title>
<path fill="none" stroke="black" d="M609.24,-1334.6C639.49,-1338.09 685.4,-1343.77 725,-1348.38 767.5,-1353.32 1046.95,-1383.96 1154.79,-1396.27"/>
<polygon fill="black" stroke="black" points="1154.64,-1399.77 1164.98,-1397.43 1155.44,-1392.82 1154.64,-1399.77"/>
</g>
<!-- 32 -->
<g id="node41" class="node">
<title>32</title>
<ellipse fill="none" stroke="black" cx="444" cy="-1258.38" rx="95.58" ry="18"/>
<text text-anchor="middle" x="444" y="-1254.68" font-family="Times New Roman,serif" font-size="14.00">executionEnvironment7</text>
</g>
<!-- 48&#45;&gt;32 -->
<g id="edge136" class="edge">
<title>48&#45;&gt;32</title>
<path fill="none" stroke="black" d="M551.47,-1318.59C530.64,-1308.55 501.23,-1293.29 478.37,-1280.77"/>
<polygon fill="black" stroke="black" points="479.78,-1277.55 469.34,-1275.78 476.39,-1283.68 479.78,-1277.55"/>
</g>
<!-- 44 -->
<g id="node43" class="node">
<title>44</title>
<ellipse fill="none" stroke="black" cx="1210" cy="-162" rx="46.29" ry="18"/>
<text text-anchor="middle" x="1210" y="-158.3" font-family="Times New Roman,serif" font-size="14.00">interface4</text>
</g>
<!-- 48&#45;&gt;44 -->
<g id="edge131" class="edge">
<title>48&#45;&gt;44</title>
<path fill="none" stroke="black" d="M577.54,-1312.3C584.3,-1276.37 607.15,-1194.16 596,-1168.38 568.15,-1104.03 524.24,-1115.57 481,-1060.38 353.1,-897.13 271,-851.08 271,-643.69 271,-643.69 271,-643.69 271,-305 271,-215.55 952.01,-175.21 1154.15,-165.43"/>
<polygon fill="black" stroke="black" points="1154.43,-168.92 1164.26,-164.95 1154.1,-161.93 1154.43,-168.92"/>
</g>
<!-- 28 -->
<g id="node50" class="node">
<title>28</title>
<ellipse fill="none" stroke="black" cx="726" cy="-1258.38" rx="55.79" ry="18"/>
<text text-anchor="middle" x="726" y="-1254.68" font-family="Times New Roman,serif" font-size="14.00">component7</text>
</g>
<!-- 48&#45;&gt;28 -->
<g id="edge135" class="edge">
<title>48&#45;&gt;28</title>
<path fill="none" stroke="black" d="M598.64,-1316.7C620.62,-1305.6 655,-1289.36 682.56,-1276.99"/>
<polygon fill="black" stroke="black" points="684.28,-1280.06 691.99,-1272.8 681.44,-1273.66 684.28,-1280.06"/>
</g>
<!-- 1&#45;&gt;0 -->
<g id="edge6" class="edge">
<title>1&#45;&gt;0</title>
<path fill="none" stroke="black" d="M663.44,-564.24C561.09,-647.11 94,-1013.64 94,-1185.38 94,-1834.17 94,-1834.17 94,-1834.17 94,-1897.06 147.66,-1895.23 204,-1923.17 242.58,-1942.31 288.54,-1954.83 327.39,-1962.87"/>
<polygon fill="black" stroke="black" points="327.13,-1966.38 337.62,-1964.92 328.5,-1959.52 327.13,-1966.38"/>
</g>
<!-- 1&#45;&gt;56 -->
<g id="edge5" class="edge">
<title>1&#45;&gt;56</title>
<path fill="none" stroke="black" d="M709.72,-563.44C731.64,-578.53 762.24,-601.27 783.75,-618.35"/>
<polygon fill="black" stroke="black" points="781.8,-621.28 791.79,-624.83 786.19,-615.83 781.8,-621.28"/>
</g>
<!-- 56&#45;&gt;48 -->
<g id="edge162" class="edge">
<title>56&#45;&gt;48</title>
<path fill="none" stroke="black" d="M762.73,-658.53C737.1,-667.23 705.49,-679.87 680,-696.69 576.69,-764.89 338.52,-981.67 292,-1096.38 260.51,-1174.02 284.44,-1221.8 348,-1276.38 376.1,-1300.51 476.99,-1316.41 535.16,-1324.06"/>
<polygon fill="black" stroke="black" points="534.78,-1327.54 545.14,-1325.35 535.68,-1320.6 534.78,-1327.54"/>
</g>
<!-- 56&#45;&gt;1 -->
<g id="edge164" class="edge">
<title>56&#45;&gt;1</title>
<path fill="none" stroke="black" d="M781.79,-625.26C759.89,-610.16 729.56,-587.61 708.21,-570.66"/>
<polygon fill="black" stroke="black" points="710.21,-567.77 700.23,-564.23 705.82,-573.22 710.21,-567.77"/>
</g>
<!-- 66 -->
<g id="node15" class="node">
<title>66</title>
<ellipse fill="none" stroke="black" cx="1134" cy="-746.84" rx="38.19" ry="18"/>
<text text-anchor="middle" x="1134" y="-743.14" font-family="Times New Roman,serif" font-size="14.00">device9</text>
</g>
<!-- 56&#45;&gt;66 -->
<g id="edge161" class="edge">
<title>56&#45;&gt;66</title>
<path fill="none" stroke="black" d="M859.58,-658.06C924.57,-677.69 1035.79,-712.65 1094.77,-732"/>
<polygon fill="black" stroke="black" points="1093.87,-735.39 1104.46,-735.2 1096.06,-728.74 1093.87,-735.39"/>
</g>
<!-- 73 -->
<g id="node68" class="node">
<title>73</title>
<ellipse fill="none" stroke="black" cx="809" cy="-546.35" rx="42.79" ry="18"/>
<text text-anchor="middle" x="809" y="-542.65" font-family="Times New Roman,serif" font-size="14.00">device10</text>
</g>
<!-- 56&#45;&gt;73 -->
<g id="edge163" class="edge">
<title>56&#45;&gt;73</title>
<path fill="none" stroke="black" d="M803.64,-624.39C802.12,-610.47 801.85,-590.66 802.82,-574.61"/>
<polygon fill="black" stroke="black" points="806.34,-574.48 803.68,-564.22 799.36,-573.9 806.34,-574.48"/>
</g>
<!-- 2 -->
<g id="node7" class="node">
<title>2</title>
<ellipse fill="none" stroke="red" cx="952" cy="-546.35" rx="38.21" ry="38.21"/>
<ellipse fill="none" stroke="red" cx="952" cy="-546.35" rx="42.19" ry="42.19"/>
<text text-anchor="middle" x="952" y="-542.65" font-family="Times New Roman,serif" font-size="14.00">device6</text>
</g>
<!-- 2&#45;&gt;2 -->
<g id="edge10" class="edge">
<title>2&#45;&gt;2</title>
<path fill="none" stroke="black" d="M990.6,-564.34C1002.75,-564.06 1012.35,-558.07 1012.35,-546.35 1012.35,-538.11 1007.6,-532.7 1000.56,-530.11"/>
<polygon fill="black" stroke="black" points="1001.05,-526.65 990.6,-528.36 999.84,-533.54 1001.05,-526.65"/>
</g>
<!-- 31 -->
<g id="node8" class="node">
<title>31</title>
<ellipse fill="none" stroke="black" cx="624" cy="-450" rx="42.79" ry="18"/>
<text text-anchor="middle" x="624" y="-446.3" font-family="Times New Roman,serif" font-size="14.00">device11</text>
</g>
<!-- 2&#45;&gt;31 -->
<g id="edge7" class="edge">
<title>2&#45;&gt;31</title>
<path fill="none" stroke="black" d="M913.11,-529.36C894.75,-520.91 872.57,-510.89 852,-504 791.1,-483.6 718.77,-468.71 672.06,-460"/>
<polygon fill="black" stroke="black" points="672.68,-456.55 662.21,-458.18 671.41,-463.44 672.68,-456.55"/>
</g>
<!-- 43 -->
<g id="node9" class="node">
<title>43</title>
<ellipse fill="none" stroke="black" cx="876" cy="-450" rx="38.19" ry="18"/>
<text text-anchor="middle" x="876" y="-446.3" font-family="Times New Roman,serif" font-size="14.00">device8</text>
</g>
<!-- 2&#45;&gt;43 -->
<g id="edge8" class="edge">
<title>2&#45;&gt;43</title>
<path fill="none" stroke="black" d="M922.07,-516.01C911.09,-503.21 899.21,-488.36 890.17,-476.09"/>
<polygon fill="black" stroke="black" points="892.81,-473.76 884.14,-467.67 887.11,-477.84 892.81,-473.76"/>
</g>
<!-- 65 -->
<g id="node10" class="node">
<title>65</title>
<ellipse fill="none" stroke="black" cx="1028" cy="-450" rx="95.58" ry="18"/>
<text text-anchor="middle" x="1028" y="-446.3" font-family="Times New Roman,serif" font-size="14.00">executionEnvironment0</text>
</g>
<!-- 2&#45;&gt;65 -->
<g id="edge9" class="edge">
<title>2&#45;&gt;65</title>
<path fill="none" stroke="black" d="M973.96,-509.95C982.84,-498.45 993.09,-485.95 1002.32,-475.43"/>
<polygon fill="black" stroke="black" points="1005.07,-477.61 1009.13,-467.83 999.85,-472.94 1005.07,-477.61"/>
</g>
<!-- 2&#45;&gt;27 -->
<g id="edge11" class="edge">
<title>2&#45;&gt;27</title>
<path fill="none" stroke="black" d="M958.7,-588.44C958.85,-597.22 958.67,-606.28 958.19,-614.39"/>
<polygon fill="black" stroke="black" points="954.7,-614.14 957.36,-624.39 961.67,-614.71 954.7,-614.14"/>
</g>
<!-- 31&#45;&gt;2 -->
<g id="edge85" class="edge">
<title>31&#45;&gt;2</title>
<path fill="none" stroke="black" d="M664.43,-456.39C714,-464.22 799.64,-480.43 870,-504 882.33,-508.13 895.25,-513.39 907.12,-518.76"/>
<polygon fill="black" stroke="black" points="905.84,-522.02 916.38,-523.07 908.79,-515.68 905.84,-522.02"/>
</g>
<!-- 43&#45;&gt;2 -->
<g id="edge121" class="edge">
<title>43&#45;&gt;2</title>
<path fill="none" stroke="black" d="M893.48,-466.33C902.55,-476.09 913.69,-489.27 923.86,-502.06"/>
<polygon fill="black" stroke="black" points="921.12,-504.24 930.04,-509.95 926.63,-499.92 921.12,-504.24"/>
</g>
<!-- 65&#45;&gt;2 -->
<g id="edge181" class="edge">
<title>65&#45;&gt;2</title>
<path fill="none" stroke="black" d="M1019.67,-467.95C1011.93,-479.1 1000.23,-494.16 988.68,-508.02"/>
<polygon fill="black" stroke="black" points="985.71,-506.11 981.93,-516.01 991.06,-510.63 985.71,-506.11"/>
</g>
<!-- 27&#45;&gt;48 -->
<g id="edge73" class="edge">
<title>27&#45;&gt;48</title>
<path fill="none" stroke="black" d="M935,-660.65C923.37,-670.13 908.56,-682.82 898,-696.69 747.59,-894.21 783.36,-986.14 665,-1204.38 645.07,-1241.12 618.54,-1281.68 599.55,-1306.35"/>
<polygon fill="black" stroke="black" points="596.65,-1304.37 593.17,-1314.38 602.13,-1308.73 596.65,-1304.37"/>
</g>
<!-- 27&#45;&gt;2 -->
<g id="edge71" class="edge">
<title>27&#45;&gt;2</title>
<path fill="none" stroke="black" d="M946.64,-624.39C945.83,-616.97 945.37,-607.87 945.27,-598.56"/>
<polygon fill="black" stroke="black" points="948.77,-598.45 945.3,-588.44 941.77,-598.43 948.77,-598.45"/>
</g>
<!-- 27&#45;&gt;19 -->
<g id="edge72" class="edge">
<title>27&#45;&gt;19</title>
<path fill="none" stroke="black" d="M922.2,-657.21C919.43,-658.41 916.67,-659.59 914,-660.69 872.68,-677.83 859.52,-675.73 820,-696.69 498.49,-867.27 132,-1141.58 132,-1185.38 132,-1510.77 132,-1510.77 132,-1510.77 132,-1748.03 1033.91,-1816.22 1258.04,-1829.51"/>
<polygon fill="black" stroke="black" points="1258.01,-1833.01 1268.2,-1830.1 1258.42,-1826.02 1258.01,-1833.01"/>
</g>
<!-- 3 -->
<g id="node12" class="node">
<title>3</title>
<ellipse fill="none" stroke="black" cx="1139" cy="-874.68" rx="38.19" ry="18"/>
<text text-anchor="middle" x="1139" y="-870.98" font-family="Times New Roman,serif" font-size="14.00">device0</text>
</g>
<!-- 5 -->
<g id="node13" class="node">
<title>5</title>
<ellipse fill="none" stroke="black" cx="1311" cy="-970.38" rx="40.09" ry="18"/>
<text text-anchor="middle" x="1311" y="-966.68" font-family="Times New Roman,serif" font-size="14.00">artifact6</text>
</g>
<!-- 3&#45;&gt;5 -->
<g id="edge12" class="edge">
<title>3&#45;&gt;5</title>
<path fill="none" stroke="black" d="M1161.91,-889.22C1173.19,-897.7 1186.82,-908.48 1200,-916.38 1223.99,-930.76 1252.59,-943.54 1274.85,-952.95"/>
<polygon fill="black" stroke="black" points="1273.7,-956.26 1284.28,-956.9 1276.41,-949.81 1273.7,-956.26"/>
</g>
<!-- 3&#45;&gt;72 -->
<g id="edge13" class="edge">
<title>3&#45;&gt;72</title>
<path fill="none" stroke="black" d="M1143.48,-892.74C1157.22,-969.07 1191.69,-1279.6 1197.2,-1374.02"/>
<polygon fill="black" stroke="black" points="1193.71,-1374.38 1197.71,-1384.19 1200.7,-1374.02 1193.71,-1374.38"/>
</g>
<!-- 3&#45;&gt;66 -->
<g id="edge14" class="edge">
<title>3&#45;&gt;66</title>
<path fill="none" stroke="black" d="M1133.54,-856.71C1130.43,-835.79 1128.71,-799.96 1129.41,-775.15"/>
<polygon fill="black" stroke="black" points="1132.91,-775.09 1129.88,-764.94 1125.92,-774.77 1132.91,-775.09"/>
</g>
<!-- 5&#45;&gt;3 -->
<g id="edge17" class="edge">
<title>5&#45;&gt;3</title>
<path fill="none" stroke="black" d="M1277.88,-959.98C1250.85,-950.53 1212.67,-934.76 1182,-916.38 1173.66,-911.38 1165.14,-905.23 1157.8,-899.23"/>
<polygon fill="black" stroke="black" points="1159.67,-896.22 1149.81,-892.35 1155.1,-901.53 1159.67,-896.22"/>
</g>
<!-- 42 -->
<g id="node16" class="node">
<title>42</title>
<ellipse fill="none" stroke="black" cx="1317" cy="-1042.38" rx="46.29" ry="18"/>
<text text-anchor="middle" x="1317" y="-1038.68" font-family="Times New Roman,serif" font-size="14.00">interface1</text>
</g>
<!-- 5&#45;&gt;42 -->
<g id="edge16" class="edge">
<title>5&#45;&gt;42</title>
<path fill="none" stroke="black" d="M1318.3,-988.17C1319.81,-995.97 1320.86,-1005.45 1321.27,-1014.23"/>
<polygon fill="black" stroke="black" points="1317.77,-1014.49 1321.43,-1024.43 1324.77,-1014.38 1317.77,-1014.49"/>
</g>
<!-- 39 -->
<g id="node17" class="node">
<title>39</title>
<ellipse fill="none" stroke="red" cx="1487" cy="-874.68" rx="55.79" ry="18"/>
<text text-anchor="middle" x="1487" y="-870.98" font-family="Times New Roman,serif" font-size="14.00">component9</text>
</g>
<!-- 5&#45;&gt;39 -->
<g id="edge18" class="edge">
<title>5&#45;&gt;39</title>
<path fill="none" stroke="black" d="M1334.6,-955.68C1355.62,-945.48 1386.61,-930.88 1413,-916.38 1424.69,-909.95 1437.19,-902.32 1448.61,-895.41"/>
<polygon fill="black" stroke="black" points="1450.74,-898.22 1457.51,-890.07 1447.13,-892.22 1450.74,-898.22"/>
</g>
<!-- 72&#45;&gt;48 -->
<g id="edge198" class="edge">
<title>72&#45;&gt;48</title>
<path fill="none" stroke="black" d="M1164.44,-1398.21C1062.07,-1387.59 751.96,-1353.6 707,-1348.38 677.29,-1344.92 644.02,-1340.86 618.49,-1337.58"/>
<polygon fill="black" stroke="black" points="618.77,-1334.08 608.4,-1336.27 617.87,-1341.03 618.77,-1334.08"/>
</g>
<!-- 72&#45;&gt;3 -->
<g id="edge197" class="edge">
<title>72&#45;&gt;3</title>
<path fill="none" stroke="black" d="M1192.55,-1384.48C1178.82,-1308.41 1144.29,-997.3 1138.8,-902.94"/>
<polygon fill="black" stroke="black" points="1142.28,-902.59 1138.28,-892.78 1135.29,-902.94 1142.28,-902.59"/>
</g>
<!-- 72&#45;&gt;72 -->
<g id="edge196" class="edge">
<title>72&#45;&gt;72</title>
<path fill="none" stroke="black" d="M1220.68,-1415.03C1234.83,-1417.85 1248.15,-1413.63 1248.15,-1402.38 1248.15,-1393.94 1240.65,-1389.46 1230.94,-1388.93"/>
<polygon fill="black" stroke="black" points="1230.38,-1385.46 1220.68,-1389.72 1230.91,-1392.44 1230.38,-1385.46"/>
</g>
<!-- 55 -->
<g id="node20" class="node">
<title>55</title>
<ellipse fill="none" stroke="black" cx="1386" cy="-746.84" rx="44.39" ry="18"/>
<text text-anchor="middle" x="1386" y="-743.14" font-family="Times New Roman,serif" font-size="14.00">artifact11</text>
</g>
<!-- 72&#45;&gt;55 -->
<g id="edge199" class="edge">
<title>72&#45;&gt;55</title>
<path fill="none" stroke="black" d="M1189.83,-1384.7C1159.25,-1295.67 1048.56,-878.81 1083,-832.99 1098.28,-812.65 1255.24,-775.09 1337.11,-757.45"/>
<polygon fill="black" stroke="black" points="1337.9,-760.86 1346.95,-755.35 1336.43,-754.02 1337.9,-760.86"/>
</g>
<!-- 10 -->
<g id="node25" class="node">
<title>10</title>
<path fill="none" stroke="black" d="M1224,-1524.5C1224,-1526.31 1211.9,-1527.77 1197,-1527.77 1182.1,-1527.77 1170,-1526.31 1170,-1524.5 1170,-1524.5 1170,-1495.05 1170,-1495.05 1170,-1493.24 1182.1,-1491.77 1197,-1491.77 1211.9,-1491.77 1224,-1493.24 1224,-1495.05 1224,-1495.05 1224,-1524.5 1224,-1524.5"/>
<path fill="none" stroke="black" d="M1224,-1524.5C1224,-1522.7 1211.9,-1521.23 1197,-1521.23 1182.1,-1521.23 1170,-1522.7 1170,-1524.5"/>
<text text-anchor="middle" x="1197" y="-1506.07" font-family="Times New Roman,serif" font-size="14.00">node3</text>
</g>
<!-- 72&#45;&gt;10 -->
<g id="edge200" class="edge">
<title>72&#45;&gt;10</title>
<path fill="none" stroke="black" d="M1202.13,-1420.46C1203.94,-1436.92 1204.23,-1462.1 1203.01,-1481.37"/>
<polygon fill="black" stroke="black" points="1199.51,-1481.11 1202.17,-1491.37 1206.49,-1481.7 1199.51,-1481.11"/>
</g>
<!-- 25 -->
<g id="node55" class="node">
<title>25</title>
<ellipse fill="none" stroke="black" cx="1330" cy="-1330.38" rx="95.58" ry="18"/>
<text text-anchor="middle" x="1330" y="-1326.68" font-family="Times New Roman,serif" font-size="14.00">executionEnvironment1</text>
</g>
<!-- 72&#45;&gt;25 -->
<g id="edge195" class="edge">
<title>72&#45;&gt;25</title>
<path fill="none" stroke="black" d="M1217.19,-1387.88C1235.28,-1377.61 1262.24,-1363.29 1285.31,-1351.64"/>
<polygon fill="black" stroke="black" points="1286.89,-1354.76 1294.27,-1347.16 1283.76,-1348.5 1286.89,-1354.76"/>
</g>
<!-- 66&#45;&gt;56 -->
<g id="edge182" class="edge">
<title>66&#45;&gt;56</title>
<path fill="none" stroke="black" d="M1101.71,-736.95C1045.58,-720.3 929.91,-684.08 861.93,-662"/>
<polygon fill="black" stroke="black" points="862.85,-658.62 852.26,-658.85 860.69,-665.28 862.85,-658.62"/>
</g>
<!-- 66&#45;&gt;3 -->
<g id="edge183" class="edge">
<title>66&#45;&gt;3</title>
<path fill="none" stroke="black" d="M1139.48,-764.94C1142.58,-785.93 1144.29,-821.76 1143.59,-846.53"/>
<polygon fill="black" stroke="black" points="1140.08,-846.56 1143.11,-856.71 1147.08,-846.88 1140.08,-846.56"/>
</g>
<!-- 37 -->
<g id="node58" class="node">
<title>37</title>
<ellipse fill="none" stroke="black" cx="1134" cy="-642.69" rx="95.58" ry="18"/>
<text text-anchor="middle" x="1134" y="-638.99" font-family="Times New Roman,serif" font-size="14.00">executionEnvironment4</text>
</g>
<!-- 66&#45;&gt;37 -->
<g id="edge184" class="edge">
<title>66&#45;&gt;37</title>
<path fill="none" stroke="black" d="M1128.83,-728.97C1127.08,-713.25 1126.78,-689.51 1127.94,-671.07"/>
<polygon fill="black" stroke="black" points="1131.44,-671.18 1128.79,-660.93 1124.47,-670.6 1131.44,-671.18"/>
</g>
<!-- 42&#45;&gt;5 -->
<g id="edge119" class="edge">
<title>42&#45;&gt;5</title>
<path fill="none" stroke="black" d="M1309.67,-1024.43C1308.19,-1016.72 1307.15,-1007.41 1306.74,-998.74"/>
<polygon fill="black" stroke="black" points="1310.24,-998.59 1306.57,-988.65 1303.24,-998.71 1310.24,-998.59"/>
</g>
<!-- 42&#45;&gt;42 -->
<g id="edge118" class="edge">
<title>42&#45;&gt;42</title>
<path fill="none" stroke="black" d="M1349.01,-1055.36C1365.87,-1057.46 1381.15,-1053.14 1381.15,-1042.38 1381.15,-1033.89 1371.64,-1029.4 1359.34,-1028.92"/>
<polygon fill="black" stroke="black" points="1358.84,-1025.44 1349.01,-1029.39 1359.16,-1032.43 1358.84,-1025.44"/>
</g>
<!-- 33 -->
<g id="node56" class="node">
<title>33</title>
<ellipse fill="none" stroke="black" cx="1365" cy="-1114.38" rx="55.79" ry="18"/>
<text text-anchor="middle" x="1365" y="-1110.68" font-family="Times New Roman,serif" font-size="14.00">component8</text>
</g>
<!-- 42&#45;&gt;33 -->
<g id="edge120" class="edge">
<title>42&#45;&gt;33</title>
<path fill="none" stroke="black" d="M1333.61,-1059.21C1340.35,-1067.61 1347.83,-1078.15 1353.92,-1087.69"/>
<polygon fill="black" stroke="black" points="1351.06,-1089.72 1359.26,-1096.43 1357.03,-1086.07 1351.06,-1089.72"/>
</g>
<!-- 39&#45;&gt;5 -->
<g id="edge105" class="edge">
<title>39&#45;&gt;5</title>
<path fill="none" stroke="black" d="M1470.54,-892.01C1459.4,-899.73 1444.65,-908.88 1431,-916.38 1405.34,-930.48 1375.32,-944.68 1351.6,-954.83"/>
<polygon fill="black" stroke="black" points="1350.04,-951.68 1342.18,-958.78 1352.75,-958.14 1350.04,-951.68"/>
</g>
<!-- 39&#45;&gt;55 -->
<g id="edge108" class="edge">
<title>39&#45;&gt;55</title>
<path fill="none" stroke="black" d="M1469.3,-857.49C1449.73,-836.11 1419.06,-798.25 1400.74,-773.09"/>
<polygon fill="black" stroke="black" points="1403.46,-770.89 1394.81,-764.77 1397.76,-774.95 1403.46,-770.89"/>
</g>
<!-- 11 -->
<g id="node27" class="node">
<title>11</title>
<ellipse fill="none" stroke="black" cx="1467" cy="-234" rx="55.79" ry="18"/>
<text text-anchor="middle" x="1467" y="-230.3" font-family="Times New Roman,serif" font-size="14.00">component1</text>
</g>
<!-- 39&#45;&gt;11 -->
<g id="edge106" class="edge">
<title>39&#45;&gt;11</title>
<path fill="none" stroke="black" d="M1479.77,-856.7C1470.15,-818.66 1458,-723.65 1458,-643.69 1458,-643.69 1458,-643.69 1458,-377 1458,-337 1458,-290.65 1460.29,-262.08"/>
<polygon fill="black" stroke="black" points="1463.78,-262.35 1461.29,-252.05 1456.82,-261.65 1463.78,-262.35"/>
</g>
<!-- 74 -->
<g id="node34" class="node">
<title>74</title>
<ellipse fill="none" stroke="black" cx="2185" cy="-746.84" rx="46.28" ry="46.28"/>
<ellipse fill="none" stroke="black" cx="2185" cy="-746.84" rx="50.29" ry="50.29"/>
<text text-anchor="middle" x="2185" y="-743.14" font-family="Times New Roman,serif" font-size="14.00">interface9</text>
</g>
<!-- 39&#45;&gt;74 -->
<g id="edge107" class="edge">
<title>39&#45;&gt;74</title>
<path fill="none" stroke="black" d="M1525.78,-861.7C1558.54,-853.06 1606.5,-841.46 1649,-832.99 1738.97,-815.04 2004.97,-773.92 2125.09,-756.21"/>
<polygon fill="black" stroke="black" points="2125.83,-759.64 2135.21,-754.72 2124.81,-752.72 2125.83,-759.64"/>
</g>
<!-- 6 -->
<g id="node18" class="node">
<title>6</title>
<ellipse fill="none" stroke="black" cx="1872" cy="-642.69" rx="55.79" ry="18"/>
<text text-anchor="middle" x="1872" y="-638.99" font-family="Times New Roman,serif" font-size="14.00">component5</text>
</g>
<!-- 49 -->
<g id="node19" class="node">
<title>49</title>
<ellipse fill="none" stroke="black" cx="1910" cy="-546.35" rx="55.79" ry="18"/>
<text text-anchor="middle" x="1910" y="-542.65" font-family="Times New Roman,serif" font-size="14.00">component0</text>
</g>
<!-- 6&#45;&gt;49 -->
<g id="edge19" class="edge">
<title>6&#45;&gt;49</title>
<path fill="none" stroke="black" d="M1873.61,-624.39C1877.82,-610.07 1885.85,-589.51 1893.48,-573.23"/>
<polygon fill="black" stroke="black" points="1896.63,-574.74 1897.89,-564.22 1890.35,-571.67 1896.63,-574.74"/>
</g>
<!-- 6&#45;&gt;55 -->
<g id="edge20" class="edge">
<title>6&#45;&gt;55</title>
<path fill="none" stroke="black" d="M1820.29,-649.78C1754.84,-657.59 1639.23,-673.02 1542,-696.69 1503.54,-706.06 1460.75,-720.88 1429.6,-731.81"/>
<polygon fill="black" stroke="black" points="1428.19,-728.59 1419.91,-735.2 1430.5,-735.2 1428.19,-728.59"/>
</g>
<!-- 49&#45;&gt;6 -->
<g id="edge137" class="edge">
<title>49&#45;&gt;6</title>
<path fill="none" stroke="black" d="M1908.47,-564.39C1904.29,-578.7 1896.21,-599.39 1888.54,-615.77"/>
<polygon fill="black" stroke="black" points="1885.36,-614.31 1884.11,-624.83 1891.65,-617.38 1885.36,-614.31"/>
</g>
<!-- 49&#45;&gt;11 -->
<g id="edge138" class="edge">
<title>49&#45;&gt;11</title>
<path fill="none" stroke="black" d="M1892.4,-528.95C1880.4,-513.43 1865.26,-489.39 1853,-468 1826.01,-420.91 1836.82,-395.78 1796,-360 1717.41,-291.11 1597.48,-258.91 1526.12,-244.84"/>
<polygon fill="black" stroke="black" points="1526.43,-241.33 1515.95,-242.89 1525.11,-248.21 1526.43,-241.33"/>
</g>
<!-- 20 -->
<g id="node47" class="node">
<title>20</title>
<ellipse fill="none" stroke="black" cx="1931" cy="-450" rx="60.39" ry="18"/>
<text text-anchor="middle" x="1931" y="-446.3" font-family="Times New Roman,serif" font-size="14.00">component12</text>
</g>
<!-- 49&#45;&gt;20 -->
<g id="edge139" class="edge">
<title>49&#45;&gt;20</title>
<path fill="none" stroke="black" d="M1908.49,-528.04C1910.09,-513.99 1914.29,-493.93 1918.88,-477.81"/>
<polygon fill="black" stroke="black" points="1922.34,-478.46 1921.93,-467.88 1915.64,-476.41 1922.34,-478.46"/>
</g>
<!-- 60 -->
<g id="node48" class="node">
<title>60</title>
<ellipse fill="none" stroke="black" cx="1638" cy="-450" rx="46.29" ry="18"/>
<text text-anchor="middle" x="1638" y="-446.3" font-family="Times New Roman,serif" font-size="14.00">interface0</text>
</g>
<!-- 49&#45;&gt;60 -->
<g id="edge140" class="edge">
<title>49&#45;&gt;60</title>
<path fill="none" stroke="black" d="M1881.31,-530.89C1866.54,-522.1 1848.33,-511.22 1831,-504 1783.75,-484.3 1727.16,-470.2 1687.43,-461.53"/>
<polygon fill="black" stroke="black" points="1687.97,-458.06 1677.45,-459.38 1686.5,-464.91 1687.97,-458.06"/>
</g>
<!-- 55&#45;&gt;27 -->
<g id="edge160" class="edge">
<title>55&#45;&gt;27</title>
<path fill="none" stroke="black" d="M1348.99,-736.87C1307.95,-726.95 1239.78,-710.54 1181,-696.69 1114.53,-681.03 1037.11,-663.2 991.46,-652.73"/>
<polygon fill="black" stroke="black" points="992.19,-649.3 981.66,-650.48 990.63,-656.13 992.19,-649.3"/>
</g>
<!-- 55&#45;&gt;72 -->
<g id="edge158" class="edge">
<title>55&#45;&gt;72</title>
<path fill="none" stroke="black" d="M1349.29,-757.05C1275.68,-774.5 1116.4,-812.49 1101,-832.99 1067.74,-877.24 1169.84,-1267.54 1192.89,-1374.42"/>
<polygon fill="black" stroke="black" points="1189.5,-1375.33 1194.97,-1384.4 1196.35,-1373.9 1189.5,-1375.33"/>
</g>
<!-- 55&#45;&gt;39 -->
<g id="edge159" class="edge">
<title>55&#45;&gt;39</title>
<path fill="none" stroke="black" d="M1403.44,-763.75C1422.98,-785.05 1453.8,-823.09 1472.21,-848.35"/>
<polygon fill="black" stroke="black" points="1469.51,-850.6 1478.17,-856.71 1475.21,-846.54 1469.51,-850.6"/>
</g>
<!-- 55&#45;&gt;6 -->
<g id="edge157" class="edge">
<title>55&#45;&gt;6</title>
<path fill="none" stroke="black" d="M1413.1,-732.56C1440.76,-721.58 1484.65,-706.28 1524,-696.69 1621.92,-672.85 1738.47,-657.37 1808.86,-649.62"/>
<polygon fill="black" stroke="black" points="1809.34,-653.09 1818.9,-648.53 1808.58,-646.13 1809.34,-653.09"/>
</g>
<!-- 46&#45;&gt;7 -->
<g id="edge128" class="edge">
<title>46&#45;&gt;7</title>
<path fill="none" stroke="black" d="M1929.3,-1527.89C1931.34,-1559.53 1928,-1629.31 1928,-1688.17 1928,-1762.17 1928,-1762.17 1928,-1762.17 1928,-1822.33 1881.16,-1827.15 1826,-1851.17 1747.76,-1885.23 1500.33,-1898.02 1377.88,-1902.28"/>
<polygon fill="black" stroke="black" points="1377.73,-1898.78 1367.86,-1902.62 1377.97,-1905.78 1377.73,-1898.78"/>
</g>
<!-- 45 -->
<g id="node26" class="node">
<title>45</title>
<ellipse fill="none" stroke="black" cx="1416" cy="-1617.17" rx="33.29" ry="18"/>
<text text-anchor="middle" x="1416" y="-1613.47" font-family="Times New Roman,serif" font-size="14.00">node4</text>
</g>
<!-- 46&#45;&gt;45 -->
<g id="edge129" class="edge">
<title>46&#45;&gt;45</title>
<path fill="none" stroke="black" d="M1891.32,-1518.52C1801.1,-1538.03 1554.78,-1589.04 1456.84,-1608.48"/>
<polygon fill="black" stroke="black" points="1456.14,-1605.05 1447.01,-1610.43 1457.5,-1611.92 1456.14,-1605.05"/>
</g>
<!-- 19&#45;&gt;7 -->
<g id="edge46" class="edge">
<title>19&#45;&gt;7</title>
<path fill="none" stroke="black" d="M1313.91,-1851.44C1314.71,-1859.2 1314.94,-1868.53 1314.59,-1877.17"/>
<polygon fill="black" stroke="black" points="1311.09,-1877 1313.88,-1887.22 1318.08,-1877.5 1311.09,-1877"/>
</g>
<!-- 57 -->
<g id="node46" class="node">
<title>57</title>
<path fill="none" stroke="black" d="M1335,-1775.9C1335,-1777.7 1322.9,-1779.17 1308,-1779.17 1293.1,-1779.17 1281,-1777.7 1281,-1775.9 1281,-1775.9 1281,-1746.44 1281,-1746.44 1281,-1744.64 1293.1,-1743.17 1308,-1743.17 1322.9,-1743.17 1335,-1744.64 1335,-1746.44 1335,-1746.44 1335,-1775.9 1335,-1775.9"/>
<path fill="none" stroke="black" d="M1335,-1775.9C1335,-1774.09 1322.9,-1772.62 1308,-1772.62 1293.1,-1772.62 1281,-1774.09 1281,-1775.9"/>
<text text-anchor="middle" x="1308" y="-1757.47" font-family="Times New Roman,serif" font-size="14.00">node8</text>
</g>
<!-- 19&#45;&gt;57 -->
<g id="edge47" class="edge">
<title>19&#45;&gt;57</title>
<path fill="none" stroke="black" d="M1302.12,-1815.22C1301.3,-1807.52 1301.06,-1798.2 1301.39,-1789.53"/>
<polygon fill="black" stroke="black" points="1304.89,-1789.66 1302.09,-1779.44 1297.91,-1789.18 1304.89,-1789.66"/>
</g>
<!-- 8 -->
<g id="node23" class="node">
<title>8</title>
<ellipse fill="none" stroke="black" cx="2190" cy="-1509.77" rx="49.3" ry="49.3"/>
<ellipse fill="none" stroke="black" cx="2190" cy="-1509.77" rx="53.29" ry="53.29"/>
<text text-anchor="middle" x="2190" y="-1506.07" font-family="Times New Roman,serif" font-size="14.00">package11</text>
</g>
<!-- 9 -->
<g id="node24" class="node">
<title>9</title>
<ellipse fill="none" stroke="black" cx="380" cy="-1905.17" rx="40.09" ry="18"/>
<text text-anchor="middle" x="380" y="-1901.47" font-family="Times New Roman,serif" font-size="14.00">artifact1</text>
</g>
<!-- 10&#45;&gt;72 -->
<g id="edge25" class="edge">
<title>10&#45;&gt;72</title>
<path fill="none" stroke="black" d="M1191.83,-1491.37C1190.05,-1474.87 1189.77,-1449.83 1191,-1430.67"/>
<polygon fill="black" stroke="black" points="1194.51,-1430.72 1191.87,-1420.46 1187.54,-1430.13 1194.51,-1430.72"/>
</g>
<!-- 10&#45;&gt;45 -->
<g id="edge24" class="edge">
<title>10&#45;&gt;45</title>
<path fill="none" stroke="black" d="M1224.18,-1521.77C1265.13,-1540.08 1341.97,-1576.92 1385.01,-1598.77"/>
<polygon fill="black" stroke="black" points="1383.67,-1602.02 1394.17,-1603.46 1386.86,-1595.78 1383.67,-1602.02"/>
</g>
<!-- 45&#45;&gt;46 -->
<g id="edge125" class="edge">
<title>45&#45;&gt;46</title>
<path fill="none" stroke="black" d="M1445.84,-1609.25C1531.5,-1590.66 1777.89,-1539.62 1879.98,-1519.29"/>
<polygon fill="black" stroke="black" points="1880.85,-1522.69 1889.98,-1517.31 1879.49,-1515.82 1880.85,-1522.69"/>
</g>
<!-- 45&#45;&gt;10 -->
<g id="edge126" class="edge">
<title>45&#45;&gt;10</title>
<path fill="none" stroke="black" d="M1389.96,-1605.68C1350.92,-1588.28 1277.54,-1553.15 1233.3,-1530.86"/>
<polygon fill="black" stroke="black" points="1234.83,-1527.71 1224.32,-1526.31 1231.66,-1533.95 1234.83,-1527.71"/>
</g>
<!-- 41 -->
<g id="node31" class="node">
<title>41</title>
<ellipse fill="none" stroke="black" cx="1308" cy="-1689.17" rx="33.29" ry="18"/>
<text text-anchor="middle" x="1308" y="-1685.47" font-family="Times New Roman,serif" font-size="14.00">node9</text>
</g>
<!-- 45&#45;&gt;41 -->
<g id="edge127" class="edge">
<title>45&#45;&gt;41</title>
<path fill="none" stroke="black" d="M1399.07,-1632.78C1383.29,-1643.92 1359.66,-1659.3 1340.34,-1671.03"/>
<polygon fill="black" stroke="black" points="1338.32,-1668.16 1331.54,-1676.3 1341.92,-1674.17 1338.32,-1668.16"/>
</g>
<!-- 11&#45;&gt;39 -->
<g id="edge28" class="edge">
<title>11&#45;&gt;39</title>
<path fill="none" stroke="black" d="M1472.71,-252.05C1476,-278.71 1476,-331.89 1476,-377 1476,-643.69 1476,-643.69 1476,-643.69 1476,-717.06 1486.23,-803.11 1488.76,-846.18"/>
<polygon fill="black" stroke="black" points="1485.28,-846.59 1489.24,-856.42 1492.27,-846.26 1485.28,-846.59"/>
</g>
<!-- 11&#45;&gt;49 -->
<g id="edge26" class="edge">
<title>11&#45;&gt;49</title>
<path fill="none" stroke="black" d="M1518.19,-241.24C1591.81,-253 1727.78,-284.43 1814,-360 1854.82,-395.78 1844.01,-420.91 1871,-468 1880.93,-485.32 1892.75,-504.38 1901.09,-519.25"/>
<polygon fill="black" stroke="black" points="1898.18,-521.22 1906.02,-528.35 1904.34,-517.89 1898.18,-521.22"/>
</g>
<!-- 71 -->
<g id="node28" class="node">
<title>71</title>
<ellipse fill="none" stroke="black" cx="1380" cy="-306" rx="50.09" ry="18"/>
<text text-anchor="middle" x="1380" y="-302.3" font-family="Times New Roman,serif" font-size="14.00">interface11</text>
</g>
<!-- 11&#45;&gt;71 -->
<g id="edge27" class="edge">
<title>11&#45;&gt;71</title>
<path fill="none" stroke="black" d="M1452.28,-251.54C1441.28,-261.24 1426.07,-273.6 1412.37,-283.98"/>
<polygon fill="black" stroke="black" points="1410.01,-281.37 1404.09,-290.15 1414.2,-286.99 1410.01,-281.37"/>
</g>
<!-- 71&#45;&gt;11 -->
<g id="edge193" class="edge">
<title>71&#45;&gt;11</title>
<path fill="none" stroke="black" d="M1394.78,-288.41C1405.63,-278.84 1420.58,-266.69 1434.13,-256.4"/>
<polygon fill="black" stroke="black" points="1436.41,-259.06 1442.33,-250.27 1432.22,-253.46 1436.41,-259.06"/>
</g>
<!-- 17 -->
<g id="node42" class="node">
<title>17</title>
<ellipse fill="none" stroke="black" cx="1216" cy="-234" rx="40.09" ry="18"/>
<text text-anchor="middle" x="1216" y="-230.3" font-family="Times New Roman,serif" font-size="14.00">artifact4</text>
</g>
<!-- 71&#45;&gt;17 -->
<g id="edge192" class="edge">
<title>71&#45;&gt;17</title>
<path fill="none" stroke="black" d="M1345.77,-292.65C1317.82,-281.45 1278.67,-264.82 1250.62,-252.3"/>
<polygon fill="black" stroke="black" points="1251.76,-248.98 1241.2,-248.06 1248.88,-255.36 1251.76,-248.98"/>
</g>
<!-- 21 -->
<g id="node44" class="node">
<title>21</title>
<ellipse fill="none" stroke="black" cx="1293" cy="-378" rx="46.29" ry="18"/>
<text text-anchor="middle" x="1293" y="-374.3" font-family="Times New Roman,serif" font-size="14.00">interface6</text>
</g>
<!-- 71&#45;&gt;21 -->
<g id="edge194" class="edge">
<title>71&#45;&gt;21</title>
<path fill="none" stroke="black" d="M1365.38,-323.45C1354.27,-333.26 1338.82,-345.8 1324.98,-356.28"/>
<polygon fill="black" stroke="black" points="1322.55,-353.72 1316.62,-362.5 1326.73,-359.34 1322.55,-353.72"/>
</g>
<!-- 12 -->
<g id="node29" class="node">
<title>12</title>
<ellipse fill="none" stroke="black" cx="847" cy="-1114.38" rx="37.89" ry="18"/>
<text text-anchor="middle" x="847" y="-1110.68" font-family="Times New Roman,serif" font-size="14.00">node11</text>
</g>
<!-- 51 -->
<g id="node30" class="node">
<title>51</title>
<ellipse fill="none" stroke="black" cx="820" cy="-1186.38" rx="38.19" ry="18"/>
<text text-anchor="middle" x="820" y="-1182.68" font-family="Times New Roman,serif" font-size="14.00">device1</text>
</g>
<!-- 12&#45;&gt;51 -->
<g id="edge29" class="edge">
<title>12&#45;&gt;51</title>
<path fill="none" stroke="black" d="M846.29,-1132.5C843.96,-1140.79 840.27,-1150.91 836.28,-1160.06"/>
<polygon fill="black" stroke="black" points="833.1,-1158.6 832.06,-1169.14 839.45,-1161.55 833.1,-1158.6"/>
</g>
<!-- 12&#45;&gt;41 -->
<g id="edge30" class="edge">
<title>12&#45;&gt;41</title>
<path fill="none" stroke="black" d="M862.4,-1131.18C868.27,-1141.5 873.64,-1155.41 876,-1168.38 894.6,-1270.35 866,-1297.73 866,-1401.38 866,-1510.77 866,-1510.77 866,-1510.77 866,-1597.38 1157.63,-1659.41 1267.19,-1680.39"/>
<polygon fill="black" stroke="black" points="1266.73,-1683.86 1277.21,-1682.29 1268.04,-1676.98 1266.73,-1683.86"/>
</g>
<!-- 51&#45;&gt;12 -->
<g id="edge146" class="edge">
<title>51&#45;&gt;12</title>
<path fill="none" stroke="black" d="M820.76,-1168.07C823.08,-1159.87 826.72,-1149.9 830.65,-1140.85"/>
<polygon fill="black" stroke="black" points="833.95,-1142.07 834.98,-1131.52 827.6,-1139.12 833.95,-1142.07"/>
</g>
<!-- 51&#45;&gt;32 -->
<g id="edge147" class="edge">
<title>51&#45;&gt;32</title>
<path fill="none" stroke="black" d="M785.38,-1194.63C725.91,-1206.22 603.26,-1229.13 522.28,-1243.82"/>
<polygon fill="black" stroke="black" points="521.34,-1240.44 512.13,-1245.66 522.59,-1247.32 521.34,-1240.44"/>
</g>
<!-- 41&#45;&gt;45 -->
<g id="edge113" class="edge">
<title>41&#45;&gt;45</title>
<path fill="none" stroke="black" d="M1325.27,-1673.32C1341.08,-1662.17 1364.61,-1646.87 1383.82,-1635.21"/>
<polygon fill="black" stroke="black" points="1385.78,-1638.11 1392.57,-1629.98 1382.19,-1632.11 1385.78,-1638.11"/>
</g>
<!-- 41&#45;&gt;12 -->
<g id="edge114" class="edge">
<title>41&#45;&gt;12</title>
<path fill="none" stroke="black" d="M1276.27,-1683.43C1172.05,-1666.05 848,-1602.06 848,-1510.77 848,-1510.77 848,-1510.77 848,-1401.38 848,-1297.73 876.6,-1270.35 858,-1168.38 856.39,-1159.57 853.4,-1150.33 850.62,-1142.08"/>
<polygon fill="black" stroke="black" points="853.93,-1140.95 847.43,-1132.59 847.3,-1143.18 853.93,-1140.95"/>
</g>
<!-- 15 -->
<g id="node39" class="node">
<title>15</title>
<ellipse fill="none" stroke="black" cx="388" cy="-1114.38" rx="95.58" ry="18"/>
<text text-anchor="middle" x="388" y="-1110.68" font-family="Times New Roman,serif" font-size="14.00">executionEnvironment9</text>
</g>
<!-- 41&#45;&gt;15 -->
<g id="edge116" class="edge">
<title>41&#45;&gt;15</title>
<path fill="none" stroke="black" d="M1274.93,-1687.35C1210.7,-1684.87 1066.26,-1674.88 953,-1635.17 651.48,-1529.44 489.91,-1553.01 330,-1276.38 304.39,-1232.07 336.76,-1173.03 362.65,-1140.15"/>
<polygon fill="black" stroke="black" points="365.39,-1142.32 369.05,-1132.38 359.99,-1137.87 365.39,-1142.32"/>
</g>
<!-- 41&#45;&gt;57 -->
<g id="edge117" class="edge">
<title>41&#45;&gt;57</title>
<path fill="none" stroke="black" d="M1313.9,-1707.27C1314.7,-1714.96 1314.94,-1724.22 1314.6,-1732.83"/>
<polygon fill="black" stroke="black" points="1311.11,-1732.65 1313.92,-1742.87 1318.09,-1733.13 1311.11,-1732.65"/>
</g>
<!-- 26 -->
<g id="node53" class="node">
<title>26</title>
<ellipse fill="none" stroke="black" cx="1403" cy="-1186.38" rx="55.79" ry="18"/>
<text text-anchor="middle" x="1403" y="-1182.68" font-family="Times New Roman,serif" font-size="14.00">component4</text>
</g>
<!-- 41&#45;&gt;26 -->
<g id="edge115" class="edge">
<title>41&#45;&gt;26</title>
<path fill="none" stroke="black" d="M1315.99,-1671.35C1326.46,-1651.12 1346.76,-1617.6 1374,-1599.17 1426.14,-1563.89 1472.55,-1613.02 1511,-1563.17 1580.06,-1473.62 1510.46,-1417.2 1468,-1312.38 1453.59,-1276.8 1432.42,-1237.86 1418.19,-1213.06"/>
<polygon fill="black" stroke="black" points="1421.15,-1211.18 1413.11,-1204.28 1415.09,-1214.69 1421.15,-1211.18"/>
</g>
<!-- 41&#45;&gt;25 -->
<g id="edge112" class="edge">
<title>41&#45;&gt;25</title>
<path fill="none" stroke="black" d="M1305.95,-1670.96C1304.88,-1613.62 1316.05,-1428.71 1324.52,-1358.64"/>
<polygon fill="black" stroke="black" points="1328.03,-1358.78 1325.85,-1348.41 1321.09,-1357.88 1328.03,-1358.78"/>
</g>
<!-- 13 -->
<g id="node32" class="node">
<title>13</title>
<ellipse fill="none" stroke="red" cx="2292" cy="-1977.17" rx="60.39" ry="18"/>
<text text-anchor="middle" x="2292" y="-1973.47" font-family="Times New Roman,serif" font-size="14.00">component10</text>
</g>
<!-- 13&#45;&gt;7 -->
<g id="edge33" class="edge">
<title>13&#45;&gt;7</title>
<path fill="none" stroke="black" d="M2233.76,-1972.03C2062.26,-1959.83 1559.67,-1924.07 1376.12,-1911.02"/>
<polygon fill="black" stroke="black" points="1376.28,-1907.52 1366.05,-1910.3 1375.78,-1914.5 1376.28,-1907.52"/>
</g>
<!-- 13&#45;&gt;6 -->
<g id="edge31" class="edge">
<title>13&#45;&gt;6</title>
<path fill="none" stroke="black" d="M2331.46,-1963.37C2382.24,-1944.12 2464,-1902.52 2464,-1834.17 2464,-1834.17 2464,-1834.17 2464,-1113.38 2464,-927.16 2552.35,-827.7 2420,-696.69 2390.01,-667.01 2083.99,-664.79 2042,-660.69 2006.44,-657.22 1966.7,-653.25 1934.59,-650.02"/>
<polygon fill="black" stroke="black" points="1934.75,-646.52 1924.45,-649 1934.05,-653.49 1934.75,-646.52"/>
</g>
<!-- 13&#45;&gt;9 -->
<g id="edge35" class="edge">
<title>13&#45;&gt;9</title>
<path fill="none" stroke="black" d="M2232.42,-1973.99C1944.07,-1963.43 696.52,-1917.76 430.16,-1908.01"/>
<polygon fill="black" stroke="black" points="430.13,-1904.5 420.01,-1907.63 429.88,-1911.5 430.13,-1904.5"/>
</g>
<!-- 70 -->
<g id="node33" class="node">
<title>70</title>
<ellipse fill="none" stroke="black" cx="2641" cy="-1186.38" rx="60.39" ry="18"/>
<text text-anchor="middle" x="2641" y="-1182.68" font-family="Times New Roman,serif" font-size="14.00">component15</text>
</g>
<!-- 13&#45;&gt;70 -->
<g id="edge32" class="edge">
<title>13&#45;&gt;70</title>
<path fill="none" stroke="black" d="M2336.54,-1964.8C2383,-1952.71 2452.54,-1933.87 2478,-1923.17 2551.58,-1892.23 2634,-1913.99 2634,-1834.17 2634,-1834.17 2634,-1834.17 2634,-1329.38 2634,-1289.33 2636.81,-1243 2638.87,-1214.44"/>
<polygon fill="black" stroke="black" points="2642.37,-1214.65 2639.62,-1204.41 2635.39,-1214.13 2642.37,-1214.65"/>
</g>
<!-- 13&#45;&gt;74 -->
<g id="edge34" class="edge">
<title>13&#45;&gt;74</title>
<path fill="none" stroke="black" d="M2295.84,-1958.78C2301.4,-1932.11 2311,-1879.44 2311,-1834.17 2311,-1834.17 2311,-1834.17 2311,-1401.38 2311,-1284.28 2232.02,-942.96 2199.12,-805.85"/>
<polygon fill="black" stroke="black" points="2202.48,-804.85 2196.74,-795.94 2195.68,-806.49 2202.48,-804.85"/>
</g>
<!-- 16 -->
<g id="node35" class="node">
<title>16</title>
<ellipse fill="none" stroke="black" cx="2351" cy="-746.84" rx="60.39" ry="18"/>
<text text-anchor="middle" x="2351" y="-743.14" font-family="Times New Roman,serif" font-size="14.00">component11</text>
</g>
<!-- 13&#45;&gt;16 -->
<g id="edge36" class="edge">
<title>13&#45;&gt;16</title>
<path fill="none" stroke="black" d="M2288.16,-1958.78C2282.6,-1932.11 2273,-1879.44 2273,-1834.17 2273,-1834.17 2273,-1834.17 2273,-1401.38 2273,-1300.3 2350,-1288.46 2350,-1187.38 2350,-1187.38 2350,-1187.38 2350,-969.38 2350,-899.47 2350.5,-817.16 2350.8,-775.29"/>
<polygon fill="black" stroke="black" points="2354.3,-775.1 2350.87,-765.07 2347.3,-775.05 2354.3,-775.1"/>
</g>
<!-- 74&#45;&gt;39 -->
<g id="edge202" class="edge">
<title>74&#45;&gt;39</title>
<path fill="none" stroke="black" d="M2135.64,-756.07C2024.37,-773.71 1757.21,-814.99 1667,-832.99 1624.87,-841.39 1577.37,-852.86 1541.65,-861.48"/>
<polygon fill="black" stroke="black" points="1540.8,-858.08 1531.9,-863.83 1542.44,-864.89 1540.8,-858.08"/>
</g>
<!-- 61 -->
<g id="node63" class="node">
<title>61</title>
<ellipse fill="none" stroke="black" cx="1750" cy="-378" rx="46.29" ry="18"/>
<text text-anchor="middle" x="1750" y="-374.3" font-family="Times New Roman,serif" font-size="14.00">interface7</text>
</g>
<!-- 74&#45;&gt;61 -->
<g id="edge203" class="edge">
<title>74&#45;&gt;61</title>
<path fill="none" stroke="black" d="M2168.14,-699.4C2145.68,-629.69 2099.32,-499.04 2009,-432 1976.78,-408.09 1870.08,-392.63 1804.03,-384.9"/>
<polygon fill="black" stroke="black" points="1804.12,-381.39 1793.79,-383.73 1803.33,-388.34 1804.12,-381.39"/>
</g>
<!-- 14 -->
<g id="node36" class="node">
<title>14</title>
<ellipse fill="none" stroke="red" cx="2553" cy="-1258.38" rx="46.29" ry="18"/>
<text text-anchor="middle" x="2553" y="-1254.68" font-family="Times New Roman,serif" font-size="14.00">interface8</text>
</g>
<!-- 14&#45;&gt;70 -->
<g id="edge37" class="edge">
<title>14&#45;&gt;70</title>
<path fill="none" stroke="black" d="M2572.53,-1241.84C2584.44,-1232.37 2599.85,-1220.11 2613.04,-1209.62"/>
<polygon fill="black" stroke="black" points="2615.27,-1212.32 2620.91,-1203.36 2610.91,-1206.84 2615.27,-1212.32"/>
</g>
<!-- 68 -->
<g id="node37" class="node">
<title>68</title>
<ellipse fill="none" stroke="black" cx="1251" cy="-18" rx="55.79" ry="18"/>
<text text-anchor="middle" x="1251" y="-14.3" font-family="Times New Roman,serif" font-size="14.00">component3</text>
</g>
<!-- 14&#45;&gt;68 -->
<g id="edge38" class="edge">
<title>14&#45;&gt;68</title>
<path fill="none" stroke="black" d="M2553,-1240.33C2553,-1213.67 2553,-1160.49 2553,-1115.38 2553,-1115.38 2553,-1115.38 2553,-161 2553,-122.5 2727.54,-156.94 2364,-72 2163.24,-25.09 1525.19,-19.56 1317.23,-19.02"/>
<polygon fill="black" stroke="black" points="1317.08,-15.51 1307.07,-18.99 1317.06,-22.51 1317.08,-15.51"/>
</g>
<!-- 36 -->
<g id="node38" class="node">
<title>36</title>
<ellipse fill="none" stroke="black" cx="1887" cy="-1186.38" rx="40.09" ry="18"/>
<text text-anchor="middle" x="1887" y="-1182.68" font-family="Times New Roman,serif" font-size="14.00">artifact5</text>
</g>
<!-- 14&#45;&gt;36 -->
<g id="edge39" class="edge">
<title>14&#45;&gt;36</title>
<path fill="none" stroke="black" d="M2509.04,-1252.76C2389.75,-1240.22 2060.5,-1205.61 1935.76,-1192.5"/>
<polygon fill="black" stroke="black" points="1936.05,-1189.01 1925.73,-1191.45 1935.31,-1195.98 1936.05,-1189.01"/>
</g>
<!-- 68&#45;&gt;68 -->
<g id="edge190" class="edge">
<title>68&#45;&gt;68</title>
<path fill="none" stroke="black" d="M1289.4,-31.14C1308.21,-32.86 1324.9,-28.48 1324.9,-18 1324.9,-9.49 1313.88,-5 1299.66,-4.54"/>
<polygon fill="black" stroke="black" points="1299.28,-1.05 1289.4,-4.86 1299.5,-8.05 1299.28,-1.05"/>
</g>
<!-- 40 -->
<g id="node49" class="node">
<title>40</title>
<ellipse fill="none" stroke="black" cx="1251" cy="-90" rx="55.79" ry="18"/>
<text text-anchor="middle" x="1251" y="-86.3" font-family="Times New Roman,serif" font-size="14.00">component6</text>
</g>
<!-- 68&#45;&gt;40 -->
<g id="edge191" class="edge">
<title>68&#45;&gt;40</title>
<path fill="none" stroke="black" d="M1256.91,-36.28C1257.71,-44.03 1257.94,-53.36 1257.59,-62.01"/>
<polygon fill="black" stroke="black" points="1254.09,-61.83 1256.88,-72.05 1261.08,-62.33 1254.09,-61.83"/>
</g>
<!-- 15&#45;&gt;41 -->
<g id="edge41" class="edge">
<title>15&#45;&gt;41</title>
<path fill="none" stroke="black" d="M379.69,-1132.38C360.67,-1162.91 320.22,-1228.32 348,-1276.38 507.91,-1553.01 669.48,-1529.44 971,-1635.17 1072.58,-1670.79 1199.25,-1682.49 1264.66,-1686.32"/>
<polygon fill="black" stroke="black" points="1264.83,-1689.83 1275.01,-1686.89 1265.21,-1682.85 1264.83,-1689.83"/>
</g>
<!-- 58 -->
<g id="node40" class="node">
<title>58</title>
<ellipse fill="none" stroke="black" cx="500" cy="-1186.38" rx="95.58" ry="18"/>
<text text-anchor="middle" x="500" y="-1182.68" font-family="Times New Roman,serif" font-size="14.00">executionEnvironment8</text>
</g>
<!-- 15&#45;&gt;58 -->
<g id="edge40" class="edge">
<title>15&#45;&gt;58</title>
<path fill="none" stroke="black" d="M419.77,-1131.61C435.74,-1140.94 454.9,-1152.8 470.54,-1163"/>
<polygon fill="black" stroke="black" points="469.03,-1166.2 479.3,-1168.79 472.88,-1160.36 469.03,-1166.2"/>
</g>
<!-- 15&#45;&gt;32 -->
<g id="edge42" class="edge">
<title>15&#45;&gt;32</title>
<path fill="none" stroke="black" d="M392.75,-1132.58C393.81,-1151.11 393.81,-1181.09 404,-1204.38 408.64,-1214.99 416.32,-1224.85 423.82,-1233.12"/>
<polygon fill="black" stroke="black" points="421.42,-1235.68 430.84,-1240.53 426.5,-1230.86 421.42,-1235.68"/>
</g>
<!-- 58&#45;&gt;15 -->
<g id="edge167" class="edge">
<title>58&#45;&gt;15</title>
<path fill="none" stroke="black" d="M468.52,-1169.32C452.42,-1159.92 433.02,-1147.91 417.24,-1137.61"/>
<polygon fill="black" stroke="black" points="419.16,-1134.69 408.89,-1132.09 415.3,-1140.53 419.16,-1134.69"/>
</g>
<!-- 58&#45;&gt;32 -->
<g id="edge168" class="edge">
<title>58&#45;&gt;32</title>
<path fill="none" stroke="black" d="M492.09,-1204.65C486.22,-1213.09 478.16,-1223.39 470.27,-1232.65"/>
<polygon fill="black" stroke="black" points="467.4,-1230.61 463.43,-1240.43 472.66,-1235.23 467.4,-1230.61"/>
</g>
<!-- 32&#45;&gt;48 -->
<g id="edge88" class="edge">
<title>32&#45;&gt;48</title>
<path fill="none" stroke="black" d="M479.73,-1275.16C501.17,-1285.79 527.98,-1299.85 548.09,-1310.99"/>
<polygon fill="black" stroke="black" points="546.38,-1314.05 556.81,-1315.88 549.8,-1307.94 546.38,-1314.05"/>
</g>
<!-- 32&#45;&gt;51 -->
<g id="edge86" class="edge">
<title>32&#45;&gt;51</title>
<path fill="none" stroke="black" d="M506.75,-1244.7C582.3,-1230.24 707.21,-1207.04 774.25,-1195.07"/>
<polygon fill="black" stroke="black" points="774.87,-1198.52 784.1,-1193.32 773.65,-1191.63 774.87,-1198.52"/>
</g>
<!-- 32&#45;&gt;15 -->
<g id="edge89" class="edge">
<title>32&#45;&gt;15</title>
<path fill="none" stroke="black" d="M415.34,-1240.99C403.92,-1231.49 392.23,-1218.61 386,-1204.38 377.48,-1184.91 376.08,-1160.77 378,-1142.54"/>
<polygon fill="black" stroke="black" points="381.47,-1142.98 379.48,-1132.58 374.55,-1141.95 381.47,-1142.98"/>
</g>
<!-- 32&#45;&gt;58 -->
<g id="edge87" class="edge">
<title>32&#45;&gt;58</title>
<path fill="none" stroke="black" d="M451.68,-1240.43C457.64,-1231.84 465.93,-1221.23 474.02,-1211.78"/>
<polygon fill="black" stroke="black" points="476.73,-1213.99 480.71,-1204.17 471.47,-1209.36 476.73,-1213.99"/>
</g>
<!-- 17&#45;&gt;71 -->
<g id="edge44" class="edge">
<title>17&#45;&gt;71</title>
<path fill="none" stroke="black" d="M1246.4,-245.82C1273.73,-256.69 1313.74,-273.62 1342.92,-286.6"/>
<polygon fill="black" stroke="black" points="1341.8,-289.94 1352.36,-290.83 1344.67,-283.55 1341.8,-289.94"/>
</g>
<!-- 17&#45;&gt;44 -->
<g id="edge43" class="edge">
<title>17&#45;&gt;44</title>
<path fill="none" stroke="black" d="M1208.67,-216.05C1207.19,-208.35 1206.15,-199.03 1205.74,-190.36"/>
<polygon fill="black" stroke="black" points="1209.24,-190.21 1205.57,-180.28 1202.24,-190.33 1209.24,-190.21"/>
</g>
<!-- 17&#45;&gt;21 -->
<g id="edge45" class="edge">
<title>17&#45;&gt;21</title>
<path fill="none" stroke="black" d="M1229.34,-251.31C1245.2,-275.62 1270.43,-321.61 1284.12,-350.71"/>
<polygon fill="black" stroke="black" points="1280.97,-352.22 1288.3,-359.87 1287.34,-349.32 1280.97,-352.22"/>
</g>
<!-- 44&#45;&gt;48 -->
<g id="edge123" class="edge">
<title>44&#45;&gt;48</title>
<path fill="none" stroke="black" d="M1164.56,-165.24C978.95,-174.68 289,-214.96 289,-305 289,-643.69 289,-643.69 289,-643.69 289,-851.08 371.1,-897.13 499,-1060.38 542.24,-1115.57 586.15,-1104.03 614,-1168.38 624.34,-1192.27 605.46,-1264.65 590.63,-1303.72"/>
<polygon fill="black" stroke="black" points="587.34,-1302.52 586.87,-1313.11 593.84,-1305.13 587.34,-1302.52"/>
</g>
<!-- 44&#45;&gt;17 -->
<g id="edge122" class="edge">
<title>44&#45;&gt;17</title>
<path fill="none" stroke="black" d="M1217.3,-179.79C1218.81,-187.59 1219.86,-197.07 1220.27,-205.85"/>
<polygon fill="black" stroke="black" points="1216.77,-206.11 1220.43,-216.05 1223.77,-206 1216.77,-206.11"/>
</g>
<!-- 44&#45;&gt;40 -->
<g id="edge124" class="edge">
<title>44&#45;&gt;40</title>
<path fill="none" stroke="black" d="M1214.05,-144.05C1218.05,-135.71 1223.82,-125.49 1229.7,-116.25"/>
<polygon fill="black" stroke="black" points="1232.7,-118.06 1235.3,-107.79 1226.86,-114.19 1232.7,-118.06"/>
</g>
<!-- 21&#45;&gt;71 -->
<g id="edge51" class="edge">
<title>21&#45;&gt;71</title>
<path fill="none" stroke="black" d="M1307.38,-360.76C1318.34,-351.07 1333.64,-338.64 1347.43,-328.17"/>
<polygon fill="black" stroke="black" points="1349.84,-330.74 1355.77,-321.95 1345.66,-325.13 1349.84,-330.74"/>
</g>
<!-- 21&#45;&gt;17 -->
<g id="edge50" class="edge">
<title>21&#45;&gt;17</title>
<path fill="none" stroke="black" d="M1279.67,-360.71C1263.79,-336.36 1238.49,-290.24 1224.8,-261.14"/>
<polygon fill="black" stroke="black" points="1227.96,-259.63 1220.64,-251.98 1221.59,-262.53 1227.96,-259.63"/>
</g>
<!-- 21&#45;&gt;60 -->
<g id="edge52" class="edge">
<title>21&#45;&gt;60</title>
<path fill="none" stroke="black" d="M1333.87,-386.41C1397.67,-398.76 1520.38,-423.61 1588.87,-438"/>
<polygon fill="black" stroke="black" points="1588.47,-441.5 1598.98,-440.13 1589.92,-434.65 1588.47,-441.5"/>
</g>
<!-- 21&#45;&gt;40 -->
<g id="edge53" class="edge">
<title>21&#45;&gt;40</title>
<path fill="none" stroke="black" d="M1287.06,-359.92C1279.78,-321.23 1271.3,-224.03 1256,-144 1254.37,-135.46 1252.11,-126.26 1250.3,-117.96"/>
<polygon fill="black" stroke="black" points="1253.72,-117.17 1248.33,-108.05 1246.85,-118.54 1253.72,-117.17"/>
</g>
<!-- 21&#45;&gt;28 -->
<g id="edge54" class="edge">
<title>21&#45;&gt;28</title>
<path fill="none" stroke="black" d="M1246.79,-379.81C1109.54,-382.54 706.73,-393.57 581,-432 484.03,-461.64 383,-443.95 383,-545.35 383,-643.69 383,-643.69 383,-643.69 383,-741.74 461.62,-988.22 528,-1060.38 554.67,-1089.37 577.94,-1072.15 609,-1096.38 658.11,-1134.69 699.11,-1196.14 717.13,-1231"/>
<polygon fill="black" stroke="black" points="714.04,-1232.65 721.59,-1240.08 720.32,-1229.56 714.04,-1232.65"/>
</g>
<!-- 18 -->
<g id="node45" class="node">
<title>18</title>
<ellipse fill="none" stroke="black" cx="2070" cy="-1509.77" rx="44.71" ry="44.71"/>
<ellipse fill="none" stroke="black" cx="2070" cy="-1509.77" rx="48.69" ry="48.69"/>
<text text-anchor="middle" x="2070" y="-1506.07" font-family="Times New Roman,serif" font-size="14.00">package1</text>
</g>
<!-- 57&#45;&gt;19 -->
<g id="edge165" class="edge">
<title>57&#45;&gt;19</title>
<path fill="none" stroke="black" d="M1313.91,-1779.44C1314.71,-1787.2 1314.94,-1796.53 1314.59,-1805.17"/>
<polygon fill="black" stroke="black" points="1311.09,-1805 1313.88,-1815.22 1318.08,-1805.5 1311.09,-1805"/>
</g>
<!-- 57&#45;&gt;41 -->
<g id="edge166" class="edge">
<title>57&#45;&gt;41</title>
<path fill="none" stroke="black" d="M1302.08,-1742.87C1301.29,-1735.15 1301.06,-1725.88 1301.4,-1717.28"/>
<polygon fill="black" stroke="black" points="1304.9,-1717.49 1302.1,-1707.27 1297.92,-1717.01 1304.9,-1717.49"/>
</g>
<!-- 20&#45;&gt;49 -->
<g id="edge48" class="edge">
<title>20&#45;&gt;49</title>
<path fill="none" stroke="black" d="M1932.54,-468.04C1930.97,-482.09 1926.75,-502.28 1922.14,-518.5"/>
<polygon fill="black" stroke="black" points="1918.66,-517.89 1919.07,-528.48 1925.35,-519.95 1918.66,-517.89"/>
</g>
<!-- 20&#45;&gt;20 -->
<g id="edge49" class="edge">
<title>20&#45;&gt;20</title>
<path fill="none" stroke="black" d="M1972.57,-463.2C1992.2,-464.74 2009.44,-460.34 2009.44,-450 2009.44,-441.52 1997.84,-437.04 1982.83,-436.55"/>
<polygon fill="black" stroke="black" points="1982.48,-433.05 1972.57,-436.8 1982.65,-440.05 1982.48,-433.05"/>
</g>
<!-- 60&#45;&gt;49 -->
<g id="edge170" class="edge">
<title>60&#45;&gt;49</title>
<path fill="none" stroke="black" d="M1680.51,-457.31C1724.18,-465.24 1793.12,-480.7 1849,-504 1861.62,-509.26 1874.71,-516.46 1885.63,-523.38"/>
<polygon fill="black" stroke="black" points="1883.95,-526.47 1894.22,-529.08 1887.82,-520.64 1883.95,-526.47"/>
</g>
<!-- 60&#45;&gt;21 -->
<g id="edge172" class="edge">
<title>60&#45;&gt;21</title>
<path fill="none" stroke="black" d="M1597.05,-441.58C1533.17,-429.21 1410.33,-404.33 1341.91,-389.95"/>
<polygon fill="black" stroke="black" points="1342.32,-386.46 1331.82,-387.82 1340.88,-393.31 1342.32,-386.46"/>
</g>
<!-- 60&#45;&gt;61 -->
<g id="edge171" class="edge">
<title>60&#45;&gt;61</title>
<path fill="none" stroke="black" d="M1661.48,-434.33C1677.76,-424.15 1699.64,-410.47 1717.58,-399.26"/>
<polygon fill="black" stroke="black" points="1719.93,-401.92 1726.55,-393.65 1716.22,-395.99 1719.93,-401.92"/>
</g>
<!-- 40&#45;&gt;68 -->
<g id="edge110" class="edge">
<title>40&#45;&gt;68</title>
<path fill="none" stroke="black" d="M1245.12,-72.05C1244.3,-64.35 1244.06,-55.03 1244.39,-46.36"/>
<polygon fill="black" stroke="black" points="1247.89,-46.49 1245.09,-36.28 1240.91,-46.01 1247.89,-46.49"/>
</g>
<!-- 40&#45;&gt;44 -->
<g id="edge109" class="edge">
<title>40&#45;&gt;44</title>
<path fill="none" stroke="black" d="M1246.87,-108.12C1242.8,-116.59 1236.92,-126.96 1230.97,-136.26"/>
<polygon fill="black" stroke="black" points="1227.94,-134.5 1225.31,-144.76 1233.77,-138.38 1227.94,-134.5"/>
</g>
<!-- 40&#45;&gt;21 -->
<g id="edge111" class="edge">
<title>40&#45;&gt;21</title>
<path fill="none" stroke="black" d="M1263.78,-107.57C1267.99,-117.96 1271.64,-131.66 1274,-144 1288.11,-217.78 1296.42,-306.15 1296.6,-349.82"/>
<polygon fill="black" stroke="black" points="1293.1,-349.87 1296.47,-359.92 1300.1,-349.96 1293.1,-349.87"/>
</g>
<!-- 28&#45;&gt;48 -->
<g id="edge75" class="edge">
<title>28&#45;&gt;48</title>
<path fill="none" stroke="black" d="M699.66,-1274.41C675.41,-1286.51 639.46,-1303.38 612.67,-1315.23"/>
<polygon fill="black" stroke="black" points="611.01,-1312.13 603.25,-1319.35 613.81,-1318.55 611.01,-1312.13"/>
</g>
<!-- 28&#45;&gt;21 -->
<g id="edge76" class="edge">
<title>28&#45;&gt;21</title>
<path fill="none" stroke="black" d="M711.53,-1240.58C689.2,-1208.62 645.01,-1138.51 591,-1096.38 559.94,-1072.15 536.67,-1089.37 510,-1060.38 443.62,-988.22 365,-741.74 365,-643.69 365,-643.69 365,-643.69 365,-545.35 365,-443.95 466.03,-461.64 563,-432 688.13,-393.75 1087.68,-382.65 1236.52,-379.85"/>
<polygon fill="black" stroke="black" points="1236.86,-383.34 1246.8,-379.66 1236.74,-376.34 1236.86,-383.34"/>
</g>
<!-- 28&#45;&gt;26 -->
<g id="edge74" class="edge">
<title>28&#45;&gt;26</title>
<path fill="none" stroke="black" d="M778.05,-1251.59C900.75,-1238.52 1207.39,-1206.81 1340.16,-1193.46"/>
<polygon fill="black" stroke="black" points="1340.58,-1196.94 1350.18,-1192.46 1339.88,-1189.97 1340.58,-1196.94"/>
</g>
<!-- 22 -->
<g id="node51" class="node">
<title>22</title>
<ellipse fill="none" stroke="red" cx="121" cy="-1977.17" rx="95.58" ry="18"/>
<text text-anchor="middle" x="121" y="-1973.47" font-family="Times New Roman,serif" font-size="14.00">executionEnvironment3</text>
</g>
<!-- 22&#45;&gt;1 -->
<g id="edge56" class="edge">
<title>22&#45;&gt;1</title>
<path fill="none" stroke="black" d="M102.99,-1959.23C78.58,-1934.34 38,-1885.28 38,-1834.17 38,-1834.17 38,-1834.17 38,-1113.38 38,-789.26 503.82,-607.24 643.73,-559.88"/>
<polygon fill="black" stroke="black" points="645.24,-563.07 653.61,-556.58 643.02,-556.43 645.24,-563.07"/>
</g>
<!-- 22&#45;&gt;9 -->
<g id="edge55" class="edge">
<title>22&#45;&gt;9</title>
<path fill="none" stroke="black" d="M173.41,-1962C221.37,-1949.04 291.51,-1930.09 336.46,-1917.94"/>
<polygon fill="black" stroke="black" points="337.46,-1921.29 346.2,-1915.3 335.64,-1914.53 337.46,-1921.29"/>
</g>
<!-- 23 -->
<g id="node52" class="node">
<title>23</title>
<ellipse fill="none" stroke="red" cx="1527" cy="-1258.38" rx="60.39" ry="18"/>
<text text-anchor="middle" x="1527" y="-1254.68" font-family="Times New Roman,serif" font-size="14.00">component13</text>
</g>
<!-- 23&#45;&gt;36 -->
<g id="edge58" class="edge">
<title>23&#45;&gt;36</title>
<path fill="none" stroke="black" d="M1576.3,-1247.79C1646.09,-1234.22 1772.74,-1209.6 1840.8,-1196.36"/>
<polygon fill="black" stroke="black" points="1841.65,-1199.76 1850.8,-1194.42 1840.31,-1192.89 1841.65,-1199.76"/>
</g>
<!-- 23&#45;&gt;40 -->
<g id="edge59" class="edge">
<title>23&#45;&gt;40</title>
<path fill="none" stroke="black" d="M1474.97,-1249.11C1435.66,-1241.4 1381.27,-1227.52 1338,-1204.38 1327.77,-1198.91 712.66,-668.41 704,-660.69 601.41,-569.37 477,-588.35 477,-451 477,-451 477,-451 477,-233 477,-161.01 1001.64,-111.31 1187.04,-95.99"/>
<polygon fill="black" stroke="black" points="1187.51,-99.46 1197.19,-95.16 1186.94,-92.49 1187.51,-99.46"/>
</g>
<!-- 23&#45;&gt;26 -->
<g id="edge57" class="edge">
<title>23&#45;&gt;26</title>
<path fill="none" stroke="black" d="M1500.09,-1242.19C1482.02,-1231.98 1458,-1218.43 1438.38,-1207.35"/>
<polygon fill="black" stroke="black" points="1439.86,-1204.17 1429.43,-1202.3 1436.42,-1210.26 1439.86,-1204.17"/>
</g>
<!-- 26&#45;&gt;28 -->
<g id="edge70" class="edge">
<title>26&#45;&gt;28</title>
<path fill="none" stroke="black" d="M1350.79,-1193.18C1227.93,-1206.27 921.3,-1237.98 788.68,-1251.31"/>
<polygon fill="black" stroke="black" points="788.27,-1247.83 778.67,-1252.32 788.97,-1254.8 788.27,-1247.83"/>
</g>
<!-- 26&#45;&gt;26 -->
<g id="edge68" class="edge">
<title>26&#45;&gt;26</title>
<path fill="none" stroke="black" d="M1441.4,-1199.51C1460.21,-1201.23 1476.9,-1196.85 1476.9,-1186.38 1476.9,-1177.87 1465.88,-1173.38 1451.66,-1172.92"/>
<polygon fill="black" stroke="black" points="1451.28,-1169.43 1441.4,-1173.24 1451.5,-1176.42 1451.28,-1169.43"/>
</g>
<!-- 26&#45;&gt;33 -->
<g id="edge69" class="edge">
<title>26&#45;&gt;33</title>
<path fill="none" stroke="black" d="M1388.15,-1168.79C1382.97,-1160.83 1377.44,-1151.1 1372.94,-1142.13"/>
<polygon fill="black" stroke="black" points="1375.98,-1140.37 1368.54,-1132.83 1369.65,-1143.36 1375.98,-1140.37"/>
</g>
<!-- 24 -->
<g id="node54" class="node">
<title>24</title>
<ellipse fill="none" stroke="red" cx="334" cy="-1617.17" rx="38.19" ry="18"/>
<text text-anchor="middle" x="334" y="-1613.47" font-family="Times New Roman,serif" font-size="14.00">device7</text>
</g>
<!-- 24&#45;&gt;31 -->
<g id="edge61" class="edge">
<title>24&#45;&gt;31</title>
<path fill="none" stroke="black" d="M309.89,-1602.87C294.71,-1593.47 275.66,-1579.63 263,-1563.17 195.33,-1475.18 170,-1442.38 170,-1331.38 170,-1331.38 170,-1331.38 170,-1185.38 170,-914.84 243.73,-840.42 407,-624.69 459.01,-555.97 544.06,-498.6 590.74,-470.19"/>
<polygon fill="black" stroke="black" points="592.78,-473.05 599.55,-464.9 589.17,-467.05 592.78,-473.05"/>
</g>
<!-- 24&#45;&gt;72 -->
<g id="edge62" class="edge">
<title>24&#45;&gt;72</title>
<path fill="none" stroke="black" d="M367.04,-1608.02C502,-1574.75 1011.22,-1449.19 1157.49,-1413.12"/>
<polygon fill="black" stroke="black" points="1158.51,-1416.47 1167.38,-1410.68 1156.84,-1409.68 1158.51,-1416.47"/>
</g>
<!-- 24&#45;&gt;66 -->
<g id="edge63" class="edge">
<title>24&#45;&gt;66</title>
<path fill="none" stroke="black" d="M325.11,-1599.3C289.7,-1529.55 166.21,-1259.78 283,-1096.38 318.92,-1046.12 752.2,-940.66 809,-916.38 919.72,-869.04 1044.56,-799.46 1101.98,-766.49"/>
<polygon fill="black" stroke="black" points="1104.01,-769.36 1110.93,-761.33 1100.52,-763.29 1104.01,-769.36"/>
</g>
<!-- 24&#45;&gt;10 -->
<g id="edge65" class="edge">
<title>24&#45;&gt;10</title>
<path fill="none" stroke="black" d="M372.54,-1616.5C479.27,-1616.74 787.29,-1612.71 1037,-1563.17 1080.39,-1554.56 1128.4,-1537.82 1160.4,-1525.57"/>
<polygon fill="black" stroke="black" points="1161.73,-1528.8 1169.79,-1521.92 1159.2,-1522.28 1161.73,-1528.8"/>
</g>
<!-- 24&#45;&gt;51 -->
<g id="edge60" class="edge">
<title>24&#45;&gt;51</title>
<path fill="none" stroke="black" d="M340.02,-1599.12C356.14,-1556.03 404.52,-1442.15 484,-1384.38 534.23,-1347.87 560.22,-1368.41 619,-1348.38 638.61,-1341.69 776.96,-1291.61 791,-1276.38 806.61,-1259.44 813.83,-1233.97 817.16,-1214.61"/>
<polygon fill="black" stroke="black" points="820.64,-1214.99 818.63,-1204.58 813.71,-1213.96 820.64,-1214.99"/>
</g>
<!-- 24&#45;&gt;68 -->
<g id="edge64" class="edge">
<title>24&#45;&gt;68</title>
<path fill="none" stroke="black" d="M297.94,-1610.7C211.57,-1595.36 0,-1543.47 0,-1403.38 0,-1403.38 0,-1403.38 0,-161 0,-40.6 926.59,-22.26 1184.87,-19.49"/>
<polygon fill="black" stroke="black" points="1185.26,-22.99 1195.23,-19.38 1185.19,-15.99 1185.26,-22.99"/>
</g>
<!-- 25&#45;&gt;72 -->
<g id="edge66" class="edge">
<title>25&#45;&gt;72</title>
<path fill="none" stroke="black" d="M1304.66,-1347.78C1283.9,-1359.38 1254.49,-1374.83 1231.58,-1386.17"/>
<polygon fill="black" stroke="black" points="1229.97,-1383.06 1222.53,-1390.59 1233.05,-1389.35 1229.97,-1383.06"/>
</g>
<!-- 25&#45;&gt;41 -->
<g id="edge67" class="edge">
<title>25&#45;&gt;41</title>
<path fill="none" stroke="black" d="M1332.05,-1348.41C1333.15,-1405.5 1321.98,-1590.4 1313.51,-1660.7"/>
<polygon fill="black" stroke="black" points="1309.99,-1660.59 1312.17,-1670.96 1316.93,-1661.5 1309.99,-1660.59"/>
</g>
<!-- 33&#45;&gt;42 -->
<g id="edge90" class="edge">
<title>33&#45;&gt;42</title>
<path fill="none" stroke="black" d="M1348.07,-1097.14C1341.42,-1088.82 1334.09,-1078.48 1328.11,-1069.1"/>
<polygon fill="black" stroke="black" points="1331.05,-1067.21 1322.85,-1060.5 1325.08,-1070.86 1331.05,-1067.21"/>
</g>
<!-- 33&#45;&gt;26 -->
<g id="edge91" class="edge">
<title>33&#45;&gt;26</title>
<path fill="none" stroke="black" d="M1379.87,-1132C1385.07,-1139.99 1390.62,-1149.76 1395.12,-1158.75"/>
<polygon fill="black" stroke="black" points="1392.09,-1160.53 1399.52,-1168.07 1398.42,-1157.54 1392.09,-1160.53"/>
</g>
<!-- 52 -->
<g id="node60" class="node">
<title>52</title>
<ellipse fill="none" stroke="black" cx="1470" cy="-1042.38" rx="33.29" ry="18"/>
<text text-anchor="middle" x="1470" y="-1038.68" font-family="Times New Roman,serif" font-size="14.00">node1</text>
</g>
<!-- 33&#45;&gt;52 -->
<g id="edge92" class="edge">
<title>33&#45;&gt;52</title>
<path fill="none" stroke="black" d="M1388.3,-1097.84C1403.9,-1087.44 1424.54,-1073.68 1441.18,-1062.59"/>
<polygon fill="black" stroke="black" points="1443.57,-1065.21 1449.95,-1056.75 1439.68,-1059.38 1443.57,-1065.21"/>
</g>
<!-- 29 -->
<g id="node57" class="node">
<title>29</title>
<ellipse fill="none" stroke="red" cx="999" cy="-1402.38" rx="33.29" ry="18"/>
<text text-anchor="middle" x="999" y="-1398.68" font-family="Times New Roman,serif" font-size="14.00">node7</text>
</g>
<!-- 29&#45;&gt;4 -->
<g id="edge78" class="edge">
<title>29&#45;&gt;4</title>
<path fill="none" stroke="black" d="M970.53,-1392.93C929.1,-1380.65 851.94,-1357.76 804.27,-1343.62"/>
<polygon fill="black" stroke="black" points="805.16,-1340.23 794.57,-1340.74 803.17,-1346.94 805.16,-1340.23"/>
</g>
<!-- 29&#45;&gt;1 -->
<g id="edge83" class="edge">
<title>29&#45;&gt;1</title>
<path fill="none" stroke="black" d="M996.08,-1384.38C989.42,-1345.86 972.39,-1249 956,-1168.38 949.47,-1136.25 951.47,-1127.09 940,-1096.38 862.93,-890.08 777.4,-868.32 704,-660.69 693.98,-632.35 688.49,-598.24 685.66,-574.9"/>
<polygon fill="black" stroke="black" points="689.11,-574.22 684.51,-564.68 682.15,-575.01 689.11,-574.22"/>
</g>
<!-- 29&#45;&gt;2 -->
<g id="edge82" class="edge">
<title>29&#45;&gt;2</title>
<path fill="none" stroke="black" d="M1011.96,-1385.8C1019.42,-1375.8 1028.07,-1362.13 1032,-1348.38 1053.99,-1271.46 1035.08,-1248.32 1032,-1168.38 1022.66,-926.2 1053.91,-858.47 990,-624.69 987.04,-613.86 982.55,-602.74 977.68,-592.42"/>
<polygon fill="black" stroke="black" points="980.7,-590.63 973.14,-583.2 974.42,-593.72 980.7,-590.63"/>
</g>
<!-- 29&#45;&gt;31 -->
<g id="edge80" class="edge">
<title>29&#45;&gt;31</title>
<path fill="none" stroke="black" d="M992.77,-1384.22C989.03,-1373.85 984.2,-1360.37 980,-1348.38 940.92,-1236.67 977.49,-1180.25 894,-1096.38 774.21,-976.05 533,-1141.17 533,-971.38 533,-971.38 533,-971.38 533,-873.68 533,-720.85 590.56,-543.75 614.13,-477.66"/>
<polygon fill="black" stroke="black" points="617.5,-478.62 617.6,-468.03 610.91,-476.25 617.5,-478.62"/>
</g>
<!-- 29&#45;&gt;43 -->
<g id="edge81" class="edge">
<title>29&#45;&gt;43</title>
<path fill="none" stroke="black" d="M999.1,-1384.03C998.69,-1335.56 992.7,-1195.72 940,-1096.38 929.69,-1076.94 920.61,-1076.84 906,-1060.38 809.85,-952.02 774.56,-928.58 714,-796.99 673.23,-708.39 660.53,-684.97 645,-588.69 639.01,-551.53 621.55,-533.44 645,-504 667.48,-475.78 767.55,-461.35 828.36,-455.06"/>
<polygon fill="black" stroke="black" points="828.9,-458.53 838.5,-454.05 828.2,-451.56 828.9,-458.53"/>
</g>
<!-- 29&#45;&gt;51 -->
<g id="edge79" class="edge">
<title>29&#45;&gt;51</title>
<path fill="none" stroke="black" d="M977.94,-1388.42C962.97,-1378.58 942.95,-1364.1 928,-1348.38 887.68,-1305.98 852.32,-1246.92 833.77,-1213.38"/>
<polygon fill="black" stroke="black" points="836.65,-1211.34 828.78,-1204.24 830.5,-1214.69 836.65,-1211.34"/>
</g>
<!-- 29&#45;&gt;25 -->
<g id="edge77" class="edge">
<title>29&#45;&gt;25</title>
<path fill="none" stroke="black" d="M1029.25,-1394.98C1081,-1384.04 1187.82,-1361.45 1259.21,-1346.35"/>
<polygon fill="black" stroke="black" points="1259.98,-1349.76 1269.04,-1344.27 1258.53,-1342.92 1259.98,-1349.76"/>
</g>
<!-- 29&#45;&gt;37 -->
<g id="edge84" class="edge">
<title>29&#45;&gt;37</title>
<path fill="none" stroke="black" d="M1023.79,-1390.19C1040.11,-1381.37 1060.19,-1367.38 1070,-1348.38 1083.13,-1322.93 1081.14,-861.61 1082,-832.99 1083.82,-772.4 1064.46,-752.96 1087,-696.69 1091.27,-686.03 1098.68,-676.09 1106.38,-667.77"/>
<polygon fill="black" stroke="black" points="1108.91,-670.19 1113.44,-660.61 1103.92,-665.27 1108.91,-670.19"/>
</g>
<!-- 37&#45;&gt;66 -->
<g id="edge99" class="edge">
<title>37&#45;&gt;66</title>
<path fill="none" stroke="black" d="M1139.21,-660.93C1140.94,-676.78 1141.21,-700.53 1140.03,-718.89"/>
<polygon fill="black" stroke="black" points="1136.53,-718.71 1139.17,-728.97 1143.51,-719.31 1136.53,-718.71"/>
</g>
<!-- 37&#45;&gt;37 -->
<g id="edge100" class="edge">
<title>37&#45;&gt;37</title>
<path fill="none" stroke="black" d="M1179.47,-658.57C1213.37,-664.11 1247.54,-658.82 1247.54,-642.69 1247.54,-628.21 1219.96,-622.46 1189.77,-625.47"/>
<polygon fill="black" stroke="black" points="1188.93,-622.05 1179.47,-626.82 1189.84,-628.99 1188.93,-622.05"/>
</g>
<!-- 30 -->
<g id="node59" class="node">
<title>30</title>
<ellipse fill="none" stroke="red" cx="2413" cy="-1977.17" rx="42.49" ry="18"/>
<text text-anchor="middle" x="2413" y="-1973.47" font-family="Times New Roman,serif" font-size="14.00">model11</text>
</g>
<!-- 52&#45;&gt;37 -->
<g id="edge148" class="edge">
<title>52&#45;&gt;37</title>
<path fill="none" stroke="black" d="M1459.56,-1025.2C1446.2,-1005.62 1421.38,-972.76 1393,-952.38 1358.68,-927.72 1334.95,-946.19 1305,-916.38 1230.11,-841.81 1281.21,-778.25 1214,-696.69 1203.57,-684.04 1189.33,-673.28 1175.76,-664.83"/>
<polygon fill="black" stroke="black" points="1177.37,-661.71 1166.98,-659.61 1173.79,-667.73 1177.37,-661.71"/>
</g>
<!-- 34 -->
<g id="node61" class="node">
<title>34</title>
<ellipse fill="none" stroke="red" cx="1541" cy="-1186.38" rx="46.29" ry="18"/>
<text text-anchor="middle" x="1541" y="-1182.68" font-family="Times New Roman,serif" font-size="14.00">interface3</text>
</g>
<!-- 34&#45;&gt;1 -->
<g id="edge97" class="edge">
<title>34&#45;&gt;1</title>
<path fill="none" stroke="black" d="M1541.64,-1168.08C1542.01,-1137.09 1539.23,-1070.97 1512,-1024.38 1486.68,-981.04 1468,-978.26 1425,-952.38 1389.15,-930.8 1364.01,-949.16 1338,-916.38 1256.33,-813.46 1387.24,-713.05 1290,-624.69 1246.07,-584.78 813.9,-605.58 757,-588.69 742.24,-584.31 727.19,-576.61 714.54,-569.03"/>
<polygon fill="black" stroke="black" points="716.14,-565.9 705.8,-563.58 712.44,-571.84 716.14,-565.9"/>
</g>
<!-- 34&#45;&gt;49 -->
<g id="edge93" class="edge">
<title>34&#45;&gt;49</title>
<path fill="none" stroke="black" d="M1584.24,-1179.77C1640.38,-1171.69 1734.22,-1155.2 1760,-1132.38 1843.83,-1058.17 1917.01,-770.85 1937,-660.69 1942.44,-630.7 1932.12,-596.74 1922.71,-573.88"/>
<polygon fill="black" stroke="black" points="1925.83,-572.29 1918.64,-564.51 1919.41,-575.07 1925.83,-572.29"/>
</g>
<!-- 34&#45;&gt;15 -->
<g id="edge96" class="edge">
<title>34&#45;&gt;15</title>
<path fill="none" stroke="black" d="M1507.88,-1173.67C1500.75,-1171.57 1493.19,-1169.64 1486,-1168.38 1437.54,-1159.86 754.49,-1130.67 490.82,-1119.64"/>
<polygon fill="black" stroke="black" points="490.61,-1116.13 480.47,-1119.21 490.32,-1123.12 490.61,-1116.13"/>
</g>
<!-- 34&#45;&gt;37 -->
<g id="edge98" class="edge">
<title>34&#45;&gt;37</title>
<path fill="none" stroke="black" d="M1524.68,-1169.2C1501.8,-1146.1 1459.45,-1101.88 1428,-1060.38 1393.74,-1015.17 1404.37,-987.72 1360,-952.38 1322.07,-922.17 1291.45,-950.51 1257,-916.38 1216.93,-876.69 1232.37,-850.31 1214,-796.99 1198.71,-752.62 1204.38,-737.38 1181,-696.69 1175.09,-686.41 1166.96,-676.35 1159.12,-667.8"/>
<polygon fill="black" stroke="black" points="1161.51,-665.24 1152.08,-660.42 1156.45,-670.07 1161.51,-665.24"/>
</g>
<!-- 63 -->
<g id="node62" class="node">
<title>63</title>
<ellipse fill="none" stroke="black" cx="1655" cy="-1114.38" rx="95.58" ry="18"/>
<text text-anchor="middle" x="1655" y="-1110.68" font-family="Times New Roman,serif" font-size="14.00">executionEnvironment2</text>
</g>
<!-- 34&#45;&gt;63 -->
<g id="edge94" class="edge">
<title>34&#45;&gt;63</title>
<path fill="none" stroke="black" d="M1564.62,-1170.87C1580.39,-1161.19 1601.43,-1148.27 1619.24,-1137.34"/>
<polygon fill="black" stroke="black" points="1621.52,-1140.04 1628.21,-1131.83 1617.86,-1134.08 1621.52,-1140.04"/>
</g>
<!-- 34&#45;&gt;61 -->
<g id="edge95" class="edge">
<title>34&#45;&gt;61</title>
<path fill="none" stroke="black" d="M1587.51,-1185.78C1640.53,-1184.03 1727.65,-1174.27 1788,-1132.38 1819.19,-1110.72 1821.57,-1096.26 1834,-1060.38 1887.04,-907.25 1935.85,-839.9 1860,-696.69 1846.67,-671.53 1822.77,-684.4 1807,-660.69 1753.36,-580.04 1748.29,-459.73 1748.98,-406.28"/>
<polygon fill="black" stroke="black" points="1752.48,-406.29 1749.19,-396.22 1745.48,-406.14 1752.48,-406.29"/>
</g>
<!-- 63&#45;&gt;61 -->
<g id="edge176" class="edge">
<title>63&#45;&gt;61</title>
<path fill="none" stroke="black" d="M1649.62,-1096.32C1635.47,-1052.08 1595.34,-930.35 1552,-832.99 1544.64,-816.46 1537.35,-814.55 1533,-796.99 1522.28,-753.72 1519.6,-739.21 1533,-696.69 1570.28,-578.38 1623.98,-571.07 1693,-468 1707.17,-446.84 1722.73,-422.46 1734.01,-404.57"/>
<polygon fill="black" stroke="black" points="1737.13,-406.19 1739.49,-395.86 1731.2,-402.47 1737.13,-406.19"/>
</g>
<!-- 61&#45;&gt;74 -->
<g id="edge173" class="edge">
<title>61&#45;&gt;74</title>
<path fill="none" stroke="black" d="M1794.82,-382.63C1863.79,-389.34 1991.25,-405.46 2027,-432 2112.2,-495.24 2158.28,-615.07 2176.63,-686.97"/>
<polygon fill="black" stroke="black" points="2173.26,-687.91 2179.04,-696.79 2180.06,-686.24 2173.26,-687.91"/>
</g>
<!-- 35 -->
<g id="node64" class="node">
<title>35</title>
<path fill="none" stroke="red" d="M1718.5,-761.57C1718.5,-763.37 1703.04,-764.84 1684,-764.84 1664.96,-764.84 1649.5,-763.37 1649.5,-761.57 1649.5,-761.57 1649.5,-732.11 1649.5,-732.11 1649.5,-730.31 1664.96,-728.84 1684,-728.84 1703.04,-728.84 1718.5,-730.31 1718.5,-732.11 1718.5,-732.11 1718.5,-761.57 1718.5,-761.57"/>
<path fill="none" stroke="red" d="M1718.5,-761.57C1718.5,-759.76 1703.04,-758.29 1684,-758.29 1664.96,-758.29 1649.5,-759.76 1649.5,-761.57"/>
<text text-anchor="middle" x="1684" y="-743.14" font-family="Times New Roman,serif" font-size="14.00">package2</text>
</g>
<!-- 38 -->
<g id="node65" class="node">
<title>38</title>
<ellipse fill="none" stroke="red" cx="1999" cy="-1617.17" rx="37.89" ry="18"/>
<text text-anchor="middle" x="1999" y="-1613.47" font-family="Times New Roman,serif" font-size="14.00">model0</text>
</g>
<!-- 38&#45;&gt;46 -->
<g id="edge101" class="edge">
<title>38&#45;&gt;46</title>
<path fill="none" stroke="black" d="M1987.44,-1599.7C1975.33,-1582.45 1956.17,-1555.17 1942.27,-1535.37"/>
<polygon fill="black" stroke="black" points="1945.09,-1533.3 1936.48,-1527.13 1939.36,-1537.32 1945.09,-1533.3"/>
</g>
<!-- 38&#45;&gt;8 -->
<g id="edge104" class="edge">
<title>38&#45;&gt;8</title>
<path fill="none" stroke="black" d="M2029.73,-1606.58C2056.7,-1597.47 2096.44,-1582.33 2128,-1563.17 2133.02,-1560.12 2138.04,-1556.68 2142.94,-1553.05"/>
<polygon fill="black" stroke="black" points="2145.25,-1555.69 2151.04,-1546.81 2140.98,-1550.15 2145.25,-1555.69"/>
</g>
<!-- 38&#45;&gt;18 -->
<g id="edge103" class="edge">
<title>38&#45;&gt;18</title>
<path fill="none" stroke="black" d="M2010.09,-1599.7C2017.46,-1588.76 2027.55,-1573.79 2037.35,-1559.25"/>
<polygon fill="black" stroke="black" points="2040.37,-1561.02 2043.06,-1550.77 2034.57,-1557.11 2040.37,-1561.02"/>
</g>
<!-- 47 -->
<g id="node66" class="node">
<title>47</title>
<ellipse fill="none" stroke="black" cx="1813" cy="-746.84" rx="37.89" ry="18"/>
<text text-anchor="middle" x="1813" y="-743.14" font-family="Times New Roman,serif" font-size="14.00">model2</text>
</g>
<!-- 38&#45;&gt;47 -->
<g id="edge102" class="edge">
<title>38&#45;&gt;47</title>
<path fill="none" stroke="black" d="M1998.19,-1599.07C1996.55,-1562.95 1993,-1476.18 1993,-1403.38 1993,-1403.38 1993,-1403.38 1993,-1257.38 1993,-1061.19 1872.9,-845.53 1828.9,-773.11"/>
<polygon fill="black" stroke="black" points="1831.67,-770.93 1823.46,-764.24 1825.71,-774.59 1831.67,-770.93"/>
</g>
<!-- 50 -->
<g id="node67" class="node">
<title>50</title>
<path fill="none" stroke="red" d="M1808,-1847.9C1808,-1849.7 1795.9,-1851.17 1781,-1851.17 1766.1,-1851.17 1754,-1849.7 1754,-1847.9 1754,-1847.9 1754,-1818.44 1754,-1818.44 1754,-1816.64 1766.1,-1815.17 1781,-1815.17 1795.9,-1815.17 1808,-1816.64 1808,-1818.44 1808,-1818.44 1808,-1847.9 1808,-1847.9"/>
<path fill="none" stroke="red" d="M1808,-1847.9C1808,-1846.09 1795.9,-1844.62 1781,-1844.62 1766.1,-1844.62 1754,-1846.09 1754,-1847.9"/>
<text text-anchor="middle" x="1781" y="-1829.47" font-family="Times New Roman,serif" font-size="14.00">node0</text>
</g>
<!-- 50&#45;&gt;2 -->
<g id="edge142" class="edge">
<title>50&#45;&gt;2</title>
<path fill="none" stroke="black" d="M1801.51,-1815.66C1812.26,-1806.03 1824.85,-1793.07 1833,-1779.17 1853.83,-1743.62 1859,-1731.38 1859,-1690.17 1859,-1690.17 1859,-1690.17 1859,-1616.17 1859,-1544.65 1855.66,-1524.32 1878,-1456.38 1920.97,-1325.72 2031,-1324.92 2031,-1187.38 2031,-1187.38 2031,-1187.38 2031,-873.68 2031,-790.33 2031.32,-752.04 1969,-696.69 1913.86,-647.71 1878.96,-676.89 1807,-660.69 1736.74,-644.88 1720.02,-636.68 1649,-624.69 1617.22,-619.33 1161.1,-569.92 1004.41,-553"/>
<polygon fill="black" stroke="black" points="1004.41,-549.48 994.09,-551.88 1003.65,-556.44 1004.41,-549.48"/>
</g>
<!-- 50&#45;&gt;72 -->
<g id="edge141" class="edge">
<title>50&#45;&gt;72</title>
<path fill="none" stroke="black" d="M1758.82,-1815.88C1667.91,-1749.14 1323.92,-1496.57 1224.23,-1423.37"/>
<polygon fill="black" stroke="black" points="1226.02,-1420.34 1215.88,-1417.24 1221.87,-1425.98 1226.02,-1420.34"/>
</g>
<!-- 50&#45;&gt;57 -->
<g id="edge145" class="edge">
<title>50&#45;&gt;57</title>
<path fill="none" stroke="black" d="M1753.87,-1828.15C1673.54,-1816.27 1436.78,-1781.23 1344.97,-1767.64"/>
<polygon fill="black" stroke="black" points="1345.42,-1764.17 1335.02,-1766.17 1344.4,-1771.09 1345.42,-1764.17"/>
</g>
<!-- 50&#45;&gt;52 -->
<g id="edge143" class="edge">
<title>50&#45;&gt;52</title>
<path fill="none" stroke="black" d="M1781,-1815.12C1781,-1788.46 1781,-1735.28 1781,-1690.17 1781,-1690.17 1781,-1690.17 1781,-1257.38 1781,-1185.22 1809.71,-1148.69 1760,-1096.38 1726.82,-1061.46 1585.63,-1049.24 1513.22,-1045.21"/>
<polygon fill="black" stroke="black" points="1513.23,-1041.71 1503.06,-1044.68 1512.86,-1048.7 1513.23,-1041.71"/>
</g>
<!-- 50&#45;&gt;73 -->
<g id="edge144" class="edge">
<title>50&#45;&gt;73</title>
<path fill="none" stroke="black" d="M1788.69,-1815.08C1799.79,-1788.79 1819,-1736.62 1819,-1690.17 1819,-1690.17 1819,-1690.17 1819,-1257.38 1819,-1007.52 2032.19,-877.74 1860,-696.69 1849.53,-685.69 1333.1,-626.35 1318,-624.69 1133.08,-604.44 1081.04,-635.48 901,-588.69 880.84,-583.45 859.55,-574.15 842.53,-565.7"/>
<polygon fill="black" stroke="black" points="844.05,-562.55 833.55,-561.12 840.87,-568.78 844.05,-562.55"/>
</g>
<!-- 73&#45;&gt;56 -->
<g id="edge201" class="edge">
<title>73&#45;&gt;56</title>
<path fill="none" stroke="black" d="M814.32,-564.22C815.87,-578.15 816.16,-598.19 815.19,-614.39"/>
<polygon fill="black" stroke="black" points="811.7,-614.14 814.36,-624.39 818.67,-614.71 811.7,-614.14"/>
</g>
<!-- 53 -->
<g id="node69" class="node">
<title>53</title>
<ellipse fill="none" stroke="red" cx="1464" cy="-1509.77" rx="38.19" ry="18"/>
<text text-anchor="middle" x="1464" y="-1506.07" font-family="Times New Roman,serif" font-size="14.00">device4</text>
</g>
<!-- 53&#45;&gt;4 -->
<g id="edge149" class="edge">
<title>53&#45;&gt;4</title>
<path fill="none" stroke="black" d="M1431.3,-1500.34C1386.72,-1489.08 1304.25,-1469.08 1233,-1456.38 1111.21,-1434.67 1075.89,-1454.55 957,-1420.38 897.41,-1403.25 832.84,-1370.49 795.26,-1349.85"/>
<polygon fill="black" stroke="black" points="796.75,-1346.67 786.3,-1344.88 793.35,-1352.8 796.75,-1346.67"/>
</g>
<!-- 53&#45;&gt;1 -->
<g id="edge153" class="edge">
<title>53&#45;&gt;1</title>
<path fill="none" stroke="black" d="M1464.7,-1491.54C1465.46,-1456.16 1463.72,-1373.52 1435,-1312.38 1407.57,-1253.98 1374.89,-1257.31 1338,-1204.38 1296.62,-1145.01 1279.8,-1130.52 1262,-1060.38 1214.36,-872.68 1389.73,-765.7 1257,-624.69 1218.82,-584.14 810.36,-604.66 757,-588.69 742.36,-584.31 727.43,-576.69 714.85,-569.17"/>
<polygon fill="black" stroke="black" points="716.48,-566.06 706.14,-563.76 712.79,-572.01 716.48,-566.06"/>
</g>
<!-- 53&#45;&gt;72 -->
<g id="edge151" class="edge">
<title>53&#45;&gt;72</title>
<path fill="none" stroke="black" d="M1451.67,-1492.19C1442.1,-1480.49 1427.83,-1465.35 1412,-1456.38 1357.38,-1425.44 1284.97,-1412.4 1239.69,-1407.02"/>
<polygon fill="black" stroke="black" points="1239.95,-1403.53 1229.62,-1405.9 1239.17,-1410.49 1239.95,-1403.53"/>
</g>
<!-- 53&#45;&gt;20 -->
<g id="edge152" class="edge">
<title>53&#45;&gt;20</title>
<path fill="none" stroke="black" d="M1494.73,-1498.95C1607.63,-1460.72 1993,-1310.65 1993,-1043.38 1993,-1043.38 1993,-1043.38 1993,-873.68 1993,-709.18 2034.6,-657.32 1975,-504 1970.86,-493.36 1963.69,-483.28 1956.32,-474.83"/>
<polygon fill="black" stroke="black" points="1958.66,-472.2 1949.29,-467.26 1953.53,-476.97 1958.66,-472.2"/>
</g>
<!-- 53&#45;&gt;63 -->
<g id="edge150" class="edge">
<title>53&#45;&gt;63</title>
<path fill="none" stroke="black" d="M1474.58,-1492.37C1498.36,-1455.06 1556.98,-1360.58 1596,-1276.38 1617.23,-1230.56 1636.23,-1174.77 1646.64,-1142.34"/>
<polygon fill="black" stroke="black" points="1650.01,-1143.26 1649.7,-1132.67 1643.34,-1141.15 1650.01,-1143.26"/>
</g>
<!-- 54 -->
<g id="node70" class="node">
<title>54</title>
<ellipse fill="none" stroke="red" cx="2282" cy="-874.68" rx="40.09" ry="18"/>
<text text-anchor="middle" x="2282" y="-870.98" font-family="Times New Roman,serif" font-size="14.00">artifact7</text>
</g>
<!-- 54&#45;&gt;74 -->
<g id="edge155" class="edge">
<title>54&#45;&gt;74</title>
<path fill="none" stroke="black" d="M2269.52,-857.49C2257.35,-841.7 2238.25,-816.93 2221.29,-794.92"/>
<polygon fill="black" stroke="black" points="2224.03,-792.74 2215.15,-786.96 2218.48,-797.01 2224.03,-792.74"/>
</g>
<!-- 54&#45;&gt;16 -->
<g id="edge156" class="edge">
<title>54&#45;&gt;16</title>
<path fill="none" stroke="black" d="M2291.16,-856.97C2302.8,-835.75 2323.01,-798.89 2336.69,-773.94"/>
<polygon fill="black" stroke="black" points="2339.84,-775.47 2341.58,-765.02 2333.7,-772.11 2339.84,-775.47"/>
</g>
<!-- 54&#45;&gt;20 -->
<g id="edge154" class="edge">
<title>54&#45;&gt;20</title>
<path fill="none" stroke="black" d="M2281.98,-856.46C2281.2,-823.14 2275.72,-748.58 2244,-696.69 2176.2,-585.8 2038.99,-505.2 1971.02,-470.26"/>
<polygon fill="black" stroke="black" points="1972.4,-467.04 1961.9,-465.63 1969.23,-473.28 1972.4,-467.04"/>
</g>
<!-- 59 -->
<g id="node71" class="node">
<title>59</title>
<path fill="none" stroke="red" d="M2219,-1631.9C2219,-1633.7 2206,-1635.17 2190,-1635.17 2174,-1635.17 2161,-1633.7 2161,-1631.9 2161,-1631.9 2161,-1602.44 2161,-1602.44 2161,-1600.64 2174,-1599.17 2190,-1599.17 2206,-1599.17 2219,-1600.64 2219,-1602.44 2219,-1602.44 2219,-1631.9 2219,-1631.9"/>
<path fill="none" stroke="red" d="M2219,-1631.9C2219,-1630.09 2206,-1628.62 2190,-1628.62 2174,-1628.62 2161,-1630.09 2161,-1631.9"/>
<text text-anchor="middle" x="2190" y="-1613.47" font-family="Times New Roman,serif" font-size="14.00">model4</text>
</g>
<!-- 59&#45;&gt;8 -->
<g id="edge169" class="edge">
<title>59&#45;&gt;8</title>
<path fill="none" stroke="black" d="M2190,-1598.77C2190,-1591.55 2190,-1582.71 2190,-1573.43"/>
<polygon fill="black" stroke="black" points="2193.5,-1573.26 2190,-1563.26 2186.5,-1573.26 2193.5,-1573.26"/>
</g>
<!-- 62 -->
<g id="node72" class="node">
<title>62</title>
<ellipse fill="none" stroke="red" cx="1380" cy="-874.68" rx="33.29" ry="18"/>
<text text-anchor="middle" x="1380" y="-870.98" font-family="Times New Roman,serif" font-size="14.00">node6</text>
</g>
<!-- 62&#45;&gt;66 -->
<g id="edge175" class="edge">
<title>62&#45;&gt;66</title>
<path fill="none" stroke="black" d="M1356.41,-861.62C1312.6,-839.2 1218.52,-791.08 1167.9,-765.18"/>
<polygon fill="black" stroke="black" points="1169.47,-762.05 1158.98,-760.62 1166.28,-768.29 1169.47,-762.05"/>
</g>
<!-- 69 -->
<g id="node73" class="node">
<title>69</title>
<ellipse fill="none" stroke="black" cx="1587" cy="-746.84" rx="44.69" ry="18"/>
<text text-anchor="middle" x="1587" y="-743.14" font-family="Times New Roman,serif" font-size="14.00">package3</text>
</g>
<!-- 62&#45;&gt;69 -->
<g id="edge174" class="edge">
<title>62&#45;&gt;69</title>
<path fill="none" stroke="black" d="M1393.83,-858.24C1401.6,-850.11 1411.78,-840.33 1422,-832.99 1461.84,-804.36 1512.63,-779.68 1547.26,-764.37"/>
<polygon fill="black" stroke="black" points="1548.82,-767.51 1556.58,-760.3 1546.02,-761.09 1548.82,-767.51"/>
</g>
<!-- 64 -->
<g id="node74" class="node">
<title>64</title>
<ellipse fill="none" stroke="red" cx="1709" cy="-874.68" rx="37.88" ry="37.88"/>
<ellipse fill="none" stroke="red" cx="1709" cy="-874.68" rx="41.89" ry="41.89"/>
<text text-anchor="middle" x="1709" y="-870.98" font-family="Times New Roman,serif" font-size="14.00">model7</text>
</g>
<!-- 64&#45;&gt;2 -->
<g id="edge180" class="edge">
<title>64&#45;&gt;2</title>
<path fill="none" stroke="black" d="M1726.95,-837.04C1743.3,-797.79 1760.37,-735.89 1728,-696.69 1635.35,-584.52 1163.58,-555.7 1004.47,-549.12"/>
<polygon fill="black" stroke="black" points="1004.59,-545.62 994.45,-548.72 1004.31,-552.62 1004.59,-545.62"/>
</g>
<!-- 64&#45;&gt;35 -->
<g id="edge177" class="edge">
<title>64&#45;&gt;35</title>
<path fill="none" stroke="black" d="M1701.02,-833.52C1697.21,-814.34 1692.75,-791.9 1689.35,-774.79"/>
<polygon fill="black" stroke="black" points="1692.77,-774.04 1687.39,-764.91 1685.91,-775.4 1692.77,-774.04"/>
</g>
<!-- 64&#45;&gt;47 -->
<g id="edge179" class="edge">
<title>64&#45;&gt;47</title>
<path fill="none" stroke="black" d="M1735.24,-841.93C1753.25,-820.14 1776.77,-791.68 1793.21,-771.79"/>
<polygon fill="black" stroke="black" points="1796.11,-773.77 1799.78,-763.83 1790.71,-769.31 1796.11,-773.77"/>
</g>
<!-- 64&#45;&gt;69 -->
<g id="edge178" class="edge">
<title>64&#45;&gt;69</title>
<path fill="none" stroke="black" d="M1680.4,-844.18C1658.91,-822.02 1629.88,-792.07 1609.91,-771.48"/>
<polygon fill="black" stroke="black" points="1612.22,-768.82 1602.74,-764.08 1607.19,-773.69 1612.22,-768.82"/>
</g>
<!-- 67 -->
<g id="node75" class="node">
<title>67</title>
<ellipse fill="none" stroke="red" cx="2115" cy="-1258.38" rx="55.79" ry="18"/>
<text text-anchor="middle" x="2115" y="-1254.68" font-family="Times New Roman,serif" font-size="14.00">component2</text>
</g>
<!-- 67&#45;&gt;65 -->
<g id="edge187" class="edge">
<title>67&#45;&gt;65</title>
<path fill="none" stroke="black" d="M2136.5,-1241.5C2228.73,-1171.59 2579,-886.22 2420,-696.69 2409.22,-683.84 1400.2,-513.51 1107.03,-464.25"/>
<polygon fill="black" stroke="black" points="1107.35,-460.76 1096.91,-462.55 1106.19,-467.66 1107.35,-460.76"/>
</g>
<!-- 67&#45;&gt;49 -->
<g id="edge185" class="edge">
<title>67&#45;&gt;49</title>
<path fill="none" stroke="black" d="M2105.69,-1240.47C2092.25,-1214.42 2069,-1162.54 2069,-1115.38 2069,-1115.38 2069,-1115.38 2069,-745.84 2069,-666.24 1990.15,-600.31 1943.5,-568.28"/>
<polygon fill="black" stroke="black" points="1945.45,-565.37 1935.19,-562.7 1941.54,-571.18 1945.45,-565.37"/>
</g>
<!-- 67&#45;&gt;68 -->
<g id="edge189" class="edge">
<title>67&#45;&gt;68</title>
<path fill="none" stroke="black" d="M2147.37,-1243.48C2168.33,-1233.83 2195.75,-1219.94 2218,-1204.38 2256.66,-1177.34 2262.57,-1165.67 2296,-1132.38 2435.35,-993.59 2515,-944.52 2515,-747.84 2515,-747.84 2515,-747.84 2515,-161 2515,-39.24 1576.8,-21.88 1316.99,-19.41"/>
<polygon fill="black" stroke="black" points="1316.97,-15.91 1306.94,-19.32 1316.91,-22.91 1316.97,-15.91"/>
</g>
<!-- 67&#45;&gt;44 -->
<g id="edge186" class="edge">
<title>67&#45;&gt;44</title>
<path fill="none" stroke="black" d="M2113.42,-1240.35C2111.09,-1213.71 2107,-1160.56 2107,-1115.38 2107,-1115.38 2107,-1115.38 2107,-745.84 2107,-614.65 2093,-582.19 2093,-451 2093,-451 2093,-451 2093,-305 2093,-220.81 1459.22,-177.35 1265.54,-166.04"/>
<polygon fill="black" stroke="black" points="1265.49,-162.53 1255.31,-165.44 1265.09,-169.52 1265.49,-162.53"/>
</g>
<!-- 67&#45;&gt;26 -->
<g id="edge188" class="edge">
<title>67&#45;&gt;26</title>
<path fill="none" stroke="black" d="M2060.07,-1254.93C1950.45,-1249.57 1696.97,-1234.76 1486,-1204.38 1476.6,-1203.02 1466.66,-1201.27 1457.05,-1199.41"/>
<polygon fill="black" stroke="black" points="1457.69,-1195.97 1447.2,-1197.44 1456.32,-1202.83 1457.69,-1195.97"/>
</g>
</g>
</svg>
